%TF.GenerationSoftware,KiCad,Pcbnew,8.0.3-8.0.3-0~ubuntu24.04.1*%
%TF.CreationDate,2024-07-09T09:34:28+02:00*%
%TF.ProjectId,MainBoard,4d61696e-426f-4617-9264-2e6b69636164,rev?*%
%TF.SameCoordinates,Original*%
%TF.FileFunction,Copper,L1,Top*%
%TF.FilePolarity,Positive*%
%FSLAX46Y46*%
G04 Gerber Fmt 4.6, Leading zero omitted, Abs format (unit mm)*
G04 Created by KiCad (PCBNEW 8.0.3-8.0.3-0~ubuntu24.04.1) date 2024-07-09 09:34:28*
%MOMM*%
%LPD*%
G01*
G04 APERTURE LIST*
%TA.AperFunction,SMDPad,CuDef*%
%ADD10R,0.740000X2.920000*%
%TD*%
%TA.AperFunction,ViaPad*%
%ADD11C,0.685800*%
%TD*%
%TA.AperFunction,Conductor*%
%ADD12C,0.254000*%
%TD*%
%TA.AperFunction,Conductor*%
%ADD13C,0.290000*%
%TD*%
G04 APERTURE END LIST*
D10*
X46610000Y-93395000D03*
X46610000Y-96825000D03*
X45340000Y-93395000D03*
X45340000Y-96825000D03*
X44070000Y-93395000D03*
X44070000Y-96825000D03*
X42800000Y-93395000D03*
X42800000Y-96825000D03*
X41530000Y-93395000D03*
X41530000Y-96825000D03*
X40260000Y-93395000D03*
X40260000Y-96825000D03*
X38990000Y-93395000D03*
X38990000Y-96825000D03*
X37720000Y-93395000D03*
X37720000Y-96825000D03*
X36450000Y-93395000D03*
X36450000Y-96825000D03*
X35180000Y-93395000D03*
X35180000Y-96825000D03*
X146610000Y-93395000D03*
X146610000Y-96825000D03*
X145340000Y-93395000D03*
X145340000Y-96825000D03*
X144070000Y-93395000D03*
X144070000Y-96825000D03*
X142800000Y-93395000D03*
X142800000Y-96825000D03*
X141530000Y-93395000D03*
X141530000Y-96825000D03*
X140260000Y-93395000D03*
X140260000Y-96825000D03*
X138990000Y-93395000D03*
X138990000Y-96825000D03*
X137720000Y-93395000D03*
X137720000Y-96825000D03*
X136450000Y-93395000D03*
X136450000Y-96825000D03*
X135180000Y-93395000D03*
X135180000Y-96825000D03*
X149785000Y-66785000D03*
X149785000Y-70215000D03*
X148515000Y-66785000D03*
X148515000Y-70215000D03*
X147245000Y-66785000D03*
X147245000Y-70215000D03*
X145975000Y-66785000D03*
X145975000Y-70215000D03*
X144705000Y-66785000D03*
X144705000Y-70215000D03*
X143435000Y-66785000D03*
X143435000Y-70215000D03*
X142165000Y-66785000D03*
X142165000Y-70215000D03*
X140895000Y-66785000D03*
X140895000Y-70215000D03*
X139625000Y-66785000D03*
X139625000Y-70215000D03*
X138355000Y-66785000D03*
X138355000Y-70215000D03*
X137085000Y-66785000D03*
X137085000Y-70215000D03*
X135815000Y-66785000D03*
X135815000Y-70215000D03*
X134545000Y-66785000D03*
X134545000Y-70215000D03*
X133275000Y-66785000D03*
X133275000Y-70215000D03*
X132005000Y-66785000D03*
X132005000Y-70215000D03*
X49785000Y-66785000D03*
X49785000Y-70215000D03*
X48515000Y-66785000D03*
X48515000Y-70215000D03*
X47245000Y-66785000D03*
X47245000Y-70215000D03*
X45975000Y-66785000D03*
X45975000Y-70215000D03*
X44705000Y-66785000D03*
X44705000Y-70215000D03*
X43435000Y-66785000D03*
X43435000Y-70215000D03*
X42165000Y-66785000D03*
X42165000Y-70215000D03*
X40895000Y-66785000D03*
X40895000Y-70215000D03*
X39625000Y-66785000D03*
X39625000Y-70215000D03*
X38355000Y-66785000D03*
X38355000Y-70215000D03*
X37085000Y-66785000D03*
X37085000Y-70215000D03*
X35815000Y-66785000D03*
X35815000Y-70215000D03*
X34545000Y-66785000D03*
X34545000Y-70215000D03*
X33275000Y-66785000D03*
X33275000Y-70215000D03*
X32005000Y-66785000D03*
X32005000Y-70215000D03*
D11*
X49785000Y-73000000D03*
X35200000Y-90874000D03*
X35180000Y-99874000D03*
X37740000Y-90874000D03*
X32005000Y-73000000D03*
X149785000Y-73000000D03*
X132005000Y-73000000D03*
X135180000Y-99875000D03*
X135200000Y-90875000D03*
X142800000Y-90875000D03*
X112480000Y-106600000D03*
X98515000Y-106600000D03*
X44070000Y-90874000D03*
X144070000Y-90875000D03*
X138990000Y-90875000D03*
X42800000Y-90874000D03*
X104865000Y-106600000D03*
X38990000Y-90874000D03*
X99785000Y-106600000D03*
X97245000Y-106600000D03*
X95970000Y-106600000D03*
X102325000Y-106600000D03*
X141530000Y-90875000D03*
X140260000Y-90875000D03*
X137720000Y-90875000D03*
X40260000Y-90874000D03*
X41530000Y-90874000D03*
X36450000Y-90874000D03*
X107385000Y-53500000D03*
X92165000Y-53500000D03*
X108675000Y-53500000D03*
X93445000Y-53500000D03*
X106135000Y-53500000D03*
X75655000Y-53500000D03*
X89625000Y-53500000D03*
X101056000Y-53500000D03*
X76925000Y-53500000D03*
X99785000Y-53500000D03*
X104865000Y-53500000D03*
X83275000Y-53500000D03*
X74395000Y-53500000D03*
X88335000Y-53500000D03*
X98515000Y-53500000D03*
X80735000Y-53500000D03*
X95975000Y-53500000D03*
X94705000Y-53500000D03*
X85815000Y-53500000D03*
X79465000Y-53500000D03*
X73115000Y-53500000D03*
X87085000Y-53500000D03*
X102325000Y-53500000D03*
X82006000Y-53500000D03*
X145340000Y-90875000D03*
X146610000Y-90875000D03*
X46610000Y-90874000D03*
X45340000Y-90874000D03*
D12*
X33275000Y-70215000D02*
X32005000Y-70215000D01*
X37720000Y-90894000D02*
X37740000Y-90874000D01*
X132005000Y-73000000D02*
X132005000Y-70215000D01*
X49785000Y-70215000D02*
X49785000Y-73000000D01*
X135180000Y-93395000D02*
X135180000Y-90895000D01*
X132005000Y-70215000D02*
X149785000Y-70215000D01*
X33275000Y-70215000D02*
X49785000Y-70215000D01*
X35180000Y-96825000D02*
X35180000Y-99874000D01*
X37720000Y-93395000D02*
X37720000Y-90894000D01*
X135180000Y-90895000D02*
X135200000Y-90875000D01*
X32005000Y-70215000D02*
X32005000Y-73000000D01*
X35180000Y-93395000D02*
X35180000Y-90894000D01*
X149785000Y-70215000D02*
X149785000Y-73000000D01*
X35180000Y-90894000D02*
X35200000Y-90874000D01*
X135180000Y-96825000D02*
X135180000Y-99875000D01*
X142800000Y-90875000D02*
X142800000Y-93395000D01*
X129491450Y-106075000D02*
X129491450Y-105332714D01*
X125291450Y-105332714D02*
X125291450Y-105835000D01*
X133450000Y-106075000D02*
X134800000Y-106075000D01*
X127691450Y-106075000D02*
X127691450Y-106817286D01*
X127931450Y-107057286D02*
X128051450Y-107057286D01*
X92472133Y-100896544D02*
X92457991Y-100910686D01*
X44070000Y-98745000D02*
X44981000Y-99656000D01*
X134800000Y-106075000D02*
X141600000Y-99275000D01*
X129491450Y-106817286D02*
X129491450Y-106075000D01*
X125891450Y-106075000D02*
X125891450Y-105332714D01*
X115000000Y-105275000D02*
X121000000Y-105275000D01*
X44070000Y-96825000D02*
X44070000Y-98745000D01*
X130331450Y-107057286D02*
X130451450Y-107057286D01*
X92457991Y-101250098D02*
X92542843Y-101334950D01*
X131291450Y-106075000D02*
X131291450Y-106817286D01*
X125891450Y-106817286D02*
X125891450Y-106075000D01*
X126491450Y-105332714D02*
X126491450Y-106075000D01*
X125291450Y-106075000D02*
X125291450Y-106817286D01*
X92882255Y-101334950D02*
X92896397Y-101320807D01*
X127091450Y-106817286D02*
X127091450Y-106075000D01*
X130931450Y-105092691D02*
X131051450Y-105092691D01*
X124691450Y-105835000D02*
X124691450Y-105332714D01*
X132731450Y-106075000D02*
X132851450Y-106075000D01*
X92740836Y-100118729D02*
X92825688Y-100203581D01*
X128291450Y-106075000D02*
X128291450Y-105332714D01*
X124931450Y-105092714D02*
X125051450Y-105092714D01*
X130091450Y-105332714D02*
X130091450Y-106075000D01*
X131891450Y-106817286D02*
X131891450Y-106075000D01*
X128891450Y-105332714D02*
X128891450Y-106075000D01*
X121000000Y-105275000D02*
X121800000Y-106075000D01*
X92811544Y-100557134D02*
X92641839Y-100726839D01*
X130091450Y-106075000D02*
X130091450Y-106817286D01*
X44981000Y-99656000D02*
X91571000Y-99656000D01*
X93235808Y-101320807D02*
X93320661Y-101405661D01*
X130691450Y-106075000D02*
X130691450Y-105332691D01*
X131291450Y-105332691D02*
X131291450Y-106075000D01*
X128891450Y-106075000D02*
X128891450Y-106817286D01*
X93635891Y-101720891D02*
X98515000Y-106600000D01*
X128291450Y-106817286D02*
X128291450Y-106075000D01*
X127091450Y-106075000D02*
X127091450Y-105332714D01*
X144070000Y-98605000D02*
X144070000Y-96825000D01*
X132131450Y-105092691D02*
X132251450Y-105092691D01*
X131891450Y-105835000D02*
X131891450Y-105332691D01*
X131531450Y-107057286D02*
X131651450Y-107057286D01*
X121800000Y-106075000D02*
X124451450Y-106075000D01*
X127691450Y-105332714D02*
X127691450Y-106075000D01*
X129131450Y-107057286D02*
X129251450Y-107057286D01*
X93320661Y-101405661D02*
X93635891Y-101720891D01*
X125531450Y-107057286D02*
X125651450Y-107057286D01*
X126491450Y-106075000D02*
X126491450Y-106817286D01*
X92641839Y-100726839D02*
X92472133Y-100896544D01*
X127331450Y-105092714D02*
X127451450Y-105092714D01*
X126131450Y-105092714D02*
X126251450Y-105092714D01*
X91571000Y-99656000D02*
X92047871Y-100132871D01*
X92387283Y-100132872D02*
X92401424Y-100118728D01*
X112480000Y-106600000D02*
X113675000Y-106600000D01*
X129731450Y-105092714D02*
X129851450Y-105092714D01*
X141600000Y-99275000D02*
X143400000Y-99275000D01*
X113675000Y-106600000D02*
X115000000Y-105275000D01*
X131891450Y-106075000D02*
X131891450Y-105835000D01*
X128531450Y-105092714D02*
X128651450Y-105092714D01*
X132851450Y-106075000D02*
X133450000Y-106075000D01*
X143400000Y-99275000D02*
X144070000Y-98605000D01*
X126731450Y-107057286D02*
X126851450Y-107057286D01*
X125291450Y-105835000D02*
X125291450Y-106075000D01*
X92825688Y-100542993D02*
X92811544Y-100557134D01*
X132491450Y-105332691D02*
X132491450Y-105835000D01*
X130691450Y-106817286D02*
X130691450Y-106075000D01*
X92457991Y-100910686D02*
G75*
G03*
X92457983Y-101250106I169709J-169714D01*
G01*
X129851450Y-105092714D02*
G75*
G02*
X130091486Y-105332714I50J-239986D01*
G01*
X130091450Y-106817286D02*
G75*
G03*
X130331450Y-107057250I239950J-14D01*
G01*
X125291450Y-106817286D02*
G75*
G03*
X125531450Y-107057250I239950J-14D01*
G01*
X92825688Y-100203581D02*
G75*
G02*
X92825701Y-100543006I-169688J-169719D01*
G01*
X124691450Y-105332714D02*
G75*
G02*
X124931450Y-105092750I239950J14D01*
G01*
X92401424Y-100118728D02*
G75*
G02*
X92740806Y-100118758I169676J-169672D01*
G01*
X125891450Y-105332714D02*
G75*
G02*
X126131450Y-105092750I239950J14D01*
G01*
X131651450Y-107057286D02*
G75*
G03*
X131891486Y-106817286I50J239986D01*
G01*
X125651450Y-107057286D02*
G75*
G03*
X125891486Y-106817286I50J239986D01*
G01*
X132491450Y-105835000D02*
G75*
G03*
X132731450Y-106074950I239950J0D01*
G01*
X128291450Y-105332714D02*
G75*
G02*
X128531450Y-105092750I239950J14D01*
G01*
X131891450Y-105332691D02*
G75*
G02*
X132131450Y-105092750I239950J-9D01*
G01*
X131051450Y-105092691D02*
G75*
G02*
X131291509Y-105332691I50J-240009D01*
G01*
X124451450Y-106075000D02*
G75*
G03*
X124691500Y-105835000I50J240000D01*
G01*
X127451450Y-105092714D02*
G75*
G02*
X127691486Y-105332714I50J-239986D01*
G01*
X129251450Y-107057286D02*
G75*
G03*
X129491486Y-106817286I50J239986D01*
G01*
X128051450Y-107057286D02*
G75*
G03*
X128291486Y-106817286I50J239986D01*
G01*
X126491450Y-106817286D02*
G75*
G03*
X126731450Y-107057250I239950J-14D01*
G01*
X92047871Y-100132871D02*
G75*
G03*
X92387306Y-100132895I169729J169671D01*
G01*
X92542843Y-101334950D02*
G75*
G03*
X92882255Y-101334950I169706J169704D01*
G01*
X127691450Y-106817286D02*
G75*
G03*
X127931450Y-107057250I239950J-14D01*
G01*
X130451450Y-107057286D02*
G75*
G03*
X130691486Y-106817286I50J239986D01*
G01*
X128651450Y-105092714D02*
G75*
G02*
X128891486Y-105332714I50J-239986D01*
G01*
X127091450Y-105332714D02*
G75*
G02*
X127331450Y-105092750I239950J14D01*
G01*
X130691450Y-105332691D02*
G75*
G02*
X130931450Y-105092750I239950J-9D01*
G01*
X131291450Y-106817286D02*
G75*
G03*
X131531450Y-107057250I239950J-14D01*
G01*
X132251450Y-105092691D02*
G75*
G02*
X132491509Y-105332691I50J-240009D01*
G01*
X126251450Y-105092714D02*
G75*
G02*
X126491486Y-105332714I50J-239986D01*
G01*
X128891450Y-106817286D02*
G75*
G03*
X129131450Y-107057250I239950J-14D01*
G01*
X125051450Y-105092714D02*
G75*
G02*
X125291486Y-105332714I50J-239986D01*
G01*
X126851450Y-107057286D02*
G75*
G03*
X127091486Y-106817286I50J239986D01*
G01*
X92896397Y-101320807D02*
G75*
G02*
X93235808Y-101320806I169706J-169707D01*
G01*
X129491450Y-105332714D02*
G75*
G02*
X129731450Y-105092750I239950J14D01*
G01*
X44070000Y-90874000D02*
X44070000Y-93395000D01*
X144070000Y-90875000D02*
X144070000Y-93395000D01*
X138990000Y-90875000D02*
X138990000Y-93395000D01*
X42800000Y-90874000D02*
X42800000Y-93395000D01*
X109390000Y-104075000D02*
X109390000Y-103315000D01*
X112990000Y-104075000D02*
X112990000Y-103835000D01*
X113590000Y-103315000D02*
X113590000Y-103835000D01*
X109030000Y-105075000D02*
X109150000Y-105075000D01*
X110590000Y-104835000D02*
X110590000Y-104075000D01*
X108790000Y-103315000D02*
X108790000Y-103835000D01*
X112390000Y-104075000D02*
X112390000Y-104835000D01*
X112990000Y-104835000D02*
X112990000Y-104075000D01*
X111190000Y-104075000D02*
X111190000Y-104835000D01*
X110590000Y-104075000D02*
X110590000Y-103315000D01*
X112630000Y-105075000D02*
X112750000Y-105075000D01*
X104865000Y-106600000D02*
X107390000Y-104075000D01*
X113230000Y-103075000D02*
X113350000Y-103075000D01*
X107390000Y-104075000D02*
X107950000Y-104075000D01*
X108790000Y-104075000D02*
X108790000Y-104835000D01*
X111790000Y-104075000D02*
X111790000Y-103315000D01*
X109990000Y-104075000D02*
X109990000Y-104835000D01*
X113830000Y-104075000D02*
X113950000Y-104075000D01*
X111430000Y-105075000D02*
X111550000Y-105075000D01*
X112030000Y-103075000D02*
X112150000Y-103075000D01*
X141200000Y-98875000D02*
X142019000Y-98875000D01*
X108430000Y-103075000D02*
X108550000Y-103075000D01*
X111190000Y-103315000D02*
X111190000Y-104075000D01*
X136000000Y-104075000D02*
X141200000Y-98875000D01*
X110830000Y-103075000D02*
X110950000Y-103075000D01*
X113950000Y-104075000D02*
X114513564Y-104075000D01*
X109630000Y-103075000D02*
X109750000Y-103075000D01*
X112990000Y-103835000D02*
X112990000Y-103315000D01*
X109990000Y-103315000D02*
X109990000Y-104075000D01*
X142019000Y-98875000D02*
X142800000Y-98094000D01*
X114513564Y-104075000D02*
X136000000Y-104075000D01*
X111790000Y-104835000D02*
X111790000Y-104075000D01*
X112390000Y-103315000D02*
X112390000Y-104075000D01*
X110230000Y-105075000D02*
X110350000Y-105075000D01*
X108190000Y-103835000D02*
X108190000Y-103315000D01*
X142800000Y-98094000D02*
X142800000Y-96825000D01*
X109390000Y-104835000D02*
X109390000Y-104075000D01*
X108790000Y-103835000D02*
X108790000Y-104075000D01*
X111190000Y-104835000D02*
G75*
G03*
X111430000Y-105075000I240000J0D01*
G01*
X111550000Y-105075000D02*
G75*
G03*
X111790000Y-104835000I0J240000D01*
G01*
X108790000Y-104835000D02*
G75*
G03*
X109030000Y-105075000I240000J0D01*
G01*
X109990000Y-104835000D02*
G75*
G03*
X110230000Y-105075000I240000J0D01*
G01*
X110350000Y-105075000D02*
G75*
G03*
X110590000Y-104835000I0J240000D01*
G01*
X108550000Y-103075000D02*
G75*
G02*
X108790000Y-103315000I0J-240000D01*
G01*
X110950000Y-103075000D02*
G75*
G02*
X111190000Y-103315000I0J-240000D01*
G01*
X112390000Y-104835000D02*
G75*
G03*
X112630000Y-105075000I240000J0D01*
G01*
X112150000Y-103075000D02*
G75*
G02*
X112390000Y-103315000I0J-240000D01*
G01*
X108190000Y-103315000D02*
G75*
G02*
X108430000Y-103075000I240000J0D01*
G01*
X109390000Y-103315000D02*
G75*
G02*
X109630000Y-103075000I240000J0D01*
G01*
X111790000Y-103315000D02*
G75*
G02*
X112030000Y-103075000I240000J0D01*
G01*
X113350000Y-103075000D02*
G75*
G02*
X113590000Y-103315000I0J-240000D01*
G01*
X107950000Y-104075000D02*
G75*
G03*
X108190000Y-103835000I0J240000D01*
G01*
X113590000Y-103835000D02*
G75*
G03*
X113830000Y-104075000I240000J0D01*
G01*
X110590000Y-103315000D02*
G75*
G02*
X110830000Y-103075000I240000J0D01*
G01*
X109150000Y-105075000D02*
G75*
G03*
X109390000Y-104835000I0J240000D01*
G01*
X109750000Y-103075000D02*
G75*
G02*
X109990000Y-103315000I0J-240000D01*
G01*
X112750000Y-105075000D02*
G75*
G03*
X112990000Y-104835000I0J240000D01*
G01*
X112990000Y-103315000D02*
G75*
G02*
X113230000Y-103075000I240000J0D01*
G01*
X38990000Y-90874000D02*
X38990000Y-93395000D01*
X115454411Y-107585000D02*
X115454411Y-107825000D01*
X116054411Y-107825000D02*
X116054411Y-107065000D01*
X96147640Y-102962640D02*
X99785000Y-106600000D01*
X118454411Y-108050000D02*
X118454411Y-107825000D01*
X101010000Y-107825000D02*
X114614411Y-107825000D01*
X95693841Y-102876536D02*
X95707983Y-102862393D01*
X95269577Y-102791684D02*
X95354429Y-102876536D01*
X95198869Y-101674458D02*
X95566563Y-101306761D01*
X95990827Y-101731026D02*
X95623130Y-102098720D01*
X142200000Y-99675000D02*
X144400000Y-99675000D01*
X46600000Y-99275000D02*
X92460000Y-99275000D01*
X120000000Y-107825000D02*
X134050000Y-107825000D01*
X144400000Y-99675000D02*
X145340000Y-98735000D01*
X117854411Y-107825000D02*
X117854411Y-108050000D01*
X118454411Y-107825000D02*
X118454411Y-107585000D01*
X119414411Y-107825000D02*
X120000000Y-107825000D01*
X115454411Y-107065000D02*
X115454411Y-107585000D01*
X115679411Y-108275000D02*
X115829411Y-108275000D01*
X119054411Y-107065000D02*
X119054411Y-107585000D01*
X95623130Y-102098720D02*
X95453424Y-102268426D01*
X99785000Y-106600000D02*
X101010000Y-107825000D01*
X117254411Y-108050000D02*
X117254411Y-107825000D01*
X95905975Y-101306762D02*
X95990827Y-101391614D01*
X118079411Y-108275000D02*
X118229411Y-108275000D01*
X45340000Y-98015000D02*
X46600000Y-99275000D01*
X92460000Y-99275000D02*
X94859457Y-101674457D01*
X95453425Y-102268425D02*
X95283719Y-102438130D01*
X117254411Y-107825000D02*
X117254411Y-107065000D01*
X118694411Y-106825000D02*
X118814411Y-106825000D01*
X116879411Y-108275000D02*
X117029411Y-108275000D01*
X116654411Y-107825000D02*
X116654411Y-108050000D01*
X115454411Y-107825000D02*
X115454411Y-108050000D01*
X96047394Y-102862393D02*
X96132247Y-102947247D01*
X114854411Y-107585000D02*
X114854411Y-107065000D01*
X115094411Y-106825000D02*
X115214411Y-106825000D01*
X134050000Y-107825000D02*
X142200000Y-99675000D01*
X95453424Y-102268426D02*
X95453425Y-102268425D01*
X118454411Y-107585000D02*
X118454411Y-107065000D01*
X145340000Y-98735000D02*
X145340000Y-96825000D01*
X116054411Y-108050000D02*
X116054411Y-107825000D01*
X96132247Y-102947247D02*
X96147640Y-102962640D01*
X117494411Y-106825000D02*
X117614411Y-106825000D01*
X116654411Y-107065000D02*
X116654411Y-107825000D01*
X117854411Y-107065000D02*
X117854411Y-107825000D01*
X45340000Y-96825000D02*
X45340000Y-98015000D01*
X95283719Y-102438130D02*
X95269577Y-102452272D01*
X119294411Y-107825000D02*
X119414411Y-107825000D01*
X116294411Y-106825000D02*
X116414411Y-106825000D01*
X114854411Y-107065000D02*
G75*
G02*
X115094411Y-106825011I239989J0D01*
G01*
X95269577Y-102452272D02*
G75*
G03*
X95269555Y-102791706I169723J-169728D01*
G01*
X118814411Y-106825000D02*
G75*
G02*
X119054400Y-107065000I-11J-240000D01*
G01*
X116414411Y-106825000D02*
G75*
G02*
X116654400Y-107065000I-11J-240000D01*
G01*
X115829411Y-108275000D02*
G75*
G03*
X116054400Y-108050000I-11J225000D01*
G01*
X116654411Y-108050000D02*
G75*
G03*
X116879411Y-108274989I224989J0D01*
G01*
X94859457Y-101674457D02*
G75*
G03*
X95198905Y-101674495I169743J169757D01*
G01*
X118454411Y-107065000D02*
G75*
G02*
X118694411Y-106825011I239989J0D01*
G01*
X117254411Y-107065000D02*
G75*
G02*
X117494411Y-106825011I239989J0D01*
G01*
X95990827Y-101391614D02*
G75*
G02*
X95990807Y-101731006I-169727J-169686D01*
G01*
X116054411Y-107065000D02*
G75*
G02*
X116294411Y-106825011I239989J0D01*
G01*
X119054411Y-107585000D02*
G75*
G03*
X119294411Y-107824989I239989J0D01*
G01*
X117854411Y-108050000D02*
G75*
G03*
X118079411Y-108274989I224989J0D01*
G01*
X114614411Y-107825000D02*
G75*
G03*
X114854400Y-107585000I-11J240000D01*
G01*
X95707983Y-102862393D02*
G75*
G02*
X96047394Y-102862393I169705J-169707D01*
G01*
X115454411Y-108050000D02*
G75*
G03*
X115679411Y-108274989I224989J0D01*
G01*
X117029411Y-108275000D02*
G75*
G03*
X117254400Y-108050000I-11J225000D01*
G01*
X117614411Y-106825000D02*
G75*
G02*
X117854400Y-107065000I-11J-240000D01*
G01*
X95354429Y-102876536D02*
G75*
G03*
X95693841Y-102876536I169706J169704D01*
G01*
X95566563Y-101306761D02*
G75*
G02*
X95906006Y-101306730I169737J-169739D01*
G01*
X118229411Y-108275000D02*
G75*
G03*
X118454400Y-108050000I-11J225000D01*
G01*
X115214411Y-106825000D02*
G75*
G02*
X115454400Y-107065000I-11J-240000D01*
G01*
X42800000Y-96825000D02*
X42800000Y-98539000D01*
X42800000Y-98539000D02*
X44336000Y-100075000D01*
X44336000Y-100075000D02*
X90720000Y-100075000D01*
X90720000Y-100075000D02*
X97245000Y-106600000D01*
X145600000Y-100075000D02*
X146610000Y-99065000D01*
X102325000Y-106600000D02*
X92550000Y-96825000D01*
X95970000Y-107020000D02*
X97650000Y-108700000D01*
X146610000Y-99065000D02*
X146610000Y-96825000D01*
X97650000Y-108700000D02*
X133975000Y-108700000D01*
X92550000Y-96825000D02*
X46610000Y-96825000D01*
X142600000Y-100075000D02*
X145600000Y-100075000D01*
X133975000Y-108700000D02*
X142600000Y-100075000D01*
X95970000Y-106600000D02*
X95970000Y-107020000D01*
X141530000Y-90875000D02*
X141530000Y-93395000D01*
X140260000Y-90875000D02*
X140260000Y-93395000D01*
X137720000Y-90875000D02*
X137720000Y-93395000D01*
X40260000Y-90874000D02*
X40260000Y-93395000D01*
X41530000Y-90874000D02*
X41530000Y-93395000D01*
X36450000Y-93395000D02*
X36450000Y-90874000D01*
D13*
X107785000Y-53900000D02*
X107785000Y-55806484D01*
X147635000Y-64204999D02*
X147245000Y-64594999D01*
X147245000Y-64594999D02*
X147245000Y-66785000D01*
X144352036Y-57120000D02*
X147635000Y-60402964D01*
X109098516Y-57120000D02*
X144352036Y-57120000D01*
X107385000Y-53500000D02*
X107785000Y-53900000D01*
X147635000Y-60402964D02*
X147635000Y-64204999D01*
X107785000Y-55806484D02*
X109098516Y-57120000D01*
X92165000Y-53500000D02*
X92560000Y-53895000D01*
X134935000Y-65305000D02*
X134545000Y-65695000D01*
X99898516Y-63520000D02*
X134098516Y-63520000D01*
X134545000Y-65695000D02*
X134545000Y-66785000D01*
X134935000Y-64356484D02*
X134935000Y-65305000D01*
X92560000Y-56181484D02*
X99898516Y-63520000D01*
X92560000Y-53895000D02*
X92560000Y-56181484D01*
X134098516Y-63520000D02*
X134935000Y-64356484D01*
X148515000Y-64594999D02*
X148515000Y-66785000D01*
X144555000Y-56630000D02*
X148125000Y-60200000D01*
X108675000Y-53500000D02*
X108275000Y-53900000D01*
X108275000Y-53900000D02*
X108275000Y-55603516D01*
X109301484Y-56630000D02*
X144555000Y-56630000D01*
X148125000Y-60200000D02*
X148125000Y-64204999D01*
X108275000Y-55603516D02*
X109301484Y-56630000D01*
X148125000Y-64204999D02*
X148515000Y-64594999D01*
X93050000Y-53895000D02*
X93050000Y-55978516D01*
X135425000Y-65305000D02*
X135815000Y-65695000D01*
X135425000Y-64153516D02*
X135425000Y-65305000D01*
X93050000Y-55978516D02*
X100101484Y-63030000D01*
X93445000Y-53500000D02*
X93050000Y-53895000D01*
X135815000Y-65695000D02*
X135815000Y-66785000D01*
X100101484Y-63030000D02*
X134301484Y-63030000D01*
X134301484Y-63030000D02*
X135425000Y-64153516D01*
X145975000Y-64594999D02*
X145975000Y-66785000D01*
X142155000Y-58230000D02*
X145585000Y-61660000D01*
X105745000Y-57073516D02*
X106901484Y-58230000D01*
X105745000Y-53890000D02*
X105745000Y-57073516D01*
X106135000Y-53500000D02*
X105745000Y-53890000D01*
X145585000Y-61660000D02*
X145585000Y-64204999D01*
X145585000Y-64204999D02*
X145975000Y-64594999D01*
X106901484Y-58230000D02*
X142155000Y-58230000D01*
X76045000Y-56683516D02*
X73948516Y-58780000D01*
X39668867Y-60421820D02*
X39712402Y-60465355D01*
X37085000Y-64594999D02*
X37085000Y-66785000D01*
X38396077Y-60782445D02*
X38254653Y-60923864D01*
X73948516Y-58780000D02*
X40398516Y-58780000D01*
X37475000Y-62744244D02*
X37475000Y-64204999D01*
X37475000Y-64204999D02*
X37085000Y-64594999D01*
X40398516Y-58780000D02*
X39668867Y-59509649D01*
X39668867Y-59509649D02*
X39668868Y-59509650D01*
X76045000Y-53890000D02*
X76045000Y-56683516D01*
X37475000Y-61703516D02*
X37475000Y-62744244D01*
X39712402Y-60684557D02*
X39570981Y-60825979D01*
X39351779Y-60825980D02*
X39308245Y-60782446D01*
X38254653Y-60923864D02*
X37475000Y-61703516D01*
X75655000Y-53500000D02*
X76045000Y-53890000D01*
X39712402Y-60465355D02*
G75*
G02*
X39712446Y-60684601I-109602J-109645D01*
G01*
X39308245Y-60782446D02*
G75*
G03*
X38396117Y-60782484I-456045J-456054D01*
G01*
X39570981Y-60825979D02*
G75*
G02*
X39351800Y-60825960I-109581J109579D01*
G01*
X39668868Y-59509650D02*
G75*
G03*
X39668902Y-60421785I456132J-456050D01*
G01*
X48125000Y-64621484D02*
X49051484Y-63695000D01*
X89225000Y-56575000D02*
X89225000Y-53900000D01*
X48515000Y-66785000D02*
X48515000Y-65695000D01*
X48125000Y-65305000D02*
X48125000Y-64621484D01*
X48515000Y-65695000D02*
X48125000Y-65305000D01*
X82105000Y-63695000D02*
X89225000Y-56575000D01*
X89225000Y-53900000D02*
X89625000Y-53500000D01*
X49051484Y-63695000D02*
X82105000Y-63695000D01*
X101445500Y-53889500D02*
X101445500Y-58266984D01*
X101445500Y-58266984D02*
X102898516Y-59720000D01*
X142555000Y-63830000D02*
X142555000Y-64204999D01*
X142555000Y-64204999D02*
X142165000Y-64594999D01*
X102898516Y-59720000D02*
X138445000Y-59720000D01*
X138445000Y-59720000D02*
X142555000Y-63830000D01*
X142165000Y-64594999D02*
X142165000Y-66785000D01*
X101056000Y-53500000D02*
X101445500Y-53889500D01*
X37965000Y-61906484D02*
X37965000Y-62744244D01*
X76535000Y-56886484D02*
X74151484Y-59270000D01*
X38742558Y-61128929D02*
X38601137Y-61270348D01*
X76535000Y-53890000D02*
X76535000Y-56886484D01*
X37965000Y-64204999D02*
X38355000Y-64594999D01*
X40601484Y-59270000D02*
X40015351Y-59856133D01*
X40058885Y-61031040D02*
X39917464Y-61172462D01*
X40015351Y-60075335D02*
X40058886Y-60118870D01*
X76925000Y-53500000D02*
X76535000Y-53890000D01*
X74151484Y-59270000D02*
X40601484Y-59270000D01*
X38601137Y-61270348D02*
X37965000Y-61906484D01*
X38355000Y-64594999D02*
X38355000Y-66785000D01*
X37965000Y-62744244D02*
X37965000Y-64204999D01*
X39005294Y-61172463D02*
X38961760Y-61128929D01*
X40058886Y-60118870D02*
G75*
G02*
X40058931Y-61031085I-456086J-456130D01*
G01*
X38961760Y-61128929D02*
G75*
G03*
X38742558Y-61128929I-109601J-109598D01*
G01*
X40015351Y-59856133D02*
G75*
G03*
X40015385Y-60075301I109549J-109567D01*
G01*
X39917464Y-61172462D02*
G75*
G02*
X39005316Y-61172442I-456064J456062D01*
G01*
X140895000Y-64594999D02*
X140895000Y-66785000D01*
X101701484Y-60430000D02*
X137447964Y-60430000D01*
X140505000Y-64204999D02*
X140895000Y-64594999D01*
X99785000Y-53500000D02*
X99395000Y-53890000D01*
X99395000Y-58123516D02*
X101701484Y-60430000D01*
X140505000Y-63487036D02*
X140505000Y-64204999D01*
X99395000Y-53890000D02*
X99395000Y-58123516D01*
X137447964Y-60430000D02*
X140505000Y-63487036D01*
X145095000Y-64204999D02*
X144705000Y-64594999D01*
X105255000Y-53890000D02*
X105255000Y-57276484D01*
X141952036Y-58720000D02*
X145095000Y-61862964D01*
X106698516Y-58720000D02*
X141952036Y-58720000D01*
X144705000Y-64594999D02*
X144705000Y-66785000D01*
X145095000Y-61862964D02*
X145095000Y-64204999D01*
X104865000Y-53500000D02*
X105255000Y-53890000D01*
X105255000Y-57276484D02*
X106698516Y-58720000D01*
X82885500Y-53889500D02*
X82885500Y-58582464D01*
X43045000Y-64204999D02*
X43435000Y-64594999D01*
X45176484Y-61495000D02*
X43045000Y-63626484D01*
X43045000Y-63626484D02*
X43045000Y-64204999D01*
X43435000Y-64594999D02*
X43435000Y-66785000D01*
X79972964Y-61495000D02*
X45176484Y-61495000D01*
X82885500Y-58582464D02*
X79972964Y-61495000D01*
X83275000Y-53500000D02*
X82885500Y-53889500D01*
X38001484Y-58020000D02*
X71176484Y-58020000D01*
X35425000Y-64204999D02*
X35425000Y-62325000D01*
X74000000Y-53895000D02*
X74395000Y-53500000D01*
X35815000Y-64594999D02*
X35425000Y-64204999D01*
X36839214Y-59182269D02*
X37448242Y-58573242D01*
X35815000Y-66785000D02*
X35815000Y-64594999D01*
X71176484Y-58020000D02*
X74000000Y-55196484D01*
X35425000Y-59684316D02*
X35342092Y-59601408D01*
X35702719Y-59240782D02*
X35785628Y-59323691D01*
X35425000Y-62325000D02*
X35425000Y-60596484D01*
X37448242Y-58573242D02*
X38001484Y-58020000D01*
X35342093Y-59382204D02*
X35483515Y-59240783D01*
X74000000Y-55196484D02*
X74000000Y-53895000D01*
X36697796Y-59323691D02*
X36839214Y-59182269D01*
X35425000Y-60596484D02*
G75*
G03*
X35425000Y-59684316I-456100J456084D01*
G01*
X35342092Y-59601408D02*
G75*
G02*
X35342086Y-59382198I109608J109608D01*
G01*
X35785628Y-59323691D02*
G75*
G03*
X36697796Y-59323691I456084J456085D01*
G01*
X35483515Y-59240783D02*
G75*
G02*
X35702702Y-59240799I109585J-109617D01*
G01*
X88735000Y-56372036D02*
X88735000Y-53900000D01*
X47245000Y-66785000D02*
X47245000Y-65695000D01*
X47635000Y-64418516D02*
X48848516Y-63205000D01*
X48848516Y-63205000D02*
X81902036Y-63205000D01*
X47635000Y-65305000D02*
X47635000Y-64418516D01*
X47245000Y-65695000D02*
X47635000Y-65305000D01*
X88735000Y-53900000D02*
X88335000Y-53500000D01*
X81902036Y-63205000D02*
X88735000Y-56372036D01*
X137245000Y-60920000D02*
X140015000Y-63690000D01*
X101498516Y-60920000D02*
X137245000Y-60920000D01*
X98905000Y-58326484D02*
X101498516Y-60920000D01*
X98515000Y-53500000D02*
X98905000Y-53890000D01*
X139625000Y-64594999D02*
X139625000Y-66785000D01*
X140015000Y-64204999D02*
X139625000Y-64594999D01*
X98905000Y-53890000D02*
X98905000Y-58326484D01*
X140015000Y-63690000D02*
X140015000Y-64204999D01*
X40505000Y-64204999D02*
X40895000Y-64594999D01*
X80345000Y-53890000D02*
X80345000Y-57526484D01*
X80735000Y-53500000D02*
X80345000Y-53890000D01*
X40895000Y-64594999D02*
X40895000Y-66785000D01*
X77426484Y-60445000D02*
X43026484Y-60445000D01*
X40505000Y-62966484D02*
X40505000Y-64204999D01*
X80345000Y-57526484D02*
X77426484Y-60445000D01*
X43026484Y-60445000D02*
X40505000Y-62966484D01*
X137965000Y-63893516D02*
X137965000Y-64204999D01*
X95585000Y-53890000D02*
X95585000Y-56313516D01*
X95975000Y-53500000D02*
X95585000Y-53890000D01*
X95585000Y-56313516D02*
X100901484Y-61630000D01*
X137965000Y-64204999D02*
X138355000Y-64594999D01*
X135701484Y-61630000D02*
X137965000Y-63893516D01*
X138355000Y-64594999D02*
X138355000Y-66785000D01*
X100901484Y-61630000D02*
X135701484Y-61630000D01*
X137475000Y-64096484D02*
X137475000Y-64204999D01*
X95095000Y-56516484D02*
X100698516Y-62120000D01*
X137085000Y-64594999D02*
X137085000Y-66785000D01*
X100698516Y-62120000D02*
X135498516Y-62120000D01*
X135498516Y-62120000D02*
X137475000Y-64096484D01*
X95095000Y-53890000D02*
X95095000Y-56516484D01*
X137475000Y-64204999D02*
X137085000Y-64594999D01*
X94705000Y-53500000D02*
X95095000Y-53890000D01*
X45095000Y-63908516D02*
X45095000Y-64204999D01*
X86205000Y-53890000D02*
X86205000Y-56795000D01*
X45095000Y-64204999D02*
X44705000Y-64594999D01*
X80970000Y-62030000D02*
X46973516Y-62030000D01*
X44705000Y-64594999D02*
X44705000Y-66785000D01*
X86205000Y-56795000D02*
X80970000Y-62030000D01*
X85815000Y-53500000D02*
X86205000Y-53890000D01*
X46973516Y-62030000D02*
X45095000Y-63908516D01*
X79855000Y-53890000D02*
X79855000Y-57323516D01*
X40015000Y-62763516D02*
X40015000Y-64204999D01*
X39625000Y-64594999D02*
X39625000Y-66785000D01*
X79855000Y-57323516D02*
X77223516Y-59955000D01*
X79465000Y-53500000D02*
X79855000Y-53890000D01*
X77223516Y-59955000D02*
X42823516Y-59955000D01*
X42823516Y-59955000D02*
X40015000Y-62763516D01*
X40015000Y-64204999D02*
X39625000Y-64594999D01*
X73510000Y-53895000D02*
X73115000Y-53500000D01*
X34545000Y-64594999D02*
X34935000Y-64204999D01*
X35078518Y-60030797D02*
X34995610Y-59947889D01*
X34995610Y-59035721D02*
X35137032Y-58894300D01*
X34935000Y-62325000D02*
X34935000Y-60393516D01*
X36351311Y-58977209D02*
X36492732Y-58835787D01*
X34935000Y-60393516D02*
X35078517Y-60250001D01*
X36492732Y-58835787D02*
X37101758Y-58226758D01*
X34545000Y-66785000D02*
X34545000Y-64594999D01*
X73510000Y-54993516D02*
X73510000Y-53895000D01*
X36049200Y-58894299D02*
X36132109Y-58977208D01*
X37798516Y-57530000D02*
X70973516Y-57530000D01*
X34935000Y-64204999D02*
X34935000Y-62325000D01*
X37101758Y-58226758D02*
X37798516Y-57530000D01*
X70973516Y-57530000D02*
X73510000Y-54993516D01*
X34995610Y-59947889D02*
G75*
G02*
X34995605Y-59035716I456090J456089D01*
G01*
X36132109Y-58977208D02*
G75*
G03*
X36351301Y-58977199I109591J109608D01*
G01*
X35137032Y-58894300D02*
G75*
G02*
X36049184Y-58894315I456068J-456100D01*
G01*
X35078517Y-60250001D02*
G75*
G03*
X35078516Y-60030798I-109617J109601D01*
G01*
X81172965Y-62520000D02*
X47176480Y-62520000D01*
X86695000Y-56997965D02*
X81172965Y-62520000D01*
X45975000Y-64550000D02*
X45975000Y-66785000D01*
X87085000Y-53500000D02*
X86695000Y-53890000D01*
X45585000Y-64160000D02*
X45975000Y-64550000D01*
X45585000Y-64111480D02*
X45585000Y-64160000D01*
X47176480Y-62520000D02*
X45585000Y-64111480D01*
X86695000Y-53890000D02*
X86695000Y-56997965D01*
X102325000Y-53500000D02*
X101935500Y-53889500D01*
X143435000Y-64017036D02*
X143435000Y-66785000D01*
X103101484Y-59230000D02*
X138647964Y-59230000D01*
X101935500Y-58064016D02*
X103101484Y-59230000D01*
X101935500Y-53889500D02*
X101935500Y-58064016D01*
X138647964Y-59230000D02*
X143435000Y-64017036D01*
X42165000Y-64594999D02*
X42165000Y-66785000D01*
X79770000Y-61005000D02*
X44973516Y-61005000D01*
X42555000Y-64204999D02*
X42165000Y-64594999D01*
X44973516Y-61005000D02*
X42555000Y-63423516D01*
X42555000Y-63423516D02*
X42555000Y-64204999D01*
X82395500Y-58379500D02*
X79770000Y-61005000D01*
X82395500Y-53889500D02*
X82395500Y-58379500D01*
X82006000Y-53500000D02*
X82395500Y-53889500D01*
D12*
X145340000Y-90875000D02*
X145340000Y-93395000D01*
X146610000Y-90875000D02*
X146610000Y-93395000D01*
X46610000Y-90874000D02*
X46610000Y-93395000D01*
X45340000Y-90874000D02*
X45340000Y-93395000D01*
%TA.AperFunction,Conductor*%
G36*
X143106686Y-91002001D02*
G01*
X143113001Y-91008350D01*
X143113250Y-91016586D01*
X142929708Y-91552888D01*
X142923787Y-91559606D01*
X142918638Y-91560800D01*
X142681362Y-91560800D01*
X142673089Y-91557373D01*
X142670292Y-91552888D01*
X142486749Y-91016586D01*
X142487313Y-91007649D01*
X142493311Y-91002002D01*
X142795495Y-90875879D01*
X142804446Y-90875856D01*
X143106686Y-91002001D01*
G37*
%TD.AperFunction*%
%TA.AperFunction,Conductor*%
G36*
X146916686Y-91002001D02*
G01*
X146923001Y-91008350D01*
X146923250Y-91016586D01*
X146739708Y-91552888D01*
X146733787Y-91559606D01*
X146728638Y-91560800D01*
X146491362Y-91560800D01*
X146483089Y-91557373D01*
X146480292Y-91552888D01*
X146296749Y-91016586D01*
X146297313Y-91007649D01*
X146303311Y-91002002D01*
X146605495Y-90875879D01*
X146614446Y-90875856D01*
X146916686Y-91002001D01*
G37*
%TD.AperFunction*%
%TA.AperFunction,Conductor*%
G36*
X45646686Y-91001001D02*
G01*
X45653001Y-91007350D01*
X45653250Y-91015586D01*
X45469708Y-91551888D01*
X45463787Y-91558606D01*
X45458638Y-91559800D01*
X45221362Y-91559800D01*
X45213089Y-91556373D01*
X45210292Y-91551888D01*
X45026749Y-91015586D01*
X45027313Y-91006649D01*
X45033311Y-91001002D01*
X45335495Y-90874879D01*
X45344446Y-90874856D01*
X45646686Y-91001001D01*
G37*
%TD.AperFunction*%
%TA.AperFunction,Conductor*%
G36*
X145646686Y-91002001D02*
G01*
X145653001Y-91008350D01*
X145653250Y-91016586D01*
X145469708Y-91552888D01*
X145463787Y-91559606D01*
X145458638Y-91560800D01*
X145221362Y-91560800D01*
X145213089Y-91557373D01*
X145210292Y-91552888D01*
X145026749Y-91016586D01*
X145027313Y-91007649D01*
X145033311Y-91002002D01*
X145335495Y-90875879D01*
X145344446Y-90875856D01*
X145646686Y-91002001D01*
G37*
%TD.AperFunction*%
%TA.AperFunction,Conductor*%
G36*
X138026686Y-91002001D02*
G01*
X138033001Y-91008350D01*
X138033250Y-91016586D01*
X137849708Y-91552888D01*
X137843787Y-91559606D01*
X137838638Y-91560800D01*
X137601362Y-91560800D01*
X137593089Y-91557373D01*
X137590292Y-91552888D01*
X137406749Y-91016586D01*
X137407313Y-91007649D01*
X137413311Y-91002002D01*
X137715495Y-90875879D01*
X137724446Y-90875856D01*
X138026686Y-91002001D01*
G37*
%TD.AperFunction*%
%TA.AperFunction,Conductor*%
G36*
X49911911Y-72317627D02*
G01*
X49914708Y-72322112D01*
X50098250Y-72858413D01*
X50097686Y-72867350D01*
X50091686Y-72872998D01*
X49789506Y-72999119D01*
X49780552Y-72999143D01*
X49780494Y-72999119D01*
X49478313Y-72872998D01*
X49471998Y-72866649D01*
X49471749Y-72858413D01*
X49655292Y-72322112D01*
X49661213Y-72315394D01*
X49666362Y-72314200D01*
X49903638Y-72314200D01*
X49911911Y-72317627D01*
G37*
%TD.AperFunction*%
%TA.AperFunction,Conductor*%
G36*
X35306911Y-99191627D02*
G01*
X35309708Y-99196112D01*
X35493250Y-99732413D01*
X35492686Y-99741350D01*
X35486686Y-99746998D01*
X35184506Y-99873119D01*
X35175552Y-99873143D01*
X35175494Y-99873119D01*
X34873313Y-99746998D01*
X34866998Y-99740649D01*
X34866749Y-99732413D01*
X35050292Y-99196112D01*
X35056213Y-99189394D01*
X35061362Y-99188200D01*
X35298638Y-99188200D01*
X35306911Y-99191627D01*
G37*
%TD.AperFunction*%
%TA.AperFunction,Conductor*%
G36*
X99479788Y-53373540D02*
G01*
X99780493Y-53497147D01*
X99786842Y-53503461D01*
X99786859Y-53503503D01*
X99912231Y-53807134D01*
X99912221Y-53816088D01*
X99907067Y-53821845D01*
X99542637Y-54022803D01*
X99536987Y-54024257D01*
X99266226Y-54024257D01*
X99257953Y-54020830D01*
X99254526Y-54012557D01*
X99255125Y-54008862D01*
X99425469Y-53497147D01*
X99464244Y-53380666D01*
X99470107Y-53373900D01*
X99479039Y-53373262D01*
X99479788Y-53373540D01*
G37*
%TD.AperFunction*%
%TA.AperFunction,Conductor*%
G36*
X101370152Y-53373570D02*
G01*
X101376466Y-53379919D01*
X101376749Y-53380680D01*
X101585391Y-54009077D01*
X101584746Y-54018009D01*
X101577974Y-54023868D01*
X101574287Y-54024464D01*
X101303518Y-54024464D01*
X101297858Y-54023004D01*
X101272660Y-54009077D01*
X100933917Y-53821849D01*
X100928334Y-53814848D01*
X100928762Y-53807147D01*
X101054141Y-53503501D01*
X101060463Y-53497165D01*
X101361198Y-53373546D01*
X101370152Y-53373570D01*
G37*
%TD.AperFunction*%
%TA.AperFunction,Conductor*%
G36*
X105829788Y-53373540D02*
G01*
X106130493Y-53497147D01*
X106136842Y-53503461D01*
X106136859Y-53503503D01*
X106262231Y-53807134D01*
X106262221Y-53816088D01*
X106257067Y-53821845D01*
X105892637Y-54022803D01*
X105886987Y-54024257D01*
X105616226Y-54024257D01*
X105607953Y-54020830D01*
X105604526Y-54012557D01*
X105605125Y-54008862D01*
X105775469Y-53497147D01*
X105814244Y-53380666D01*
X105820107Y-53373900D01*
X105829039Y-53373262D01*
X105829788Y-53373540D01*
G37*
%TD.AperFunction*%
%TA.AperFunction,Conductor*%
G36*
X102019795Y-53373543D02*
G01*
X102320493Y-53497147D01*
X102326842Y-53503461D01*
X102326859Y-53503503D01*
X102452236Y-53807144D01*
X102452226Y-53816098D01*
X102447082Y-53821849D01*
X102174803Y-53972341D01*
X102086701Y-54021037D01*
X102083142Y-54023004D01*
X102077482Y-54024464D01*
X101806713Y-54024464D01*
X101798440Y-54021037D01*
X101795013Y-54012764D01*
X101795609Y-54009077D01*
X102004250Y-53380680D01*
X102010109Y-53373908D01*
X102019041Y-53373263D01*
X102019795Y-53373543D01*
G37*
%TD.AperFunction*%
%TA.AperFunction,Conductor*%
G36*
X108369606Y-53373465D02*
G01*
X108670493Y-53497147D01*
X108676842Y-53503461D01*
X108676859Y-53503503D01*
X108802153Y-53806945D01*
X108802143Y-53815899D01*
X108796789Y-53821763D01*
X108473843Y-53991770D01*
X108442226Y-54008415D01*
X108422559Y-54018768D01*
X108417109Y-54020115D01*
X108146496Y-54020115D01*
X108138223Y-54016688D01*
X108134796Y-54008415D01*
X108135453Y-54004550D01*
X108354123Y-53380417D01*
X108360092Y-53373746D01*
X108369033Y-53373247D01*
X108369606Y-53373465D01*
G37*
%TD.AperFunction*%
%TA.AperFunction,Conductor*%
G36*
X82969795Y-53373543D02*
G01*
X83270493Y-53497147D01*
X83276842Y-53503461D01*
X83276859Y-53503503D01*
X83402236Y-53807144D01*
X83402226Y-53816098D01*
X83397082Y-53821849D01*
X83124803Y-53972341D01*
X83036701Y-54021037D01*
X83033142Y-54023004D01*
X83027482Y-54024464D01*
X82756713Y-54024464D01*
X82748440Y-54021037D01*
X82745013Y-54012764D01*
X82745609Y-54009077D01*
X82954250Y-53380680D01*
X82960109Y-53373908D01*
X82969041Y-53373263D01*
X82969795Y-53373543D01*
G37*
%TD.AperFunction*%
%TA.AperFunction,Conductor*%
G36*
X89319606Y-53373465D02*
G01*
X89620493Y-53497147D01*
X89626842Y-53503461D01*
X89626859Y-53503503D01*
X89752153Y-53806945D01*
X89752143Y-53815899D01*
X89746789Y-53821763D01*
X89423843Y-53991770D01*
X89392226Y-54008415D01*
X89372559Y-54018768D01*
X89367109Y-54020115D01*
X89096496Y-54020115D01*
X89088223Y-54016688D01*
X89084796Y-54008415D01*
X89085453Y-54004550D01*
X89304123Y-53380417D01*
X89310092Y-53373746D01*
X89319033Y-53373247D01*
X89319606Y-53373465D01*
G37*
%TD.AperFunction*%
%TA.AperFunction,Conductor*%
G36*
X82320152Y-53373570D02*
G01*
X82326466Y-53379919D01*
X82326749Y-53380680D01*
X82535391Y-54009077D01*
X82534746Y-54018009D01*
X82527974Y-54023868D01*
X82524287Y-54024464D01*
X82253518Y-54024464D01*
X82247858Y-54023004D01*
X82222660Y-54009077D01*
X81883917Y-53821849D01*
X81878334Y-53814848D01*
X81878762Y-53807147D01*
X82004141Y-53503501D01*
X82010463Y-53497165D01*
X82311198Y-53373546D01*
X82320152Y-53373570D01*
G37*
%TD.AperFunction*%
%TA.AperFunction,Conductor*%
G36*
X113157888Y-106470292D02*
G01*
X113164606Y-106476213D01*
X113165800Y-106481362D01*
X113165800Y-106718637D01*
X113162373Y-106726910D01*
X113157888Y-106729707D01*
X112621586Y-106913250D01*
X112612649Y-106912686D01*
X112607001Y-106906687D01*
X112480879Y-106604504D01*
X112480856Y-106595552D01*
X112607002Y-106293311D01*
X112613350Y-106286998D01*
X112621586Y-106286749D01*
X113157888Y-106470292D01*
G37*
%TD.AperFunction*%
%TA.AperFunction,Conductor*%
G36*
X44376686Y-91001001D02*
G01*
X44383001Y-91007350D01*
X44383250Y-91015586D01*
X44199708Y-91551888D01*
X44193787Y-91558606D01*
X44188638Y-91559800D01*
X43951362Y-91559800D01*
X43943089Y-91556373D01*
X43940292Y-91551888D01*
X43756749Y-91015586D01*
X43757313Y-91006649D01*
X43763311Y-91001002D01*
X44065495Y-90874879D01*
X44074446Y-90874856D01*
X44376686Y-91001001D01*
G37*
%TD.AperFunction*%
%TA.AperFunction,Conductor*%
G36*
X75969162Y-53373566D02*
G01*
X75975476Y-53379915D01*
X75975756Y-53380668D01*
X76184875Y-54008862D01*
X76184237Y-54017794D01*
X76177469Y-54023658D01*
X76173774Y-54024257D01*
X75903013Y-54024257D01*
X75897363Y-54022803D01*
X75888279Y-54017794D01*
X75850301Y-53996852D01*
X75532932Y-53821845D01*
X75527342Y-53814849D01*
X75527768Y-53807134D01*
X75653141Y-53503501D01*
X75659463Y-53497165D01*
X75960208Y-53373542D01*
X75969162Y-53373566D01*
G37*
%TD.AperFunction*%
%TA.AperFunction,Conductor*%
G36*
X141836686Y-91002001D02*
G01*
X141843001Y-91008350D01*
X141843250Y-91016586D01*
X141659708Y-91552888D01*
X141653787Y-91559606D01*
X141648638Y-91560800D01*
X141411362Y-91560800D01*
X141403089Y-91557373D01*
X141400292Y-91552888D01*
X141216749Y-91016586D01*
X141217313Y-91007649D01*
X141223311Y-91002002D01*
X141525495Y-90875879D01*
X141534446Y-90875856D01*
X141836686Y-91002001D01*
G37*
%TD.AperFunction*%
%TA.AperFunction,Conductor*%
G36*
X93139697Y-53373503D02*
G01*
X93440493Y-53497147D01*
X93446842Y-53503461D01*
X93446859Y-53503503D01*
X93572192Y-53807040D01*
X93572182Y-53815994D01*
X93566927Y-53821805D01*
X93284078Y-53974193D01*
X93216717Y-54010486D01*
X93197599Y-54020786D01*
X93192050Y-54022186D01*
X92921361Y-54022186D01*
X92913088Y-54018759D01*
X92909661Y-54010486D01*
X92910289Y-54006704D01*
X93082180Y-53503503D01*
X93124183Y-53380542D01*
X93130099Y-53373823D01*
X93139036Y-53373254D01*
X93139697Y-53373503D01*
G37*
%TD.AperFunction*%
%TA.AperFunction,Conductor*%
G36*
X105179162Y-53373566D02*
G01*
X105185476Y-53379915D01*
X105185756Y-53380668D01*
X105394875Y-54008862D01*
X105394237Y-54017794D01*
X105387469Y-54023658D01*
X105383774Y-54024257D01*
X105113013Y-54024257D01*
X105107363Y-54022803D01*
X105098279Y-54017794D01*
X105060301Y-53996852D01*
X104742932Y-53821845D01*
X104737342Y-53814849D01*
X104737768Y-53807134D01*
X104863141Y-53503501D01*
X104869463Y-53497165D01*
X105170208Y-53373542D01*
X105179162Y-53373566D01*
G37*
%TD.AperFunction*%
%TA.AperFunction,Conductor*%
G36*
X139296686Y-91002001D02*
G01*
X139303001Y-91008350D01*
X139303250Y-91016586D01*
X139119708Y-91552888D01*
X139113787Y-91559606D01*
X139108638Y-91560800D01*
X138871362Y-91560800D01*
X138863089Y-91557373D01*
X138860292Y-91552888D01*
X138676749Y-91016586D01*
X138677313Y-91007649D01*
X138683311Y-91002002D01*
X138985495Y-90875879D01*
X138994446Y-90875856D01*
X139296686Y-91002001D01*
G37*
%TD.AperFunction*%
%TA.AperFunction,Conductor*%
G36*
X135506333Y-91001854D02*
G01*
X135512648Y-91008203D01*
X135512760Y-91016817D01*
X135356825Y-91426059D01*
X135310145Y-91548570D01*
X135309871Y-91549288D01*
X135303723Y-91555799D01*
X135298938Y-91556822D01*
X135061635Y-91556822D01*
X135053362Y-91553395D01*
X135050455Y-91548570D01*
X134886469Y-91016817D01*
X134886332Y-91016372D01*
X134887168Y-91007458D01*
X134893003Y-91002131D01*
X135195495Y-90875879D01*
X135204446Y-90875856D01*
X135506333Y-91001854D01*
G37*
%TD.AperFunction*%
%TA.AperFunction,Conductor*%
G36*
X38046333Y-91000854D02*
G01*
X38052648Y-91007203D01*
X38052760Y-91015817D01*
X37896825Y-91425059D01*
X37850145Y-91547570D01*
X37849871Y-91548288D01*
X37843723Y-91554799D01*
X37838938Y-91555822D01*
X37601635Y-91555822D01*
X37593362Y-91552395D01*
X37590455Y-91547570D01*
X37426469Y-91015817D01*
X37426332Y-91015372D01*
X37427168Y-91006458D01*
X37433003Y-91001131D01*
X37735495Y-90874879D01*
X37744446Y-90874856D01*
X38046333Y-91000854D01*
G37*
%TD.AperFunction*%
%TA.AperFunction,Conductor*%
G36*
X100100618Y-106472967D02*
G01*
X100106618Y-106478615D01*
X100356056Y-106987621D01*
X100356620Y-106996558D01*
X100353823Y-107001043D01*
X100186043Y-107168823D01*
X100177770Y-107172250D01*
X100172621Y-107171056D01*
X100019529Y-107096033D01*
X99663615Y-106921618D01*
X99657694Y-106914900D01*
X99657942Y-106906665D01*
X99782437Y-106603807D01*
X99788750Y-106597460D01*
X100091665Y-106472943D01*
X100100618Y-106472967D01*
G37*
%TD.AperFunction*%
%TA.AperFunction,Conductor*%
G36*
X73429252Y-53373529D02*
G01*
X73435566Y-53379878D01*
X73435817Y-53380544D01*
X73649711Y-54006704D01*
X73649142Y-54015641D01*
X73642421Y-54021558D01*
X73638639Y-54022186D01*
X73367950Y-54022186D01*
X73362401Y-54020786D01*
X73352851Y-54015641D01*
X72993072Y-53821805D01*
X72987414Y-53814864D01*
X72987807Y-53807040D01*
X73113141Y-53503501D01*
X73119463Y-53497165D01*
X73420298Y-53373505D01*
X73429252Y-53373529D01*
G37*
%TD.AperFunction*%
%TA.AperFunction,Conductor*%
G36*
X74089697Y-53373503D02*
G01*
X74390493Y-53497147D01*
X74396842Y-53503461D01*
X74396859Y-53503503D01*
X74522192Y-53807040D01*
X74522182Y-53815994D01*
X74516927Y-53821805D01*
X74234078Y-53974193D01*
X74166717Y-54010486D01*
X74147599Y-54020786D01*
X74142050Y-54022186D01*
X73871361Y-54022186D01*
X73863088Y-54018759D01*
X73859661Y-54010486D01*
X73860289Y-54006704D01*
X74032180Y-53503503D01*
X74074183Y-53380542D01*
X74080099Y-53373823D01*
X74089036Y-53373254D01*
X74089697Y-53373503D01*
G37*
%TD.AperFunction*%
%TA.AperFunction,Conductor*%
G36*
X76619788Y-53373540D02*
G01*
X76920493Y-53497147D01*
X76926842Y-53503461D01*
X76926859Y-53503503D01*
X77052231Y-53807134D01*
X77052221Y-53816088D01*
X77047067Y-53821845D01*
X76682637Y-54022803D01*
X76676987Y-54024257D01*
X76406226Y-54024257D01*
X76397953Y-54020830D01*
X76394526Y-54012557D01*
X76395125Y-54008862D01*
X76565469Y-53497147D01*
X76604244Y-53380666D01*
X76610107Y-53373900D01*
X76619039Y-53373262D01*
X76619788Y-53373540D01*
G37*
%TD.AperFunction*%
%TA.AperFunction,Conductor*%
G36*
X80429788Y-53373540D02*
G01*
X80730493Y-53497147D01*
X80736842Y-53503461D01*
X80736859Y-53503503D01*
X80862231Y-53807134D01*
X80862221Y-53816088D01*
X80857067Y-53821845D01*
X80492637Y-54022803D01*
X80486987Y-54024257D01*
X80216226Y-54024257D01*
X80207953Y-54020830D01*
X80204526Y-54012557D01*
X80205125Y-54008862D01*
X80375469Y-53497147D01*
X80414244Y-53380666D01*
X80420107Y-53373900D01*
X80429039Y-53373262D01*
X80429788Y-53373540D01*
G37*
%TD.AperFunction*%
%TA.AperFunction,Conductor*%
G36*
X99397375Y-106028942D02*
G01*
X99854089Y-106252754D01*
X99906384Y-106278381D01*
X99912305Y-106285099D01*
X99912056Y-106293335D01*
X99787563Y-106596190D01*
X99781248Y-106602539D01*
X99781190Y-106602563D01*
X99478335Y-106727056D01*
X99469381Y-106727032D01*
X99463381Y-106721384D01*
X99402030Y-106596190D01*
X99213942Y-106212376D01*
X99213379Y-106203441D01*
X99216174Y-106198958D01*
X99383957Y-106031175D01*
X99392229Y-106027749D01*
X99397375Y-106028942D01*
G37*
%TD.AperFunction*%
%TA.AperFunction,Conductor*%
G36*
X86779788Y-53373540D02*
G01*
X87080493Y-53497147D01*
X87086842Y-53503461D01*
X87086859Y-53503503D01*
X87212231Y-53807134D01*
X87212221Y-53816088D01*
X87207067Y-53821845D01*
X86842637Y-54022803D01*
X86836987Y-54024257D01*
X86566226Y-54024257D01*
X86557953Y-54020830D01*
X86554526Y-54012557D01*
X86555125Y-54008862D01*
X86725469Y-53497147D01*
X86764244Y-53380666D01*
X86770107Y-53373900D01*
X86779039Y-53373262D01*
X86779788Y-53373540D01*
G37*
%TD.AperFunction*%
%TA.AperFunction,Conductor*%
G36*
X35506333Y-91000854D02*
G01*
X35512648Y-91007203D01*
X35512760Y-91015817D01*
X35356825Y-91425059D01*
X35310145Y-91547570D01*
X35309871Y-91548288D01*
X35303723Y-91554799D01*
X35298938Y-91555822D01*
X35061635Y-91555822D01*
X35053362Y-91552395D01*
X35050455Y-91547570D01*
X34886469Y-91015817D01*
X34886332Y-91015372D01*
X34887168Y-91006458D01*
X34893003Y-91001131D01*
X35195495Y-90874879D01*
X35204446Y-90874856D01*
X35506333Y-91000854D01*
G37*
%TD.AperFunction*%
%TA.AperFunction,Conductor*%
G36*
X149911911Y-72317627D02*
G01*
X149914708Y-72322112D01*
X150098250Y-72858413D01*
X150097686Y-72867350D01*
X150091686Y-72872998D01*
X149789506Y-72999119D01*
X149780552Y-72999143D01*
X149780494Y-72999119D01*
X149478313Y-72872998D01*
X149471998Y-72866649D01*
X149471749Y-72858413D01*
X149655292Y-72322112D01*
X149661213Y-72315394D01*
X149666362Y-72314200D01*
X149903638Y-72314200D01*
X149911911Y-72317627D01*
G37*
%TD.AperFunction*%
%TA.AperFunction,Conductor*%
G36*
X96299664Y-106599972D02*
G01*
X96307929Y-106603416D01*
X96311339Y-106611696D01*
X96311248Y-106613132D01*
X96248251Y-107114168D01*
X96244915Y-107120981D01*
X96077696Y-107288200D01*
X96069423Y-107291627D01*
X96061150Y-107288200D01*
X96060055Y-107286936D01*
X95733586Y-106850558D01*
X95731374Y-106841881D01*
X95734655Y-106835302D01*
X95965852Y-106602753D01*
X95974115Y-106599303D01*
X95974153Y-106599303D01*
X96299664Y-106599972D01*
G37*
%TD.AperFunction*%
%TA.AperFunction,Conductor*%
G36*
X86129162Y-53373566D02*
G01*
X86135476Y-53379915D01*
X86135756Y-53380668D01*
X86344875Y-54008862D01*
X86344237Y-54017794D01*
X86337469Y-54023658D01*
X86333774Y-54024257D01*
X86063013Y-54024257D01*
X86057363Y-54022803D01*
X86048279Y-54017794D01*
X86010301Y-53996852D01*
X85692932Y-53821845D01*
X85687342Y-53814849D01*
X85687768Y-53807134D01*
X85813141Y-53503501D01*
X85819463Y-53497165D01*
X86120208Y-53373542D01*
X86129162Y-53373566D01*
G37*
%TD.AperFunction*%
%TA.AperFunction,Conductor*%
G36*
X43106686Y-91001001D02*
G01*
X43113001Y-91007350D01*
X43113250Y-91015586D01*
X42929708Y-91551888D01*
X42923787Y-91558606D01*
X42918638Y-91559800D01*
X42681362Y-91559800D01*
X42673089Y-91556373D01*
X42670292Y-91551888D01*
X42486749Y-91015586D01*
X42487313Y-91006649D01*
X42493311Y-91001002D01*
X42795495Y-90874879D01*
X42804446Y-90874856D01*
X43106686Y-91001001D01*
G37*
%TD.AperFunction*%
%TA.AperFunction,Conductor*%
G36*
X46916686Y-91001001D02*
G01*
X46923001Y-91007350D01*
X46923250Y-91015586D01*
X46739708Y-91551888D01*
X46733787Y-91558606D01*
X46728638Y-91559800D01*
X46491362Y-91559800D01*
X46483089Y-91556373D01*
X46480292Y-91551888D01*
X46296749Y-91015586D01*
X46297313Y-91006649D01*
X46303311Y-91001002D01*
X46605495Y-90874879D01*
X46614446Y-90874856D01*
X46916686Y-91001001D01*
G37*
%TD.AperFunction*%
%TA.AperFunction,Conductor*%
G36*
X32131911Y-72317627D02*
G01*
X32134708Y-72322112D01*
X32318250Y-72858413D01*
X32317686Y-72867350D01*
X32311686Y-72872998D01*
X32009506Y-72999119D01*
X32000552Y-72999143D01*
X32000494Y-72999119D01*
X31698313Y-72872998D01*
X31691998Y-72866649D01*
X31691749Y-72858413D01*
X31875292Y-72322112D01*
X31881213Y-72315394D01*
X31886362Y-72314200D01*
X32123638Y-72314200D01*
X32131911Y-72317627D01*
G37*
%TD.AperFunction*%
%TA.AperFunction,Conductor*%
G36*
X41836686Y-91001001D02*
G01*
X41843001Y-91007350D01*
X41843250Y-91015586D01*
X41659708Y-91551888D01*
X41653787Y-91558606D01*
X41648638Y-91559800D01*
X41411362Y-91559800D01*
X41403089Y-91556373D01*
X41400292Y-91551888D01*
X41216749Y-91015586D01*
X41217313Y-91006649D01*
X41223311Y-91001002D01*
X41525495Y-90874879D01*
X41534446Y-90874856D01*
X41836686Y-91001001D01*
G37*
%TD.AperFunction*%
%TA.AperFunction,Conductor*%
G36*
X95669788Y-53373540D02*
G01*
X95970493Y-53497147D01*
X95976842Y-53503461D01*
X95976859Y-53503503D01*
X96102231Y-53807134D01*
X96102221Y-53816088D01*
X96097067Y-53821845D01*
X95732637Y-54022803D01*
X95726987Y-54024257D01*
X95456226Y-54024257D01*
X95447953Y-54020830D01*
X95444526Y-54012557D01*
X95445125Y-54008862D01*
X95615469Y-53497147D01*
X95654244Y-53380666D01*
X95660107Y-53373900D01*
X95669039Y-53373262D01*
X95669788Y-53373540D01*
G37*
%TD.AperFunction*%
%TA.AperFunction,Conductor*%
G36*
X107699342Y-53373492D02*
G01*
X107705656Y-53379841D01*
X107705875Y-53380416D01*
X107924545Y-54004547D01*
X107924047Y-54013487D01*
X107917373Y-54019457D01*
X107913504Y-54020115D01*
X107642891Y-54020115D01*
X107637441Y-54018768D01*
X107263210Y-53821763D01*
X107257485Y-53814877D01*
X107257846Y-53806945D01*
X107383141Y-53503501D01*
X107389463Y-53497165D01*
X107690388Y-53373468D01*
X107699342Y-53373492D01*
G37*
%TD.AperFunction*%
%TA.AperFunction,Conductor*%
G36*
X135306911Y-99192627D02*
G01*
X135309708Y-99197112D01*
X135493250Y-99733413D01*
X135492686Y-99742350D01*
X135486686Y-99747998D01*
X135184506Y-99874119D01*
X135175552Y-99874143D01*
X135175494Y-99874119D01*
X134873313Y-99747998D01*
X134866998Y-99741649D01*
X134866749Y-99733413D01*
X135050292Y-99197112D01*
X135056213Y-99190394D01*
X135061362Y-99189200D01*
X135298638Y-99189200D01*
X135306911Y-99192627D01*
G37*
%TD.AperFunction*%
%TA.AperFunction,Conductor*%
G36*
X40566686Y-91001001D02*
G01*
X40573001Y-91007350D01*
X40573250Y-91015586D01*
X40389708Y-91551888D01*
X40383787Y-91558606D01*
X40378638Y-91559800D01*
X40141362Y-91559800D01*
X40133089Y-91556373D01*
X40130292Y-91551888D01*
X39946749Y-91015586D01*
X39947313Y-91006649D01*
X39953311Y-91001002D01*
X40255495Y-90874879D01*
X40264446Y-90874856D01*
X40566686Y-91001001D01*
G37*
%TD.AperFunction*%
%TA.AperFunction,Conductor*%
G36*
X36756686Y-91001001D02*
G01*
X36763001Y-91007350D01*
X36763250Y-91015586D01*
X36579708Y-91551888D01*
X36573787Y-91558606D01*
X36568638Y-91559800D01*
X36331362Y-91559800D01*
X36323089Y-91556373D01*
X36320292Y-91551888D01*
X36136749Y-91015586D01*
X36137313Y-91006649D01*
X36143311Y-91001002D01*
X36445495Y-90874879D01*
X36454446Y-90874856D01*
X36756686Y-91001001D01*
G37*
%TD.AperFunction*%
%TA.AperFunction,Conductor*%
G36*
X88649342Y-53373492D02*
G01*
X88655656Y-53379841D01*
X88655875Y-53380416D01*
X88874545Y-54004547D01*
X88874047Y-54013487D01*
X88867373Y-54019457D01*
X88863504Y-54020115D01*
X88592891Y-54020115D01*
X88587441Y-54018768D01*
X88213210Y-53821763D01*
X88207485Y-53814877D01*
X88207846Y-53806945D01*
X88333141Y-53503501D01*
X88339463Y-53497165D01*
X88640388Y-53373468D01*
X88649342Y-53373492D01*
G37*
%TD.AperFunction*%
%TA.AperFunction,Conductor*%
G36*
X95019162Y-53373566D02*
G01*
X95025476Y-53379915D01*
X95025756Y-53380668D01*
X95234875Y-54008862D01*
X95234237Y-54017794D01*
X95227469Y-54023658D01*
X95223774Y-54024257D01*
X94953013Y-54024257D01*
X94947363Y-54022803D01*
X94938279Y-54017794D01*
X94900301Y-53996852D01*
X94582932Y-53821845D01*
X94577342Y-53814849D01*
X94577768Y-53807134D01*
X94703141Y-53503501D01*
X94709463Y-53497165D01*
X95010208Y-53373542D01*
X95019162Y-53373566D01*
G37*
%TD.AperFunction*%
%TA.AperFunction,Conductor*%
G36*
X144376686Y-91002001D02*
G01*
X144383001Y-91008350D01*
X144383250Y-91016586D01*
X144199708Y-91552888D01*
X144193787Y-91559606D01*
X144188638Y-91560800D01*
X143951362Y-91560800D01*
X143943089Y-91557373D01*
X143940292Y-91552888D01*
X143756749Y-91016586D01*
X143757313Y-91007649D01*
X143763311Y-91002002D01*
X144065495Y-90875879D01*
X144074446Y-90875856D01*
X144376686Y-91002001D01*
G37*
%TD.AperFunction*%
%TA.AperFunction,Conductor*%
G36*
X140566686Y-91002001D02*
G01*
X140573001Y-91008350D01*
X140573250Y-91016586D01*
X140389708Y-91552888D01*
X140383787Y-91559606D01*
X140378638Y-91560800D01*
X140141362Y-91560800D01*
X140133089Y-91557373D01*
X140130292Y-91552888D01*
X139946749Y-91016586D01*
X139947313Y-91007649D01*
X139953311Y-91002002D01*
X140255495Y-90875879D01*
X140264446Y-90875856D01*
X140566686Y-91002001D01*
G37*
%TD.AperFunction*%
%TA.AperFunction,Conductor*%
G36*
X101937375Y-106028942D02*
G01*
X102394089Y-106252754D01*
X102446384Y-106278381D01*
X102452305Y-106285099D01*
X102452056Y-106293335D01*
X102327563Y-106596190D01*
X102321248Y-106602539D01*
X102321190Y-106602563D01*
X102018335Y-106727056D01*
X102009381Y-106727032D01*
X102003381Y-106721384D01*
X101942030Y-106596190D01*
X101753942Y-106212376D01*
X101753379Y-106203441D01*
X101756174Y-106198958D01*
X101923957Y-106031175D01*
X101932229Y-106027749D01*
X101937375Y-106028942D01*
G37*
%TD.AperFunction*%
%TA.AperFunction,Conductor*%
G36*
X96857375Y-106028942D02*
G01*
X97314089Y-106252754D01*
X97366384Y-106278381D01*
X97372305Y-106285099D01*
X97372056Y-106293335D01*
X97247563Y-106596190D01*
X97241248Y-106602539D01*
X97241190Y-106602563D01*
X96938335Y-106727056D01*
X96929381Y-106727032D01*
X96923381Y-106721384D01*
X96862030Y-106596190D01*
X96673942Y-106212376D01*
X96673379Y-106203441D01*
X96676174Y-106198958D01*
X96843957Y-106031175D01*
X96852229Y-106027749D01*
X96857375Y-106028942D01*
G37*
%TD.AperFunction*%
%TA.AperFunction,Conductor*%
G36*
X98127375Y-106028942D02*
G01*
X98584089Y-106252754D01*
X98636384Y-106278381D01*
X98642305Y-106285099D01*
X98642056Y-106293335D01*
X98517563Y-106596190D01*
X98511248Y-106602539D01*
X98511190Y-106602563D01*
X98208335Y-106727056D01*
X98199381Y-106727032D01*
X98193381Y-106721384D01*
X98132030Y-106596190D01*
X97943942Y-106212376D01*
X97943379Y-106203441D01*
X97946174Y-106198958D01*
X98113957Y-106031175D01*
X98122229Y-106027749D01*
X98127375Y-106028942D01*
G37*
%TD.AperFunction*%
%TA.AperFunction,Conductor*%
G36*
X105266043Y-106031176D02*
G01*
X105433823Y-106198956D01*
X105437250Y-106207229D01*
X105436056Y-106212378D01*
X105186618Y-106721384D01*
X105179900Y-106727305D01*
X105171664Y-106727056D01*
X104868809Y-106602563D01*
X104862460Y-106596248D01*
X104862436Y-106596190D01*
X104737943Y-106293335D01*
X104737967Y-106284381D01*
X104743614Y-106278381D01*
X105252623Y-106028942D01*
X105261558Y-106028379D01*
X105266043Y-106031176D01*
G37*
%TD.AperFunction*%
%TA.AperFunction,Conductor*%
G36*
X98829162Y-53373566D02*
G01*
X98835476Y-53379915D01*
X98835756Y-53380668D01*
X99044875Y-54008862D01*
X99044237Y-54017794D01*
X99037469Y-54023658D01*
X99033774Y-54024257D01*
X98763013Y-54024257D01*
X98757363Y-54022803D01*
X98748279Y-54017794D01*
X98710301Y-53996852D01*
X98392932Y-53821845D01*
X98387342Y-53814849D01*
X98387768Y-53807134D01*
X98513141Y-53503501D01*
X98519463Y-53497165D01*
X98820208Y-53373542D01*
X98829162Y-53373566D01*
G37*
%TD.AperFunction*%
%TA.AperFunction,Conductor*%
G36*
X79779162Y-53373566D02*
G01*
X79785476Y-53379915D01*
X79785756Y-53380668D01*
X79994875Y-54008862D01*
X79994237Y-54017794D01*
X79987469Y-54023658D01*
X79983774Y-54024257D01*
X79713013Y-54024257D01*
X79707363Y-54022803D01*
X79698279Y-54017794D01*
X79660301Y-53996852D01*
X79342932Y-53821845D01*
X79337342Y-53814849D01*
X79337768Y-53807134D01*
X79463141Y-53503501D01*
X79469463Y-53497165D01*
X79770208Y-53373542D01*
X79779162Y-53373566D01*
G37*
%TD.AperFunction*%
%TA.AperFunction,Conductor*%
G36*
X39296686Y-91001001D02*
G01*
X39303001Y-91007350D01*
X39303250Y-91015586D01*
X39119708Y-91551888D01*
X39113787Y-91558606D01*
X39108638Y-91559800D01*
X38871362Y-91559800D01*
X38863089Y-91556373D01*
X38860292Y-91551888D01*
X38676749Y-91015586D01*
X38677313Y-91006649D01*
X38683311Y-91001002D01*
X38985495Y-90874879D01*
X38994446Y-90874856D01*
X39296686Y-91001001D01*
G37*
%TD.AperFunction*%
%TA.AperFunction,Conductor*%
G36*
X132131911Y-72317627D02*
G01*
X132134708Y-72322112D01*
X132318250Y-72858413D01*
X132317686Y-72867350D01*
X132311686Y-72872998D01*
X132009506Y-72999119D01*
X132000552Y-72999143D01*
X132000494Y-72999119D01*
X131698313Y-72872998D01*
X131691998Y-72866649D01*
X131691749Y-72858413D01*
X131875292Y-72322112D01*
X131881213Y-72315394D01*
X131886362Y-72314200D01*
X132123638Y-72314200D01*
X132131911Y-72317627D01*
G37*
%TD.AperFunction*%
%TA.AperFunction,Conductor*%
G36*
X92479252Y-53373529D02*
G01*
X92485566Y-53379878D01*
X92485817Y-53380544D01*
X92699711Y-54006704D01*
X92699142Y-54015641D01*
X92692421Y-54021558D01*
X92688639Y-54022186D01*
X92417950Y-54022186D01*
X92412401Y-54020786D01*
X92402851Y-54015641D01*
X92043072Y-53821805D01*
X92037414Y-53814864D01*
X92037807Y-53807040D01*
X92163141Y-53503501D01*
X92169463Y-53497165D01*
X92470298Y-53373505D01*
X92479252Y-53373529D01*
G37*
%TD.AperFunction*%
M02*
