%TF.GenerationSoftware,KiCad,Pcbnew,8.0.3-8.0.3-0~ubuntu24.04.1*%
%TF.CreationDate,2024-07-09T09:35:13+02:00*%
%TF.ProjectId,MainBoard,4d61696e-426f-4617-9264-2e6b69636164,rev?*%
%TF.SameCoordinates,Original*%
%TF.FileFunction,Drillmap*%
%TF.FilePolarity,Positive*%
%FSLAX45Y45*%
G04 Gerber Fmt 4.5, Leading zero omitted, Abs format (unit mm)*
G04 Created by KiCad (PCBNEW 8.0.3-8.0.3-0~ubuntu24.04.1) date 2024-07-09 09:35:13*
%MOMM*%
%LPD*%
G01*
G04 APERTURE LIST*
%ADD10C,0.050000*%
%ADD11C,0.200000*%
%ADD12C,0.119000*%
%ADD13C,0.142000*%
%ADD14C,0.350000*%
G04 APERTURE END LIST*
D10*
X2700000Y-4287500D02*
X15579000Y-4287500D01*
X15579000Y-10987500D01*
X2700000Y-10987500D01*
X2700000Y-4287500D01*
D11*
D12*
X2982000Y-6790500D02*
X3101000Y-6909500D01*
X3101000Y-6790500D02*
X2982000Y-6909500D01*
X3299500Y-9451500D02*
X3418500Y-9570500D01*
X3418500Y-9451500D02*
X3299500Y-9570500D01*
X4760500Y-9451500D02*
X4879500Y-9570500D01*
X4879500Y-9451500D02*
X4760500Y-9570500D01*
X5078000Y-6790500D02*
X5197000Y-6909500D01*
X5197000Y-6790500D02*
X5078000Y-6909500D01*
X12982000Y-6790500D02*
X13101000Y-6909500D01*
X13101000Y-6790500D02*
X12982000Y-6909500D01*
X13299500Y-9451500D02*
X13418500Y-9570500D01*
X13418500Y-9451500D02*
X13299500Y-9570500D01*
X14760500Y-9451500D02*
X14879500Y-9570500D01*
X14879500Y-9451500D02*
X14760500Y-9570500D01*
X15078000Y-6790500D02*
X15197000Y-6909500D01*
X15197000Y-6790500D02*
X15078000Y-6909500D01*
D13*
X7096500Y-4921000D02*
G75*
G02*
X6954500Y-4921000I-71000J0D01*
G01*
X6954500Y-4921000D02*
G75*
G02*
X7096500Y-4921000I71000J0D01*
G01*
X7096500Y-10221000D02*
G75*
G02*
X6954500Y-10221000I-71000J0D01*
G01*
X6954500Y-10221000D02*
G75*
G02*
X7096500Y-10221000I71000J0D01*
G01*
X12367500Y-4921000D02*
G75*
G02*
X12225500Y-4921000I-71000J0D01*
G01*
X12225500Y-4921000D02*
G75*
G02*
X12367500Y-4921000I71000J0D01*
G01*
X12367500Y-10221000D02*
G75*
G02*
X12225500Y-10221000I-71000J0D01*
G01*
X12225500Y-10221000D02*
G75*
G02*
X12367500Y-10221000I71000J0D01*
G01*
D14*
X4914000Y-4546000D02*
X4914000Y-4896000D01*
X4739000Y-4721000D02*
X5089000Y-4721000D01*
X4914000Y-10246000D02*
X4914000Y-10596000D01*
X4739000Y-10421000D02*
X5089000Y-10421000D01*
X14514000Y-4546000D02*
X14514000Y-4896000D01*
X14339000Y-4721000D02*
X14689000Y-4721000D01*
X14514000Y-10246000D02*
X14514000Y-10596000D01*
X14339000Y-10421000D02*
X14689000Y-10421000D01*
D11*
X2958277Y-11301484D02*
X2958277Y-11101484D01*
X2958277Y-11101484D02*
X3005896Y-11101484D01*
X3005896Y-11101484D02*
X3034467Y-11111008D01*
X3034467Y-11111008D02*
X3053515Y-11130055D01*
X3053515Y-11130055D02*
X3063039Y-11149103D01*
X3063039Y-11149103D02*
X3072562Y-11187198D01*
X3072562Y-11187198D02*
X3072562Y-11215769D01*
X3072562Y-11215769D02*
X3063039Y-11253865D01*
X3063039Y-11253865D02*
X3053515Y-11272912D01*
X3053515Y-11272912D02*
X3034467Y-11291960D01*
X3034467Y-11291960D02*
X3005896Y-11301484D01*
X3005896Y-11301484D02*
X2958277Y-11301484D01*
X3158277Y-11301484D02*
X3158277Y-11168150D01*
X3158277Y-11206246D02*
X3167801Y-11187198D01*
X3167801Y-11187198D02*
X3177324Y-11177674D01*
X3177324Y-11177674D02*
X3196372Y-11168150D01*
X3196372Y-11168150D02*
X3215420Y-11168150D01*
X3282086Y-11301484D02*
X3282086Y-11168150D01*
X3282086Y-11101484D02*
X3272562Y-11111008D01*
X3272562Y-11111008D02*
X3282086Y-11120531D01*
X3282086Y-11120531D02*
X3291610Y-11111008D01*
X3291610Y-11111008D02*
X3282086Y-11101484D01*
X3282086Y-11101484D02*
X3282086Y-11120531D01*
X3405896Y-11301484D02*
X3386848Y-11291960D01*
X3386848Y-11291960D02*
X3377324Y-11272912D01*
X3377324Y-11272912D02*
X3377324Y-11101484D01*
X3510658Y-11301484D02*
X3491610Y-11291960D01*
X3491610Y-11291960D02*
X3482086Y-11272912D01*
X3482086Y-11272912D02*
X3482086Y-11101484D01*
X3739229Y-11301484D02*
X3739229Y-11101484D01*
X3739229Y-11101484D02*
X3805896Y-11244341D01*
X3805896Y-11244341D02*
X3872562Y-11101484D01*
X3872562Y-11101484D02*
X3872562Y-11301484D01*
X4053515Y-11301484D02*
X4053515Y-11196722D01*
X4053515Y-11196722D02*
X4043991Y-11177674D01*
X4043991Y-11177674D02*
X4024943Y-11168150D01*
X4024943Y-11168150D02*
X3986848Y-11168150D01*
X3986848Y-11168150D02*
X3967801Y-11177674D01*
X4053515Y-11291960D02*
X4034467Y-11301484D01*
X4034467Y-11301484D02*
X3986848Y-11301484D01*
X3986848Y-11301484D02*
X3967801Y-11291960D01*
X3967801Y-11291960D02*
X3958277Y-11272912D01*
X3958277Y-11272912D02*
X3958277Y-11253865D01*
X3958277Y-11253865D02*
X3967801Y-11234817D01*
X3967801Y-11234817D02*
X3986848Y-11225293D01*
X3986848Y-11225293D02*
X4034467Y-11225293D01*
X4034467Y-11225293D02*
X4053515Y-11215769D01*
X4148753Y-11168150D02*
X4148753Y-11368150D01*
X4148753Y-11177674D02*
X4167801Y-11168150D01*
X4167801Y-11168150D02*
X4205896Y-11168150D01*
X4205896Y-11168150D02*
X4224944Y-11177674D01*
X4224944Y-11177674D02*
X4234467Y-11187198D01*
X4234467Y-11187198D02*
X4243991Y-11206246D01*
X4243991Y-11206246D02*
X4243991Y-11263388D01*
X4243991Y-11263388D02*
X4234467Y-11282436D01*
X4234467Y-11282436D02*
X4224944Y-11291960D01*
X4224944Y-11291960D02*
X4205896Y-11301484D01*
X4205896Y-11301484D02*
X4167801Y-11301484D01*
X4167801Y-11301484D02*
X4148753Y-11291960D01*
X4329705Y-11282436D02*
X4339229Y-11291960D01*
X4339229Y-11291960D02*
X4329705Y-11301484D01*
X4329705Y-11301484D02*
X4320182Y-11291960D01*
X4320182Y-11291960D02*
X4329705Y-11282436D01*
X4329705Y-11282436D02*
X4329705Y-11301484D01*
X4329705Y-11177674D02*
X4339229Y-11187198D01*
X4339229Y-11187198D02*
X4329705Y-11196722D01*
X4329705Y-11196722D02*
X4320182Y-11187198D01*
X4320182Y-11187198D02*
X4329705Y-11177674D01*
X4329705Y-11177674D02*
X4329705Y-11196722D01*
D12*
X2578500Y-11570500D02*
X2697500Y-11689500D01*
X2697500Y-11570500D02*
X2578500Y-11689500D01*
D11*
X3063039Y-11721484D02*
X2948753Y-11721484D01*
X3005896Y-11721484D02*
X3005896Y-11521484D01*
X3005896Y-11521484D02*
X2986848Y-11550055D01*
X2986848Y-11550055D02*
X2967801Y-11569103D01*
X2967801Y-11569103D02*
X2948753Y-11578627D01*
X3148753Y-11702436D02*
X3158277Y-11711960D01*
X3158277Y-11711960D02*
X3148753Y-11721484D01*
X3148753Y-11721484D02*
X3139229Y-11711960D01*
X3139229Y-11711960D02*
X3148753Y-11702436D01*
X3148753Y-11702436D02*
X3148753Y-11721484D01*
X3348753Y-11721484D02*
X3234467Y-11721484D01*
X3291610Y-11721484D02*
X3291610Y-11521484D01*
X3291610Y-11521484D02*
X3272562Y-11550055D01*
X3272562Y-11550055D02*
X3253515Y-11569103D01*
X3253515Y-11569103D02*
X3234467Y-11578627D01*
X3443991Y-11721484D02*
X3482086Y-11721484D01*
X3482086Y-11721484D02*
X3501134Y-11711960D01*
X3501134Y-11711960D02*
X3510658Y-11702436D01*
X3510658Y-11702436D02*
X3529705Y-11673865D01*
X3529705Y-11673865D02*
X3539229Y-11635769D01*
X3539229Y-11635769D02*
X3539229Y-11559579D01*
X3539229Y-11559579D02*
X3529705Y-11540531D01*
X3529705Y-11540531D02*
X3520182Y-11531008D01*
X3520182Y-11531008D02*
X3501134Y-11521484D01*
X3501134Y-11521484D02*
X3463039Y-11521484D01*
X3463039Y-11521484D02*
X3443991Y-11531008D01*
X3443991Y-11531008D02*
X3434467Y-11540531D01*
X3434467Y-11540531D02*
X3424943Y-11559579D01*
X3424943Y-11559579D02*
X3424943Y-11607198D01*
X3424943Y-11607198D02*
X3434467Y-11626246D01*
X3434467Y-11626246D02*
X3443991Y-11635769D01*
X3443991Y-11635769D02*
X3463039Y-11645293D01*
X3463039Y-11645293D02*
X3501134Y-11645293D01*
X3501134Y-11645293D02*
X3520182Y-11635769D01*
X3520182Y-11635769D02*
X3529705Y-11626246D01*
X3529705Y-11626246D02*
X3539229Y-11607198D01*
X3663039Y-11521484D02*
X3682086Y-11521484D01*
X3682086Y-11521484D02*
X3701134Y-11531008D01*
X3701134Y-11531008D02*
X3710658Y-11540531D01*
X3710658Y-11540531D02*
X3720182Y-11559579D01*
X3720182Y-11559579D02*
X3729705Y-11597674D01*
X3729705Y-11597674D02*
X3729705Y-11645293D01*
X3729705Y-11645293D02*
X3720182Y-11683388D01*
X3720182Y-11683388D02*
X3710658Y-11702436D01*
X3710658Y-11702436D02*
X3701134Y-11711960D01*
X3701134Y-11711960D02*
X3682086Y-11721484D01*
X3682086Y-11721484D02*
X3663039Y-11721484D01*
X3663039Y-11721484D02*
X3643991Y-11711960D01*
X3643991Y-11711960D02*
X3634467Y-11702436D01*
X3634467Y-11702436D02*
X3624943Y-11683388D01*
X3624943Y-11683388D02*
X3615420Y-11645293D01*
X3615420Y-11645293D02*
X3615420Y-11597674D01*
X3615420Y-11597674D02*
X3624943Y-11559579D01*
X3624943Y-11559579D02*
X3634467Y-11540531D01*
X3634467Y-11540531D02*
X3643991Y-11531008D01*
X3643991Y-11531008D02*
X3663039Y-11521484D01*
X3815420Y-11721484D02*
X3815420Y-11588150D01*
X3815420Y-11607198D02*
X3824943Y-11597674D01*
X3824943Y-11597674D02*
X3843991Y-11588150D01*
X3843991Y-11588150D02*
X3872563Y-11588150D01*
X3872563Y-11588150D02*
X3891610Y-11597674D01*
X3891610Y-11597674D02*
X3901134Y-11616722D01*
X3901134Y-11616722D02*
X3901134Y-11721484D01*
X3901134Y-11616722D02*
X3910658Y-11597674D01*
X3910658Y-11597674D02*
X3929705Y-11588150D01*
X3929705Y-11588150D02*
X3958277Y-11588150D01*
X3958277Y-11588150D02*
X3977324Y-11597674D01*
X3977324Y-11597674D02*
X3986848Y-11616722D01*
X3986848Y-11616722D02*
X3986848Y-11721484D01*
X4082086Y-11721484D02*
X4082086Y-11588150D01*
X4082086Y-11607198D02*
X4091610Y-11597674D01*
X4091610Y-11597674D02*
X4110658Y-11588150D01*
X4110658Y-11588150D02*
X4139229Y-11588150D01*
X4139229Y-11588150D02*
X4158277Y-11597674D01*
X4158277Y-11597674D02*
X4167801Y-11616722D01*
X4167801Y-11616722D02*
X4167801Y-11721484D01*
X4167801Y-11616722D02*
X4177324Y-11597674D01*
X4177324Y-11597674D02*
X4196372Y-11588150D01*
X4196372Y-11588150D02*
X4224944Y-11588150D01*
X4224944Y-11588150D02*
X4243991Y-11597674D01*
X4243991Y-11597674D02*
X4253515Y-11616722D01*
X4253515Y-11616722D02*
X4253515Y-11721484D01*
X4643991Y-11511960D02*
X4472563Y-11769103D01*
X4901134Y-11521484D02*
X4920182Y-11521484D01*
X4920182Y-11521484D02*
X4939229Y-11531008D01*
X4939229Y-11531008D02*
X4948753Y-11540531D01*
X4948753Y-11540531D02*
X4958277Y-11559579D01*
X4958277Y-11559579D02*
X4967801Y-11597674D01*
X4967801Y-11597674D02*
X4967801Y-11645293D01*
X4967801Y-11645293D02*
X4958277Y-11683388D01*
X4958277Y-11683388D02*
X4948753Y-11702436D01*
X4948753Y-11702436D02*
X4939229Y-11711960D01*
X4939229Y-11711960D02*
X4920182Y-11721484D01*
X4920182Y-11721484D02*
X4901134Y-11721484D01*
X4901134Y-11721484D02*
X4882087Y-11711960D01*
X4882087Y-11711960D02*
X4872563Y-11702436D01*
X4872563Y-11702436D02*
X4863039Y-11683388D01*
X4863039Y-11683388D02*
X4853515Y-11645293D01*
X4853515Y-11645293D02*
X4853515Y-11597674D01*
X4853515Y-11597674D02*
X4863039Y-11559579D01*
X4863039Y-11559579D02*
X4872563Y-11540531D01*
X4872563Y-11540531D02*
X4882087Y-11531008D01*
X4882087Y-11531008D02*
X4901134Y-11521484D01*
X5053515Y-11702436D02*
X5063039Y-11711960D01*
X5063039Y-11711960D02*
X5053515Y-11721484D01*
X5053515Y-11721484D02*
X5043991Y-11711960D01*
X5043991Y-11711960D02*
X5053515Y-11702436D01*
X5053515Y-11702436D02*
X5053515Y-11721484D01*
X5186848Y-11521484D02*
X5205896Y-11521484D01*
X5205896Y-11521484D02*
X5224944Y-11531008D01*
X5224944Y-11531008D02*
X5234468Y-11540531D01*
X5234468Y-11540531D02*
X5243991Y-11559579D01*
X5243991Y-11559579D02*
X5253515Y-11597674D01*
X5253515Y-11597674D02*
X5253515Y-11645293D01*
X5253515Y-11645293D02*
X5243991Y-11683388D01*
X5243991Y-11683388D02*
X5234468Y-11702436D01*
X5234468Y-11702436D02*
X5224944Y-11711960D01*
X5224944Y-11711960D02*
X5205896Y-11721484D01*
X5205896Y-11721484D02*
X5186848Y-11721484D01*
X5186848Y-11721484D02*
X5167801Y-11711960D01*
X5167801Y-11711960D02*
X5158277Y-11702436D01*
X5158277Y-11702436D02*
X5148753Y-11683388D01*
X5148753Y-11683388D02*
X5139229Y-11645293D01*
X5139229Y-11645293D02*
X5139229Y-11597674D01*
X5139229Y-11597674D02*
X5148753Y-11559579D01*
X5148753Y-11559579D02*
X5158277Y-11540531D01*
X5158277Y-11540531D02*
X5167801Y-11531008D01*
X5167801Y-11531008D02*
X5186848Y-11521484D01*
X5424944Y-11588150D02*
X5424944Y-11721484D01*
X5377325Y-11511960D02*
X5329706Y-11654817D01*
X5329706Y-11654817D02*
X5453515Y-11654817D01*
X5615420Y-11521484D02*
X5577325Y-11521484D01*
X5577325Y-11521484D02*
X5558277Y-11531008D01*
X5558277Y-11531008D02*
X5548753Y-11540531D01*
X5548753Y-11540531D02*
X5529706Y-11569103D01*
X5529706Y-11569103D02*
X5520182Y-11607198D01*
X5520182Y-11607198D02*
X5520182Y-11683388D01*
X5520182Y-11683388D02*
X5529706Y-11702436D01*
X5529706Y-11702436D02*
X5539229Y-11711960D01*
X5539229Y-11711960D02*
X5558277Y-11721484D01*
X5558277Y-11721484D02*
X5596372Y-11721484D01*
X5596372Y-11721484D02*
X5615420Y-11711960D01*
X5615420Y-11711960D02*
X5624944Y-11702436D01*
X5624944Y-11702436D02*
X5634467Y-11683388D01*
X5634467Y-11683388D02*
X5634467Y-11635769D01*
X5634467Y-11635769D02*
X5624944Y-11616722D01*
X5624944Y-11616722D02*
X5615420Y-11607198D01*
X5615420Y-11607198D02*
X5596372Y-11597674D01*
X5596372Y-11597674D02*
X5558277Y-11597674D01*
X5558277Y-11597674D02*
X5539229Y-11607198D01*
X5539229Y-11607198D02*
X5529706Y-11616722D01*
X5529706Y-11616722D02*
X5520182Y-11635769D01*
X5729706Y-11721484D02*
X5767801Y-11721484D01*
X5767801Y-11721484D02*
X5786848Y-11711960D01*
X5786848Y-11711960D02*
X5796372Y-11702436D01*
X5796372Y-11702436D02*
X5815420Y-11673865D01*
X5815420Y-11673865D02*
X5824944Y-11635769D01*
X5824944Y-11635769D02*
X5824944Y-11559579D01*
X5824944Y-11559579D02*
X5815420Y-11540531D01*
X5815420Y-11540531D02*
X5805896Y-11531008D01*
X5805896Y-11531008D02*
X5786848Y-11521484D01*
X5786848Y-11521484D02*
X5748753Y-11521484D01*
X5748753Y-11521484D02*
X5729706Y-11531008D01*
X5729706Y-11531008D02*
X5720182Y-11540531D01*
X5720182Y-11540531D02*
X5710658Y-11559579D01*
X5710658Y-11559579D02*
X5710658Y-11607198D01*
X5710658Y-11607198D02*
X5720182Y-11626246D01*
X5720182Y-11626246D02*
X5729706Y-11635769D01*
X5729706Y-11635769D02*
X5748753Y-11645293D01*
X5748753Y-11645293D02*
X5786848Y-11645293D01*
X5786848Y-11645293D02*
X5805896Y-11635769D01*
X5805896Y-11635769D02*
X5815420Y-11626246D01*
X5815420Y-11626246D02*
X5824944Y-11607198D01*
X5901134Y-11521484D02*
X5901134Y-11559579D01*
X5977325Y-11521484D02*
X5977325Y-11559579D01*
X6272563Y-11797674D02*
X6263039Y-11788150D01*
X6263039Y-11788150D02*
X6243991Y-11759579D01*
X6243991Y-11759579D02*
X6234468Y-11740531D01*
X6234468Y-11740531D02*
X6224944Y-11711960D01*
X6224944Y-11711960D02*
X6215420Y-11664341D01*
X6215420Y-11664341D02*
X6215420Y-11626246D01*
X6215420Y-11626246D02*
X6224944Y-11578627D01*
X6224944Y-11578627D02*
X6234468Y-11550055D01*
X6234468Y-11550055D02*
X6243991Y-11531008D01*
X6243991Y-11531008D02*
X6263039Y-11502436D01*
X6263039Y-11502436D02*
X6272563Y-11492912D01*
X6377325Y-11607198D02*
X6358277Y-11597674D01*
X6358277Y-11597674D02*
X6348753Y-11588150D01*
X6348753Y-11588150D02*
X6339229Y-11569103D01*
X6339229Y-11569103D02*
X6339229Y-11559579D01*
X6339229Y-11559579D02*
X6348753Y-11540531D01*
X6348753Y-11540531D02*
X6358277Y-11531008D01*
X6358277Y-11531008D02*
X6377325Y-11521484D01*
X6377325Y-11521484D02*
X6415420Y-11521484D01*
X6415420Y-11521484D02*
X6434468Y-11531008D01*
X6434468Y-11531008D02*
X6443991Y-11540531D01*
X6443991Y-11540531D02*
X6453515Y-11559579D01*
X6453515Y-11559579D02*
X6453515Y-11569103D01*
X6453515Y-11569103D02*
X6443991Y-11588150D01*
X6443991Y-11588150D02*
X6434468Y-11597674D01*
X6434468Y-11597674D02*
X6415420Y-11607198D01*
X6415420Y-11607198D02*
X6377325Y-11607198D01*
X6377325Y-11607198D02*
X6358277Y-11616722D01*
X6358277Y-11616722D02*
X6348753Y-11626246D01*
X6348753Y-11626246D02*
X6339229Y-11645293D01*
X6339229Y-11645293D02*
X6339229Y-11683388D01*
X6339229Y-11683388D02*
X6348753Y-11702436D01*
X6348753Y-11702436D02*
X6358277Y-11711960D01*
X6358277Y-11711960D02*
X6377325Y-11721484D01*
X6377325Y-11721484D02*
X6415420Y-11721484D01*
X6415420Y-11721484D02*
X6434468Y-11711960D01*
X6434468Y-11711960D02*
X6443991Y-11702436D01*
X6443991Y-11702436D02*
X6453515Y-11683388D01*
X6453515Y-11683388D02*
X6453515Y-11645293D01*
X6453515Y-11645293D02*
X6443991Y-11626246D01*
X6443991Y-11626246D02*
X6434468Y-11616722D01*
X6434468Y-11616722D02*
X6415420Y-11607198D01*
X6691610Y-11721484D02*
X6691610Y-11521484D01*
X6777325Y-11721484D02*
X6777325Y-11616722D01*
X6777325Y-11616722D02*
X6767801Y-11597674D01*
X6767801Y-11597674D02*
X6748753Y-11588150D01*
X6748753Y-11588150D02*
X6720182Y-11588150D01*
X6720182Y-11588150D02*
X6701134Y-11597674D01*
X6701134Y-11597674D02*
X6691610Y-11607198D01*
X6901134Y-11721484D02*
X6882087Y-11711960D01*
X6882087Y-11711960D02*
X6872563Y-11702436D01*
X6872563Y-11702436D02*
X6863039Y-11683388D01*
X6863039Y-11683388D02*
X6863039Y-11626246D01*
X6863039Y-11626246D02*
X6872563Y-11607198D01*
X6872563Y-11607198D02*
X6882087Y-11597674D01*
X6882087Y-11597674D02*
X6901134Y-11588150D01*
X6901134Y-11588150D02*
X6929706Y-11588150D01*
X6929706Y-11588150D02*
X6948753Y-11597674D01*
X6948753Y-11597674D02*
X6958277Y-11607198D01*
X6958277Y-11607198D02*
X6967801Y-11626246D01*
X6967801Y-11626246D02*
X6967801Y-11683388D01*
X6967801Y-11683388D02*
X6958277Y-11702436D01*
X6958277Y-11702436D02*
X6948753Y-11711960D01*
X6948753Y-11711960D02*
X6929706Y-11721484D01*
X6929706Y-11721484D02*
X6901134Y-11721484D01*
X7082087Y-11721484D02*
X7063039Y-11711960D01*
X7063039Y-11711960D02*
X7053515Y-11692912D01*
X7053515Y-11692912D02*
X7053515Y-11521484D01*
X7234468Y-11711960D02*
X7215420Y-11721484D01*
X7215420Y-11721484D02*
X7177325Y-11721484D01*
X7177325Y-11721484D02*
X7158277Y-11711960D01*
X7158277Y-11711960D02*
X7148753Y-11692912D01*
X7148753Y-11692912D02*
X7148753Y-11616722D01*
X7148753Y-11616722D02*
X7158277Y-11597674D01*
X7158277Y-11597674D02*
X7177325Y-11588150D01*
X7177325Y-11588150D02*
X7215420Y-11588150D01*
X7215420Y-11588150D02*
X7234468Y-11597674D01*
X7234468Y-11597674D02*
X7243991Y-11616722D01*
X7243991Y-11616722D02*
X7243991Y-11635769D01*
X7243991Y-11635769D02*
X7148753Y-11654817D01*
X7320182Y-11711960D02*
X7339230Y-11721484D01*
X7339230Y-11721484D02*
X7377325Y-11721484D01*
X7377325Y-11721484D02*
X7396372Y-11711960D01*
X7396372Y-11711960D02*
X7405896Y-11692912D01*
X7405896Y-11692912D02*
X7405896Y-11683388D01*
X7405896Y-11683388D02*
X7396372Y-11664341D01*
X7396372Y-11664341D02*
X7377325Y-11654817D01*
X7377325Y-11654817D02*
X7348753Y-11654817D01*
X7348753Y-11654817D02*
X7329706Y-11645293D01*
X7329706Y-11645293D02*
X7320182Y-11626246D01*
X7320182Y-11626246D02*
X7320182Y-11616722D01*
X7320182Y-11616722D02*
X7329706Y-11597674D01*
X7329706Y-11597674D02*
X7348753Y-11588150D01*
X7348753Y-11588150D02*
X7377325Y-11588150D01*
X7377325Y-11588150D02*
X7396372Y-11597674D01*
X7472563Y-11797674D02*
X7482087Y-11788150D01*
X7482087Y-11788150D02*
X7501134Y-11759579D01*
X7501134Y-11759579D02*
X7510658Y-11740531D01*
X7510658Y-11740531D02*
X7520182Y-11711960D01*
X7520182Y-11711960D02*
X7529706Y-11664341D01*
X7529706Y-11664341D02*
X7529706Y-11626246D01*
X7529706Y-11626246D02*
X7520182Y-11578627D01*
X7520182Y-11578627D02*
X7510658Y-11550055D01*
X7510658Y-11550055D02*
X7501134Y-11531008D01*
X7501134Y-11531008D02*
X7482087Y-11502436D01*
X7482087Y-11502436D02*
X7472563Y-11492912D01*
X7834468Y-11797674D02*
X7824944Y-11788150D01*
X7824944Y-11788150D02*
X7805896Y-11759579D01*
X7805896Y-11759579D02*
X7796372Y-11740531D01*
X7796372Y-11740531D02*
X7786849Y-11711960D01*
X7786849Y-11711960D02*
X7777325Y-11664341D01*
X7777325Y-11664341D02*
X7777325Y-11626246D01*
X7777325Y-11626246D02*
X7786849Y-11578627D01*
X7786849Y-11578627D02*
X7796372Y-11550055D01*
X7796372Y-11550055D02*
X7805896Y-11531008D01*
X7805896Y-11531008D02*
X7824944Y-11502436D01*
X7824944Y-11502436D02*
X7834468Y-11492912D01*
X7910658Y-11588150D02*
X7910658Y-11721484D01*
X7910658Y-11607198D02*
X7920182Y-11597674D01*
X7920182Y-11597674D02*
X7939230Y-11588150D01*
X7939230Y-11588150D02*
X7967801Y-11588150D01*
X7967801Y-11588150D02*
X7986849Y-11597674D01*
X7986849Y-11597674D02*
X7996372Y-11616722D01*
X7996372Y-11616722D02*
X7996372Y-11721484D01*
X8120182Y-11721484D02*
X8101134Y-11711960D01*
X8101134Y-11711960D02*
X8091611Y-11702436D01*
X8091611Y-11702436D02*
X8082087Y-11683388D01*
X8082087Y-11683388D02*
X8082087Y-11626246D01*
X8082087Y-11626246D02*
X8091611Y-11607198D01*
X8091611Y-11607198D02*
X8101134Y-11597674D01*
X8101134Y-11597674D02*
X8120182Y-11588150D01*
X8120182Y-11588150D02*
X8148753Y-11588150D01*
X8148753Y-11588150D02*
X8167801Y-11597674D01*
X8167801Y-11597674D02*
X8177325Y-11607198D01*
X8177325Y-11607198D02*
X8186849Y-11626246D01*
X8186849Y-11626246D02*
X8186849Y-11683388D01*
X8186849Y-11683388D02*
X8177325Y-11702436D01*
X8177325Y-11702436D02*
X8167801Y-11711960D01*
X8167801Y-11711960D02*
X8148753Y-11721484D01*
X8148753Y-11721484D02*
X8120182Y-11721484D01*
X8243992Y-11588150D02*
X8320182Y-11588150D01*
X8272563Y-11521484D02*
X8272563Y-11692912D01*
X8272563Y-11692912D02*
X8282087Y-11711960D01*
X8282087Y-11711960D02*
X8301134Y-11721484D01*
X8301134Y-11721484D02*
X8320182Y-11721484D01*
X8539230Y-11588150D02*
X8539230Y-11788150D01*
X8539230Y-11597674D02*
X8558277Y-11588150D01*
X8558277Y-11588150D02*
X8596373Y-11588150D01*
X8596373Y-11588150D02*
X8615420Y-11597674D01*
X8615420Y-11597674D02*
X8624944Y-11607198D01*
X8624944Y-11607198D02*
X8634468Y-11626246D01*
X8634468Y-11626246D02*
X8634468Y-11683388D01*
X8634468Y-11683388D02*
X8624944Y-11702436D01*
X8624944Y-11702436D02*
X8615420Y-11711960D01*
X8615420Y-11711960D02*
X8596373Y-11721484D01*
X8596373Y-11721484D02*
X8558277Y-11721484D01*
X8558277Y-11721484D02*
X8539230Y-11711960D01*
X8748754Y-11721484D02*
X8729706Y-11711960D01*
X8729706Y-11711960D02*
X8720182Y-11692912D01*
X8720182Y-11692912D02*
X8720182Y-11521484D01*
X8910658Y-11721484D02*
X8910658Y-11616722D01*
X8910658Y-11616722D02*
X8901135Y-11597674D01*
X8901135Y-11597674D02*
X8882087Y-11588150D01*
X8882087Y-11588150D02*
X8843992Y-11588150D01*
X8843992Y-11588150D02*
X8824944Y-11597674D01*
X8910658Y-11711960D02*
X8891611Y-11721484D01*
X8891611Y-11721484D02*
X8843992Y-11721484D01*
X8843992Y-11721484D02*
X8824944Y-11711960D01*
X8824944Y-11711960D02*
X8815420Y-11692912D01*
X8815420Y-11692912D02*
X8815420Y-11673865D01*
X8815420Y-11673865D02*
X8824944Y-11654817D01*
X8824944Y-11654817D02*
X8843992Y-11645293D01*
X8843992Y-11645293D02*
X8891611Y-11645293D01*
X8891611Y-11645293D02*
X8910658Y-11635769D01*
X8977325Y-11588150D02*
X9053515Y-11588150D01*
X9005896Y-11521484D02*
X9005896Y-11692912D01*
X9005896Y-11692912D02*
X9015420Y-11711960D01*
X9015420Y-11711960D02*
X9034468Y-11721484D01*
X9034468Y-11721484D02*
X9053515Y-11721484D01*
X9196373Y-11711960D02*
X9177325Y-11721484D01*
X9177325Y-11721484D02*
X9139230Y-11721484D01*
X9139230Y-11721484D02*
X9120182Y-11711960D01*
X9120182Y-11711960D02*
X9110658Y-11692912D01*
X9110658Y-11692912D02*
X9110658Y-11616722D01*
X9110658Y-11616722D02*
X9120182Y-11597674D01*
X9120182Y-11597674D02*
X9139230Y-11588150D01*
X9139230Y-11588150D02*
X9177325Y-11588150D01*
X9177325Y-11588150D02*
X9196373Y-11597674D01*
X9196373Y-11597674D02*
X9205896Y-11616722D01*
X9205896Y-11616722D02*
X9205896Y-11635769D01*
X9205896Y-11635769D02*
X9110658Y-11654817D01*
X9377325Y-11721484D02*
X9377325Y-11521484D01*
X9377325Y-11711960D02*
X9358277Y-11721484D01*
X9358277Y-11721484D02*
X9320182Y-11721484D01*
X9320182Y-11721484D02*
X9301135Y-11711960D01*
X9301135Y-11711960D02*
X9291611Y-11702436D01*
X9291611Y-11702436D02*
X9282087Y-11683388D01*
X9282087Y-11683388D02*
X9282087Y-11626246D01*
X9282087Y-11626246D02*
X9291611Y-11607198D01*
X9291611Y-11607198D02*
X9301135Y-11597674D01*
X9301135Y-11597674D02*
X9320182Y-11588150D01*
X9320182Y-11588150D02*
X9358277Y-11588150D01*
X9358277Y-11588150D02*
X9377325Y-11597674D01*
X9453516Y-11797674D02*
X9463039Y-11788150D01*
X9463039Y-11788150D02*
X9482087Y-11759579D01*
X9482087Y-11759579D02*
X9491611Y-11740531D01*
X9491611Y-11740531D02*
X9501135Y-11711960D01*
X9501135Y-11711960D02*
X9510658Y-11664341D01*
X9510658Y-11664341D02*
X9510658Y-11626246D01*
X9510658Y-11626246D02*
X9501135Y-11578627D01*
X9501135Y-11578627D02*
X9491611Y-11550055D01*
X9491611Y-11550055D02*
X9482087Y-11531008D01*
X9482087Y-11531008D02*
X9463039Y-11502436D01*
X9463039Y-11502436D02*
X9453516Y-11492912D01*
D13*
X2697500Y-11894000D02*
G75*
G02*
X2555500Y-11894000I-71000J0D01*
G01*
X2555500Y-11894000D02*
G75*
G02*
X2697500Y-11894000I71000J0D01*
G01*
D11*
X3063039Y-11985484D02*
X2948753Y-11985484D01*
X3005896Y-11985484D02*
X3005896Y-11785484D01*
X3005896Y-11785484D02*
X2986848Y-11814055D01*
X2986848Y-11814055D02*
X2967801Y-11833103D01*
X2967801Y-11833103D02*
X2948753Y-11842627D01*
X3148753Y-11966436D02*
X3158277Y-11975960D01*
X3158277Y-11975960D02*
X3148753Y-11985484D01*
X3148753Y-11985484D02*
X3139229Y-11975960D01*
X3139229Y-11975960D02*
X3148753Y-11966436D01*
X3148753Y-11966436D02*
X3148753Y-11985484D01*
X3329705Y-11852150D02*
X3329705Y-11985484D01*
X3282086Y-11775960D02*
X3234467Y-11918817D01*
X3234467Y-11918817D02*
X3358277Y-11918817D01*
X3424943Y-11804531D02*
X3434467Y-11795008D01*
X3434467Y-11795008D02*
X3453515Y-11785484D01*
X3453515Y-11785484D02*
X3501134Y-11785484D01*
X3501134Y-11785484D02*
X3520182Y-11795008D01*
X3520182Y-11795008D02*
X3529705Y-11804531D01*
X3529705Y-11804531D02*
X3539229Y-11823579D01*
X3539229Y-11823579D02*
X3539229Y-11842627D01*
X3539229Y-11842627D02*
X3529705Y-11871198D01*
X3529705Y-11871198D02*
X3415420Y-11985484D01*
X3415420Y-11985484D02*
X3539229Y-11985484D01*
X3663039Y-11785484D02*
X3682086Y-11785484D01*
X3682086Y-11785484D02*
X3701134Y-11795008D01*
X3701134Y-11795008D02*
X3710658Y-11804531D01*
X3710658Y-11804531D02*
X3720182Y-11823579D01*
X3720182Y-11823579D02*
X3729705Y-11861674D01*
X3729705Y-11861674D02*
X3729705Y-11909293D01*
X3729705Y-11909293D02*
X3720182Y-11947388D01*
X3720182Y-11947388D02*
X3710658Y-11966436D01*
X3710658Y-11966436D02*
X3701134Y-11975960D01*
X3701134Y-11975960D02*
X3682086Y-11985484D01*
X3682086Y-11985484D02*
X3663039Y-11985484D01*
X3663039Y-11985484D02*
X3643991Y-11975960D01*
X3643991Y-11975960D02*
X3634467Y-11966436D01*
X3634467Y-11966436D02*
X3624943Y-11947388D01*
X3624943Y-11947388D02*
X3615420Y-11909293D01*
X3615420Y-11909293D02*
X3615420Y-11861674D01*
X3615420Y-11861674D02*
X3624943Y-11823579D01*
X3624943Y-11823579D02*
X3634467Y-11804531D01*
X3634467Y-11804531D02*
X3643991Y-11795008D01*
X3643991Y-11795008D02*
X3663039Y-11785484D01*
X3815420Y-11985484D02*
X3815420Y-11852150D01*
X3815420Y-11871198D02*
X3824943Y-11861674D01*
X3824943Y-11861674D02*
X3843991Y-11852150D01*
X3843991Y-11852150D02*
X3872563Y-11852150D01*
X3872563Y-11852150D02*
X3891610Y-11861674D01*
X3891610Y-11861674D02*
X3901134Y-11880722D01*
X3901134Y-11880722D02*
X3901134Y-11985484D01*
X3901134Y-11880722D02*
X3910658Y-11861674D01*
X3910658Y-11861674D02*
X3929705Y-11852150D01*
X3929705Y-11852150D02*
X3958277Y-11852150D01*
X3958277Y-11852150D02*
X3977324Y-11861674D01*
X3977324Y-11861674D02*
X3986848Y-11880722D01*
X3986848Y-11880722D02*
X3986848Y-11985484D01*
X4082086Y-11985484D02*
X4082086Y-11852150D01*
X4082086Y-11871198D02*
X4091610Y-11861674D01*
X4091610Y-11861674D02*
X4110658Y-11852150D01*
X4110658Y-11852150D02*
X4139229Y-11852150D01*
X4139229Y-11852150D02*
X4158277Y-11861674D01*
X4158277Y-11861674D02*
X4167801Y-11880722D01*
X4167801Y-11880722D02*
X4167801Y-11985484D01*
X4167801Y-11880722D02*
X4177324Y-11861674D01*
X4177324Y-11861674D02*
X4196372Y-11852150D01*
X4196372Y-11852150D02*
X4224944Y-11852150D01*
X4224944Y-11852150D02*
X4243991Y-11861674D01*
X4243991Y-11861674D02*
X4253515Y-11880722D01*
X4253515Y-11880722D02*
X4253515Y-11985484D01*
X4643991Y-11775960D02*
X4472563Y-12033103D01*
X4901134Y-11785484D02*
X4920182Y-11785484D01*
X4920182Y-11785484D02*
X4939229Y-11795008D01*
X4939229Y-11795008D02*
X4948753Y-11804531D01*
X4948753Y-11804531D02*
X4958277Y-11823579D01*
X4958277Y-11823579D02*
X4967801Y-11861674D01*
X4967801Y-11861674D02*
X4967801Y-11909293D01*
X4967801Y-11909293D02*
X4958277Y-11947388D01*
X4958277Y-11947388D02*
X4948753Y-11966436D01*
X4948753Y-11966436D02*
X4939229Y-11975960D01*
X4939229Y-11975960D02*
X4920182Y-11985484D01*
X4920182Y-11985484D02*
X4901134Y-11985484D01*
X4901134Y-11985484D02*
X4882087Y-11975960D01*
X4882087Y-11975960D02*
X4872563Y-11966436D01*
X4872563Y-11966436D02*
X4863039Y-11947388D01*
X4863039Y-11947388D02*
X4853515Y-11909293D01*
X4853515Y-11909293D02*
X4853515Y-11861674D01*
X4853515Y-11861674D02*
X4863039Y-11823579D01*
X4863039Y-11823579D02*
X4872563Y-11804531D01*
X4872563Y-11804531D02*
X4882087Y-11795008D01*
X4882087Y-11795008D02*
X4901134Y-11785484D01*
X5053515Y-11966436D02*
X5063039Y-11975960D01*
X5063039Y-11975960D02*
X5053515Y-11985484D01*
X5053515Y-11985484D02*
X5043991Y-11975960D01*
X5043991Y-11975960D02*
X5053515Y-11966436D01*
X5053515Y-11966436D02*
X5053515Y-11985484D01*
X5186848Y-11785484D02*
X5205896Y-11785484D01*
X5205896Y-11785484D02*
X5224944Y-11795008D01*
X5224944Y-11795008D02*
X5234468Y-11804531D01*
X5234468Y-11804531D02*
X5243991Y-11823579D01*
X5243991Y-11823579D02*
X5253515Y-11861674D01*
X5253515Y-11861674D02*
X5253515Y-11909293D01*
X5253515Y-11909293D02*
X5243991Y-11947388D01*
X5243991Y-11947388D02*
X5234468Y-11966436D01*
X5234468Y-11966436D02*
X5224944Y-11975960D01*
X5224944Y-11975960D02*
X5205896Y-11985484D01*
X5205896Y-11985484D02*
X5186848Y-11985484D01*
X5186848Y-11985484D02*
X5167801Y-11975960D01*
X5167801Y-11975960D02*
X5158277Y-11966436D01*
X5158277Y-11966436D02*
X5148753Y-11947388D01*
X5148753Y-11947388D02*
X5139229Y-11909293D01*
X5139229Y-11909293D02*
X5139229Y-11861674D01*
X5139229Y-11861674D02*
X5148753Y-11823579D01*
X5148753Y-11823579D02*
X5158277Y-11804531D01*
X5158277Y-11804531D02*
X5167801Y-11795008D01*
X5167801Y-11795008D02*
X5186848Y-11785484D01*
X5434468Y-11785484D02*
X5339229Y-11785484D01*
X5339229Y-11785484D02*
X5329706Y-11880722D01*
X5329706Y-11880722D02*
X5339229Y-11871198D01*
X5339229Y-11871198D02*
X5358277Y-11861674D01*
X5358277Y-11861674D02*
X5405896Y-11861674D01*
X5405896Y-11861674D02*
X5424944Y-11871198D01*
X5424944Y-11871198D02*
X5434468Y-11880722D01*
X5434468Y-11880722D02*
X5443991Y-11899769D01*
X5443991Y-11899769D02*
X5443991Y-11947388D01*
X5443991Y-11947388D02*
X5434468Y-11966436D01*
X5434468Y-11966436D02*
X5424944Y-11975960D01*
X5424944Y-11975960D02*
X5405896Y-11985484D01*
X5405896Y-11985484D02*
X5358277Y-11985484D01*
X5358277Y-11985484D02*
X5339229Y-11975960D01*
X5339229Y-11975960D02*
X5329706Y-11966436D01*
X5624944Y-11785484D02*
X5529706Y-11785484D01*
X5529706Y-11785484D02*
X5520182Y-11880722D01*
X5520182Y-11880722D02*
X5529706Y-11871198D01*
X5529706Y-11871198D02*
X5548753Y-11861674D01*
X5548753Y-11861674D02*
X5596372Y-11861674D01*
X5596372Y-11861674D02*
X5615420Y-11871198D01*
X5615420Y-11871198D02*
X5624944Y-11880722D01*
X5624944Y-11880722D02*
X5634467Y-11899769D01*
X5634467Y-11899769D02*
X5634467Y-11947388D01*
X5634467Y-11947388D02*
X5624944Y-11966436D01*
X5624944Y-11966436D02*
X5615420Y-11975960D01*
X5615420Y-11975960D02*
X5596372Y-11985484D01*
X5596372Y-11985484D02*
X5548753Y-11985484D01*
X5548753Y-11985484D02*
X5529706Y-11975960D01*
X5529706Y-11975960D02*
X5520182Y-11966436D01*
X5729706Y-11985484D02*
X5767801Y-11985484D01*
X5767801Y-11985484D02*
X5786848Y-11975960D01*
X5786848Y-11975960D02*
X5796372Y-11966436D01*
X5796372Y-11966436D02*
X5815420Y-11937865D01*
X5815420Y-11937865D02*
X5824944Y-11899769D01*
X5824944Y-11899769D02*
X5824944Y-11823579D01*
X5824944Y-11823579D02*
X5815420Y-11804531D01*
X5815420Y-11804531D02*
X5805896Y-11795008D01*
X5805896Y-11795008D02*
X5786848Y-11785484D01*
X5786848Y-11785484D02*
X5748753Y-11785484D01*
X5748753Y-11785484D02*
X5729706Y-11795008D01*
X5729706Y-11795008D02*
X5720182Y-11804531D01*
X5720182Y-11804531D02*
X5710658Y-11823579D01*
X5710658Y-11823579D02*
X5710658Y-11871198D01*
X5710658Y-11871198D02*
X5720182Y-11890246D01*
X5720182Y-11890246D02*
X5729706Y-11899769D01*
X5729706Y-11899769D02*
X5748753Y-11909293D01*
X5748753Y-11909293D02*
X5786848Y-11909293D01*
X5786848Y-11909293D02*
X5805896Y-11899769D01*
X5805896Y-11899769D02*
X5815420Y-11890246D01*
X5815420Y-11890246D02*
X5824944Y-11871198D01*
X5901134Y-11785484D02*
X5901134Y-11823579D01*
X5977325Y-11785484D02*
X5977325Y-11823579D01*
X6272563Y-12061674D02*
X6263039Y-12052150D01*
X6263039Y-12052150D02*
X6243991Y-12023579D01*
X6243991Y-12023579D02*
X6234468Y-12004531D01*
X6234468Y-12004531D02*
X6224944Y-11975960D01*
X6224944Y-11975960D02*
X6215420Y-11928341D01*
X6215420Y-11928341D02*
X6215420Y-11890246D01*
X6215420Y-11890246D02*
X6224944Y-11842627D01*
X6224944Y-11842627D02*
X6234468Y-11814055D01*
X6234468Y-11814055D02*
X6243991Y-11795008D01*
X6243991Y-11795008D02*
X6263039Y-11766436D01*
X6263039Y-11766436D02*
X6272563Y-11756912D01*
X6434468Y-11852150D02*
X6434468Y-11985484D01*
X6386848Y-11775960D02*
X6339229Y-11918817D01*
X6339229Y-11918817D02*
X6463039Y-11918817D01*
X6691610Y-11985484D02*
X6691610Y-11785484D01*
X6777325Y-11985484D02*
X6777325Y-11880722D01*
X6777325Y-11880722D02*
X6767801Y-11861674D01*
X6767801Y-11861674D02*
X6748753Y-11852150D01*
X6748753Y-11852150D02*
X6720182Y-11852150D01*
X6720182Y-11852150D02*
X6701134Y-11861674D01*
X6701134Y-11861674D02*
X6691610Y-11871198D01*
X6901134Y-11985484D02*
X6882087Y-11975960D01*
X6882087Y-11975960D02*
X6872563Y-11966436D01*
X6872563Y-11966436D02*
X6863039Y-11947388D01*
X6863039Y-11947388D02*
X6863039Y-11890246D01*
X6863039Y-11890246D02*
X6872563Y-11871198D01*
X6872563Y-11871198D02*
X6882087Y-11861674D01*
X6882087Y-11861674D02*
X6901134Y-11852150D01*
X6901134Y-11852150D02*
X6929706Y-11852150D01*
X6929706Y-11852150D02*
X6948753Y-11861674D01*
X6948753Y-11861674D02*
X6958277Y-11871198D01*
X6958277Y-11871198D02*
X6967801Y-11890246D01*
X6967801Y-11890246D02*
X6967801Y-11947388D01*
X6967801Y-11947388D02*
X6958277Y-11966436D01*
X6958277Y-11966436D02*
X6948753Y-11975960D01*
X6948753Y-11975960D02*
X6929706Y-11985484D01*
X6929706Y-11985484D02*
X6901134Y-11985484D01*
X7082087Y-11985484D02*
X7063039Y-11975960D01*
X7063039Y-11975960D02*
X7053515Y-11956912D01*
X7053515Y-11956912D02*
X7053515Y-11785484D01*
X7234468Y-11975960D02*
X7215420Y-11985484D01*
X7215420Y-11985484D02*
X7177325Y-11985484D01*
X7177325Y-11985484D02*
X7158277Y-11975960D01*
X7158277Y-11975960D02*
X7148753Y-11956912D01*
X7148753Y-11956912D02*
X7148753Y-11880722D01*
X7148753Y-11880722D02*
X7158277Y-11861674D01*
X7158277Y-11861674D02*
X7177325Y-11852150D01*
X7177325Y-11852150D02*
X7215420Y-11852150D01*
X7215420Y-11852150D02*
X7234468Y-11861674D01*
X7234468Y-11861674D02*
X7243991Y-11880722D01*
X7243991Y-11880722D02*
X7243991Y-11899769D01*
X7243991Y-11899769D02*
X7148753Y-11918817D01*
X7320182Y-11975960D02*
X7339230Y-11985484D01*
X7339230Y-11985484D02*
X7377325Y-11985484D01*
X7377325Y-11985484D02*
X7396372Y-11975960D01*
X7396372Y-11975960D02*
X7405896Y-11956912D01*
X7405896Y-11956912D02*
X7405896Y-11947388D01*
X7405896Y-11947388D02*
X7396372Y-11928341D01*
X7396372Y-11928341D02*
X7377325Y-11918817D01*
X7377325Y-11918817D02*
X7348753Y-11918817D01*
X7348753Y-11918817D02*
X7329706Y-11909293D01*
X7329706Y-11909293D02*
X7320182Y-11890246D01*
X7320182Y-11890246D02*
X7320182Y-11880722D01*
X7320182Y-11880722D02*
X7329706Y-11861674D01*
X7329706Y-11861674D02*
X7348753Y-11852150D01*
X7348753Y-11852150D02*
X7377325Y-11852150D01*
X7377325Y-11852150D02*
X7396372Y-11861674D01*
X7472563Y-12061674D02*
X7482087Y-12052150D01*
X7482087Y-12052150D02*
X7501134Y-12023579D01*
X7501134Y-12023579D02*
X7510658Y-12004531D01*
X7510658Y-12004531D02*
X7520182Y-11975960D01*
X7520182Y-11975960D02*
X7529706Y-11928341D01*
X7529706Y-11928341D02*
X7529706Y-11890246D01*
X7529706Y-11890246D02*
X7520182Y-11842627D01*
X7520182Y-11842627D02*
X7510658Y-11814055D01*
X7510658Y-11814055D02*
X7501134Y-11795008D01*
X7501134Y-11795008D02*
X7482087Y-11766436D01*
X7482087Y-11766436D02*
X7472563Y-11756912D01*
X7834468Y-12061674D02*
X7824944Y-12052150D01*
X7824944Y-12052150D02*
X7805896Y-12023579D01*
X7805896Y-12023579D02*
X7796372Y-12004531D01*
X7796372Y-12004531D02*
X7786849Y-11975960D01*
X7786849Y-11975960D02*
X7777325Y-11928341D01*
X7777325Y-11928341D02*
X7777325Y-11890246D01*
X7777325Y-11890246D02*
X7786849Y-11842627D01*
X7786849Y-11842627D02*
X7796372Y-11814055D01*
X7796372Y-11814055D02*
X7805896Y-11795008D01*
X7805896Y-11795008D02*
X7824944Y-11766436D01*
X7824944Y-11766436D02*
X7834468Y-11756912D01*
X7910658Y-11852150D02*
X7910658Y-11985484D01*
X7910658Y-11871198D02*
X7920182Y-11861674D01*
X7920182Y-11861674D02*
X7939230Y-11852150D01*
X7939230Y-11852150D02*
X7967801Y-11852150D01*
X7967801Y-11852150D02*
X7986849Y-11861674D01*
X7986849Y-11861674D02*
X7996372Y-11880722D01*
X7996372Y-11880722D02*
X7996372Y-11985484D01*
X8120182Y-11985484D02*
X8101134Y-11975960D01*
X8101134Y-11975960D02*
X8091611Y-11966436D01*
X8091611Y-11966436D02*
X8082087Y-11947388D01*
X8082087Y-11947388D02*
X8082087Y-11890246D01*
X8082087Y-11890246D02*
X8091611Y-11871198D01*
X8091611Y-11871198D02*
X8101134Y-11861674D01*
X8101134Y-11861674D02*
X8120182Y-11852150D01*
X8120182Y-11852150D02*
X8148753Y-11852150D01*
X8148753Y-11852150D02*
X8167801Y-11861674D01*
X8167801Y-11861674D02*
X8177325Y-11871198D01*
X8177325Y-11871198D02*
X8186849Y-11890246D01*
X8186849Y-11890246D02*
X8186849Y-11947388D01*
X8186849Y-11947388D02*
X8177325Y-11966436D01*
X8177325Y-11966436D02*
X8167801Y-11975960D01*
X8167801Y-11975960D02*
X8148753Y-11985484D01*
X8148753Y-11985484D02*
X8120182Y-11985484D01*
X8243992Y-11852150D02*
X8320182Y-11852150D01*
X8272563Y-11785484D02*
X8272563Y-11956912D01*
X8272563Y-11956912D02*
X8282087Y-11975960D01*
X8282087Y-11975960D02*
X8301134Y-11985484D01*
X8301134Y-11985484D02*
X8320182Y-11985484D01*
X8539230Y-11852150D02*
X8539230Y-12052150D01*
X8539230Y-11861674D02*
X8558277Y-11852150D01*
X8558277Y-11852150D02*
X8596373Y-11852150D01*
X8596373Y-11852150D02*
X8615420Y-11861674D01*
X8615420Y-11861674D02*
X8624944Y-11871198D01*
X8624944Y-11871198D02*
X8634468Y-11890246D01*
X8634468Y-11890246D02*
X8634468Y-11947388D01*
X8634468Y-11947388D02*
X8624944Y-11966436D01*
X8624944Y-11966436D02*
X8615420Y-11975960D01*
X8615420Y-11975960D02*
X8596373Y-11985484D01*
X8596373Y-11985484D02*
X8558277Y-11985484D01*
X8558277Y-11985484D02*
X8539230Y-11975960D01*
X8748754Y-11985484D02*
X8729706Y-11975960D01*
X8729706Y-11975960D02*
X8720182Y-11956912D01*
X8720182Y-11956912D02*
X8720182Y-11785484D01*
X8910658Y-11985484D02*
X8910658Y-11880722D01*
X8910658Y-11880722D02*
X8901135Y-11861674D01*
X8901135Y-11861674D02*
X8882087Y-11852150D01*
X8882087Y-11852150D02*
X8843992Y-11852150D01*
X8843992Y-11852150D02*
X8824944Y-11861674D01*
X8910658Y-11975960D02*
X8891611Y-11985484D01*
X8891611Y-11985484D02*
X8843992Y-11985484D01*
X8843992Y-11985484D02*
X8824944Y-11975960D01*
X8824944Y-11975960D02*
X8815420Y-11956912D01*
X8815420Y-11956912D02*
X8815420Y-11937865D01*
X8815420Y-11937865D02*
X8824944Y-11918817D01*
X8824944Y-11918817D02*
X8843992Y-11909293D01*
X8843992Y-11909293D02*
X8891611Y-11909293D01*
X8891611Y-11909293D02*
X8910658Y-11899769D01*
X8977325Y-11852150D02*
X9053515Y-11852150D01*
X9005896Y-11785484D02*
X9005896Y-11956912D01*
X9005896Y-11956912D02*
X9015420Y-11975960D01*
X9015420Y-11975960D02*
X9034468Y-11985484D01*
X9034468Y-11985484D02*
X9053515Y-11985484D01*
X9196373Y-11975960D02*
X9177325Y-11985484D01*
X9177325Y-11985484D02*
X9139230Y-11985484D01*
X9139230Y-11985484D02*
X9120182Y-11975960D01*
X9120182Y-11975960D02*
X9110658Y-11956912D01*
X9110658Y-11956912D02*
X9110658Y-11880722D01*
X9110658Y-11880722D02*
X9120182Y-11861674D01*
X9120182Y-11861674D02*
X9139230Y-11852150D01*
X9139230Y-11852150D02*
X9177325Y-11852150D01*
X9177325Y-11852150D02*
X9196373Y-11861674D01*
X9196373Y-11861674D02*
X9205896Y-11880722D01*
X9205896Y-11880722D02*
X9205896Y-11899769D01*
X9205896Y-11899769D02*
X9110658Y-11918817D01*
X9377325Y-11985484D02*
X9377325Y-11785484D01*
X9377325Y-11975960D02*
X9358277Y-11985484D01*
X9358277Y-11985484D02*
X9320182Y-11985484D01*
X9320182Y-11985484D02*
X9301135Y-11975960D01*
X9301135Y-11975960D02*
X9291611Y-11966436D01*
X9291611Y-11966436D02*
X9282087Y-11947388D01*
X9282087Y-11947388D02*
X9282087Y-11890246D01*
X9282087Y-11890246D02*
X9291611Y-11871198D01*
X9291611Y-11871198D02*
X9301135Y-11861674D01*
X9301135Y-11861674D02*
X9320182Y-11852150D01*
X9320182Y-11852150D02*
X9358277Y-11852150D01*
X9358277Y-11852150D02*
X9377325Y-11861674D01*
X9453516Y-12061674D02*
X9463039Y-12052150D01*
X9463039Y-12052150D02*
X9482087Y-12023579D01*
X9482087Y-12023579D02*
X9491611Y-12004531D01*
X9491611Y-12004531D02*
X9501135Y-11975960D01*
X9501135Y-11975960D02*
X9510658Y-11928341D01*
X9510658Y-11928341D02*
X9510658Y-11890246D01*
X9510658Y-11890246D02*
X9501135Y-11842627D01*
X9501135Y-11842627D02*
X9491611Y-11814055D01*
X9491611Y-11814055D02*
X9482087Y-11795008D01*
X9482087Y-11795008D02*
X9463039Y-11766436D01*
X9463039Y-11766436D02*
X9453516Y-11756912D01*
X2597500Y-12058000D02*
X2597500Y-12258000D01*
X2497500Y-12158000D02*
X2697500Y-12158000D01*
X2939229Y-12049484D02*
X3063039Y-12049484D01*
X3063039Y-12049484D02*
X2996372Y-12125674D01*
X2996372Y-12125674D02*
X3024943Y-12125674D01*
X3024943Y-12125674D02*
X3043991Y-12135198D01*
X3043991Y-12135198D02*
X3053515Y-12144722D01*
X3053515Y-12144722D02*
X3063039Y-12163769D01*
X3063039Y-12163769D02*
X3063039Y-12211388D01*
X3063039Y-12211388D02*
X3053515Y-12230436D01*
X3053515Y-12230436D02*
X3043991Y-12239960D01*
X3043991Y-12239960D02*
X3024943Y-12249484D01*
X3024943Y-12249484D02*
X2967801Y-12249484D01*
X2967801Y-12249484D02*
X2948753Y-12239960D01*
X2948753Y-12239960D02*
X2939229Y-12230436D01*
X3148753Y-12230436D02*
X3158277Y-12239960D01*
X3158277Y-12239960D02*
X3148753Y-12249484D01*
X3148753Y-12249484D02*
X3139229Y-12239960D01*
X3139229Y-12239960D02*
X3148753Y-12230436D01*
X3148753Y-12230436D02*
X3148753Y-12249484D01*
X3339229Y-12049484D02*
X3243991Y-12049484D01*
X3243991Y-12049484D02*
X3234467Y-12144722D01*
X3234467Y-12144722D02*
X3243991Y-12135198D01*
X3243991Y-12135198D02*
X3263039Y-12125674D01*
X3263039Y-12125674D02*
X3310658Y-12125674D01*
X3310658Y-12125674D02*
X3329705Y-12135198D01*
X3329705Y-12135198D02*
X3339229Y-12144722D01*
X3339229Y-12144722D02*
X3348753Y-12163769D01*
X3348753Y-12163769D02*
X3348753Y-12211388D01*
X3348753Y-12211388D02*
X3339229Y-12230436D01*
X3339229Y-12230436D02*
X3329705Y-12239960D01*
X3329705Y-12239960D02*
X3310658Y-12249484D01*
X3310658Y-12249484D02*
X3263039Y-12249484D01*
X3263039Y-12249484D02*
X3243991Y-12239960D01*
X3243991Y-12239960D02*
X3234467Y-12230436D01*
X3472562Y-12049484D02*
X3491610Y-12049484D01*
X3491610Y-12049484D02*
X3510658Y-12059008D01*
X3510658Y-12059008D02*
X3520182Y-12068531D01*
X3520182Y-12068531D02*
X3529705Y-12087579D01*
X3529705Y-12087579D02*
X3539229Y-12125674D01*
X3539229Y-12125674D02*
X3539229Y-12173293D01*
X3539229Y-12173293D02*
X3529705Y-12211388D01*
X3529705Y-12211388D02*
X3520182Y-12230436D01*
X3520182Y-12230436D02*
X3510658Y-12239960D01*
X3510658Y-12239960D02*
X3491610Y-12249484D01*
X3491610Y-12249484D02*
X3472562Y-12249484D01*
X3472562Y-12249484D02*
X3453515Y-12239960D01*
X3453515Y-12239960D02*
X3443991Y-12230436D01*
X3443991Y-12230436D02*
X3434467Y-12211388D01*
X3434467Y-12211388D02*
X3424943Y-12173293D01*
X3424943Y-12173293D02*
X3424943Y-12125674D01*
X3424943Y-12125674D02*
X3434467Y-12087579D01*
X3434467Y-12087579D02*
X3443991Y-12068531D01*
X3443991Y-12068531D02*
X3453515Y-12059008D01*
X3453515Y-12059008D02*
X3472562Y-12049484D01*
X3663039Y-12049484D02*
X3682086Y-12049484D01*
X3682086Y-12049484D02*
X3701134Y-12059008D01*
X3701134Y-12059008D02*
X3710658Y-12068531D01*
X3710658Y-12068531D02*
X3720182Y-12087579D01*
X3720182Y-12087579D02*
X3729705Y-12125674D01*
X3729705Y-12125674D02*
X3729705Y-12173293D01*
X3729705Y-12173293D02*
X3720182Y-12211388D01*
X3720182Y-12211388D02*
X3710658Y-12230436D01*
X3710658Y-12230436D02*
X3701134Y-12239960D01*
X3701134Y-12239960D02*
X3682086Y-12249484D01*
X3682086Y-12249484D02*
X3663039Y-12249484D01*
X3663039Y-12249484D02*
X3643991Y-12239960D01*
X3643991Y-12239960D02*
X3634467Y-12230436D01*
X3634467Y-12230436D02*
X3624943Y-12211388D01*
X3624943Y-12211388D02*
X3615420Y-12173293D01*
X3615420Y-12173293D02*
X3615420Y-12125674D01*
X3615420Y-12125674D02*
X3624943Y-12087579D01*
X3624943Y-12087579D02*
X3634467Y-12068531D01*
X3634467Y-12068531D02*
X3643991Y-12059008D01*
X3643991Y-12059008D02*
X3663039Y-12049484D01*
X3815420Y-12249484D02*
X3815420Y-12116150D01*
X3815420Y-12135198D02*
X3824943Y-12125674D01*
X3824943Y-12125674D02*
X3843991Y-12116150D01*
X3843991Y-12116150D02*
X3872563Y-12116150D01*
X3872563Y-12116150D02*
X3891610Y-12125674D01*
X3891610Y-12125674D02*
X3901134Y-12144722D01*
X3901134Y-12144722D02*
X3901134Y-12249484D01*
X3901134Y-12144722D02*
X3910658Y-12125674D01*
X3910658Y-12125674D02*
X3929705Y-12116150D01*
X3929705Y-12116150D02*
X3958277Y-12116150D01*
X3958277Y-12116150D02*
X3977324Y-12125674D01*
X3977324Y-12125674D02*
X3986848Y-12144722D01*
X3986848Y-12144722D02*
X3986848Y-12249484D01*
X4082086Y-12249484D02*
X4082086Y-12116150D01*
X4082086Y-12135198D02*
X4091610Y-12125674D01*
X4091610Y-12125674D02*
X4110658Y-12116150D01*
X4110658Y-12116150D02*
X4139229Y-12116150D01*
X4139229Y-12116150D02*
X4158277Y-12125674D01*
X4158277Y-12125674D02*
X4167801Y-12144722D01*
X4167801Y-12144722D02*
X4167801Y-12249484D01*
X4167801Y-12144722D02*
X4177324Y-12125674D01*
X4177324Y-12125674D02*
X4196372Y-12116150D01*
X4196372Y-12116150D02*
X4224944Y-12116150D01*
X4224944Y-12116150D02*
X4243991Y-12125674D01*
X4243991Y-12125674D02*
X4253515Y-12144722D01*
X4253515Y-12144722D02*
X4253515Y-12249484D01*
X4643991Y-12039960D02*
X4472563Y-12297103D01*
X4901134Y-12049484D02*
X4920182Y-12049484D01*
X4920182Y-12049484D02*
X4939229Y-12059008D01*
X4939229Y-12059008D02*
X4948753Y-12068531D01*
X4948753Y-12068531D02*
X4958277Y-12087579D01*
X4958277Y-12087579D02*
X4967801Y-12125674D01*
X4967801Y-12125674D02*
X4967801Y-12173293D01*
X4967801Y-12173293D02*
X4958277Y-12211388D01*
X4958277Y-12211388D02*
X4948753Y-12230436D01*
X4948753Y-12230436D02*
X4939229Y-12239960D01*
X4939229Y-12239960D02*
X4920182Y-12249484D01*
X4920182Y-12249484D02*
X4901134Y-12249484D01*
X4901134Y-12249484D02*
X4882087Y-12239960D01*
X4882087Y-12239960D02*
X4872563Y-12230436D01*
X4872563Y-12230436D02*
X4863039Y-12211388D01*
X4863039Y-12211388D02*
X4853515Y-12173293D01*
X4853515Y-12173293D02*
X4853515Y-12125674D01*
X4853515Y-12125674D02*
X4863039Y-12087579D01*
X4863039Y-12087579D02*
X4872563Y-12068531D01*
X4872563Y-12068531D02*
X4882087Y-12059008D01*
X4882087Y-12059008D02*
X4901134Y-12049484D01*
X5053515Y-12230436D02*
X5063039Y-12239960D01*
X5063039Y-12239960D02*
X5053515Y-12249484D01*
X5053515Y-12249484D02*
X5043991Y-12239960D01*
X5043991Y-12239960D02*
X5053515Y-12230436D01*
X5053515Y-12230436D02*
X5053515Y-12249484D01*
X5253515Y-12249484D02*
X5139229Y-12249484D01*
X5196372Y-12249484D02*
X5196372Y-12049484D01*
X5196372Y-12049484D02*
X5177325Y-12078055D01*
X5177325Y-12078055D02*
X5158277Y-12097103D01*
X5158277Y-12097103D02*
X5139229Y-12106627D01*
X5320182Y-12049484D02*
X5443991Y-12049484D01*
X5443991Y-12049484D02*
X5377325Y-12125674D01*
X5377325Y-12125674D02*
X5405896Y-12125674D01*
X5405896Y-12125674D02*
X5424944Y-12135198D01*
X5424944Y-12135198D02*
X5434468Y-12144722D01*
X5434468Y-12144722D02*
X5443991Y-12163769D01*
X5443991Y-12163769D02*
X5443991Y-12211388D01*
X5443991Y-12211388D02*
X5434468Y-12230436D01*
X5434468Y-12230436D02*
X5424944Y-12239960D01*
X5424944Y-12239960D02*
X5405896Y-12249484D01*
X5405896Y-12249484D02*
X5348753Y-12249484D01*
X5348753Y-12249484D02*
X5329706Y-12239960D01*
X5329706Y-12239960D02*
X5320182Y-12230436D01*
X5510658Y-12049484D02*
X5643991Y-12049484D01*
X5643991Y-12049484D02*
X5558277Y-12249484D01*
X5748753Y-12135198D02*
X5729706Y-12125674D01*
X5729706Y-12125674D02*
X5720182Y-12116150D01*
X5720182Y-12116150D02*
X5710658Y-12097103D01*
X5710658Y-12097103D02*
X5710658Y-12087579D01*
X5710658Y-12087579D02*
X5720182Y-12068531D01*
X5720182Y-12068531D02*
X5729706Y-12059008D01*
X5729706Y-12059008D02*
X5748753Y-12049484D01*
X5748753Y-12049484D02*
X5786848Y-12049484D01*
X5786848Y-12049484D02*
X5805896Y-12059008D01*
X5805896Y-12059008D02*
X5815420Y-12068531D01*
X5815420Y-12068531D02*
X5824944Y-12087579D01*
X5824944Y-12087579D02*
X5824944Y-12097103D01*
X5824944Y-12097103D02*
X5815420Y-12116150D01*
X5815420Y-12116150D02*
X5805896Y-12125674D01*
X5805896Y-12125674D02*
X5786848Y-12135198D01*
X5786848Y-12135198D02*
X5748753Y-12135198D01*
X5748753Y-12135198D02*
X5729706Y-12144722D01*
X5729706Y-12144722D02*
X5720182Y-12154246D01*
X5720182Y-12154246D02*
X5710658Y-12173293D01*
X5710658Y-12173293D02*
X5710658Y-12211388D01*
X5710658Y-12211388D02*
X5720182Y-12230436D01*
X5720182Y-12230436D02*
X5729706Y-12239960D01*
X5729706Y-12239960D02*
X5748753Y-12249484D01*
X5748753Y-12249484D02*
X5786848Y-12249484D01*
X5786848Y-12249484D02*
X5805896Y-12239960D01*
X5805896Y-12239960D02*
X5815420Y-12230436D01*
X5815420Y-12230436D02*
X5824944Y-12211388D01*
X5824944Y-12211388D02*
X5824944Y-12173293D01*
X5824944Y-12173293D02*
X5815420Y-12154246D01*
X5815420Y-12154246D02*
X5805896Y-12144722D01*
X5805896Y-12144722D02*
X5786848Y-12135198D01*
X5901134Y-12049484D02*
X5901134Y-12087579D01*
X5977325Y-12049484D02*
X5977325Y-12087579D01*
X6272563Y-12325674D02*
X6263039Y-12316150D01*
X6263039Y-12316150D02*
X6243991Y-12287579D01*
X6243991Y-12287579D02*
X6234468Y-12268531D01*
X6234468Y-12268531D02*
X6224944Y-12239960D01*
X6224944Y-12239960D02*
X6215420Y-12192341D01*
X6215420Y-12192341D02*
X6215420Y-12154246D01*
X6215420Y-12154246D02*
X6224944Y-12106627D01*
X6224944Y-12106627D02*
X6234468Y-12078055D01*
X6234468Y-12078055D02*
X6243991Y-12059008D01*
X6243991Y-12059008D02*
X6263039Y-12030436D01*
X6263039Y-12030436D02*
X6272563Y-12020912D01*
X6434468Y-12116150D02*
X6434468Y-12249484D01*
X6386848Y-12039960D02*
X6339229Y-12182817D01*
X6339229Y-12182817D02*
X6463039Y-12182817D01*
X6691610Y-12249484D02*
X6691610Y-12049484D01*
X6777325Y-12249484D02*
X6777325Y-12144722D01*
X6777325Y-12144722D02*
X6767801Y-12125674D01*
X6767801Y-12125674D02*
X6748753Y-12116150D01*
X6748753Y-12116150D02*
X6720182Y-12116150D01*
X6720182Y-12116150D02*
X6701134Y-12125674D01*
X6701134Y-12125674D02*
X6691610Y-12135198D01*
X6901134Y-12249484D02*
X6882087Y-12239960D01*
X6882087Y-12239960D02*
X6872563Y-12230436D01*
X6872563Y-12230436D02*
X6863039Y-12211388D01*
X6863039Y-12211388D02*
X6863039Y-12154246D01*
X6863039Y-12154246D02*
X6872563Y-12135198D01*
X6872563Y-12135198D02*
X6882087Y-12125674D01*
X6882087Y-12125674D02*
X6901134Y-12116150D01*
X6901134Y-12116150D02*
X6929706Y-12116150D01*
X6929706Y-12116150D02*
X6948753Y-12125674D01*
X6948753Y-12125674D02*
X6958277Y-12135198D01*
X6958277Y-12135198D02*
X6967801Y-12154246D01*
X6967801Y-12154246D02*
X6967801Y-12211388D01*
X6967801Y-12211388D02*
X6958277Y-12230436D01*
X6958277Y-12230436D02*
X6948753Y-12239960D01*
X6948753Y-12239960D02*
X6929706Y-12249484D01*
X6929706Y-12249484D02*
X6901134Y-12249484D01*
X7082087Y-12249484D02*
X7063039Y-12239960D01*
X7063039Y-12239960D02*
X7053515Y-12220912D01*
X7053515Y-12220912D02*
X7053515Y-12049484D01*
X7234468Y-12239960D02*
X7215420Y-12249484D01*
X7215420Y-12249484D02*
X7177325Y-12249484D01*
X7177325Y-12249484D02*
X7158277Y-12239960D01*
X7158277Y-12239960D02*
X7148753Y-12220912D01*
X7148753Y-12220912D02*
X7148753Y-12144722D01*
X7148753Y-12144722D02*
X7158277Y-12125674D01*
X7158277Y-12125674D02*
X7177325Y-12116150D01*
X7177325Y-12116150D02*
X7215420Y-12116150D01*
X7215420Y-12116150D02*
X7234468Y-12125674D01*
X7234468Y-12125674D02*
X7243991Y-12144722D01*
X7243991Y-12144722D02*
X7243991Y-12163769D01*
X7243991Y-12163769D02*
X7148753Y-12182817D01*
X7320182Y-12239960D02*
X7339230Y-12249484D01*
X7339230Y-12249484D02*
X7377325Y-12249484D01*
X7377325Y-12249484D02*
X7396372Y-12239960D01*
X7396372Y-12239960D02*
X7405896Y-12220912D01*
X7405896Y-12220912D02*
X7405896Y-12211388D01*
X7405896Y-12211388D02*
X7396372Y-12192341D01*
X7396372Y-12192341D02*
X7377325Y-12182817D01*
X7377325Y-12182817D02*
X7348753Y-12182817D01*
X7348753Y-12182817D02*
X7329706Y-12173293D01*
X7329706Y-12173293D02*
X7320182Y-12154246D01*
X7320182Y-12154246D02*
X7320182Y-12144722D01*
X7320182Y-12144722D02*
X7329706Y-12125674D01*
X7329706Y-12125674D02*
X7348753Y-12116150D01*
X7348753Y-12116150D02*
X7377325Y-12116150D01*
X7377325Y-12116150D02*
X7396372Y-12125674D01*
X7472563Y-12325674D02*
X7482087Y-12316150D01*
X7482087Y-12316150D02*
X7501134Y-12287579D01*
X7501134Y-12287579D02*
X7510658Y-12268531D01*
X7510658Y-12268531D02*
X7520182Y-12239960D01*
X7520182Y-12239960D02*
X7529706Y-12192341D01*
X7529706Y-12192341D02*
X7529706Y-12154246D01*
X7529706Y-12154246D02*
X7520182Y-12106627D01*
X7520182Y-12106627D02*
X7510658Y-12078055D01*
X7510658Y-12078055D02*
X7501134Y-12059008D01*
X7501134Y-12059008D02*
X7482087Y-12030436D01*
X7482087Y-12030436D02*
X7472563Y-12020912D01*
X7834468Y-12325674D02*
X7824944Y-12316150D01*
X7824944Y-12316150D02*
X7805896Y-12287579D01*
X7805896Y-12287579D02*
X7796372Y-12268531D01*
X7796372Y-12268531D02*
X7786849Y-12239960D01*
X7786849Y-12239960D02*
X7777325Y-12192341D01*
X7777325Y-12192341D02*
X7777325Y-12154246D01*
X7777325Y-12154246D02*
X7786849Y-12106627D01*
X7786849Y-12106627D02*
X7796372Y-12078055D01*
X7796372Y-12078055D02*
X7805896Y-12059008D01*
X7805896Y-12059008D02*
X7824944Y-12030436D01*
X7824944Y-12030436D02*
X7834468Y-12020912D01*
X7910658Y-12116150D02*
X7910658Y-12249484D01*
X7910658Y-12135198D02*
X7920182Y-12125674D01*
X7920182Y-12125674D02*
X7939230Y-12116150D01*
X7939230Y-12116150D02*
X7967801Y-12116150D01*
X7967801Y-12116150D02*
X7986849Y-12125674D01*
X7986849Y-12125674D02*
X7996372Y-12144722D01*
X7996372Y-12144722D02*
X7996372Y-12249484D01*
X8120182Y-12249484D02*
X8101134Y-12239960D01*
X8101134Y-12239960D02*
X8091611Y-12230436D01*
X8091611Y-12230436D02*
X8082087Y-12211388D01*
X8082087Y-12211388D02*
X8082087Y-12154246D01*
X8082087Y-12154246D02*
X8091611Y-12135198D01*
X8091611Y-12135198D02*
X8101134Y-12125674D01*
X8101134Y-12125674D02*
X8120182Y-12116150D01*
X8120182Y-12116150D02*
X8148753Y-12116150D01*
X8148753Y-12116150D02*
X8167801Y-12125674D01*
X8167801Y-12125674D02*
X8177325Y-12135198D01*
X8177325Y-12135198D02*
X8186849Y-12154246D01*
X8186849Y-12154246D02*
X8186849Y-12211388D01*
X8186849Y-12211388D02*
X8177325Y-12230436D01*
X8177325Y-12230436D02*
X8167801Y-12239960D01*
X8167801Y-12239960D02*
X8148753Y-12249484D01*
X8148753Y-12249484D02*
X8120182Y-12249484D01*
X8243992Y-12116150D02*
X8320182Y-12116150D01*
X8272563Y-12049484D02*
X8272563Y-12220912D01*
X8272563Y-12220912D02*
X8282087Y-12239960D01*
X8282087Y-12239960D02*
X8301134Y-12249484D01*
X8301134Y-12249484D02*
X8320182Y-12249484D01*
X8539230Y-12116150D02*
X8539230Y-12316150D01*
X8539230Y-12125674D02*
X8558277Y-12116150D01*
X8558277Y-12116150D02*
X8596373Y-12116150D01*
X8596373Y-12116150D02*
X8615420Y-12125674D01*
X8615420Y-12125674D02*
X8624944Y-12135198D01*
X8624944Y-12135198D02*
X8634468Y-12154246D01*
X8634468Y-12154246D02*
X8634468Y-12211388D01*
X8634468Y-12211388D02*
X8624944Y-12230436D01*
X8624944Y-12230436D02*
X8615420Y-12239960D01*
X8615420Y-12239960D02*
X8596373Y-12249484D01*
X8596373Y-12249484D02*
X8558277Y-12249484D01*
X8558277Y-12249484D02*
X8539230Y-12239960D01*
X8748754Y-12249484D02*
X8729706Y-12239960D01*
X8729706Y-12239960D02*
X8720182Y-12220912D01*
X8720182Y-12220912D02*
X8720182Y-12049484D01*
X8910658Y-12249484D02*
X8910658Y-12144722D01*
X8910658Y-12144722D02*
X8901135Y-12125674D01*
X8901135Y-12125674D02*
X8882087Y-12116150D01*
X8882087Y-12116150D02*
X8843992Y-12116150D01*
X8843992Y-12116150D02*
X8824944Y-12125674D01*
X8910658Y-12239960D02*
X8891611Y-12249484D01*
X8891611Y-12249484D02*
X8843992Y-12249484D01*
X8843992Y-12249484D02*
X8824944Y-12239960D01*
X8824944Y-12239960D02*
X8815420Y-12220912D01*
X8815420Y-12220912D02*
X8815420Y-12201865D01*
X8815420Y-12201865D02*
X8824944Y-12182817D01*
X8824944Y-12182817D02*
X8843992Y-12173293D01*
X8843992Y-12173293D02*
X8891611Y-12173293D01*
X8891611Y-12173293D02*
X8910658Y-12163769D01*
X8977325Y-12116150D02*
X9053515Y-12116150D01*
X9005896Y-12049484D02*
X9005896Y-12220912D01*
X9005896Y-12220912D02*
X9015420Y-12239960D01*
X9015420Y-12239960D02*
X9034468Y-12249484D01*
X9034468Y-12249484D02*
X9053515Y-12249484D01*
X9196373Y-12239960D02*
X9177325Y-12249484D01*
X9177325Y-12249484D02*
X9139230Y-12249484D01*
X9139230Y-12249484D02*
X9120182Y-12239960D01*
X9120182Y-12239960D02*
X9110658Y-12220912D01*
X9110658Y-12220912D02*
X9110658Y-12144722D01*
X9110658Y-12144722D02*
X9120182Y-12125674D01*
X9120182Y-12125674D02*
X9139230Y-12116150D01*
X9139230Y-12116150D02*
X9177325Y-12116150D01*
X9177325Y-12116150D02*
X9196373Y-12125674D01*
X9196373Y-12125674D02*
X9205896Y-12144722D01*
X9205896Y-12144722D02*
X9205896Y-12163769D01*
X9205896Y-12163769D02*
X9110658Y-12182817D01*
X9377325Y-12249484D02*
X9377325Y-12049484D01*
X9377325Y-12239960D02*
X9358277Y-12249484D01*
X9358277Y-12249484D02*
X9320182Y-12249484D01*
X9320182Y-12249484D02*
X9301135Y-12239960D01*
X9301135Y-12239960D02*
X9291611Y-12230436D01*
X9291611Y-12230436D02*
X9282087Y-12211388D01*
X9282087Y-12211388D02*
X9282087Y-12154246D01*
X9282087Y-12154246D02*
X9291611Y-12135198D01*
X9291611Y-12135198D02*
X9301135Y-12125674D01*
X9301135Y-12125674D02*
X9320182Y-12116150D01*
X9320182Y-12116150D02*
X9358277Y-12116150D01*
X9358277Y-12116150D02*
X9377325Y-12125674D01*
X9453516Y-12325674D02*
X9463039Y-12316150D01*
X9463039Y-12316150D02*
X9482087Y-12287579D01*
X9482087Y-12287579D02*
X9491611Y-12268531D01*
X9491611Y-12268531D02*
X9501135Y-12239960D01*
X9501135Y-12239960D02*
X9510658Y-12192341D01*
X9510658Y-12192341D02*
X9510658Y-12154246D01*
X9510658Y-12154246D02*
X9501135Y-12106627D01*
X9501135Y-12106627D02*
X9491611Y-12078055D01*
X9491611Y-12078055D02*
X9482087Y-12059008D01*
X9482087Y-12059008D02*
X9463039Y-12030436D01*
X9463039Y-12030436D02*
X9453516Y-12020912D01*
M02*
