%TF.GenerationSoftware,KiCad,Pcbnew,8.0.4-8.0.4-0~ubuntu24.04.1*%
%TF.CreationDate,2024-08-09T13:50:06+02:00*%
%TF.ProjectId,MainBoard,4d61696e-426f-4617-9264-2e6b69636164,rev?*%
%TF.SameCoordinates,Original*%
%TF.FileFunction,Copper,L1,Top*%
%TF.FilePolarity,Positive*%
%FSLAX46Y46*%
G04 Gerber Fmt 4.6, Leading zero omitted, Abs format (unit mm)*
G04 Created by KiCad (PCBNEW 8.0.4-8.0.4-0~ubuntu24.04.1) date 2024-08-09 13:50:06*
%MOMM*%
%LPD*%
G01*
G04 APERTURE LIST*
%TA.AperFunction,SMDPad,CuDef*%
%ADD10R,0.740000X2.920000*%
%TD*%
%TA.AperFunction,ViaPad*%
%ADD11C,0.685800*%
%TD*%
%TA.AperFunction,Conductor*%
%ADD12C,0.254000*%
%TD*%
%TA.AperFunction,Conductor*%
%ADD13C,0.290000*%
%TD*%
G04 APERTURE END LIST*
D10*
X46610000Y-93395000D03*
X46610000Y-96825000D03*
X45340000Y-93395000D03*
X45340000Y-96825000D03*
X44070000Y-93395000D03*
X44070000Y-96825000D03*
X42800000Y-93395000D03*
X42800000Y-96825000D03*
X41530000Y-93395000D03*
X41530000Y-96825000D03*
X40260000Y-93395000D03*
X40260000Y-96825000D03*
X38990000Y-93395000D03*
X38990000Y-96825000D03*
X37720000Y-93395000D03*
X37720000Y-96825000D03*
X36450000Y-93395000D03*
X36450000Y-96825000D03*
X35180000Y-93395000D03*
X35180000Y-96825000D03*
X146610000Y-93395000D03*
X146610000Y-96825000D03*
X145340000Y-93395000D03*
X145340000Y-96825000D03*
X144070000Y-93395000D03*
X144070000Y-96825000D03*
X142800000Y-93395000D03*
X142800000Y-96825000D03*
X141530000Y-93395000D03*
X141530000Y-96825000D03*
X140260000Y-93395000D03*
X140260000Y-96825000D03*
X138990000Y-93395000D03*
X138990000Y-96825000D03*
X137720000Y-93395000D03*
X137720000Y-96825000D03*
X136450000Y-93395000D03*
X136450000Y-96825000D03*
X135180000Y-93395000D03*
X135180000Y-96825000D03*
X149785000Y-66785000D03*
X149785000Y-70215000D03*
X148515000Y-66785000D03*
X148515000Y-70215000D03*
X147245000Y-66785000D03*
X147245000Y-70215000D03*
X145975000Y-66785000D03*
X145975000Y-70215000D03*
X144705000Y-66785000D03*
X144705000Y-70215000D03*
X143435000Y-66785000D03*
X143435000Y-70215000D03*
X142165000Y-66785000D03*
X142165000Y-70215000D03*
X140895000Y-66785000D03*
X140895000Y-70215000D03*
X139625000Y-66785000D03*
X139625000Y-70215000D03*
X138355000Y-66785000D03*
X138355000Y-70215000D03*
X137085000Y-66785000D03*
X137085000Y-70215000D03*
X135815000Y-66785000D03*
X135815000Y-70215000D03*
X134545000Y-66785000D03*
X134545000Y-70215000D03*
X133275000Y-66785000D03*
X133275000Y-70215000D03*
X132005000Y-66785000D03*
X132005000Y-70215000D03*
X49785000Y-66785000D03*
X49785000Y-70215000D03*
X48515000Y-66785000D03*
X48515000Y-70215000D03*
X47245000Y-66785000D03*
X47245000Y-70215000D03*
X45975000Y-66785000D03*
X45975000Y-70215000D03*
X44705000Y-66785000D03*
X44705000Y-70215000D03*
X43435000Y-66785000D03*
X43435000Y-70215000D03*
X42165000Y-66785000D03*
X42165000Y-70215000D03*
X40895000Y-66785000D03*
X40895000Y-70215000D03*
X39625000Y-66785000D03*
X39625000Y-70215000D03*
X38355000Y-66785000D03*
X38355000Y-70215000D03*
X37085000Y-66785000D03*
X37085000Y-70215000D03*
X35815000Y-66785000D03*
X35815000Y-70215000D03*
X34545000Y-66785000D03*
X34545000Y-70215000D03*
X33275000Y-66785000D03*
X33275000Y-70215000D03*
X32005000Y-66785000D03*
X32005000Y-70215000D03*
D11*
X49785000Y-73000000D03*
X35200000Y-90874000D03*
X35180000Y-99874000D03*
X37740000Y-90874000D03*
X32005000Y-73000000D03*
X149785000Y-73000000D03*
X132005000Y-73000000D03*
X135180000Y-99875000D03*
X135200000Y-90875000D03*
X142800000Y-90875000D03*
X112480000Y-106600000D03*
X102325000Y-106600000D03*
X44070000Y-90874000D03*
X144070000Y-90875000D03*
X138990000Y-90875000D03*
X42800000Y-90874000D03*
X108675000Y-106600000D03*
X38990000Y-90874000D03*
X103595000Y-106600000D03*
X99779293Y-106599293D03*
X98510000Y-106600000D03*
X104865000Y-106600000D03*
X141530000Y-90875000D03*
X140260000Y-90875000D03*
X137720000Y-90875000D03*
X40260000Y-90874000D03*
X41530000Y-90874000D03*
X36450000Y-90874000D03*
X93435000Y-53500000D03*
X94705000Y-53500000D03*
X92155000Y-53500000D03*
X95975000Y-53500000D03*
X108675000Y-53500000D03*
X75655000Y-53500000D03*
X89625000Y-53500000D03*
X104865000Y-53500000D03*
X76925000Y-53500000D03*
X102325000Y-53500000D03*
X107385000Y-53500000D03*
X83275000Y-53500000D03*
X74395000Y-53500000D03*
X88335000Y-53500000D03*
X101056000Y-53500000D03*
X80735000Y-53500000D03*
X99785000Y-53500000D03*
X98515000Y-53500000D03*
X85815000Y-53500000D03*
X79465000Y-53500000D03*
X73115000Y-53500000D03*
X87085000Y-53500000D03*
X106135000Y-53500000D03*
X82006000Y-53500000D03*
X145340000Y-90875000D03*
X146610000Y-90875000D03*
X46610000Y-90874000D03*
X45340000Y-90874000D03*
D12*
X33275000Y-70215000D02*
X32005000Y-70215000D01*
X37720000Y-90894000D02*
X37740000Y-90874000D01*
X132005000Y-73000000D02*
X132005000Y-70215000D01*
X49785000Y-70215000D02*
X49785000Y-73000000D01*
X135180000Y-93395000D02*
X135180000Y-90895000D01*
X132005000Y-70215000D02*
X149785000Y-70215000D01*
X33275000Y-70215000D02*
X49785000Y-70215000D01*
X35180000Y-96825000D02*
X35180000Y-99874000D01*
X37720000Y-93395000D02*
X37720000Y-90894000D01*
X135180000Y-90895000D02*
X135200000Y-90875000D01*
X32005000Y-70215000D02*
X32005000Y-73000000D01*
X35180000Y-93395000D02*
X35180000Y-90894000D01*
X149785000Y-70215000D02*
X149785000Y-73000000D01*
X35180000Y-90894000D02*
X35200000Y-90874000D01*
X135180000Y-96825000D02*
X135180000Y-99875000D01*
X142800000Y-90875000D02*
X142800000Y-93395000D01*
X129491450Y-106075000D02*
X129491450Y-105332714D01*
X125291450Y-105332714D02*
X125291450Y-105835000D01*
X133450000Y-106075000D02*
X134800000Y-106075000D01*
X44981000Y-99656000D02*
X95381000Y-99656000D01*
X127691450Y-106075000D02*
X127691450Y-106817286D01*
X127931450Y-107057286D02*
X128051450Y-107057286D01*
X96282133Y-100896544D02*
X96267991Y-100910686D01*
X134800000Y-106075000D02*
X141600000Y-99275000D01*
X129491450Y-106817286D02*
X129491450Y-106075000D01*
X125891450Y-106075000D02*
X125891450Y-105332714D01*
X115000000Y-105275000D02*
X121000000Y-105275000D01*
X130331450Y-107057286D02*
X130451450Y-107057286D01*
X96267991Y-101250098D02*
X96352843Y-101334950D01*
X131291450Y-106075000D02*
X131291450Y-106817286D01*
X125891450Y-106817286D02*
X125891450Y-106075000D01*
X126491450Y-105332714D02*
X126491450Y-106075000D01*
X125291450Y-106075000D02*
X125291450Y-106817286D01*
X96692255Y-101334950D02*
X96706397Y-101320807D01*
X127091450Y-106817286D02*
X127091450Y-106075000D01*
X130931450Y-105092691D02*
X131051450Y-105092691D01*
X124691450Y-105835000D02*
X124691450Y-105332714D01*
X132731450Y-106075000D02*
X132851450Y-106075000D01*
X96550836Y-100118729D02*
X96635688Y-100203581D01*
X128291450Y-106075000D02*
X128291450Y-105332714D01*
X124931450Y-105092714D02*
X125051450Y-105092714D01*
X130091450Y-105332714D02*
X130091450Y-106075000D01*
X131891450Y-106817286D02*
X131891450Y-106075000D01*
X128891450Y-105332714D02*
X128891450Y-106075000D01*
X121000000Y-105275000D02*
X121800000Y-106075000D01*
X96621544Y-100557134D02*
X96451839Y-100726839D01*
X130091450Y-106075000D02*
X130091450Y-106817286D01*
X97045808Y-101320807D02*
X97130661Y-101405661D01*
X130691450Y-106075000D02*
X130691450Y-105332691D01*
X131291450Y-105332691D02*
X131291450Y-106075000D01*
X128891450Y-106075000D02*
X128891450Y-106817286D01*
X97445891Y-101720891D02*
X102325000Y-106600000D01*
X128291450Y-106817286D02*
X128291450Y-106075000D01*
X127091450Y-106075000D02*
X127091450Y-105332714D01*
X144070000Y-98605000D02*
X144070000Y-96825000D01*
X132131450Y-105092691D02*
X132251450Y-105092691D01*
X44070000Y-98745000D02*
X44981000Y-99656000D01*
X131891450Y-105835000D02*
X131891450Y-105332691D01*
X44070000Y-96825000D02*
X44070000Y-98745000D01*
X131531450Y-107057286D02*
X131651450Y-107057286D01*
X121800000Y-106075000D02*
X124451450Y-106075000D01*
X127691450Y-105332714D02*
X127691450Y-106075000D01*
X129131450Y-107057286D02*
X129251450Y-107057286D01*
X97130661Y-101405661D02*
X97445891Y-101720891D01*
X125531450Y-107057286D02*
X125651450Y-107057286D01*
X126491450Y-106075000D02*
X126491450Y-106817286D01*
X96451839Y-100726839D02*
X96282133Y-100896544D01*
X127331450Y-105092714D02*
X127451450Y-105092714D01*
X126131450Y-105092714D02*
X126251450Y-105092714D01*
X95381000Y-99656000D02*
X95857871Y-100132871D01*
X96197283Y-100132872D02*
X96211424Y-100118728D01*
X112480000Y-106600000D02*
X113675000Y-106600000D01*
X129731450Y-105092714D02*
X129851450Y-105092714D01*
X141600000Y-99275000D02*
X143400000Y-99275000D01*
X113675000Y-106600000D02*
X115000000Y-105275000D01*
X131891450Y-106075000D02*
X131891450Y-105835000D01*
X128531450Y-105092714D02*
X128651450Y-105092714D01*
X132851450Y-106075000D02*
X133450000Y-106075000D01*
X143400000Y-99275000D02*
X144070000Y-98605000D01*
X126731450Y-107057286D02*
X126851450Y-107057286D01*
X125291450Y-105835000D02*
X125291450Y-106075000D01*
X96635688Y-100542993D02*
X96621544Y-100557134D01*
X132491450Y-105332691D02*
X132491450Y-105835000D01*
X130691450Y-106817286D02*
X130691450Y-106075000D01*
X96267991Y-100910686D02*
G75*
G03*
X96267983Y-101250106I169709J-169714D01*
G01*
X129851450Y-105092714D02*
G75*
G02*
X130091486Y-105332714I50J-239986D01*
G01*
X130091450Y-106817286D02*
G75*
G03*
X130331450Y-107057250I239950J-14D01*
G01*
X125291450Y-106817286D02*
G75*
G03*
X125531450Y-107057250I239950J-14D01*
G01*
X96635688Y-100203581D02*
G75*
G02*
X96635701Y-100543006I-169688J-169719D01*
G01*
X124691450Y-105332714D02*
G75*
G02*
X124931450Y-105092750I239950J14D01*
G01*
X96211424Y-100118728D02*
G75*
G02*
X96550806Y-100118758I169676J-169672D01*
G01*
X125891450Y-105332714D02*
G75*
G02*
X126131450Y-105092750I239950J14D01*
G01*
X131651450Y-107057286D02*
G75*
G03*
X131891486Y-106817286I50J239986D01*
G01*
X125651450Y-107057286D02*
G75*
G03*
X125891486Y-106817286I50J239986D01*
G01*
X132491450Y-105835000D02*
G75*
G03*
X132731450Y-106074950I239950J0D01*
G01*
X128291450Y-105332714D02*
G75*
G02*
X128531450Y-105092750I239950J14D01*
G01*
X131891450Y-105332691D02*
G75*
G02*
X132131450Y-105092750I239950J-9D01*
G01*
X131051450Y-105092691D02*
G75*
G02*
X131291509Y-105332691I50J-240009D01*
G01*
X124451450Y-106075000D02*
G75*
G03*
X124691500Y-105835000I50J240000D01*
G01*
X127451450Y-105092714D02*
G75*
G02*
X127691486Y-105332714I50J-239986D01*
G01*
X129251450Y-107057286D02*
G75*
G03*
X129491486Y-106817286I50J239986D01*
G01*
X128051450Y-107057286D02*
G75*
G03*
X128291486Y-106817286I50J239986D01*
G01*
X126491450Y-106817286D02*
G75*
G03*
X126731450Y-107057250I239950J-14D01*
G01*
X95857871Y-100132871D02*
G75*
G03*
X96197306Y-100132895I169729J169671D01*
G01*
X96352843Y-101334950D02*
G75*
G03*
X96692255Y-101334950I169706J169704D01*
G01*
X127691450Y-106817286D02*
G75*
G03*
X127931450Y-107057250I239950J-14D01*
G01*
X130451450Y-107057286D02*
G75*
G03*
X130691486Y-106817286I50J239986D01*
G01*
X128651450Y-105092714D02*
G75*
G02*
X128891486Y-105332714I50J-239986D01*
G01*
X127091450Y-105332714D02*
G75*
G02*
X127331450Y-105092750I239950J14D01*
G01*
X130691450Y-105332691D02*
G75*
G02*
X130931450Y-105092750I239950J-9D01*
G01*
X131291450Y-106817286D02*
G75*
G03*
X131531450Y-107057250I239950J-14D01*
G01*
X132251450Y-105092691D02*
G75*
G02*
X132491509Y-105332691I50J-240009D01*
G01*
X126251450Y-105092714D02*
G75*
G02*
X126491486Y-105332714I50J-239986D01*
G01*
X128891450Y-106817286D02*
G75*
G03*
X129131450Y-107057250I239950J-14D01*
G01*
X125051450Y-105092714D02*
G75*
G02*
X125291486Y-105332714I50J-239986D01*
G01*
X126851450Y-107057286D02*
G75*
G03*
X127091486Y-106817286I50J239986D01*
G01*
X96706397Y-101320807D02*
G75*
G02*
X97045808Y-101320806I169706J-169707D01*
G01*
X129491450Y-105332714D02*
G75*
G02*
X129731450Y-105092750I239950J14D01*
G01*
X44070000Y-90874000D02*
X44070000Y-93395000D01*
X144070000Y-90875000D02*
X144070000Y-93395000D01*
X138990000Y-90875000D02*
X138990000Y-93395000D01*
X42800000Y-90874000D02*
X42800000Y-93395000D01*
X113940000Y-103315000D02*
X113940000Y-104075000D01*
X119340000Y-104075000D02*
X119340000Y-103315000D01*
X116940000Y-104075000D02*
X116940000Y-103315000D01*
X120540000Y-104635000D02*
X120540000Y-104075000D01*
X118140000Y-104635000D02*
X118140000Y-104075000D01*
X119940000Y-103315000D02*
X119940000Y-104075000D01*
X114540000Y-104075000D02*
X114540000Y-103315000D01*
X121380000Y-104075000D02*
X121500000Y-104075000D01*
X115740000Y-104075000D02*
X115740000Y-103315000D01*
X136000000Y-104075000D02*
X141200000Y-98875000D01*
X114540000Y-104835000D02*
X114540000Y-104075000D01*
X117540000Y-104075000D02*
X117540000Y-104635000D01*
X119580000Y-103075000D02*
X119700000Y-103075000D01*
X112740000Y-103315000D02*
X112740000Y-103835000D01*
X114180000Y-105075000D02*
X114300000Y-105075000D01*
X108675000Y-106600000D02*
X111200000Y-104075000D01*
X120180000Y-104875000D02*
X120300000Y-104875000D01*
X116340000Y-104075000D02*
X116340000Y-104635000D01*
X119940000Y-104075000D02*
X119940000Y-104635000D01*
X116340000Y-103315000D02*
X116340000Y-104075000D01*
X112980000Y-105075000D02*
X113100000Y-105075000D01*
X116940000Y-104635000D02*
X116940000Y-104075000D01*
X114780000Y-103075000D02*
X114900000Y-103075000D01*
X120540000Y-104075000D02*
X120540000Y-103835000D01*
X142019000Y-98875000D02*
X142800000Y-98094000D01*
X121500000Y-104075000D02*
X122000000Y-104075000D01*
X118980000Y-104875000D02*
X119100000Y-104875000D01*
X115140000Y-104075000D02*
X115140000Y-104635000D01*
X118380000Y-103075000D02*
X118500000Y-103075000D01*
X142800000Y-98094000D02*
X142800000Y-96825000D01*
X116580000Y-104875000D02*
X116700000Y-104875000D01*
X112140000Y-103835000D02*
X112140000Y-103315000D01*
X118140000Y-104075000D02*
X118140000Y-103315000D01*
X111200000Y-104075000D02*
X111900000Y-104075000D01*
X120540000Y-103835000D02*
X120540000Y-103315000D01*
X119340000Y-104635000D02*
X119340000Y-104075000D01*
X113940000Y-104075000D02*
X113940000Y-104835000D01*
X121140000Y-103315000D02*
X121140000Y-103835000D01*
X117780000Y-104875000D02*
X117900000Y-104875000D01*
X122000000Y-104075000D02*
X136000000Y-104075000D01*
X115980000Y-103075000D02*
X116100000Y-103075000D01*
X141200000Y-98875000D02*
X142019000Y-98875000D01*
X115380000Y-104875000D02*
X115500000Y-104875000D01*
X115740000Y-104635000D02*
X115740000Y-104075000D01*
X117180000Y-103075000D02*
X117300000Y-103075000D01*
X113340000Y-104075000D02*
X113340000Y-103315000D01*
X113340000Y-104835000D02*
X113340000Y-104075000D01*
X117540000Y-103315000D02*
X117540000Y-104075000D01*
X118740000Y-104075000D02*
X118740000Y-104635000D01*
X120780000Y-103075000D02*
X120900000Y-103075000D01*
X112740000Y-103835000D02*
X112740000Y-104075000D01*
X113580000Y-103075000D02*
X113700000Y-103075000D01*
X118740000Y-103315000D02*
X118740000Y-104075000D01*
X115140000Y-103315000D02*
X115140000Y-104075000D01*
X112740000Y-104075000D02*
X112740000Y-104835000D01*
X112380000Y-103075000D02*
X112500000Y-103075000D01*
X117300000Y-103075000D02*
G75*
G02*
X117540000Y-103315000I0J-240000D01*
G01*
X116940000Y-103315000D02*
G75*
G02*
X117180000Y-103075000I240000J0D01*
G01*
X113340000Y-103315000D02*
G75*
G02*
X113580000Y-103075000I240000J0D01*
G01*
X113100000Y-105075000D02*
G75*
G03*
X113340000Y-104835000I0J240000D01*
G01*
X117540000Y-104635000D02*
G75*
G03*
X117780000Y-104875000I240000J0D01*
G01*
X119700000Y-103075000D02*
G75*
G02*
X119940000Y-103315000I0J-240000D01*
G01*
X113700000Y-103075000D02*
G75*
G02*
X113940000Y-103315000I0J-240000D01*
G01*
X120540000Y-103315000D02*
G75*
G02*
X120780000Y-103075000I240000J0D01*
G01*
X116700000Y-104875000D02*
G75*
G03*
X116940000Y-104635000I0J240000D01*
G01*
X111900000Y-104075000D02*
G75*
G03*
X112140000Y-103835000I0J240000D01*
G01*
X115140000Y-104635000D02*
G75*
G03*
X115380000Y-104875000I240000J0D01*
G01*
X119100000Y-104875000D02*
G75*
G03*
X119340000Y-104635000I0J240000D01*
G01*
X116100000Y-103075000D02*
G75*
G02*
X116340000Y-103315000I0J-240000D01*
G01*
X118740000Y-104635000D02*
G75*
G03*
X118980000Y-104875000I240000J0D01*
G01*
X115740000Y-103315000D02*
G75*
G02*
X115980000Y-103075000I240000J0D01*
G01*
X113940000Y-104835000D02*
G75*
G03*
X114180000Y-105075000I240000J0D01*
G01*
X118500000Y-103075000D02*
G75*
G02*
X118740000Y-103315000I0J-240000D01*
G01*
X114540000Y-103315000D02*
G75*
G02*
X114780000Y-103075000I240000J0D01*
G01*
X120300000Y-104875000D02*
G75*
G03*
X120540000Y-104635000I0J240000D01*
G01*
X112140000Y-103315000D02*
G75*
G02*
X112380000Y-103075000I240000J0D01*
G01*
X112500000Y-103075000D02*
G75*
G02*
X112740000Y-103315000I0J-240000D01*
G01*
X114300000Y-105075000D02*
G75*
G03*
X114540000Y-104835000I0J240000D01*
G01*
X119940000Y-104635000D02*
G75*
G03*
X120180000Y-104875000I240000J0D01*
G01*
X120900000Y-103075000D02*
G75*
G02*
X121140000Y-103315000I0J-240000D01*
G01*
X121140000Y-103835000D02*
G75*
G03*
X121380000Y-104075000I240000J0D01*
G01*
X118140000Y-103315000D02*
G75*
G02*
X118380000Y-103075000I240000J0D01*
G01*
X117900000Y-104875000D02*
G75*
G03*
X118140000Y-104635000I0J240000D01*
G01*
X112740000Y-104835000D02*
G75*
G03*
X112980000Y-105075000I240000J0D01*
G01*
X116340000Y-104635000D02*
G75*
G03*
X116580000Y-104875000I240000J0D01*
G01*
X114900000Y-103075000D02*
G75*
G02*
X115140000Y-103315000I0J-240000D01*
G01*
X115500000Y-104875000D02*
G75*
G03*
X115740000Y-104635000I0J240000D01*
G01*
X119340000Y-103315000D02*
G75*
G02*
X119580000Y-103075000I240000J0D01*
G01*
X38990000Y-90874000D02*
X38990000Y-93395000D01*
X115454411Y-107585000D02*
X115454411Y-107825000D01*
X116054411Y-107825000D02*
X116054411Y-107065000D01*
X118454411Y-108050000D02*
X118454411Y-107825000D01*
X99517985Y-102522985D02*
X99957640Y-102962640D01*
X104820000Y-107825000D02*
X114614411Y-107825000D01*
X142200000Y-99675000D02*
X144400000Y-99675000D01*
X99008869Y-101674458D02*
X99023010Y-101660314D01*
X120000000Y-107825000D02*
X134050000Y-107825000D01*
X144400000Y-99675000D02*
X145340000Y-98735000D01*
X117854411Y-107825000D02*
X117854411Y-108050000D01*
X118454411Y-107825000D02*
X118454411Y-107585000D01*
X119414411Y-107825000D02*
X120000000Y-107825000D01*
X96270000Y-99275000D02*
X98669457Y-101674457D01*
X115454411Y-107065000D02*
X115454411Y-107585000D01*
X115679411Y-108275000D02*
X115829411Y-108275000D01*
X99957640Y-102962640D02*
X103595000Y-106600000D01*
X119054411Y-107065000D02*
X119054411Y-107585000D01*
X103595000Y-106600000D02*
X104820000Y-107825000D01*
X117254411Y-108050000D02*
X117254411Y-107825000D01*
X118079411Y-108275000D02*
X118229411Y-108275000D01*
X99362422Y-101660315D02*
X99447274Y-101745167D01*
X46600000Y-99275000D02*
X96270000Y-99275000D01*
X117254411Y-107825000D02*
X117254411Y-107065000D01*
X118694411Y-106825000D02*
X118814411Y-106825000D01*
X116879411Y-108275000D02*
X117029411Y-108275000D01*
X116654411Y-107825000D02*
X116654411Y-108050000D01*
X115454411Y-107825000D02*
X115454411Y-108050000D01*
X114854411Y-107585000D02*
X114854411Y-107065000D01*
X99433131Y-102438132D02*
X99517985Y-102522985D01*
X99447274Y-102084579D02*
X99433130Y-102098720D01*
X115094411Y-106825000D02*
X115214411Y-106825000D01*
X45340000Y-96825000D02*
X45340000Y-98015000D01*
X134050000Y-107825000D02*
X142200000Y-99675000D01*
X118454411Y-107585000D02*
X118454411Y-107065000D01*
X145340000Y-98735000D02*
X145340000Y-96825000D01*
X116054411Y-108050000D02*
X116054411Y-107825000D01*
X117494411Y-106825000D02*
X117614411Y-106825000D01*
X45340000Y-98015000D02*
X46600000Y-99275000D01*
X116654411Y-107065000D02*
X116654411Y-107825000D01*
X117854411Y-107065000D02*
X117854411Y-107825000D01*
X119294411Y-107825000D02*
X119414411Y-107825000D01*
X116294411Y-106825000D02*
X116414411Y-106825000D01*
X114854411Y-107065000D02*
G75*
G02*
X115094411Y-106825011I239989J0D01*
G01*
X99433130Y-102098720D02*
G75*
G03*
X99433156Y-102438106I169670J-169680D01*
G01*
X99023010Y-101660314D02*
G75*
G02*
X99362406Y-101660330I169690J-169686D01*
G01*
X118814411Y-106825000D02*
G75*
G02*
X119054400Y-107065000I-11J-240000D01*
G01*
X116414411Y-106825000D02*
G75*
G02*
X116654400Y-107065000I-11J-240000D01*
G01*
X115829411Y-108275000D02*
G75*
G03*
X116054400Y-108050000I-11J225000D01*
G01*
X116654411Y-108050000D02*
G75*
G03*
X116879411Y-108274989I224989J0D01*
G01*
X118454411Y-107065000D02*
G75*
G02*
X118694411Y-106825011I239989J0D01*
G01*
X117254411Y-107065000D02*
G75*
G02*
X117494411Y-106825011I239989J0D01*
G01*
X116054411Y-107065000D02*
G75*
G02*
X116294411Y-106825011I239989J0D01*
G01*
X119054411Y-107585000D02*
G75*
G03*
X119294411Y-107824989I239989J0D01*
G01*
X117854411Y-108050000D02*
G75*
G03*
X118079411Y-108274989I224989J0D01*
G01*
X114614411Y-107825000D02*
G75*
G03*
X114854400Y-107585000I-11J240000D01*
G01*
X99447274Y-101745167D02*
G75*
G02*
X99447301Y-102084606I-169674J-169733D01*
G01*
X115454411Y-108050000D02*
G75*
G03*
X115679411Y-108274989I224989J0D01*
G01*
X117029411Y-108275000D02*
G75*
G03*
X117254400Y-108050000I-11J225000D01*
G01*
X117614411Y-106825000D02*
G75*
G02*
X117854400Y-107065000I-11J-240000D01*
G01*
X98669457Y-101674457D02*
G75*
G03*
X99008905Y-101674495I169743J169757D01*
G01*
X118229411Y-108275000D02*
G75*
G03*
X118454400Y-108050000I-11J225000D01*
G01*
X115214411Y-106825000D02*
G75*
G02*
X115454400Y-107065000I-11J-240000D01*
G01*
X93260000Y-100075000D02*
X44336000Y-100075000D01*
X94630000Y-101445000D02*
X93260000Y-100075000D01*
X96813230Y-104966781D02*
X96728377Y-104881928D01*
X44336000Y-100075000D02*
X42800000Y-98539000D01*
X96124861Y-102939861D02*
X94630000Y-101445000D01*
X96728377Y-104542516D02*
X97058241Y-104212653D01*
X95879842Y-103693996D02*
X96209712Y-103364123D01*
X42800000Y-98539000D02*
X42800000Y-96825000D01*
X99785000Y-106600000D02*
X97821919Y-104636919D01*
X97058241Y-103873241D02*
X96973390Y-103788390D01*
X96633978Y-103788390D02*
X96304105Y-104118260D01*
X96209713Y-103024713D02*
X96124861Y-102939861D01*
X95964695Y-104118261D02*
X95879842Y-104033408D01*
X97482507Y-104636919D02*
X97152642Y-104966781D01*
X97058241Y-104212653D02*
G75*
G03*
X97058288Y-103873194I-169741J169753D01*
G01*
X96304105Y-104118260D02*
G75*
G02*
X95964695Y-104118261I-169705J169660D01*
G01*
X96973390Y-103788390D02*
G75*
G03*
X96633978Y-103788390I-169706J-169701D01*
G01*
X95879842Y-104033408D02*
G75*
G02*
X95879840Y-103693994I169658J169708D01*
G01*
X97821919Y-104636919D02*
G75*
G03*
X97482507Y-104636919I-169706J-169701D01*
G01*
X97152642Y-104966781D02*
G75*
G02*
X96813230Y-104966781I-169706J169701D01*
G01*
X96728377Y-104881928D02*
G75*
G02*
X96728355Y-104542494I169723J169728D01*
G01*
X96209712Y-103364123D02*
G75*
G03*
X96209731Y-103024696I-169712J169723D01*
G01*
X95090000Y-96825000D02*
X104865000Y-106600000D01*
X142600000Y-100075000D02*
X145600000Y-100075000D01*
X133975000Y-108700000D02*
X142600000Y-100075000D01*
X98510000Y-107020000D02*
X100190000Y-108700000D01*
X146610000Y-99065000D02*
X146610000Y-96825000D01*
X100190000Y-108700000D02*
X133975000Y-108700000D01*
X145600000Y-100075000D02*
X146610000Y-99065000D01*
X46610000Y-96825000D02*
X95090000Y-96825000D01*
X98510000Y-106600000D02*
X98510000Y-107020000D01*
X141530000Y-90875000D02*
X141530000Y-93395000D01*
X140260000Y-90875000D02*
X140260000Y-93395000D01*
X137720000Y-90875000D02*
X137720000Y-93395000D01*
X40260000Y-90874000D02*
X40260000Y-93395000D01*
X41530000Y-90874000D02*
X41530000Y-93395000D01*
X36450000Y-93395000D02*
X36450000Y-90874000D01*
D13*
X94677965Y-51670000D02*
X93435000Y-52912965D01*
X132028136Y-52363707D02*
X131908136Y-52363707D01*
X130468136Y-52123685D02*
X130468136Y-51910000D01*
X147245000Y-66785000D02*
X147245000Y-64594999D01*
X132268136Y-51910000D02*
X132268136Y-52123707D01*
X131068136Y-51910000D02*
X131068136Y-52123685D01*
X130228136Y-51670000D02*
X130108136Y-51670000D01*
X131428136Y-51670000D02*
X131308136Y-51670000D01*
X131668136Y-52123707D02*
X131668136Y-51910000D01*
X147245000Y-64594999D02*
X147635000Y-64204999D01*
X130828136Y-52363685D02*
X130708136Y-52363685D01*
X130108136Y-51670000D02*
X127850000Y-51670000D01*
X147635000Y-64204999D02*
X147635000Y-61256484D01*
X147635000Y-61256484D02*
X138048516Y-51670000D01*
X93435000Y-52912965D02*
X93435000Y-53500000D01*
X127850000Y-51670000D02*
X94677965Y-51670000D01*
X138048516Y-51670000D02*
X132508136Y-51670000D01*
X130468136Y-51910000D02*
G75*
G03*
X130228136Y-51669964I-240036J0D01*
G01*
X131908136Y-52363707D02*
G75*
G02*
X131668093Y-52123707I-36J240007D01*
G01*
X131308136Y-51670000D02*
G75*
G03*
X131068100Y-51910000I-36J-240000D01*
G01*
X131668136Y-51910000D02*
G75*
G03*
X131428136Y-51669964I-240036J0D01*
G01*
X131068136Y-52123685D02*
G75*
G02*
X130828136Y-52363736I-240036J-15D01*
G01*
X132508136Y-51670000D02*
G75*
G03*
X132268100Y-51910000I-36J-240000D01*
G01*
X130708136Y-52363685D02*
G75*
G02*
X130468115Y-52123685I-36J239985D01*
G01*
X132268136Y-52123707D02*
G75*
G02*
X132028136Y-52363736I-240036J7D01*
G01*
X100758908Y-62077751D02*
X101022986Y-61813672D01*
X95462668Y-57693701D02*
X95604089Y-57835122D01*
X111946485Y-63198450D02*
X111946485Y-62825000D01*
X111101484Y-63843451D02*
X111301484Y-63843451D01*
X94705000Y-53500000D02*
X95095000Y-53890000D01*
X101242188Y-61813672D02*
X101383610Y-61955094D01*
X98555184Y-59345869D02*
X98291094Y-59609958D01*
X104101484Y-62670001D02*
X104301484Y-62670001D01*
X99705318Y-61936330D02*
X99846739Y-62077751D01*
X97930471Y-59249335D02*
X98194560Y-58985245D01*
X99969397Y-60540881D02*
X99969397Y-60540880D01*
X98413762Y-58985245D02*
X98555184Y-59126668D01*
X95095000Y-53890000D02*
X95095000Y-55666484D01*
X118750000Y-62670000D02*
X132898516Y-62670000D01*
X105946485Y-63198450D02*
X105946485Y-62825000D01*
X109946485Y-63198450D02*
X109946485Y-62825000D01*
X134935000Y-64706484D02*
X134935000Y-65305000D01*
X96516258Y-57835122D02*
X96780347Y-57571032D01*
X102456483Y-62825000D02*
X102456483Y-63198450D01*
X109101484Y-63843451D02*
X109301484Y-63843451D01*
X107946485Y-63198450D02*
X107946485Y-62825000D01*
X105101484Y-63843451D02*
X105301484Y-63843451D01*
X108456483Y-62825000D02*
X108456483Y-63198450D01*
X103101484Y-63843451D02*
X103301484Y-63843451D01*
X96999549Y-57571032D02*
X97140971Y-57712455D01*
X96876881Y-59107914D02*
X97018302Y-59249335D01*
X134545000Y-65695000D02*
X134545000Y-66785000D01*
X95726758Y-56298242D02*
X95726758Y-56298241D01*
X101383610Y-61955094D02*
X102098516Y-62670000D01*
X95726758Y-56517443D02*
X95462668Y-56781532D01*
X112301484Y-62670001D02*
X118750000Y-62670000D01*
X107101484Y-63843451D02*
X107301484Y-63843451D01*
X112101484Y-62670001D02*
X112301484Y-62670001D01*
X102098516Y-62670000D02*
X102301484Y-62670001D01*
X110456483Y-62825000D02*
X110456483Y-63198450D01*
X104456483Y-62825000D02*
X104456483Y-63198450D01*
X103946485Y-63198450D02*
X103946485Y-62825000D01*
X98555184Y-59126668D02*
X98555184Y-59126667D01*
X97140971Y-57931656D02*
X96876881Y-58195745D01*
X99827975Y-60399458D02*
X99969397Y-60540881D01*
X99344684Y-60663548D02*
X99608773Y-60399458D01*
X134935000Y-65305000D02*
X134545000Y-65695000D01*
X132898516Y-62670000D02*
X134935000Y-64706484D01*
X106456483Y-62825000D02*
X106456483Y-63198450D01*
X106101484Y-62670001D02*
X106301484Y-62670001D01*
X108101484Y-62670001D02*
X108301484Y-62670001D01*
X98291094Y-60522127D02*
X98432515Y-60663548D01*
X97140971Y-57712455D02*
X97140971Y-57712454D01*
X99969397Y-60760082D02*
X99705318Y-61024160D01*
X110101484Y-62670001D02*
X110301484Y-62670001D01*
X95095000Y-55666484D02*
X95726758Y-56298242D01*
X107301484Y-63843451D02*
G75*
G03*
X107946451Y-63198450I16J644951D01*
G01*
X102456483Y-63198450D02*
G75*
G03*
X103101484Y-63843517I645017J-50D01*
G01*
X96780347Y-57571032D02*
G75*
G02*
X96999549Y-57571032I109601J-109602D01*
G01*
X103946485Y-62825000D02*
G75*
G02*
X104101484Y-62669985I155015J0D01*
G01*
X98194560Y-58985245D02*
G75*
G02*
X98413762Y-58985245I109601J-109602D01*
G01*
X98432515Y-60663548D02*
G75*
G03*
X99344684Y-60663549I456085J456086D01*
G01*
X105301484Y-63843451D02*
G75*
G03*
X105946451Y-63198450I16J644951D01*
G01*
X106301484Y-62670001D02*
G75*
G02*
X106456499Y-62825000I16J-154999D01*
G01*
X111301484Y-63843451D02*
G75*
G03*
X111946451Y-63198450I16J644951D01*
G01*
X102301484Y-62670001D02*
G75*
G02*
X102456499Y-62825000I16J-154999D01*
G01*
X98555184Y-59126667D02*
G75*
G02*
X98555216Y-59345901I-109584J-109633D01*
G01*
X96876881Y-58195745D02*
G75*
G03*
X96876910Y-59107885I456119J-456055D01*
G01*
X108301484Y-62670001D02*
G75*
G02*
X108456499Y-62825000I16J-154999D01*
G01*
X109946485Y-62825000D02*
G75*
G02*
X110101484Y-62669985I155015J0D01*
G01*
X107946485Y-62825000D02*
G75*
G02*
X108101484Y-62669985I155015J0D01*
G01*
X111946485Y-62825000D02*
G75*
G02*
X112101484Y-62669985I155015J0D01*
G01*
X95462668Y-56781532D02*
G75*
G03*
X95462684Y-57693685I456132J-456068D01*
G01*
X105946485Y-62825000D02*
G75*
G02*
X106101484Y-62669985I155015J0D01*
G01*
X99846739Y-62077751D02*
G75*
G03*
X100758908Y-62077752I456085J456086D01*
G01*
X99969397Y-60540880D02*
G75*
G02*
X99969416Y-60760101I-109597J-109620D01*
G01*
X109301484Y-63843451D02*
G75*
G03*
X109946451Y-63198450I16J644951D01*
G01*
X99608773Y-60399458D02*
G75*
G02*
X99827975Y-60399458I109601J-109602D01*
G01*
X108456483Y-63198450D02*
G75*
G03*
X109101484Y-63843517I645017J-50D01*
G01*
X106456483Y-63198450D02*
G75*
G03*
X107101484Y-63843517I645017J-50D01*
G01*
X104301484Y-62670001D02*
G75*
G02*
X104456499Y-62825000I16J-154999D01*
G01*
X95726758Y-56298241D02*
G75*
G02*
X95726716Y-56517401I-109558J-109559D01*
G01*
X98291094Y-59609958D02*
G75*
G03*
X98291136Y-60522085I456106J-456042D01*
G01*
X110301484Y-62670001D02*
G75*
G02*
X110456499Y-62825000I16J-154999D01*
G01*
X104456483Y-63198450D02*
G75*
G03*
X105101484Y-63843517I645017J-50D01*
G01*
X110456483Y-63198450D02*
G75*
G03*
X111101484Y-63843517I645017J-50D01*
G01*
X97140971Y-57712454D02*
G75*
G02*
X97141016Y-57931701I-109571J-109646D01*
G01*
X101022986Y-61813672D02*
G75*
G02*
X101242188Y-61813672I109601J-109602D01*
G01*
X103301484Y-63843451D02*
G75*
G03*
X103946451Y-63198450I16J644951D01*
G01*
X95604089Y-57835122D02*
G75*
G03*
X96516258Y-57835123I456085J456086D01*
G01*
X97018302Y-59249335D02*
G75*
G03*
X97930471Y-59249336I456085J456086D01*
G01*
X99705318Y-61024160D02*
G75*
G03*
X99705363Y-61936285I456082J-456040D01*
G01*
X92155000Y-53500000D02*
X94475000Y-51180000D01*
X138251484Y-51180000D02*
X148125000Y-61053516D01*
X148125000Y-61053516D02*
X148125000Y-64204999D01*
X94475000Y-51180000D02*
X138251484Y-51180000D01*
X148125000Y-64204999D02*
X148515000Y-64594999D01*
X148515000Y-64594999D02*
X148515000Y-66785000D01*
X135425000Y-65305000D02*
X135815000Y-65695000D01*
X104101484Y-62179999D02*
X104301484Y-62179999D01*
X107456483Y-63198450D02*
X107456483Y-62825000D01*
X96169774Y-57488639D02*
X96433863Y-57224549D01*
X135815000Y-65695000D02*
X135815000Y-66785000D01*
X103456483Y-63198450D02*
X103456483Y-62825000D01*
X110101484Y-62179999D02*
X110301484Y-62179999D01*
X108101484Y-62179999D02*
X108301484Y-62179999D01*
X95809151Y-57347218D02*
X95950572Y-57488639D01*
X97583987Y-58902852D02*
X97848076Y-58638762D01*
X106946485Y-62825000D02*
X106946485Y-63198450D01*
X108946485Y-62825000D02*
X108946485Y-63198450D01*
X102946485Y-62825000D02*
X102946485Y-63198450D01*
X102301484Y-62180000D02*
X102301484Y-62179999D01*
X97223364Y-58761431D02*
X97364785Y-58902852D01*
X111101484Y-63353449D02*
X111301484Y-63353449D01*
X98901667Y-59692353D02*
X98637577Y-59956442D01*
X106101484Y-62179999D02*
X106301484Y-62179999D01*
X111456483Y-63198450D02*
X111456483Y-62825000D01*
X98998200Y-60317065D02*
X99262289Y-60052975D01*
X95585000Y-55463516D02*
X96073242Y-55951758D01*
X101730094Y-61608610D02*
X102301484Y-62180000D01*
X98760245Y-58638762D02*
X98901668Y-58780184D01*
X100315880Y-61106566D02*
X100051801Y-61370644D01*
X133101484Y-62180000D02*
X135425000Y-64503516D01*
X109101484Y-63353449D02*
X109301484Y-63353449D01*
X112101484Y-62179999D02*
X112301484Y-62179999D01*
X107101484Y-63353449D02*
X107301484Y-63353449D01*
X118750000Y-62180000D02*
X133101484Y-62180000D01*
X96073241Y-56863927D02*
X95809151Y-57128016D01*
X95585000Y-53890000D02*
X95585000Y-55463516D01*
X105101484Y-63353449D02*
X105301484Y-63353449D01*
X105456483Y-63198450D02*
X105456483Y-62825000D01*
X100315881Y-60194397D02*
X100315880Y-60194397D01*
X97487454Y-58278140D02*
X97223364Y-58542229D01*
X109456483Y-63198450D02*
X109456483Y-62825000D01*
X104946485Y-62825000D02*
X104946485Y-63198450D01*
X135425000Y-64503516D02*
X135425000Y-65305000D01*
X100051801Y-61589846D02*
X100193222Y-61731267D01*
X110946485Y-62825000D02*
X110946485Y-63198450D01*
X98901668Y-58780184D02*
X98901667Y-58780184D01*
X96073242Y-55951758D02*
X96073241Y-55951758D01*
X112301484Y-62179999D02*
X118750000Y-62180000D01*
X95975000Y-53500000D02*
X95585000Y-53890000D01*
X103101484Y-63353449D02*
X103301484Y-63353449D01*
X98637577Y-60175644D02*
X98778998Y-60317065D01*
X101588672Y-61467188D02*
X101730094Y-61608610D01*
X97487455Y-57365971D02*
X97487454Y-57365971D01*
X100412424Y-61731267D02*
X100676502Y-61467188D01*
X97346032Y-57224549D02*
X97487455Y-57365971D01*
X100174458Y-60052975D02*
X100315881Y-60194397D01*
X97223364Y-58542229D02*
G75*
G03*
X97223394Y-58761401I109636J-109571D01*
G01*
X95809151Y-57128016D02*
G75*
G03*
X95809168Y-57347201I109649J-109584D01*
G01*
X102946485Y-63198450D02*
G75*
G03*
X103101484Y-63353515I155015J-50D01*
G01*
X107456483Y-62825000D02*
G75*
G02*
X108101484Y-62179983I645017J0D01*
G01*
X100315880Y-60194397D02*
G75*
G02*
X100315899Y-61106584I-456080J-456103D01*
G01*
X108301484Y-62179999D02*
G75*
G02*
X108946501Y-62825000I16J-645001D01*
G01*
X110301484Y-62179999D02*
G75*
G02*
X110946501Y-62825000I16J-645001D01*
G01*
X100051801Y-61370644D02*
G75*
G03*
X100051846Y-61589801I109599J-109556D01*
G01*
X110946485Y-63198450D02*
G75*
G03*
X111101484Y-63353515I155015J-50D01*
G01*
X98778998Y-60317065D02*
G75*
G03*
X98998200Y-60317065I109601J109602D01*
G01*
X100193222Y-61731267D02*
G75*
G03*
X100412424Y-61731267I109601J109602D01*
G01*
X109301484Y-63353449D02*
G75*
G03*
X109456449Y-63198450I16J154949D01*
G01*
X111301484Y-63353449D02*
G75*
G03*
X111456449Y-63198450I16J154949D01*
G01*
X103456483Y-62825000D02*
G75*
G02*
X104101484Y-62179983I645017J0D01*
G01*
X97364785Y-58902852D02*
G75*
G03*
X97583987Y-58902852I109601J109602D01*
G01*
X103301484Y-63353449D02*
G75*
G03*
X103456449Y-63198450I16J154949D01*
G01*
X106946485Y-63198450D02*
G75*
G03*
X107101484Y-63353515I155015J-50D01*
G01*
X95950572Y-57488639D02*
G75*
G03*
X96169774Y-57488639I109601J109602D01*
G01*
X104301484Y-62179999D02*
G75*
G02*
X104946501Y-62825000I16J-645001D01*
G01*
X102301484Y-62179999D02*
G75*
G02*
X102946501Y-62825000I16J-645001D01*
G01*
X99262289Y-60052975D02*
G75*
G02*
X100174458Y-60052974I456085J-456086D01*
G01*
X97848076Y-58638762D02*
G75*
G02*
X98760245Y-58638761I456085J-456086D01*
G01*
X107301484Y-63353449D02*
G75*
G03*
X107456449Y-63198450I16J154949D01*
G01*
X108946485Y-63198450D02*
G75*
G03*
X109101484Y-63353515I155015J-50D01*
G01*
X96073241Y-55951758D02*
G75*
G02*
X96073199Y-56863884I-456041J-456042D01*
G01*
X105301484Y-63353449D02*
G75*
G03*
X105456449Y-63198450I16J154949D01*
G01*
X111456483Y-62825000D02*
G75*
G02*
X112101484Y-62179983I645017J0D01*
G01*
X104946485Y-63198450D02*
G75*
G03*
X105101484Y-63353515I155015J-50D01*
G01*
X105456483Y-62825000D02*
G75*
G02*
X106101484Y-62179983I645017J0D01*
G01*
X109456483Y-62825000D02*
G75*
G02*
X110101484Y-62179983I645017J0D01*
G01*
X96433863Y-57224549D02*
G75*
G02*
X97346032Y-57224549I456084J-456086D01*
G01*
X98637577Y-59956442D02*
G75*
G03*
X98637620Y-60175601I109623J-109558D01*
G01*
X97487454Y-57365971D02*
G75*
G02*
X97487499Y-58278185I-456054J-456129D01*
G01*
X106301484Y-62179999D02*
G75*
G02*
X106946501Y-62825000I16J-645001D01*
G01*
X98901667Y-58780184D02*
G75*
G02*
X98901699Y-59692385I-456067J-456116D01*
G01*
X100676502Y-61467188D02*
G75*
G02*
X101588672Y-61467188I456085J-456084D01*
G01*
X124955000Y-55125000D02*
X124955000Y-54735458D01*
X131600000Y-54090452D02*
X131800000Y-54090452D01*
X132445000Y-54735452D02*
X132445000Y-55125000D01*
X108275000Y-53900000D02*
X108275000Y-54403516D01*
X137400000Y-55280000D02*
X140701484Y-55280000D01*
X132955000Y-55125000D02*
X132955000Y-54735444D01*
X118955000Y-55125000D02*
X118955000Y-54735458D01*
X108675000Y-53500000D02*
X108275000Y-53900000D01*
X124445000Y-54735458D02*
X124445000Y-55125000D01*
X120955000Y-55125000D02*
X120955000Y-54735458D01*
X134800000Y-55280000D02*
X137400000Y-55280000D01*
X124600000Y-55280000D02*
X124800000Y-55280000D01*
X134600000Y-55280000D02*
X134800000Y-55280000D01*
X119600000Y-54090458D02*
X119800000Y-54090458D01*
X122445000Y-54735458D02*
X122445000Y-55125000D01*
X145585000Y-64204999D02*
X145975000Y-64594999D01*
X127600000Y-54090458D02*
X127800000Y-54090458D01*
X117600000Y-54090458D02*
X117800000Y-54090458D01*
X145585000Y-60163516D02*
X145585000Y-64204999D01*
X126600000Y-55280000D02*
X126800000Y-55280000D01*
X125600000Y-54090458D02*
X125800000Y-54090458D01*
X130600000Y-55280000D02*
X130800000Y-55280000D01*
X145975000Y-64594999D02*
X145975000Y-66785000D01*
X118600000Y-55280000D02*
X118800000Y-55280000D01*
X123600000Y-54090458D02*
X123800000Y-54090458D01*
X130445000Y-54735453D02*
X130445000Y-55125000D01*
X134445000Y-54735444D02*
X134445000Y-55125000D01*
X128955000Y-55125000D02*
X128955000Y-54735453D01*
X130955000Y-55125000D02*
X130955000Y-54735452D01*
X133600000Y-54090444D02*
X133800000Y-54090444D01*
X128600000Y-55280000D02*
X128800000Y-55280000D01*
X122600000Y-55280000D02*
X122800000Y-55280000D01*
X126955000Y-55125000D02*
X126955000Y-54735458D01*
X128445000Y-54735458D02*
X128445000Y-55125000D01*
X121600000Y-54090458D02*
X121800000Y-54090458D01*
X140701484Y-55280000D02*
X145585000Y-60163516D01*
X129600000Y-54090453D02*
X129800000Y-54090453D01*
X109151484Y-55280000D02*
X116800000Y-55280000D01*
X120445000Y-54735458D02*
X120445000Y-55125000D01*
X120600000Y-55280000D02*
X120800000Y-55280000D01*
X118445000Y-54735458D02*
X118445000Y-55125000D01*
X116955000Y-55125000D02*
X116955000Y-54735458D01*
X108275000Y-54403516D02*
X109151484Y-55280000D01*
X132600000Y-55280000D02*
X132800000Y-55280000D01*
X126445000Y-54735458D02*
X126445000Y-55125000D01*
X122955000Y-55125000D02*
X122955000Y-54735458D01*
X124800000Y-55280000D02*
G75*
G03*
X124955000Y-55125000I0J155000D01*
G01*
X118445000Y-55125000D02*
G75*
G03*
X118600000Y-55280000I155000J0D01*
G01*
X128955000Y-54735453D02*
G75*
G02*
X129600000Y-54090500I645000J-47D01*
G01*
X125800000Y-54090458D02*
G75*
G02*
X126445042Y-54735458I0J-645042D01*
G01*
X118800000Y-55280000D02*
G75*
G03*
X118955000Y-55125000I0J155000D01*
G01*
X132955000Y-54735444D02*
G75*
G02*
X133600000Y-54090400I645000J44D01*
G01*
X116800000Y-55280000D02*
G75*
G03*
X116955000Y-55125000I0J155000D01*
G01*
X126800000Y-55280000D02*
G75*
G03*
X126955000Y-55125000I0J155000D01*
G01*
X120445000Y-55125000D02*
G75*
G03*
X120600000Y-55280000I155000J0D01*
G01*
X122445000Y-55125000D02*
G75*
G03*
X122600000Y-55280000I155000J0D01*
G01*
X126955000Y-54735458D02*
G75*
G02*
X127600000Y-54090500I645000J-42D01*
G01*
X124445000Y-55125000D02*
G75*
G03*
X124600000Y-55280000I155000J0D01*
G01*
X128800000Y-55280000D02*
G75*
G03*
X128955000Y-55125000I0J155000D01*
G01*
X128445000Y-55125000D02*
G75*
G03*
X128600000Y-55280000I155000J0D01*
G01*
X120955000Y-54735458D02*
G75*
G02*
X121600000Y-54090500I645000J-42D01*
G01*
X131800000Y-54090452D02*
G75*
G02*
X132445048Y-54735452I0J-645048D01*
G01*
X120800000Y-55280000D02*
G75*
G03*
X120955000Y-55125000I0J155000D01*
G01*
X118955000Y-54735458D02*
G75*
G02*
X119600000Y-54090500I645000J-42D01*
G01*
X122800000Y-55280000D02*
G75*
G03*
X122955000Y-55125000I0J155000D01*
G01*
X132445000Y-55125000D02*
G75*
G03*
X132600000Y-55280000I155000J0D01*
G01*
X117800000Y-54090458D02*
G75*
G02*
X118445042Y-54735458I0J-645042D01*
G01*
X121800000Y-54090458D02*
G75*
G02*
X122445042Y-54735458I0J-645042D01*
G01*
X123800000Y-54090458D02*
G75*
G02*
X124445042Y-54735458I0J-645042D01*
G01*
X134445000Y-55125000D02*
G75*
G03*
X134600000Y-55280000I155000J0D01*
G01*
X122955000Y-54735458D02*
G75*
G02*
X123600000Y-54090500I645000J-42D01*
G01*
X124955000Y-54735458D02*
G75*
G02*
X125600000Y-54090500I645000J-42D01*
G01*
X119800000Y-54090458D02*
G75*
G02*
X120445042Y-54735458I0J-645042D01*
G01*
X127800000Y-54090458D02*
G75*
G02*
X128445042Y-54735458I0J-645042D01*
G01*
X129800000Y-54090453D02*
G75*
G02*
X130445047Y-54735453I0J-645047D01*
G01*
X130955000Y-54735452D02*
G75*
G02*
X131600000Y-54090500I645000J-48D01*
G01*
X130445000Y-55125000D02*
G75*
G03*
X130600000Y-55280000I155000J0D01*
G01*
X126445000Y-55125000D02*
G75*
G03*
X126600000Y-55280000I155000J0D01*
G01*
X116955000Y-54735458D02*
G75*
G02*
X117600000Y-54090500I645000J-42D01*
G01*
X133800000Y-54090444D02*
G75*
G02*
X134444956Y-54735444I0J-644956D01*
G01*
X130800000Y-55280000D02*
G75*
G03*
X130955000Y-55125000I0J155000D01*
G01*
X132800000Y-55280000D02*
G75*
G03*
X132955000Y-55125000I0J155000D01*
G01*
X76045000Y-56683516D02*
X73948516Y-58780000D01*
X39668867Y-60421820D02*
X39712402Y-60465355D01*
X37085000Y-64594999D02*
X37085000Y-66785000D01*
X38396077Y-60782445D02*
X38254653Y-60923864D01*
X73948516Y-58780000D02*
X40398516Y-58780000D01*
X37475000Y-62744244D02*
X37475000Y-64204999D01*
X37475000Y-64204999D02*
X37085000Y-64594999D01*
X40398516Y-58780000D02*
X39668867Y-59509649D01*
X39668867Y-59509649D02*
X39668868Y-59509650D01*
X76045000Y-53890000D02*
X76045000Y-56683516D01*
X37475000Y-61703516D02*
X37475000Y-62744244D01*
X39712402Y-60684557D02*
X39570981Y-60825979D01*
X39351779Y-60825980D02*
X39308245Y-60782446D01*
X38254653Y-60923864D02*
X37475000Y-61703516D01*
X75655000Y-53500000D02*
X76045000Y-53890000D01*
X39712402Y-60465355D02*
G75*
G02*
X39712446Y-60684601I-109602J-109645D01*
G01*
X39308245Y-60782446D02*
G75*
G03*
X38396117Y-60782484I-456045J-456054D01*
G01*
X39570981Y-60825979D02*
G75*
G02*
X39351800Y-60825960I-109581J109579D01*
G01*
X39668868Y-59509650D02*
G75*
G03*
X39668902Y-60421785I456132J-456050D01*
G01*
X48125000Y-64621484D02*
X49051484Y-63695000D01*
X89225000Y-56575000D02*
X89225000Y-53900000D01*
X48515000Y-66785000D02*
X48515000Y-65695000D01*
X48125000Y-65305000D02*
X48125000Y-64621484D01*
X48515000Y-65695000D02*
X48125000Y-65305000D01*
X82105000Y-63695000D02*
X89225000Y-56575000D01*
X89225000Y-53900000D02*
X89625000Y-53500000D01*
X49051484Y-63695000D02*
X82105000Y-63695000D01*
X125945000Y-56975000D02*
X125945000Y-56972816D01*
X132100000Y-56817816D02*
X132300000Y-56817816D01*
X129100000Y-57620000D02*
X129300000Y-57620000D01*
X141519959Y-59110397D02*
X141235521Y-59394836D01*
X126100000Y-56817816D02*
X126300000Y-56817816D01*
X111945000Y-56975000D02*
X111945000Y-56972816D01*
X139821308Y-58892791D02*
X139962730Y-59034212D01*
X128455000Y-56972816D02*
X128455000Y-56975000D01*
X136455000Y-56972800D02*
X136455000Y-56975000D01*
X121945000Y-56975000D02*
X121945000Y-56972816D01*
X112100000Y-56817816D02*
X112300000Y-56817816D01*
X113945000Y-56975000D02*
X113945000Y-56972816D01*
X104865000Y-53500000D02*
X105255000Y-53890000D01*
X122100000Y-56817816D02*
X122300000Y-56817816D01*
X123945000Y-56975000D02*
X123945000Y-56972816D01*
X137300000Y-57620000D02*
X138548516Y-57620000D01*
X115100000Y-57620000D02*
X115300000Y-57620000D01*
X119100000Y-57620000D02*
X119300000Y-57620000D01*
X113100000Y-57620000D02*
X113300000Y-57620000D01*
X134100000Y-56817800D02*
X134300000Y-56817800D01*
X130455000Y-56972800D02*
X130455000Y-56975000D01*
X132455000Y-56972816D02*
X132455000Y-56975000D01*
X128100000Y-56817816D02*
X128300000Y-56817816D01*
X129945000Y-56975000D02*
X129945000Y-56972800D01*
X124455000Y-56972816D02*
X124455000Y-56975000D01*
X138548516Y-57620000D02*
X138548515Y-57619998D01*
X137100000Y-57620000D02*
X137300000Y-57620000D01*
X115945000Y-56975000D02*
X115945000Y-56972816D01*
X136100000Y-56817800D02*
X136300000Y-56817800D01*
X118100000Y-56817816D02*
X118300000Y-56817816D01*
X142555000Y-61626484D02*
X142555000Y-64204999D01*
X123100000Y-57620000D02*
X123300000Y-57620000D01*
X141376943Y-60448425D02*
X141626758Y-60698242D01*
X107198516Y-57620000D02*
X111300000Y-57620000D01*
X127100000Y-57620000D02*
X127300000Y-57620000D01*
X121100000Y-57620000D02*
X121300000Y-57620000D01*
X139460685Y-57620000D02*
X139745082Y-57335600D01*
X119945000Y-56975000D02*
X119945000Y-56972816D01*
X122455000Y-56972816D02*
X122455000Y-56975000D01*
X125100000Y-57620000D02*
X125300000Y-57620000D01*
X133945000Y-56975000D02*
X133945000Y-56972800D01*
X140105706Y-57696224D02*
X139821308Y-57980623D01*
X120100000Y-56817816D02*
X120300000Y-56817816D01*
X120455000Y-56972816D02*
X120455000Y-56975000D01*
X135945000Y-56975000D02*
X135945000Y-56972800D01*
X135100000Y-57620000D02*
X135300000Y-57620000D01*
X118455000Y-56972816D02*
X118455000Y-56975000D01*
X117100000Y-57620000D02*
X117300000Y-57620000D01*
X127945000Y-56975000D02*
X127945000Y-56972816D01*
X117945000Y-56975000D02*
X117945000Y-56972816D01*
X139962730Y-59034212D02*
X139962728Y-59034211D01*
X130100000Y-56817800D02*
X130300000Y-56817800D01*
X142165000Y-64594999D02*
X142165000Y-66785000D01*
X134455000Y-56972800D02*
X134455000Y-56975000D01*
X124100000Y-56817816D02*
X124300000Y-56817816D01*
X112455000Y-56972816D02*
X112455000Y-56975000D01*
X141626758Y-60698242D02*
X142555000Y-61626484D01*
X105255000Y-55676484D02*
X107198516Y-57620000D01*
X142555000Y-64204999D02*
X142165000Y-64594999D01*
X114455000Y-56972816D02*
X114455000Y-56975000D01*
X133100000Y-57620000D02*
X133300000Y-57620000D01*
X131945000Y-56975000D02*
X131945000Y-56972816D01*
X131100000Y-57620000D02*
X131300000Y-57620000D01*
X140874898Y-59034213D02*
X141159335Y-58749773D01*
X114100000Y-56817816D02*
X114300000Y-56817816D01*
X105255000Y-53890000D02*
X105255000Y-55676484D01*
X116455000Y-56972816D02*
X116455000Y-56975000D01*
X126455000Y-56972816D02*
X126455000Y-56975000D01*
X141235521Y-60307004D02*
X141376943Y-60448425D01*
X141378539Y-58749774D02*
X141519960Y-58891195D01*
X139964286Y-57335601D02*
X140105707Y-57477022D01*
X116100000Y-56817816D02*
X116300000Y-56817816D01*
X141235521Y-59394836D02*
G75*
G03*
X141235541Y-60306984I456079J-456064D01*
G01*
X129945000Y-56972800D02*
G75*
G02*
X130100000Y-56817800I155000J0D01*
G01*
X139962728Y-59034211D02*
G75*
G03*
X140874884Y-59034199I456072J456111D01*
G01*
X121945000Y-56972816D02*
G75*
G02*
X122100000Y-56817800I155000J16D01*
G01*
X139745082Y-57335600D02*
G75*
G02*
X139964302Y-57335584I109618J-109600D01*
G01*
X122300000Y-56817816D02*
G75*
G02*
X122454984Y-56972816I0J-154984D01*
G01*
X131300000Y-57620000D02*
G75*
G03*
X131945000Y-56975000I0J645000D01*
G01*
X113300000Y-57620000D02*
G75*
G03*
X113945000Y-56975000I0J645000D01*
G01*
X141519960Y-58891195D02*
G75*
G02*
X141519963Y-59110402I-109560J-109605D01*
G01*
X134300000Y-56817800D02*
G75*
G02*
X134455000Y-56972800I0J-155000D01*
G01*
X123945000Y-56972816D02*
G75*
G02*
X124100000Y-56817800I155000J16D01*
G01*
X111945000Y-56972816D02*
G75*
G02*
X112100000Y-56817800I155000J16D01*
G01*
X130455000Y-56975000D02*
G75*
G03*
X131100000Y-57620000I645000J0D01*
G01*
X114300000Y-56817816D02*
G75*
G02*
X114454984Y-56972816I0J-154984D01*
G01*
X120300000Y-56817816D02*
G75*
G02*
X120454984Y-56972816I0J-154984D01*
G01*
X120455000Y-56975000D02*
G75*
G03*
X121100000Y-57620000I645000J0D01*
G01*
X128455000Y-56975000D02*
G75*
G03*
X129100000Y-57620000I645000J0D01*
G01*
X126455000Y-56975000D02*
G75*
G03*
X127100000Y-57620000I645000J0D01*
G01*
X111300000Y-57620000D02*
G75*
G03*
X111945000Y-56975000I0J645000D01*
G01*
X127945000Y-56972816D02*
G75*
G02*
X128100000Y-56817800I155000J16D01*
G01*
X132455000Y-56975000D02*
G75*
G03*
X133100000Y-57620000I645000J0D01*
G01*
X136455000Y-56975000D02*
G75*
G03*
X137100000Y-57620000I645000J0D01*
G01*
X131945000Y-56972816D02*
G75*
G02*
X132100000Y-56817800I155000J16D01*
G01*
X132300000Y-56817816D02*
G75*
G02*
X132454984Y-56972816I0J-154984D01*
G01*
X122455000Y-56975000D02*
G75*
G03*
X123100000Y-57620000I645000J0D01*
G01*
X133945000Y-56972800D02*
G75*
G02*
X134100000Y-56817800I155000J0D01*
G01*
X112455000Y-56975000D02*
G75*
G03*
X113100000Y-57620000I645000J0D01*
G01*
X115300000Y-57620000D02*
G75*
G03*
X115945000Y-56975000I0J645000D01*
G01*
X118300000Y-56817816D02*
G75*
G02*
X118454984Y-56972816I0J-154984D01*
G01*
X116300000Y-56817816D02*
G75*
G02*
X116454984Y-56972816I0J-154984D01*
G01*
X125945000Y-56972816D02*
G75*
G02*
X126100000Y-56817800I155000J16D01*
G01*
X139821308Y-57980623D02*
G75*
G03*
X139821315Y-58892784I456092J-456077D01*
G01*
X125300000Y-57620000D02*
G75*
G03*
X125945000Y-56975000I0J645000D01*
G01*
X129300000Y-57620000D02*
G75*
G03*
X129945000Y-56975000I0J645000D01*
G01*
X140105707Y-57477022D02*
G75*
G02*
X140105684Y-57696201I-109607J-109578D01*
G01*
X138548515Y-57619998D02*
G75*
G03*
X139460684Y-57619999I456085J456098D01*
G01*
X116455000Y-56975000D02*
G75*
G03*
X117100000Y-57620000I645000J0D01*
G01*
X134455000Y-56975000D02*
G75*
G03*
X135100000Y-57620000I645000J0D01*
G01*
X113945000Y-56972816D02*
G75*
G02*
X114100000Y-56817800I155000J16D01*
G01*
X124300000Y-56817816D02*
G75*
G02*
X124454984Y-56972816I0J-154984D01*
G01*
X124455000Y-56975000D02*
G75*
G03*
X125100000Y-57620000I645000J0D01*
G01*
X141159335Y-58749773D02*
G75*
G02*
X141378503Y-58749810I109565J-109627D01*
G01*
X118455000Y-56975000D02*
G75*
G03*
X119100000Y-57620000I645000J0D01*
G01*
X117300000Y-57620000D02*
G75*
G03*
X117945000Y-56975000I0J645000D01*
G01*
X123300000Y-57620000D02*
G75*
G03*
X123945000Y-56975000I0J645000D01*
G01*
X133300000Y-57620000D02*
G75*
G03*
X133945000Y-56975000I0J645000D01*
G01*
X135945000Y-56972800D02*
G75*
G02*
X136100000Y-56817800I155000J0D01*
G01*
X119945000Y-56972816D02*
G75*
G02*
X120100000Y-56817800I155000J16D01*
G01*
X136300000Y-56817800D02*
G75*
G02*
X136455000Y-56972800I0J-155000D01*
G01*
X130300000Y-56817800D02*
G75*
G02*
X130455000Y-56972800I0J-155000D01*
G01*
X112300000Y-56817816D02*
G75*
G02*
X112454984Y-56972816I0J-154984D01*
G01*
X115945000Y-56972816D02*
G75*
G02*
X116100000Y-56817800I155000J16D01*
G01*
X114455000Y-56975000D02*
G75*
G03*
X115100000Y-57620000I645000J0D01*
G01*
X135300000Y-57620000D02*
G75*
G03*
X135945000Y-56975000I0J645000D01*
G01*
X117945000Y-56972816D02*
G75*
G02*
X118100000Y-56817800I155000J16D01*
G01*
X127300000Y-57620000D02*
G75*
G03*
X127945000Y-56975000I0J645000D01*
G01*
X119300000Y-57620000D02*
G75*
G03*
X119945000Y-56975000I0J645000D01*
G01*
X128300000Y-56817816D02*
G75*
G02*
X128454984Y-56972816I0J-154984D01*
G01*
X121300000Y-57620000D02*
G75*
G03*
X121945000Y-56975000I0J645000D01*
G01*
X126300000Y-56817816D02*
G75*
G02*
X126454984Y-56972816I0J-154984D01*
G01*
X37965000Y-61906484D02*
X37965000Y-62744244D01*
X76535000Y-56886484D02*
X74151484Y-59270000D01*
X38742558Y-61128929D02*
X38601137Y-61270348D01*
X76535000Y-53890000D02*
X76535000Y-56886484D01*
X37965000Y-64204999D02*
X38355000Y-64594999D01*
X40601484Y-59270000D02*
X40015351Y-59856133D01*
X40058885Y-61031040D02*
X39917464Y-61172462D01*
X40015351Y-60075335D02*
X40058886Y-60118870D01*
X76925000Y-53500000D02*
X76535000Y-53890000D01*
X74151484Y-59270000D02*
X40601484Y-59270000D01*
X38601137Y-61270348D02*
X37965000Y-61906484D01*
X38355000Y-64594999D02*
X38355000Y-66785000D01*
X37965000Y-62744244D02*
X37965000Y-64204999D01*
X39005294Y-61172463D02*
X38961760Y-61128929D01*
X40058886Y-60118870D02*
G75*
G02*
X40058931Y-61031085I-456086J-456130D01*
G01*
X38961760Y-61128929D02*
G75*
G03*
X38742558Y-61128929I-109601J-109598D01*
G01*
X40015351Y-59856133D02*
G75*
G03*
X40015385Y-60075301I109549J-109567D01*
G01*
X39917464Y-61172462D02*
G75*
G02*
X39005316Y-61172442I-456064J456062D01*
G01*
X125751484Y-58127136D02*
X125951484Y-58127136D01*
X107106483Y-58875000D02*
X107106483Y-58822142D01*
X117106483Y-58875000D02*
X117106483Y-58772137D01*
X108596485Y-58822142D02*
X108596485Y-58875000D01*
X140505000Y-64204999D02*
X140895000Y-64594999D01*
X103882073Y-57960589D02*
X104951484Y-59030000D01*
X115106483Y-58875000D02*
X115106483Y-58772137D01*
X124596485Y-58772137D02*
X124596485Y-58875000D01*
X126951484Y-59029999D02*
X127450000Y-59030000D01*
X126596485Y-58772137D02*
X126596485Y-58875000D01*
X104951484Y-59030000D02*
X104951484Y-59029999D01*
X113106483Y-58875000D02*
X113106483Y-58772137D01*
X137001484Y-59030000D02*
X140505000Y-62533516D01*
X112751484Y-59029999D02*
X112951484Y-59029999D01*
X114596485Y-58772137D02*
X114596485Y-58875000D01*
X101935500Y-53889500D02*
X101935500Y-56014016D01*
X123106483Y-58875000D02*
X123106483Y-58772137D01*
X122596485Y-58772137D02*
X122596485Y-58875000D01*
X120596485Y-58772137D02*
X120596485Y-58875000D01*
X103740651Y-57819167D02*
X103882073Y-57960589D01*
X120751484Y-59029999D02*
X120951484Y-59029999D01*
X106596485Y-58472147D02*
X106596485Y-58875000D01*
X122751484Y-59029999D02*
X122951484Y-59029999D01*
X123751484Y-58127136D02*
X123951484Y-58127136D01*
X111751484Y-58127136D02*
X111951484Y-58127136D01*
X102467860Y-56546376D02*
X102467858Y-56546375D01*
X111106483Y-58875000D02*
X111106483Y-58772137D01*
X125106483Y-58875000D02*
X125106483Y-58772137D01*
X124751484Y-59029999D02*
X124951484Y-59029999D01*
X106751484Y-59029999D02*
X106951484Y-59029999D01*
X104025522Y-57315097D02*
X103740651Y-57599965D01*
X109751484Y-58177141D02*
X109951484Y-58177141D01*
X116751484Y-59029999D02*
X116951484Y-59029999D01*
X116596485Y-58772137D02*
X116596485Y-58875000D01*
X102687062Y-56546377D02*
X102971930Y-56261506D01*
X113751484Y-58127136D02*
X113951484Y-58127136D01*
X117751484Y-58127136D02*
X117951484Y-58127136D01*
X121106483Y-58875000D02*
X121106483Y-58772137D01*
X110751484Y-59029999D02*
X110951484Y-59029999D01*
X140505000Y-62533516D02*
X140505000Y-64204999D01*
X118596485Y-58772137D02*
X118596485Y-58875000D01*
X102325000Y-53500000D02*
X101935500Y-53889500D01*
X107751484Y-58177141D02*
X107951484Y-58177141D01*
X114751484Y-59029999D02*
X114951484Y-59029999D01*
X103884100Y-56261506D02*
X104025521Y-56402927D01*
X140895000Y-64594999D02*
X140895000Y-66785000D01*
X105751484Y-57827146D02*
X105951484Y-57827146D01*
X109106483Y-58875000D02*
X109106483Y-58822142D01*
X119751484Y-58127136D02*
X119951484Y-58127136D01*
X121751484Y-58127136D02*
X121951484Y-58127136D01*
X108751484Y-59029999D02*
X108951484Y-59029999D01*
X118751484Y-59029999D02*
X118951484Y-59029999D01*
X110596485Y-58822142D02*
X110596485Y-58875000D01*
X101935500Y-56014016D02*
X102467860Y-56546376D01*
X126751484Y-59029999D02*
X126951484Y-59029999D01*
X127450000Y-59030000D02*
X137001484Y-59030000D01*
X105106483Y-58875000D02*
X105106483Y-58472147D01*
X119106483Y-58875000D02*
X119106483Y-58772137D01*
X115751484Y-58127136D02*
X115951484Y-58127136D01*
X112596485Y-58772137D02*
X112596485Y-58875000D01*
X114596485Y-58875000D02*
G75*
G03*
X114751484Y-59030015I155015J0D01*
G01*
X124596485Y-58875000D02*
G75*
G03*
X124751484Y-59030015I155015J0D01*
G01*
X108596485Y-58875000D02*
G75*
G03*
X108751484Y-59030015I155015J0D01*
G01*
X102971930Y-56261506D02*
G75*
G02*
X103884100Y-56261506I456085J-456084D01*
G01*
X114951484Y-59029999D02*
G75*
G03*
X115106499Y-58875000I16J154999D01*
G01*
X107951484Y-58177141D02*
G75*
G02*
X108596459Y-58822142I16J-644959D01*
G01*
X111951484Y-58127136D02*
G75*
G02*
X112596464Y-58772137I16J-644964D01*
G01*
X125951484Y-58127136D02*
G75*
G02*
X126596464Y-58772137I16J-644964D01*
G01*
X117951484Y-58127136D02*
G75*
G02*
X118596464Y-58772137I16J-644964D01*
G01*
X104025521Y-56402927D02*
G75*
G02*
X104025510Y-57315085I-456121J-456073D01*
G01*
X106596485Y-58875000D02*
G75*
G03*
X106751484Y-59030015I155015J0D01*
G01*
X119106483Y-58772137D02*
G75*
G02*
X119751484Y-58127083I645017J37D01*
G01*
X110596485Y-58875000D02*
G75*
G03*
X110751484Y-59030015I155015J0D01*
G01*
X123951484Y-58127136D02*
G75*
G02*
X124596464Y-58772137I16J-644964D01*
G01*
X107106483Y-58822142D02*
G75*
G02*
X107751484Y-58177083I645017J42D01*
G01*
X122951484Y-59029999D02*
G75*
G03*
X123106499Y-58875000I16J154999D01*
G01*
X105106483Y-58472147D02*
G75*
G02*
X105751484Y-57827083I645017J47D01*
G01*
X116951484Y-59029999D02*
G75*
G03*
X117106499Y-58875000I16J154999D01*
G01*
X110951484Y-59029999D02*
G75*
G03*
X111106499Y-58875000I16J154999D01*
G01*
X122596485Y-58875000D02*
G75*
G03*
X122751484Y-59030015I155015J0D01*
G01*
X111106483Y-58772137D02*
G75*
G02*
X111751484Y-58127083I645017J37D01*
G01*
X119951484Y-58127136D02*
G75*
G02*
X120596464Y-58772137I16J-644964D01*
G01*
X121951484Y-58127136D02*
G75*
G02*
X122596464Y-58772137I16J-644964D01*
G01*
X112596485Y-58875000D02*
G75*
G03*
X112751484Y-59030015I155015J0D01*
G01*
X104951484Y-59029999D02*
G75*
G03*
X105106499Y-58875000I16J154999D01*
G01*
X113951484Y-58127136D02*
G75*
G02*
X114596464Y-58772137I16J-644964D01*
G01*
X125106483Y-58772137D02*
G75*
G02*
X125751484Y-58127083I645017J37D01*
G01*
X120596485Y-58875000D02*
G75*
G03*
X120751484Y-59030015I155015J0D01*
G01*
X102467858Y-56546375D02*
G75*
G03*
X102687101Y-56546416I109642J109575D01*
G01*
X126596485Y-58875000D02*
G75*
G03*
X126751484Y-59030015I155015J0D01*
G01*
X115951484Y-58127136D02*
G75*
G02*
X116596464Y-58772137I16J-644964D01*
G01*
X116596485Y-58875000D02*
G75*
G03*
X116751484Y-59030015I155015J0D01*
G01*
X108951484Y-59029999D02*
G75*
G03*
X109106499Y-58875000I16J154999D01*
G01*
X123106483Y-58772137D02*
G75*
G02*
X123751484Y-58127083I645017J37D01*
G01*
X109106483Y-58822142D02*
G75*
G02*
X109751484Y-58177083I645017J42D01*
G01*
X105951484Y-57827146D02*
G75*
G02*
X106596454Y-58472147I16J-644954D01*
G01*
X120951484Y-59029999D02*
G75*
G03*
X121106499Y-58875000I16J154999D01*
G01*
X106951484Y-59029999D02*
G75*
G03*
X107106499Y-58875000I16J154999D01*
G01*
X109951484Y-58177141D02*
G75*
G02*
X110596459Y-58822142I16J-644959D01*
G01*
X113106483Y-58772137D02*
G75*
G02*
X113751484Y-58127083I645017J37D01*
G01*
X103740651Y-57599965D02*
G75*
G03*
X103740617Y-57819201I109649J-109635D01*
G01*
X121106483Y-58772137D02*
G75*
G02*
X121751484Y-58127083I645017J37D01*
G01*
X124951484Y-59029999D02*
G75*
G03*
X125106499Y-58875000I16J154999D01*
G01*
X118596485Y-58875000D02*
G75*
G03*
X118751484Y-59030015I155015J0D01*
G01*
X117106483Y-58772137D02*
G75*
G02*
X117751484Y-58127083I645017J37D01*
G01*
X112951484Y-59029999D02*
G75*
G03*
X113106499Y-58875000I16J154999D01*
G01*
X115106483Y-58772137D02*
G75*
G02*
X115751484Y-58127083I645017J37D01*
G01*
X118951484Y-59029999D02*
G75*
G03*
X119106499Y-58875000I16J154999D01*
G01*
X127600000Y-54580458D02*
X127800000Y-54580458D01*
X145095000Y-64204999D02*
X144705000Y-64594999D01*
X125445000Y-55125000D02*
X125445000Y-54735458D01*
X127955000Y-54735458D02*
X127955000Y-55125000D01*
X107785000Y-53900000D02*
X107785000Y-54606484D01*
X127445000Y-55125000D02*
X127445000Y-54735458D01*
X119445000Y-55125000D02*
X119445000Y-54735458D01*
X144705000Y-64594999D02*
X144705000Y-66785000D01*
X131955000Y-54735452D02*
X131955000Y-55125000D01*
X134800000Y-55770000D02*
X137400000Y-55770000D01*
X125600000Y-54580458D02*
X125800000Y-54580458D01*
X145095000Y-60366484D02*
X145095000Y-64204999D01*
X117600000Y-54580458D02*
X117800000Y-54580458D01*
X140498516Y-55770000D02*
X145095000Y-60366484D01*
X117955000Y-54735458D02*
X117955000Y-55125000D01*
X108948516Y-55770000D02*
X116800000Y-55770000D01*
X128600000Y-55770000D02*
X128800000Y-55770000D01*
X121955000Y-54735458D02*
X121955000Y-55125000D01*
X117445000Y-55125000D02*
X117445000Y-54735458D01*
X119955000Y-54735458D02*
X119955000Y-55125000D01*
X133600000Y-54580444D02*
X133800000Y-54580444D01*
X125955000Y-54735458D02*
X125955000Y-55125000D01*
X121445000Y-55125000D02*
X121445000Y-54735458D01*
X130600000Y-55770000D02*
X130800000Y-55770000D01*
X121600000Y-54580458D02*
X121800000Y-54580458D01*
X126600000Y-55770000D02*
X126800000Y-55770000D01*
X122600000Y-55770000D02*
X122800000Y-55770000D01*
X129600000Y-54580453D02*
X129800000Y-54580453D01*
X137400000Y-55770000D02*
X140498516Y-55770000D01*
X133955000Y-54735444D02*
X133955000Y-55125000D01*
X118600000Y-55770000D02*
X118800000Y-55770000D01*
X120600000Y-55770000D02*
X120800000Y-55770000D01*
X123445000Y-55125000D02*
X123445000Y-54735458D01*
X133445000Y-55125000D02*
X133445000Y-54735444D01*
X123600000Y-54580458D02*
X123800000Y-54580458D01*
X129955000Y-54735453D02*
X129955000Y-55125000D01*
X107385000Y-53500000D02*
X107785000Y-53900000D01*
X129445000Y-55125000D02*
X129445000Y-54735453D01*
X119600000Y-54580458D02*
X119800000Y-54580458D01*
X131600000Y-54580452D02*
X131800000Y-54580452D01*
X132600000Y-55770000D02*
X132800000Y-55770000D01*
X107785000Y-54606484D02*
X108948516Y-55770000D01*
X134600000Y-55770000D02*
X134800000Y-55770000D01*
X123955000Y-54735458D02*
X123955000Y-55125000D01*
X131445000Y-55125000D02*
X131445000Y-54735452D01*
X124600000Y-55770000D02*
X124800000Y-55770000D01*
X121445000Y-54735458D02*
G75*
G02*
X121600000Y-54580500I155000J-42D01*
G01*
X131445000Y-54735452D02*
G75*
G02*
X131600000Y-54580500I155000J-48D01*
G01*
X129955000Y-55125000D02*
G75*
G03*
X130600000Y-55770000I645000J0D01*
G01*
X116800000Y-55770000D02*
G75*
G03*
X117445000Y-55125000I0J645000D01*
G01*
X125800000Y-54580458D02*
G75*
G02*
X125955042Y-54735458I0J-155042D01*
G01*
X133955000Y-55125000D02*
G75*
G03*
X134600000Y-55770000I645000J0D01*
G01*
X120800000Y-55770000D02*
G75*
G03*
X121445000Y-55125000I0J645000D01*
G01*
X132800000Y-55770000D02*
G75*
G03*
X133445000Y-55125000I0J645000D01*
G01*
X133445000Y-54735444D02*
G75*
G02*
X133600000Y-54580400I155000J44D01*
G01*
X125445000Y-54735458D02*
G75*
G02*
X125600000Y-54580500I155000J-42D01*
G01*
X122800000Y-55770000D02*
G75*
G03*
X123445000Y-55125000I0J645000D01*
G01*
X129445000Y-54735453D02*
G75*
G02*
X129600000Y-54580500I155000J-47D01*
G01*
X133800000Y-54580444D02*
G75*
G02*
X133954956Y-54735444I0J-154956D01*
G01*
X117445000Y-54735458D02*
G75*
G02*
X117600000Y-54580500I155000J-42D01*
G01*
X121955000Y-55125000D02*
G75*
G03*
X122600000Y-55770000I645000J0D01*
G01*
X127955000Y-55125000D02*
G75*
G03*
X128600000Y-55770000I645000J0D01*
G01*
X127445000Y-54735458D02*
G75*
G02*
X127600000Y-54580500I155000J-42D01*
G01*
X117800000Y-54580458D02*
G75*
G02*
X117955042Y-54735458I0J-155042D01*
G01*
X119445000Y-54735458D02*
G75*
G02*
X119600000Y-54580500I155000J-42D01*
G01*
X131800000Y-54580452D02*
G75*
G02*
X131955048Y-54735452I0J-155048D01*
G01*
X123955000Y-55125000D02*
G75*
G03*
X124600000Y-55770000I645000J0D01*
G01*
X128800000Y-55770000D02*
G75*
G03*
X129445000Y-55125000I0J645000D01*
G01*
X127800000Y-54580458D02*
G75*
G02*
X127955042Y-54735458I0J-155042D01*
G01*
X121800000Y-54580458D02*
G75*
G02*
X121955042Y-54735458I0J-155042D01*
G01*
X129800000Y-54580453D02*
G75*
G02*
X129955047Y-54735453I0J-155047D01*
G01*
X119800000Y-54580458D02*
G75*
G02*
X119955042Y-54735458I0J-155042D01*
G01*
X126800000Y-55770000D02*
G75*
G03*
X127445000Y-55125000I0J645000D01*
G01*
X118800000Y-55770000D02*
G75*
G03*
X119445000Y-55125000I0J645000D01*
G01*
X123800000Y-54580458D02*
G75*
G02*
X123955042Y-54735458I0J-155042D01*
G01*
X117955000Y-55125000D02*
G75*
G03*
X118600000Y-55770000I645000J0D01*
G01*
X130800000Y-55770000D02*
G75*
G03*
X131445000Y-55125000I0J645000D01*
G01*
X131955000Y-55125000D02*
G75*
G03*
X132600000Y-55770000I645000J0D01*
G01*
X124800000Y-55770000D02*
G75*
G03*
X125445000Y-55125000I0J645000D01*
G01*
X125955000Y-55125000D02*
G75*
G03*
X126600000Y-55770000I645000J0D01*
G01*
X123445000Y-54735458D02*
G75*
G02*
X123600000Y-54580500I155000J-42D01*
G01*
X119955000Y-55125000D02*
G75*
G03*
X120600000Y-55770000I645000J0D01*
G01*
X82885500Y-53889500D02*
X82885500Y-58582464D01*
X43045000Y-64204999D02*
X43435000Y-64594999D01*
X45176484Y-61495000D02*
X43045000Y-63626484D01*
X43045000Y-63626484D02*
X43045000Y-64204999D01*
X43435000Y-64594999D02*
X43435000Y-66785000D01*
X79972964Y-61495000D02*
X45176484Y-61495000D01*
X82885500Y-58582464D02*
X79972964Y-61495000D01*
X83275000Y-53500000D02*
X82885500Y-53889500D01*
X38001484Y-58020000D02*
X71176484Y-58020000D01*
X35425000Y-64204999D02*
X35425000Y-62325000D01*
X74000000Y-53895000D02*
X74395000Y-53500000D01*
X35815000Y-64594999D02*
X35425000Y-64204999D01*
X36839214Y-59182269D02*
X37448242Y-58573242D01*
X35815000Y-66785000D02*
X35815000Y-64594999D01*
X71176484Y-58020000D02*
X74000000Y-55196484D01*
X35425000Y-59684316D02*
X35342092Y-59601408D01*
X35702719Y-59240782D02*
X35785628Y-59323691D01*
X35425000Y-62325000D02*
X35425000Y-60596484D01*
X37448242Y-58573242D02*
X38001484Y-58020000D01*
X35342093Y-59382204D02*
X35483515Y-59240783D01*
X74000000Y-55196484D02*
X74000000Y-53895000D01*
X36697796Y-59323691D02*
X36839214Y-59182269D01*
X35425000Y-60596484D02*
G75*
G03*
X35425000Y-59684316I-456100J456084D01*
G01*
X35342092Y-59601408D02*
G75*
G02*
X35342086Y-59382198I109608J109608D01*
G01*
X35785628Y-59323691D02*
G75*
G03*
X36697796Y-59323691I456084J456085D01*
G01*
X35483515Y-59240783D02*
G75*
G02*
X35702702Y-59240799I109585J-109617D01*
G01*
X88735000Y-56372036D02*
X88735000Y-53900000D01*
X47245000Y-66785000D02*
X47245000Y-65695000D01*
X47635000Y-64418516D02*
X48848516Y-63205000D01*
X48848516Y-63205000D02*
X81902036Y-63205000D01*
X47635000Y-65305000D02*
X47635000Y-64418516D01*
X47245000Y-65695000D02*
X47635000Y-65305000D01*
X88735000Y-53900000D02*
X88335000Y-53500000D01*
X81902036Y-63205000D02*
X88735000Y-56372036D01*
X126106483Y-58772137D02*
X126106483Y-58875000D01*
X125751484Y-58617138D02*
X125951484Y-58617138D01*
X119596485Y-58875000D02*
X119596485Y-58772137D01*
X139625000Y-64594999D02*
X139625000Y-66785000D01*
X112751484Y-59520001D02*
X112951484Y-59520001D01*
X108106483Y-58822142D02*
X108106483Y-58875000D01*
X108751484Y-59520001D02*
X108951484Y-59520001D01*
X105751484Y-58317148D02*
X105951484Y-58317148D01*
X103394167Y-58165651D02*
X103535589Y-58307073D01*
X126951484Y-59520001D02*
X127450000Y-59520000D01*
X107596485Y-58875000D02*
X107596485Y-58822142D01*
X115596485Y-58875000D02*
X115596485Y-58772137D01*
X126751484Y-59520001D02*
X126951484Y-59520001D01*
X120751484Y-59520001D02*
X120951484Y-59520001D01*
X103033545Y-56892859D02*
X103318415Y-56607990D01*
X140015000Y-62736484D02*
X140015000Y-64204999D01*
X101056000Y-53500000D02*
X101445500Y-53889500D01*
X106751484Y-59520001D02*
X106951484Y-59520001D01*
X102121376Y-56892860D02*
X102121375Y-56892858D01*
X115751484Y-58617138D02*
X115951484Y-58617138D01*
X113751484Y-58617138D02*
X113951484Y-58617138D01*
X136798516Y-59520000D02*
X140015000Y-62736484D01*
X122106483Y-58772137D02*
X122106483Y-58875000D01*
X121751484Y-58617138D02*
X121951484Y-58617138D01*
X118106483Y-58772137D02*
X118106483Y-58875000D01*
X101445500Y-53889500D02*
X101445500Y-56216984D01*
X121596485Y-58875000D02*
X121596485Y-58772137D01*
X110106483Y-58822142D02*
X110106483Y-58875000D01*
X105596485Y-58875000D02*
X105596485Y-58472147D01*
X140015000Y-64204999D02*
X139625000Y-64594999D01*
X127450000Y-59520000D02*
X136798516Y-59520000D01*
X103535589Y-58307073D02*
X104748516Y-59520000D01*
X120106483Y-58772137D02*
X120106483Y-58875000D01*
X117751484Y-58617138D02*
X117951484Y-58617138D01*
X101445500Y-56216984D02*
X102121376Y-56892860D01*
X116106483Y-58772137D02*
X116106483Y-58875000D01*
X114751484Y-59520001D02*
X114951484Y-59520001D01*
X107751484Y-58667143D02*
X107951484Y-58667143D01*
X124751484Y-59520001D02*
X124951484Y-59520001D01*
X118751484Y-59520001D02*
X118951484Y-59520001D01*
X106106483Y-58472147D02*
X106106483Y-58875000D01*
X113596485Y-58875000D02*
X113596485Y-58772137D01*
X109596485Y-58875000D02*
X109596485Y-58822142D01*
X125596485Y-58875000D02*
X125596485Y-58772137D01*
X123596485Y-58875000D02*
X123596485Y-58772137D01*
X103679038Y-56968613D02*
X103394167Y-57253481D01*
X124106483Y-58772137D02*
X124106483Y-58875000D01*
X103537617Y-56607990D02*
X103679038Y-56749411D01*
X117596485Y-58875000D02*
X117596485Y-58772137D01*
X116751484Y-59520001D02*
X116951484Y-59520001D01*
X111751484Y-58617138D02*
X111951484Y-58617138D01*
X114106483Y-58772137D02*
X114106483Y-58875000D01*
X111596485Y-58875000D02*
X111596485Y-58772137D01*
X109751484Y-58667143D02*
X109951484Y-58667143D01*
X122751484Y-59520001D02*
X122951484Y-59520001D01*
X104748516Y-59520000D02*
X104951484Y-59520001D01*
X123751484Y-58617138D02*
X123951484Y-58617138D01*
X112106483Y-58772137D02*
X112106483Y-58875000D01*
X119751484Y-58617138D02*
X119951484Y-58617138D01*
X110751484Y-59520001D02*
X110951484Y-59520001D01*
X112106483Y-58875000D02*
G75*
G03*
X112751484Y-59520017I645017J0D01*
G01*
X107596485Y-58822142D02*
G75*
G02*
X107751484Y-58667085I155015J42D01*
G01*
X126106483Y-58875000D02*
G75*
G03*
X126751484Y-59520017I645017J0D01*
G01*
X113596485Y-58772137D02*
G75*
G02*
X113751484Y-58617085I155015J37D01*
G01*
X102121375Y-56892858D02*
G75*
G03*
X103033585Y-56892899I456125J456058D01*
G01*
X105951484Y-58317148D02*
G75*
G02*
X106106452Y-58472147I16J-154952D01*
G01*
X108951484Y-59520001D02*
G75*
G03*
X109596501Y-58875000I16J645001D01*
G01*
X122951484Y-59520001D02*
G75*
G03*
X123596501Y-58875000I16J645001D01*
G01*
X125951484Y-58617138D02*
G75*
G02*
X126106462Y-58772137I16J-154962D01*
G01*
X104951484Y-59520001D02*
G75*
G03*
X105596501Y-58875000I16J645001D01*
G01*
X117596485Y-58772137D02*
G75*
G02*
X117751484Y-58617085I155015J37D01*
G01*
X109596485Y-58822142D02*
G75*
G02*
X109751484Y-58667085I155015J42D01*
G01*
X103679038Y-56749411D02*
G75*
G02*
X103679026Y-56968601I-109638J-109589D01*
G01*
X106106483Y-58875000D02*
G75*
G03*
X106751484Y-59520017I645017J0D01*
G01*
X103394167Y-57253481D02*
G75*
G03*
X103394133Y-58165685I456133J-456119D01*
G01*
X106951484Y-59520001D02*
G75*
G03*
X107596501Y-58875000I16J645001D01*
G01*
X103318415Y-56607990D02*
G75*
G02*
X103537617Y-56607990I109601J-109598D01*
G01*
X124951484Y-59520001D02*
G75*
G03*
X125596501Y-58875000I16J645001D01*
G01*
X113951484Y-58617138D02*
G75*
G02*
X114106462Y-58772137I16J-154962D01*
G01*
X118106483Y-58875000D02*
G75*
G03*
X118751484Y-59520017I645017J0D01*
G01*
X109951484Y-58667143D02*
G75*
G02*
X110106457Y-58822142I16J-154957D01*
G01*
X110951484Y-59520001D02*
G75*
G03*
X111596501Y-58875000I16J645001D01*
G01*
X116106483Y-58875000D02*
G75*
G03*
X116751484Y-59520017I645017J0D01*
G01*
X120951484Y-59520001D02*
G75*
G03*
X121596501Y-58875000I16J645001D01*
G01*
X114951484Y-59520001D02*
G75*
G03*
X115596501Y-58875000I16J645001D01*
G01*
X123596485Y-58772137D02*
G75*
G02*
X123751484Y-58617085I155015J37D01*
G01*
X116951484Y-59520001D02*
G75*
G03*
X117596501Y-58875000I16J645001D01*
G01*
X120106483Y-58875000D02*
G75*
G03*
X120751484Y-59520017I645017J0D01*
G01*
X115951484Y-58617138D02*
G75*
G02*
X116106462Y-58772137I16J-154962D01*
G01*
X108106483Y-58875000D02*
G75*
G03*
X108751484Y-59520017I645017J0D01*
G01*
X121596485Y-58772137D02*
G75*
G02*
X121751484Y-58617085I155015J37D01*
G01*
X115596485Y-58772137D02*
G75*
G02*
X115751484Y-58617085I155015J37D01*
G01*
X125596485Y-58772137D02*
G75*
G02*
X125751484Y-58617085I155015J37D01*
G01*
X121951484Y-58617138D02*
G75*
G02*
X122106462Y-58772137I16J-154962D01*
G01*
X119596485Y-58772137D02*
G75*
G02*
X119751484Y-58617085I155015J37D01*
G01*
X110106483Y-58875000D02*
G75*
G03*
X110751484Y-59520017I645017J0D01*
G01*
X105596485Y-58472147D02*
G75*
G02*
X105751484Y-58317085I155015J47D01*
G01*
X117951484Y-58617138D02*
G75*
G02*
X118106462Y-58772137I16J-154962D01*
G01*
X118951484Y-59520001D02*
G75*
G03*
X119596501Y-58875000I16J645001D01*
G01*
X123951484Y-58617138D02*
G75*
G02*
X124106462Y-58772137I16J-154962D01*
G01*
X111951484Y-58617138D02*
G75*
G02*
X112106462Y-58772137I16J-154962D01*
G01*
X107951484Y-58667143D02*
G75*
G02*
X108106457Y-58822142I16J-154957D01*
G01*
X122106483Y-58875000D02*
G75*
G03*
X122751484Y-59520017I645017J0D01*
G01*
X114106483Y-58875000D02*
G75*
G03*
X114751484Y-59520017I645017J0D01*
G01*
X112951484Y-59520001D02*
G75*
G03*
X113596501Y-58875000I16J645001D01*
G01*
X124106483Y-58875000D02*
G75*
G03*
X124751484Y-59520017I645017J0D01*
G01*
X119951484Y-58617138D02*
G75*
G02*
X120106462Y-58772137I16J-154962D01*
G01*
X111596485Y-58772137D02*
G75*
G02*
X111751484Y-58617085I155015J37D01*
G01*
X40505000Y-64204999D02*
X40895000Y-64594999D01*
X80345000Y-53890000D02*
X80345000Y-57526484D01*
X80735000Y-53500000D02*
X80345000Y-53890000D01*
X40895000Y-64594999D02*
X40895000Y-66785000D01*
X77426484Y-60445000D02*
X43026484Y-60445000D01*
X40505000Y-62966484D02*
X40505000Y-64204999D01*
X80345000Y-57526484D02*
X77426484Y-60445000D01*
X43026484Y-60445000D02*
X40505000Y-62966484D01*
X111205000Y-60825000D02*
X111205000Y-60569247D01*
X127205000Y-60825000D02*
X127205000Y-60719250D01*
X137965000Y-64204999D02*
X138355000Y-64594999D01*
X129850000Y-60074252D02*
X130050000Y-60074252D01*
X126695000Y-60569252D02*
X126695000Y-60825000D01*
X134695000Y-60719252D02*
X134695000Y-60825000D01*
X138355000Y-64644999D02*
X138355000Y-66785000D01*
X130850000Y-60980000D02*
X131050000Y-60980000D01*
X122850000Y-60980000D02*
X123050000Y-60980000D01*
X99395000Y-53890000D02*
X99395000Y-55923516D01*
X120695000Y-60569250D02*
X120695000Y-60825000D01*
X99785000Y-53500000D02*
X99395000Y-53890000D01*
X111850000Y-59924247D02*
X112050000Y-59924247D01*
X113850000Y-59924247D02*
X114050000Y-59924247D01*
X99395000Y-55923516D02*
X104451484Y-60980000D01*
X130695000Y-60719252D02*
X130695000Y-60825000D01*
X131850000Y-60074247D02*
X132050000Y-60074247D01*
X119850000Y-59924250D02*
X120050000Y-59924250D01*
X128850000Y-60980000D02*
X129050000Y-60980000D01*
X122695000Y-60569252D02*
X122695000Y-60825000D01*
X124695000Y-60569250D02*
X124695000Y-60825000D01*
X133205000Y-60825000D02*
X133205000Y-60719252D01*
X112695000Y-60569247D02*
X112695000Y-60825000D01*
X121850000Y-59924252D02*
X122050000Y-59924252D01*
X115850000Y-59924250D02*
X116050000Y-59924250D01*
X121205000Y-60825000D02*
X121205000Y-60569252D01*
X132695000Y-60719247D02*
X132695000Y-60825000D01*
X131205000Y-60825000D02*
X131205000Y-60719247D01*
X117205000Y-60825000D02*
X117205000Y-60569250D01*
X127850000Y-60074250D02*
X128050000Y-60074250D01*
X125850000Y-59924252D02*
X126050000Y-59924252D01*
X113205000Y-60825000D02*
X113205000Y-60569247D01*
X137965000Y-63243516D02*
X137965000Y-64204999D01*
X129205000Y-60825000D02*
X129205000Y-60719252D01*
X114850000Y-60980000D02*
X115050000Y-60980000D01*
X112850000Y-60980000D02*
X113050000Y-60980000D01*
X133850000Y-60074252D02*
X134050000Y-60074252D01*
X114695000Y-60569247D02*
X114695000Y-60825000D01*
X116850000Y-60980000D02*
X117050000Y-60980000D01*
X135050000Y-60980000D02*
X135701484Y-60980000D01*
X119205000Y-60825000D02*
X119205000Y-60569250D01*
X126850000Y-60980000D02*
X127050000Y-60980000D01*
X125205000Y-60825000D02*
X125205000Y-60569252D01*
X138355000Y-64594999D02*
X138355000Y-64644999D01*
X123205000Y-60825000D02*
X123205000Y-60569250D01*
X120850000Y-60980000D02*
X121050000Y-60980000D01*
X118695000Y-60569250D02*
X118695000Y-60825000D01*
X116695000Y-60569250D02*
X116695000Y-60825000D01*
X123850000Y-59924250D02*
X124050000Y-59924250D01*
X115205000Y-60825000D02*
X115205000Y-60569250D01*
X134850000Y-60980000D02*
X135050000Y-60980000D01*
X118850000Y-60980000D02*
X119050000Y-60980000D01*
X104451484Y-60980000D02*
X111050000Y-60980000D01*
X132850000Y-60980000D02*
X133050000Y-60980000D01*
X128695000Y-60719250D02*
X128695000Y-60825000D01*
X117850000Y-59924250D02*
X118050000Y-59924250D01*
X124850000Y-60980000D02*
X125050000Y-60980000D01*
X135701484Y-60980000D02*
X137965000Y-63243516D01*
X116695000Y-60825000D02*
G75*
G03*
X116850000Y-60980000I155000J0D01*
G01*
X113205000Y-60569247D02*
G75*
G02*
X113850000Y-59924200I645000J47D01*
G01*
X123050000Y-60980000D02*
G75*
G03*
X123205000Y-60825000I0J155000D01*
G01*
X122695000Y-60825000D02*
G75*
G03*
X122850000Y-60980000I155000J0D01*
G01*
X130050000Y-60074252D02*
G75*
G02*
X130695048Y-60719252I0J-645048D01*
G01*
X132695000Y-60825000D02*
G75*
G03*
X132850000Y-60980000I155000J0D01*
G01*
X118050000Y-59924250D02*
G75*
G02*
X118694950Y-60569250I0J-644950D01*
G01*
X119205000Y-60569250D02*
G75*
G02*
X119850000Y-59924200I645000J50D01*
G01*
X125050000Y-60980000D02*
G75*
G03*
X125205000Y-60825000I0J155000D01*
G01*
X128050000Y-60074250D02*
G75*
G02*
X128694950Y-60719250I0J-644950D01*
G01*
X133205000Y-60719252D02*
G75*
G02*
X133850000Y-60074300I645000J-48D01*
G01*
X131050000Y-60980000D02*
G75*
G03*
X131205000Y-60825000I0J155000D01*
G01*
X120695000Y-60825000D02*
G75*
G03*
X120850000Y-60980000I155000J0D01*
G01*
X118695000Y-60825000D02*
G75*
G03*
X118850000Y-60980000I155000J0D01*
G01*
X128695000Y-60825000D02*
G75*
G03*
X128850000Y-60980000I155000J0D01*
G01*
X124695000Y-60825000D02*
G75*
G03*
X124850000Y-60980000I155000J0D01*
G01*
X127205000Y-60719250D02*
G75*
G02*
X127850000Y-60074200I645000J50D01*
G01*
X129205000Y-60719252D02*
G75*
G02*
X129850000Y-60074300I645000J-48D01*
G01*
X122050000Y-59924252D02*
G75*
G02*
X122695048Y-60569252I0J-645048D01*
G01*
X124050000Y-59924250D02*
G75*
G02*
X124694950Y-60569250I0J-644950D01*
G01*
X121050000Y-60980000D02*
G75*
G03*
X121205000Y-60825000I0J155000D01*
G01*
X114695000Y-60825000D02*
G75*
G03*
X114850000Y-60980000I155000J0D01*
G01*
X132050000Y-60074247D02*
G75*
G02*
X132694953Y-60719247I0J-644953D01*
G01*
X126695000Y-60825000D02*
G75*
G03*
X126850000Y-60980000I155000J0D01*
G01*
X125205000Y-60569252D02*
G75*
G02*
X125850000Y-59924300I645000J-48D01*
G01*
X134050000Y-60074252D02*
G75*
G02*
X134695048Y-60719252I0J-645048D01*
G01*
X117050000Y-60980000D02*
G75*
G03*
X117205000Y-60825000I0J155000D01*
G01*
X129050000Y-60980000D02*
G75*
G03*
X129205000Y-60825000I0J155000D01*
G01*
X123205000Y-60569250D02*
G75*
G02*
X123850000Y-59924200I645000J50D01*
G01*
X121205000Y-60569252D02*
G75*
G02*
X121850000Y-59924300I645000J-48D01*
G01*
X120050000Y-59924250D02*
G75*
G02*
X120694950Y-60569250I0J-644950D01*
G01*
X115205000Y-60569250D02*
G75*
G02*
X115850000Y-59924200I645000J50D01*
G01*
X131205000Y-60719247D02*
G75*
G02*
X131850000Y-60074200I645000J47D01*
G01*
X133050000Y-60980000D02*
G75*
G03*
X133205000Y-60825000I0J155000D01*
G01*
X113050000Y-60980000D02*
G75*
G03*
X113205000Y-60825000I0J155000D01*
G01*
X119050000Y-60980000D02*
G75*
G03*
X119205000Y-60825000I0J155000D01*
G01*
X111205000Y-60569247D02*
G75*
G02*
X111850000Y-59924200I645000J47D01*
G01*
X117205000Y-60569250D02*
G75*
G02*
X117850000Y-59924200I645000J50D01*
G01*
X126050000Y-59924252D02*
G75*
G02*
X126695048Y-60569252I0J-645048D01*
G01*
X111050000Y-60980000D02*
G75*
G03*
X111205000Y-60825000I0J155000D01*
G01*
X112695000Y-60825000D02*
G75*
G03*
X112850000Y-60980000I155000J0D01*
G01*
X127050000Y-60980000D02*
G75*
G03*
X127205000Y-60825000I0J155000D01*
G01*
X112050000Y-59924247D02*
G75*
G02*
X112694953Y-60569247I0J-644953D01*
G01*
X130695000Y-60825000D02*
G75*
G03*
X130850000Y-60980000I155000J0D01*
G01*
X134695000Y-60825000D02*
G75*
G03*
X134850000Y-60980000I155000J0D01*
G01*
X114050000Y-59924247D02*
G75*
G02*
X114694953Y-60569247I0J-644953D01*
G01*
X115050000Y-60980000D02*
G75*
G03*
X115205000Y-60825000I0J155000D01*
G01*
X116050000Y-59924250D02*
G75*
G02*
X116694950Y-60569250I0J-644950D01*
G01*
X124205000Y-60569250D02*
X124205000Y-60825000D01*
X129850000Y-60564252D02*
X130050000Y-60564252D01*
X127850000Y-60564250D02*
X128050000Y-60564250D01*
X115695000Y-60825000D02*
X115695000Y-60569250D01*
X117850000Y-60414250D02*
X118050000Y-60414250D01*
X113695000Y-60825000D02*
X113695000Y-60569247D01*
X114205000Y-60569247D02*
X114205000Y-60825000D01*
X121695000Y-60825000D02*
X121695000Y-60569252D01*
X137475000Y-63446484D02*
X137475000Y-64204999D01*
X121850000Y-60414252D02*
X122050000Y-60414252D01*
X122205000Y-60569252D02*
X122205000Y-60825000D01*
X130850000Y-61470000D02*
X131050000Y-61470000D01*
X134850000Y-61470000D02*
X135050000Y-61470000D01*
X130205000Y-60719252D02*
X130205000Y-60825000D01*
X131850000Y-60564247D02*
X132050000Y-60564247D01*
X98905000Y-56126484D02*
X104248516Y-61470000D01*
X118205000Y-60569250D02*
X118205000Y-60825000D01*
X134205000Y-60719252D02*
X134205000Y-60825000D01*
X131695000Y-60825000D02*
X131695000Y-60719247D01*
X104248516Y-61470000D02*
X111050000Y-61470000D01*
X111850000Y-60414247D02*
X112050000Y-60414247D01*
X112850000Y-61470000D02*
X113050000Y-61470000D01*
X127695000Y-60825000D02*
X127695000Y-60719250D01*
X116850000Y-61470000D02*
X117050000Y-61470000D01*
X125850000Y-60414252D02*
X126050000Y-60414252D01*
X120205000Y-60569250D02*
X120205000Y-60825000D01*
X123695000Y-60825000D02*
X123695000Y-60569250D01*
X124850000Y-61470000D02*
X125050000Y-61470000D01*
X133850000Y-60564252D02*
X134050000Y-60564252D01*
X119850000Y-60414250D02*
X120050000Y-60414250D01*
X114850000Y-61470000D02*
X115050000Y-61470000D01*
X137475000Y-64204999D02*
X137085000Y-64594999D01*
X132850000Y-61470000D02*
X133050000Y-61470000D01*
X112205000Y-60569247D02*
X112205000Y-60825000D01*
X111695000Y-60825000D02*
X111695000Y-60569247D01*
X116205000Y-60569250D02*
X116205000Y-60825000D01*
X123850000Y-60414250D02*
X124050000Y-60414250D01*
X128205000Y-60719250D02*
X128205000Y-60825000D01*
X98515000Y-53500000D02*
X98905000Y-53890000D01*
X135050000Y-61470000D02*
X135498516Y-61470000D01*
X118850000Y-61470000D02*
X119050000Y-61470000D01*
X135498516Y-61470000D02*
X137475000Y-63446484D01*
X128850000Y-61470000D02*
X129050000Y-61470000D01*
X129695000Y-60825000D02*
X129695000Y-60719252D01*
X98905000Y-53890000D02*
X98905000Y-56126484D01*
X132205000Y-60719247D02*
X132205000Y-60825000D01*
X137085000Y-64594999D02*
X137085000Y-66785000D01*
X119695000Y-60825000D02*
X119695000Y-60569250D01*
X113850000Y-60414247D02*
X114050000Y-60414247D01*
X133695000Y-60825000D02*
X133695000Y-60719252D01*
X126205000Y-60569252D02*
X126205000Y-60825000D01*
X120850000Y-61470000D02*
X121050000Y-61470000D01*
X115850000Y-60414250D02*
X116050000Y-60414250D01*
X126850000Y-61470000D02*
X127050000Y-61470000D01*
X125695000Y-60825000D02*
X125695000Y-60569252D01*
X122850000Y-61470000D02*
X123050000Y-61470000D01*
X117695000Y-60825000D02*
X117695000Y-60569250D01*
X125695000Y-60569252D02*
G75*
G02*
X125850000Y-60414300I155000J-48D01*
G01*
X112050000Y-60414247D02*
G75*
G02*
X112204953Y-60569247I0J-154953D01*
G01*
X128050000Y-60564250D02*
G75*
G02*
X128204950Y-60719250I0J-154950D01*
G01*
X130050000Y-60564252D02*
G75*
G02*
X130205048Y-60719252I0J-155048D01*
G01*
X132050000Y-60564247D02*
G75*
G02*
X132204953Y-60719247I0J-154953D01*
G01*
X115695000Y-60569250D02*
G75*
G02*
X115850000Y-60414200I155000J50D01*
G01*
X119695000Y-60569250D02*
G75*
G02*
X119850000Y-60414200I155000J50D01*
G01*
X124205000Y-60825000D02*
G75*
G03*
X124850000Y-61470000I645000J0D01*
G01*
X125050000Y-61470000D02*
G75*
G03*
X125695000Y-60825000I0J645000D01*
G01*
X127050000Y-61470000D02*
G75*
G03*
X127695000Y-60825000I0J645000D01*
G01*
X121695000Y-60569252D02*
G75*
G02*
X121850000Y-60414300I155000J-48D01*
G01*
X127695000Y-60719250D02*
G75*
G02*
X127850000Y-60564200I155000J50D01*
G01*
X111050000Y-61470000D02*
G75*
G03*
X111695000Y-60825000I0J645000D01*
G01*
X113695000Y-60569247D02*
G75*
G02*
X113850000Y-60414200I155000J47D01*
G01*
X122205000Y-60825000D02*
G75*
G03*
X122850000Y-61470000I645000J0D01*
G01*
X111695000Y-60569247D02*
G75*
G02*
X111850000Y-60414200I155000J47D01*
G01*
X124050000Y-60414250D02*
G75*
G02*
X124204950Y-60569250I0J-154950D01*
G01*
X122050000Y-60414252D02*
G75*
G02*
X122205048Y-60569252I0J-155048D01*
G01*
X134050000Y-60564252D02*
G75*
G02*
X134205048Y-60719252I0J-155048D01*
G01*
X130205000Y-60825000D02*
G75*
G03*
X130850000Y-61470000I645000J0D01*
G01*
X129695000Y-60719252D02*
G75*
G02*
X129850000Y-60564300I155000J-48D01*
G01*
X117695000Y-60569250D02*
G75*
G02*
X117850000Y-60414200I155000J50D01*
G01*
X131050000Y-61470000D02*
G75*
G03*
X131695000Y-60825000I0J645000D01*
G01*
X123695000Y-60569250D02*
G75*
G02*
X123850000Y-60414200I155000J50D01*
G01*
X126205000Y-60825000D02*
G75*
G03*
X126850000Y-61470000I645000J0D01*
G01*
X120050000Y-60414250D02*
G75*
G02*
X120204950Y-60569250I0J-154950D01*
G01*
X129050000Y-61470000D02*
G75*
G03*
X129695000Y-60825000I0J645000D01*
G01*
X132205000Y-60825000D02*
G75*
G03*
X132850000Y-61470000I645000J0D01*
G01*
X115050000Y-61470000D02*
G75*
G03*
X115695000Y-60825000I0J645000D01*
G01*
X118205000Y-60825000D02*
G75*
G03*
X118850000Y-61470000I645000J0D01*
G01*
X121050000Y-61470000D02*
G75*
G03*
X121695000Y-60825000I0J645000D01*
G01*
X114205000Y-60825000D02*
G75*
G03*
X114850000Y-61470000I645000J0D01*
G01*
X116205000Y-60825000D02*
G75*
G03*
X116850000Y-61470000I645000J0D01*
G01*
X112205000Y-60825000D02*
G75*
G03*
X112850000Y-61470000I645000J0D01*
G01*
X120205000Y-60825000D02*
G75*
G03*
X120850000Y-61470000I645000J0D01*
G01*
X134205000Y-60825000D02*
G75*
G03*
X134850000Y-61470000I645000J0D01*
G01*
X128205000Y-60825000D02*
G75*
G03*
X128850000Y-61470000I645000J0D01*
G01*
X126050000Y-60414252D02*
G75*
G02*
X126205048Y-60569252I0J-155048D01*
G01*
X114050000Y-60414247D02*
G75*
G02*
X114204953Y-60569247I0J-154953D01*
G01*
X116050000Y-60414250D02*
G75*
G02*
X116204950Y-60569250I0J-154950D01*
G01*
X131695000Y-60719247D02*
G75*
G02*
X131850000Y-60564200I155000J47D01*
G01*
X133050000Y-61470000D02*
G75*
G03*
X133695000Y-60825000I0J645000D01*
G01*
X119050000Y-61470000D02*
G75*
G03*
X119695000Y-60825000I0J645000D01*
G01*
X117050000Y-61470000D02*
G75*
G03*
X117695000Y-60825000I0J645000D01*
G01*
X133695000Y-60719252D02*
G75*
G02*
X133850000Y-60564300I155000J-48D01*
G01*
X113050000Y-61470000D02*
G75*
G03*
X113695000Y-60825000I0J645000D01*
G01*
X118050000Y-60414250D02*
G75*
G02*
X118204950Y-60569250I0J-154950D01*
G01*
X123050000Y-61470000D02*
G75*
G03*
X123695000Y-60825000I0J645000D01*
G01*
X45095000Y-63908516D02*
X45095000Y-64204999D01*
X86205000Y-53890000D02*
X86205000Y-56795000D01*
X45095000Y-64204999D02*
X44705000Y-64594999D01*
X80970000Y-62030000D02*
X46973516Y-62030000D01*
X44705000Y-64594999D02*
X44705000Y-66785000D01*
X86205000Y-56795000D02*
X80970000Y-62030000D01*
X85815000Y-53500000D02*
X86205000Y-53890000D01*
X46973516Y-62030000D02*
X45095000Y-63908516D01*
X79855000Y-53890000D02*
X79855000Y-57323516D01*
X40015000Y-62763516D02*
X40015000Y-64204999D01*
X39625000Y-64594999D02*
X39625000Y-66785000D01*
X79855000Y-57323516D02*
X77223516Y-59955000D01*
X79465000Y-53500000D02*
X79855000Y-53890000D01*
X77223516Y-59955000D02*
X42823516Y-59955000D01*
X42823516Y-59955000D02*
X40015000Y-62763516D01*
X40015000Y-64204999D02*
X39625000Y-64594999D01*
X73510000Y-53895000D02*
X73115000Y-53500000D01*
X34545000Y-64594999D02*
X34935000Y-64204999D01*
X35078518Y-60030797D02*
X34995610Y-59947889D01*
X34995610Y-59035721D02*
X35137032Y-58894300D01*
X34935000Y-62325000D02*
X34935000Y-60393516D01*
X36351311Y-58977209D02*
X36492732Y-58835787D01*
X34935000Y-60393516D02*
X35078517Y-60250001D01*
X36492732Y-58835787D02*
X37101758Y-58226758D01*
X34545000Y-66785000D02*
X34545000Y-64594999D01*
X73510000Y-54993516D02*
X73510000Y-53895000D01*
X36049200Y-58894299D02*
X36132109Y-58977208D01*
X37798516Y-57530000D02*
X70973516Y-57530000D01*
X34935000Y-64204999D02*
X34935000Y-62325000D01*
X37101758Y-58226758D02*
X37798516Y-57530000D01*
X70973516Y-57530000D02*
X73510000Y-54993516D01*
X34995610Y-59947889D02*
G75*
G02*
X34995605Y-59035716I456090J456089D01*
G01*
X36132109Y-58977208D02*
G75*
G03*
X36351301Y-58977199I109591J109608D01*
G01*
X35137032Y-58894300D02*
G75*
G02*
X36049184Y-58894315I456068J-456100D01*
G01*
X35078517Y-60250001D02*
G75*
G03*
X35078516Y-60030798I-109617J109601D01*
G01*
X81172965Y-62520000D02*
X47176480Y-62520000D01*
X86695000Y-56997965D02*
X81172965Y-62520000D01*
X45975000Y-64550000D02*
X45975000Y-66785000D01*
X87085000Y-53500000D02*
X86695000Y-53890000D01*
X45585000Y-64160000D02*
X45975000Y-64550000D01*
X45585000Y-64111480D02*
X45585000Y-64160000D01*
X47176480Y-62520000D02*
X45585000Y-64111480D01*
X86695000Y-53890000D02*
X86695000Y-56997965D01*
X120100000Y-56327816D02*
X120300000Y-56327816D01*
X128945000Y-56972816D02*
X128945000Y-56975000D01*
X129455000Y-56975000D02*
X129455000Y-56972800D01*
X117100000Y-57130000D02*
X117300000Y-57130000D01*
X141973242Y-60351758D02*
X143045000Y-61423516D01*
X132945000Y-56972816D02*
X132945000Y-56975000D01*
X134100000Y-56327800D02*
X134300000Y-56327800D01*
X140167791Y-58546308D02*
X140309212Y-58687730D01*
X141866443Y-59456880D02*
X141582003Y-59741317D01*
X118100000Y-56327816D02*
X118300000Y-56327816D01*
X128100000Y-56327816D02*
X128300000Y-56327816D01*
X107401484Y-57130000D02*
X111300000Y-57130000D01*
X141725022Y-58403291D02*
X141866443Y-58544712D01*
X114100000Y-56327816D02*
X114300000Y-56327816D01*
X122945000Y-56972816D02*
X122945000Y-56975000D01*
X113100000Y-57130000D02*
X113300000Y-57130000D01*
X105745000Y-53890000D02*
X105745000Y-55473516D01*
X124945000Y-56972816D02*
X124945000Y-56975000D01*
X135100000Y-57130000D02*
X135300000Y-57130000D01*
X106135000Y-53500000D02*
X105745000Y-53890000D01*
X143435000Y-64594999D02*
X143435000Y-66785000D01*
X112945000Y-56972816D02*
X112945000Y-56975000D01*
X141582004Y-59960521D02*
X141723425Y-60101943D01*
X127100000Y-57130000D02*
X127300000Y-57130000D01*
X143045000Y-61423516D02*
X143045000Y-64204999D01*
X120945000Y-56972816D02*
X120945000Y-56975000D01*
X123455000Y-56975000D02*
X123455000Y-56972816D01*
X124100000Y-56327816D02*
X124300000Y-56327816D01*
X143045000Y-64204999D02*
X143435000Y-64594999D01*
X140528415Y-58687729D02*
X140812854Y-58403291D01*
X140452190Y-58042707D02*
X140167790Y-58327104D01*
X136945000Y-56972800D02*
X136945000Y-56975000D01*
X127455000Y-56975000D02*
X127455000Y-56972816D01*
X138751484Y-57130000D02*
X138894998Y-57273515D01*
X137100000Y-57130000D02*
X137300000Y-57130000D01*
X129100000Y-57130000D02*
X129300000Y-57130000D01*
X141723425Y-60101943D02*
X141973242Y-60351758D01*
X115455000Y-56975000D02*
X115455000Y-56972816D01*
X105745000Y-55473516D02*
X107401484Y-57130000D01*
X140310769Y-56989118D02*
X140452190Y-57130539D01*
X114945000Y-56972816D02*
X114945000Y-56975000D01*
X111455000Y-56975000D02*
X111455000Y-56972816D01*
X130100000Y-56327800D02*
X130300000Y-56327800D01*
X134945000Y-56972800D02*
X134945000Y-56975000D01*
X117455000Y-56975000D02*
X117455000Y-56972816D01*
X125100000Y-57130000D02*
X125300000Y-57130000D01*
X140309212Y-58687730D02*
X140309211Y-58687728D01*
X115100000Y-57130000D02*
X115300000Y-57130000D01*
X132100000Y-56327816D02*
X132300000Y-56327816D01*
X112100000Y-56327816D02*
X112300000Y-56327816D01*
X130945000Y-56972800D02*
X130945000Y-56975000D01*
X125455000Y-56975000D02*
X125455000Y-56972816D01*
X126945000Y-56972816D02*
X126945000Y-56975000D01*
X121455000Y-56975000D02*
X121455000Y-56972816D01*
X136100000Y-56327800D02*
X136300000Y-56327800D01*
X133100000Y-57130000D02*
X133300000Y-57130000D01*
X133455000Y-56975000D02*
X133455000Y-56972800D01*
X123100000Y-57130000D02*
X123300000Y-57130000D01*
X116100000Y-56327816D02*
X116300000Y-56327816D01*
X139114202Y-57273516D02*
X139398601Y-56989118D01*
X122100000Y-56327816D02*
X122300000Y-56327816D01*
X119455000Y-56975000D02*
X119455000Y-56972816D01*
X131100000Y-57130000D02*
X131300000Y-57130000D01*
X118945000Y-56972816D02*
X118945000Y-56975000D01*
X121100000Y-57130000D02*
X121300000Y-57130000D01*
X126100000Y-56327816D02*
X126300000Y-56327816D01*
X113455000Y-56975000D02*
X113455000Y-56972816D01*
X119100000Y-57130000D02*
X119300000Y-57130000D01*
X131455000Y-56975000D02*
X131455000Y-56972816D01*
X135455000Y-56975000D02*
X135455000Y-56972800D01*
X137300000Y-57130000D02*
X138751484Y-57130000D01*
X116945000Y-56972816D02*
X116945000Y-56975000D01*
X136945000Y-56975000D02*
G75*
G03*
X137100000Y-57130000I155000J0D01*
G01*
X123300000Y-57130000D02*
G75*
G03*
X123455000Y-56975000I0J155000D01*
G01*
X131300000Y-57130000D02*
G75*
G03*
X131455000Y-56975000I0J155000D01*
G01*
X115300000Y-57130000D02*
G75*
G03*
X115455000Y-56975000I0J155000D01*
G01*
X117300000Y-57130000D02*
G75*
G03*
X117455000Y-56975000I0J155000D01*
G01*
X140812854Y-58403291D02*
G75*
G02*
X141725022Y-58403291I456084J-456085D01*
G01*
X114300000Y-56327816D02*
G75*
G02*
X114944984Y-56972816I0J-644984D01*
G01*
X111300000Y-57130000D02*
G75*
G03*
X111455000Y-56975000I0J155000D01*
G01*
X135300000Y-57130000D02*
G75*
G03*
X135455000Y-56975000I0J155000D01*
G01*
X122300000Y-56327816D02*
G75*
G02*
X122944984Y-56972816I0J-644984D01*
G01*
X125300000Y-57130000D02*
G75*
G03*
X125455000Y-56975000I0J155000D01*
G01*
X117455000Y-56972816D02*
G75*
G02*
X118100000Y-56327800I645000J16D01*
G01*
X141582003Y-59741317D02*
G75*
G03*
X141582022Y-59960502I109597J-109583D01*
G01*
X120945000Y-56975000D02*
G75*
G03*
X121100000Y-57130000I155000J0D01*
G01*
X126300000Y-56327816D02*
G75*
G02*
X126944984Y-56972816I0J-644984D01*
G01*
X111455000Y-56972816D02*
G75*
G02*
X112100000Y-56327800I645000J16D01*
G01*
X121455000Y-56972816D02*
G75*
G02*
X122100000Y-56327800I645000J16D01*
G01*
X140452190Y-57130539D02*
G75*
G02*
X140452167Y-58042684I-456090J-456061D01*
G01*
X134300000Y-56327800D02*
G75*
G02*
X134945000Y-56972800I0J-645000D01*
G01*
X127455000Y-56972816D02*
G75*
G02*
X128100000Y-56327800I645000J16D01*
G01*
X128945000Y-56975000D02*
G75*
G03*
X129100000Y-57130000I155000J0D01*
G01*
X119300000Y-57130000D02*
G75*
G03*
X119455000Y-56975000I0J155000D01*
G01*
X131455000Y-56972816D02*
G75*
G02*
X132100000Y-56327800I645000J16D01*
G01*
X129300000Y-57130000D02*
G75*
G03*
X129455000Y-56975000I0J155000D01*
G01*
X124945000Y-56975000D02*
G75*
G03*
X125100000Y-57130000I155000J0D01*
G01*
X138894998Y-57273515D02*
G75*
G03*
X139114202Y-57273515I109602J109615D01*
G01*
X136300000Y-56327800D02*
G75*
G02*
X136945000Y-56972800I0J-645000D01*
G01*
X130300000Y-56327800D02*
G75*
G02*
X130945000Y-56972800I0J-645000D01*
G01*
X133455000Y-56972800D02*
G75*
G02*
X134100000Y-56327800I645000J0D01*
G01*
X113455000Y-56972816D02*
G75*
G02*
X114100000Y-56327800I645000J16D01*
G01*
X120300000Y-56327816D02*
G75*
G02*
X120944984Y-56972816I0J-644984D01*
G01*
X123455000Y-56972816D02*
G75*
G02*
X124100000Y-56327800I645000J16D01*
G01*
X134945000Y-56975000D02*
G75*
G03*
X135100000Y-57130000I155000J0D01*
G01*
X126945000Y-56975000D02*
G75*
G03*
X127100000Y-57130000I155000J0D01*
G01*
X133300000Y-57130000D02*
G75*
G03*
X133455000Y-56975000I0J155000D01*
G01*
X129455000Y-56972800D02*
G75*
G02*
X130100000Y-56327800I645000J0D01*
G01*
X124300000Y-56327816D02*
G75*
G02*
X124944984Y-56972816I0J-644984D01*
G01*
X118300000Y-56327816D02*
G75*
G02*
X118944984Y-56972816I0J-644984D01*
G01*
X140309211Y-58687728D02*
G75*
G03*
X140528402Y-58687716I109589J109628D01*
G01*
X127300000Y-57130000D02*
G75*
G03*
X127455000Y-56975000I0J155000D01*
G01*
X112945000Y-56975000D02*
G75*
G03*
X113100000Y-57130000I155000J0D01*
G01*
X132945000Y-56975000D02*
G75*
G03*
X133100000Y-57130000I155000J0D01*
G01*
X140167790Y-58327104D02*
G75*
G03*
X140167796Y-58546303I109610J-109596D01*
G01*
X135455000Y-56972800D02*
G75*
G02*
X136100000Y-56327800I645000J0D01*
G01*
X122945000Y-56975000D02*
G75*
G03*
X123100000Y-57130000I155000J0D01*
G01*
X130945000Y-56975000D02*
G75*
G03*
X131100000Y-57130000I155000J0D01*
G01*
X139398601Y-56989118D02*
G75*
G02*
X140310769Y-56989118I456084J-456085D01*
G01*
X118945000Y-56975000D02*
G75*
G03*
X119100000Y-57130000I155000J0D01*
G01*
X121300000Y-57130000D02*
G75*
G03*
X121455000Y-56975000I0J155000D01*
G01*
X125455000Y-56972816D02*
G75*
G02*
X126100000Y-56327800I645000J16D01*
G01*
X119455000Y-56972816D02*
G75*
G02*
X120100000Y-56327800I645000J16D01*
G01*
X116945000Y-56975000D02*
G75*
G03*
X117100000Y-57130000I155000J0D01*
G01*
X112300000Y-56327816D02*
G75*
G02*
X112944984Y-56972816I0J-644984D01*
G01*
X114945000Y-56975000D02*
G75*
G03*
X115100000Y-57130000I155000J0D01*
G01*
X113300000Y-57130000D02*
G75*
G03*
X113455000Y-56975000I0J155000D01*
G01*
X141866443Y-58544712D02*
G75*
G02*
X141866447Y-59456884I-456043J-456088D01*
G01*
X128300000Y-56327816D02*
G75*
G02*
X128944984Y-56972816I0J-644984D01*
G01*
X132300000Y-56327816D02*
G75*
G02*
X132944984Y-56972816I0J-644984D01*
G01*
X115455000Y-56972816D02*
G75*
G02*
X116100000Y-56327800I645000J16D01*
G01*
X116300000Y-56327816D02*
G75*
G02*
X116944984Y-56972816I0J-644984D01*
G01*
X42165000Y-64594999D02*
X42165000Y-66785000D01*
X79770000Y-61005000D02*
X44973516Y-61005000D01*
X42555000Y-64204999D02*
X42165000Y-64594999D01*
X44973516Y-61005000D02*
X42555000Y-63423516D01*
X42555000Y-63423516D02*
X42555000Y-64204999D01*
X82395500Y-58379500D02*
X79770000Y-61005000D01*
X82395500Y-53889500D02*
X82395500Y-58379500D01*
X82006000Y-53500000D02*
X82395500Y-53889500D01*
D12*
X145340000Y-90875000D02*
X145340000Y-93395000D01*
X146610000Y-90875000D02*
X146610000Y-93395000D01*
X46610000Y-90874000D02*
X46610000Y-93395000D01*
X45340000Y-90874000D02*
X45340000Y-93395000D01*
%TA.AperFunction,Conductor*%
G36*
X35306911Y-99191627D02*
G01*
X35309708Y-99196112D01*
X35493250Y-99732413D01*
X35492686Y-99741350D01*
X35486686Y-99746998D01*
X35184506Y-99873119D01*
X35175552Y-99873143D01*
X35175494Y-99873119D01*
X34873313Y-99746998D01*
X34866998Y-99740649D01*
X34866749Y-99732413D01*
X35050292Y-99196112D01*
X35056213Y-99189394D01*
X35061362Y-99188200D01*
X35298638Y-99188200D01*
X35306911Y-99191627D01*
G37*
%TD.AperFunction*%
%TA.AperFunction,Conductor*%
G36*
X101937375Y-106028942D02*
G01*
X102394089Y-106252754D01*
X102446384Y-106278381D01*
X102452305Y-106285099D01*
X102452056Y-106293335D01*
X102327563Y-106596190D01*
X102321248Y-106602539D01*
X102321190Y-106602563D01*
X102018335Y-106727056D01*
X102009381Y-106727032D01*
X102003381Y-106721384D01*
X101942030Y-106596190D01*
X101753942Y-106212376D01*
X101753379Y-106203441D01*
X101756174Y-106198958D01*
X101923957Y-106031175D01*
X101932229Y-106027749D01*
X101937375Y-106028942D01*
G37*
%TD.AperFunction*%
%TA.AperFunction,Conductor*%
G36*
X149911911Y-72317627D02*
G01*
X149914708Y-72322112D01*
X150098250Y-72858413D01*
X150097686Y-72867350D01*
X150091686Y-72872998D01*
X149789506Y-72999119D01*
X149780552Y-72999143D01*
X149780494Y-72999119D01*
X149478313Y-72872998D01*
X149471998Y-72866649D01*
X149471749Y-72858413D01*
X149655292Y-72322112D01*
X149661213Y-72315394D01*
X149666362Y-72314200D01*
X149903638Y-72314200D01*
X149911911Y-72317627D01*
G37*
%TD.AperFunction*%
%TA.AperFunction,Conductor*%
G36*
X41836686Y-91001001D02*
G01*
X41843001Y-91007350D01*
X41843250Y-91015586D01*
X41659708Y-91551888D01*
X41653787Y-91558606D01*
X41648638Y-91559800D01*
X41411362Y-91559800D01*
X41403089Y-91556373D01*
X41400292Y-91551888D01*
X41216749Y-91015586D01*
X41217313Y-91006649D01*
X41223311Y-91001002D01*
X41525495Y-90874879D01*
X41534446Y-90874856D01*
X41836686Y-91001001D01*
G37*
%TD.AperFunction*%
%TA.AperFunction,Conductor*%
G36*
X135506333Y-91001854D02*
G01*
X135512648Y-91008203D01*
X135512760Y-91016817D01*
X135356825Y-91426059D01*
X135310145Y-91548570D01*
X135309871Y-91549288D01*
X135303723Y-91555799D01*
X135298938Y-91556822D01*
X135061635Y-91556822D01*
X135053362Y-91553395D01*
X135050455Y-91548570D01*
X134886469Y-91016817D01*
X134886332Y-91016372D01*
X134887168Y-91007458D01*
X134893003Y-91002131D01*
X135195495Y-90875879D01*
X135204446Y-90875856D01*
X135506333Y-91001854D01*
G37*
%TD.AperFunction*%
%TA.AperFunction,Conductor*%
G36*
X32131911Y-72317627D02*
G01*
X32134708Y-72322112D01*
X32318250Y-72858413D01*
X32317686Y-72867350D01*
X32311686Y-72872998D01*
X32009506Y-72999119D01*
X32000552Y-72999143D01*
X32000494Y-72999119D01*
X31698313Y-72872998D01*
X31691998Y-72866649D01*
X31691749Y-72858413D01*
X31875292Y-72322112D01*
X31881213Y-72315394D01*
X31886362Y-72314200D01*
X32123638Y-72314200D01*
X32131911Y-72317627D01*
G37*
%TD.AperFunction*%
%TA.AperFunction,Conductor*%
G36*
X103207375Y-106028942D02*
G01*
X103664089Y-106252754D01*
X103716384Y-106278381D01*
X103722305Y-106285099D01*
X103722056Y-106293335D01*
X103597563Y-106596190D01*
X103591248Y-106602539D01*
X103591190Y-106602563D01*
X103288335Y-106727056D01*
X103279381Y-106727032D01*
X103273381Y-106721384D01*
X103212030Y-106596190D01*
X103023942Y-106212376D01*
X103023379Y-106203441D01*
X103026174Y-106198958D01*
X103193957Y-106031175D01*
X103202229Y-106027749D01*
X103207375Y-106028942D01*
G37*
%TD.AperFunction*%
%TA.AperFunction,Conductor*%
G36*
X35506333Y-91000854D02*
G01*
X35512648Y-91007203D01*
X35512760Y-91015817D01*
X35356825Y-91425059D01*
X35310145Y-91547570D01*
X35309871Y-91548288D01*
X35303723Y-91554799D01*
X35298938Y-91555822D01*
X35061635Y-91555822D01*
X35053362Y-91552395D01*
X35050455Y-91547570D01*
X34886469Y-91015817D01*
X34886332Y-91015372D01*
X34887168Y-91006458D01*
X34893003Y-91001131D01*
X35195495Y-90874879D01*
X35204446Y-90874856D01*
X35506333Y-91000854D01*
G37*
%TD.AperFunction*%
%TA.AperFunction,Conductor*%
G36*
X36756686Y-91001001D02*
G01*
X36763001Y-91007350D01*
X36763250Y-91015586D01*
X36579708Y-91551888D01*
X36573787Y-91558606D01*
X36568638Y-91559800D01*
X36331362Y-91559800D01*
X36323089Y-91556373D01*
X36320292Y-91551888D01*
X36136749Y-91015586D01*
X36137313Y-91006649D01*
X36143311Y-91001002D01*
X36445495Y-90874879D01*
X36454446Y-90874856D01*
X36756686Y-91001001D01*
G37*
%TD.AperFunction*%
%TA.AperFunction,Conductor*%
G36*
X40566686Y-91001001D02*
G01*
X40573001Y-91007350D01*
X40573250Y-91015586D01*
X40389708Y-91551888D01*
X40383787Y-91558606D01*
X40378638Y-91559800D01*
X40141362Y-91559800D01*
X40133089Y-91556373D01*
X40130292Y-91551888D01*
X39946749Y-91015586D01*
X39947313Y-91006649D01*
X39953311Y-91001002D01*
X40255495Y-90874879D01*
X40264446Y-90874856D01*
X40566686Y-91001001D01*
G37*
%TD.AperFunction*%
%TA.AperFunction,Conductor*%
G36*
X105179162Y-53373566D02*
G01*
X105185476Y-53379915D01*
X105185756Y-53380668D01*
X105394875Y-54008862D01*
X105394237Y-54017794D01*
X105387469Y-54023658D01*
X105383774Y-54024257D01*
X105113013Y-54024257D01*
X105107363Y-54022803D01*
X105098279Y-54017794D01*
X105060301Y-53996852D01*
X104742932Y-53821845D01*
X104737342Y-53814849D01*
X104737768Y-53807134D01*
X104863141Y-53503501D01*
X104869463Y-53497165D01*
X105170208Y-53373542D01*
X105179162Y-53373566D01*
G37*
%TD.AperFunction*%
%TA.AperFunction,Conductor*%
G36*
X46916686Y-91001001D02*
G01*
X46923001Y-91007350D01*
X46923250Y-91015586D01*
X46739708Y-91551888D01*
X46733787Y-91558606D01*
X46728638Y-91559800D01*
X46491362Y-91559800D01*
X46483089Y-91556373D01*
X46480292Y-91551888D01*
X46296749Y-91015586D01*
X46297313Y-91006649D01*
X46303311Y-91001002D01*
X46605495Y-90874879D01*
X46614446Y-90874856D01*
X46916686Y-91001001D01*
G37*
%TD.AperFunction*%
%TA.AperFunction,Conductor*%
G36*
X102019795Y-53373543D02*
G01*
X102320493Y-53497147D01*
X102326842Y-53503461D01*
X102326859Y-53503503D01*
X102452236Y-53807144D01*
X102452226Y-53816098D01*
X102447082Y-53821849D01*
X102174803Y-53972341D01*
X102086701Y-54021037D01*
X102083142Y-54023004D01*
X102077482Y-54024464D01*
X101806713Y-54024464D01*
X101798440Y-54021037D01*
X101795013Y-54012764D01*
X101795609Y-54009077D01*
X102004250Y-53380680D01*
X102010109Y-53373908D01*
X102019041Y-53373263D01*
X102019795Y-53373543D01*
G37*
%TD.AperFunction*%
%TA.AperFunction,Conductor*%
G36*
X82969795Y-53373543D02*
G01*
X83270493Y-53497147D01*
X83276842Y-53503461D01*
X83276859Y-53503503D01*
X83402236Y-53807144D01*
X83402226Y-53816098D01*
X83397082Y-53821849D01*
X83124803Y-53972341D01*
X83036701Y-54021037D01*
X83033142Y-54023004D01*
X83027482Y-54024464D01*
X82756713Y-54024464D01*
X82748440Y-54021037D01*
X82745013Y-54012764D01*
X82745609Y-54009077D01*
X82954250Y-53380680D01*
X82960109Y-53373908D01*
X82969041Y-53373263D01*
X82969795Y-53373543D01*
G37*
%TD.AperFunction*%
%TA.AperFunction,Conductor*%
G36*
X139296686Y-91002001D02*
G01*
X139303001Y-91008350D01*
X139303250Y-91016586D01*
X139119708Y-91552888D01*
X139113787Y-91559606D01*
X139108638Y-91560800D01*
X138871362Y-91560800D01*
X138863089Y-91557373D01*
X138860292Y-91552888D01*
X138676749Y-91016586D01*
X138677313Y-91007649D01*
X138683311Y-91002002D01*
X138985495Y-90875879D01*
X138994446Y-90875856D01*
X139296686Y-91002001D01*
G37*
%TD.AperFunction*%
%TA.AperFunction,Conductor*%
G36*
X80429788Y-53373540D02*
G01*
X80730493Y-53497147D01*
X80736842Y-53503461D01*
X80736859Y-53503503D01*
X80862231Y-53807134D01*
X80862221Y-53816088D01*
X80857067Y-53821845D01*
X80492637Y-54022803D01*
X80486987Y-54024257D01*
X80216226Y-54024257D01*
X80207953Y-54020830D01*
X80204526Y-54012557D01*
X80205125Y-54008862D01*
X80375469Y-53497147D01*
X80414244Y-53380666D01*
X80420107Y-53373900D01*
X80429039Y-53373262D01*
X80429788Y-53373540D01*
G37*
%TD.AperFunction*%
%TA.AperFunction,Conductor*%
G36*
X86779788Y-53373540D02*
G01*
X87080493Y-53497147D01*
X87086842Y-53503461D01*
X87086859Y-53503503D01*
X87212231Y-53807134D01*
X87212221Y-53816088D01*
X87207067Y-53821845D01*
X86842637Y-54022803D01*
X86836987Y-54024257D01*
X86566226Y-54024257D01*
X86557953Y-54020830D01*
X86554526Y-54012557D01*
X86555125Y-54008862D01*
X86725469Y-53497147D01*
X86764244Y-53380666D01*
X86770107Y-53373900D01*
X86779039Y-53373262D01*
X86779788Y-53373540D01*
G37*
%TD.AperFunction*%
%TA.AperFunction,Conductor*%
G36*
X113157888Y-106470292D02*
G01*
X113164606Y-106476213D01*
X113165800Y-106481362D01*
X113165800Y-106718637D01*
X113162373Y-106726910D01*
X113157888Y-106729707D01*
X112621586Y-106913250D01*
X112612649Y-106912686D01*
X112607001Y-106906687D01*
X112480879Y-106604504D01*
X112480856Y-106595552D01*
X112607002Y-106293311D01*
X112613350Y-106286998D01*
X112621586Y-106286749D01*
X113157888Y-106470292D01*
G37*
%TD.AperFunction*%
%TA.AperFunction,Conductor*%
G36*
X98829162Y-53373566D02*
G01*
X98835476Y-53379915D01*
X98835756Y-53380668D01*
X99044875Y-54008862D01*
X99044237Y-54017794D01*
X99037469Y-54023658D01*
X99033774Y-54024257D01*
X98763013Y-54024257D01*
X98757363Y-54022803D01*
X98748279Y-54017794D01*
X98710301Y-53996852D01*
X98392932Y-53821845D01*
X98387342Y-53814849D01*
X98387768Y-53807134D01*
X98513141Y-53503501D01*
X98519463Y-53497165D01*
X98820208Y-53373542D01*
X98829162Y-53373566D01*
G37*
%TD.AperFunction*%
%TA.AperFunction,Conductor*%
G36*
X99479788Y-53373540D02*
G01*
X99780493Y-53497147D01*
X99786842Y-53503461D01*
X99786859Y-53503503D01*
X99912231Y-53807134D01*
X99912221Y-53816088D01*
X99907067Y-53821845D01*
X99542637Y-54022803D01*
X99536987Y-54024257D01*
X99266226Y-54024257D01*
X99257953Y-54020830D01*
X99254526Y-54012557D01*
X99255125Y-54008862D01*
X99425469Y-53497147D01*
X99464244Y-53380666D01*
X99470107Y-53373900D01*
X99479039Y-53373262D01*
X99479788Y-53373540D01*
G37*
%TD.AperFunction*%
%TA.AperFunction,Conductor*%
G36*
X109076043Y-106031176D02*
G01*
X109243823Y-106198956D01*
X109247250Y-106207229D01*
X109246056Y-106212378D01*
X108996618Y-106721384D01*
X108989900Y-106727305D01*
X108981664Y-106727056D01*
X108678809Y-106602563D01*
X108672460Y-106596248D01*
X108672436Y-106596190D01*
X108547943Y-106293335D01*
X108547967Y-106284381D01*
X108553614Y-106278381D01*
X109062623Y-106028942D01*
X109071558Y-106028379D01*
X109076043Y-106031176D01*
G37*
%TD.AperFunction*%
%TA.AperFunction,Conductor*%
G36*
X92543501Y-52918634D02*
G01*
X92736365Y-53111498D01*
X92739792Y-53119771D01*
X92738443Y-53125226D01*
X92476757Y-53621811D01*
X92469868Y-53627532D01*
X92461958Y-53627177D01*
X92158809Y-53502563D01*
X92152460Y-53496248D01*
X92152436Y-53496190D01*
X92027822Y-53193041D01*
X92027846Y-53184087D01*
X92033185Y-53178244D01*
X92529774Y-52916555D01*
X92538690Y-52915731D01*
X92543501Y-52918634D01*
G37*
%TD.AperFunction*%
%TA.AperFunction,Conductor*%
G36*
X143106686Y-91002001D02*
G01*
X143113001Y-91008350D01*
X143113250Y-91016586D01*
X142929708Y-91552888D01*
X142923787Y-91559606D01*
X142918638Y-91560800D01*
X142681362Y-91560800D01*
X142673089Y-91557373D01*
X142670292Y-91552888D01*
X142486749Y-91016586D01*
X142487313Y-91007649D01*
X142493311Y-91002002D01*
X142795495Y-90875879D01*
X142804446Y-90875856D01*
X143106686Y-91002001D01*
G37*
%TD.AperFunction*%
%TA.AperFunction,Conductor*%
G36*
X76619788Y-53373540D02*
G01*
X76920493Y-53497147D01*
X76926842Y-53503461D01*
X76926859Y-53503503D01*
X77052231Y-53807134D01*
X77052221Y-53816088D01*
X77047067Y-53821845D01*
X76682637Y-54022803D01*
X76676987Y-54024257D01*
X76406226Y-54024257D01*
X76397953Y-54020830D01*
X76394526Y-54012557D01*
X76395125Y-54008862D01*
X76565469Y-53497147D01*
X76604244Y-53380666D01*
X76610107Y-53373900D01*
X76619039Y-53373262D01*
X76619788Y-53373540D01*
G37*
%TD.AperFunction*%
%TA.AperFunction,Conductor*%
G36*
X145646686Y-91002001D02*
G01*
X145653001Y-91008350D01*
X145653250Y-91016586D01*
X145469708Y-91552888D01*
X145463787Y-91559606D01*
X145458638Y-91560800D01*
X145221362Y-91560800D01*
X145213089Y-91557373D01*
X145210292Y-91552888D01*
X145026749Y-91016586D01*
X145027313Y-91007649D01*
X145033311Y-91002002D01*
X145335495Y-90875879D01*
X145344446Y-90875856D01*
X145646686Y-91002001D01*
G37*
%TD.AperFunction*%
%TA.AperFunction,Conductor*%
G36*
X140566686Y-91002001D02*
G01*
X140573001Y-91008350D01*
X140573250Y-91016586D01*
X140389708Y-91552888D01*
X140383787Y-91559606D01*
X140378638Y-91560800D01*
X140141362Y-91560800D01*
X140133089Y-91557373D01*
X140130292Y-91552888D01*
X139946749Y-91016586D01*
X139947313Y-91007649D01*
X139953311Y-91002002D01*
X140255495Y-90875879D01*
X140264446Y-90875856D01*
X140566686Y-91002001D01*
G37*
%TD.AperFunction*%
%TA.AperFunction,Conductor*%
G36*
X104477375Y-106028942D02*
G01*
X104934089Y-106252754D01*
X104986384Y-106278381D01*
X104992305Y-106285099D01*
X104992056Y-106293335D01*
X104867563Y-106596190D01*
X104861248Y-106602539D01*
X104861190Y-106602563D01*
X104558335Y-106727056D01*
X104549381Y-106727032D01*
X104543381Y-106721384D01*
X104482030Y-106596190D01*
X104293942Y-106212376D01*
X104293379Y-106203441D01*
X104296174Y-106198958D01*
X104463957Y-106031175D01*
X104472229Y-106027749D01*
X104477375Y-106028942D01*
G37*
%TD.AperFunction*%
%TA.AperFunction,Conductor*%
G36*
X79779162Y-53373566D02*
G01*
X79785476Y-53379915D01*
X79785756Y-53380668D01*
X79994875Y-54008862D01*
X79994237Y-54017794D01*
X79987469Y-54023658D01*
X79983774Y-54024257D01*
X79713013Y-54024257D01*
X79707363Y-54022803D01*
X79698279Y-54017794D01*
X79660301Y-53996852D01*
X79342932Y-53821845D01*
X79337342Y-53814849D01*
X79337768Y-53807134D01*
X79463141Y-53503501D01*
X79469463Y-53497165D01*
X79770208Y-53373542D01*
X79779162Y-53373566D01*
G37*
%TD.AperFunction*%
%TA.AperFunction,Conductor*%
G36*
X82320152Y-53373570D02*
G01*
X82326466Y-53379919D01*
X82326749Y-53380680D01*
X82535391Y-54009077D01*
X82534746Y-54018009D01*
X82527974Y-54023868D01*
X82524287Y-54024464D01*
X82253518Y-54024464D01*
X82247858Y-54023004D01*
X82222660Y-54009077D01*
X81883917Y-53821849D01*
X81878334Y-53814848D01*
X81878762Y-53807147D01*
X82004141Y-53503501D01*
X82010463Y-53497165D01*
X82311198Y-53373546D01*
X82320152Y-53373570D01*
G37*
%TD.AperFunction*%
%TA.AperFunction,Conductor*%
G36*
X89319606Y-53373465D02*
G01*
X89620493Y-53497147D01*
X89626842Y-53503461D01*
X89626859Y-53503503D01*
X89752153Y-53806945D01*
X89752143Y-53815899D01*
X89746789Y-53821763D01*
X89423843Y-53991770D01*
X89392226Y-54008415D01*
X89372559Y-54018768D01*
X89367109Y-54020115D01*
X89096496Y-54020115D01*
X89088223Y-54016688D01*
X89084796Y-54008415D01*
X89085453Y-54004550D01*
X89304123Y-53380417D01*
X89310092Y-53373746D01*
X89319033Y-53373247D01*
X89319606Y-53373465D01*
G37*
%TD.AperFunction*%
%TA.AperFunction,Conductor*%
G36*
X75969162Y-53373566D02*
G01*
X75975476Y-53379915D01*
X75975756Y-53380668D01*
X76184875Y-54008862D01*
X76184237Y-54017794D01*
X76177469Y-54023658D01*
X76173774Y-54024257D01*
X75903013Y-54024257D01*
X75897363Y-54022803D01*
X75888279Y-54017794D01*
X75850301Y-53996852D01*
X75532932Y-53821845D01*
X75527342Y-53814849D01*
X75527768Y-53807134D01*
X75653141Y-53503501D01*
X75659463Y-53497165D01*
X75960208Y-53373542D01*
X75969162Y-53373566D01*
G37*
%TD.AperFunction*%
%TA.AperFunction,Conductor*%
G36*
X105829788Y-53373540D02*
G01*
X106130493Y-53497147D01*
X106136842Y-53503461D01*
X106136859Y-53503503D01*
X106262231Y-53807134D01*
X106262221Y-53816088D01*
X106257067Y-53821845D01*
X105892637Y-54022803D01*
X105886987Y-54024257D01*
X105616226Y-54024257D01*
X105607953Y-54020830D01*
X105604526Y-54012557D01*
X105605125Y-54008862D01*
X105775469Y-53497147D01*
X105814244Y-53380666D01*
X105820107Y-53373900D01*
X105829039Y-53373262D01*
X105829788Y-53373540D01*
G37*
%TD.AperFunction*%
%TA.AperFunction,Conductor*%
G36*
X135306911Y-99192627D02*
G01*
X135309708Y-99197112D01*
X135493250Y-99733413D01*
X135492686Y-99742350D01*
X135486686Y-99747998D01*
X135184506Y-99874119D01*
X135175552Y-99874143D01*
X135175494Y-99874119D01*
X134873313Y-99747998D01*
X134866998Y-99741649D01*
X134866749Y-99733413D01*
X135050292Y-99197112D01*
X135056213Y-99190394D01*
X135061362Y-99189200D01*
X135298638Y-99189200D01*
X135306911Y-99192627D01*
G37*
%TD.AperFunction*%
%TA.AperFunction,Conductor*%
G36*
X99394688Y-106026293D02*
G01*
X99900755Y-106277647D01*
X99906640Y-106284397D01*
X99906371Y-106292574D01*
X99781856Y-106595483D01*
X99775541Y-106601832D01*
X99775483Y-106601856D01*
X99472690Y-106726324D01*
X99463736Y-106726300D01*
X99457705Y-106720588D01*
X99399519Y-106600000D01*
X99211163Y-106209640D01*
X99210655Y-106200701D01*
X99213426Y-106196286D01*
X99381213Y-106028499D01*
X99389485Y-106025073D01*
X99394688Y-106026293D01*
G37*
%TD.AperFunction*%
%TA.AperFunction,Conductor*%
G36*
X107699342Y-53373492D02*
G01*
X107705656Y-53379841D01*
X107705875Y-53380416D01*
X107924545Y-54004547D01*
X107924047Y-54013487D01*
X107917373Y-54019457D01*
X107913504Y-54020115D01*
X107642891Y-54020115D01*
X107637441Y-54018768D01*
X107263210Y-53821763D01*
X107257485Y-53814877D01*
X107257846Y-53806945D01*
X107383141Y-53503501D01*
X107389463Y-53497165D01*
X107690388Y-53373468D01*
X107699342Y-53373492D01*
G37*
%TD.AperFunction*%
%TA.AperFunction,Conductor*%
G36*
X88649342Y-53373492D02*
G01*
X88655656Y-53379841D01*
X88655875Y-53380416D01*
X88874545Y-54004547D01*
X88874047Y-54013487D01*
X88867373Y-54019457D01*
X88863504Y-54020115D01*
X88592891Y-54020115D01*
X88587441Y-54018768D01*
X88213210Y-53821763D01*
X88207485Y-53814877D01*
X88207846Y-53806945D01*
X88333141Y-53503501D01*
X88339463Y-53497165D01*
X88640388Y-53373468D01*
X88649342Y-53373492D01*
G37*
%TD.AperFunction*%
%TA.AperFunction,Conductor*%
G36*
X132131911Y-72317627D02*
G01*
X132134708Y-72322112D01*
X132318250Y-72858413D01*
X132317686Y-72867350D01*
X132311686Y-72872998D01*
X132009506Y-72999119D01*
X132000552Y-72999143D01*
X132000494Y-72999119D01*
X131698313Y-72872998D01*
X131691998Y-72866649D01*
X131691749Y-72858413D01*
X131875292Y-72322112D01*
X131881213Y-72315394D01*
X131886362Y-72314200D01*
X132123638Y-72314200D01*
X132131911Y-72317627D01*
G37*
%TD.AperFunction*%
%TA.AperFunction,Conductor*%
G36*
X98839664Y-106599972D02*
G01*
X98847929Y-106603416D01*
X98851339Y-106611696D01*
X98851248Y-106613132D01*
X98788251Y-107114168D01*
X98784915Y-107120981D01*
X98617696Y-107288200D01*
X98609423Y-107291627D01*
X98601150Y-107288200D01*
X98600055Y-107286936D01*
X98273586Y-106850558D01*
X98271374Y-106841881D01*
X98274655Y-106835302D01*
X98505852Y-106602753D01*
X98514115Y-106599303D01*
X98514153Y-106599303D01*
X98839664Y-106599972D01*
G37*
%TD.AperFunction*%
%TA.AperFunction,Conductor*%
G36*
X45646686Y-91001001D02*
G01*
X45653001Y-91007350D01*
X45653250Y-91015586D01*
X45469708Y-91551888D01*
X45463787Y-91558606D01*
X45458638Y-91559800D01*
X45221362Y-91559800D01*
X45213089Y-91556373D01*
X45210292Y-91551888D01*
X45026749Y-91015586D01*
X45027313Y-91006649D01*
X45033311Y-91001002D01*
X45335495Y-90874879D01*
X45344446Y-90874856D01*
X45646686Y-91001001D01*
G37*
%TD.AperFunction*%
%TA.AperFunction,Conductor*%
G36*
X95019162Y-53373566D02*
G01*
X95025476Y-53379915D01*
X95025756Y-53380668D01*
X95234875Y-54008862D01*
X95234237Y-54017794D01*
X95227469Y-54023658D01*
X95223774Y-54024257D01*
X94953013Y-54024257D01*
X94947363Y-54022803D01*
X94938279Y-54017794D01*
X94900301Y-53996852D01*
X94582932Y-53821845D01*
X94577342Y-53814849D01*
X94577768Y-53807134D01*
X94703141Y-53503501D01*
X94709463Y-53497165D01*
X95010208Y-53373542D01*
X95019162Y-53373566D01*
G37*
%TD.AperFunction*%
%TA.AperFunction,Conductor*%
G36*
X43106686Y-91001001D02*
G01*
X43113001Y-91007350D01*
X43113250Y-91015586D01*
X42929708Y-91551888D01*
X42923787Y-91558606D01*
X42918638Y-91559800D01*
X42681362Y-91559800D01*
X42673089Y-91556373D01*
X42670292Y-91551888D01*
X42486749Y-91015586D01*
X42487313Y-91006649D01*
X42493311Y-91001002D01*
X42795495Y-90874879D01*
X42804446Y-90874856D01*
X43106686Y-91001001D01*
G37*
%TD.AperFunction*%
%TA.AperFunction,Conductor*%
G36*
X101370152Y-53373570D02*
G01*
X101376466Y-53379919D01*
X101376749Y-53380680D01*
X101585391Y-54009077D01*
X101584746Y-54018009D01*
X101577974Y-54023868D01*
X101574287Y-54024464D01*
X101303518Y-54024464D01*
X101297858Y-54023004D01*
X101272660Y-54009077D01*
X100933917Y-53821849D01*
X100928334Y-53814848D01*
X100928762Y-53807147D01*
X101054141Y-53503501D01*
X101060463Y-53497165D01*
X101361198Y-53373546D01*
X101370152Y-53373570D01*
G37*
%TD.AperFunction*%
%TA.AperFunction,Conductor*%
G36*
X138026686Y-91002001D02*
G01*
X138033001Y-91008350D01*
X138033250Y-91016586D01*
X137849708Y-91552888D01*
X137843787Y-91559606D01*
X137838638Y-91560800D01*
X137601362Y-91560800D01*
X137593089Y-91557373D01*
X137590292Y-91552888D01*
X137406749Y-91016586D01*
X137407313Y-91007649D01*
X137413311Y-91002002D01*
X137715495Y-90875879D01*
X137724446Y-90875856D01*
X138026686Y-91002001D01*
G37*
%TD.AperFunction*%
%TA.AperFunction,Conductor*%
G36*
X86129162Y-53373566D02*
G01*
X86135476Y-53379915D01*
X86135756Y-53380668D01*
X86344875Y-54008862D01*
X86344237Y-54017794D01*
X86337469Y-54023658D01*
X86333774Y-54024257D01*
X86063013Y-54024257D01*
X86057363Y-54022803D01*
X86048279Y-54017794D01*
X86010301Y-53996852D01*
X85692932Y-53821845D01*
X85687342Y-53814849D01*
X85687768Y-53807134D01*
X85813141Y-53503501D01*
X85819463Y-53497165D01*
X86120208Y-53373542D01*
X86129162Y-53373566D01*
G37*
%TD.AperFunction*%
%TA.AperFunction,Conductor*%
G36*
X74089697Y-53373503D02*
G01*
X74390493Y-53497147D01*
X74396842Y-53503461D01*
X74396859Y-53503503D01*
X74522192Y-53807040D01*
X74522182Y-53815994D01*
X74516927Y-53821805D01*
X74234078Y-53974193D01*
X74166717Y-54010486D01*
X74147599Y-54020786D01*
X74142050Y-54022186D01*
X73871361Y-54022186D01*
X73863088Y-54018759D01*
X73859661Y-54010486D01*
X73860289Y-54006704D01*
X74032180Y-53503503D01*
X74074183Y-53380542D01*
X74080099Y-53373823D01*
X74089036Y-53373254D01*
X74089697Y-53373503D01*
G37*
%TD.AperFunction*%
%TA.AperFunction,Conductor*%
G36*
X95669788Y-53373540D02*
G01*
X95970493Y-53497147D01*
X95976842Y-53503461D01*
X95976859Y-53503503D01*
X96102231Y-53807134D01*
X96102221Y-53816088D01*
X96097067Y-53821845D01*
X95732637Y-54022803D01*
X95726987Y-54024257D01*
X95456226Y-54024257D01*
X95447953Y-54020830D01*
X95444526Y-54012557D01*
X95445125Y-54008862D01*
X95615469Y-53497147D01*
X95654244Y-53380666D01*
X95660107Y-53373900D01*
X95669039Y-53373262D01*
X95669788Y-53373540D01*
G37*
%TD.AperFunction*%
%TA.AperFunction,Conductor*%
G36*
X49911911Y-72317627D02*
G01*
X49914708Y-72322112D01*
X50098250Y-72858413D01*
X50097686Y-72867350D01*
X50091686Y-72872998D01*
X49789506Y-72999119D01*
X49780552Y-72999143D01*
X49780494Y-72999119D01*
X49478313Y-72872998D01*
X49471998Y-72866649D01*
X49471749Y-72858413D01*
X49655292Y-72322112D01*
X49661213Y-72315394D01*
X49666362Y-72314200D01*
X49903638Y-72314200D01*
X49911911Y-72317627D01*
G37*
%TD.AperFunction*%
%TA.AperFunction,Conductor*%
G36*
X144376686Y-91002001D02*
G01*
X144383001Y-91008350D01*
X144383250Y-91016586D01*
X144199708Y-91552888D01*
X144193787Y-91559606D01*
X144188638Y-91560800D01*
X143951362Y-91560800D01*
X143943089Y-91557373D01*
X143940292Y-91552888D01*
X143756749Y-91016586D01*
X143757313Y-91007649D01*
X143763311Y-91002002D01*
X144065495Y-90875879D01*
X144074446Y-90875856D01*
X144376686Y-91002001D01*
G37*
%TD.AperFunction*%
%TA.AperFunction,Conductor*%
G36*
X93410816Y-52750172D02*
G01*
X93414268Y-52752559D01*
X93605444Y-52943735D01*
X93608244Y-52948228D01*
X93748256Y-53358401D01*
X93747685Y-53367338D01*
X93741672Y-53372985D01*
X93438792Y-53498837D01*
X93429838Y-53498847D01*
X93429796Y-53498830D01*
X93129319Y-53373418D01*
X93123005Y-53367069D01*
X93123029Y-53358114D01*
X93123139Y-53357861D01*
X93395337Y-52756009D01*
X93401866Y-52749885D01*
X93410816Y-52750172D01*
G37*
%TD.AperFunction*%
%TA.AperFunction,Conductor*%
G36*
X103910618Y-106472967D02*
G01*
X103916618Y-106478615D01*
X104166056Y-106987621D01*
X104166620Y-106996558D01*
X104163823Y-107001043D01*
X103996043Y-107168823D01*
X103987770Y-107172250D01*
X103982621Y-107171056D01*
X103829529Y-107096033D01*
X103473615Y-106921618D01*
X103467694Y-106914900D01*
X103467942Y-106906665D01*
X103592437Y-106603807D01*
X103598750Y-106597460D01*
X103901665Y-106472943D01*
X103910618Y-106472967D01*
G37*
%TD.AperFunction*%
%TA.AperFunction,Conductor*%
G36*
X141836686Y-91002001D02*
G01*
X141843001Y-91008350D01*
X141843250Y-91016586D01*
X141659708Y-91552888D01*
X141653787Y-91559606D01*
X141648638Y-91560800D01*
X141411362Y-91560800D01*
X141403089Y-91557373D01*
X141400292Y-91552888D01*
X141216749Y-91016586D01*
X141217313Y-91007649D01*
X141223311Y-91002002D01*
X141525495Y-90875879D01*
X141534446Y-90875856D01*
X141836686Y-91002001D01*
G37*
%TD.AperFunction*%
%TA.AperFunction,Conductor*%
G36*
X146916686Y-91002001D02*
G01*
X146923001Y-91008350D01*
X146923250Y-91016586D01*
X146739708Y-91552888D01*
X146733787Y-91559606D01*
X146728638Y-91560800D01*
X146491362Y-91560800D01*
X146483089Y-91557373D01*
X146480292Y-91552888D01*
X146296749Y-91016586D01*
X146297313Y-91007649D01*
X146303311Y-91002002D01*
X146605495Y-90875879D01*
X146614446Y-90875856D01*
X146916686Y-91002001D01*
G37*
%TD.AperFunction*%
%TA.AperFunction,Conductor*%
G36*
X44376686Y-91001001D02*
G01*
X44383001Y-91007350D01*
X44383250Y-91015586D01*
X44199708Y-91551888D01*
X44193787Y-91558606D01*
X44188638Y-91559800D01*
X43951362Y-91559800D01*
X43943089Y-91556373D01*
X43940292Y-91551888D01*
X43756749Y-91015586D01*
X43757313Y-91006649D01*
X43763311Y-91001002D01*
X44065495Y-90874879D01*
X44074446Y-90874856D01*
X44376686Y-91001001D01*
G37*
%TD.AperFunction*%
%TA.AperFunction,Conductor*%
G36*
X39296686Y-91001001D02*
G01*
X39303001Y-91007350D01*
X39303250Y-91015586D01*
X39119708Y-91551888D01*
X39113787Y-91558606D01*
X39108638Y-91559800D01*
X38871362Y-91559800D01*
X38863089Y-91556373D01*
X38860292Y-91551888D01*
X38676749Y-91015586D01*
X38677313Y-91006649D01*
X38683311Y-91001002D01*
X38985495Y-90874879D01*
X38994446Y-90874856D01*
X39296686Y-91001001D01*
G37*
%TD.AperFunction*%
%TA.AperFunction,Conductor*%
G36*
X73429252Y-53373529D02*
G01*
X73435566Y-53379878D01*
X73435817Y-53380544D01*
X73649711Y-54006704D01*
X73649142Y-54015641D01*
X73642421Y-54021558D01*
X73638639Y-54022186D01*
X73367950Y-54022186D01*
X73362401Y-54020786D01*
X73352851Y-54015641D01*
X72993072Y-53821805D01*
X72987414Y-53814864D01*
X72987807Y-53807040D01*
X73113141Y-53503501D01*
X73119463Y-53497165D01*
X73420298Y-53373505D01*
X73429252Y-53373529D01*
G37*
%TD.AperFunction*%
%TA.AperFunction,Conductor*%
G36*
X108369606Y-53373465D02*
G01*
X108670493Y-53497147D01*
X108676842Y-53503461D01*
X108676859Y-53503503D01*
X108802153Y-53806945D01*
X108802143Y-53815899D01*
X108796789Y-53821763D01*
X108473843Y-53991770D01*
X108442226Y-54008415D01*
X108422559Y-54018768D01*
X108417109Y-54020115D01*
X108146496Y-54020115D01*
X108138223Y-54016688D01*
X108134796Y-54008415D01*
X108135453Y-54004550D01*
X108354123Y-53380417D01*
X108360092Y-53373746D01*
X108369033Y-53373247D01*
X108369606Y-53373465D01*
G37*
%TD.AperFunction*%
%TA.AperFunction,Conductor*%
G36*
X38046333Y-91000854D02*
G01*
X38052648Y-91007203D01*
X38052760Y-91015817D01*
X37896825Y-91425059D01*
X37850145Y-91547570D01*
X37849871Y-91548288D01*
X37843723Y-91554799D01*
X37838938Y-91555822D01*
X37601635Y-91555822D01*
X37593362Y-91552395D01*
X37590455Y-91547570D01*
X37426469Y-91015817D01*
X37426332Y-91015372D01*
X37427168Y-91006458D01*
X37433003Y-91001131D01*
X37735495Y-90874879D01*
X37744446Y-90874856D01*
X38046333Y-91000854D01*
G37*
%TD.AperFunction*%
M02*
