%TF.GenerationSoftware,KiCad,Pcbnew,8.0.3-8.0.3-0~ubuntu24.04.1*%
%TF.CreationDate,2024-07-15T14:42:22+02:00*%
%TF.ProjectId,MainBoard,4d61696e-426f-4617-9264-2e6b69636164,rev?*%
%TF.SameCoordinates,Original*%
%TF.FileFunction,Copper,L3,Inr*%
%TF.FilePolarity,Positive*%
%FSLAX46Y46*%
G04 Gerber Fmt 4.6, Leading zero omitted, Abs format (unit mm)*
G04 Created by KiCad (PCBNEW 8.0.3-8.0.3-0~ubuntu24.04.1) date 2024-07-15 14:42:22*
%MOMM*%
%LPD*%
G01*
G04 APERTURE LIST*
%TA.AperFunction,ViaPad*%
%ADD10C,0.685800*%
%TD*%
%TA.AperFunction,Conductor*%
%ADD11C,0.254000*%
%TD*%
G04 APERTURE END LIST*
D10*
%TO.N,+3V3*%
X100650000Y-91537500D03*
X87270200Y-92825000D03*
X102860000Y-91215000D03*
X78500000Y-89375000D03*
X110875000Y-86000000D03*
X105375000Y-85200000D03*
X78550000Y-92375000D03*
X121000000Y-98075000D03*
X120105000Y-45050000D03*
%TO.N,GND*%
X101055000Y-106600000D03*
X99775000Y-97600000D03*
%TD*%
D11*
%TO.N,GND*%
X101055000Y-99905000D02*
X101055000Y-106600000D01*
X99775000Y-98625000D02*
X101055000Y-99905000D01*
X99775000Y-97600000D02*
X99775000Y-98625000D01*
%TD*%
%TA.AperFunction,Conductor*%
%TO.N,+3V3*%
G36*
X155232539Y-43395185D02*
G01*
X155278294Y-43447989D01*
X155289500Y-43499500D01*
X155289500Y-109250500D01*
X155269815Y-109317539D01*
X155217011Y-109363294D01*
X155165500Y-109374500D01*
X27624500Y-109374500D01*
X27557461Y-109354815D01*
X27511706Y-109302011D01*
X27500500Y-109250500D01*
X27500500Y-106599999D01*
X78779511Y-106599999D01*
X78779511Y-106600000D01*
X78798994Y-106760459D01*
X78856312Y-106911595D01*
X78856313Y-106911596D01*
X78948128Y-107044611D01*
X78948130Y-107044613D01*
X78948132Y-107044616D01*
X79069119Y-107151802D01*
X79212241Y-107226918D01*
X79369181Y-107265600D01*
X79530819Y-107265600D01*
X79687759Y-107226918D01*
X79830881Y-107151802D01*
X79951868Y-107044616D01*
X80043689Y-106911592D01*
X80101006Y-106760459D01*
X80120489Y-106600000D01*
X80120489Y-106599999D01*
X87684511Y-106599999D01*
X87684511Y-106600000D01*
X87703994Y-106760459D01*
X87761312Y-106911595D01*
X87761313Y-106911596D01*
X87853128Y-107044611D01*
X87853130Y-107044613D01*
X87853132Y-107044616D01*
X87974119Y-107151802D01*
X88117241Y-107226918D01*
X88274181Y-107265600D01*
X88435819Y-107265600D01*
X88592759Y-107226918D01*
X88735881Y-107151802D01*
X88856868Y-107044616D01*
X88948689Y-106911592D01*
X89006006Y-106760459D01*
X89025489Y-106600000D01*
X89025489Y-106599999D01*
X94034511Y-106599999D01*
X94034511Y-106600000D01*
X94053994Y-106760459D01*
X94111312Y-106911595D01*
X94111313Y-106911596D01*
X94203128Y-107044611D01*
X94203130Y-107044613D01*
X94203132Y-107044616D01*
X94324119Y-107151802D01*
X94467241Y-107226918D01*
X94624181Y-107265600D01*
X94785819Y-107265600D01*
X94942759Y-107226918D01*
X95085881Y-107151802D01*
X95206868Y-107044616D01*
X95235450Y-107003207D01*
X95289733Y-106959218D01*
X95359182Y-106951558D01*
X95421747Y-106982662D01*
X95439548Y-107003206D01*
X95468132Y-107044616D01*
X95589119Y-107151802D01*
X95732241Y-107226918D01*
X95889181Y-107265600D01*
X96050819Y-107265600D01*
X96207759Y-107226918D01*
X96350881Y-107151802D01*
X96471868Y-107044616D01*
X96499616Y-107004417D01*
X96505451Y-106995964D01*
X96559734Y-106951974D01*
X96629182Y-106944315D01*
X96691747Y-106975419D01*
X96709549Y-106995964D01*
X96743128Y-107044611D01*
X96743130Y-107044613D01*
X96743132Y-107044616D01*
X96864119Y-107151802D01*
X97007241Y-107226918D01*
X97164181Y-107265600D01*
X97325819Y-107265600D01*
X97482759Y-107226918D01*
X97625881Y-107151802D01*
X97746868Y-107044616D01*
X97777950Y-106999585D01*
X97832233Y-106955596D01*
X97901682Y-106947936D01*
X97964246Y-106979040D01*
X97982048Y-106999583D01*
X98013132Y-107044616D01*
X98134119Y-107151802D01*
X98277241Y-107226918D01*
X98434181Y-107265600D01*
X98595819Y-107265600D01*
X98752759Y-107226918D01*
X98895881Y-107151802D01*
X99016868Y-107044616D01*
X99047950Y-106999585D01*
X99102233Y-106955596D01*
X99171682Y-106947936D01*
X99234246Y-106979040D01*
X99252048Y-106999583D01*
X99283132Y-107044616D01*
X99404119Y-107151802D01*
X99547241Y-107226918D01*
X99704181Y-107265600D01*
X99865819Y-107265600D01*
X100022759Y-107226918D01*
X100165881Y-107151802D01*
X100213465Y-107109645D01*
X100276697Y-107079925D01*
X100345961Y-107089107D01*
X100387842Y-107119489D01*
X100487543Y-107230219D01*
X100487546Y-107230221D01*
X100630977Y-107334429D01*
X100792933Y-107406538D01*
X100792936Y-107406538D01*
X100792939Y-107406540D01*
X100966355Y-107443400D01*
X101143645Y-107443400D01*
X101317061Y-107406540D01*
X101317064Y-107406538D01*
X101317066Y-107406538D01*
X101349869Y-107391932D01*
X101479023Y-107334429D01*
X101622454Y-107230221D01*
X101722158Y-107119489D01*
X101781644Y-107082840D01*
X101851501Y-107084170D01*
X101896533Y-107109644D01*
X101944119Y-107151802D01*
X102087241Y-107226918D01*
X102244181Y-107265600D01*
X102405819Y-107265600D01*
X102562759Y-107226918D01*
X102705881Y-107151802D01*
X102826868Y-107044616D01*
X102918689Y-106911592D01*
X102976006Y-106760459D01*
X102995489Y-106600000D01*
X102995489Y-106599999D01*
X104194511Y-106599999D01*
X104194511Y-106600000D01*
X104213994Y-106760459D01*
X104271312Y-106911595D01*
X104271313Y-106911596D01*
X104363128Y-107044611D01*
X104363130Y-107044613D01*
X104363132Y-107044616D01*
X104484119Y-107151802D01*
X104627241Y-107226918D01*
X104784181Y-107265600D01*
X104945819Y-107265600D01*
X105102759Y-107226918D01*
X105245881Y-107151802D01*
X105366868Y-107044616D01*
X105458689Y-106911592D01*
X105516006Y-106760459D01*
X105535489Y-106600000D01*
X105535489Y-106599999D01*
X106734511Y-106599999D01*
X106734511Y-106600000D01*
X106753994Y-106760459D01*
X106811312Y-106911595D01*
X106811313Y-106911596D01*
X106903128Y-107044611D01*
X106903130Y-107044613D01*
X106903132Y-107044616D01*
X107024119Y-107151802D01*
X107167241Y-107226918D01*
X107324181Y-107265600D01*
X107485819Y-107265600D01*
X107642759Y-107226918D01*
X107785881Y-107151802D01*
X107906868Y-107044616D01*
X107998689Y-106911592D01*
X108056006Y-106760459D01*
X108075489Y-106600000D01*
X108075489Y-106599999D01*
X111809511Y-106599999D01*
X111809511Y-106600000D01*
X111828994Y-106760459D01*
X111886312Y-106911595D01*
X111886313Y-106911596D01*
X111978128Y-107044611D01*
X111978130Y-107044613D01*
X111978132Y-107044616D01*
X112099119Y-107151802D01*
X112242241Y-107226918D01*
X112399181Y-107265600D01*
X112560819Y-107265600D01*
X112717759Y-107226918D01*
X112860881Y-107151802D01*
X112981868Y-107044616D01*
X113073689Y-106911592D01*
X113131006Y-106760459D01*
X113150489Y-106600000D01*
X113150489Y-106599999D01*
X120069511Y-106599999D01*
X120069511Y-106600000D01*
X120088994Y-106760459D01*
X120146312Y-106911595D01*
X120146313Y-106911596D01*
X120238128Y-107044611D01*
X120238130Y-107044613D01*
X120238132Y-107044616D01*
X120359119Y-107151802D01*
X120502241Y-107226918D01*
X120659181Y-107265600D01*
X120820819Y-107265600D01*
X120977759Y-107226918D01*
X121120881Y-107151802D01*
X121241868Y-107044616D01*
X121333689Y-106911592D01*
X121391006Y-106760459D01*
X121410489Y-106600000D01*
X121391006Y-106439541D01*
X121333689Y-106288408D01*
X121333687Y-106288406D01*
X121333687Y-106288404D01*
X121333686Y-106288403D01*
X121241871Y-106155388D01*
X121241867Y-106155383D01*
X121188831Y-106108397D01*
X121120881Y-106048198D01*
X120977759Y-105973082D01*
X120977758Y-105973081D01*
X120977757Y-105973081D01*
X120820819Y-105934400D01*
X120659181Y-105934400D01*
X120502242Y-105973081D01*
X120359120Y-106048197D01*
X120238132Y-106155383D01*
X120238128Y-106155388D01*
X120146313Y-106288403D01*
X120146312Y-106288404D01*
X120088994Y-106439540D01*
X120069511Y-106599999D01*
X113150489Y-106599999D01*
X113131006Y-106439541D01*
X113073689Y-106288408D01*
X113073687Y-106288406D01*
X113073687Y-106288404D01*
X113073686Y-106288403D01*
X112981871Y-106155388D01*
X112981867Y-106155383D01*
X112928831Y-106108397D01*
X112860881Y-106048198D01*
X112717759Y-105973082D01*
X112717758Y-105973081D01*
X112717757Y-105973081D01*
X112560819Y-105934400D01*
X112399181Y-105934400D01*
X112242242Y-105973081D01*
X112099120Y-106048197D01*
X111978132Y-106155383D01*
X111978128Y-106155388D01*
X111886313Y-106288403D01*
X111886312Y-106288404D01*
X111828994Y-106439540D01*
X111809511Y-106599999D01*
X108075489Y-106599999D01*
X108056006Y-106439541D01*
X107998689Y-106288408D01*
X107998687Y-106288406D01*
X107998687Y-106288404D01*
X107998686Y-106288403D01*
X107906871Y-106155388D01*
X107906867Y-106155383D01*
X107853831Y-106108397D01*
X107785881Y-106048198D01*
X107642759Y-105973082D01*
X107642758Y-105973081D01*
X107642757Y-105973081D01*
X107485819Y-105934400D01*
X107324181Y-105934400D01*
X107167242Y-105973081D01*
X107024120Y-106048197D01*
X106903132Y-106155383D01*
X106903128Y-106155388D01*
X106811313Y-106288403D01*
X106811312Y-106288404D01*
X106753994Y-106439540D01*
X106734511Y-106599999D01*
X105535489Y-106599999D01*
X105516006Y-106439541D01*
X105458689Y-106288408D01*
X105458687Y-106288406D01*
X105458687Y-106288404D01*
X105458686Y-106288403D01*
X105366871Y-106155388D01*
X105366867Y-106155383D01*
X105313831Y-106108397D01*
X105245881Y-106048198D01*
X105102759Y-105973082D01*
X105102758Y-105973081D01*
X105102757Y-105973081D01*
X104945819Y-105934400D01*
X104784181Y-105934400D01*
X104627242Y-105973081D01*
X104484120Y-106048197D01*
X104363132Y-106155383D01*
X104363128Y-106155388D01*
X104271313Y-106288403D01*
X104271312Y-106288404D01*
X104213994Y-106439540D01*
X104194511Y-106599999D01*
X102995489Y-106599999D01*
X102976006Y-106439541D01*
X102918689Y-106288408D01*
X102918687Y-106288406D01*
X102918687Y-106288404D01*
X102918686Y-106288403D01*
X102826871Y-106155388D01*
X102826867Y-106155383D01*
X102773831Y-106108397D01*
X102705881Y-106048198D01*
X102562759Y-105973082D01*
X102562758Y-105973081D01*
X102562757Y-105973081D01*
X102405819Y-105934400D01*
X102244181Y-105934400D01*
X102087242Y-105973081D01*
X101944117Y-106048198D01*
X101943764Y-106048512D01*
X101943449Y-106048659D01*
X101937947Y-106052458D01*
X101937315Y-106051542D01*
X101880528Y-106078227D01*
X101811265Y-106069038D01*
X101757966Y-106023861D01*
X101744225Y-105995840D01*
X101689180Y-105835001D01*
X101682500Y-105794850D01*
X101682500Y-104078872D01*
X143139500Y-104078872D01*
X143139500Y-104341127D01*
X143166123Y-104543339D01*
X143173730Y-104601116D01*
X143241602Y-104854418D01*
X143241605Y-104854428D01*
X143341953Y-105096690D01*
X143341958Y-105096700D01*
X143473075Y-105323803D01*
X143632718Y-105531851D01*
X143632726Y-105531860D01*
X143818140Y-105717274D01*
X143818148Y-105717281D01*
X144026196Y-105876924D01*
X144253299Y-106008041D01*
X144253309Y-106008046D01*
X144495571Y-106108394D01*
X144495581Y-106108398D01*
X144748884Y-106176270D01*
X145008880Y-106210500D01*
X145008887Y-106210500D01*
X145271113Y-106210500D01*
X145271120Y-106210500D01*
X145531116Y-106176270D01*
X145784419Y-106108398D01*
X146026697Y-106008043D01*
X146253803Y-105876924D01*
X146461851Y-105717282D01*
X146461855Y-105717277D01*
X146461860Y-105717274D01*
X146647274Y-105531860D01*
X146647277Y-105531855D01*
X146647282Y-105531851D01*
X146806924Y-105323803D01*
X146938043Y-105096697D01*
X147038398Y-104854419D01*
X147106270Y-104601116D01*
X147140500Y-104341120D01*
X147140500Y-104078880D01*
X147106270Y-103818884D01*
X147038398Y-103565581D01*
X147038394Y-103565571D01*
X146938046Y-103323309D01*
X146938041Y-103323299D01*
X146806924Y-103096196D01*
X146647281Y-102888148D01*
X146647274Y-102888140D01*
X146461860Y-102702726D01*
X146461851Y-102702718D01*
X146253803Y-102543075D01*
X146026700Y-102411958D01*
X146026690Y-102411953D01*
X145784428Y-102311605D01*
X145784421Y-102311603D01*
X145784419Y-102311602D01*
X145531116Y-102243730D01*
X145473339Y-102236123D01*
X145271127Y-102209500D01*
X145271120Y-102209500D01*
X145008880Y-102209500D01*
X145008872Y-102209500D01*
X144777772Y-102239926D01*
X144748884Y-102243730D01*
X144521709Y-102304601D01*
X144495581Y-102311602D01*
X144495571Y-102311605D01*
X144253309Y-102411953D01*
X144253299Y-102411958D01*
X144026196Y-102543075D01*
X143818148Y-102702718D01*
X143632718Y-102888148D01*
X143473075Y-103096196D01*
X143341958Y-103323299D01*
X143341953Y-103323309D01*
X143241605Y-103565571D01*
X143241602Y-103565581D01*
X143173730Y-103818885D01*
X143139500Y-104078872D01*
X101682500Y-104078872D01*
X101682500Y-102304603D01*
X122004499Y-102304603D01*
X122041410Y-102490161D01*
X122041413Y-102490171D01*
X122113814Y-102664965D01*
X122113816Y-102664968D01*
X122218927Y-102822278D01*
X122218933Y-102822286D01*
X122352713Y-102956066D01*
X122352721Y-102956072D01*
X122510031Y-103061183D01*
X122510034Y-103061185D01*
X122594562Y-103096197D01*
X122684833Y-103133588D01*
X122684837Y-103133588D01*
X122684838Y-103133589D01*
X122870396Y-103170500D01*
X122870399Y-103170500D01*
X123059603Y-103170500D01*
X123184442Y-103145667D01*
X123245167Y-103133588D01*
X123419967Y-103061184D01*
X123577283Y-102956069D01*
X123711069Y-102822283D01*
X123816184Y-102664967D01*
X123888588Y-102490167D01*
X123924107Y-102311605D01*
X123925500Y-102304603D01*
X123925500Y-102115396D01*
X123888589Y-101929838D01*
X123888588Y-101929837D01*
X123888588Y-101929833D01*
X123888586Y-101929828D01*
X123816185Y-101755034D01*
X123816183Y-101755031D01*
X123711072Y-101597721D01*
X123711066Y-101597713D01*
X123577286Y-101463933D01*
X123577278Y-101463927D01*
X123419968Y-101358816D01*
X123419965Y-101358814D01*
X123245171Y-101286413D01*
X123245161Y-101286410D01*
X123059603Y-101249500D01*
X123059601Y-101249500D01*
X122870399Y-101249500D01*
X122870397Y-101249500D01*
X122684838Y-101286410D01*
X122684828Y-101286413D01*
X122510034Y-101358814D01*
X122510031Y-101358816D01*
X122352721Y-101463927D01*
X122352713Y-101463933D01*
X122218933Y-101597713D01*
X122218927Y-101597721D01*
X122113816Y-101755031D01*
X122113814Y-101755034D01*
X122041413Y-101929828D01*
X122041410Y-101929838D01*
X122004500Y-102115396D01*
X122004500Y-102115399D01*
X122004500Y-102304601D01*
X122004500Y-102304603D01*
X122004499Y-102304603D01*
X101682500Y-102304603D01*
X101682500Y-99874999D01*
X134509511Y-99874999D01*
X134509511Y-99875000D01*
X134528994Y-100035459D01*
X134586312Y-100186595D01*
X134586313Y-100186596D01*
X134678128Y-100319611D01*
X134678132Y-100319616D01*
X134799119Y-100426802D01*
X134942241Y-100501918D01*
X135099181Y-100540600D01*
X135260819Y-100540600D01*
X135417759Y-100501918D01*
X135560881Y-100426802D01*
X135681868Y-100319616D01*
X135773689Y-100186592D01*
X135831006Y-100035459D01*
X135850489Y-99875000D01*
X135850367Y-99873999D01*
X135846627Y-99843194D01*
X135831006Y-99714541D01*
X135773689Y-99563408D01*
X135773687Y-99563406D01*
X135773687Y-99563404D01*
X135773686Y-99563403D01*
X135681871Y-99430388D01*
X135681867Y-99430383D01*
X135666288Y-99416582D01*
X135560881Y-99323198D01*
X135417759Y-99248082D01*
X135417758Y-99248081D01*
X135417757Y-99248081D01*
X135260819Y-99209400D01*
X135099181Y-99209400D01*
X134942242Y-99248081D01*
X134799120Y-99323197D01*
X134678132Y-99430383D01*
X134678128Y-99430388D01*
X134586313Y-99563403D01*
X134586312Y-99563404D01*
X134528994Y-99714540D01*
X134509511Y-99874999D01*
X101682500Y-99874999D01*
X101682500Y-99843194D01*
X101658386Y-99721970D01*
X101658385Y-99721969D01*
X101658385Y-99721965D01*
X101655310Y-99714541D01*
X101611086Y-99607773D01*
X101611079Y-99607760D01*
X101542412Y-99504993D01*
X101542411Y-99504992D01*
X101455008Y-99417589D01*
X100462130Y-98424711D01*
X100428645Y-98363388D01*
X100432492Y-98296879D01*
X100566513Y-97905278D01*
X100566513Y-97905275D01*
X100566517Y-97905266D01*
X100577356Y-97869280D01*
X100577571Y-97867370D01*
X100582858Y-97842967D01*
X100604512Y-97776325D01*
X100604513Y-97776321D01*
X100604514Y-97776319D01*
X100607280Y-97749999D01*
X105464511Y-97749999D01*
X105464511Y-97750000D01*
X105483994Y-97910459D01*
X105541312Y-98061595D01*
X105541313Y-98061596D01*
X105633128Y-98194611D01*
X105633132Y-98194616D01*
X105754119Y-98301802D01*
X105897241Y-98376918D01*
X106054181Y-98415600D01*
X106215819Y-98415600D01*
X106372759Y-98376918D01*
X106515881Y-98301802D01*
X106636868Y-98194616D01*
X106728689Y-98061592D01*
X106786006Y-97910459D01*
X106805489Y-97750000D01*
X106786006Y-97589541D01*
X106728689Y-97438408D01*
X106728687Y-97438406D01*
X106728687Y-97438404D01*
X106728686Y-97438403D01*
X106636871Y-97305388D01*
X106636867Y-97305383D01*
X106621288Y-97291582D01*
X106515881Y-97198198D01*
X106372759Y-97123082D01*
X106372758Y-97123081D01*
X106372757Y-97123081D01*
X106215819Y-97084400D01*
X106054181Y-97084400D01*
X105897242Y-97123081D01*
X105754120Y-97198197D01*
X105633132Y-97305383D01*
X105633128Y-97305388D01*
X105541313Y-97438403D01*
X105541312Y-97438404D01*
X105483994Y-97589540D01*
X105464511Y-97749999D01*
X100607280Y-97749999D01*
X100623046Y-97600000D01*
X100604514Y-97423681D01*
X100549729Y-97255069D01*
X100549728Y-97255068D01*
X100549728Y-97255066D01*
X100549727Y-97255065D01*
X100473526Y-97123082D01*
X100461084Y-97101531D01*
X100407677Y-97042217D01*
X100342456Y-96969780D01*
X100270738Y-96917675D01*
X100199023Y-96865571D01*
X100199021Y-96865570D01*
X100199022Y-96865570D01*
X100037066Y-96793461D01*
X100037058Y-96793459D01*
X99863645Y-96756600D01*
X99686355Y-96756600D01*
X99512941Y-96793459D01*
X99512933Y-96793461D01*
X99350978Y-96865570D01*
X99207543Y-96969780D01*
X99088915Y-97101532D01*
X99000272Y-97255065D01*
X99000271Y-97255066D01*
X98945487Y-97423677D01*
X98945486Y-97423679D01*
X98926954Y-97600000D01*
X98945486Y-97776319D01*
X98975608Y-97869028D01*
X98979514Y-97884292D01*
X98983480Y-97905258D01*
X98983481Y-97905260D01*
X98983482Y-97905264D01*
X98983483Y-97905267D01*
X99140270Y-98363388D01*
X99140820Y-98364996D01*
X99147500Y-98405147D01*
X99147500Y-98686807D01*
X99171612Y-98808027D01*
X99171614Y-98808035D01*
X99205062Y-98888785D01*
X99218915Y-98922229D01*
X99218920Y-98922239D01*
X99287588Y-99025007D01*
X99287591Y-99025011D01*
X100391181Y-100128600D01*
X100424666Y-100189923D01*
X100427500Y-100216281D01*
X100427500Y-105794853D01*
X100420819Y-105835005D01*
X100365774Y-105995842D01*
X100325443Y-106052895D01*
X100260668Y-106079087D01*
X100192016Y-106066101D01*
X100166228Y-106048505D01*
X100165882Y-106048198D01*
X100022757Y-105973081D01*
X99865819Y-105934400D01*
X99704181Y-105934400D01*
X99547242Y-105973081D01*
X99404120Y-106048197D01*
X99283132Y-106155383D01*
X99283128Y-106155388D01*
X99252049Y-106200414D01*
X99197766Y-106244404D01*
X99128317Y-106252063D01*
X99065753Y-106220959D01*
X99047951Y-106200414D01*
X99016871Y-106155388D01*
X99016867Y-106155383D01*
X98963831Y-106108397D01*
X98895881Y-106048198D01*
X98752759Y-105973082D01*
X98752758Y-105973081D01*
X98752757Y-105973081D01*
X98595819Y-105934400D01*
X98434181Y-105934400D01*
X98277242Y-105973081D01*
X98134120Y-106048197D01*
X98013132Y-106155383D01*
X98013128Y-106155388D01*
X97982049Y-106200414D01*
X97927766Y-106244404D01*
X97858317Y-106252063D01*
X97795753Y-106220959D01*
X97777951Y-106200414D01*
X97746871Y-106155388D01*
X97746867Y-106155383D01*
X97693831Y-106108397D01*
X97625881Y-106048198D01*
X97482759Y-105973082D01*
X97482758Y-105973081D01*
X97482757Y-105973081D01*
X97325819Y-105934400D01*
X97164181Y-105934400D01*
X97007242Y-105973081D01*
X96864120Y-106048197D01*
X96743132Y-106155383D01*
X96743131Y-106155384D01*
X96709549Y-106204036D01*
X96655265Y-106248025D01*
X96585816Y-106255683D01*
X96523252Y-106224579D01*
X96505451Y-106204036D01*
X96471868Y-106155384D01*
X96471867Y-106155383D01*
X96418831Y-106108397D01*
X96350881Y-106048198D01*
X96207759Y-105973082D01*
X96207758Y-105973081D01*
X96207757Y-105973081D01*
X96050819Y-105934400D01*
X95889181Y-105934400D01*
X95732242Y-105973081D01*
X95589120Y-106048197D01*
X95468132Y-106155383D01*
X95468128Y-106155388D01*
X95439549Y-106196792D01*
X95385266Y-106240782D01*
X95315817Y-106248441D01*
X95253253Y-106217337D01*
X95235451Y-106196792D01*
X95206871Y-106155388D01*
X95206867Y-106155383D01*
X95153831Y-106108397D01*
X95085881Y-106048198D01*
X94942759Y-105973082D01*
X94942758Y-105973081D01*
X94942757Y-105973081D01*
X94785819Y-105934400D01*
X94624181Y-105934400D01*
X94467242Y-105973081D01*
X94324120Y-106048197D01*
X94203132Y-106155383D01*
X94203128Y-106155388D01*
X94111313Y-106288403D01*
X94111312Y-106288404D01*
X94053994Y-106439540D01*
X94034511Y-106599999D01*
X89025489Y-106599999D01*
X89006006Y-106439541D01*
X88948689Y-106288408D01*
X88948687Y-106288406D01*
X88948687Y-106288404D01*
X88948686Y-106288403D01*
X88856871Y-106155388D01*
X88856867Y-106155383D01*
X88803831Y-106108397D01*
X88735881Y-106048198D01*
X88592759Y-105973082D01*
X88592758Y-105973081D01*
X88592757Y-105973081D01*
X88435819Y-105934400D01*
X88274181Y-105934400D01*
X88117242Y-105973081D01*
X87974120Y-106048197D01*
X87853132Y-106155383D01*
X87853128Y-106155388D01*
X87761313Y-106288403D01*
X87761312Y-106288404D01*
X87703994Y-106439540D01*
X87684511Y-106599999D01*
X80120489Y-106599999D01*
X80101006Y-106439541D01*
X80043689Y-106288408D01*
X80043687Y-106288406D01*
X80043687Y-106288404D01*
X80043686Y-106288403D01*
X79951871Y-106155388D01*
X79951867Y-106155383D01*
X79898831Y-106108397D01*
X79830881Y-106048198D01*
X79687759Y-105973082D01*
X79687758Y-105973081D01*
X79687757Y-105973081D01*
X79530819Y-105934400D01*
X79369181Y-105934400D01*
X79212242Y-105973081D01*
X79069120Y-106048197D01*
X78948132Y-106155383D01*
X78948128Y-106155388D01*
X78856313Y-106288403D01*
X78856312Y-106288404D01*
X78798994Y-106439540D01*
X78779511Y-106599999D01*
X27500500Y-106599999D01*
X27500500Y-104078872D01*
X47139500Y-104078872D01*
X47139500Y-104341127D01*
X47166123Y-104543339D01*
X47173730Y-104601116D01*
X47241602Y-104854418D01*
X47241605Y-104854428D01*
X47341953Y-105096690D01*
X47341958Y-105096700D01*
X47473075Y-105323803D01*
X47632718Y-105531851D01*
X47632726Y-105531860D01*
X47818140Y-105717274D01*
X47818148Y-105717281D01*
X48026196Y-105876924D01*
X48253299Y-106008041D01*
X48253309Y-106008046D01*
X48495571Y-106108394D01*
X48495581Y-106108398D01*
X48748884Y-106176270D01*
X49008880Y-106210500D01*
X49008887Y-106210500D01*
X49271113Y-106210500D01*
X49271120Y-106210500D01*
X49531116Y-106176270D01*
X49784419Y-106108398D01*
X50026697Y-106008043D01*
X50253803Y-105876924D01*
X50461851Y-105717282D01*
X50461855Y-105717277D01*
X50461860Y-105717274D01*
X50647274Y-105531860D01*
X50647277Y-105531855D01*
X50647282Y-105531851D01*
X50806924Y-105323803D01*
X50938043Y-105096697D01*
X51038398Y-104854419D01*
X51106270Y-104601116D01*
X51140500Y-104341120D01*
X51140500Y-104078880D01*
X51106270Y-103818884D01*
X51038398Y-103565581D01*
X51038394Y-103565571D01*
X50938046Y-103323309D01*
X50938041Y-103323299D01*
X50806924Y-103096196D01*
X50647281Y-102888148D01*
X50647274Y-102888140D01*
X50461860Y-102702726D01*
X50461851Y-102702718D01*
X50253803Y-102543075D01*
X50026700Y-102411958D01*
X50026690Y-102411953D01*
X49784428Y-102311605D01*
X49784421Y-102311603D01*
X49784419Y-102311602D01*
X49758298Y-102304603D01*
X69294499Y-102304603D01*
X69331410Y-102490161D01*
X69331413Y-102490171D01*
X69403814Y-102664965D01*
X69403816Y-102664968D01*
X69508927Y-102822278D01*
X69508933Y-102822286D01*
X69642713Y-102956066D01*
X69642721Y-102956072D01*
X69800031Y-103061183D01*
X69800034Y-103061185D01*
X69884562Y-103096197D01*
X69974833Y-103133588D01*
X69974837Y-103133588D01*
X69974838Y-103133589D01*
X70160396Y-103170500D01*
X70160399Y-103170500D01*
X70349603Y-103170500D01*
X70474442Y-103145667D01*
X70535167Y-103133588D01*
X70709967Y-103061184D01*
X70867283Y-102956069D01*
X71001069Y-102822283D01*
X71106184Y-102664967D01*
X71178588Y-102490167D01*
X71214107Y-102311605D01*
X71215500Y-102304603D01*
X71215500Y-102115396D01*
X71178589Y-101929838D01*
X71178588Y-101929837D01*
X71178588Y-101929833D01*
X71178586Y-101929828D01*
X71106185Y-101755034D01*
X71106183Y-101755031D01*
X71001072Y-101597721D01*
X71001066Y-101597713D01*
X70867286Y-101463933D01*
X70867278Y-101463927D01*
X70709968Y-101358816D01*
X70709965Y-101358814D01*
X70535171Y-101286413D01*
X70535161Y-101286410D01*
X70349603Y-101249500D01*
X70349601Y-101249500D01*
X70160399Y-101249500D01*
X70160397Y-101249500D01*
X69974838Y-101286410D01*
X69974828Y-101286413D01*
X69800034Y-101358814D01*
X69800031Y-101358816D01*
X69642721Y-101463927D01*
X69642713Y-101463933D01*
X69508933Y-101597713D01*
X69508927Y-101597721D01*
X69403816Y-101755031D01*
X69403814Y-101755034D01*
X69331413Y-101929828D01*
X69331410Y-101929838D01*
X69294500Y-102115396D01*
X69294500Y-102115399D01*
X69294500Y-102304601D01*
X69294500Y-102304603D01*
X69294499Y-102304603D01*
X49758298Y-102304603D01*
X49531116Y-102243730D01*
X49473339Y-102236123D01*
X49271127Y-102209500D01*
X49271120Y-102209500D01*
X49008880Y-102209500D01*
X49008872Y-102209500D01*
X48777772Y-102239926D01*
X48748884Y-102243730D01*
X48521709Y-102304601D01*
X48495581Y-102311602D01*
X48495571Y-102311605D01*
X48253309Y-102411953D01*
X48253299Y-102411958D01*
X48026196Y-102543075D01*
X47818148Y-102702718D01*
X47632718Y-102888148D01*
X47473075Y-103096196D01*
X47341958Y-103323299D01*
X47341953Y-103323309D01*
X47241605Y-103565571D01*
X47241602Y-103565581D01*
X47173730Y-103818885D01*
X47139500Y-104078872D01*
X27500500Y-104078872D01*
X27500500Y-99873999D01*
X34509511Y-99873999D01*
X34509511Y-99874000D01*
X34528994Y-100034459D01*
X34586312Y-100185595D01*
X34586313Y-100185596D01*
X34678128Y-100318611D01*
X34678132Y-100318616D01*
X34799119Y-100425802D01*
X34942241Y-100500918D01*
X35099181Y-100539600D01*
X35260819Y-100539600D01*
X35417759Y-100500918D01*
X35560881Y-100425802D01*
X35681868Y-100318616D01*
X35773689Y-100185592D01*
X35831006Y-100034459D01*
X35850489Y-99874000D01*
X35831006Y-99713541D01*
X35773689Y-99562408D01*
X35773687Y-99562406D01*
X35773687Y-99562404D01*
X35773686Y-99562403D01*
X35681871Y-99429388D01*
X35681867Y-99429383D01*
X35666288Y-99415582D01*
X35560881Y-99322198D01*
X35417759Y-99247082D01*
X35417758Y-99247081D01*
X35417757Y-99247081D01*
X35260819Y-99208400D01*
X35099181Y-99208400D01*
X34942242Y-99247081D01*
X34799120Y-99322197D01*
X34678132Y-99429383D01*
X34678128Y-99429388D01*
X34586313Y-99562403D01*
X34586312Y-99562404D01*
X34528994Y-99713540D01*
X34509511Y-99873999D01*
X27500500Y-99873999D01*
X27500500Y-95026721D01*
X32744500Y-95026721D01*
X32744500Y-95193278D01*
X32776990Y-95356615D01*
X32776992Y-95356623D01*
X32840728Y-95510495D01*
X32840728Y-95510496D01*
X32933255Y-95648973D01*
X32933261Y-95648980D01*
X33051019Y-95766738D01*
X33051026Y-95766744D01*
X33189504Y-95859271D01*
X33189505Y-95859271D01*
X33189506Y-95859272D01*
X33343377Y-95923008D01*
X33506721Y-95955499D01*
X33506725Y-95955500D01*
X33506726Y-95955500D01*
X33673275Y-95955500D01*
X33673276Y-95955499D01*
X33836623Y-95923008D01*
X33990494Y-95859272D01*
X33990495Y-95859271D01*
X33990496Y-95859271D01*
X34059734Y-95813007D01*
X34128975Y-95766743D01*
X34246743Y-95648975D01*
X34339272Y-95510494D01*
X34403008Y-95356623D01*
X34435500Y-95193274D01*
X34435500Y-95026726D01*
X34435499Y-95026721D01*
X47354500Y-95026721D01*
X47354500Y-95193278D01*
X47386990Y-95356615D01*
X47386992Y-95356623D01*
X47450728Y-95510495D01*
X47450728Y-95510496D01*
X47543255Y-95648973D01*
X47543261Y-95648980D01*
X47661019Y-95766738D01*
X47661026Y-95766744D01*
X47799504Y-95859271D01*
X47799505Y-95859271D01*
X47799506Y-95859272D01*
X47953377Y-95923008D01*
X48116721Y-95955499D01*
X48116725Y-95955500D01*
X48116726Y-95955500D01*
X48283275Y-95955500D01*
X48283276Y-95955499D01*
X48446623Y-95923008D01*
X48600494Y-95859272D01*
X48600495Y-95859271D01*
X48600496Y-95859271D01*
X48669734Y-95813007D01*
X48738975Y-95766743D01*
X48856743Y-95648975D01*
X48949272Y-95510494D01*
X49005396Y-95374999D01*
X111604511Y-95374999D01*
X111604511Y-95375000D01*
X111623994Y-95535459D01*
X111681312Y-95686595D01*
X111681313Y-95686596D01*
X111773128Y-95819611D01*
X111773132Y-95819616D01*
X111894119Y-95926802D01*
X112037241Y-96001918D01*
X112194181Y-96040600D01*
X112355819Y-96040600D01*
X112512759Y-96001918D01*
X112655881Y-95926802D01*
X112776868Y-95819616D01*
X112868689Y-95686592D01*
X112926006Y-95535459D01*
X112945489Y-95375000D01*
X112926006Y-95214541D01*
X112868689Y-95063408D01*
X112868687Y-95063406D01*
X112868687Y-95063404D01*
X112868686Y-95063403D01*
X112843366Y-95026721D01*
X132744500Y-95026721D01*
X132744500Y-95193278D01*
X132776990Y-95356615D01*
X132776992Y-95356623D01*
X132840728Y-95510495D01*
X132840728Y-95510496D01*
X132933255Y-95648973D01*
X132933261Y-95648980D01*
X133051019Y-95766738D01*
X133051026Y-95766744D01*
X133189504Y-95859271D01*
X133189505Y-95859271D01*
X133189506Y-95859272D01*
X133343377Y-95923008D01*
X133506721Y-95955499D01*
X133506725Y-95955500D01*
X133506726Y-95955500D01*
X133673275Y-95955500D01*
X133673276Y-95955499D01*
X133836623Y-95923008D01*
X133990494Y-95859272D01*
X133990495Y-95859271D01*
X133990496Y-95859271D01*
X134059734Y-95813007D01*
X134128975Y-95766743D01*
X134246743Y-95648975D01*
X134339272Y-95510494D01*
X134403008Y-95356623D01*
X134435500Y-95193274D01*
X134435500Y-95026726D01*
X134435499Y-95026721D01*
X147354500Y-95026721D01*
X147354500Y-95193278D01*
X147386990Y-95356615D01*
X147386992Y-95356623D01*
X147450728Y-95510495D01*
X147450728Y-95510496D01*
X147543255Y-95648973D01*
X147543261Y-95648980D01*
X147661019Y-95766738D01*
X147661026Y-95766744D01*
X147799504Y-95859271D01*
X147799505Y-95859271D01*
X147799506Y-95859272D01*
X147953377Y-95923008D01*
X148116721Y-95955499D01*
X148116725Y-95955500D01*
X148116726Y-95955500D01*
X148283275Y-95955500D01*
X148283276Y-95955499D01*
X148446623Y-95923008D01*
X148600494Y-95859272D01*
X148600495Y-95859271D01*
X148600496Y-95859271D01*
X148669734Y-95813007D01*
X148738975Y-95766743D01*
X148856743Y-95648975D01*
X148949272Y-95510494D01*
X149013008Y-95356623D01*
X149045500Y-95193274D01*
X149045500Y-95026726D01*
X149013008Y-94863377D01*
X148949272Y-94709506D01*
X148949271Y-94709504D01*
X148949271Y-94709503D01*
X148856744Y-94571026D01*
X148856738Y-94571019D01*
X148738980Y-94453261D01*
X148738973Y-94453255D01*
X148600495Y-94360728D01*
X148446623Y-94296992D01*
X148446615Y-94296990D01*
X148283278Y-94264500D01*
X148283274Y-94264500D01*
X148116726Y-94264500D01*
X148116721Y-94264500D01*
X147953384Y-94296990D01*
X147953376Y-94296992D01*
X147799504Y-94360728D01*
X147799503Y-94360728D01*
X147661026Y-94453255D01*
X147661019Y-94453261D01*
X147543261Y-94571019D01*
X147543255Y-94571026D01*
X147450728Y-94709503D01*
X147450728Y-94709504D01*
X147386992Y-94863376D01*
X147386990Y-94863384D01*
X147354500Y-95026721D01*
X134435499Y-95026721D01*
X134403008Y-94863377D01*
X134339272Y-94709506D01*
X134339271Y-94709504D01*
X134339271Y-94709503D01*
X134246744Y-94571026D01*
X134246738Y-94571019D01*
X134128980Y-94453261D01*
X134128973Y-94453255D01*
X133990495Y-94360728D01*
X133836623Y-94296992D01*
X133836615Y-94296990D01*
X133673278Y-94264500D01*
X133673274Y-94264500D01*
X133506726Y-94264500D01*
X133506721Y-94264500D01*
X133343384Y-94296990D01*
X133343376Y-94296992D01*
X133189504Y-94360728D01*
X133189503Y-94360728D01*
X133051026Y-94453255D01*
X133051019Y-94453261D01*
X132933261Y-94571019D01*
X132933255Y-94571026D01*
X132840728Y-94709503D01*
X132840728Y-94709504D01*
X132776992Y-94863376D01*
X132776990Y-94863384D01*
X132744500Y-95026721D01*
X112843366Y-95026721D01*
X112776871Y-94930388D01*
X112776867Y-94930383D01*
X112701232Y-94863376D01*
X112655881Y-94823198D01*
X112512759Y-94748082D01*
X112512758Y-94748081D01*
X112512757Y-94748081D01*
X112355819Y-94709400D01*
X112194181Y-94709400D01*
X112037242Y-94748081D01*
X111894120Y-94823197D01*
X111773132Y-94930383D01*
X111773128Y-94930388D01*
X111681313Y-95063403D01*
X111681312Y-95063404D01*
X111623994Y-95214540D01*
X111604511Y-95374999D01*
X49005396Y-95374999D01*
X49013008Y-95356623D01*
X49045500Y-95193274D01*
X49045500Y-95026726D01*
X49013008Y-94863377D01*
X48949272Y-94709506D01*
X48949271Y-94709504D01*
X48949271Y-94709503D01*
X48856744Y-94571026D01*
X48856738Y-94571019D01*
X48738980Y-94453261D01*
X48738973Y-94453255D01*
X48600495Y-94360728D01*
X48446623Y-94296992D01*
X48446615Y-94296990D01*
X48283278Y-94264500D01*
X48283274Y-94264500D01*
X48116726Y-94264500D01*
X48116721Y-94264500D01*
X47953384Y-94296990D01*
X47953376Y-94296992D01*
X47799504Y-94360728D01*
X47799503Y-94360728D01*
X47661026Y-94453255D01*
X47661019Y-94453261D01*
X47543261Y-94571019D01*
X47543255Y-94571026D01*
X47450728Y-94709503D01*
X47450728Y-94709504D01*
X47386992Y-94863376D01*
X47386990Y-94863384D01*
X47354500Y-95026721D01*
X34435499Y-95026721D01*
X34403008Y-94863377D01*
X34339272Y-94709506D01*
X34339271Y-94709504D01*
X34339271Y-94709503D01*
X34246744Y-94571026D01*
X34246738Y-94571019D01*
X34128980Y-94453261D01*
X34128973Y-94453255D01*
X33990495Y-94360728D01*
X33836623Y-94296992D01*
X33836615Y-94296990D01*
X33673278Y-94264500D01*
X33673274Y-94264500D01*
X33506726Y-94264500D01*
X33506721Y-94264500D01*
X33343384Y-94296990D01*
X33343376Y-94296992D01*
X33189504Y-94360728D01*
X33189503Y-94360728D01*
X33051026Y-94453255D01*
X33051019Y-94453261D01*
X32933261Y-94571019D01*
X32933255Y-94571026D01*
X32840728Y-94709503D01*
X32840728Y-94709504D01*
X32776992Y-94863376D01*
X32776990Y-94863384D01*
X32744500Y-95026721D01*
X27500500Y-95026721D01*
X27500500Y-91699999D01*
X88404511Y-91699999D01*
X88404511Y-91700000D01*
X88423994Y-91860459D01*
X88481312Y-92011595D01*
X88481313Y-92011596D01*
X88573128Y-92144611D01*
X88573132Y-92144616D01*
X88694119Y-92251802D01*
X88837241Y-92326918D01*
X88994181Y-92365600D01*
X89155819Y-92365600D01*
X89312759Y-92326918D01*
X89455881Y-92251802D01*
X89576868Y-92144616D01*
X89668689Y-92011592D01*
X89726006Y-91860459D01*
X89745489Y-91700000D01*
X89726006Y-91539541D01*
X89668689Y-91388408D01*
X89668687Y-91388406D01*
X89668687Y-91388404D01*
X89668686Y-91388403D01*
X89576871Y-91255388D01*
X89576867Y-91255383D01*
X89548888Y-91230596D01*
X89455881Y-91148198D01*
X89312759Y-91073082D01*
X89312758Y-91073081D01*
X89312757Y-91073081D01*
X89155819Y-91034400D01*
X88994181Y-91034400D01*
X88837242Y-91073081D01*
X88694120Y-91148197D01*
X88573132Y-91255383D01*
X88573128Y-91255388D01*
X88481313Y-91388403D01*
X88481312Y-91388404D01*
X88423994Y-91539540D01*
X88404511Y-91699999D01*
X27500500Y-91699999D01*
X27500500Y-90873999D01*
X34529511Y-90873999D01*
X34529511Y-90874000D01*
X34548994Y-91034459D01*
X34606312Y-91185595D01*
X34606313Y-91185596D01*
X34698128Y-91318611D01*
X34698130Y-91318613D01*
X34698132Y-91318616D01*
X34819119Y-91425802D01*
X34962241Y-91500918D01*
X35119181Y-91539600D01*
X35280819Y-91539600D01*
X35437759Y-91500918D01*
X35580881Y-91425802D01*
X35701868Y-91318616D01*
X35722951Y-91288073D01*
X35777234Y-91244083D01*
X35846682Y-91236424D01*
X35909247Y-91267528D01*
X35927049Y-91288073D01*
X35948128Y-91318611D01*
X35948130Y-91318613D01*
X35948132Y-91318616D01*
X36069119Y-91425802D01*
X36212241Y-91500918D01*
X36369181Y-91539600D01*
X36530819Y-91539600D01*
X36687759Y-91500918D01*
X36830881Y-91425802D01*
X36951868Y-91318616D01*
X36992951Y-91259096D01*
X37047233Y-91215108D01*
X37116682Y-91207449D01*
X37179247Y-91238553D01*
X37197045Y-91259093D01*
X37238132Y-91318616D01*
X37359119Y-91425802D01*
X37502241Y-91500918D01*
X37659181Y-91539600D01*
X37820819Y-91539600D01*
X37977759Y-91500918D01*
X38120881Y-91425802D01*
X38241868Y-91318616D01*
X38262951Y-91288073D01*
X38317234Y-91244083D01*
X38386682Y-91236424D01*
X38449247Y-91267528D01*
X38467049Y-91288073D01*
X38488128Y-91318611D01*
X38488130Y-91318613D01*
X38488132Y-91318616D01*
X38609119Y-91425802D01*
X38752241Y-91500918D01*
X38909181Y-91539600D01*
X39070819Y-91539600D01*
X39227759Y-91500918D01*
X39370881Y-91425802D01*
X39491868Y-91318616D01*
X39522950Y-91273585D01*
X39577233Y-91229596D01*
X39646682Y-91221936D01*
X39709246Y-91253040D01*
X39727048Y-91273583D01*
X39758132Y-91318616D01*
X39879119Y-91425802D01*
X40022241Y-91500918D01*
X40179181Y-91539600D01*
X40340819Y-91539600D01*
X40497759Y-91500918D01*
X40640881Y-91425802D01*
X40761868Y-91318616D01*
X40792950Y-91273585D01*
X40847233Y-91229596D01*
X40916682Y-91221936D01*
X40979246Y-91253040D01*
X40997048Y-91273583D01*
X41028132Y-91318616D01*
X41149119Y-91425802D01*
X41292241Y-91500918D01*
X41449181Y-91539600D01*
X41610819Y-91539600D01*
X41767759Y-91500918D01*
X41910881Y-91425802D01*
X42031868Y-91318616D01*
X42062950Y-91273585D01*
X42117233Y-91229596D01*
X42186682Y-91221936D01*
X42249246Y-91253040D01*
X42267048Y-91273583D01*
X42298132Y-91318616D01*
X42419119Y-91425802D01*
X42562241Y-91500918D01*
X42719181Y-91539600D01*
X42880819Y-91539600D01*
X43037759Y-91500918D01*
X43180881Y-91425802D01*
X43301868Y-91318616D01*
X43332950Y-91273585D01*
X43387233Y-91229596D01*
X43456682Y-91221936D01*
X43519246Y-91253040D01*
X43537048Y-91273583D01*
X43568132Y-91318616D01*
X43689119Y-91425802D01*
X43832241Y-91500918D01*
X43989181Y-91539600D01*
X44150819Y-91539600D01*
X44307759Y-91500918D01*
X44450881Y-91425802D01*
X44571868Y-91318616D01*
X44602950Y-91273585D01*
X44657233Y-91229596D01*
X44726682Y-91221936D01*
X44789246Y-91253040D01*
X44807048Y-91273583D01*
X44838132Y-91318616D01*
X44959119Y-91425802D01*
X45102241Y-91500918D01*
X45259181Y-91539600D01*
X45420819Y-91539600D01*
X45577759Y-91500918D01*
X45720881Y-91425802D01*
X45841868Y-91318616D01*
X45872950Y-91273585D01*
X45927233Y-91229596D01*
X45996682Y-91221936D01*
X46059246Y-91253040D01*
X46077048Y-91273583D01*
X46108132Y-91318616D01*
X46229119Y-91425802D01*
X46372241Y-91500918D01*
X46529181Y-91539600D01*
X46690819Y-91539600D01*
X46847759Y-91500918D01*
X46990881Y-91425802D01*
X47111868Y-91318616D01*
X47203689Y-91185592D01*
X47261006Y-91034459D01*
X47280489Y-90874000D01*
X47271577Y-90800599D01*
X77929511Y-90800599D01*
X77929511Y-90800600D01*
X77948994Y-90961059D01*
X78006312Y-91112195D01*
X78006313Y-91112196D01*
X78098128Y-91245211D01*
X78098132Y-91245216D01*
X78219119Y-91352402D01*
X78362241Y-91427518D01*
X78519181Y-91466200D01*
X78680819Y-91466200D01*
X78837759Y-91427518D01*
X78980881Y-91352402D01*
X79101868Y-91245216D01*
X79193689Y-91112192D01*
X79251006Y-90961059D01*
X79270489Y-90800600D01*
X79251006Y-90640141D01*
X79235782Y-90599999D01*
X98729511Y-90599999D01*
X98729511Y-90600000D01*
X98748994Y-90760459D01*
X98806312Y-90911595D01*
X98806313Y-90911596D01*
X98898128Y-91044611D01*
X98898132Y-91044616D01*
X99019119Y-91151802D01*
X99162241Y-91226918D01*
X99319181Y-91265600D01*
X99480819Y-91265600D01*
X99637759Y-91226918D01*
X99780881Y-91151802D01*
X99901868Y-91044616D01*
X99993689Y-90911592D01*
X100007567Y-90874999D01*
X134529511Y-90874999D01*
X134529511Y-90875000D01*
X134548994Y-91035459D01*
X134606312Y-91186595D01*
X134606313Y-91186596D01*
X134698128Y-91319611D01*
X134698130Y-91319613D01*
X134698132Y-91319616D01*
X134819119Y-91426802D01*
X134962241Y-91501918D01*
X135119181Y-91540600D01*
X135280819Y-91540600D01*
X135437759Y-91501918D01*
X135580881Y-91426802D01*
X135701868Y-91319616D01*
X135793689Y-91186592D01*
X135851006Y-91035459D01*
X135870489Y-90875000D01*
X135870489Y-90874999D01*
X137049511Y-90874999D01*
X137049511Y-90875000D01*
X137068994Y-91035459D01*
X137126312Y-91186595D01*
X137126313Y-91186596D01*
X137218128Y-91319611D01*
X137218130Y-91319613D01*
X137218132Y-91319616D01*
X137339119Y-91426802D01*
X137482241Y-91501918D01*
X137639181Y-91540600D01*
X137800819Y-91540600D01*
X137957759Y-91501918D01*
X138100881Y-91426802D01*
X138221868Y-91319616D01*
X138252950Y-91274585D01*
X138307233Y-91230596D01*
X138376682Y-91222936D01*
X138439246Y-91254040D01*
X138457048Y-91274583D01*
X138488132Y-91319616D01*
X138609119Y-91426802D01*
X138752241Y-91501918D01*
X138909181Y-91540600D01*
X139070819Y-91540600D01*
X139227759Y-91501918D01*
X139370881Y-91426802D01*
X139491868Y-91319616D01*
X139522950Y-91274585D01*
X139577233Y-91230596D01*
X139646682Y-91222936D01*
X139709246Y-91254040D01*
X139727048Y-91274583D01*
X139758132Y-91319616D01*
X139879119Y-91426802D01*
X140022241Y-91501918D01*
X140179181Y-91540600D01*
X140340819Y-91540600D01*
X140497759Y-91501918D01*
X140640881Y-91426802D01*
X140761868Y-91319616D01*
X140792950Y-91274585D01*
X140847233Y-91230596D01*
X140916682Y-91222936D01*
X140979246Y-91254040D01*
X140997048Y-91274583D01*
X141028132Y-91319616D01*
X141149119Y-91426802D01*
X141292241Y-91501918D01*
X141449181Y-91540600D01*
X141610819Y-91540600D01*
X141767759Y-91501918D01*
X141910881Y-91426802D01*
X142031868Y-91319616D01*
X142062950Y-91274585D01*
X142117233Y-91230596D01*
X142186682Y-91222936D01*
X142249246Y-91254040D01*
X142267048Y-91274583D01*
X142298132Y-91319616D01*
X142419119Y-91426802D01*
X142562241Y-91501918D01*
X142719181Y-91540600D01*
X142880819Y-91540600D01*
X143037759Y-91501918D01*
X143180881Y-91426802D01*
X143301868Y-91319616D01*
X143332950Y-91274585D01*
X143387233Y-91230596D01*
X143456682Y-91222936D01*
X143519246Y-91254040D01*
X143537048Y-91274583D01*
X143568132Y-91319616D01*
X143689119Y-91426802D01*
X143832241Y-91501918D01*
X143989181Y-91540600D01*
X144150819Y-91540600D01*
X144307759Y-91501918D01*
X144450881Y-91426802D01*
X144571868Y-91319616D01*
X144602950Y-91274585D01*
X144657233Y-91230596D01*
X144726682Y-91222936D01*
X144789246Y-91254040D01*
X144807048Y-91274583D01*
X144838132Y-91319616D01*
X144959119Y-91426802D01*
X145102241Y-91501918D01*
X145259181Y-91540600D01*
X145420819Y-91540600D01*
X145577759Y-91501918D01*
X145720881Y-91426802D01*
X145841868Y-91319616D01*
X145872950Y-91274585D01*
X145927233Y-91230596D01*
X145996682Y-91222936D01*
X146059246Y-91254040D01*
X146077048Y-91274583D01*
X146108132Y-91319616D01*
X146229119Y-91426802D01*
X146372241Y-91501918D01*
X146529181Y-91540600D01*
X146690819Y-91540600D01*
X146847759Y-91501918D01*
X146990881Y-91426802D01*
X147111868Y-91319616D01*
X147203689Y-91186592D01*
X147261006Y-91035459D01*
X147280489Y-90875000D01*
X147280367Y-90873999D01*
X147263150Y-90732202D01*
X147261006Y-90714541D01*
X147203689Y-90563408D01*
X147203687Y-90563406D01*
X147203687Y-90563404D01*
X147203686Y-90563403D01*
X147111871Y-90430388D01*
X147111867Y-90430383D01*
X147096288Y-90416582D01*
X146990881Y-90323198D01*
X146847759Y-90248082D01*
X146847758Y-90248081D01*
X146847757Y-90248081D01*
X146690819Y-90209400D01*
X146529181Y-90209400D01*
X146372242Y-90248081D01*
X146229120Y-90323197D01*
X146108132Y-90430383D01*
X146108128Y-90430388D01*
X146077049Y-90475414D01*
X146022766Y-90519404D01*
X145953317Y-90527063D01*
X145890753Y-90495959D01*
X145872951Y-90475414D01*
X145841871Y-90430388D01*
X145841867Y-90430383D01*
X145826288Y-90416582D01*
X145720881Y-90323198D01*
X145577759Y-90248082D01*
X145577758Y-90248081D01*
X145577757Y-90248081D01*
X145420819Y-90209400D01*
X145259181Y-90209400D01*
X145102242Y-90248081D01*
X144959120Y-90323197D01*
X144838132Y-90430383D01*
X144838128Y-90430388D01*
X144807049Y-90475414D01*
X144752766Y-90519404D01*
X144683317Y-90527063D01*
X144620753Y-90495959D01*
X144602951Y-90475414D01*
X144571871Y-90430388D01*
X144571867Y-90430383D01*
X144556288Y-90416582D01*
X144450881Y-90323198D01*
X144307759Y-90248082D01*
X144307758Y-90248081D01*
X144307757Y-90248081D01*
X144150819Y-90209400D01*
X143989181Y-90209400D01*
X143832242Y-90248081D01*
X143689120Y-90323197D01*
X143568132Y-90430383D01*
X143568128Y-90430388D01*
X143537049Y-90475414D01*
X143482766Y-90519404D01*
X143413317Y-90527063D01*
X143350753Y-90495959D01*
X143332951Y-90475414D01*
X143301871Y-90430388D01*
X143301867Y-90430383D01*
X143286288Y-90416582D01*
X143180881Y-90323198D01*
X143037759Y-90248082D01*
X143037758Y-90248081D01*
X143037757Y-90248081D01*
X142880819Y-90209400D01*
X142719181Y-90209400D01*
X142562242Y-90248081D01*
X142419120Y-90323197D01*
X142298132Y-90430383D01*
X142298128Y-90430388D01*
X142267049Y-90475414D01*
X142212766Y-90519404D01*
X142143317Y-90527063D01*
X142080753Y-90495959D01*
X142062951Y-90475414D01*
X142031871Y-90430388D01*
X142031867Y-90430383D01*
X142016288Y-90416582D01*
X141910881Y-90323198D01*
X141767759Y-90248082D01*
X141767758Y-90248081D01*
X141767757Y-90248081D01*
X141610819Y-90209400D01*
X141449181Y-90209400D01*
X141292242Y-90248081D01*
X141149120Y-90323197D01*
X141028132Y-90430383D01*
X141028128Y-90430388D01*
X140997049Y-90475414D01*
X140942766Y-90519404D01*
X140873317Y-90527063D01*
X140810753Y-90495959D01*
X140792951Y-90475414D01*
X140761871Y-90430388D01*
X140761867Y-90430383D01*
X140746288Y-90416582D01*
X140640881Y-90323198D01*
X140497759Y-90248082D01*
X140497758Y-90248081D01*
X140497757Y-90248081D01*
X140340819Y-90209400D01*
X140179181Y-90209400D01*
X140022242Y-90248081D01*
X139879120Y-90323197D01*
X139758132Y-90430383D01*
X139758128Y-90430388D01*
X139727049Y-90475414D01*
X139672766Y-90519404D01*
X139603317Y-90527063D01*
X139540753Y-90495959D01*
X139522951Y-90475414D01*
X139491871Y-90430388D01*
X139491867Y-90430383D01*
X139476288Y-90416582D01*
X139370881Y-90323198D01*
X139227759Y-90248082D01*
X139227758Y-90248081D01*
X139227757Y-90248081D01*
X139070819Y-90209400D01*
X138909181Y-90209400D01*
X138752242Y-90248081D01*
X138609120Y-90323197D01*
X138488132Y-90430383D01*
X138488128Y-90430388D01*
X138457049Y-90475414D01*
X138402766Y-90519404D01*
X138333317Y-90527063D01*
X138270753Y-90495959D01*
X138252951Y-90475414D01*
X138221871Y-90430388D01*
X138221867Y-90430383D01*
X138206288Y-90416582D01*
X138100881Y-90323198D01*
X137957759Y-90248082D01*
X137957758Y-90248081D01*
X137957757Y-90248081D01*
X137800819Y-90209400D01*
X137639181Y-90209400D01*
X137482242Y-90248081D01*
X137339120Y-90323197D01*
X137218132Y-90430383D01*
X137218128Y-90430388D01*
X137126313Y-90563403D01*
X137126312Y-90563404D01*
X137068994Y-90714540D01*
X137049511Y-90874999D01*
X135870489Y-90874999D01*
X135870367Y-90873999D01*
X135853150Y-90732202D01*
X135851006Y-90714541D01*
X135793689Y-90563408D01*
X135793687Y-90563406D01*
X135793687Y-90563404D01*
X135793686Y-90563403D01*
X135701871Y-90430388D01*
X135701867Y-90430383D01*
X135686288Y-90416582D01*
X135580881Y-90323198D01*
X135437759Y-90248082D01*
X135437758Y-90248081D01*
X135437757Y-90248081D01*
X135280819Y-90209400D01*
X135119181Y-90209400D01*
X134962242Y-90248081D01*
X134819120Y-90323197D01*
X134698132Y-90430383D01*
X134698128Y-90430388D01*
X134606313Y-90563403D01*
X134606312Y-90563404D01*
X134548994Y-90714540D01*
X134529511Y-90874999D01*
X100007567Y-90874999D01*
X100051006Y-90760459D01*
X100070489Y-90600000D01*
X100051006Y-90439541D01*
X99993689Y-90288408D01*
X99993687Y-90288406D01*
X99993687Y-90288404D01*
X99993686Y-90288403D01*
X99919135Y-90180399D01*
X113229511Y-90180399D01*
X113229511Y-90180400D01*
X113248994Y-90340859D01*
X113306312Y-90491995D01*
X113306313Y-90491996D01*
X113398128Y-90625011D01*
X113398132Y-90625016D01*
X113519119Y-90732202D01*
X113662241Y-90807318D01*
X113819181Y-90846000D01*
X113980819Y-90846000D01*
X114137759Y-90807318D01*
X114280881Y-90732202D01*
X114401868Y-90625016D01*
X114493689Y-90491992D01*
X114551006Y-90340859D01*
X114570489Y-90180400D01*
X114551006Y-90019941D01*
X114493689Y-89868808D01*
X114493687Y-89868806D01*
X114493687Y-89868804D01*
X114493686Y-89868803D01*
X114401871Y-89735788D01*
X114401867Y-89735783D01*
X114345063Y-89685459D01*
X114280881Y-89628598D01*
X114137759Y-89553482D01*
X114137758Y-89553481D01*
X114137757Y-89553481D01*
X113980819Y-89514800D01*
X113819181Y-89514800D01*
X113662242Y-89553481D01*
X113519120Y-89628597D01*
X113398132Y-89735783D01*
X113398128Y-89735788D01*
X113306313Y-89868803D01*
X113306312Y-89868804D01*
X113248994Y-90019940D01*
X113229511Y-90180399D01*
X99919135Y-90180399D01*
X99901871Y-90155388D01*
X99901867Y-90155383D01*
X99878859Y-90135000D01*
X99780881Y-90048198D01*
X99637759Y-89973082D01*
X99637758Y-89973081D01*
X99637757Y-89973081D01*
X99480819Y-89934400D01*
X99319181Y-89934400D01*
X99162242Y-89973081D01*
X99019120Y-90048197D01*
X98898132Y-90155383D01*
X98898128Y-90155388D01*
X98806313Y-90288403D01*
X98806312Y-90288404D01*
X98748994Y-90439540D01*
X98729511Y-90599999D01*
X79235782Y-90599999D01*
X79193689Y-90489008D01*
X79193687Y-90489006D01*
X79193687Y-90489004D01*
X79193686Y-90489003D01*
X79101871Y-90355988D01*
X79101867Y-90355983D01*
X79084796Y-90340859D01*
X78980881Y-90248798D01*
X78837759Y-90173682D01*
X78837758Y-90173681D01*
X78837757Y-90173681D01*
X78680819Y-90135000D01*
X78519181Y-90135000D01*
X78362242Y-90173681D01*
X78219120Y-90248797D01*
X78098132Y-90355983D01*
X78098128Y-90355988D01*
X78006313Y-90489003D01*
X78006312Y-90489004D01*
X77948994Y-90640140D01*
X77929511Y-90800599D01*
X47271577Y-90800599D01*
X47261006Y-90713541D01*
X47203689Y-90562408D01*
X47203687Y-90562406D01*
X47203687Y-90562404D01*
X47203686Y-90562403D01*
X47111871Y-90429388D01*
X47111867Y-90429383D01*
X47096288Y-90415582D01*
X46990881Y-90322198D01*
X46847759Y-90247082D01*
X46847758Y-90247081D01*
X46847757Y-90247081D01*
X46690819Y-90208400D01*
X46529181Y-90208400D01*
X46372242Y-90247081D01*
X46229120Y-90322197D01*
X46108132Y-90429383D01*
X46108128Y-90429388D01*
X46077049Y-90474414D01*
X46022766Y-90518404D01*
X45953317Y-90526063D01*
X45890753Y-90494959D01*
X45872951Y-90474414D01*
X45841871Y-90429388D01*
X45841867Y-90429383D01*
X45826288Y-90415582D01*
X45720881Y-90322198D01*
X45577759Y-90247082D01*
X45577758Y-90247081D01*
X45577757Y-90247081D01*
X45420819Y-90208400D01*
X45259181Y-90208400D01*
X45102242Y-90247081D01*
X44959120Y-90322197D01*
X44838132Y-90429383D01*
X44838128Y-90429388D01*
X44807049Y-90474414D01*
X44752766Y-90518404D01*
X44683317Y-90526063D01*
X44620753Y-90494959D01*
X44602951Y-90474414D01*
X44571871Y-90429388D01*
X44571867Y-90429383D01*
X44556288Y-90415582D01*
X44450881Y-90322198D01*
X44307759Y-90247082D01*
X44307758Y-90247081D01*
X44307757Y-90247081D01*
X44150819Y-90208400D01*
X43989181Y-90208400D01*
X43832242Y-90247081D01*
X43689120Y-90322197D01*
X43568132Y-90429383D01*
X43568128Y-90429388D01*
X43537049Y-90474414D01*
X43482766Y-90518404D01*
X43413317Y-90526063D01*
X43350753Y-90494959D01*
X43332951Y-90474414D01*
X43301871Y-90429388D01*
X43301867Y-90429383D01*
X43286288Y-90415582D01*
X43180881Y-90322198D01*
X43037759Y-90247082D01*
X43037758Y-90247081D01*
X43037757Y-90247081D01*
X42880819Y-90208400D01*
X42719181Y-90208400D01*
X42562242Y-90247081D01*
X42419120Y-90322197D01*
X42298132Y-90429383D01*
X42298128Y-90429388D01*
X42267049Y-90474414D01*
X42212766Y-90518404D01*
X42143317Y-90526063D01*
X42080753Y-90494959D01*
X42062951Y-90474414D01*
X42031871Y-90429388D01*
X42031867Y-90429383D01*
X42016288Y-90415582D01*
X41910881Y-90322198D01*
X41767759Y-90247082D01*
X41767758Y-90247081D01*
X41767757Y-90247081D01*
X41610819Y-90208400D01*
X41449181Y-90208400D01*
X41292242Y-90247081D01*
X41149120Y-90322197D01*
X41028132Y-90429383D01*
X41028128Y-90429388D01*
X40997049Y-90474414D01*
X40942766Y-90518404D01*
X40873317Y-90526063D01*
X40810753Y-90494959D01*
X40792951Y-90474414D01*
X40761871Y-90429388D01*
X40761867Y-90429383D01*
X40746288Y-90415582D01*
X40640881Y-90322198D01*
X40497759Y-90247082D01*
X40497758Y-90247081D01*
X40497757Y-90247081D01*
X40340819Y-90208400D01*
X40179181Y-90208400D01*
X40022242Y-90247081D01*
X39879120Y-90322197D01*
X39758132Y-90429383D01*
X39758128Y-90429388D01*
X39727049Y-90474414D01*
X39672766Y-90518404D01*
X39603317Y-90526063D01*
X39540753Y-90494959D01*
X39522951Y-90474414D01*
X39491871Y-90429388D01*
X39491867Y-90429383D01*
X39476288Y-90415582D01*
X39370881Y-90322198D01*
X39227759Y-90247082D01*
X39227758Y-90247081D01*
X39227757Y-90247081D01*
X39070819Y-90208400D01*
X38909181Y-90208400D01*
X38752242Y-90247081D01*
X38609120Y-90322197D01*
X38488132Y-90429383D01*
X38488126Y-90429390D01*
X38467048Y-90459927D01*
X38412765Y-90503916D01*
X38343316Y-90511574D01*
X38280752Y-90480470D01*
X38262952Y-90459927D01*
X38241873Y-90429390D01*
X38241867Y-90429383D01*
X38226288Y-90415582D01*
X38120881Y-90322198D01*
X37977759Y-90247082D01*
X37977758Y-90247081D01*
X37977757Y-90247081D01*
X37820819Y-90208400D01*
X37659181Y-90208400D01*
X37502242Y-90247081D01*
X37359120Y-90322197D01*
X37238132Y-90429383D01*
X37238128Y-90429388D01*
X37197049Y-90488901D01*
X37142766Y-90532891D01*
X37073317Y-90540550D01*
X37010753Y-90509446D01*
X36992951Y-90488901D01*
X36951871Y-90429388D01*
X36951867Y-90429383D01*
X36936288Y-90415582D01*
X36830881Y-90322198D01*
X36687759Y-90247082D01*
X36687758Y-90247081D01*
X36687757Y-90247081D01*
X36530819Y-90208400D01*
X36369181Y-90208400D01*
X36212242Y-90247081D01*
X36069120Y-90322197D01*
X35948132Y-90429383D01*
X35948126Y-90429390D01*
X35927048Y-90459927D01*
X35872765Y-90503916D01*
X35803316Y-90511574D01*
X35740752Y-90480470D01*
X35722952Y-90459927D01*
X35701873Y-90429390D01*
X35701867Y-90429383D01*
X35686288Y-90415582D01*
X35580881Y-90322198D01*
X35437759Y-90247082D01*
X35437758Y-90247081D01*
X35437757Y-90247081D01*
X35280819Y-90208400D01*
X35119181Y-90208400D01*
X34962242Y-90247081D01*
X34819120Y-90322197D01*
X34698132Y-90429383D01*
X34698128Y-90429388D01*
X34606313Y-90562403D01*
X34606312Y-90562404D01*
X34548994Y-90713540D01*
X34529511Y-90873999D01*
X27500500Y-90873999D01*
X27500500Y-89524999D01*
X89229511Y-89524999D01*
X89229511Y-89525000D01*
X89248994Y-89685459D01*
X89306312Y-89836595D01*
X89306313Y-89836596D01*
X89398128Y-89969611D01*
X89398132Y-89969616D01*
X89519119Y-90076802D01*
X89662241Y-90151918D01*
X89819181Y-90190600D01*
X89980819Y-90190600D01*
X90137759Y-90151918D01*
X90280881Y-90076802D01*
X90401868Y-89969616D01*
X90493689Y-89836592D01*
X90551006Y-89685459D01*
X90570489Y-89525000D01*
X90551006Y-89364541D01*
X90493689Y-89213408D01*
X90493687Y-89213406D01*
X90493687Y-89213404D01*
X90493686Y-89213403D01*
X90401871Y-89080388D01*
X90401867Y-89080383D01*
X90386288Y-89066582D01*
X90280881Y-88973198D01*
X90137759Y-88898082D01*
X90137758Y-88898081D01*
X90137757Y-88898081D01*
X89980819Y-88859400D01*
X89819181Y-88859400D01*
X89662242Y-88898081D01*
X89519120Y-88973197D01*
X89398132Y-89080383D01*
X89398128Y-89080388D01*
X89306313Y-89213403D01*
X89306312Y-89213404D01*
X89248994Y-89364540D01*
X89229511Y-89524999D01*
X27500500Y-89524999D01*
X27500500Y-88074999D01*
X113429511Y-88074999D01*
X113429511Y-88075000D01*
X113448994Y-88235459D01*
X113506312Y-88386595D01*
X113506313Y-88386596D01*
X113598128Y-88519611D01*
X113598132Y-88519616D01*
X113719119Y-88626802D01*
X113862241Y-88701918D01*
X114019181Y-88740600D01*
X114180819Y-88740600D01*
X114337759Y-88701918D01*
X114480881Y-88626802D01*
X114601868Y-88519616D01*
X114693689Y-88386592D01*
X114751006Y-88235459D01*
X114770489Y-88075000D01*
X114751006Y-87914541D01*
X114693689Y-87763408D01*
X114693687Y-87763406D01*
X114693687Y-87763404D01*
X114693686Y-87763403D01*
X114601871Y-87630388D01*
X114601867Y-87630383D01*
X114552437Y-87586592D01*
X114480881Y-87523198D01*
X114337759Y-87448082D01*
X114337758Y-87448081D01*
X114337757Y-87448081D01*
X114180819Y-87409400D01*
X114019181Y-87409400D01*
X113862242Y-87448081D01*
X113719120Y-87523197D01*
X113598132Y-87630383D01*
X113598128Y-87630388D01*
X113506313Y-87763403D01*
X113506312Y-87763404D01*
X113448994Y-87914540D01*
X113429511Y-88074999D01*
X27500500Y-88074999D01*
X27500500Y-87274999D01*
X88279511Y-87274999D01*
X88279511Y-87275000D01*
X88298994Y-87435459D01*
X88356312Y-87586595D01*
X88356313Y-87586596D01*
X88448128Y-87719611D01*
X88448132Y-87719616D01*
X88569119Y-87826802D01*
X88712241Y-87901918D01*
X88869181Y-87940600D01*
X89030819Y-87940600D01*
X89187759Y-87901918D01*
X89330881Y-87826802D01*
X89451868Y-87719616D01*
X89543689Y-87586592D01*
X89601006Y-87435459D01*
X89620489Y-87275000D01*
X89601006Y-87114541D01*
X89543689Y-86963408D01*
X89543687Y-86963406D01*
X89543687Y-86963404D01*
X89543686Y-86963403D01*
X89451871Y-86830388D01*
X89451867Y-86830383D01*
X89430656Y-86811592D01*
X89330881Y-86723198D01*
X89187759Y-86648082D01*
X89187758Y-86648081D01*
X89187757Y-86648081D01*
X89030819Y-86609400D01*
X88869181Y-86609400D01*
X88712242Y-86648081D01*
X88569120Y-86723197D01*
X88448132Y-86830383D01*
X88448128Y-86830388D01*
X88356313Y-86963403D01*
X88356312Y-86963404D01*
X88298994Y-87114540D01*
X88279511Y-87274999D01*
X27500500Y-87274999D01*
X27500500Y-86499999D01*
X92329511Y-86499999D01*
X92329511Y-86500000D01*
X92348994Y-86660459D01*
X92406312Y-86811595D01*
X92406313Y-86811596D01*
X92498128Y-86944611D01*
X92498132Y-86944616D01*
X92619119Y-87051802D01*
X92762241Y-87126918D01*
X92919181Y-87165600D01*
X93080819Y-87165600D01*
X93237759Y-87126918D01*
X93380881Y-87051802D01*
X93501868Y-86944616D01*
X93593689Y-86811592D01*
X93651006Y-86660459D01*
X93670489Y-86500000D01*
X93670489Y-86499999D01*
X99929511Y-86499999D01*
X99929511Y-86500000D01*
X99948994Y-86660459D01*
X100006312Y-86811595D01*
X100006313Y-86811596D01*
X100098128Y-86944611D01*
X100098132Y-86944616D01*
X100219119Y-87051802D01*
X100362241Y-87126918D01*
X100519181Y-87165600D01*
X100680819Y-87165600D01*
X100837759Y-87126918D01*
X100980881Y-87051802D01*
X101101868Y-86944616D01*
X101193689Y-86811592D01*
X101251006Y-86660459D01*
X101270489Y-86500000D01*
X101251006Y-86339541D01*
X101193689Y-86188408D01*
X101193687Y-86188406D01*
X101193687Y-86188404D01*
X101193686Y-86188403D01*
X101101871Y-86055388D01*
X101101867Y-86055383D01*
X101086288Y-86041582D01*
X100980881Y-85948198D01*
X100837759Y-85873082D01*
X100837758Y-85873081D01*
X100837757Y-85873081D01*
X100680819Y-85834400D01*
X100519181Y-85834400D01*
X100362242Y-85873081D01*
X100219120Y-85948197D01*
X100098132Y-86055383D01*
X100098128Y-86055388D01*
X100006313Y-86188403D01*
X100006312Y-86188404D01*
X99948994Y-86339540D01*
X99929511Y-86499999D01*
X93670489Y-86499999D01*
X93651006Y-86339541D01*
X93593689Y-86188408D01*
X93593687Y-86188406D01*
X93593687Y-86188404D01*
X93593686Y-86188403D01*
X93501871Y-86055388D01*
X93501867Y-86055383D01*
X93486288Y-86041582D01*
X93380881Y-85948198D01*
X93237759Y-85873082D01*
X93237758Y-85873081D01*
X93237757Y-85873081D01*
X93080819Y-85834400D01*
X92919181Y-85834400D01*
X92762242Y-85873081D01*
X92619120Y-85948197D01*
X92498132Y-86055383D01*
X92498128Y-86055388D01*
X92406313Y-86188403D01*
X92406312Y-86188404D01*
X92348994Y-86339540D01*
X92329511Y-86499999D01*
X27500500Y-86499999D01*
X27500500Y-84874999D01*
X78079511Y-84874999D01*
X78079511Y-84875000D01*
X78098994Y-85035459D01*
X78156312Y-85186595D01*
X78156313Y-85186596D01*
X78248128Y-85319611D01*
X78248132Y-85319616D01*
X78369119Y-85426802D01*
X78512241Y-85501918D01*
X78669181Y-85540600D01*
X78830819Y-85540600D01*
X78987759Y-85501918D01*
X79130881Y-85426802D01*
X79251868Y-85319616D01*
X79343689Y-85186592D01*
X79401006Y-85035459D01*
X79420489Y-84875000D01*
X79401006Y-84714541D01*
X79343689Y-84563408D01*
X79343687Y-84563406D01*
X79343687Y-84563404D01*
X79343686Y-84563403D01*
X79251871Y-84430388D01*
X79251867Y-84430383D01*
X79236288Y-84416582D01*
X79130881Y-84323198D01*
X78987759Y-84248082D01*
X78987758Y-84248081D01*
X78987757Y-84248081D01*
X78830819Y-84209400D01*
X78669181Y-84209400D01*
X78512242Y-84248081D01*
X78369120Y-84323197D01*
X78248132Y-84430383D01*
X78248128Y-84430388D01*
X78156313Y-84563403D01*
X78156312Y-84563404D01*
X78098994Y-84714540D01*
X78079511Y-84874999D01*
X27500500Y-84874999D01*
X27500500Y-72999999D01*
X31334511Y-72999999D01*
X31334511Y-73000000D01*
X31353994Y-73160459D01*
X31411312Y-73311595D01*
X31411313Y-73311596D01*
X31503128Y-73444611D01*
X31503132Y-73444616D01*
X31624119Y-73551802D01*
X31767241Y-73626918D01*
X31924181Y-73665600D01*
X32085819Y-73665600D01*
X32242759Y-73626918D01*
X32385881Y-73551802D01*
X32506868Y-73444616D01*
X32598689Y-73311592D01*
X32656006Y-73160459D01*
X32675489Y-73000000D01*
X32675489Y-72999999D01*
X49114511Y-72999999D01*
X49114511Y-73000000D01*
X49133994Y-73160459D01*
X49191312Y-73311595D01*
X49191313Y-73311596D01*
X49283128Y-73444611D01*
X49283132Y-73444616D01*
X49404119Y-73551802D01*
X49547241Y-73626918D01*
X49704181Y-73665600D01*
X49865819Y-73665600D01*
X50022759Y-73626918D01*
X50165881Y-73551802D01*
X50286868Y-73444616D01*
X50378689Y-73311592D01*
X50436006Y-73160459D01*
X50455489Y-73000000D01*
X50455489Y-72999999D01*
X131334511Y-72999999D01*
X131334511Y-73000000D01*
X131353994Y-73160459D01*
X131411312Y-73311595D01*
X131411313Y-73311596D01*
X131503128Y-73444611D01*
X131503132Y-73444616D01*
X131624119Y-73551802D01*
X131767241Y-73626918D01*
X131924181Y-73665600D01*
X132085819Y-73665600D01*
X132242759Y-73626918D01*
X132385881Y-73551802D01*
X132506868Y-73444616D01*
X132598689Y-73311592D01*
X132656006Y-73160459D01*
X132675489Y-73000000D01*
X132675489Y-72999999D01*
X149114511Y-72999999D01*
X149114511Y-73000000D01*
X149133994Y-73160459D01*
X149191312Y-73311595D01*
X149191313Y-73311596D01*
X149283128Y-73444611D01*
X149283132Y-73444616D01*
X149404119Y-73551802D01*
X149547241Y-73626918D01*
X149704181Y-73665600D01*
X149865819Y-73665600D01*
X150022759Y-73626918D01*
X150165881Y-73551802D01*
X150286868Y-73444616D01*
X150378689Y-73311592D01*
X150436006Y-73160459D01*
X150455489Y-73000000D01*
X150436006Y-72839541D01*
X150378689Y-72688408D01*
X150378687Y-72688406D01*
X150378687Y-72688404D01*
X150378686Y-72688403D01*
X150286871Y-72555388D01*
X150286867Y-72555383D01*
X150271288Y-72541582D01*
X150165881Y-72448198D01*
X150022759Y-72373082D01*
X150022758Y-72373081D01*
X150022757Y-72373081D01*
X149865819Y-72334400D01*
X149704181Y-72334400D01*
X149547242Y-72373081D01*
X149404120Y-72448197D01*
X149283132Y-72555383D01*
X149283128Y-72555388D01*
X149191313Y-72688403D01*
X149191312Y-72688404D01*
X149133994Y-72839540D01*
X149114511Y-72999999D01*
X132675489Y-72999999D01*
X132656006Y-72839541D01*
X132598689Y-72688408D01*
X132598687Y-72688406D01*
X132598687Y-72688404D01*
X132598686Y-72688403D01*
X132506871Y-72555388D01*
X132506867Y-72555383D01*
X132491288Y-72541582D01*
X132385881Y-72448198D01*
X132242759Y-72373082D01*
X132242758Y-72373081D01*
X132242757Y-72373081D01*
X132085819Y-72334400D01*
X131924181Y-72334400D01*
X131767242Y-72373081D01*
X131624120Y-72448197D01*
X131503132Y-72555383D01*
X131503128Y-72555388D01*
X131411313Y-72688403D01*
X131411312Y-72688404D01*
X131353994Y-72839540D01*
X131334511Y-72999999D01*
X50455489Y-72999999D01*
X50436006Y-72839541D01*
X50378689Y-72688408D01*
X50378687Y-72688406D01*
X50378687Y-72688404D01*
X50378686Y-72688403D01*
X50286871Y-72555388D01*
X50286867Y-72555383D01*
X50271288Y-72541582D01*
X50165881Y-72448198D01*
X50022759Y-72373082D01*
X50022758Y-72373081D01*
X50022757Y-72373081D01*
X49865819Y-72334400D01*
X49704181Y-72334400D01*
X49547242Y-72373081D01*
X49404120Y-72448197D01*
X49283132Y-72555383D01*
X49283128Y-72555388D01*
X49191313Y-72688403D01*
X49191312Y-72688404D01*
X49133994Y-72839540D01*
X49114511Y-72999999D01*
X32675489Y-72999999D01*
X32656006Y-72839541D01*
X32598689Y-72688408D01*
X32598687Y-72688406D01*
X32598687Y-72688404D01*
X32598686Y-72688403D01*
X32506871Y-72555388D01*
X32506867Y-72555383D01*
X32491288Y-72541582D01*
X32385881Y-72448198D01*
X32242759Y-72373082D01*
X32242758Y-72373081D01*
X32242757Y-72373081D01*
X32085819Y-72334400D01*
X31924181Y-72334400D01*
X31767242Y-72373081D01*
X31624120Y-72448197D01*
X31503132Y-72555383D01*
X31503128Y-72555388D01*
X31411313Y-72688403D01*
X31411312Y-72688404D01*
X31353994Y-72839540D01*
X31334511Y-72999999D01*
X27500500Y-72999999D01*
X27500500Y-68416721D01*
X29569500Y-68416721D01*
X29569500Y-68583278D01*
X29601990Y-68746615D01*
X29601992Y-68746623D01*
X29665728Y-68900495D01*
X29665728Y-68900496D01*
X29758255Y-69038973D01*
X29758261Y-69038980D01*
X29876019Y-69156738D01*
X29876026Y-69156744D01*
X30014504Y-69249271D01*
X30014505Y-69249271D01*
X30014506Y-69249272D01*
X30168377Y-69313008D01*
X30331721Y-69345499D01*
X30331725Y-69345500D01*
X30331726Y-69345500D01*
X30498275Y-69345500D01*
X30498276Y-69345499D01*
X30661623Y-69313008D01*
X30815494Y-69249272D01*
X30815495Y-69249271D01*
X30815496Y-69249271D01*
X30884734Y-69203007D01*
X30953975Y-69156743D01*
X31071743Y-69038975D01*
X31164272Y-68900494D01*
X31228008Y-68746623D01*
X31260500Y-68583274D01*
X31260500Y-68416726D01*
X31260499Y-68416721D01*
X50529500Y-68416721D01*
X50529500Y-68583278D01*
X50561990Y-68746615D01*
X50561992Y-68746623D01*
X50625728Y-68900495D01*
X50625728Y-68900496D01*
X50718255Y-69038973D01*
X50718261Y-69038980D01*
X50836019Y-69156738D01*
X50836026Y-69156744D01*
X50974504Y-69249271D01*
X50974505Y-69249271D01*
X50974506Y-69249272D01*
X51128377Y-69313008D01*
X51291721Y-69345499D01*
X51291725Y-69345500D01*
X51291726Y-69345500D01*
X51458275Y-69345500D01*
X51458276Y-69345499D01*
X51621623Y-69313008D01*
X51775494Y-69249272D01*
X51775495Y-69249271D01*
X51775496Y-69249271D01*
X51844734Y-69203007D01*
X51913975Y-69156743D01*
X52031743Y-69038975D01*
X52124272Y-68900494D01*
X52188008Y-68746623D01*
X52220500Y-68583274D01*
X52220500Y-68416726D01*
X52220499Y-68416721D01*
X129569500Y-68416721D01*
X129569500Y-68583278D01*
X129601990Y-68746615D01*
X129601992Y-68746623D01*
X129665728Y-68900495D01*
X129665728Y-68900496D01*
X129758255Y-69038973D01*
X129758261Y-69038980D01*
X129876019Y-69156738D01*
X129876026Y-69156744D01*
X130014504Y-69249271D01*
X130014505Y-69249271D01*
X130014506Y-69249272D01*
X130168377Y-69313008D01*
X130331721Y-69345499D01*
X130331725Y-69345500D01*
X130331726Y-69345500D01*
X130498275Y-69345500D01*
X130498276Y-69345499D01*
X130661623Y-69313008D01*
X130815494Y-69249272D01*
X130815495Y-69249271D01*
X130815496Y-69249271D01*
X130884734Y-69203007D01*
X130953975Y-69156743D01*
X131071743Y-69038975D01*
X131164272Y-68900494D01*
X131228008Y-68746623D01*
X131260500Y-68583274D01*
X131260500Y-68416726D01*
X131260499Y-68416721D01*
X150529500Y-68416721D01*
X150529500Y-68583278D01*
X150561990Y-68746615D01*
X150561992Y-68746623D01*
X150625728Y-68900495D01*
X150625728Y-68900496D01*
X150718255Y-69038973D01*
X150718261Y-69038980D01*
X150836019Y-69156738D01*
X150836026Y-69156744D01*
X150974504Y-69249271D01*
X150974505Y-69249271D01*
X150974506Y-69249272D01*
X151128377Y-69313008D01*
X151291721Y-69345499D01*
X151291725Y-69345500D01*
X151291726Y-69345500D01*
X151458275Y-69345500D01*
X151458276Y-69345499D01*
X151621623Y-69313008D01*
X151775494Y-69249272D01*
X151775495Y-69249271D01*
X151775496Y-69249271D01*
X151844734Y-69203007D01*
X151913975Y-69156743D01*
X152031743Y-69038975D01*
X152124272Y-68900494D01*
X152188008Y-68746623D01*
X152220500Y-68583274D01*
X152220500Y-68416726D01*
X152188008Y-68253377D01*
X152124272Y-68099506D01*
X152124271Y-68099504D01*
X152124271Y-68099503D01*
X152031744Y-67961026D01*
X152031738Y-67961019D01*
X151913980Y-67843261D01*
X151913973Y-67843255D01*
X151775495Y-67750728D01*
X151621623Y-67686992D01*
X151621615Y-67686990D01*
X151458278Y-67654500D01*
X151458274Y-67654500D01*
X151291726Y-67654500D01*
X151291721Y-67654500D01*
X151128384Y-67686990D01*
X151128376Y-67686992D01*
X150974504Y-67750728D01*
X150974503Y-67750728D01*
X150836026Y-67843255D01*
X150836019Y-67843261D01*
X150718261Y-67961019D01*
X150718255Y-67961026D01*
X150625728Y-68099503D01*
X150625728Y-68099504D01*
X150561992Y-68253376D01*
X150561990Y-68253384D01*
X150529500Y-68416721D01*
X131260499Y-68416721D01*
X131228008Y-68253377D01*
X131164272Y-68099506D01*
X131164271Y-68099504D01*
X131164271Y-68099503D01*
X131071744Y-67961026D01*
X131071738Y-67961019D01*
X130953980Y-67843261D01*
X130953973Y-67843255D01*
X130815495Y-67750728D01*
X130661623Y-67686992D01*
X130661615Y-67686990D01*
X130498278Y-67654500D01*
X130498274Y-67654500D01*
X130331726Y-67654500D01*
X130331721Y-67654500D01*
X130168384Y-67686990D01*
X130168376Y-67686992D01*
X130014504Y-67750728D01*
X130014503Y-67750728D01*
X129876026Y-67843255D01*
X129876019Y-67843261D01*
X129758261Y-67961019D01*
X129758255Y-67961026D01*
X129665728Y-68099503D01*
X129665728Y-68099504D01*
X129601992Y-68253376D01*
X129601990Y-68253384D01*
X129569500Y-68416721D01*
X52220499Y-68416721D01*
X52188008Y-68253377D01*
X52124272Y-68099506D01*
X52124271Y-68099504D01*
X52124271Y-68099503D01*
X52031744Y-67961026D01*
X52031738Y-67961019D01*
X51913980Y-67843261D01*
X51913973Y-67843255D01*
X51775495Y-67750728D01*
X51621623Y-67686992D01*
X51621615Y-67686990D01*
X51458278Y-67654500D01*
X51458274Y-67654500D01*
X51291726Y-67654500D01*
X51291721Y-67654500D01*
X51128384Y-67686990D01*
X51128376Y-67686992D01*
X50974504Y-67750728D01*
X50974503Y-67750728D01*
X50836026Y-67843255D01*
X50836019Y-67843261D01*
X50718261Y-67961019D01*
X50718255Y-67961026D01*
X50625728Y-68099503D01*
X50625728Y-68099504D01*
X50561992Y-68253376D01*
X50561990Y-68253384D01*
X50529500Y-68416721D01*
X31260499Y-68416721D01*
X31228008Y-68253377D01*
X31164272Y-68099506D01*
X31164271Y-68099504D01*
X31164271Y-68099503D01*
X31071744Y-67961026D01*
X31071738Y-67961019D01*
X30953980Y-67843261D01*
X30953973Y-67843255D01*
X30815495Y-67750728D01*
X30661623Y-67686992D01*
X30661615Y-67686990D01*
X30498278Y-67654500D01*
X30498274Y-67654500D01*
X30331726Y-67654500D01*
X30331721Y-67654500D01*
X30168384Y-67686990D01*
X30168376Y-67686992D01*
X30014504Y-67750728D01*
X30014503Y-67750728D01*
X29876026Y-67843255D01*
X29876019Y-67843261D01*
X29758261Y-67961019D01*
X29758255Y-67961026D01*
X29665728Y-68099503D01*
X29665728Y-68099504D01*
X29601992Y-68253376D01*
X29601990Y-68253384D01*
X29569500Y-68416721D01*
X27500500Y-68416721D01*
X27500500Y-53499999D01*
X71174511Y-53499999D01*
X71174511Y-53500000D01*
X71193994Y-53660459D01*
X71251312Y-53811595D01*
X71251313Y-53811596D01*
X71343128Y-53944611D01*
X71343130Y-53944613D01*
X71343132Y-53944616D01*
X71464119Y-54051802D01*
X71607241Y-54126918D01*
X71764181Y-54165600D01*
X71925819Y-54165600D01*
X72082759Y-54126918D01*
X72225881Y-54051802D01*
X72346868Y-53944616D01*
X72377950Y-53899585D01*
X72432233Y-53855596D01*
X72501682Y-53847936D01*
X72564246Y-53879040D01*
X72582048Y-53899583D01*
X72613132Y-53944616D01*
X72734119Y-54051802D01*
X72877241Y-54126918D01*
X73034181Y-54165600D01*
X73195819Y-54165600D01*
X73352759Y-54126918D01*
X73495881Y-54051802D01*
X73616868Y-53944616D01*
X73647451Y-53900310D01*
X73652951Y-53892342D01*
X73707234Y-53848352D01*
X73776682Y-53840693D01*
X73839247Y-53871797D01*
X73857049Y-53892342D01*
X73893128Y-53944611D01*
X73893130Y-53944613D01*
X73893132Y-53944616D01*
X74014119Y-54051802D01*
X74157241Y-54126918D01*
X74314181Y-54165600D01*
X74475819Y-54165600D01*
X74632759Y-54126918D01*
X74775881Y-54051802D01*
X74896868Y-53944616D01*
X74922950Y-53906829D01*
X74977233Y-53862839D01*
X75046682Y-53855180D01*
X75109247Y-53886284D01*
X75127049Y-53906829D01*
X75153132Y-53944616D01*
X75274119Y-54051802D01*
X75417241Y-54126918D01*
X75574181Y-54165600D01*
X75735819Y-54165600D01*
X75892759Y-54126918D01*
X76035881Y-54051802D01*
X76156868Y-53944616D01*
X76187950Y-53899585D01*
X76242233Y-53855596D01*
X76311682Y-53847936D01*
X76374246Y-53879040D01*
X76392048Y-53899583D01*
X76423132Y-53944616D01*
X76544119Y-54051802D01*
X76687241Y-54126918D01*
X76844181Y-54165600D01*
X77005819Y-54165600D01*
X77162759Y-54126918D01*
X77305881Y-54051802D01*
X77426868Y-53944616D01*
X77457950Y-53899585D01*
X77512233Y-53855596D01*
X77581682Y-53847936D01*
X77644246Y-53879040D01*
X77662048Y-53899583D01*
X77693132Y-53944616D01*
X77814119Y-54051802D01*
X77957241Y-54126918D01*
X78114181Y-54165600D01*
X78275819Y-54165600D01*
X78432759Y-54126918D01*
X78575881Y-54051802D01*
X78696868Y-53944616D01*
X78727950Y-53899585D01*
X78782233Y-53855596D01*
X78851682Y-53847936D01*
X78914246Y-53879040D01*
X78932048Y-53899583D01*
X78963132Y-53944616D01*
X79084119Y-54051802D01*
X79227241Y-54126918D01*
X79384181Y-54165600D01*
X79545819Y-54165600D01*
X79702759Y-54126918D01*
X79845881Y-54051802D01*
X79966868Y-53944616D01*
X79997950Y-53899585D01*
X80052233Y-53855596D01*
X80121682Y-53847936D01*
X80184246Y-53879040D01*
X80202048Y-53899583D01*
X80233132Y-53944616D01*
X80354119Y-54051802D01*
X80497241Y-54126918D01*
X80654181Y-54165600D01*
X80815819Y-54165600D01*
X80972759Y-54126918D01*
X81115881Y-54051802D01*
X81236868Y-53944616D01*
X81268451Y-53898859D01*
X81322733Y-53854871D01*
X81392182Y-53847212D01*
X81454747Y-53878316D01*
X81472546Y-53898856D01*
X81504132Y-53944616D01*
X81625119Y-54051802D01*
X81768241Y-54126918D01*
X81925181Y-54165600D01*
X82086819Y-54165600D01*
X82243759Y-54126918D01*
X82386881Y-54051802D01*
X82507868Y-53944616D01*
X82538451Y-53900310D01*
X82592734Y-53856320D01*
X82662182Y-53848661D01*
X82724747Y-53879765D01*
X82742549Y-53900310D01*
X82773128Y-53944611D01*
X82773130Y-53944613D01*
X82773132Y-53944616D01*
X82894119Y-54051802D01*
X83037241Y-54126918D01*
X83194181Y-54165600D01*
X83355819Y-54165600D01*
X83512759Y-54126918D01*
X83655881Y-54051802D01*
X83776868Y-53944616D01*
X83807950Y-53899585D01*
X83862233Y-53855596D01*
X83931682Y-53847936D01*
X83994246Y-53879040D01*
X84012048Y-53899583D01*
X84043132Y-53944616D01*
X84164119Y-54051802D01*
X84307241Y-54126918D01*
X84464181Y-54165600D01*
X84625819Y-54165600D01*
X84782759Y-54126918D01*
X84925881Y-54051802D01*
X85046868Y-53944616D01*
X85077950Y-53899585D01*
X85132233Y-53855596D01*
X85201682Y-53847936D01*
X85264246Y-53879040D01*
X85282048Y-53899583D01*
X85313132Y-53944616D01*
X85434119Y-54051802D01*
X85577241Y-54126918D01*
X85734181Y-54165600D01*
X85895819Y-54165600D01*
X86052759Y-54126918D01*
X86195881Y-54051802D01*
X86316868Y-53944616D01*
X86347950Y-53899585D01*
X86402233Y-53855596D01*
X86471682Y-53847936D01*
X86534246Y-53879040D01*
X86552048Y-53899583D01*
X86583132Y-53944616D01*
X86704119Y-54051802D01*
X86847241Y-54126918D01*
X87004181Y-54165600D01*
X87165819Y-54165600D01*
X87322759Y-54126918D01*
X87465881Y-54051802D01*
X87586868Y-53944616D01*
X87607951Y-53914073D01*
X87662234Y-53870083D01*
X87731682Y-53862424D01*
X87794247Y-53893528D01*
X87812049Y-53914073D01*
X87833128Y-53944611D01*
X87833130Y-53944613D01*
X87833132Y-53944616D01*
X87954119Y-54051802D01*
X88097241Y-54126918D01*
X88254181Y-54165600D01*
X88415819Y-54165600D01*
X88572759Y-54126918D01*
X88715881Y-54051802D01*
X88836868Y-53944616D01*
X88877951Y-53885096D01*
X88932233Y-53841108D01*
X89001682Y-53833449D01*
X89064247Y-53864553D01*
X89082045Y-53885093D01*
X89123132Y-53944616D01*
X89244119Y-54051802D01*
X89387241Y-54126918D01*
X89544181Y-54165600D01*
X89705819Y-54165600D01*
X89862759Y-54126918D01*
X90005881Y-54051802D01*
X90126868Y-53944616D01*
X90157950Y-53899585D01*
X90212233Y-53855596D01*
X90281682Y-53847936D01*
X90344246Y-53879040D01*
X90362048Y-53899583D01*
X90393132Y-53944616D01*
X90514119Y-54051802D01*
X90657241Y-54126918D01*
X90814181Y-54165600D01*
X90975819Y-54165600D01*
X91132759Y-54126918D01*
X91275881Y-54051802D01*
X91396868Y-53944616D01*
X91427950Y-53899585D01*
X91482233Y-53855596D01*
X91551682Y-53847936D01*
X91614246Y-53879040D01*
X91632048Y-53899583D01*
X91663132Y-53944616D01*
X91784119Y-54051802D01*
X91927241Y-54126918D01*
X92084181Y-54165600D01*
X92245819Y-54165600D01*
X92402759Y-54126918D01*
X92545881Y-54051802D01*
X92666868Y-53944616D01*
X92697451Y-53900310D01*
X92702951Y-53892342D01*
X92757234Y-53848352D01*
X92826682Y-53840693D01*
X92889247Y-53871797D01*
X92907049Y-53892342D01*
X92943128Y-53944611D01*
X92943130Y-53944613D01*
X92943132Y-53944616D01*
X93064119Y-54051802D01*
X93207241Y-54126918D01*
X93364181Y-54165600D01*
X93525819Y-54165600D01*
X93682759Y-54126918D01*
X93825881Y-54051802D01*
X93946868Y-53944616D01*
X93972950Y-53906829D01*
X94027233Y-53862839D01*
X94096682Y-53855180D01*
X94159247Y-53886284D01*
X94177049Y-53906829D01*
X94203132Y-53944616D01*
X94324119Y-54051802D01*
X94467241Y-54126918D01*
X94624181Y-54165600D01*
X94785819Y-54165600D01*
X94942759Y-54126918D01*
X95085881Y-54051802D01*
X95206868Y-53944616D01*
X95237950Y-53899585D01*
X95292233Y-53855596D01*
X95361682Y-53847936D01*
X95424246Y-53879040D01*
X95442048Y-53899583D01*
X95473132Y-53944616D01*
X95594119Y-54051802D01*
X95737241Y-54126918D01*
X95894181Y-54165600D01*
X96055819Y-54165600D01*
X96212759Y-54126918D01*
X96355881Y-54051802D01*
X96476868Y-53944616D01*
X96507950Y-53899585D01*
X96562233Y-53855596D01*
X96631682Y-53847936D01*
X96694246Y-53879040D01*
X96712048Y-53899583D01*
X96743132Y-53944616D01*
X96864119Y-54051802D01*
X97007241Y-54126918D01*
X97164181Y-54165600D01*
X97325819Y-54165600D01*
X97482759Y-54126918D01*
X97625881Y-54051802D01*
X97746868Y-53944616D01*
X97777950Y-53899585D01*
X97832233Y-53855596D01*
X97901682Y-53847936D01*
X97964246Y-53879040D01*
X97982048Y-53899583D01*
X98013132Y-53944616D01*
X98134119Y-54051802D01*
X98277241Y-54126918D01*
X98434181Y-54165600D01*
X98595819Y-54165600D01*
X98752759Y-54126918D01*
X98895881Y-54051802D01*
X99016868Y-53944616D01*
X99047950Y-53899585D01*
X99102233Y-53855596D01*
X99171682Y-53847936D01*
X99234246Y-53879040D01*
X99252048Y-53899583D01*
X99283132Y-53944616D01*
X99404119Y-54051802D01*
X99547241Y-54126918D01*
X99704181Y-54165600D01*
X99865819Y-54165600D01*
X100022759Y-54126918D01*
X100165881Y-54051802D01*
X100286868Y-53944616D01*
X100318451Y-53898859D01*
X100372733Y-53854871D01*
X100442182Y-53847212D01*
X100504747Y-53878316D01*
X100522546Y-53898856D01*
X100554132Y-53944616D01*
X100675119Y-54051802D01*
X100818241Y-54126918D01*
X100975181Y-54165600D01*
X101136819Y-54165600D01*
X101293759Y-54126918D01*
X101436881Y-54051802D01*
X101557868Y-53944616D01*
X101588451Y-53900310D01*
X101642734Y-53856320D01*
X101712182Y-53848661D01*
X101774747Y-53879765D01*
X101792549Y-53900310D01*
X101823128Y-53944611D01*
X101823130Y-53944613D01*
X101823132Y-53944616D01*
X101944119Y-54051802D01*
X102087241Y-54126918D01*
X102244181Y-54165600D01*
X102405819Y-54165600D01*
X102562759Y-54126918D01*
X102705881Y-54051802D01*
X102826868Y-53944616D01*
X102857950Y-53899585D01*
X102912233Y-53855596D01*
X102981682Y-53847936D01*
X103044246Y-53879040D01*
X103062048Y-53899583D01*
X103093132Y-53944616D01*
X103214119Y-54051802D01*
X103357241Y-54126918D01*
X103514181Y-54165600D01*
X103675819Y-54165600D01*
X103832759Y-54126918D01*
X103975881Y-54051802D01*
X104096868Y-53944616D01*
X104127950Y-53899585D01*
X104182233Y-53855596D01*
X104251682Y-53847936D01*
X104314246Y-53879040D01*
X104332048Y-53899583D01*
X104363132Y-53944616D01*
X104484119Y-54051802D01*
X104627241Y-54126918D01*
X104784181Y-54165600D01*
X104945819Y-54165600D01*
X105102759Y-54126918D01*
X105245881Y-54051802D01*
X105366868Y-53944616D01*
X105397950Y-53899585D01*
X105452233Y-53855596D01*
X105521682Y-53847936D01*
X105584246Y-53879040D01*
X105602048Y-53899583D01*
X105633132Y-53944616D01*
X105754119Y-54051802D01*
X105897241Y-54126918D01*
X106054181Y-54165600D01*
X106215819Y-54165600D01*
X106372759Y-54126918D01*
X106515881Y-54051802D01*
X106636868Y-53944616D01*
X106657951Y-53914073D01*
X106712234Y-53870083D01*
X106781682Y-53862424D01*
X106844247Y-53893528D01*
X106862049Y-53914073D01*
X106883128Y-53944611D01*
X106883130Y-53944613D01*
X106883132Y-53944616D01*
X107004119Y-54051802D01*
X107147241Y-54126918D01*
X107304181Y-54165600D01*
X107465819Y-54165600D01*
X107622759Y-54126918D01*
X107765881Y-54051802D01*
X107886868Y-53944616D01*
X107927951Y-53885096D01*
X107982233Y-53841108D01*
X108051682Y-53833449D01*
X108114247Y-53864553D01*
X108132045Y-53885093D01*
X108173132Y-53944616D01*
X108294119Y-54051802D01*
X108437241Y-54126918D01*
X108594181Y-54165600D01*
X108755819Y-54165600D01*
X108912759Y-54126918D01*
X109055881Y-54051802D01*
X109176868Y-53944616D01*
X109207950Y-53899585D01*
X109262233Y-53855596D01*
X109331682Y-53847936D01*
X109394246Y-53879040D01*
X109412048Y-53899583D01*
X109443132Y-53944616D01*
X109564119Y-54051802D01*
X109707241Y-54126918D01*
X109864181Y-54165600D01*
X110025819Y-54165600D01*
X110182759Y-54126918D01*
X110325881Y-54051802D01*
X110446868Y-53944616D01*
X110538689Y-53811592D01*
X110596006Y-53660459D01*
X110615489Y-53500000D01*
X110615489Y-53499999D01*
X115624511Y-53499999D01*
X115624511Y-53500000D01*
X115643994Y-53660459D01*
X115701312Y-53811595D01*
X115701313Y-53811596D01*
X115793128Y-53944611D01*
X115793130Y-53944613D01*
X115793132Y-53944616D01*
X115914119Y-54051802D01*
X116057241Y-54126918D01*
X116214181Y-54165600D01*
X116375819Y-54165600D01*
X116532759Y-54126918D01*
X116675881Y-54051802D01*
X116796868Y-53944616D01*
X116888689Y-53811592D01*
X116946006Y-53660459D01*
X116965489Y-53500000D01*
X116965489Y-53499999D01*
X120069511Y-53499999D01*
X120069511Y-53500000D01*
X120088994Y-53660459D01*
X120146312Y-53811595D01*
X120146313Y-53811596D01*
X120238128Y-53944611D01*
X120238130Y-53944613D01*
X120238132Y-53944616D01*
X120359119Y-54051802D01*
X120502241Y-54126918D01*
X120659181Y-54165600D01*
X120820819Y-54165600D01*
X120977759Y-54126918D01*
X121120881Y-54051802D01*
X121241868Y-53944616D01*
X121333689Y-53811592D01*
X121391006Y-53660459D01*
X121410489Y-53500000D01*
X121391006Y-53339541D01*
X121333689Y-53188408D01*
X121333687Y-53188406D01*
X121333687Y-53188404D01*
X121333686Y-53188403D01*
X121241871Y-53055388D01*
X121241867Y-53055383D01*
X121226288Y-53041582D01*
X121120881Y-52948198D01*
X120977759Y-52873082D01*
X120977758Y-52873081D01*
X120977757Y-52873081D01*
X120820819Y-52834400D01*
X120659181Y-52834400D01*
X120502242Y-52873081D01*
X120359120Y-52948197D01*
X120238132Y-53055383D01*
X120238128Y-53055388D01*
X120146313Y-53188403D01*
X120146312Y-53188404D01*
X120088994Y-53339540D01*
X120069511Y-53499999D01*
X116965489Y-53499999D01*
X116946006Y-53339541D01*
X116888689Y-53188408D01*
X116888687Y-53188406D01*
X116888687Y-53188404D01*
X116888686Y-53188403D01*
X116796871Y-53055388D01*
X116796867Y-53055383D01*
X116781288Y-53041582D01*
X116675881Y-52948198D01*
X116532759Y-52873082D01*
X116532758Y-52873081D01*
X116532757Y-52873081D01*
X116375819Y-52834400D01*
X116214181Y-52834400D01*
X116057242Y-52873081D01*
X115914120Y-52948197D01*
X115793132Y-53055383D01*
X115793128Y-53055388D01*
X115701313Y-53188403D01*
X115701312Y-53188404D01*
X115643994Y-53339540D01*
X115624511Y-53499999D01*
X110615489Y-53499999D01*
X110596006Y-53339541D01*
X110538689Y-53188408D01*
X110538687Y-53188406D01*
X110538687Y-53188404D01*
X110538686Y-53188403D01*
X110446871Y-53055388D01*
X110446867Y-53055383D01*
X110431288Y-53041582D01*
X110325881Y-52948198D01*
X110182759Y-52873082D01*
X110182758Y-52873081D01*
X110182757Y-52873081D01*
X110025819Y-52834400D01*
X109864181Y-52834400D01*
X109707242Y-52873081D01*
X109564120Y-52948197D01*
X109443132Y-53055383D01*
X109443128Y-53055388D01*
X109412049Y-53100414D01*
X109357766Y-53144404D01*
X109288317Y-53152063D01*
X109225753Y-53120959D01*
X109207951Y-53100414D01*
X109176871Y-53055388D01*
X109176867Y-53055383D01*
X109161288Y-53041582D01*
X109055881Y-52948198D01*
X108912759Y-52873082D01*
X108912758Y-52873081D01*
X108912757Y-52873081D01*
X108755819Y-52834400D01*
X108594181Y-52834400D01*
X108437242Y-52873081D01*
X108294120Y-52948197D01*
X108173132Y-53055383D01*
X108173128Y-53055388D01*
X108132049Y-53114901D01*
X108077766Y-53158891D01*
X108008317Y-53166550D01*
X107945753Y-53135446D01*
X107927951Y-53114901D01*
X107886871Y-53055388D01*
X107886867Y-53055383D01*
X107871288Y-53041582D01*
X107765881Y-52948198D01*
X107622759Y-52873082D01*
X107622758Y-52873081D01*
X107622757Y-52873081D01*
X107465819Y-52834400D01*
X107304181Y-52834400D01*
X107147242Y-52873081D01*
X107004120Y-52948197D01*
X106883132Y-53055383D01*
X106883126Y-53055390D01*
X106862048Y-53085927D01*
X106807765Y-53129916D01*
X106738316Y-53137574D01*
X106675752Y-53106470D01*
X106657952Y-53085927D01*
X106636873Y-53055390D01*
X106636867Y-53055383D01*
X106621288Y-53041582D01*
X106515881Y-52948198D01*
X106372759Y-52873082D01*
X106372758Y-52873081D01*
X106372757Y-52873081D01*
X106215819Y-52834400D01*
X106054181Y-52834400D01*
X105897242Y-52873081D01*
X105754120Y-52948197D01*
X105633132Y-53055383D01*
X105633128Y-53055388D01*
X105602049Y-53100414D01*
X105547766Y-53144404D01*
X105478317Y-53152063D01*
X105415753Y-53120959D01*
X105397951Y-53100414D01*
X105366871Y-53055388D01*
X105366867Y-53055383D01*
X105351288Y-53041582D01*
X105245881Y-52948198D01*
X105102759Y-52873082D01*
X105102758Y-52873081D01*
X105102757Y-52873081D01*
X104945819Y-52834400D01*
X104784181Y-52834400D01*
X104627242Y-52873081D01*
X104484120Y-52948197D01*
X104363132Y-53055383D01*
X104363128Y-53055388D01*
X104332049Y-53100414D01*
X104277766Y-53144404D01*
X104208317Y-53152063D01*
X104145753Y-53120959D01*
X104127951Y-53100414D01*
X104096871Y-53055388D01*
X104096867Y-53055383D01*
X104081288Y-53041582D01*
X103975881Y-52948198D01*
X103832759Y-52873082D01*
X103832758Y-52873081D01*
X103832757Y-52873081D01*
X103675819Y-52834400D01*
X103514181Y-52834400D01*
X103357242Y-52873081D01*
X103214120Y-52948197D01*
X103093132Y-53055383D01*
X103093128Y-53055388D01*
X103062049Y-53100414D01*
X103007766Y-53144404D01*
X102938317Y-53152063D01*
X102875753Y-53120959D01*
X102857951Y-53100414D01*
X102826871Y-53055388D01*
X102826867Y-53055383D01*
X102811288Y-53041582D01*
X102705881Y-52948198D01*
X102562759Y-52873082D01*
X102562758Y-52873081D01*
X102562757Y-52873081D01*
X102405819Y-52834400D01*
X102244181Y-52834400D01*
X102087242Y-52873081D01*
X101944120Y-52948197D01*
X101823132Y-53055383D01*
X101823131Y-53055384D01*
X101792549Y-53099690D01*
X101738265Y-53143679D01*
X101668817Y-53151337D01*
X101606252Y-53120233D01*
X101588451Y-53099690D01*
X101557868Y-53055384D01*
X101557867Y-53055383D01*
X101542288Y-53041582D01*
X101436881Y-52948198D01*
X101293759Y-52873082D01*
X101293758Y-52873081D01*
X101293757Y-52873081D01*
X101136819Y-52834400D01*
X100975181Y-52834400D01*
X100818242Y-52873081D01*
X100675120Y-52948197D01*
X100554132Y-53055383D01*
X100554128Y-53055388D01*
X100522549Y-53101138D01*
X100468266Y-53145128D01*
X100398817Y-53152786D01*
X100336252Y-53121682D01*
X100318451Y-53101138D01*
X100286871Y-53055388D01*
X100286867Y-53055383D01*
X100271288Y-53041582D01*
X100165881Y-52948198D01*
X100022759Y-52873082D01*
X100022758Y-52873081D01*
X100022757Y-52873081D01*
X99865819Y-52834400D01*
X99704181Y-52834400D01*
X99547242Y-52873081D01*
X99404120Y-52948197D01*
X99283132Y-53055383D01*
X99283128Y-53055388D01*
X99252049Y-53100414D01*
X99197766Y-53144404D01*
X99128317Y-53152063D01*
X99065753Y-53120959D01*
X99047951Y-53100414D01*
X99016871Y-53055388D01*
X99016867Y-53055383D01*
X99001288Y-53041582D01*
X98895881Y-52948198D01*
X98752759Y-52873082D01*
X98752758Y-52873081D01*
X98752757Y-52873081D01*
X98595819Y-52834400D01*
X98434181Y-52834400D01*
X98277242Y-52873081D01*
X98134120Y-52948197D01*
X98013132Y-53055383D01*
X98013128Y-53055388D01*
X97982049Y-53100414D01*
X97927766Y-53144404D01*
X97858317Y-53152063D01*
X97795753Y-53120959D01*
X97777951Y-53100414D01*
X97746871Y-53055388D01*
X97746867Y-53055383D01*
X97731288Y-53041582D01*
X97625881Y-52948198D01*
X97482759Y-52873082D01*
X97482758Y-52873081D01*
X97482757Y-52873081D01*
X97325819Y-52834400D01*
X97164181Y-52834400D01*
X97007242Y-52873081D01*
X96864120Y-52948197D01*
X96743132Y-53055383D01*
X96743128Y-53055388D01*
X96712049Y-53100414D01*
X96657766Y-53144404D01*
X96588317Y-53152063D01*
X96525753Y-53120959D01*
X96507951Y-53100414D01*
X96476871Y-53055388D01*
X96476867Y-53055383D01*
X96461288Y-53041582D01*
X96355881Y-52948198D01*
X96212759Y-52873082D01*
X96212758Y-52873081D01*
X96212757Y-52873081D01*
X96055819Y-52834400D01*
X95894181Y-52834400D01*
X95737242Y-52873081D01*
X95594120Y-52948197D01*
X95473132Y-53055383D01*
X95473128Y-53055388D01*
X95442049Y-53100414D01*
X95387766Y-53144404D01*
X95318317Y-53152063D01*
X95255753Y-53120959D01*
X95237951Y-53100414D01*
X95206871Y-53055388D01*
X95206867Y-53055383D01*
X95191288Y-53041582D01*
X95085881Y-52948198D01*
X94942759Y-52873082D01*
X94942758Y-52873081D01*
X94942757Y-52873081D01*
X94785819Y-52834400D01*
X94624181Y-52834400D01*
X94467242Y-52873081D01*
X94324120Y-52948197D01*
X94203132Y-53055383D01*
X94203131Y-53055384D01*
X94177049Y-53093171D01*
X94122765Y-53137160D01*
X94053317Y-53144818D01*
X93990752Y-53113714D01*
X93972951Y-53093171D01*
X93946868Y-53055384D01*
X93946867Y-53055383D01*
X93931288Y-53041582D01*
X93825881Y-52948198D01*
X93682759Y-52873082D01*
X93682758Y-52873081D01*
X93682757Y-52873081D01*
X93525819Y-52834400D01*
X93364181Y-52834400D01*
X93207242Y-52873081D01*
X93064120Y-52948197D01*
X92943132Y-53055383D01*
X92943131Y-53055384D01*
X92907049Y-53107658D01*
X92852765Y-53151647D01*
X92783317Y-53159305D01*
X92720752Y-53128201D01*
X92702951Y-53107658D01*
X92666868Y-53055384D01*
X92666867Y-53055383D01*
X92651288Y-53041582D01*
X92545881Y-52948198D01*
X92402759Y-52873082D01*
X92402758Y-52873081D01*
X92402757Y-52873081D01*
X92245819Y-52834400D01*
X92084181Y-52834400D01*
X91927242Y-52873081D01*
X91784120Y-52948197D01*
X91663132Y-53055383D01*
X91663128Y-53055388D01*
X91632049Y-53100414D01*
X91577766Y-53144404D01*
X91508317Y-53152063D01*
X91445753Y-53120959D01*
X91427951Y-53100414D01*
X91396871Y-53055388D01*
X91396867Y-53055383D01*
X91381288Y-53041582D01*
X91275881Y-52948198D01*
X91132759Y-52873082D01*
X91132758Y-52873081D01*
X91132757Y-52873081D01*
X90975819Y-52834400D01*
X90814181Y-52834400D01*
X90657242Y-52873081D01*
X90514120Y-52948197D01*
X90393132Y-53055383D01*
X90393128Y-53055388D01*
X90362049Y-53100414D01*
X90307766Y-53144404D01*
X90238317Y-53152063D01*
X90175753Y-53120959D01*
X90157951Y-53100414D01*
X90126871Y-53055388D01*
X90126867Y-53055383D01*
X90111288Y-53041582D01*
X90005881Y-52948198D01*
X89862759Y-52873082D01*
X89862758Y-52873081D01*
X89862757Y-52873081D01*
X89705819Y-52834400D01*
X89544181Y-52834400D01*
X89387242Y-52873081D01*
X89244120Y-52948197D01*
X89123132Y-53055383D01*
X89123128Y-53055388D01*
X89082049Y-53114901D01*
X89027766Y-53158891D01*
X88958317Y-53166550D01*
X88895753Y-53135446D01*
X88877951Y-53114901D01*
X88836871Y-53055388D01*
X88836867Y-53055383D01*
X88821288Y-53041582D01*
X88715881Y-52948198D01*
X88572759Y-52873082D01*
X88572758Y-52873081D01*
X88572757Y-52873081D01*
X88415819Y-52834400D01*
X88254181Y-52834400D01*
X88097242Y-52873081D01*
X87954120Y-52948197D01*
X87833132Y-53055383D01*
X87833126Y-53055390D01*
X87812048Y-53085927D01*
X87757765Y-53129916D01*
X87688316Y-53137574D01*
X87625752Y-53106470D01*
X87607952Y-53085927D01*
X87586873Y-53055390D01*
X87586867Y-53055383D01*
X87571288Y-53041582D01*
X87465881Y-52948198D01*
X87322759Y-52873082D01*
X87322758Y-52873081D01*
X87322757Y-52873081D01*
X87165819Y-52834400D01*
X87004181Y-52834400D01*
X86847242Y-52873081D01*
X86704120Y-52948197D01*
X86583132Y-53055383D01*
X86583128Y-53055388D01*
X86552049Y-53100414D01*
X86497766Y-53144404D01*
X86428317Y-53152063D01*
X86365753Y-53120959D01*
X86347951Y-53100414D01*
X86316871Y-53055388D01*
X86316867Y-53055383D01*
X86301288Y-53041582D01*
X86195881Y-52948198D01*
X86052759Y-52873082D01*
X86052758Y-52873081D01*
X86052757Y-52873081D01*
X85895819Y-52834400D01*
X85734181Y-52834400D01*
X85577242Y-52873081D01*
X85434120Y-52948197D01*
X85313132Y-53055383D01*
X85313128Y-53055388D01*
X85282049Y-53100414D01*
X85227766Y-53144404D01*
X85158317Y-53152063D01*
X85095753Y-53120959D01*
X85077951Y-53100414D01*
X85046871Y-53055388D01*
X85046867Y-53055383D01*
X85031288Y-53041582D01*
X84925881Y-52948198D01*
X84782759Y-52873082D01*
X84782758Y-52873081D01*
X84782757Y-52873081D01*
X84625819Y-52834400D01*
X84464181Y-52834400D01*
X84307242Y-52873081D01*
X84164120Y-52948197D01*
X84043132Y-53055383D01*
X84043128Y-53055388D01*
X84012049Y-53100414D01*
X83957766Y-53144404D01*
X83888317Y-53152063D01*
X83825753Y-53120959D01*
X83807951Y-53100414D01*
X83776871Y-53055388D01*
X83776867Y-53055383D01*
X83761288Y-53041582D01*
X83655881Y-52948198D01*
X83512759Y-52873082D01*
X83512758Y-52873081D01*
X83512757Y-52873081D01*
X83355819Y-52834400D01*
X83194181Y-52834400D01*
X83037242Y-52873081D01*
X82894120Y-52948197D01*
X82773132Y-53055383D01*
X82773131Y-53055384D01*
X82742549Y-53099690D01*
X82688265Y-53143679D01*
X82618817Y-53151337D01*
X82556252Y-53120233D01*
X82538451Y-53099690D01*
X82507868Y-53055384D01*
X82507867Y-53055383D01*
X82492288Y-53041582D01*
X82386881Y-52948198D01*
X82243759Y-52873082D01*
X82243758Y-52873081D01*
X82243757Y-52873081D01*
X82086819Y-52834400D01*
X81925181Y-52834400D01*
X81768242Y-52873081D01*
X81625120Y-52948197D01*
X81504132Y-53055383D01*
X81504128Y-53055388D01*
X81472549Y-53101138D01*
X81418266Y-53145128D01*
X81348817Y-53152786D01*
X81286252Y-53121682D01*
X81268451Y-53101138D01*
X81236871Y-53055388D01*
X81236867Y-53055383D01*
X81221288Y-53041582D01*
X81115881Y-52948198D01*
X80972759Y-52873082D01*
X80972758Y-52873081D01*
X80972757Y-52873081D01*
X80815819Y-52834400D01*
X80654181Y-52834400D01*
X80497242Y-52873081D01*
X80354120Y-52948197D01*
X80233132Y-53055383D01*
X80233128Y-53055388D01*
X80202049Y-53100414D01*
X80147766Y-53144404D01*
X80078317Y-53152063D01*
X80015753Y-53120959D01*
X79997951Y-53100414D01*
X79966871Y-53055388D01*
X79966867Y-53055383D01*
X79951288Y-53041582D01*
X79845881Y-52948198D01*
X79702759Y-52873082D01*
X79702758Y-52873081D01*
X79702757Y-52873081D01*
X79545819Y-52834400D01*
X79384181Y-52834400D01*
X79227242Y-52873081D01*
X79084120Y-52948197D01*
X78963132Y-53055383D01*
X78963128Y-53055388D01*
X78932049Y-53100414D01*
X78877766Y-53144404D01*
X78808317Y-53152063D01*
X78745753Y-53120959D01*
X78727951Y-53100414D01*
X78696871Y-53055388D01*
X78696867Y-53055383D01*
X78681288Y-53041582D01*
X78575881Y-52948198D01*
X78432759Y-52873082D01*
X78432758Y-52873081D01*
X78432757Y-52873081D01*
X78275819Y-52834400D01*
X78114181Y-52834400D01*
X77957242Y-52873081D01*
X77814120Y-52948197D01*
X77693132Y-53055383D01*
X77693128Y-53055388D01*
X77662049Y-53100414D01*
X77607766Y-53144404D01*
X77538317Y-53152063D01*
X77475753Y-53120959D01*
X77457951Y-53100414D01*
X77426871Y-53055388D01*
X77426867Y-53055383D01*
X77411288Y-53041582D01*
X77305881Y-52948198D01*
X77162759Y-52873082D01*
X77162758Y-52873081D01*
X77162757Y-52873081D01*
X77005819Y-52834400D01*
X76844181Y-52834400D01*
X76687242Y-52873081D01*
X76544120Y-52948197D01*
X76423132Y-53055383D01*
X76423128Y-53055388D01*
X76392049Y-53100414D01*
X76337766Y-53144404D01*
X76268317Y-53152063D01*
X76205753Y-53120959D01*
X76187951Y-53100414D01*
X76156871Y-53055388D01*
X76156867Y-53055383D01*
X76141288Y-53041582D01*
X76035881Y-52948198D01*
X75892759Y-52873082D01*
X75892758Y-52873081D01*
X75892757Y-52873081D01*
X75735819Y-52834400D01*
X75574181Y-52834400D01*
X75417242Y-52873081D01*
X75274120Y-52948197D01*
X75153132Y-53055383D01*
X75153131Y-53055384D01*
X75127049Y-53093171D01*
X75072765Y-53137160D01*
X75003317Y-53144818D01*
X74940752Y-53113714D01*
X74922951Y-53093171D01*
X74896868Y-53055384D01*
X74896867Y-53055383D01*
X74881288Y-53041582D01*
X74775881Y-52948198D01*
X74632759Y-52873082D01*
X74632758Y-52873081D01*
X74632757Y-52873081D01*
X74475819Y-52834400D01*
X74314181Y-52834400D01*
X74157242Y-52873081D01*
X74014120Y-52948197D01*
X73893132Y-53055383D01*
X73893131Y-53055384D01*
X73857049Y-53107658D01*
X73802765Y-53151647D01*
X73733317Y-53159305D01*
X73670752Y-53128201D01*
X73652951Y-53107658D01*
X73616868Y-53055384D01*
X73616867Y-53055383D01*
X73601288Y-53041582D01*
X73495881Y-52948198D01*
X73352759Y-52873082D01*
X73352758Y-52873081D01*
X73352757Y-52873081D01*
X73195819Y-52834400D01*
X73034181Y-52834400D01*
X72877242Y-52873081D01*
X72734120Y-52948197D01*
X72613132Y-53055383D01*
X72613128Y-53055388D01*
X72582049Y-53100414D01*
X72527766Y-53144404D01*
X72458317Y-53152063D01*
X72395753Y-53120959D01*
X72377951Y-53100414D01*
X72346871Y-53055388D01*
X72346867Y-53055383D01*
X72331288Y-53041582D01*
X72225881Y-52948198D01*
X72082759Y-52873082D01*
X72082758Y-52873081D01*
X72082757Y-52873081D01*
X71925819Y-52834400D01*
X71764181Y-52834400D01*
X71607242Y-52873081D01*
X71464120Y-52948197D01*
X71343132Y-53055383D01*
X71343128Y-53055388D01*
X71251313Y-53188403D01*
X71251312Y-53188404D01*
X71193994Y-53339540D01*
X71174511Y-53499999D01*
X27500500Y-53499999D01*
X27500500Y-49304603D01*
X69294499Y-49304603D01*
X69331410Y-49490161D01*
X69331413Y-49490171D01*
X69403814Y-49664965D01*
X69403816Y-49664968D01*
X69508927Y-49822278D01*
X69508933Y-49822286D01*
X69642713Y-49956066D01*
X69642721Y-49956072D01*
X69800031Y-50061183D01*
X69800034Y-50061185D01*
X69974828Y-50133586D01*
X69974833Y-50133588D01*
X69974837Y-50133588D01*
X69974838Y-50133589D01*
X70160396Y-50170500D01*
X70160399Y-50170500D01*
X70349603Y-50170500D01*
X70474442Y-50145667D01*
X70535167Y-50133588D01*
X70709967Y-50061184D01*
X70867283Y-49956069D01*
X71001069Y-49822283D01*
X71106184Y-49664967D01*
X71178588Y-49490167D01*
X71215500Y-49304603D01*
X122004499Y-49304603D01*
X122041410Y-49490161D01*
X122041413Y-49490171D01*
X122113814Y-49664965D01*
X122113816Y-49664968D01*
X122218927Y-49822278D01*
X122218933Y-49822286D01*
X122352713Y-49956066D01*
X122352721Y-49956072D01*
X122510031Y-50061183D01*
X122510034Y-50061185D01*
X122684828Y-50133586D01*
X122684833Y-50133588D01*
X122684837Y-50133588D01*
X122684838Y-50133589D01*
X122870396Y-50170500D01*
X122870399Y-50170500D01*
X123059603Y-50170500D01*
X123184442Y-50145667D01*
X123245167Y-50133588D01*
X123419967Y-50061184D01*
X123577283Y-49956069D01*
X123711069Y-49822283D01*
X123816184Y-49664967D01*
X123888588Y-49490167D01*
X123925500Y-49304601D01*
X123925500Y-49115399D01*
X123925500Y-49115396D01*
X123888589Y-48929838D01*
X123888588Y-48929837D01*
X123888588Y-48929833D01*
X123866673Y-48876924D01*
X123816185Y-48755034D01*
X123816183Y-48755031D01*
X123711072Y-48597721D01*
X123711066Y-48597713D01*
X123577286Y-48463933D01*
X123577278Y-48463927D01*
X123419968Y-48358816D01*
X123419965Y-48358814D01*
X123245171Y-48286413D01*
X123245161Y-48286410D01*
X123059603Y-48249500D01*
X123059601Y-48249500D01*
X122870399Y-48249500D01*
X122870397Y-48249500D01*
X122684838Y-48286410D01*
X122684828Y-48286413D01*
X122510034Y-48358814D01*
X122510031Y-48358816D01*
X122352721Y-48463927D01*
X122352713Y-48463933D01*
X122218933Y-48597713D01*
X122218927Y-48597721D01*
X122113816Y-48755031D01*
X122113814Y-48755034D01*
X122041413Y-48929828D01*
X122041410Y-48929838D01*
X122004500Y-49115396D01*
X122004500Y-49115399D01*
X122004500Y-49304601D01*
X122004500Y-49304603D01*
X122004499Y-49304603D01*
X71215500Y-49304603D01*
X71215500Y-49304601D01*
X71215500Y-49115399D01*
X71215500Y-49115396D01*
X71178589Y-48929838D01*
X71178588Y-48929837D01*
X71178588Y-48929833D01*
X71156673Y-48876924D01*
X71106185Y-48755034D01*
X71106183Y-48755031D01*
X71001072Y-48597721D01*
X71001066Y-48597713D01*
X70867286Y-48463933D01*
X70867278Y-48463927D01*
X70709968Y-48358816D01*
X70709965Y-48358814D01*
X70535171Y-48286413D01*
X70535161Y-48286410D01*
X70349603Y-48249500D01*
X70349601Y-48249500D01*
X70160399Y-48249500D01*
X70160397Y-48249500D01*
X69974838Y-48286410D01*
X69974828Y-48286413D01*
X69800034Y-48358814D01*
X69800031Y-48358816D01*
X69642721Y-48463927D01*
X69642713Y-48463933D01*
X69508933Y-48597713D01*
X69508927Y-48597721D01*
X69403816Y-48755031D01*
X69403814Y-48755034D01*
X69331413Y-48929828D01*
X69331410Y-48929838D01*
X69294500Y-49115396D01*
X69294500Y-49115399D01*
X69294500Y-49304601D01*
X69294500Y-49304603D01*
X69294499Y-49304603D01*
X27500500Y-49304603D01*
X27500500Y-47078872D01*
X47139500Y-47078872D01*
X47139500Y-47341127D01*
X47166123Y-47543339D01*
X47173730Y-47601116D01*
X47241602Y-47854418D01*
X47241605Y-47854428D01*
X47341953Y-48096690D01*
X47341958Y-48096700D01*
X47473075Y-48323803D01*
X47632718Y-48531851D01*
X47632726Y-48531860D01*
X47818140Y-48717274D01*
X47818148Y-48717281D01*
X48026196Y-48876924D01*
X48253299Y-49008041D01*
X48253309Y-49008046D01*
X48495571Y-49108394D01*
X48495581Y-49108398D01*
X48748884Y-49176270D01*
X49008880Y-49210500D01*
X49008887Y-49210500D01*
X49271113Y-49210500D01*
X49271120Y-49210500D01*
X49531116Y-49176270D01*
X49784419Y-49108398D01*
X50026697Y-49008043D01*
X50253803Y-48876924D01*
X50461851Y-48717282D01*
X50461855Y-48717277D01*
X50461860Y-48717274D01*
X50647274Y-48531860D01*
X50647277Y-48531855D01*
X50647282Y-48531851D01*
X50806924Y-48323803D01*
X50938043Y-48096697D01*
X51038398Y-47854419D01*
X51106270Y-47601116D01*
X51140500Y-47341120D01*
X51140500Y-47078880D01*
X51140499Y-47078872D01*
X143139500Y-47078872D01*
X143139500Y-47341127D01*
X143166123Y-47543339D01*
X143173730Y-47601116D01*
X143241602Y-47854418D01*
X143241605Y-47854428D01*
X143341953Y-48096690D01*
X143341958Y-48096700D01*
X143473075Y-48323803D01*
X143632718Y-48531851D01*
X143632726Y-48531860D01*
X143818140Y-48717274D01*
X143818148Y-48717281D01*
X144026196Y-48876924D01*
X144253299Y-49008041D01*
X144253309Y-49008046D01*
X144495571Y-49108394D01*
X144495581Y-49108398D01*
X144748884Y-49176270D01*
X145008880Y-49210500D01*
X145008887Y-49210500D01*
X145271113Y-49210500D01*
X145271120Y-49210500D01*
X145531116Y-49176270D01*
X145784419Y-49108398D01*
X146026697Y-49008043D01*
X146253803Y-48876924D01*
X146461851Y-48717282D01*
X146461855Y-48717277D01*
X146461860Y-48717274D01*
X146647274Y-48531860D01*
X146647277Y-48531855D01*
X146647282Y-48531851D01*
X146806924Y-48323803D01*
X146938043Y-48096697D01*
X147038398Y-47854419D01*
X147106270Y-47601116D01*
X147140500Y-47341120D01*
X147140500Y-47078880D01*
X147106270Y-46818884D01*
X147038398Y-46565581D01*
X147038394Y-46565571D01*
X146938046Y-46323309D01*
X146938041Y-46323299D01*
X146806924Y-46096196D01*
X146647281Y-45888148D01*
X146647274Y-45888140D01*
X146461860Y-45702726D01*
X146461851Y-45702718D01*
X146253803Y-45543075D01*
X146026700Y-45411958D01*
X146026690Y-45411953D01*
X145784428Y-45311605D01*
X145784421Y-45311603D01*
X145784419Y-45311602D01*
X145531116Y-45243730D01*
X145473339Y-45236123D01*
X145271127Y-45209500D01*
X145271120Y-45209500D01*
X145008880Y-45209500D01*
X145008872Y-45209500D01*
X144777772Y-45239926D01*
X144748884Y-45243730D01*
X144495581Y-45311602D01*
X144495571Y-45311605D01*
X144253309Y-45411953D01*
X144253299Y-45411958D01*
X144026196Y-45543075D01*
X143818148Y-45702718D01*
X143632718Y-45888148D01*
X143473075Y-46096196D01*
X143341958Y-46323299D01*
X143341953Y-46323309D01*
X143241605Y-46565571D01*
X143241602Y-46565581D01*
X143173730Y-46818885D01*
X143139500Y-47078872D01*
X51140499Y-47078872D01*
X51106270Y-46818884D01*
X51038398Y-46565581D01*
X51038394Y-46565571D01*
X50938046Y-46323309D01*
X50938041Y-46323299D01*
X50806924Y-46096196D01*
X50647281Y-45888148D01*
X50647274Y-45888140D01*
X50461860Y-45702726D01*
X50461851Y-45702718D01*
X50253803Y-45543075D01*
X50026700Y-45411958D01*
X50026690Y-45411953D01*
X49784428Y-45311605D01*
X49784421Y-45311603D01*
X49784419Y-45311602D01*
X49531116Y-45243730D01*
X49473339Y-45236123D01*
X49271127Y-45209500D01*
X49271120Y-45209500D01*
X49008880Y-45209500D01*
X49008872Y-45209500D01*
X48777772Y-45239926D01*
X48748884Y-45243730D01*
X48495581Y-45311602D01*
X48495571Y-45311605D01*
X48253309Y-45411953D01*
X48253299Y-45411958D01*
X48026196Y-45543075D01*
X47818148Y-45702718D01*
X47632718Y-45888148D01*
X47473075Y-46096196D01*
X47341958Y-46323299D01*
X47341953Y-46323309D01*
X47241605Y-46565571D01*
X47241602Y-46565581D01*
X47173730Y-46818885D01*
X47139500Y-47078872D01*
X27500500Y-47078872D01*
X27500500Y-45049999D01*
X76254511Y-45049999D01*
X76254511Y-45050000D01*
X76273994Y-45210459D01*
X76331312Y-45361595D01*
X76331313Y-45361596D01*
X76423128Y-45494611D01*
X76423132Y-45494616D01*
X76544119Y-45601802D01*
X76687241Y-45676918D01*
X76844181Y-45715600D01*
X77005819Y-45715600D01*
X77162759Y-45676918D01*
X77305881Y-45601802D01*
X77426868Y-45494616D01*
X77518689Y-45361592D01*
X77576006Y-45210459D01*
X77595489Y-45050000D01*
X77595489Y-45049999D01*
X82604511Y-45049999D01*
X82604511Y-45050000D01*
X82623994Y-45210459D01*
X82681312Y-45361595D01*
X82681313Y-45361596D01*
X82773128Y-45494611D01*
X82773132Y-45494616D01*
X82894119Y-45601802D01*
X83037241Y-45676918D01*
X83194181Y-45715600D01*
X83355819Y-45715600D01*
X83512759Y-45676918D01*
X83655881Y-45601802D01*
X83776868Y-45494616D01*
X83868689Y-45361592D01*
X83926006Y-45210459D01*
X83945489Y-45050000D01*
X83945489Y-45049999D01*
X95304511Y-45049999D01*
X95304511Y-45050000D01*
X95323994Y-45210459D01*
X95381312Y-45361595D01*
X95381313Y-45361596D01*
X95473128Y-45494611D01*
X95473132Y-45494616D01*
X95594119Y-45601802D01*
X95737241Y-45676918D01*
X95894181Y-45715600D01*
X96055819Y-45715600D01*
X96212759Y-45676918D01*
X96355881Y-45601802D01*
X96476868Y-45494616D01*
X96568689Y-45361592D01*
X96626006Y-45210459D01*
X96645489Y-45050000D01*
X96645489Y-45049999D01*
X101654511Y-45049999D01*
X101654511Y-45050000D01*
X101673994Y-45210459D01*
X101731312Y-45361595D01*
X101731313Y-45361596D01*
X101823128Y-45494611D01*
X101823132Y-45494616D01*
X101944119Y-45601802D01*
X102087241Y-45676918D01*
X102244181Y-45715600D01*
X102405819Y-45715600D01*
X102562759Y-45676918D01*
X102705881Y-45601802D01*
X102826868Y-45494616D01*
X102918689Y-45361592D01*
X102976006Y-45210459D01*
X102995489Y-45050000D01*
X102995489Y-45049999D01*
X108004511Y-45049999D01*
X108004511Y-45050000D01*
X108023994Y-45210459D01*
X108081312Y-45361595D01*
X108081313Y-45361596D01*
X108173128Y-45494611D01*
X108173132Y-45494616D01*
X108294119Y-45601802D01*
X108437241Y-45676918D01*
X108594181Y-45715600D01*
X108755819Y-45715600D01*
X108912759Y-45676918D01*
X109055881Y-45601802D01*
X109176868Y-45494616D01*
X109268689Y-45361592D01*
X109326006Y-45210459D01*
X109345489Y-45050000D01*
X109326006Y-44889541D01*
X109268689Y-44738408D01*
X109268687Y-44738406D01*
X109268687Y-44738404D01*
X109268686Y-44738403D01*
X109176871Y-44605388D01*
X109176867Y-44605383D01*
X109161288Y-44591582D01*
X109055881Y-44498198D01*
X108912759Y-44423082D01*
X108912758Y-44423081D01*
X108912757Y-44423081D01*
X108755819Y-44384400D01*
X108594181Y-44384400D01*
X108437242Y-44423081D01*
X108294120Y-44498197D01*
X108173132Y-44605383D01*
X108173128Y-44605388D01*
X108081313Y-44738403D01*
X108081312Y-44738404D01*
X108023994Y-44889540D01*
X108004511Y-45049999D01*
X102995489Y-45049999D01*
X102976006Y-44889541D01*
X102918689Y-44738408D01*
X102918687Y-44738406D01*
X102918687Y-44738404D01*
X102918686Y-44738403D01*
X102826871Y-44605388D01*
X102826867Y-44605383D01*
X102811288Y-44591582D01*
X102705881Y-44498198D01*
X102562759Y-44423082D01*
X102562758Y-44423081D01*
X102562757Y-44423081D01*
X102405819Y-44384400D01*
X102244181Y-44384400D01*
X102087242Y-44423081D01*
X101944120Y-44498197D01*
X101823132Y-44605383D01*
X101823128Y-44605388D01*
X101731313Y-44738403D01*
X101731312Y-44738404D01*
X101673994Y-44889540D01*
X101654511Y-45049999D01*
X96645489Y-45049999D01*
X96626006Y-44889541D01*
X96568689Y-44738408D01*
X96568687Y-44738406D01*
X96568687Y-44738404D01*
X96568686Y-44738403D01*
X96476871Y-44605388D01*
X96476867Y-44605383D01*
X96461288Y-44591582D01*
X96355881Y-44498198D01*
X96212759Y-44423082D01*
X96212758Y-44423081D01*
X96212757Y-44423081D01*
X96055819Y-44384400D01*
X95894181Y-44384400D01*
X95737242Y-44423081D01*
X95594120Y-44498197D01*
X95473132Y-44605383D01*
X95473128Y-44605388D01*
X95381313Y-44738403D01*
X95381312Y-44738404D01*
X95323994Y-44889540D01*
X95304511Y-45049999D01*
X83945489Y-45049999D01*
X83926006Y-44889541D01*
X83868689Y-44738408D01*
X83868687Y-44738406D01*
X83868687Y-44738404D01*
X83868686Y-44738403D01*
X83776871Y-44605388D01*
X83776867Y-44605383D01*
X83761288Y-44591582D01*
X83655881Y-44498198D01*
X83512759Y-44423082D01*
X83512758Y-44423081D01*
X83512757Y-44423081D01*
X83355819Y-44384400D01*
X83194181Y-44384400D01*
X83037242Y-44423081D01*
X82894120Y-44498197D01*
X82773132Y-44605383D01*
X82773128Y-44605388D01*
X82681313Y-44738403D01*
X82681312Y-44738404D01*
X82623994Y-44889540D01*
X82604511Y-45049999D01*
X77595489Y-45049999D01*
X77576006Y-44889541D01*
X77518689Y-44738408D01*
X77518687Y-44738406D01*
X77518687Y-44738404D01*
X77518686Y-44738403D01*
X77426871Y-44605388D01*
X77426867Y-44605383D01*
X77411288Y-44591582D01*
X77305881Y-44498198D01*
X77162759Y-44423082D01*
X77162758Y-44423081D01*
X77162757Y-44423081D01*
X77005819Y-44384400D01*
X76844181Y-44384400D01*
X76687242Y-44423081D01*
X76544120Y-44498197D01*
X76423132Y-44605383D01*
X76423128Y-44605388D01*
X76331313Y-44738403D01*
X76331312Y-44738404D01*
X76273994Y-44889540D01*
X76254511Y-45049999D01*
X27500500Y-45049999D01*
X27500500Y-43499500D01*
X27520185Y-43432461D01*
X27572989Y-43386706D01*
X27624500Y-43375500D01*
X155165500Y-43375500D01*
X155232539Y-43395185D01*
G37*
%TD.AperFunction*%
%TD*%
%TA.AperFunction,Conductor*%
%TO.N,GND*%
G36*
X101181911Y-105917627D02*
G01*
X101184708Y-105922112D01*
X101368250Y-106458413D01*
X101367686Y-106467350D01*
X101361686Y-106472998D01*
X101059506Y-106599119D01*
X101050552Y-106599143D01*
X101050494Y-106599119D01*
X100748313Y-106472998D01*
X100741998Y-106466649D01*
X100741749Y-106458413D01*
X100925292Y-105922112D01*
X100931213Y-105915394D01*
X100936362Y-105914200D01*
X101173638Y-105914200D01*
X101181911Y-105917627D01*
G37*
%TD.AperFunction*%
%TD*%
%TA.AperFunction,Conductor*%
%TO.N,GND*%
G36*
X100081686Y-97727001D02*
G01*
X100088001Y-97733350D01*
X100088250Y-97741586D01*
X99904708Y-98277888D01*
X99898787Y-98284606D01*
X99893638Y-98285800D01*
X99656362Y-98285800D01*
X99648089Y-98282373D01*
X99645292Y-98277888D01*
X99461749Y-97741586D01*
X99462313Y-97732649D01*
X99468311Y-97727002D01*
X99770495Y-97600879D01*
X99779446Y-97600856D01*
X100081686Y-97727001D01*
G37*
%TD.AperFunction*%
%TD*%
M02*
