%TF.GenerationSoftware,KiCad,Pcbnew,8.0.3-8.0.3-0~ubuntu24.04.1*%
%TF.CreationDate,2024-07-15T14:42:22+02:00*%
%TF.ProjectId,MainBoard,4d61696e-426f-4617-9264-2e6b69636164,rev?*%
%TF.SameCoordinates,Original*%
%TF.FileFunction,Legend,Top*%
%TF.FilePolarity,Positive*%
%FSLAX46Y46*%
G04 Gerber Fmt 4.6, Leading zero omitted, Abs format (unit mm)*
G04 Created by KiCad (PCBNEW 8.0.3-8.0.3-0~ubuntu24.04.1) date 2024-07-15 14:42:22*
%MOMM*%
%LPD*%
G01*
G04 APERTURE LIST*
G04 Aperture macros list*
%AMRoundRect*
0 Rectangle with rounded corners*
0 $1 Rounding radius*
0 $2 $3 $4 $5 $6 $7 $8 $9 X,Y pos of 4 corners*
0 Add a 4 corners polygon primitive as box body*
4,1,4,$2,$3,$4,$5,$6,$7,$8,$9,$2,$3,0*
0 Add four circle primitives for the rounded corners*
1,1,$1+$1,$2,$3*
1,1,$1+$1,$4,$5*
1,1,$1+$1,$6,$7*
1,1,$1+$1,$8,$9*
0 Add four rect primitives between the rounded corners*
20,1,$1+$1,$2,$3,$4,$5,0*
20,1,$1+$1,$4,$5,$6,$7,0*
20,1,$1+$1,$6,$7,$8,$9,0*
20,1,$1+$1,$8,$9,$2,$3,0*%
G04 Aperture macros list end*
%ADD10C,0.150000*%
%ADD11C,0.200000*%
%ADD12C,1.190000*%
%ADD13RoundRect,0.102000X0.370000X1.460000X-0.370000X1.460000X-0.370000X-1.460000X0.370000X-1.460000X0*%
%ADD14C,3.500000*%
%ADD15C,1.420000*%
G04 APERTURE END LIST*
D10*
X50116666Y-95054819D02*
X50116666Y-95769104D01*
X50116666Y-95769104D02*
X50069047Y-95911961D01*
X50069047Y-95911961D02*
X49973809Y-96007200D01*
X49973809Y-96007200D02*
X49830952Y-96054819D01*
X49830952Y-96054819D02*
X49735714Y-96054819D01*
X51021428Y-95054819D02*
X50830952Y-95054819D01*
X50830952Y-95054819D02*
X50735714Y-95102438D01*
X50735714Y-95102438D02*
X50688095Y-95150057D01*
X50688095Y-95150057D02*
X50592857Y-95292914D01*
X50592857Y-95292914D02*
X50545238Y-95483390D01*
X50545238Y-95483390D02*
X50545238Y-95864342D01*
X50545238Y-95864342D02*
X50592857Y-95959580D01*
X50592857Y-95959580D02*
X50640476Y-96007200D01*
X50640476Y-96007200D02*
X50735714Y-96054819D01*
X50735714Y-96054819D02*
X50926190Y-96054819D01*
X50926190Y-96054819D02*
X51021428Y-96007200D01*
X51021428Y-96007200D02*
X51069047Y-95959580D01*
X51069047Y-95959580D02*
X51116666Y-95864342D01*
X51116666Y-95864342D02*
X51116666Y-95626247D01*
X51116666Y-95626247D02*
X51069047Y-95531009D01*
X51069047Y-95531009D02*
X51021428Y-95483390D01*
X51021428Y-95483390D02*
X50926190Y-95435771D01*
X50926190Y-95435771D02*
X50735714Y-95435771D01*
X50735714Y-95435771D02*
X50640476Y-95483390D01*
X50640476Y-95483390D02*
X50592857Y-95531009D01*
X50592857Y-95531009D02*
X50545238Y-95626247D01*
X54191666Y-104679819D02*
X53858333Y-104203628D01*
X53620238Y-104679819D02*
X53620238Y-103679819D01*
X53620238Y-103679819D02*
X54001190Y-103679819D01*
X54001190Y-103679819D02*
X54096428Y-103727438D01*
X54096428Y-103727438D02*
X54144047Y-103775057D01*
X54144047Y-103775057D02*
X54191666Y-103870295D01*
X54191666Y-103870295D02*
X54191666Y-104013152D01*
X54191666Y-104013152D02*
X54144047Y-104108390D01*
X54144047Y-104108390D02*
X54096428Y-104156009D01*
X54096428Y-104156009D02*
X54001190Y-104203628D01*
X54001190Y-104203628D02*
X53620238Y-104203628D01*
X54620238Y-104156009D02*
X54953571Y-104156009D01*
X55096428Y-104679819D02*
X54620238Y-104679819D01*
X54620238Y-104679819D02*
X54620238Y-103679819D01*
X54620238Y-103679819D02*
X55096428Y-103679819D01*
X55858333Y-104156009D02*
X55525000Y-104156009D01*
X55525000Y-104679819D02*
X55525000Y-103679819D01*
X55525000Y-103679819D02*
X56001190Y-103679819D01*
X56525000Y-103679819D02*
X56525000Y-103917914D01*
X56286905Y-103822676D02*
X56525000Y-103917914D01*
X56525000Y-103917914D02*
X56763095Y-103822676D01*
X56382143Y-104108390D02*
X56525000Y-103917914D01*
X56525000Y-103917914D02*
X56667857Y-104108390D01*
X57286905Y-103679819D02*
X57286905Y-103917914D01*
X57048810Y-103822676D02*
X57286905Y-103917914D01*
X57286905Y-103917914D02*
X57525000Y-103822676D01*
X57144048Y-104108390D02*
X57286905Y-103917914D01*
X57286905Y-103917914D02*
X57429762Y-104108390D01*
X131091666Y-94779819D02*
X131091666Y-95494104D01*
X131091666Y-95494104D02*
X131044047Y-95636961D01*
X131044047Y-95636961D02*
X130948809Y-95732200D01*
X130948809Y-95732200D02*
X130805952Y-95779819D01*
X130805952Y-95779819D02*
X130710714Y-95779819D01*
X131996428Y-95113152D02*
X131996428Y-95779819D01*
X131758333Y-94732200D02*
X131520238Y-95446485D01*
X131520238Y-95446485D02*
X132139285Y-95446485D01*
X127841666Y-67754819D02*
X127841666Y-68469104D01*
X127841666Y-68469104D02*
X127794047Y-68611961D01*
X127794047Y-68611961D02*
X127698809Y-68707200D01*
X127698809Y-68707200D02*
X127555952Y-68754819D01*
X127555952Y-68754819D02*
X127460714Y-68754819D01*
X128222619Y-67754819D02*
X128841666Y-67754819D01*
X128841666Y-67754819D02*
X128508333Y-68135771D01*
X128508333Y-68135771D02*
X128651190Y-68135771D01*
X128651190Y-68135771D02*
X128746428Y-68183390D01*
X128746428Y-68183390D02*
X128794047Y-68231009D01*
X128794047Y-68231009D02*
X128841666Y-68326247D01*
X128841666Y-68326247D02*
X128841666Y-68564342D01*
X128841666Y-68564342D02*
X128794047Y-68659580D01*
X128794047Y-68659580D02*
X128746428Y-68707200D01*
X128746428Y-68707200D02*
X128651190Y-68754819D01*
X128651190Y-68754819D02*
X128365476Y-68754819D01*
X128365476Y-68754819D02*
X128270238Y-68707200D01*
X128270238Y-68707200D02*
X128222619Y-68659580D01*
X149641666Y-102179819D02*
X149308333Y-101703628D01*
X149070238Y-102179819D02*
X149070238Y-101179819D01*
X149070238Y-101179819D02*
X149451190Y-101179819D01*
X149451190Y-101179819D02*
X149546428Y-101227438D01*
X149546428Y-101227438D02*
X149594047Y-101275057D01*
X149594047Y-101275057D02*
X149641666Y-101370295D01*
X149641666Y-101370295D02*
X149641666Y-101513152D01*
X149641666Y-101513152D02*
X149594047Y-101608390D01*
X149594047Y-101608390D02*
X149546428Y-101656009D01*
X149546428Y-101656009D02*
X149451190Y-101703628D01*
X149451190Y-101703628D02*
X149070238Y-101703628D01*
X150070238Y-101656009D02*
X150403571Y-101656009D01*
X150546428Y-102179819D02*
X150070238Y-102179819D01*
X150070238Y-102179819D02*
X150070238Y-101179819D01*
X150070238Y-101179819D02*
X150546428Y-101179819D01*
X151308333Y-101656009D02*
X150975000Y-101656009D01*
X150975000Y-102179819D02*
X150975000Y-101179819D01*
X150975000Y-101179819D02*
X151451190Y-101179819D01*
X151975000Y-101179819D02*
X151975000Y-101417914D01*
X151736905Y-101322676D02*
X151975000Y-101417914D01*
X151975000Y-101417914D02*
X152213095Y-101322676D01*
X151832143Y-101608390D02*
X151975000Y-101417914D01*
X151975000Y-101417914D02*
X152117857Y-101608390D01*
X152736905Y-101179819D02*
X152736905Y-101417914D01*
X152498810Y-101322676D02*
X152736905Y-101417914D01*
X152736905Y-101417914D02*
X152975000Y-101322676D01*
X152594048Y-101608390D02*
X152736905Y-101417914D01*
X152736905Y-101417914D02*
X152879762Y-101608390D01*
X53066666Y-68229819D02*
X53066666Y-68944104D01*
X53066666Y-68944104D02*
X53019047Y-69086961D01*
X53019047Y-69086961D02*
X52923809Y-69182200D01*
X52923809Y-69182200D02*
X52780952Y-69229819D01*
X52780952Y-69229819D02*
X52685714Y-69229819D01*
X54019047Y-68229819D02*
X53542857Y-68229819D01*
X53542857Y-68229819D02*
X53495238Y-68706009D01*
X53495238Y-68706009D02*
X53542857Y-68658390D01*
X53542857Y-68658390D02*
X53638095Y-68610771D01*
X53638095Y-68610771D02*
X53876190Y-68610771D01*
X53876190Y-68610771D02*
X53971428Y-68658390D01*
X53971428Y-68658390D02*
X54019047Y-68706009D01*
X54019047Y-68706009D02*
X54066666Y-68801247D01*
X54066666Y-68801247D02*
X54066666Y-69039342D01*
X54066666Y-69039342D02*
X54019047Y-69134580D01*
X54019047Y-69134580D02*
X53971428Y-69182200D01*
X53971428Y-69182200D02*
X53876190Y-69229819D01*
X53876190Y-69229819D02*
X53638095Y-69229819D01*
X53638095Y-69229819D02*
X53542857Y-69182200D01*
X53542857Y-69182200D02*
X53495238Y-69134580D01*
D11*
%TO.C,J6*%
X32955000Y-92250000D02*
X32955000Y-94228920D01*
X32955000Y-95991080D02*
X32955000Y-97970000D01*
X34460000Y-92250000D02*
X32955000Y-92250000D01*
X34460000Y-97970000D02*
X32955000Y-97970000D01*
X47330000Y-92250000D02*
X48835000Y-92250000D01*
X48835000Y-94228920D02*
X48835000Y-92250000D01*
X48835000Y-97970000D02*
X47330000Y-97970000D01*
X48835000Y-97970000D02*
X48835000Y-95991080D01*
X49720000Y-93395000D02*
G75*
G02*
X49520000Y-93395000I-100000J0D01*
G01*
X49520000Y-93395000D02*
G75*
G02*
X49720000Y-93395000I100000J0D01*
G01*
%TO.C,J4*%
X132955000Y-92250000D02*
X132955000Y-94228920D01*
X132955000Y-95991080D02*
X132955000Y-97970000D01*
X134460000Y-92250000D02*
X132955000Y-92250000D01*
X134460000Y-97970000D02*
X132955000Y-97970000D01*
X147330000Y-92250000D02*
X148835000Y-92250000D01*
X148835000Y-94228920D02*
X148835000Y-92250000D01*
X148835000Y-97970000D02*
X147330000Y-97970000D01*
X148835000Y-97970000D02*
X148835000Y-95991080D01*
X149720000Y-93395000D02*
G75*
G02*
X149520000Y-93395000I-100000J0D01*
G01*
X149520000Y-93395000D02*
G75*
G02*
X149720000Y-93395000I100000J0D01*
G01*
%TO.C,J3*%
X129780000Y-65640000D02*
X129780000Y-67618920D01*
X129780000Y-69381080D02*
X129780000Y-71360000D01*
X131285000Y-65640000D02*
X129780000Y-65640000D01*
X131285000Y-71360000D02*
X129780000Y-71360000D01*
X150505000Y-65640000D02*
X152010000Y-65640000D01*
X152010000Y-67618920D02*
X152010000Y-65640000D01*
X152010000Y-71360000D02*
X150505000Y-71360000D01*
X152010000Y-71360000D02*
X152010000Y-69381080D01*
X152895000Y-66785000D02*
G75*
G02*
X152695000Y-66785000I-100000J0D01*
G01*
X152695000Y-66785000D02*
G75*
G02*
X152895000Y-66785000I100000J0D01*
G01*
%TO.C,J5*%
X29780000Y-65640000D02*
X29780000Y-67618920D01*
X29780000Y-69381080D02*
X29780000Y-71360000D01*
X31285000Y-65640000D02*
X29780000Y-65640000D01*
X31285000Y-71360000D02*
X29780000Y-71360000D01*
X50505000Y-65640000D02*
X52010000Y-65640000D01*
X52010000Y-67618920D02*
X52010000Y-65640000D01*
X52010000Y-71360000D02*
X50505000Y-71360000D01*
X52010000Y-71360000D02*
X52010000Y-69381080D01*
X52895000Y-66785000D02*
G75*
G02*
X52695000Y-66785000I-100000J0D01*
G01*
X52695000Y-66785000D02*
G75*
G02*
X52895000Y-66785000I100000J0D01*
G01*
%TD*%
%LPC*%
D12*
%TO.C,J6*%
X48200000Y-95110000D03*
X33590000Y-95110000D03*
D13*
X46610000Y-93395000D03*
X46610000Y-96825000D03*
X45340000Y-93395000D03*
X45340000Y-96825000D03*
X44070000Y-93395000D03*
X44070000Y-96825000D03*
X42800000Y-93395000D03*
X42800000Y-96825000D03*
X41530000Y-93395000D03*
X41530000Y-96825000D03*
X40260000Y-93395000D03*
X40260000Y-96825000D03*
X38990000Y-93395000D03*
X38990000Y-96825000D03*
X37720000Y-93395000D03*
X37720000Y-96825000D03*
X36450000Y-93395000D03*
X36450000Y-96825000D03*
X35180000Y-93395000D03*
X35180000Y-96825000D03*
%TD*%
D14*
%TO.C,REF\u002A\u002A*%
X145140000Y-47210000D03*
%TD*%
%TO.C,REF\u002A\u002A*%
X49140000Y-104210000D03*
%TD*%
%TO.C,REF\u002A\u002A*%
X49140000Y-47210000D03*
%TD*%
D12*
%TO.C,J4*%
X148200000Y-95110000D03*
X133590000Y-95110000D03*
D13*
X146610000Y-93395000D03*
X146610000Y-96825000D03*
X145340000Y-93395000D03*
X145340000Y-96825000D03*
X144070000Y-93395000D03*
X144070000Y-96825000D03*
X142800000Y-93395000D03*
X142800000Y-96825000D03*
X141530000Y-93395000D03*
X141530000Y-96825000D03*
X140260000Y-93395000D03*
X140260000Y-96825000D03*
X138990000Y-93395000D03*
X138990000Y-96825000D03*
X137720000Y-93395000D03*
X137720000Y-96825000D03*
X136450000Y-93395000D03*
X136450000Y-96825000D03*
X135180000Y-93395000D03*
X135180000Y-96825000D03*
%TD*%
D12*
%TO.C,J3*%
X151375000Y-68500000D03*
X130415000Y-68500000D03*
D13*
X149785000Y-66785000D03*
X149785000Y-70215000D03*
X148515000Y-66785000D03*
X148515000Y-70215000D03*
X147245000Y-66785000D03*
X147245000Y-70215000D03*
X145975000Y-66785000D03*
X145975000Y-70215000D03*
X144705000Y-66785000D03*
X144705000Y-70215000D03*
X143435000Y-66785000D03*
X143435000Y-70215000D03*
X142165000Y-66785000D03*
X142165000Y-70215000D03*
X140895000Y-66785000D03*
X140895000Y-70215000D03*
X139625000Y-66785000D03*
X139625000Y-70215000D03*
X138355000Y-66785000D03*
X138355000Y-70215000D03*
X137085000Y-66785000D03*
X137085000Y-70215000D03*
X135815000Y-66785000D03*
X135815000Y-70215000D03*
X134545000Y-66785000D03*
X134545000Y-70215000D03*
X133275000Y-66785000D03*
X133275000Y-70215000D03*
X132005000Y-66785000D03*
X132005000Y-70215000D03*
%TD*%
D14*
%TO.C,REF\u002A\u002A*%
X145140000Y-104210000D03*
%TD*%
D12*
%TO.C,J5*%
X51375000Y-68500000D03*
X30415000Y-68500000D03*
D13*
X49785000Y-66785000D03*
X49785000Y-70215000D03*
X48515000Y-66785000D03*
X48515000Y-70215000D03*
X47245000Y-66785000D03*
X47245000Y-70215000D03*
X45975000Y-66785000D03*
X45975000Y-70215000D03*
X44705000Y-66785000D03*
X44705000Y-70215000D03*
X43435000Y-66785000D03*
X43435000Y-70215000D03*
X42165000Y-66785000D03*
X42165000Y-70215000D03*
X40895000Y-66785000D03*
X40895000Y-70215000D03*
X39625000Y-66785000D03*
X39625000Y-70215000D03*
X38355000Y-66785000D03*
X38355000Y-70215000D03*
X37085000Y-66785000D03*
X37085000Y-70215000D03*
X35815000Y-66785000D03*
X35815000Y-70215000D03*
X34545000Y-66785000D03*
X34545000Y-70215000D03*
X33275000Y-66785000D03*
X33275000Y-70215000D03*
X32005000Y-66785000D03*
X32005000Y-70215000D03*
%TD*%
D15*
%TO.C,J1*%
X70255000Y-102210000D03*
X122965000Y-102210000D03*
%TD*%
%TO.C,J2*%
X70255000Y-49210000D03*
X122965000Y-49210000D03*
%TD*%
%LPD*%
M02*
