%TF.GenerationSoftware,KiCad,Pcbnew,8.0.3-8.0.3-0~ubuntu24.04.1*%
%TF.CreationDate,2024-07-15T14:42:22+02:00*%
%TF.ProjectId,MainBoard,4d61696e-426f-4617-9264-2e6b69636164,rev?*%
%TF.SameCoordinates,Original*%
%TF.FileFunction,Legend,Bot*%
%TF.FilePolarity,Positive*%
%FSLAX46Y46*%
G04 Gerber Fmt 4.6, Leading zero omitted, Abs format (unit mm)*
G04 Created by KiCad (PCBNEW 8.0.3-8.0.3-0~ubuntu24.04.1) date 2024-07-15 14:42:22*
%MOMM*%
%LPD*%
G01*
G04 APERTURE LIST*
G04 Aperture macros list*
%AMRoundRect*
0 Rectangle with rounded corners*
0 $1 Rounding radius*
0 $2 $3 $4 $5 $6 $7 $8 $9 X,Y pos of 4 corners*
0 Add a 4 corners polygon primitive as box body*
4,1,4,$2,$3,$4,$5,$6,$7,$8,$9,$2,$3,0*
0 Add four circle primitives for the rounded corners*
1,1,$1+$1,$2,$3*
1,1,$1+$1,$4,$5*
1,1,$1+$1,$6,$7*
1,1,$1+$1,$8,$9*
0 Add four rect primitives between the rounded corners*
20,1,$1+$1,$2,$3,$4,$5,0*
20,1,$1+$1,$4,$5,$6,$7,0*
20,1,$1+$1,$6,$7,$8,$9,0*
20,1,$1+$1,$8,$9,$2,$3,0*%
G04 Aperture macros list end*
%ADD10C,0.150000*%
%ADD11C,0.152400*%
%ADD12C,0.120000*%
%ADD13C,0.200000*%
%ADD14C,1.190000*%
%ADD15C,3.500000*%
%ADD16RoundRect,0.102000X0.736600X0.177800X-0.736600X0.177800X-0.736600X-0.177800X0.736600X-0.177800X0*%
%ADD17RoundRect,0.150000X0.512500X0.150000X-0.512500X0.150000X-0.512500X-0.150000X0.512500X-0.150000X0*%
%ADD18C,1.420000*%
%ADD19RoundRect,0.102000X-0.370000X-1.395000X0.370000X-1.395000X0.370000X1.395000X-0.370000X1.395000X0*%
%ADD20RoundRect,0.225000X0.250000X-0.225000X0.250000X0.225000X-0.250000X0.225000X-0.250000X-0.225000X0*%
%ADD21RoundRect,0.102000X-0.736600X-0.177800X0.736600X-0.177800X0.736600X0.177800X-0.736600X0.177800X0*%
G04 APERTURE END LIST*
D10*
X97550904Y-87642319D02*
X97550904Y-88451842D01*
X97550904Y-88451842D02*
X97503285Y-88547080D01*
X97503285Y-88547080D02*
X97455666Y-88594700D01*
X97455666Y-88594700D02*
X97360428Y-88642319D01*
X97360428Y-88642319D02*
X97169952Y-88642319D01*
X97169952Y-88642319D02*
X97074714Y-88594700D01*
X97074714Y-88594700D02*
X97027095Y-88547080D01*
X97027095Y-88547080D02*
X96979476Y-88451842D01*
X96979476Y-88451842D02*
X96979476Y-87642319D01*
X96074714Y-87975652D02*
X96074714Y-88642319D01*
X96312809Y-87594700D02*
X96550904Y-88308985D01*
X96550904Y-88308985D02*
X95931857Y-88308985D01*
X76633333Y-105679819D02*
X76633333Y-106394104D01*
X76633333Y-106394104D02*
X76680952Y-106536961D01*
X76680952Y-106536961D02*
X76776190Y-106632200D01*
X76776190Y-106632200D02*
X76919047Y-106679819D01*
X76919047Y-106679819D02*
X77014285Y-106679819D01*
X75633333Y-106679819D02*
X76204761Y-106679819D01*
X75919047Y-106679819D02*
X75919047Y-105679819D01*
X75919047Y-105679819D02*
X76014285Y-105822676D01*
X76014285Y-105822676D02*
X76109523Y-105917914D01*
X76109523Y-105917914D02*
X76204761Y-105965533D01*
X94789580Y-88683333D02*
X94837200Y-88635714D01*
X94837200Y-88635714D02*
X94884819Y-88492857D01*
X94884819Y-88492857D02*
X94884819Y-88397619D01*
X94884819Y-88397619D02*
X94837200Y-88254762D01*
X94837200Y-88254762D02*
X94741961Y-88159524D01*
X94741961Y-88159524D02*
X94646723Y-88111905D01*
X94646723Y-88111905D02*
X94456247Y-88064286D01*
X94456247Y-88064286D02*
X94313390Y-88064286D01*
X94313390Y-88064286D02*
X94122914Y-88111905D01*
X94122914Y-88111905D02*
X94027676Y-88159524D01*
X94027676Y-88159524D02*
X93932438Y-88254762D01*
X93932438Y-88254762D02*
X93884819Y-88397619D01*
X93884819Y-88397619D02*
X93884819Y-88492857D01*
X93884819Y-88492857D02*
X93932438Y-88635714D01*
X93932438Y-88635714D02*
X93980057Y-88683333D01*
X93980057Y-89064286D02*
X93932438Y-89111905D01*
X93932438Y-89111905D02*
X93884819Y-89207143D01*
X93884819Y-89207143D02*
X93884819Y-89445238D01*
X93884819Y-89445238D02*
X93932438Y-89540476D01*
X93932438Y-89540476D02*
X93980057Y-89588095D01*
X93980057Y-89588095D02*
X94075295Y-89635714D01*
X94075295Y-89635714D02*
X94170533Y-89635714D01*
X94170533Y-89635714D02*
X94313390Y-89588095D01*
X94313390Y-89588095D02*
X94884819Y-89016667D01*
X94884819Y-89016667D02*
X94884819Y-89635714D01*
X72658333Y-53659819D02*
X72658333Y-54374104D01*
X72658333Y-54374104D02*
X72705952Y-54516961D01*
X72705952Y-54516961D02*
X72801190Y-54612200D01*
X72801190Y-54612200D02*
X72944047Y-54659819D01*
X72944047Y-54659819D02*
X73039285Y-54659819D01*
X72229761Y-53755057D02*
X72182142Y-53707438D01*
X72182142Y-53707438D02*
X72086904Y-53659819D01*
X72086904Y-53659819D02*
X71848809Y-53659819D01*
X71848809Y-53659819D02*
X71753571Y-53707438D01*
X71753571Y-53707438D02*
X71705952Y-53755057D01*
X71705952Y-53755057D02*
X71658333Y-53850295D01*
X71658333Y-53850295D02*
X71658333Y-53945533D01*
X71658333Y-53945533D02*
X71705952Y-54088390D01*
X71705952Y-54088390D02*
X72277380Y-54659819D01*
X72277380Y-54659819D02*
X71658333Y-54659819D01*
X102117580Y-88676133D02*
X102165200Y-88628514D01*
X102165200Y-88628514D02*
X102212819Y-88485657D01*
X102212819Y-88485657D02*
X102212819Y-88390419D01*
X102212819Y-88390419D02*
X102165200Y-88247562D01*
X102165200Y-88247562D02*
X102069961Y-88152324D01*
X102069961Y-88152324D02*
X101974723Y-88104705D01*
X101974723Y-88104705D02*
X101784247Y-88057086D01*
X101784247Y-88057086D02*
X101641390Y-88057086D01*
X101641390Y-88057086D02*
X101450914Y-88104705D01*
X101450914Y-88104705D02*
X101355676Y-88152324D01*
X101355676Y-88152324D02*
X101260438Y-88247562D01*
X101260438Y-88247562D02*
X101212819Y-88390419D01*
X101212819Y-88390419D02*
X101212819Y-88485657D01*
X101212819Y-88485657D02*
X101260438Y-88628514D01*
X101260438Y-88628514D02*
X101308057Y-88676133D01*
X102212819Y-89628514D02*
X102212819Y-89057086D01*
X102212819Y-89342800D02*
X101212819Y-89342800D01*
X101212819Y-89342800D02*
X101355676Y-89247562D01*
X101355676Y-89247562D02*
X101450914Y-89152324D01*
X101450914Y-89152324D02*
X101498533Y-89057086D01*
D11*
%TO.C,U2*%
X107139400Y-87208600D02*
X107139400Y-87716600D01*
X107139400Y-93304600D02*
X107139400Y-93812600D01*
X107139400Y-93812600D02*
X111660600Y-93812600D01*
X109095200Y-87208600D02*
X107139400Y-87208600D01*
X109704800Y-87208600D02*
X109095200Y-87208600D01*
X111660600Y-87208600D02*
X109704800Y-87208600D01*
X111660600Y-87716600D02*
X111660600Y-87208600D01*
X111660600Y-93812600D02*
X111660600Y-93304600D01*
X109704800Y-87208600D02*
G75*
G02*
X109095200Y-87208600I-304800J0D01*
G01*
D12*
%TO.C,U4*%
X95989000Y-89027500D02*
X96789000Y-89027500D01*
X95989000Y-92147500D02*
X96789000Y-92147500D01*
X97589000Y-89027500D02*
X96789000Y-89027500D01*
X97589000Y-92147500D02*
X96789000Y-92147500D01*
X98089000Y-89077500D02*
X97849000Y-88747500D01*
X98329000Y-88747500D01*
X98089000Y-89077500D01*
G36*
X98089000Y-89077500D02*
G01*
X97849000Y-88747500D01*
X98329000Y-88747500D01*
X98089000Y-89077500D01*
G37*
D13*
%TO.C,J1*%
X69620000Y-99350000D02*
X71125000Y-99350000D01*
X69620000Y-101146340D02*
X69620000Y-99350000D01*
X69620000Y-105070000D02*
X69620000Y-103273660D01*
X69620000Y-105070000D02*
X71125000Y-105070000D01*
X122095000Y-105070000D02*
X123600000Y-105070000D01*
X123600000Y-99350000D02*
X122095000Y-99350000D01*
X123600000Y-99350000D02*
X123600000Y-101146340D01*
X123600000Y-103273660D02*
X123600000Y-105070000D01*
X124600000Y-100495000D02*
G75*
G02*
X124400000Y-100495000I-100000J0D01*
G01*
X124400000Y-100495000D02*
G75*
G02*
X124600000Y-100495000I100000J0D01*
G01*
D12*
%TO.C,C2*%
X92490000Y-88709420D02*
X92490000Y-88990580D01*
X93510000Y-88709420D02*
X93510000Y-88990580D01*
D11*
%TO.C,U3*%
X82139400Y-85873000D02*
X82139400Y-86381000D01*
X82139400Y-91969000D02*
X82139400Y-92477000D01*
X82139400Y-92477000D02*
X84095200Y-92477000D01*
X84095200Y-92477000D02*
X84704800Y-92477000D01*
X84704800Y-92477000D02*
X86660600Y-92477000D01*
X86660600Y-85873000D02*
X82139400Y-85873000D01*
X86660600Y-86381000D02*
X86660600Y-85873000D01*
X86660600Y-92477000D02*
X86660600Y-91969000D01*
X84095200Y-92477000D02*
G75*
G02*
X84704800Y-92477000I304800J0D01*
G01*
D13*
%TO.C,J2*%
X69620000Y-46350000D02*
X71125000Y-46350000D01*
X69620000Y-48146340D02*
X69620000Y-46350000D01*
X69620000Y-52070000D02*
X69620000Y-50273660D01*
X69620000Y-52070000D02*
X71125000Y-52070000D01*
X122095000Y-52070000D02*
X123600000Y-52070000D01*
X123600000Y-46350000D02*
X122095000Y-46350000D01*
X123600000Y-46350000D02*
X123600000Y-48146340D01*
X123600000Y-50273660D02*
X123600000Y-52070000D01*
X124600000Y-47495000D02*
G75*
G02*
X124400000Y-47495000I-100000J0D01*
G01*
X124400000Y-47495000D02*
G75*
G02*
X124600000Y-47495000I100000J0D01*
G01*
D12*
%TO.C,C1*%
X100068000Y-88709420D02*
X100068000Y-88990580D01*
X101088000Y-88709420D02*
X101088000Y-88990580D01*
%TD*%
%LPC*%
D14*
%TO.C,J6*%
X48200000Y-95110000D03*
X33590000Y-95110000D03*
%TD*%
D15*
%TO.C,REF\u002A\u002A*%
X145140000Y-47210000D03*
%TD*%
%TO.C,REF\u002A\u002A*%
X49140000Y-104210000D03*
%TD*%
%TO.C,REF\u002A\u002A*%
X49140000Y-47210000D03*
%TD*%
D14*
%TO.C,J4*%
X148200000Y-95110000D03*
X133590000Y-95110000D03*
%TD*%
%TO.C,J3*%
X151375000Y-68500000D03*
X130415000Y-68500000D03*
%TD*%
D15*
%TO.C,REF\u002A\u002A*%
X145140000Y-104210000D03*
%TD*%
D14*
%TO.C,J5*%
X51375000Y-68500000D03*
X30415000Y-68500000D03*
%TD*%
D16*
%TO.C,U2*%
X112270200Y-88224600D03*
X112270200Y-88885000D03*
X112270200Y-89545400D03*
X112270200Y-90180400D03*
X112270200Y-90840800D03*
X112270200Y-91475800D03*
X112270200Y-92136200D03*
X112270200Y-92796600D03*
X106529800Y-92796600D03*
X106529800Y-92136200D03*
X106529800Y-91475800D03*
X106529800Y-90840800D03*
X106529800Y-90180400D03*
X106529800Y-89545400D03*
X106529800Y-88885000D03*
X106529800Y-88224600D03*
%TD*%
D17*
%TO.C,U4*%
X97926500Y-89637500D03*
X97926500Y-90587500D03*
X97926500Y-91537500D03*
X95651500Y-91537500D03*
X95651500Y-89637500D03*
%TD*%
D18*
%TO.C,J1*%
X70255000Y-102210000D03*
X122965000Y-102210000D03*
D19*
X121375000Y-100495000D03*
X121375000Y-103925000D03*
X120105000Y-100495000D03*
X120105000Y-103925000D03*
X118835000Y-100495000D03*
X118835000Y-103925000D03*
X117565000Y-100495000D03*
X117565000Y-103925000D03*
X116295000Y-100495000D03*
X116295000Y-103925000D03*
X115025000Y-100495000D03*
X115025000Y-103925000D03*
X113755000Y-100495000D03*
X113755000Y-103925000D03*
X112485000Y-100495000D03*
X112485000Y-103925000D03*
X111215000Y-100495000D03*
X111215000Y-103925000D03*
X109945000Y-100495000D03*
X109945000Y-103925000D03*
X108675000Y-100495000D03*
X108675000Y-103925000D03*
X107405000Y-100495000D03*
X107405000Y-103925000D03*
X106135000Y-100495000D03*
X106135000Y-103925000D03*
X104865000Y-100495000D03*
X104865000Y-103925000D03*
X103595000Y-100495000D03*
X103595000Y-103925000D03*
X102325000Y-100495000D03*
X102325000Y-103925000D03*
X101055000Y-100495000D03*
X101055000Y-103925000D03*
X99785000Y-100495000D03*
X99785000Y-103925000D03*
X98515000Y-100495000D03*
X98515000Y-103925000D03*
X97245000Y-100495000D03*
X97245000Y-103925000D03*
X95975000Y-100495000D03*
X95975000Y-103925000D03*
X94705000Y-100495000D03*
X94705000Y-103925000D03*
X93435000Y-100495000D03*
X93435000Y-103925000D03*
X92165000Y-100495000D03*
X92165000Y-103925000D03*
X90895000Y-100495000D03*
X90895000Y-103925000D03*
X89625000Y-100495000D03*
X89625000Y-103925000D03*
X88355000Y-100495000D03*
X88355000Y-103925000D03*
X87085000Y-100495000D03*
X87085000Y-103925000D03*
X85815000Y-100495000D03*
X85815000Y-103925000D03*
X84545000Y-100495000D03*
X84545000Y-103925000D03*
X83275000Y-100495000D03*
X83275000Y-103925000D03*
X82005000Y-100495000D03*
X82005000Y-103925000D03*
X80735000Y-100495000D03*
X80735000Y-103925000D03*
X79465000Y-100495000D03*
X79465000Y-103925000D03*
X78195000Y-100495000D03*
X78195000Y-103925000D03*
X76925000Y-100495000D03*
X76925000Y-103925000D03*
X75655000Y-100495000D03*
X75655000Y-103925000D03*
X74385000Y-100495000D03*
X74385000Y-103925000D03*
X73115000Y-100495000D03*
X73115000Y-103925000D03*
X71845000Y-100495000D03*
X71845000Y-103925000D03*
%TD*%
D20*
%TO.C,C2*%
X93000000Y-89625000D03*
X93000000Y-88075000D03*
%TD*%
D21*
%TO.C,U3*%
X81529800Y-91461000D03*
X81529800Y-90800600D03*
X81529800Y-90140200D03*
X81529800Y-89505200D03*
X81529800Y-88844800D03*
X81529800Y-88209800D03*
X81529800Y-87549400D03*
X81529800Y-86889000D03*
X87270200Y-86889000D03*
X87270200Y-87549400D03*
X87270200Y-88209800D03*
X87270200Y-88844800D03*
X87270200Y-89505200D03*
X87270200Y-90140200D03*
X87270200Y-90800600D03*
X87270200Y-91461000D03*
%TD*%
D18*
%TO.C,J2*%
X70255000Y-49210000D03*
X122965000Y-49210000D03*
D19*
X121375000Y-47495000D03*
X121375000Y-50925000D03*
X120105000Y-47495000D03*
X120105000Y-50925000D03*
X118835000Y-47495000D03*
X118835000Y-50925000D03*
X117565000Y-47495000D03*
X117565000Y-50925000D03*
X116295000Y-47495000D03*
X116295000Y-50925000D03*
X115025000Y-47495000D03*
X115025000Y-50925000D03*
X113755000Y-47495000D03*
X113755000Y-50925000D03*
X112485000Y-47495000D03*
X112485000Y-50925000D03*
X111215000Y-47495000D03*
X111215000Y-50925000D03*
X109945000Y-47495000D03*
X109945000Y-50925000D03*
X108675000Y-47495000D03*
X108675000Y-50925000D03*
X107405000Y-47495000D03*
X107405000Y-50925000D03*
X106135000Y-47495000D03*
X106135000Y-50925000D03*
X104865000Y-47495000D03*
X104865000Y-50925000D03*
X103595000Y-47495000D03*
X103595000Y-50925000D03*
X102325000Y-47495000D03*
X102325000Y-50925000D03*
X101055000Y-47495000D03*
X101055000Y-50925000D03*
X99785000Y-47495000D03*
X99785000Y-50925000D03*
X98515000Y-47495000D03*
X98515000Y-50925000D03*
X97245000Y-47495000D03*
X97245000Y-50925000D03*
X95975000Y-47495000D03*
X95975000Y-50925000D03*
X94705000Y-47495000D03*
X94705000Y-50925000D03*
X93435000Y-47495000D03*
X93435000Y-50925000D03*
X92165000Y-47495000D03*
X92165000Y-50925000D03*
X90895000Y-47495000D03*
X90895000Y-50925000D03*
X89625000Y-47495000D03*
X89625000Y-50925000D03*
X88355000Y-47495000D03*
X88355000Y-50925000D03*
X87085000Y-47495000D03*
X87085000Y-50925000D03*
X85815000Y-47495000D03*
X85815000Y-50925000D03*
X84545000Y-47495000D03*
X84545000Y-50925000D03*
X83275000Y-47495000D03*
X83275000Y-50925000D03*
X82005000Y-47495000D03*
X82005000Y-50925000D03*
X80735000Y-47495000D03*
X80735000Y-50925000D03*
X79465000Y-47495000D03*
X79465000Y-50925000D03*
X78195000Y-47495000D03*
X78195000Y-50925000D03*
X76925000Y-47495000D03*
X76925000Y-50925000D03*
X75655000Y-47495000D03*
X75655000Y-50925000D03*
X74385000Y-47495000D03*
X74385000Y-50925000D03*
X73115000Y-47495000D03*
X73115000Y-50925000D03*
X71845000Y-47495000D03*
X71845000Y-50925000D03*
%TD*%
D20*
%TO.C,C1*%
X100578000Y-89625000D03*
X100578000Y-88075000D03*
%TD*%
%LPD*%
M02*
