M48
; DRILL file {KiCad 8.0.3-8.0.3-0~ubuntu24.04.1} date 2024-07-15T14:42:22+0200
; FORMAT={-:-/ absolute / inch / decimal}
; #@! TF.CreationDate,2024-07-15T14:42:22+02:00
; #@! TF.GenerationSoftware,Kicad,Pcbnew,8.0.3-8.0.3-0~ubuntu24.04.1
; #@! TF.FileFunction,Plated,1,4,PTH
FMAT,2
INCH
; #@! TA.AperFunction,Plated,PTH,ViaDrill
T1C0.0130
%
G90
G05
T1
X1.26Y-2.874
X1.385Y-3.932
X1.3858Y-3.5777
X1.435Y-3.5777
X1.4858Y-3.5777
X1.535Y-3.5777
X1.585Y-3.5777
X1.635Y-3.5777
X1.685Y-3.5777
X1.735Y-3.5777
X1.785Y-3.5777
X1.835Y-3.5777
X1.96Y-2.874
X2.8285Y-2.1063
X2.8785Y-2.1063
X2.9289Y-2.1063
X2.9785Y-2.1063
X3.0285Y-1.7736
X3.0285Y-2.1063
X3.0785Y-2.1063
X3.0906Y-3.5187
X3.0925Y-3.6368
X3.0945Y-3.5748
X3.1004Y-3.3415
X3.128Y-4.1969
X3.1285Y-2.1063
X3.1785Y-2.1063
X3.2286Y-2.1063
X3.2785Y-1.7736
X3.2785Y-2.1063
X3.3285Y-2.1063
X3.3785Y-2.1063
X3.4285Y-2.1063
X3.4358Y-3.6545
X3.4778Y-2.1063
X3.4785Y-4.1969
X3.502Y-3.436
X3.5069Y-3.6102
X3.5285Y-2.1063
X3.5394Y-3.5246
X3.5785Y-2.1063
X3.6285Y-2.1063
X3.6614Y-3.4055
X3.6789Y-2.1063
X3.7285Y-2.1063
X3.7285Y-4.1969
X3.7783Y-4.1969
X3.7785Y-1.7736
X3.7785Y-2.1063
X3.8285Y-2.1063
X3.8285Y-4.1969
X3.8785Y-2.1063
X3.8785Y-4.1969
X3.9134Y-3.5669
X3.9281Y-3.8425
X3.9285Y-2.1063
X3.9285Y-4.1969
X3.9606Y-3.4055
X3.9626Y-3.6038
X3.9785Y-4.1969
X3.9786Y-2.1063
X4.0285Y-1.7736
X4.0285Y-2.1063
X4.0285Y-4.1969
X4.0496Y-3.5911
X4.0785Y-2.1063
X4.1285Y-2.1063
X4.1285Y-4.1969
X4.1486Y-3.3543
X4.1785Y-2.1063
X4.1785Y-3.8484
X4.2278Y-2.1063
X4.2285Y-4.1969
X4.2785Y-1.7736
X4.2785Y-2.1063
X4.3285Y-2.1063
X4.3652Y-3.3858
X4.4203Y-3.7549
X4.4283Y-4.1969
X4.4843Y-3.5504
X4.4921Y-3.4675
X4.5785Y-2.1063
X4.7285Y-1.7736
X4.7535Y-2.1063
X4.7535Y-4.1969
X4.7638Y-3.8612
X5.197Y-2.874
X5.322Y-3.9321
X5.3228Y-3.5778
X5.422Y-3.5778
X5.472Y-3.5778
X5.522Y-3.5778
X5.572Y-3.5778
X5.622Y-3.5778
X5.672Y-3.5778
X5.722Y-3.5778
X5.772Y-3.5778
X5.897Y-2.874
M30
