%TF.GenerationSoftware,KiCad,Pcbnew,8.0.3-8.0.3-0~ubuntu24.04.1*%
%TF.CreationDate,2024-07-15T14:42:22+02:00*%
%TF.ProjectId,MainBoard,4d61696e-426f-4617-9264-2e6b69636164,rev?*%
%TF.SameCoordinates,Original*%
%TF.FileFunction,Copper,L2,Inr*%
%TF.FilePolarity,Positive*%
%FSLAX46Y46*%
G04 Gerber Fmt 4.6, Leading zero omitted, Abs format (unit mm)*
G04 Created by KiCad (PCBNEW 8.0.3-8.0.3-0~ubuntu24.04.1) date 2024-07-15 14:42:22*
%MOMM*%
%LPD*%
G01*
G04 APERTURE LIST*
%TA.AperFunction,ViaPad*%
%ADD10C,0.685800*%
%TD*%
%TA.AperFunction,Conductor*%
%ADD11C,0.254000*%
%TD*%
G04 APERTURE END LIST*
D10*
%TO.N,GND*%
X79450000Y-106600000D03*
X49785000Y-73000000D03*
X88355000Y-106600000D03*
X35200000Y-90874000D03*
X78195000Y-53500000D03*
X103595000Y-53500000D03*
X109945000Y-53500000D03*
X94705000Y-106600000D03*
X71845000Y-53500000D03*
X101055000Y-106600000D03*
X35180000Y-99874000D03*
X37740000Y-90874000D03*
X100600000Y-86500000D03*
X114100000Y-88075000D03*
X116295000Y-53500000D03*
X88950000Y-87275000D03*
X32005000Y-73000000D03*
X108675000Y-45050000D03*
X84545000Y-53500000D03*
X106135000Y-97750000D03*
X99400000Y-90600000D03*
X120740000Y-106600000D03*
X95975000Y-45050000D03*
X149785000Y-73000000D03*
X83275000Y-45050000D03*
X97245000Y-53500000D03*
X132005000Y-73000000D03*
X90895000Y-53500000D03*
X78750000Y-84875000D03*
X93000000Y-86500000D03*
X78600000Y-90800600D03*
X107405000Y-106600000D03*
X99775000Y-97600000D03*
X112275000Y-95375000D03*
X102325000Y-45050000D03*
X120740000Y-53500000D03*
X135180000Y-99875000D03*
X76925000Y-45050000D03*
X135200000Y-90875000D03*
%TO.N,/mosi*%
X112480000Y-106600000D03*
X98515000Y-106600000D03*
%TO.N,/sck*%
X95970000Y-106600000D03*
X102325000Y-106600000D03*
%TO.N,/vddpix_0*%
X113900000Y-90180400D03*
X141530000Y-90875000D03*
%TO.N,/vdd33_1*%
X40260000Y-90874000D03*
X89075000Y-91700000D03*
%TO.N,/vdd18_1*%
X36450000Y-90874000D03*
X89900000Y-89525000D03*
%TD*%
D11*
%TO.N,/mosi*%
X99840000Y-107925000D02*
X111155000Y-107925000D01*
X98515000Y-106600000D02*
X99840000Y-107925000D01*
X111155000Y-107925000D02*
X112480000Y-106600000D01*
%TO.N,/sck*%
X97720000Y-104850000D02*
X95970000Y-106600000D01*
X100575000Y-104850000D02*
X97720000Y-104850000D01*
X102325000Y-106600000D02*
X100575000Y-104850000D01*
%TO.N,/vddpix_0*%
X113905400Y-90180400D02*
X113900000Y-90180400D01*
X141530000Y-90875000D02*
X140630000Y-91775000D01*
X140630000Y-91775000D02*
X115500000Y-91775000D01*
X115500000Y-91775000D02*
X113905400Y-90180400D01*
%TO.N,/vdd33_1*%
X40260000Y-90874000D02*
X42336000Y-92950000D01*
X76275000Y-92950000D02*
X77125000Y-93800000D01*
X86025000Y-91700000D02*
X89075000Y-91700000D01*
X77125000Y-93800000D02*
X83925000Y-93800000D01*
X83925000Y-93800000D02*
X86025000Y-91700000D01*
X42336000Y-92950000D02*
X76275000Y-92950000D01*
%TO.N,/vdd18_1*%
X36450000Y-88525000D02*
X36450000Y-90874000D01*
X89900000Y-89525000D02*
X89050000Y-88675000D01*
X38800000Y-86175000D02*
X36450000Y-88525000D01*
X83350000Y-86175000D02*
X38800000Y-86175000D01*
X89050000Y-88675000D02*
X85850000Y-88675000D01*
X85850000Y-88675000D02*
X83350000Y-86175000D01*
%TD*%
%TA.AperFunction,Conductor*%
%TO.N,/mosi*%
G36*
X112173334Y-106472942D02*
G01*
X112476190Y-106597436D01*
X112482539Y-106603751D01*
X112482563Y-106603809D01*
X112607056Y-106906664D01*
X112607032Y-106915618D01*
X112601384Y-106921618D01*
X112092378Y-107171056D01*
X112083441Y-107171620D01*
X112078956Y-107168823D01*
X111911176Y-107001043D01*
X111907749Y-106992770D01*
X111908941Y-106987625D01*
X112158381Y-106478614D01*
X112165099Y-106472694D01*
X112173334Y-106472942D01*
G37*
%TD.AperFunction*%
%TD*%
%TA.AperFunction,Conductor*%
%TO.N,/vddpix_0*%
G36*
X141223334Y-90747942D02*
G01*
X141526190Y-90872436D01*
X141532539Y-90878751D01*
X141532563Y-90878809D01*
X141657056Y-91181664D01*
X141657032Y-91190618D01*
X141651384Y-91196618D01*
X141142378Y-91446056D01*
X141133441Y-91446620D01*
X141128956Y-91443823D01*
X140961176Y-91276043D01*
X140957749Y-91267770D01*
X140958941Y-91262625D01*
X141208381Y-90753614D01*
X141215099Y-90747694D01*
X141223334Y-90747942D01*
G37*
%TD.AperFunction*%
%TD*%
%TA.AperFunction,Conductor*%
%TO.N,/sck*%
G36*
X101937375Y-106028942D02*
G01*
X102394089Y-106252754D01*
X102446384Y-106278381D01*
X102452305Y-106285099D01*
X102452056Y-106293335D01*
X102327563Y-106596190D01*
X102321248Y-106602539D01*
X102321190Y-106602563D01*
X102018335Y-106727056D01*
X102009381Y-106727032D01*
X102003381Y-106721384D01*
X101942030Y-106596190D01*
X101753942Y-106212376D01*
X101753379Y-106203441D01*
X101756174Y-106198958D01*
X101923957Y-106031175D01*
X101932229Y-106027749D01*
X101937375Y-106028942D01*
G37*
%TD.AperFunction*%
%TD*%
%TA.AperFunction,Conductor*%
%TO.N,/vdd33_1*%
G36*
X40575618Y-90746967D02*
G01*
X40581618Y-90752615D01*
X40831056Y-91261621D01*
X40831620Y-91270558D01*
X40828823Y-91275043D01*
X40661043Y-91442823D01*
X40652770Y-91446250D01*
X40647621Y-91445056D01*
X40494529Y-91370033D01*
X40138615Y-91195618D01*
X40132694Y-91188900D01*
X40132942Y-91180665D01*
X40257437Y-90877807D01*
X40263750Y-90871460D01*
X40566665Y-90746943D01*
X40575618Y-90746967D01*
G37*
%TD.AperFunction*%
%TD*%
%TA.AperFunction,Conductor*%
%TO.N,/vdd33_1*%
G36*
X88942350Y-91387313D02*
G01*
X88947998Y-91393313D01*
X89074119Y-91695494D01*
X89074143Y-91704448D01*
X89074119Y-91704506D01*
X88947998Y-92006686D01*
X88941649Y-92013001D01*
X88933413Y-92013250D01*
X88397112Y-91829707D01*
X88390394Y-91823786D01*
X88389200Y-91818637D01*
X88389200Y-91581362D01*
X88392627Y-91573089D01*
X88397111Y-91570292D01*
X88933413Y-91386749D01*
X88942350Y-91387313D01*
G37*
%TD.AperFunction*%
%TD*%
%TA.AperFunction,Conductor*%
%TO.N,/sck*%
G36*
X96371043Y-106031176D02*
G01*
X96538823Y-106198956D01*
X96542250Y-106207229D01*
X96541056Y-106212378D01*
X96291618Y-106721384D01*
X96284900Y-106727305D01*
X96276664Y-106727056D01*
X95973809Y-106602563D01*
X95967460Y-106596248D01*
X95967436Y-106596190D01*
X95842943Y-106293335D01*
X95842967Y-106284381D01*
X95848614Y-106278381D01*
X96357623Y-106028942D01*
X96366558Y-106028379D01*
X96371043Y-106031176D01*
G37*
%TD.AperFunction*%
%TD*%
%TA.AperFunction,Conductor*%
%TO.N,/vdd18_1*%
G36*
X89512375Y-88953942D02*
G01*
X89969089Y-89177754D01*
X90021384Y-89203381D01*
X90027305Y-89210099D01*
X90027056Y-89218335D01*
X89902563Y-89521190D01*
X89896248Y-89527539D01*
X89896190Y-89527563D01*
X89593335Y-89652056D01*
X89584381Y-89652032D01*
X89578381Y-89646384D01*
X89517030Y-89521190D01*
X89328942Y-89137376D01*
X89328379Y-89128441D01*
X89331174Y-89123958D01*
X89498957Y-88956175D01*
X89507229Y-88952749D01*
X89512375Y-88953942D01*
G37*
%TD.AperFunction*%
%TD*%
%TA.AperFunction,Conductor*%
%TO.N,/vdd18_1*%
G36*
X36576911Y-90191627D02*
G01*
X36579708Y-90196112D01*
X36763250Y-90732413D01*
X36762686Y-90741350D01*
X36756686Y-90746998D01*
X36454506Y-90873119D01*
X36445552Y-90873143D01*
X36445494Y-90873119D01*
X36143313Y-90746998D01*
X36136998Y-90740649D01*
X36136749Y-90732413D01*
X36320292Y-90196112D01*
X36326213Y-90189394D01*
X36331362Y-90188200D01*
X36568638Y-90188200D01*
X36576911Y-90191627D01*
G37*
%TD.AperFunction*%
%TD*%
%TA.AperFunction,Conductor*%
%TO.N,/vddpix_0*%
G36*
X114215677Y-90053343D02*
G01*
X114221647Y-90058931D01*
X114473153Y-90564760D01*
X114473768Y-90573694D01*
X114470950Y-90578242D01*
X114303165Y-90746027D01*
X114294892Y-90749454D01*
X114289813Y-90748294D01*
X113778712Y-90501985D01*
X113772746Y-90495306D01*
X113772969Y-90487000D01*
X113897437Y-90184207D01*
X113903750Y-90177860D01*
X114206724Y-90053319D01*
X114215677Y-90053343D01*
G37*
%TD.AperFunction*%
%TD*%
%TA.AperFunction,Conductor*%
%TO.N,GND*%
G36*
X100330758Y-105497185D02*
G01*
X100351400Y-105513819D01*
X101311963Y-106474382D01*
X101335631Y-106507497D01*
X101481860Y-106805893D01*
X101481864Y-106805905D01*
X101533659Y-106911596D01*
X101549455Y-106943829D01*
X101567234Y-106976935D01*
X101567237Y-106976939D01*
X101568453Y-106978783D01*
X101577364Y-106991858D01*
X101629238Y-107081706D01*
X101638918Y-107098472D01*
X101640472Y-107100611D01*
X101640988Y-107102058D01*
X101642166Y-107104098D01*
X101641793Y-107104313D01*
X101663955Y-107166417D01*
X101648132Y-107234471D01*
X101598028Y-107283168D01*
X101540157Y-107297500D01*
X100328382Y-107297500D01*
X100261343Y-107277815D01*
X100215588Y-107225011D01*
X100205644Y-107155853D01*
X100234669Y-107092297D01*
X100246155Y-107080685D01*
X100286863Y-107044620D01*
X100286868Y-107044616D01*
X100378689Y-106911592D01*
X100436006Y-106760459D01*
X100455489Y-106600000D01*
X100436006Y-106439541D01*
X100378689Y-106288408D01*
X100378687Y-106288406D01*
X100378687Y-106288404D01*
X100378686Y-106288403D01*
X100286871Y-106155388D01*
X100286867Y-106155383D01*
X100233831Y-106108397D01*
X100165881Y-106048198D01*
X100022759Y-105973082D01*
X100022758Y-105973081D01*
X100022757Y-105973081D01*
X99865819Y-105934400D01*
X99704181Y-105934400D01*
X99547242Y-105973081D01*
X99404117Y-106048198D01*
X99356533Y-106090354D01*
X99293300Y-106120075D01*
X99224036Y-106110891D01*
X99182157Y-106080510D01*
X99082456Y-105969780D01*
X98954649Y-105876924D01*
X98939023Y-105865571D01*
X98939021Y-105865570D01*
X98939022Y-105865570D01*
X98777066Y-105793461D01*
X98777058Y-105793459D01*
X98603645Y-105756600D01*
X98426355Y-105756600D01*
X98252941Y-105793459D01*
X98252933Y-105793461D01*
X98090978Y-105865570D01*
X97947543Y-105969780D01*
X97847842Y-106080510D01*
X97788355Y-106117159D01*
X97718498Y-106115828D01*
X97673465Y-106090354D01*
X97625875Y-106048193D01*
X97620149Y-106044241D01*
X97576158Y-105989959D01*
X97568498Y-105920510D01*
X97599601Y-105857945D01*
X97602875Y-105854543D01*
X97943600Y-105513819D01*
X98004923Y-105480334D01*
X98031281Y-105477500D01*
X100263719Y-105477500D01*
X100330758Y-105497185D01*
G37*
%TD.AperFunction*%
%TA.AperFunction,Conductor*%
G36*
X155232539Y-43395185D02*
G01*
X155278294Y-43447989D01*
X155289500Y-43499500D01*
X155289500Y-109250500D01*
X155269815Y-109317539D01*
X155217011Y-109363294D01*
X155165500Y-109374500D01*
X27624500Y-109374500D01*
X27557461Y-109354815D01*
X27511706Y-109302011D01*
X27500500Y-109250500D01*
X27500500Y-106600000D01*
X95121954Y-106600000D01*
X95140486Y-106776320D01*
X95140487Y-106776322D01*
X95195271Y-106944933D01*
X95195272Y-106944934D01*
X95229615Y-107004417D01*
X95283916Y-107098469D01*
X95321197Y-107139874D01*
X95402543Y-107230219D01*
X95430973Y-107250874D01*
X95545977Y-107334429D01*
X95707933Y-107406538D01*
X95707936Y-107406538D01*
X95707939Y-107406540D01*
X95881355Y-107443400D01*
X96058645Y-107443400D01*
X96232061Y-107406540D01*
X96232064Y-107406538D01*
X96232066Y-107406538D01*
X96264869Y-107391932D01*
X96394023Y-107334429D01*
X96537454Y-107230221D01*
X96542468Y-107224653D01*
X96618803Y-107139874D01*
X96639376Y-107117024D01*
X96698862Y-107080376D01*
X96768719Y-107081706D01*
X96813753Y-107107182D01*
X96864117Y-107151801D01*
X96864119Y-107151802D01*
X97007241Y-107226918D01*
X97164181Y-107265600D01*
X97325819Y-107265600D01*
X97482759Y-107226918D01*
X97625881Y-107151802D01*
X97673465Y-107109645D01*
X97736697Y-107079925D01*
X97805961Y-107089107D01*
X97847842Y-107119489D01*
X97947543Y-107230219D01*
X98090980Y-107334431D01*
X98138110Y-107355414D01*
X98157527Y-107366240D01*
X98171170Y-107375543D01*
X98171173Y-107375544D01*
X98171174Y-107375545D01*
X98495207Y-107534337D01*
X98495211Y-107534340D01*
X98527082Y-107549958D01*
X98607502Y-107589368D01*
X98640616Y-107613035D01*
X99352589Y-108325008D01*
X99439992Y-108412411D01*
X99439994Y-108412413D01*
X99439997Y-108412414D01*
X99542767Y-108481083D01*
X99576215Y-108494937D01*
X99656965Y-108528386D01*
X99778192Y-108552499D01*
X99778196Y-108552500D01*
X99778197Y-108552500D01*
X111216804Y-108552500D01*
X111216805Y-108552499D01*
X111338035Y-108528386D01*
X111418784Y-108494937D01*
X111452233Y-108481083D01*
X111555008Y-108412411D01*
X111642411Y-108325008D01*
X112354387Y-107613030D01*
X112387495Y-107589367D01*
X112823830Y-107375543D01*
X112856935Y-107357765D01*
X112856944Y-107357757D01*
X112859488Y-107356081D01*
X112877318Y-107346318D01*
X112904023Y-107334429D01*
X113047454Y-107230221D01*
X113052468Y-107224653D01*
X113104903Y-107166417D01*
X113166084Y-107098469D01*
X113254729Y-106944931D01*
X113309514Y-106776319D01*
X113328046Y-106600000D01*
X113309514Y-106423681D01*
X113254729Y-106255069D01*
X113254728Y-106255068D01*
X113254728Y-106255066D01*
X113254727Y-106255065D01*
X113176790Y-106120075D01*
X113166084Y-106101531D01*
X113081910Y-106008046D01*
X113047456Y-105969780D01*
X112919649Y-105876924D01*
X112904023Y-105865571D01*
X112904021Y-105865570D01*
X112904022Y-105865570D01*
X112742066Y-105793461D01*
X112742058Y-105793459D01*
X112568645Y-105756600D01*
X112391355Y-105756600D01*
X112217941Y-105793459D01*
X112217933Y-105793461D01*
X112055978Y-105865570D01*
X111912543Y-105969780D01*
X111793916Y-106101530D01*
X111707933Y-106250456D01*
X111705844Y-106253782D01*
X111704461Y-106256160D01*
X111704458Y-106256165D01*
X111704456Y-106256169D01*
X111622369Y-106423677D01*
X111490631Y-106692502D01*
X111466963Y-106725616D01*
X110931400Y-107261181D01*
X110870077Y-107294666D01*
X110843719Y-107297500D01*
X105408382Y-107297500D01*
X105341343Y-107277815D01*
X105295588Y-107225011D01*
X105285644Y-107155853D01*
X105314669Y-107092297D01*
X105326155Y-107080685D01*
X105366863Y-107044620D01*
X105366868Y-107044616D01*
X105458689Y-106911592D01*
X105516006Y-106760459D01*
X105535489Y-106600000D01*
X105516006Y-106439541D01*
X105458689Y-106288408D01*
X105458687Y-106288406D01*
X105458687Y-106288404D01*
X105458686Y-106288403D01*
X105366871Y-106155388D01*
X105366867Y-106155383D01*
X105313831Y-106108397D01*
X105245881Y-106048198D01*
X105102759Y-105973082D01*
X105102758Y-105973081D01*
X105102757Y-105973081D01*
X104945819Y-105934400D01*
X104784181Y-105934400D01*
X104627242Y-105973081D01*
X104484120Y-106048197D01*
X104363132Y-106155383D01*
X104363128Y-106155388D01*
X104271313Y-106288403D01*
X104271312Y-106288404D01*
X104213994Y-106439540D01*
X104194511Y-106599999D01*
X104194511Y-106600000D01*
X104213994Y-106760459D01*
X104271312Y-106911595D01*
X104271313Y-106911596D01*
X104363128Y-107044611D01*
X104363136Y-107044620D01*
X104403845Y-107080685D01*
X104440972Y-107139874D01*
X104440204Y-107209740D01*
X104401786Y-107268099D01*
X104337916Y-107296424D01*
X104321618Y-107297500D01*
X103109843Y-107297500D01*
X103042804Y-107277815D01*
X102997049Y-107225011D01*
X102987105Y-107155853D01*
X103008060Y-107104227D01*
X103007835Y-107104097D01*
X103008771Y-107102475D01*
X103009528Y-107100611D01*
X103011084Y-107098469D01*
X103077268Y-106983834D01*
X103099729Y-106944931D01*
X103154514Y-106776319D01*
X103173046Y-106600000D01*
X103154514Y-106423681D01*
X103099729Y-106255069D01*
X103099728Y-106255068D01*
X103099728Y-106255066D01*
X103099727Y-106255065D01*
X103021790Y-106120075D01*
X103011084Y-106101531D01*
X102926910Y-106008046D01*
X102892456Y-105969780D01*
X102764649Y-105876924D01*
X102749023Y-105865571D01*
X102749021Y-105865570D01*
X102701890Y-105844585D01*
X102682470Y-105833756D01*
X102668833Y-105824457D01*
X102668828Y-105824454D01*
X102603802Y-105792588D01*
X102603791Y-105792584D01*
X102530361Y-105756600D01*
X102232499Y-105610633D01*
X102199384Y-105586965D01*
X100975013Y-104362593D01*
X100975009Y-104362590D01*
X100975008Y-104362589D01*
X100942877Y-104341120D01*
X100942875Y-104341118D01*
X100872239Y-104293920D01*
X100872226Y-104293913D01*
X100838785Y-104280062D01*
X100758035Y-104246614D01*
X100758027Y-104246612D01*
X100636807Y-104222500D01*
X100636803Y-104222500D01*
X97781803Y-104222500D01*
X97658197Y-104222500D01*
X97658192Y-104222500D01*
X97536973Y-104246611D01*
X97536973Y-104246612D01*
X97536970Y-104246613D01*
X97536966Y-104246614D01*
X97470070Y-104274323D01*
X97470068Y-104274323D01*
X97422770Y-104293915D01*
X97352124Y-104341118D01*
X97352123Y-104341120D01*
X97320825Y-104362031D01*
X97319986Y-104362593D01*
X96095616Y-105586963D01*
X96062501Y-105610631D01*
X95626165Y-105824457D01*
X95593022Y-105842257D01*
X95590463Y-105843945D01*
X95572659Y-105853690D01*
X95545980Y-105865568D01*
X95402543Y-105969780D01*
X95283915Y-106101532D01*
X95195272Y-106255065D01*
X95195271Y-106255066D01*
X95140487Y-106423677D01*
X95140486Y-106423679D01*
X95121954Y-106600000D01*
X27500500Y-106600000D01*
X27500500Y-104078872D01*
X47139500Y-104078872D01*
X47139500Y-104078880D01*
X47139500Y-104341120D01*
X47173730Y-104601116D01*
X47241602Y-104854418D01*
X47241605Y-104854428D01*
X47341953Y-105096690D01*
X47341958Y-105096700D01*
X47473075Y-105323803D01*
X47632718Y-105531851D01*
X47632726Y-105531860D01*
X47818140Y-105717274D01*
X47818148Y-105717281D01*
X48026196Y-105876924D01*
X48253299Y-106008041D01*
X48253309Y-106008046D01*
X48479005Y-106101532D01*
X48495581Y-106108398D01*
X48748884Y-106176270D01*
X49008880Y-106210500D01*
X49008887Y-106210500D01*
X49271113Y-106210500D01*
X49271120Y-106210500D01*
X49531116Y-106176270D01*
X49784419Y-106108398D01*
X50026697Y-106008043D01*
X50253803Y-105876924D01*
X50461851Y-105717282D01*
X50461855Y-105717277D01*
X50461860Y-105717274D01*
X50647274Y-105531860D01*
X50647277Y-105531855D01*
X50647282Y-105531851D01*
X50806924Y-105323803D01*
X50938043Y-105096697D01*
X51038398Y-104854419D01*
X51106270Y-104601116D01*
X51140500Y-104341120D01*
X51140500Y-104078880D01*
X51140499Y-104078872D01*
X143139500Y-104078872D01*
X143139500Y-104078880D01*
X143139500Y-104341120D01*
X143173730Y-104601116D01*
X143241602Y-104854418D01*
X143241605Y-104854428D01*
X143341953Y-105096690D01*
X143341958Y-105096700D01*
X143473075Y-105323803D01*
X143632718Y-105531851D01*
X143632726Y-105531860D01*
X143818140Y-105717274D01*
X143818148Y-105717281D01*
X144026196Y-105876924D01*
X144253299Y-106008041D01*
X144253309Y-106008046D01*
X144479005Y-106101532D01*
X144495581Y-106108398D01*
X144748884Y-106176270D01*
X145008880Y-106210500D01*
X145008887Y-106210500D01*
X145271113Y-106210500D01*
X145271120Y-106210500D01*
X145531116Y-106176270D01*
X145784419Y-106108398D01*
X146026697Y-106008043D01*
X146253803Y-105876924D01*
X146461851Y-105717282D01*
X146461855Y-105717277D01*
X146461860Y-105717274D01*
X146647274Y-105531860D01*
X146647277Y-105531855D01*
X146647282Y-105531851D01*
X146806924Y-105323803D01*
X146938043Y-105096697D01*
X147038398Y-104854419D01*
X147106270Y-104601116D01*
X147140500Y-104341120D01*
X147140500Y-104078880D01*
X147106270Y-103818884D01*
X147038398Y-103565581D01*
X147038394Y-103565571D01*
X146938046Y-103323309D01*
X146938041Y-103323299D01*
X146806924Y-103096196D01*
X146647281Y-102888148D01*
X146647274Y-102888140D01*
X146461860Y-102702726D01*
X146461851Y-102702718D01*
X146253803Y-102543075D01*
X146026700Y-102411958D01*
X146026690Y-102411953D01*
X145784428Y-102311605D01*
X145784421Y-102311603D01*
X145784419Y-102311602D01*
X145531116Y-102243730D01*
X145473339Y-102236123D01*
X145271127Y-102209500D01*
X145271120Y-102209500D01*
X145008880Y-102209500D01*
X145008872Y-102209500D01*
X144777772Y-102239926D01*
X144748884Y-102243730D01*
X144521709Y-102304601D01*
X144495581Y-102311602D01*
X144495571Y-102311605D01*
X144253309Y-102411953D01*
X144253299Y-102411958D01*
X144026196Y-102543075D01*
X143818148Y-102702718D01*
X143632718Y-102888148D01*
X143473075Y-103096196D01*
X143341958Y-103323299D01*
X143341953Y-103323309D01*
X143241605Y-103565571D01*
X143241602Y-103565581D01*
X143173730Y-103818885D01*
X143139500Y-104078872D01*
X51140499Y-104078872D01*
X51106270Y-103818884D01*
X51038398Y-103565581D01*
X51038394Y-103565571D01*
X50938046Y-103323309D01*
X50938041Y-103323299D01*
X50806924Y-103096196D01*
X50647281Y-102888148D01*
X50647274Y-102888140D01*
X50461860Y-102702726D01*
X50461851Y-102702718D01*
X50253803Y-102543075D01*
X50026700Y-102411958D01*
X50026690Y-102411953D01*
X49784428Y-102311605D01*
X49784421Y-102311603D01*
X49784419Y-102311602D01*
X49758298Y-102304603D01*
X69294499Y-102304603D01*
X69331410Y-102490161D01*
X69331413Y-102490171D01*
X69403814Y-102664965D01*
X69403816Y-102664968D01*
X69508927Y-102822278D01*
X69508933Y-102822286D01*
X69642713Y-102956066D01*
X69642721Y-102956072D01*
X69800031Y-103061183D01*
X69800034Y-103061185D01*
X69884562Y-103096197D01*
X69974833Y-103133588D01*
X69974837Y-103133588D01*
X69974838Y-103133589D01*
X70160396Y-103170500D01*
X70160399Y-103170500D01*
X70349603Y-103170500D01*
X70474442Y-103145667D01*
X70535167Y-103133588D01*
X70709967Y-103061184D01*
X70867283Y-102956069D01*
X71001069Y-102822283D01*
X71106184Y-102664967D01*
X71178588Y-102490167D01*
X71214107Y-102311605D01*
X71215500Y-102304603D01*
X122004499Y-102304603D01*
X122041410Y-102490161D01*
X122041413Y-102490171D01*
X122113814Y-102664965D01*
X122113816Y-102664968D01*
X122218927Y-102822278D01*
X122218933Y-102822286D01*
X122352713Y-102956066D01*
X122352721Y-102956072D01*
X122510031Y-103061183D01*
X122510034Y-103061185D01*
X122594562Y-103096197D01*
X122684833Y-103133588D01*
X122684837Y-103133588D01*
X122684838Y-103133589D01*
X122870396Y-103170500D01*
X122870399Y-103170500D01*
X123059603Y-103170500D01*
X123184442Y-103145667D01*
X123245167Y-103133588D01*
X123419967Y-103061184D01*
X123577283Y-102956069D01*
X123711069Y-102822283D01*
X123816184Y-102664967D01*
X123888588Y-102490167D01*
X123924107Y-102311605D01*
X123925500Y-102304603D01*
X123925500Y-102115396D01*
X123888589Y-101929838D01*
X123888588Y-101929837D01*
X123888588Y-101929833D01*
X123888586Y-101929828D01*
X123816185Y-101755034D01*
X123816183Y-101755031D01*
X123711072Y-101597721D01*
X123711066Y-101597713D01*
X123577286Y-101463933D01*
X123577278Y-101463927D01*
X123419968Y-101358816D01*
X123419965Y-101358814D01*
X123245171Y-101286413D01*
X123245161Y-101286410D01*
X123059603Y-101249500D01*
X123059601Y-101249500D01*
X122870399Y-101249500D01*
X122870397Y-101249500D01*
X122684838Y-101286410D01*
X122684828Y-101286413D01*
X122510034Y-101358814D01*
X122510031Y-101358816D01*
X122352721Y-101463927D01*
X122352713Y-101463933D01*
X122218933Y-101597713D01*
X122218927Y-101597721D01*
X122113816Y-101755031D01*
X122113814Y-101755034D01*
X122041413Y-101929828D01*
X122041410Y-101929838D01*
X122004500Y-102115396D01*
X122004500Y-102115399D01*
X122004500Y-102304601D01*
X122004500Y-102304603D01*
X122004499Y-102304603D01*
X71215500Y-102304603D01*
X71215500Y-102115396D01*
X71178589Y-101929838D01*
X71178588Y-101929837D01*
X71178588Y-101929833D01*
X71178586Y-101929828D01*
X71106185Y-101755034D01*
X71106183Y-101755031D01*
X71001072Y-101597721D01*
X71001066Y-101597713D01*
X70867286Y-101463933D01*
X70867278Y-101463927D01*
X70709968Y-101358816D01*
X70709965Y-101358814D01*
X70535171Y-101286413D01*
X70535161Y-101286410D01*
X70349603Y-101249500D01*
X70349601Y-101249500D01*
X70160399Y-101249500D01*
X70160397Y-101249500D01*
X69974838Y-101286410D01*
X69974828Y-101286413D01*
X69800034Y-101358814D01*
X69800031Y-101358816D01*
X69642721Y-101463927D01*
X69642713Y-101463933D01*
X69508933Y-101597713D01*
X69508927Y-101597721D01*
X69403816Y-101755031D01*
X69403814Y-101755034D01*
X69331413Y-101929828D01*
X69331410Y-101929838D01*
X69294500Y-102115396D01*
X69294500Y-102115399D01*
X69294500Y-102304601D01*
X69294500Y-102304603D01*
X69294499Y-102304603D01*
X49758298Y-102304603D01*
X49531116Y-102243730D01*
X49473339Y-102236123D01*
X49271127Y-102209500D01*
X49271120Y-102209500D01*
X49008880Y-102209500D01*
X49008872Y-102209500D01*
X48777772Y-102239926D01*
X48748884Y-102243730D01*
X48521709Y-102304601D01*
X48495581Y-102311602D01*
X48495571Y-102311605D01*
X48253309Y-102411953D01*
X48253299Y-102411958D01*
X48026196Y-102543075D01*
X47818148Y-102702718D01*
X47632718Y-102888148D01*
X47473075Y-103096196D01*
X47341958Y-103323299D01*
X47341953Y-103323309D01*
X47241605Y-103565571D01*
X47241602Y-103565581D01*
X47173730Y-103818885D01*
X47139500Y-104078872D01*
X27500500Y-104078872D01*
X27500500Y-98074999D01*
X120329511Y-98074999D01*
X120329511Y-98075000D01*
X120348994Y-98235459D01*
X120406312Y-98386595D01*
X120406313Y-98386596D01*
X120498128Y-98519611D01*
X120498132Y-98519616D01*
X120619119Y-98626802D01*
X120762241Y-98701918D01*
X120919181Y-98740600D01*
X121080819Y-98740600D01*
X121237759Y-98701918D01*
X121380881Y-98626802D01*
X121501868Y-98519616D01*
X121593689Y-98386592D01*
X121651006Y-98235459D01*
X121670489Y-98075000D01*
X121651006Y-97914541D01*
X121593689Y-97763408D01*
X121593687Y-97763406D01*
X121593687Y-97763404D01*
X121593686Y-97763403D01*
X121501871Y-97630388D01*
X121501867Y-97630383D01*
X121486288Y-97616582D01*
X121380881Y-97523198D01*
X121237759Y-97448082D01*
X121237758Y-97448081D01*
X121237757Y-97448081D01*
X121080819Y-97409400D01*
X120919181Y-97409400D01*
X120762242Y-97448081D01*
X120619120Y-97523197D01*
X120498132Y-97630383D01*
X120498128Y-97630388D01*
X120406313Y-97763403D01*
X120406312Y-97763404D01*
X120348994Y-97914540D01*
X120329511Y-98074999D01*
X27500500Y-98074999D01*
X27500500Y-95026721D01*
X32744500Y-95026721D01*
X32744500Y-95193278D01*
X32776990Y-95356615D01*
X32776992Y-95356623D01*
X32840728Y-95510495D01*
X32840728Y-95510496D01*
X32933255Y-95648973D01*
X32933261Y-95648980D01*
X33051019Y-95766738D01*
X33051026Y-95766744D01*
X33189504Y-95859271D01*
X33189505Y-95859271D01*
X33189506Y-95859272D01*
X33343377Y-95923008D01*
X33506721Y-95955499D01*
X33506725Y-95955500D01*
X33506726Y-95955500D01*
X33673275Y-95955500D01*
X33673276Y-95955499D01*
X33836623Y-95923008D01*
X33990494Y-95859272D01*
X33990495Y-95859271D01*
X33990496Y-95859271D01*
X34059734Y-95813007D01*
X34128975Y-95766743D01*
X34246743Y-95648975D01*
X34339272Y-95510494D01*
X34403008Y-95356623D01*
X34435500Y-95193274D01*
X34435500Y-95026726D01*
X34435499Y-95026721D01*
X47354500Y-95026721D01*
X47354500Y-95193278D01*
X47386990Y-95356615D01*
X47386992Y-95356623D01*
X47450728Y-95510495D01*
X47450728Y-95510496D01*
X47543255Y-95648973D01*
X47543261Y-95648980D01*
X47661019Y-95766738D01*
X47661026Y-95766744D01*
X47799504Y-95859271D01*
X47799505Y-95859271D01*
X47799506Y-95859272D01*
X47953377Y-95923008D01*
X48116721Y-95955499D01*
X48116725Y-95955500D01*
X48116726Y-95955500D01*
X48283275Y-95955500D01*
X48283276Y-95955499D01*
X48446623Y-95923008D01*
X48600494Y-95859272D01*
X48600495Y-95859271D01*
X48600496Y-95859271D01*
X48669734Y-95813007D01*
X48738975Y-95766743D01*
X48856743Y-95648975D01*
X48949272Y-95510494D01*
X49013008Y-95356623D01*
X49045500Y-95193274D01*
X49045500Y-95026726D01*
X49045499Y-95026721D01*
X132744500Y-95026721D01*
X132744500Y-95193278D01*
X132776990Y-95356615D01*
X132776992Y-95356623D01*
X132840728Y-95510495D01*
X132840728Y-95510496D01*
X132933255Y-95648973D01*
X132933261Y-95648980D01*
X133051019Y-95766738D01*
X133051026Y-95766744D01*
X133189504Y-95859271D01*
X133189505Y-95859271D01*
X133189506Y-95859272D01*
X133343377Y-95923008D01*
X133506721Y-95955499D01*
X133506725Y-95955500D01*
X133506726Y-95955500D01*
X133673275Y-95955500D01*
X133673276Y-95955499D01*
X133836623Y-95923008D01*
X133990494Y-95859272D01*
X133990495Y-95859271D01*
X133990496Y-95859271D01*
X134059734Y-95813007D01*
X134128975Y-95766743D01*
X134246743Y-95648975D01*
X134339272Y-95510494D01*
X134403008Y-95356623D01*
X134435500Y-95193274D01*
X134435500Y-95026726D01*
X134435499Y-95026721D01*
X147354500Y-95026721D01*
X147354500Y-95193278D01*
X147386990Y-95356615D01*
X147386992Y-95356623D01*
X147450728Y-95510495D01*
X147450728Y-95510496D01*
X147543255Y-95648973D01*
X147543261Y-95648980D01*
X147661019Y-95766738D01*
X147661026Y-95766744D01*
X147799504Y-95859271D01*
X147799505Y-95859271D01*
X147799506Y-95859272D01*
X147953377Y-95923008D01*
X148116721Y-95955499D01*
X148116725Y-95955500D01*
X148116726Y-95955500D01*
X148283275Y-95955500D01*
X148283276Y-95955499D01*
X148446623Y-95923008D01*
X148600494Y-95859272D01*
X148600495Y-95859271D01*
X148600496Y-95859271D01*
X148669734Y-95813007D01*
X148738975Y-95766743D01*
X148856743Y-95648975D01*
X148949272Y-95510494D01*
X149013008Y-95356623D01*
X149045500Y-95193274D01*
X149045500Y-95026726D01*
X149013008Y-94863377D01*
X148949272Y-94709506D01*
X148949271Y-94709504D01*
X148949271Y-94709503D01*
X148856744Y-94571026D01*
X148856738Y-94571019D01*
X148738980Y-94453261D01*
X148738973Y-94453255D01*
X148600495Y-94360728D01*
X148446623Y-94296992D01*
X148446615Y-94296990D01*
X148283278Y-94264500D01*
X148283274Y-94264500D01*
X148116726Y-94264500D01*
X148116721Y-94264500D01*
X147953384Y-94296990D01*
X147953376Y-94296992D01*
X147799504Y-94360728D01*
X147799503Y-94360728D01*
X147661026Y-94453255D01*
X147661019Y-94453261D01*
X147543261Y-94571019D01*
X147543255Y-94571026D01*
X147450728Y-94709503D01*
X147450728Y-94709504D01*
X147386992Y-94863376D01*
X147386990Y-94863384D01*
X147354500Y-95026721D01*
X134435499Y-95026721D01*
X134403008Y-94863377D01*
X134339272Y-94709506D01*
X134339271Y-94709504D01*
X134339271Y-94709503D01*
X134246744Y-94571026D01*
X134246738Y-94571019D01*
X134128980Y-94453261D01*
X134128973Y-94453255D01*
X133990495Y-94360728D01*
X133836623Y-94296992D01*
X133836615Y-94296990D01*
X133673278Y-94264500D01*
X133673274Y-94264500D01*
X133506726Y-94264500D01*
X133506721Y-94264500D01*
X133343384Y-94296990D01*
X133343376Y-94296992D01*
X133189504Y-94360728D01*
X133189503Y-94360728D01*
X133051026Y-94453255D01*
X133051019Y-94453261D01*
X132933261Y-94571019D01*
X132933255Y-94571026D01*
X132840728Y-94709503D01*
X132840728Y-94709504D01*
X132776992Y-94863376D01*
X132776990Y-94863384D01*
X132744500Y-95026721D01*
X49045499Y-95026721D01*
X49013008Y-94863377D01*
X48949272Y-94709506D01*
X48949271Y-94709504D01*
X48949271Y-94709503D01*
X48856744Y-94571026D01*
X48856738Y-94571019D01*
X48738980Y-94453261D01*
X48738973Y-94453255D01*
X48600495Y-94360728D01*
X48446623Y-94296992D01*
X48446615Y-94296990D01*
X48283278Y-94264500D01*
X48283274Y-94264500D01*
X48116726Y-94264500D01*
X48116721Y-94264500D01*
X47953384Y-94296990D01*
X47953376Y-94296992D01*
X47799504Y-94360728D01*
X47799503Y-94360728D01*
X47661026Y-94453255D01*
X47661019Y-94453261D01*
X47543261Y-94571019D01*
X47543255Y-94571026D01*
X47450728Y-94709503D01*
X47450728Y-94709504D01*
X47386992Y-94863376D01*
X47386990Y-94863384D01*
X47354500Y-95026721D01*
X34435499Y-95026721D01*
X34403008Y-94863377D01*
X34339272Y-94709506D01*
X34339271Y-94709504D01*
X34339271Y-94709503D01*
X34246744Y-94571026D01*
X34246738Y-94571019D01*
X34128980Y-94453261D01*
X34128973Y-94453255D01*
X33990495Y-94360728D01*
X33836623Y-94296992D01*
X33836615Y-94296990D01*
X33673278Y-94264500D01*
X33673274Y-94264500D01*
X33506726Y-94264500D01*
X33506721Y-94264500D01*
X33343384Y-94296990D01*
X33343376Y-94296992D01*
X33189504Y-94360728D01*
X33189503Y-94360728D01*
X33051026Y-94453255D01*
X33051019Y-94453261D01*
X32933261Y-94571019D01*
X32933255Y-94571026D01*
X32840728Y-94709503D01*
X32840728Y-94709504D01*
X32776992Y-94863376D01*
X32776990Y-94863384D01*
X32744500Y-95026721D01*
X27500500Y-95026721D01*
X27500500Y-90874000D01*
X35601954Y-90874000D01*
X35620486Y-91050320D01*
X35620487Y-91050322D01*
X35675271Y-91218933D01*
X35675272Y-91218934D01*
X35733401Y-91319616D01*
X35763916Y-91372469D01*
X35783743Y-91394489D01*
X35882543Y-91504219D01*
X35883922Y-91505221D01*
X36025977Y-91608429D01*
X36187933Y-91680538D01*
X36187936Y-91680538D01*
X36187939Y-91680540D01*
X36361355Y-91717400D01*
X36538645Y-91717400D01*
X36712061Y-91680540D01*
X36712064Y-91680538D01*
X36712066Y-91680538D01*
X36744869Y-91665932D01*
X36874023Y-91608429D01*
X37017454Y-91504221D01*
X37022468Y-91498653D01*
X37033471Y-91486432D01*
X37136084Y-91372469D01*
X37224729Y-91218931D01*
X37279514Y-91050319D01*
X37298046Y-90874000D01*
X37298046Y-90873999D01*
X38319511Y-90873999D01*
X38319511Y-90874000D01*
X38338994Y-91034459D01*
X38396312Y-91185595D01*
X38396313Y-91185596D01*
X38488128Y-91318611D01*
X38488130Y-91318613D01*
X38488132Y-91318616D01*
X38609119Y-91425802D01*
X38752241Y-91500918D01*
X38909181Y-91539600D01*
X39070819Y-91539600D01*
X39227759Y-91500918D01*
X39370881Y-91425802D01*
X39418465Y-91383645D01*
X39481697Y-91353925D01*
X39550961Y-91363107D01*
X39592842Y-91393489D01*
X39692543Y-91504219D01*
X39835980Y-91608431D01*
X39883110Y-91629414D01*
X39902527Y-91640240D01*
X39916170Y-91649543D01*
X39916173Y-91649544D01*
X39916174Y-91649545D01*
X40240207Y-91808337D01*
X40240211Y-91808340D01*
X40272082Y-91823958D01*
X40352502Y-91863368D01*
X40385616Y-91887035D01*
X41935988Y-93437408D01*
X41935992Y-93437411D01*
X42038760Y-93506079D01*
X42038773Y-93506086D01*
X42152960Y-93553383D01*
X42152965Y-93553385D01*
X42152969Y-93553385D01*
X42152970Y-93553386D01*
X42274193Y-93577500D01*
X42274196Y-93577500D01*
X42274197Y-93577500D01*
X75963719Y-93577500D01*
X76030758Y-93597185D01*
X76051400Y-93613819D01*
X76637589Y-94200008D01*
X76702081Y-94264500D01*
X76724994Y-94287413D01*
X76724996Y-94287414D01*
X76827756Y-94356076D01*
X76827758Y-94356077D01*
X76827767Y-94356083D01*
X76852772Y-94366440D01*
X76875071Y-94375677D01*
X76917254Y-94393149D01*
X76941966Y-94403386D01*
X77063192Y-94427499D01*
X77063196Y-94427500D01*
X77063197Y-94427500D01*
X83986804Y-94427500D01*
X83986805Y-94427499D01*
X84108035Y-94403386D01*
X84188784Y-94369937D01*
X84222233Y-94356083D01*
X84325008Y-94287411D01*
X84412411Y-94200008D01*
X86248600Y-92363819D01*
X86309923Y-92330334D01*
X86336281Y-92327500D01*
X86568962Y-92327500D01*
X86636001Y-92347185D01*
X86681756Y-92399989D01*
X86691700Y-92469147D01*
X86678760Y-92509123D01*
X86676511Y-92513407D01*
X86619194Y-92664540D01*
X86599711Y-92824999D01*
X86599711Y-92825000D01*
X86619194Y-92985459D01*
X86676512Y-93136595D01*
X86676513Y-93136596D01*
X86768328Y-93269611D01*
X86768332Y-93269616D01*
X86889319Y-93376802D01*
X87032441Y-93451918D01*
X87189381Y-93490600D01*
X87351019Y-93490600D01*
X87507959Y-93451918D01*
X87651081Y-93376802D01*
X87772068Y-93269616D01*
X87863889Y-93136592D01*
X87921206Y-92985459D01*
X87940689Y-92825000D01*
X87921206Y-92664541D01*
X87863889Y-92513408D01*
X87863887Y-92513405D01*
X87861640Y-92509123D01*
X87847917Y-92440614D01*
X87873411Y-92375562D01*
X87930028Y-92334619D01*
X87971438Y-92327500D01*
X88269856Y-92327500D01*
X88310006Y-92334179D01*
X88769732Y-92491516D01*
X88791480Y-92498066D01*
X88806146Y-92503515D01*
X88812939Y-92506540D01*
X88812940Y-92506540D01*
X88812942Y-92506541D01*
X88867590Y-92518156D01*
X88986355Y-92543400D01*
X89163645Y-92543400D01*
X89337061Y-92506540D01*
X89337064Y-92506538D01*
X89337066Y-92506538D01*
X89370805Y-92491516D01*
X89499023Y-92434429D01*
X89642454Y-92330221D01*
X89761084Y-92198469D01*
X89849729Y-92044931D01*
X89904514Y-91876319D01*
X89923046Y-91700000D01*
X89905966Y-91537499D01*
X99979511Y-91537499D01*
X99979511Y-91537500D01*
X99998994Y-91697959D01*
X100056312Y-91849095D01*
X100056313Y-91849096D01*
X100148128Y-91982111D01*
X100148132Y-91982116D01*
X100269119Y-92089302D01*
X100412241Y-92164418D01*
X100569181Y-92203100D01*
X100730819Y-92203100D01*
X100887759Y-92164418D01*
X101030881Y-92089302D01*
X101151868Y-91982116D01*
X101243689Y-91849092D01*
X101301006Y-91697959D01*
X101320489Y-91537500D01*
X101301006Y-91377041D01*
X101243689Y-91225908D01*
X101243687Y-91225906D01*
X101243687Y-91225904D01*
X101243686Y-91225903D01*
X101236159Y-91214999D01*
X102189511Y-91214999D01*
X102189511Y-91215000D01*
X102208994Y-91375459D01*
X102266312Y-91526595D01*
X102266313Y-91526596D01*
X102358128Y-91659611D01*
X102358132Y-91659616D01*
X102479119Y-91766802D01*
X102622241Y-91841918D01*
X102779181Y-91880600D01*
X102940819Y-91880600D01*
X103097759Y-91841918D01*
X103240881Y-91766802D01*
X103361868Y-91659616D01*
X103453689Y-91526592D01*
X103511006Y-91375459D01*
X103530489Y-91215000D01*
X103530196Y-91212591D01*
X103521858Y-91143917D01*
X103511006Y-91054541D01*
X103453689Y-90903408D01*
X103453687Y-90903406D01*
X103453687Y-90903404D01*
X103453686Y-90903403D01*
X103361871Y-90770388D01*
X103361867Y-90770383D01*
X103346288Y-90756582D01*
X103240881Y-90663198D01*
X103097759Y-90588082D01*
X103097758Y-90588081D01*
X103097757Y-90588081D01*
X102940819Y-90549400D01*
X102779181Y-90549400D01*
X102622242Y-90588081D01*
X102479120Y-90663197D01*
X102358132Y-90770383D01*
X102358128Y-90770388D01*
X102266313Y-90903403D01*
X102266312Y-90903404D01*
X102208994Y-91054540D01*
X102189511Y-91214999D01*
X101236159Y-91214999D01*
X101151871Y-91092888D01*
X101151867Y-91092883D01*
X101103826Y-91050322D01*
X101030881Y-90985698D01*
X100887759Y-90910582D01*
X100887758Y-90910581D01*
X100887757Y-90910581D01*
X100730819Y-90871900D01*
X100569181Y-90871900D01*
X100412242Y-90910581D01*
X100269120Y-90985697D01*
X100148132Y-91092883D01*
X100148128Y-91092888D01*
X100056313Y-91225903D01*
X100056312Y-91225904D01*
X99998994Y-91377040D01*
X99979511Y-91537499D01*
X89905966Y-91537499D01*
X89904514Y-91523681D01*
X89849729Y-91355069D01*
X89849728Y-91355068D01*
X89849728Y-91355066D01*
X89849727Y-91355065D01*
X89761084Y-91201531D01*
X89642456Y-91069780D01*
X89558184Y-91008554D01*
X89499023Y-90965571D01*
X89499021Y-90965570D01*
X89499022Y-90965570D01*
X89337066Y-90893461D01*
X89337058Y-90893459D01*
X89163645Y-90856600D01*
X88986355Y-90856600D01*
X88812941Y-90893459D01*
X88812928Y-90893463D01*
X88799378Y-90899496D01*
X88772013Y-90908051D01*
X88769739Y-90908481D01*
X88769734Y-90908482D01*
X88769732Y-90908483D01*
X88310003Y-91065820D01*
X88269852Y-91072500D01*
X85963194Y-91072500D01*
X85841970Y-91096613D01*
X85841960Y-91096616D01*
X85727773Y-91143913D01*
X85727761Y-91143920D01*
X85641542Y-91201531D01*
X85641541Y-91201532D01*
X85624988Y-91212591D01*
X85624987Y-91212592D01*
X83701400Y-93136181D01*
X83640077Y-93169666D01*
X83613719Y-93172500D01*
X78965830Y-93172500D01*
X78898791Y-93152815D01*
X78853036Y-93100011D01*
X78843092Y-93030853D01*
X78872117Y-92967297D01*
X78908205Y-92938703D01*
X78930881Y-92926802D01*
X79051868Y-92819616D01*
X79143689Y-92686592D01*
X79201006Y-92535459D01*
X79220489Y-92375000D01*
X79201006Y-92214541D01*
X79143689Y-92063408D01*
X79143687Y-92063406D01*
X79143687Y-92063404D01*
X79143686Y-92063403D01*
X79051871Y-91930388D01*
X79051867Y-91930383D01*
X78990845Y-91876322D01*
X78930881Y-91823198D01*
X78787759Y-91748082D01*
X78787758Y-91748081D01*
X78787757Y-91748081D01*
X78630819Y-91709400D01*
X78469181Y-91709400D01*
X78312242Y-91748081D01*
X78169120Y-91823197D01*
X78048132Y-91930383D01*
X78048128Y-91930388D01*
X77956313Y-92063403D01*
X77956312Y-92063404D01*
X77898994Y-92214540D01*
X77879511Y-92374999D01*
X77879511Y-92375000D01*
X77898994Y-92535459D01*
X77956312Y-92686595D01*
X77956313Y-92686596D01*
X78048128Y-92819611D01*
X78048132Y-92819616D01*
X78169119Y-92926802D01*
X78191795Y-92938703D01*
X78242008Y-92987287D01*
X78257983Y-93055306D01*
X78234649Y-93121164D01*
X78179413Y-93163952D01*
X78134170Y-93172500D01*
X77436281Y-93172500D01*
X77369242Y-93152815D01*
X77348600Y-93136181D01*
X76675014Y-92462594D01*
X76675010Y-92462591D01*
X76675008Y-92462589D01*
X76667118Y-92457317D01*
X76572239Y-92393920D01*
X76572226Y-92393913D01*
X76517878Y-92371402D01*
X76458035Y-92346614D01*
X76458027Y-92346612D01*
X76336807Y-92322500D01*
X76336803Y-92322500D01*
X42647281Y-92322500D01*
X42580242Y-92302815D01*
X42559600Y-92286181D01*
X41890866Y-91617447D01*
X41857381Y-91556124D01*
X41862365Y-91486432D01*
X41904237Y-91430499D01*
X41908112Y-91427712D01*
X41910869Y-91425808D01*
X41910881Y-91425802D01*
X42031868Y-91318616D01*
X42062950Y-91273585D01*
X42117233Y-91229596D01*
X42186682Y-91221936D01*
X42249246Y-91253040D01*
X42267048Y-91273583D01*
X42298132Y-91318616D01*
X42419119Y-91425802D01*
X42562241Y-91500918D01*
X42719181Y-91539600D01*
X42880819Y-91539600D01*
X43037759Y-91500918D01*
X43180881Y-91425802D01*
X43301868Y-91318616D01*
X43332950Y-91273585D01*
X43387233Y-91229596D01*
X43456682Y-91221936D01*
X43519246Y-91253040D01*
X43537048Y-91273583D01*
X43568132Y-91318616D01*
X43689119Y-91425802D01*
X43832241Y-91500918D01*
X43989181Y-91539600D01*
X44150819Y-91539600D01*
X44307759Y-91500918D01*
X44450881Y-91425802D01*
X44571868Y-91318616D01*
X44602950Y-91273585D01*
X44657233Y-91229596D01*
X44726682Y-91221936D01*
X44789246Y-91253040D01*
X44807048Y-91273583D01*
X44838132Y-91318616D01*
X44959119Y-91425802D01*
X45102241Y-91500918D01*
X45259181Y-91539600D01*
X45420819Y-91539600D01*
X45577759Y-91500918D01*
X45720881Y-91425802D01*
X45841868Y-91318616D01*
X45872950Y-91273585D01*
X45927233Y-91229596D01*
X45996682Y-91221936D01*
X46059246Y-91253040D01*
X46077048Y-91273583D01*
X46108132Y-91318616D01*
X46229119Y-91425802D01*
X46372241Y-91500918D01*
X46529181Y-91539600D01*
X46690819Y-91539600D01*
X46847759Y-91500918D01*
X46990881Y-91425802D01*
X47111868Y-91318616D01*
X47203689Y-91185592D01*
X47261006Y-91034459D01*
X47280489Y-90874000D01*
X47261006Y-90713541D01*
X47203689Y-90562408D01*
X47203687Y-90562406D01*
X47203687Y-90562404D01*
X47203686Y-90562403D01*
X47111871Y-90429388D01*
X47111867Y-90429383D01*
X47068721Y-90391159D01*
X46990881Y-90322198D01*
X46847759Y-90247082D01*
X46847758Y-90247081D01*
X46847757Y-90247081D01*
X46690819Y-90208400D01*
X46529181Y-90208400D01*
X46372242Y-90247081D01*
X46229120Y-90322197D01*
X46108132Y-90429383D01*
X46108128Y-90429388D01*
X46077049Y-90474414D01*
X46022766Y-90518404D01*
X45953317Y-90526063D01*
X45890753Y-90494959D01*
X45872951Y-90474414D01*
X45841871Y-90429388D01*
X45841867Y-90429383D01*
X45798721Y-90391159D01*
X45720881Y-90322198D01*
X45577759Y-90247082D01*
X45577758Y-90247081D01*
X45577757Y-90247081D01*
X45420819Y-90208400D01*
X45259181Y-90208400D01*
X45102242Y-90247081D01*
X44959120Y-90322197D01*
X44838132Y-90429383D01*
X44838128Y-90429388D01*
X44807049Y-90474414D01*
X44752766Y-90518404D01*
X44683317Y-90526063D01*
X44620753Y-90494959D01*
X44602951Y-90474414D01*
X44571871Y-90429388D01*
X44571867Y-90429383D01*
X44528721Y-90391159D01*
X44450881Y-90322198D01*
X44307759Y-90247082D01*
X44307758Y-90247081D01*
X44307757Y-90247081D01*
X44150819Y-90208400D01*
X43989181Y-90208400D01*
X43832242Y-90247081D01*
X43689120Y-90322197D01*
X43568132Y-90429383D01*
X43568128Y-90429388D01*
X43537049Y-90474414D01*
X43482766Y-90518404D01*
X43413317Y-90526063D01*
X43350753Y-90494959D01*
X43332951Y-90474414D01*
X43301871Y-90429388D01*
X43301867Y-90429383D01*
X43258721Y-90391159D01*
X43180881Y-90322198D01*
X43037759Y-90247082D01*
X43037758Y-90247081D01*
X43037757Y-90247081D01*
X42880819Y-90208400D01*
X42719181Y-90208400D01*
X42562242Y-90247081D01*
X42419120Y-90322197D01*
X42298132Y-90429383D01*
X42298128Y-90429388D01*
X42267049Y-90474414D01*
X42212766Y-90518404D01*
X42143317Y-90526063D01*
X42080753Y-90494959D01*
X42062951Y-90474414D01*
X42031871Y-90429388D01*
X42031867Y-90429383D01*
X41988721Y-90391159D01*
X41910881Y-90322198D01*
X41767759Y-90247082D01*
X41767758Y-90247081D01*
X41767757Y-90247081D01*
X41610819Y-90208400D01*
X41449181Y-90208400D01*
X41292242Y-90247081D01*
X41149117Y-90322198D01*
X41101533Y-90364354D01*
X41038300Y-90394075D01*
X40969036Y-90384891D01*
X40927157Y-90354510D01*
X40827456Y-90243780D01*
X40740220Y-90180400D01*
X40684023Y-90139571D01*
X40684021Y-90139570D01*
X40684022Y-90139570D01*
X40522066Y-90067461D01*
X40522058Y-90067459D01*
X40348645Y-90030600D01*
X40171355Y-90030600D01*
X39997941Y-90067459D01*
X39997933Y-90067461D01*
X39835978Y-90139570D01*
X39692543Y-90243780D01*
X39592842Y-90354510D01*
X39533355Y-90391159D01*
X39463498Y-90389828D01*
X39418465Y-90364354D01*
X39407353Y-90354510D01*
X39370881Y-90322198D01*
X39227759Y-90247082D01*
X39227758Y-90247081D01*
X39227757Y-90247081D01*
X39070819Y-90208400D01*
X38909181Y-90208400D01*
X38752242Y-90247081D01*
X38609120Y-90322197D01*
X38488132Y-90429383D01*
X38488128Y-90429388D01*
X38396313Y-90562403D01*
X38396312Y-90562404D01*
X38338994Y-90713540D01*
X38319511Y-90873999D01*
X37298046Y-90873999D01*
X37279514Y-90697681D01*
X37249387Y-90604962D01*
X37245483Y-90589701D01*
X37241518Y-90568736D01*
X37084180Y-90109001D01*
X37077500Y-90068850D01*
X37077500Y-89374999D01*
X77829511Y-89374999D01*
X77829511Y-89375000D01*
X77848994Y-89535459D01*
X77906312Y-89686595D01*
X77906313Y-89686596D01*
X77998128Y-89819611D01*
X77998132Y-89819616D01*
X78119119Y-89926802D01*
X78262241Y-90001918D01*
X78419181Y-90040600D01*
X78580819Y-90040600D01*
X78737759Y-90001918D01*
X78880881Y-89926802D01*
X79001868Y-89819616D01*
X79093689Y-89686592D01*
X79151006Y-89535459D01*
X79170489Y-89375000D01*
X79170350Y-89373859D01*
X79158758Y-89278386D01*
X79151006Y-89214541D01*
X79093689Y-89063408D01*
X79093687Y-89063406D01*
X79093687Y-89063404D01*
X79093686Y-89063403D01*
X79001871Y-88930388D01*
X79001867Y-88930383D01*
X78961680Y-88894780D01*
X78880881Y-88823198D01*
X78737759Y-88748082D01*
X78737758Y-88748081D01*
X78737757Y-88748081D01*
X78580819Y-88709400D01*
X78419181Y-88709400D01*
X78262242Y-88748081D01*
X78119120Y-88823197D01*
X77998132Y-88930383D01*
X77998128Y-88930388D01*
X77906313Y-89063403D01*
X77906312Y-89063404D01*
X77848994Y-89214540D01*
X77829511Y-89374999D01*
X37077500Y-89374999D01*
X37077500Y-88836281D01*
X37097185Y-88769242D01*
X37113819Y-88748600D01*
X39023600Y-86838819D01*
X39084923Y-86805334D01*
X39111281Y-86802500D01*
X83038719Y-86802500D01*
X83105758Y-86822185D01*
X83126400Y-86838819D01*
X85362589Y-89075008D01*
X85449992Y-89162411D01*
X85449994Y-89162413D01*
X85449996Y-89162414D01*
X85476419Y-89180069D01*
X85552767Y-89231083D01*
X85586215Y-89244937D01*
X85666965Y-89278386D01*
X85788192Y-89302499D01*
X85788196Y-89302500D01*
X85788197Y-89302500D01*
X85911803Y-89302500D01*
X88738719Y-89302500D01*
X88805758Y-89322185D01*
X88826400Y-89338819D01*
X88886963Y-89399382D01*
X88910631Y-89432497D01*
X89056860Y-89730893D01*
X89056864Y-89730905D01*
X89108107Y-89835469D01*
X89124455Y-89868829D01*
X89142234Y-89901935D01*
X89142237Y-89901939D01*
X89143453Y-89903783D01*
X89152364Y-89916858D01*
X89213915Y-90023467D01*
X89213916Y-90023469D01*
X89332543Y-90155219D01*
X89332546Y-90155221D01*
X89475977Y-90259429D01*
X89637933Y-90331538D01*
X89637936Y-90331538D01*
X89637939Y-90331540D01*
X89811355Y-90368400D01*
X89988645Y-90368400D01*
X90162061Y-90331540D01*
X90162064Y-90331538D01*
X90162066Y-90331538D01*
X90229176Y-90301658D01*
X90324023Y-90259429D01*
X90432798Y-90180400D01*
X113051954Y-90180400D01*
X113070486Y-90356720D01*
X113070487Y-90356722D01*
X113125271Y-90525333D01*
X113125272Y-90525334D01*
X113171255Y-90604978D01*
X113213916Y-90678869D01*
X113246035Y-90714541D01*
X113332543Y-90810619D01*
X113332546Y-90810621D01*
X113475977Y-90914829D01*
X113525409Y-90936838D01*
X113544146Y-90947206D01*
X113559252Y-90957361D01*
X113559257Y-90957364D01*
X113995219Y-91167462D01*
X114029066Y-91191485D01*
X115012589Y-92175008D01*
X115099992Y-92262411D01*
X115099994Y-92262413D01*
X115099997Y-92262414D01*
X115202767Y-92331083D01*
X115236215Y-92344937D01*
X115316965Y-92378386D01*
X115425573Y-92399989D01*
X115438192Y-92402499D01*
X115438196Y-92402500D01*
X115438197Y-92402500D01*
X140691804Y-92402500D01*
X140691805Y-92402499D01*
X140813035Y-92378386D01*
X140893784Y-92344937D01*
X140927233Y-92331083D01*
X141030008Y-92262411D01*
X141117411Y-92175008D01*
X141404390Y-91888027D01*
X141437495Y-91864367D01*
X141873830Y-91650543D01*
X141906935Y-91632765D01*
X141906944Y-91632757D01*
X141909488Y-91631081D01*
X141927318Y-91621318D01*
X141954023Y-91609429D01*
X142097454Y-91505221D01*
X142097456Y-91505219D01*
X142197158Y-91394489D01*
X142256644Y-91357840D01*
X142326501Y-91359170D01*
X142371533Y-91384644D01*
X142419119Y-91426802D01*
X142562241Y-91501918D01*
X142719181Y-91540600D01*
X142880819Y-91540600D01*
X143037759Y-91501918D01*
X143180881Y-91426802D01*
X143301868Y-91319616D01*
X143332950Y-91274585D01*
X143387233Y-91230596D01*
X143456682Y-91222936D01*
X143519246Y-91254040D01*
X143537048Y-91274583D01*
X143568132Y-91319616D01*
X143689119Y-91426802D01*
X143832241Y-91501918D01*
X143989181Y-91540600D01*
X144150819Y-91540600D01*
X144307759Y-91501918D01*
X144450881Y-91426802D01*
X144571868Y-91319616D01*
X144602950Y-91274585D01*
X144657233Y-91230596D01*
X144726682Y-91222936D01*
X144789246Y-91254040D01*
X144807048Y-91274583D01*
X144838132Y-91319616D01*
X144959119Y-91426802D01*
X145102241Y-91501918D01*
X145259181Y-91540600D01*
X145420819Y-91540600D01*
X145577759Y-91501918D01*
X145720881Y-91426802D01*
X145841868Y-91319616D01*
X145872950Y-91274585D01*
X145927233Y-91230596D01*
X145996682Y-91222936D01*
X146059246Y-91254040D01*
X146077048Y-91274583D01*
X146108132Y-91319616D01*
X146229119Y-91426802D01*
X146372241Y-91501918D01*
X146529181Y-91540600D01*
X146690819Y-91540600D01*
X146847759Y-91501918D01*
X146990881Y-91426802D01*
X147111868Y-91319616D01*
X147203689Y-91186592D01*
X147261006Y-91035459D01*
X147280489Y-90875000D01*
X147280367Y-90873999D01*
X147272672Y-90810619D01*
X147261006Y-90714541D01*
X147203689Y-90563408D01*
X147203687Y-90563406D01*
X147203687Y-90563404D01*
X147203686Y-90563403D01*
X147111871Y-90430388D01*
X147111867Y-90430383D01*
X147041902Y-90368399D01*
X146990881Y-90323198D01*
X146847759Y-90248082D01*
X146847758Y-90248081D01*
X146847757Y-90248081D01*
X146690819Y-90209400D01*
X146529181Y-90209400D01*
X146372242Y-90248081D01*
X146229120Y-90323197D01*
X146108132Y-90430383D01*
X146108128Y-90430388D01*
X146077049Y-90475414D01*
X146022766Y-90519404D01*
X145953317Y-90527063D01*
X145890753Y-90495959D01*
X145872951Y-90475414D01*
X145841871Y-90430388D01*
X145841867Y-90430383D01*
X145771902Y-90368399D01*
X145720881Y-90323198D01*
X145577759Y-90248082D01*
X145577758Y-90248081D01*
X145577757Y-90248081D01*
X145420819Y-90209400D01*
X145259181Y-90209400D01*
X145102242Y-90248081D01*
X144959120Y-90323197D01*
X144838132Y-90430383D01*
X144838128Y-90430388D01*
X144807049Y-90475414D01*
X144752766Y-90519404D01*
X144683317Y-90527063D01*
X144620753Y-90495959D01*
X144602951Y-90475414D01*
X144571871Y-90430388D01*
X144571867Y-90430383D01*
X144501902Y-90368399D01*
X144450881Y-90323198D01*
X144307759Y-90248082D01*
X144307758Y-90248081D01*
X144307757Y-90248081D01*
X144150819Y-90209400D01*
X143989181Y-90209400D01*
X143832242Y-90248081D01*
X143689120Y-90323197D01*
X143568132Y-90430383D01*
X143568128Y-90430388D01*
X143537049Y-90475414D01*
X143482766Y-90519404D01*
X143413317Y-90527063D01*
X143350753Y-90495959D01*
X143332951Y-90475414D01*
X143301871Y-90430388D01*
X143301867Y-90430383D01*
X143231902Y-90368399D01*
X143180881Y-90323198D01*
X143037759Y-90248082D01*
X143037758Y-90248081D01*
X143037757Y-90248081D01*
X142880819Y-90209400D01*
X142719181Y-90209400D01*
X142562242Y-90248081D01*
X142419117Y-90323198D01*
X142371533Y-90365354D01*
X142308300Y-90395075D01*
X142239036Y-90385891D01*
X142197157Y-90355510D01*
X142097456Y-90244780D01*
X141974184Y-90155219D01*
X141954023Y-90140571D01*
X141954021Y-90140570D01*
X141954022Y-90140570D01*
X141792066Y-90068461D01*
X141792058Y-90068459D01*
X141618645Y-90031600D01*
X141441355Y-90031600D01*
X141267941Y-90068459D01*
X141267933Y-90068461D01*
X141105978Y-90140570D01*
X140962543Y-90244780D01*
X140862842Y-90355510D01*
X140803355Y-90392159D01*
X140733498Y-90390828D01*
X140688465Y-90365354D01*
X140676225Y-90354510D01*
X140640881Y-90323198D01*
X140497759Y-90248082D01*
X140497758Y-90248081D01*
X140497757Y-90248081D01*
X140340819Y-90209400D01*
X140179181Y-90209400D01*
X140022242Y-90248081D01*
X139879120Y-90323197D01*
X139758132Y-90430383D01*
X139758128Y-90430388D01*
X139727049Y-90475414D01*
X139672766Y-90519404D01*
X139603317Y-90527063D01*
X139540753Y-90495959D01*
X139522951Y-90475414D01*
X139491871Y-90430388D01*
X139491867Y-90430383D01*
X139421902Y-90368399D01*
X139370881Y-90323198D01*
X139227759Y-90248082D01*
X139227758Y-90248081D01*
X139227757Y-90248081D01*
X139070819Y-90209400D01*
X138909181Y-90209400D01*
X138752242Y-90248081D01*
X138609120Y-90323197D01*
X138488132Y-90430383D01*
X138488128Y-90430388D01*
X138457049Y-90475414D01*
X138402766Y-90519404D01*
X138333317Y-90527063D01*
X138270753Y-90495959D01*
X138252951Y-90475414D01*
X138221871Y-90430388D01*
X138221867Y-90430383D01*
X138151902Y-90368399D01*
X138100881Y-90323198D01*
X137957759Y-90248082D01*
X137957758Y-90248081D01*
X137957757Y-90248081D01*
X137800819Y-90209400D01*
X137639181Y-90209400D01*
X137482242Y-90248081D01*
X137339120Y-90323197D01*
X137218132Y-90430383D01*
X137218128Y-90430388D01*
X137126313Y-90563403D01*
X137126312Y-90563404D01*
X137068994Y-90714540D01*
X137049511Y-90874999D01*
X137049511Y-90875000D01*
X137065727Y-91008554D01*
X137054266Y-91077477D01*
X137007362Y-91129263D01*
X136942631Y-91147500D01*
X115811281Y-91147500D01*
X115744242Y-91127815D01*
X115723600Y-91111181D01*
X114914077Y-90301658D01*
X114890726Y-90269184D01*
X114878591Y-90244779D01*
X114674283Y-89833873D01*
X114657069Y-89802147D01*
X114657065Y-89802142D01*
X114655746Y-89800157D01*
X114646702Y-89786926D01*
X114586084Y-89681931D01*
X114576230Y-89670987D01*
X114467456Y-89550180D01*
X114395738Y-89498075D01*
X114324023Y-89445971D01*
X114324021Y-89445970D01*
X114324022Y-89445970D01*
X114162066Y-89373861D01*
X114162058Y-89373859D01*
X113988645Y-89337000D01*
X113811355Y-89337000D01*
X113637941Y-89373859D01*
X113637933Y-89373861D01*
X113475978Y-89445970D01*
X113332543Y-89550180D01*
X113213915Y-89681932D01*
X113125272Y-89835465D01*
X113125271Y-89835466D01*
X113070487Y-90004077D01*
X113070486Y-90004079D01*
X113051954Y-90180400D01*
X90432798Y-90180400D01*
X90467454Y-90155221D01*
X90586084Y-90023469D01*
X90674729Y-89869931D01*
X90729514Y-89701319D01*
X90748046Y-89525000D01*
X90729514Y-89348681D01*
X90674729Y-89180069D01*
X90674728Y-89180068D01*
X90674728Y-89180066D01*
X90674727Y-89180065D01*
X90607375Y-89063408D01*
X90586084Y-89026531D01*
X90532677Y-88967217D01*
X90467456Y-88894780D01*
X90386938Y-88836281D01*
X90324023Y-88790571D01*
X90311329Y-88784919D01*
X90276890Y-88769585D01*
X90257470Y-88758756D01*
X90243833Y-88749457D01*
X90243828Y-88749454D01*
X90178802Y-88717588D01*
X90178791Y-88717584D01*
X89807499Y-88535633D01*
X89774384Y-88511965D01*
X89450011Y-88187591D01*
X89450007Y-88187588D01*
X89347239Y-88118920D01*
X89347226Y-88118913D01*
X89313785Y-88105062D01*
X89233035Y-88071614D01*
X89233027Y-88071612D01*
X89111807Y-88047500D01*
X89111803Y-88047500D01*
X86161281Y-88047500D01*
X86094242Y-88027815D01*
X86073600Y-88011181D01*
X84062419Y-85999999D01*
X110204511Y-85999999D01*
X110204511Y-86000000D01*
X110223994Y-86160459D01*
X110281312Y-86311595D01*
X110281313Y-86311596D01*
X110373128Y-86444611D01*
X110373132Y-86444616D01*
X110494119Y-86551802D01*
X110637241Y-86626918D01*
X110794181Y-86665600D01*
X110955819Y-86665600D01*
X111112759Y-86626918D01*
X111255881Y-86551802D01*
X111376868Y-86444616D01*
X111468689Y-86311592D01*
X111526006Y-86160459D01*
X111545489Y-86000000D01*
X111526006Y-85839541D01*
X111468689Y-85688408D01*
X111468687Y-85688406D01*
X111468687Y-85688404D01*
X111468686Y-85688403D01*
X111376871Y-85555388D01*
X111376867Y-85555383D01*
X111327437Y-85511592D01*
X111255881Y-85448198D01*
X111112759Y-85373082D01*
X111112758Y-85373081D01*
X111112757Y-85373081D01*
X110955819Y-85334400D01*
X110794181Y-85334400D01*
X110637242Y-85373081D01*
X110494120Y-85448197D01*
X110373132Y-85555383D01*
X110373128Y-85555388D01*
X110281313Y-85688403D01*
X110281312Y-85688404D01*
X110223994Y-85839540D01*
X110204511Y-85999999D01*
X84062419Y-85999999D01*
X83750011Y-85687591D01*
X83750006Y-85687587D01*
X83685695Y-85644617D01*
X83685693Y-85644614D01*
X83647235Y-85618918D01*
X83647228Y-85618914D01*
X83613785Y-85605062D01*
X83533035Y-85571614D01*
X83533027Y-85571612D01*
X83411807Y-85547500D01*
X83411803Y-85547500D01*
X38861803Y-85547500D01*
X38738197Y-85547500D01*
X38738192Y-85547500D01*
X38616973Y-85571611D01*
X38616973Y-85571612D01*
X38616970Y-85571613D01*
X38616966Y-85571614D01*
X38550070Y-85599323D01*
X38550068Y-85599323D01*
X38502769Y-85618915D01*
X38502764Y-85618918D01*
X38464305Y-85644616D01*
X38464305Y-85644617D01*
X38399989Y-85687590D01*
X38399988Y-85687591D01*
X36076400Y-88011181D01*
X36049992Y-88037589D01*
X36015969Y-88071612D01*
X35962586Y-88124994D01*
X35962585Y-88124996D01*
X35893233Y-88228789D01*
X35891586Y-88233393D01*
X35846615Y-88341962D01*
X35846612Y-88341972D01*
X35839492Y-88377768D01*
X35822500Y-88463192D01*
X35822500Y-90068851D01*
X35815820Y-90109002D01*
X35658475Y-90568753D01*
X35647643Y-90604712D01*
X35647643Y-90604713D01*
X35647424Y-90606656D01*
X35642142Y-90631029D01*
X35620486Y-90697680D01*
X35601954Y-90874000D01*
X27500500Y-90874000D01*
X27500500Y-85199999D01*
X104704511Y-85199999D01*
X104704511Y-85200000D01*
X104723994Y-85360459D01*
X104781312Y-85511595D01*
X104781313Y-85511596D01*
X104873128Y-85644611D01*
X104873132Y-85644616D01*
X104994119Y-85751802D01*
X105137241Y-85826918D01*
X105294181Y-85865600D01*
X105455819Y-85865600D01*
X105612759Y-85826918D01*
X105755881Y-85751802D01*
X105876868Y-85644616D01*
X105968689Y-85511592D01*
X106026006Y-85360459D01*
X106045489Y-85200000D01*
X106026006Y-85039541D01*
X105968689Y-84888408D01*
X105968687Y-84888406D01*
X105968687Y-84888404D01*
X105968686Y-84888403D01*
X105876871Y-84755388D01*
X105876867Y-84755383D01*
X105861288Y-84741582D01*
X105755881Y-84648198D01*
X105612759Y-84573082D01*
X105612758Y-84573081D01*
X105612757Y-84573081D01*
X105455819Y-84534400D01*
X105294181Y-84534400D01*
X105137242Y-84573081D01*
X104994120Y-84648197D01*
X104873132Y-84755383D01*
X104873128Y-84755388D01*
X104781313Y-84888403D01*
X104781312Y-84888404D01*
X104723994Y-85039540D01*
X104704511Y-85199999D01*
X27500500Y-85199999D01*
X27500500Y-68416721D01*
X29569500Y-68416721D01*
X29569500Y-68583278D01*
X29601990Y-68746615D01*
X29601992Y-68746623D01*
X29665728Y-68900495D01*
X29665728Y-68900496D01*
X29758255Y-69038973D01*
X29758261Y-69038980D01*
X29876019Y-69156738D01*
X29876026Y-69156744D01*
X30014504Y-69249271D01*
X30014505Y-69249271D01*
X30014506Y-69249272D01*
X30168377Y-69313008D01*
X30331721Y-69345499D01*
X30331725Y-69345500D01*
X30331726Y-69345500D01*
X30498275Y-69345500D01*
X30498276Y-69345499D01*
X30661623Y-69313008D01*
X30815494Y-69249272D01*
X30815495Y-69249271D01*
X30815496Y-69249271D01*
X30884734Y-69203007D01*
X30953975Y-69156743D01*
X31071743Y-69038975D01*
X31164272Y-68900494D01*
X31228008Y-68746623D01*
X31260500Y-68583274D01*
X31260500Y-68416726D01*
X31260499Y-68416721D01*
X50529500Y-68416721D01*
X50529500Y-68583278D01*
X50561990Y-68746615D01*
X50561992Y-68746623D01*
X50625728Y-68900495D01*
X50625728Y-68900496D01*
X50718255Y-69038973D01*
X50718261Y-69038980D01*
X50836019Y-69156738D01*
X50836026Y-69156744D01*
X50974504Y-69249271D01*
X50974505Y-69249271D01*
X50974506Y-69249272D01*
X51128377Y-69313008D01*
X51291721Y-69345499D01*
X51291725Y-69345500D01*
X51291726Y-69345500D01*
X51458275Y-69345500D01*
X51458276Y-69345499D01*
X51621623Y-69313008D01*
X51775494Y-69249272D01*
X51775495Y-69249271D01*
X51775496Y-69249271D01*
X51844734Y-69203007D01*
X51913975Y-69156743D01*
X52031743Y-69038975D01*
X52124272Y-68900494D01*
X52188008Y-68746623D01*
X52220500Y-68583274D01*
X52220500Y-68416726D01*
X52220499Y-68416721D01*
X129569500Y-68416721D01*
X129569500Y-68583278D01*
X129601990Y-68746615D01*
X129601992Y-68746623D01*
X129665728Y-68900495D01*
X129665728Y-68900496D01*
X129758255Y-69038973D01*
X129758261Y-69038980D01*
X129876019Y-69156738D01*
X129876026Y-69156744D01*
X130014504Y-69249271D01*
X130014505Y-69249271D01*
X130014506Y-69249272D01*
X130168377Y-69313008D01*
X130331721Y-69345499D01*
X130331725Y-69345500D01*
X130331726Y-69345500D01*
X130498275Y-69345500D01*
X130498276Y-69345499D01*
X130661623Y-69313008D01*
X130815494Y-69249272D01*
X130815495Y-69249271D01*
X130815496Y-69249271D01*
X130884734Y-69203007D01*
X130953975Y-69156743D01*
X131071743Y-69038975D01*
X131164272Y-68900494D01*
X131228008Y-68746623D01*
X131260500Y-68583274D01*
X131260500Y-68416726D01*
X131260499Y-68416721D01*
X150529500Y-68416721D01*
X150529500Y-68583278D01*
X150561990Y-68746615D01*
X150561992Y-68746623D01*
X150625728Y-68900495D01*
X150625728Y-68900496D01*
X150718255Y-69038973D01*
X150718261Y-69038980D01*
X150836019Y-69156738D01*
X150836026Y-69156744D01*
X150974504Y-69249271D01*
X150974505Y-69249271D01*
X150974506Y-69249272D01*
X151128377Y-69313008D01*
X151291721Y-69345499D01*
X151291725Y-69345500D01*
X151291726Y-69345500D01*
X151458275Y-69345500D01*
X151458276Y-69345499D01*
X151621623Y-69313008D01*
X151775494Y-69249272D01*
X151775495Y-69249271D01*
X151775496Y-69249271D01*
X151844734Y-69203007D01*
X151913975Y-69156743D01*
X152031743Y-69038975D01*
X152124272Y-68900494D01*
X152188008Y-68746623D01*
X152220500Y-68583274D01*
X152220500Y-68416726D01*
X152188008Y-68253377D01*
X152124272Y-68099506D01*
X152124271Y-68099504D01*
X152124271Y-68099503D01*
X152031744Y-67961026D01*
X152031738Y-67961019D01*
X151913980Y-67843261D01*
X151913973Y-67843255D01*
X151775495Y-67750728D01*
X151621623Y-67686992D01*
X151621615Y-67686990D01*
X151458278Y-67654500D01*
X151458274Y-67654500D01*
X151291726Y-67654500D01*
X151291721Y-67654500D01*
X151128384Y-67686990D01*
X151128376Y-67686992D01*
X150974504Y-67750728D01*
X150974503Y-67750728D01*
X150836026Y-67843255D01*
X150836019Y-67843261D01*
X150718261Y-67961019D01*
X150718255Y-67961026D01*
X150625728Y-68099503D01*
X150625728Y-68099504D01*
X150561992Y-68253376D01*
X150561990Y-68253384D01*
X150529500Y-68416721D01*
X131260499Y-68416721D01*
X131228008Y-68253377D01*
X131164272Y-68099506D01*
X131164271Y-68099504D01*
X131164271Y-68099503D01*
X131071744Y-67961026D01*
X131071738Y-67961019D01*
X130953980Y-67843261D01*
X130953973Y-67843255D01*
X130815495Y-67750728D01*
X130661623Y-67686992D01*
X130661615Y-67686990D01*
X130498278Y-67654500D01*
X130498274Y-67654500D01*
X130331726Y-67654500D01*
X130331721Y-67654500D01*
X130168384Y-67686990D01*
X130168376Y-67686992D01*
X130014504Y-67750728D01*
X130014503Y-67750728D01*
X129876026Y-67843255D01*
X129876019Y-67843261D01*
X129758261Y-67961019D01*
X129758255Y-67961026D01*
X129665728Y-68099503D01*
X129665728Y-68099504D01*
X129601992Y-68253376D01*
X129601990Y-68253384D01*
X129569500Y-68416721D01*
X52220499Y-68416721D01*
X52188008Y-68253377D01*
X52124272Y-68099506D01*
X52124271Y-68099504D01*
X52124271Y-68099503D01*
X52031744Y-67961026D01*
X52031738Y-67961019D01*
X51913980Y-67843261D01*
X51913973Y-67843255D01*
X51775495Y-67750728D01*
X51621623Y-67686992D01*
X51621615Y-67686990D01*
X51458278Y-67654500D01*
X51458274Y-67654500D01*
X51291726Y-67654500D01*
X51291721Y-67654500D01*
X51128384Y-67686990D01*
X51128376Y-67686992D01*
X50974504Y-67750728D01*
X50974503Y-67750728D01*
X50836026Y-67843255D01*
X50836019Y-67843261D01*
X50718261Y-67961019D01*
X50718255Y-67961026D01*
X50625728Y-68099503D01*
X50625728Y-68099504D01*
X50561992Y-68253376D01*
X50561990Y-68253384D01*
X50529500Y-68416721D01*
X31260499Y-68416721D01*
X31228008Y-68253377D01*
X31164272Y-68099506D01*
X31164271Y-68099504D01*
X31164271Y-68099503D01*
X31071744Y-67961026D01*
X31071738Y-67961019D01*
X30953980Y-67843261D01*
X30953973Y-67843255D01*
X30815495Y-67750728D01*
X30661623Y-67686992D01*
X30661615Y-67686990D01*
X30498278Y-67654500D01*
X30498274Y-67654500D01*
X30331726Y-67654500D01*
X30331721Y-67654500D01*
X30168384Y-67686990D01*
X30168376Y-67686992D01*
X30014504Y-67750728D01*
X30014503Y-67750728D01*
X29876026Y-67843255D01*
X29876019Y-67843261D01*
X29758261Y-67961019D01*
X29758255Y-67961026D01*
X29665728Y-68099503D01*
X29665728Y-68099504D01*
X29601992Y-68253376D01*
X29601990Y-68253384D01*
X29569500Y-68416721D01*
X27500500Y-68416721D01*
X27500500Y-53499999D01*
X72444511Y-53499999D01*
X72444511Y-53500000D01*
X72463994Y-53660459D01*
X72521312Y-53811595D01*
X72521313Y-53811596D01*
X72613128Y-53944611D01*
X72613130Y-53944613D01*
X72613132Y-53944616D01*
X72734119Y-54051802D01*
X72877241Y-54126918D01*
X73034181Y-54165600D01*
X73195819Y-54165600D01*
X73352759Y-54126918D01*
X73495881Y-54051802D01*
X73616868Y-53944616D01*
X73647451Y-53900310D01*
X73652951Y-53892342D01*
X73707234Y-53848352D01*
X73776682Y-53840693D01*
X73839247Y-53871797D01*
X73857049Y-53892342D01*
X73893128Y-53944611D01*
X73893130Y-53944613D01*
X73893132Y-53944616D01*
X74014119Y-54051802D01*
X74157241Y-54126918D01*
X74314181Y-54165600D01*
X74475819Y-54165600D01*
X74632759Y-54126918D01*
X74775881Y-54051802D01*
X74896868Y-53944616D01*
X74922950Y-53906829D01*
X74977233Y-53862839D01*
X75046682Y-53855180D01*
X75109247Y-53886284D01*
X75127049Y-53906829D01*
X75153132Y-53944616D01*
X75274119Y-54051802D01*
X75417241Y-54126918D01*
X75574181Y-54165600D01*
X75735819Y-54165600D01*
X75892759Y-54126918D01*
X76035881Y-54051802D01*
X76156868Y-53944616D01*
X76187950Y-53899585D01*
X76242233Y-53855596D01*
X76311682Y-53847936D01*
X76374246Y-53879040D01*
X76392048Y-53899583D01*
X76423132Y-53944616D01*
X76544119Y-54051802D01*
X76687241Y-54126918D01*
X76844181Y-54165600D01*
X77005819Y-54165600D01*
X77162759Y-54126918D01*
X77305881Y-54051802D01*
X77426868Y-53944616D01*
X77518689Y-53811592D01*
X77576006Y-53660459D01*
X77595489Y-53500000D01*
X77595489Y-53499999D01*
X78794511Y-53499999D01*
X78794511Y-53500000D01*
X78813994Y-53660459D01*
X78871312Y-53811595D01*
X78871313Y-53811596D01*
X78963128Y-53944611D01*
X78963130Y-53944613D01*
X78963132Y-53944616D01*
X79084119Y-54051802D01*
X79227241Y-54126918D01*
X79384181Y-54165600D01*
X79545819Y-54165600D01*
X79702759Y-54126918D01*
X79845881Y-54051802D01*
X79966868Y-53944616D01*
X79997950Y-53899585D01*
X80052233Y-53855596D01*
X80121682Y-53847936D01*
X80184246Y-53879040D01*
X80202048Y-53899583D01*
X80233132Y-53944616D01*
X80354119Y-54051802D01*
X80497241Y-54126918D01*
X80654181Y-54165600D01*
X80815819Y-54165600D01*
X80972759Y-54126918D01*
X81115881Y-54051802D01*
X81236868Y-53944616D01*
X81268451Y-53898859D01*
X81322733Y-53854871D01*
X81392182Y-53847212D01*
X81454747Y-53878316D01*
X81472546Y-53898856D01*
X81504132Y-53944616D01*
X81625119Y-54051802D01*
X81768241Y-54126918D01*
X81925181Y-54165600D01*
X82086819Y-54165600D01*
X82243759Y-54126918D01*
X82386881Y-54051802D01*
X82507868Y-53944616D01*
X82538451Y-53900310D01*
X82592734Y-53856320D01*
X82662182Y-53848661D01*
X82724747Y-53879765D01*
X82742549Y-53900310D01*
X82773128Y-53944611D01*
X82773130Y-53944613D01*
X82773132Y-53944616D01*
X82894119Y-54051802D01*
X83037241Y-54126918D01*
X83194181Y-54165600D01*
X83355819Y-54165600D01*
X83512759Y-54126918D01*
X83655881Y-54051802D01*
X83776868Y-53944616D01*
X83868689Y-53811592D01*
X83926006Y-53660459D01*
X83945489Y-53500000D01*
X83945489Y-53499999D01*
X85144511Y-53499999D01*
X85144511Y-53500000D01*
X85163994Y-53660459D01*
X85221312Y-53811595D01*
X85221313Y-53811596D01*
X85313128Y-53944611D01*
X85313130Y-53944613D01*
X85313132Y-53944616D01*
X85434119Y-54051802D01*
X85577241Y-54126918D01*
X85734181Y-54165600D01*
X85895819Y-54165600D01*
X86052759Y-54126918D01*
X86195881Y-54051802D01*
X86316868Y-53944616D01*
X86347950Y-53899585D01*
X86402233Y-53855596D01*
X86471682Y-53847936D01*
X86534246Y-53879040D01*
X86552048Y-53899583D01*
X86583132Y-53944616D01*
X86704119Y-54051802D01*
X86847241Y-54126918D01*
X87004181Y-54165600D01*
X87165819Y-54165600D01*
X87322759Y-54126918D01*
X87465881Y-54051802D01*
X87586868Y-53944616D01*
X87607951Y-53914073D01*
X87662234Y-53870083D01*
X87731682Y-53862424D01*
X87794247Y-53893528D01*
X87812049Y-53914073D01*
X87833128Y-53944611D01*
X87833130Y-53944613D01*
X87833132Y-53944616D01*
X87954119Y-54051802D01*
X88097241Y-54126918D01*
X88254181Y-54165600D01*
X88415819Y-54165600D01*
X88572759Y-54126918D01*
X88715881Y-54051802D01*
X88836868Y-53944616D01*
X88877951Y-53885096D01*
X88932233Y-53841108D01*
X89001682Y-53833449D01*
X89064247Y-53864553D01*
X89082045Y-53885093D01*
X89123132Y-53944616D01*
X89244119Y-54051802D01*
X89387241Y-54126918D01*
X89544181Y-54165600D01*
X89705819Y-54165600D01*
X89862759Y-54126918D01*
X90005881Y-54051802D01*
X90126868Y-53944616D01*
X90218689Y-53811592D01*
X90276006Y-53660459D01*
X90295489Y-53500000D01*
X90295489Y-53499999D01*
X91494511Y-53499999D01*
X91494511Y-53500000D01*
X91513994Y-53660459D01*
X91571312Y-53811595D01*
X91571313Y-53811596D01*
X91663128Y-53944611D01*
X91663130Y-53944613D01*
X91663132Y-53944616D01*
X91784119Y-54051802D01*
X91927241Y-54126918D01*
X92084181Y-54165600D01*
X92245819Y-54165600D01*
X92402759Y-54126918D01*
X92545881Y-54051802D01*
X92666868Y-53944616D01*
X92697451Y-53900310D01*
X92702951Y-53892342D01*
X92757234Y-53848352D01*
X92826682Y-53840693D01*
X92889247Y-53871797D01*
X92907049Y-53892342D01*
X92943128Y-53944611D01*
X92943130Y-53944613D01*
X92943132Y-53944616D01*
X93064119Y-54051802D01*
X93207241Y-54126918D01*
X93364181Y-54165600D01*
X93525819Y-54165600D01*
X93682759Y-54126918D01*
X93825881Y-54051802D01*
X93946868Y-53944616D01*
X93972950Y-53906829D01*
X94027233Y-53862839D01*
X94096682Y-53855180D01*
X94159247Y-53886284D01*
X94177049Y-53906829D01*
X94203132Y-53944616D01*
X94324119Y-54051802D01*
X94467241Y-54126918D01*
X94624181Y-54165600D01*
X94785819Y-54165600D01*
X94942759Y-54126918D01*
X95085881Y-54051802D01*
X95206868Y-53944616D01*
X95237950Y-53899585D01*
X95292233Y-53855596D01*
X95361682Y-53847936D01*
X95424246Y-53879040D01*
X95442048Y-53899583D01*
X95473132Y-53944616D01*
X95594119Y-54051802D01*
X95737241Y-54126918D01*
X95894181Y-54165600D01*
X96055819Y-54165600D01*
X96212759Y-54126918D01*
X96355881Y-54051802D01*
X96476868Y-53944616D01*
X96568689Y-53811592D01*
X96626006Y-53660459D01*
X96645489Y-53500000D01*
X96645489Y-53499999D01*
X97844511Y-53499999D01*
X97844511Y-53500000D01*
X97863994Y-53660459D01*
X97921312Y-53811595D01*
X97921313Y-53811596D01*
X98013128Y-53944611D01*
X98013130Y-53944613D01*
X98013132Y-53944616D01*
X98134119Y-54051802D01*
X98277241Y-54126918D01*
X98434181Y-54165600D01*
X98595819Y-54165600D01*
X98752759Y-54126918D01*
X98895881Y-54051802D01*
X99016868Y-53944616D01*
X99047950Y-53899585D01*
X99102233Y-53855596D01*
X99171682Y-53847936D01*
X99234246Y-53879040D01*
X99252048Y-53899583D01*
X99283132Y-53944616D01*
X99404119Y-54051802D01*
X99547241Y-54126918D01*
X99704181Y-54165600D01*
X99865819Y-54165600D01*
X100022759Y-54126918D01*
X100165881Y-54051802D01*
X100286868Y-53944616D01*
X100318451Y-53898859D01*
X100372733Y-53854871D01*
X100442182Y-53847212D01*
X100504747Y-53878316D01*
X100522546Y-53898856D01*
X100554132Y-53944616D01*
X100675119Y-54051802D01*
X100818241Y-54126918D01*
X100975181Y-54165600D01*
X101136819Y-54165600D01*
X101293759Y-54126918D01*
X101436881Y-54051802D01*
X101557868Y-53944616D01*
X101588451Y-53900310D01*
X101642734Y-53856320D01*
X101712182Y-53848661D01*
X101774747Y-53879765D01*
X101792549Y-53900310D01*
X101823128Y-53944611D01*
X101823130Y-53944613D01*
X101823132Y-53944616D01*
X101944119Y-54051802D01*
X102087241Y-54126918D01*
X102244181Y-54165600D01*
X102405819Y-54165600D01*
X102562759Y-54126918D01*
X102705881Y-54051802D01*
X102826868Y-53944616D01*
X102918689Y-53811592D01*
X102976006Y-53660459D01*
X102995489Y-53500000D01*
X102995489Y-53499999D01*
X104194511Y-53499999D01*
X104194511Y-53500000D01*
X104213994Y-53660459D01*
X104271312Y-53811595D01*
X104271313Y-53811596D01*
X104363128Y-53944611D01*
X104363130Y-53944613D01*
X104363132Y-53944616D01*
X104484119Y-54051802D01*
X104627241Y-54126918D01*
X104784181Y-54165600D01*
X104945819Y-54165600D01*
X105102759Y-54126918D01*
X105245881Y-54051802D01*
X105366868Y-53944616D01*
X105397950Y-53899585D01*
X105452233Y-53855596D01*
X105521682Y-53847936D01*
X105584246Y-53879040D01*
X105602048Y-53899583D01*
X105633132Y-53944616D01*
X105754119Y-54051802D01*
X105897241Y-54126918D01*
X106054181Y-54165600D01*
X106215819Y-54165600D01*
X106372759Y-54126918D01*
X106515881Y-54051802D01*
X106636868Y-53944616D01*
X106657951Y-53914073D01*
X106712234Y-53870083D01*
X106781682Y-53862424D01*
X106844247Y-53893528D01*
X106862049Y-53914073D01*
X106883128Y-53944611D01*
X106883130Y-53944613D01*
X106883132Y-53944616D01*
X107004119Y-54051802D01*
X107147241Y-54126918D01*
X107304181Y-54165600D01*
X107465819Y-54165600D01*
X107622759Y-54126918D01*
X107765881Y-54051802D01*
X107886868Y-53944616D01*
X107927951Y-53885096D01*
X107982233Y-53841108D01*
X108051682Y-53833449D01*
X108114247Y-53864553D01*
X108132045Y-53885093D01*
X108173132Y-53944616D01*
X108294119Y-54051802D01*
X108437241Y-54126918D01*
X108594181Y-54165600D01*
X108755819Y-54165600D01*
X108912759Y-54126918D01*
X109055881Y-54051802D01*
X109176868Y-53944616D01*
X109268689Y-53811592D01*
X109326006Y-53660459D01*
X109345489Y-53500000D01*
X109326006Y-53339541D01*
X109268689Y-53188408D01*
X109268687Y-53188406D01*
X109268687Y-53188404D01*
X109268686Y-53188403D01*
X109176871Y-53055388D01*
X109176867Y-53055383D01*
X109161288Y-53041582D01*
X109055881Y-52948198D01*
X108912759Y-52873082D01*
X108912758Y-52873081D01*
X108912757Y-52873081D01*
X108755819Y-52834400D01*
X108594181Y-52834400D01*
X108437242Y-52873081D01*
X108294120Y-52948197D01*
X108173132Y-53055383D01*
X108173128Y-53055388D01*
X108132049Y-53114901D01*
X108077766Y-53158891D01*
X108008317Y-53166550D01*
X107945753Y-53135446D01*
X107927951Y-53114901D01*
X107886871Y-53055388D01*
X107886867Y-53055383D01*
X107871288Y-53041582D01*
X107765881Y-52948198D01*
X107622759Y-52873082D01*
X107622758Y-52873081D01*
X107622757Y-52873081D01*
X107465819Y-52834400D01*
X107304181Y-52834400D01*
X107147242Y-52873081D01*
X107004120Y-52948197D01*
X106883132Y-53055383D01*
X106883126Y-53055390D01*
X106862048Y-53085927D01*
X106807765Y-53129916D01*
X106738316Y-53137574D01*
X106675752Y-53106470D01*
X106657952Y-53085927D01*
X106636873Y-53055390D01*
X106636867Y-53055383D01*
X106621288Y-53041582D01*
X106515881Y-52948198D01*
X106372759Y-52873082D01*
X106372758Y-52873081D01*
X106372757Y-52873081D01*
X106215819Y-52834400D01*
X106054181Y-52834400D01*
X105897242Y-52873081D01*
X105754120Y-52948197D01*
X105633132Y-53055383D01*
X105633128Y-53055388D01*
X105602049Y-53100414D01*
X105547766Y-53144404D01*
X105478317Y-53152063D01*
X105415753Y-53120959D01*
X105397951Y-53100414D01*
X105366871Y-53055388D01*
X105366867Y-53055383D01*
X105351288Y-53041582D01*
X105245881Y-52948198D01*
X105102759Y-52873082D01*
X105102758Y-52873081D01*
X105102757Y-52873081D01*
X104945819Y-52834400D01*
X104784181Y-52834400D01*
X104627242Y-52873081D01*
X104484120Y-52948197D01*
X104363132Y-53055383D01*
X104363128Y-53055388D01*
X104271313Y-53188403D01*
X104271312Y-53188404D01*
X104213994Y-53339540D01*
X104194511Y-53499999D01*
X102995489Y-53499999D01*
X102976006Y-53339541D01*
X102918689Y-53188408D01*
X102918687Y-53188406D01*
X102918687Y-53188404D01*
X102918686Y-53188403D01*
X102826871Y-53055388D01*
X102826867Y-53055383D01*
X102811288Y-53041582D01*
X102705881Y-52948198D01*
X102562759Y-52873082D01*
X102562758Y-52873081D01*
X102562757Y-52873081D01*
X102405819Y-52834400D01*
X102244181Y-52834400D01*
X102087242Y-52873081D01*
X101944120Y-52948197D01*
X101823132Y-53055383D01*
X101823131Y-53055384D01*
X101792549Y-53099690D01*
X101738265Y-53143679D01*
X101668817Y-53151337D01*
X101606252Y-53120233D01*
X101588451Y-53099690D01*
X101557868Y-53055384D01*
X101557867Y-53055383D01*
X101542288Y-53041582D01*
X101436881Y-52948198D01*
X101293759Y-52873082D01*
X101293758Y-52873081D01*
X101293757Y-52873081D01*
X101136819Y-52834400D01*
X100975181Y-52834400D01*
X100818242Y-52873081D01*
X100675120Y-52948197D01*
X100554132Y-53055383D01*
X100554128Y-53055388D01*
X100522549Y-53101138D01*
X100468266Y-53145128D01*
X100398817Y-53152786D01*
X100336252Y-53121682D01*
X100318451Y-53101138D01*
X100286871Y-53055388D01*
X100286867Y-53055383D01*
X100271288Y-53041582D01*
X100165881Y-52948198D01*
X100022759Y-52873082D01*
X100022758Y-52873081D01*
X100022757Y-52873081D01*
X99865819Y-52834400D01*
X99704181Y-52834400D01*
X99547242Y-52873081D01*
X99404120Y-52948197D01*
X99283132Y-53055383D01*
X99283128Y-53055388D01*
X99252049Y-53100414D01*
X99197766Y-53144404D01*
X99128317Y-53152063D01*
X99065753Y-53120959D01*
X99047951Y-53100414D01*
X99016871Y-53055388D01*
X99016867Y-53055383D01*
X99001288Y-53041582D01*
X98895881Y-52948198D01*
X98752759Y-52873082D01*
X98752758Y-52873081D01*
X98752757Y-52873081D01*
X98595819Y-52834400D01*
X98434181Y-52834400D01*
X98277242Y-52873081D01*
X98134120Y-52948197D01*
X98013132Y-53055383D01*
X98013128Y-53055388D01*
X97921313Y-53188403D01*
X97921312Y-53188404D01*
X97863994Y-53339540D01*
X97844511Y-53499999D01*
X96645489Y-53499999D01*
X96626006Y-53339541D01*
X96568689Y-53188408D01*
X96568687Y-53188406D01*
X96568687Y-53188404D01*
X96568686Y-53188403D01*
X96476871Y-53055388D01*
X96476867Y-53055383D01*
X96461288Y-53041582D01*
X96355881Y-52948198D01*
X96212759Y-52873082D01*
X96212758Y-52873081D01*
X96212757Y-52873081D01*
X96055819Y-52834400D01*
X95894181Y-52834400D01*
X95737242Y-52873081D01*
X95594120Y-52948197D01*
X95473132Y-53055383D01*
X95473128Y-53055388D01*
X95442049Y-53100414D01*
X95387766Y-53144404D01*
X95318317Y-53152063D01*
X95255753Y-53120959D01*
X95237951Y-53100414D01*
X95206871Y-53055388D01*
X95206867Y-53055383D01*
X95191288Y-53041582D01*
X95085881Y-52948198D01*
X94942759Y-52873082D01*
X94942758Y-52873081D01*
X94942757Y-52873081D01*
X94785819Y-52834400D01*
X94624181Y-52834400D01*
X94467242Y-52873081D01*
X94324120Y-52948197D01*
X94203132Y-53055383D01*
X94203131Y-53055384D01*
X94177049Y-53093171D01*
X94122765Y-53137160D01*
X94053317Y-53144818D01*
X93990752Y-53113714D01*
X93972951Y-53093171D01*
X93946868Y-53055384D01*
X93946867Y-53055383D01*
X93931288Y-53041582D01*
X93825881Y-52948198D01*
X93682759Y-52873082D01*
X93682758Y-52873081D01*
X93682757Y-52873081D01*
X93525819Y-52834400D01*
X93364181Y-52834400D01*
X93207242Y-52873081D01*
X93064120Y-52948197D01*
X92943132Y-53055383D01*
X92943131Y-53055384D01*
X92907049Y-53107658D01*
X92852765Y-53151647D01*
X92783317Y-53159305D01*
X92720752Y-53128201D01*
X92702951Y-53107658D01*
X92666868Y-53055384D01*
X92666867Y-53055383D01*
X92651288Y-53041582D01*
X92545881Y-52948198D01*
X92402759Y-52873082D01*
X92402758Y-52873081D01*
X92402757Y-52873081D01*
X92245819Y-52834400D01*
X92084181Y-52834400D01*
X91927242Y-52873081D01*
X91784120Y-52948197D01*
X91663132Y-53055383D01*
X91663128Y-53055388D01*
X91571313Y-53188403D01*
X91571312Y-53188404D01*
X91513994Y-53339540D01*
X91494511Y-53499999D01*
X90295489Y-53499999D01*
X90276006Y-53339541D01*
X90218689Y-53188408D01*
X90218687Y-53188406D01*
X90218687Y-53188404D01*
X90218686Y-53188403D01*
X90126871Y-53055388D01*
X90126867Y-53055383D01*
X90111288Y-53041582D01*
X90005881Y-52948198D01*
X89862759Y-52873082D01*
X89862758Y-52873081D01*
X89862757Y-52873081D01*
X89705819Y-52834400D01*
X89544181Y-52834400D01*
X89387242Y-52873081D01*
X89244120Y-52948197D01*
X89123132Y-53055383D01*
X89123128Y-53055388D01*
X89082049Y-53114901D01*
X89027766Y-53158891D01*
X88958317Y-53166550D01*
X88895753Y-53135446D01*
X88877951Y-53114901D01*
X88836871Y-53055388D01*
X88836867Y-53055383D01*
X88821288Y-53041582D01*
X88715881Y-52948198D01*
X88572759Y-52873082D01*
X88572758Y-52873081D01*
X88572757Y-52873081D01*
X88415819Y-52834400D01*
X88254181Y-52834400D01*
X88097242Y-52873081D01*
X87954120Y-52948197D01*
X87833132Y-53055383D01*
X87833126Y-53055390D01*
X87812048Y-53085927D01*
X87757765Y-53129916D01*
X87688316Y-53137574D01*
X87625752Y-53106470D01*
X87607952Y-53085927D01*
X87586873Y-53055390D01*
X87586867Y-53055383D01*
X87571288Y-53041582D01*
X87465881Y-52948198D01*
X87322759Y-52873082D01*
X87322758Y-52873081D01*
X87322757Y-52873081D01*
X87165819Y-52834400D01*
X87004181Y-52834400D01*
X86847242Y-52873081D01*
X86704120Y-52948197D01*
X86583132Y-53055383D01*
X86583128Y-53055388D01*
X86552049Y-53100414D01*
X86497766Y-53144404D01*
X86428317Y-53152063D01*
X86365753Y-53120959D01*
X86347951Y-53100414D01*
X86316871Y-53055388D01*
X86316867Y-53055383D01*
X86301288Y-53041582D01*
X86195881Y-52948198D01*
X86052759Y-52873082D01*
X86052758Y-52873081D01*
X86052757Y-52873081D01*
X85895819Y-52834400D01*
X85734181Y-52834400D01*
X85577242Y-52873081D01*
X85434120Y-52948197D01*
X85313132Y-53055383D01*
X85313128Y-53055388D01*
X85221313Y-53188403D01*
X85221312Y-53188404D01*
X85163994Y-53339540D01*
X85144511Y-53499999D01*
X83945489Y-53499999D01*
X83926006Y-53339541D01*
X83868689Y-53188408D01*
X83868687Y-53188406D01*
X83868687Y-53188404D01*
X83868686Y-53188403D01*
X83776871Y-53055388D01*
X83776867Y-53055383D01*
X83761288Y-53041582D01*
X83655881Y-52948198D01*
X83512759Y-52873082D01*
X83512758Y-52873081D01*
X83512757Y-52873081D01*
X83355819Y-52834400D01*
X83194181Y-52834400D01*
X83037242Y-52873081D01*
X82894120Y-52948197D01*
X82773132Y-53055383D01*
X82773131Y-53055384D01*
X82742549Y-53099690D01*
X82688265Y-53143679D01*
X82618817Y-53151337D01*
X82556252Y-53120233D01*
X82538451Y-53099690D01*
X82507868Y-53055384D01*
X82507867Y-53055383D01*
X82492288Y-53041582D01*
X82386881Y-52948198D01*
X82243759Y-52873082D01*
X82243758Y-52873081D01*
X82243757Y-52873081D01*
X82086819Y-52834400D01*
X81925181Y-52834400D01*
X81768242Y-52873081D01*
X81625120Y-52948197D01*
X81504132Y-53055383D01*
X81504128Y-53055388D01*
X81472549Y-53101138D01*
X81418266Y-53145128D01*
X81348817Y-53152786D01*
X81286252Y-53121682D01*
X81268451Y-53101138D01*
X81236871Y-53055388D01*
X81236867Y-53055383D01*
X81221288Y-53041582D01*
X81115881Y-52948198D01*
X80972759Y-52873082D01*
X80972758Y-52873081D01*
X80972757Y-52873081D01*
X80815819Y-52834400D01*
X80654181Y-52834400D01*
X80497242Y-52873081D01*
X80354120Y-52948197D01*
X80233132Y-53055383D01*
X80233128Y-53055388D01*
X80202049Y-53100414D01*
X80147766Y-53144404D01*
X80078317Y-53152063D01*
X80015753Y-53120959D01*
X79997951Y-53100414D01*
X79966871Y-53055388D01*
X79966867Y-53055383D01*
X79951288Y-53041582D01*
X79845881Y-52948198D01*
X79702759Y-52873082D01*
X79702758Y-52873081D01*
X79702757Y-52873081D01*
X79545819Y-52834400D01*
X79384181Y-52834400D01*
X79227242Y-52873081D01*
X79084120Y-52948197D01*
X78963132Y-53055383D01*
X78963128Y-53055388D01*
X78871313Y-53188403D01*
X78871312Y-53188404D01*
X78813994Y-53339540D01*
X78794511Y-53499999D01*
X77595489Y-53499999D01*
X77576006Y-53339541D01*
X77518689Y-53188408D01*
X77518687Y-53188406D01*
X77518687Y-53188404D01*
X77518686Y-53188403D01*
X77426871Y-53055388D01*
X77426867Y-53055383D01*
X77411288Y-53041582D01*
X77305881Y-52948198D01*
X77162759Y-52873082D01*
X77162758Y-52873081D01*
X77162757Y-52873081D01*
X77005819Y-52834400D01*
X76844181Y-52834400D01*
X76687242Y-52873081D01*
X76544120Y-52948197D01*
X76423132Y-53055383D01*
X76423128Y-53055388D01*
X76392049Y-53100414D01*
X76337766Y-53144404D01*
X76268317Y-53152063D01*
X76205753Y-53120959D01*
X76187951Y-53100414D01*
X76156871Y-53055388D01*
X76156867Y-53055383D01*
X76141288Y-53041582D01*
X76035881Y-52948198D01*
X75892759Y-52873082D01*
X75892758Y-52873081D01*
X75892757Y-52873081D01*
X75735819Y-52834400D01*
X75574181Y-52834400D01*
X75417242Y-52873081D01*
X75274120Y-52948197D01*
X75153132Y-53055383D01*
X75153131Y-53055384D01*
X75127049Y-53093171D01*
X75072765Y-53137160D01*
X75003317Y-53144818D01*
X74940752Y-53113714D01*
X74922951Y-53093171D01*
X74896868Y-53055384D01*
X74896867Y-53055383D01*
X74881288Y-53041582D01*
X74775881Y-52948198D01*
X74632759Y-52873082D01*
X74632758Y-52873081D01*
X74632757Y-52873081D01*
X74475819Y-52834400D01*
X74314181Y-52834400D01*
X74157242Y-52873081D01*
X74014120Y-52948197D01*
X73893132Y-53055383D01*
X73893131Y-53055384D01*
X73857049Y-53107658D01*
X73802765Y-53151647D01*
X73733317Y-53159305D01*
X73670752Y-53128201D01*
X73652951Y-53107658D01*
X73616868Y-53055384D01*
X73616867Y-53055383D01*
X73601288Y-53041582D01*
X73495881Y-52948198D01*
X73352759Y-52873082D01*
X73352758Y-52873081D01*
X73352757Y-52873081D01*
X73195819Y-52834400D01*
X73034181Y-52834400D01*
X72877242Y-52873081D01*
X72734120Y-52948197D01*
X72613132Y-53055383D01*
X72613128Y-53055388D01*
X72521313Y-53188403D01*
X72521312Y-53188404D01*
X72463994Y-53339540D01*
X72444511Y-53499999D01*
X27500500Y-53499999D01*
X27500500Y-49304603D01*
X69294499Y-49304603D01*
X69331410Y-49490161D01*
X69331413Y-49490171D01*
X69403814Y-49664965D01*
X69403816Y-49664968D01*
X69508927Y-49822278D01*
X69508933Y-49822286D01*
X69642713Y-49956066D01*
X69642721Y-49956072D01*
X69800031Y-50061183D01*
X69800034Y-50061185D01*
X69974828Y-50133586D01*
X69974833Y-50133588D01*
X69974837Y-50133588D01*
X69974838Y-50133589D01*
X70160396Y-50170500D01*
X70160399Y-50170500D01*
X70349603Y-50170500D01*
X70474442Y-50145667D01*
X70535167Y-50133588D01*
X70709967Y-50061184D01*
X70867283Y-49956069D01*
X71001069Y-49822283D01*
X71106184Y-49664967D01*
X71178588Y-49490167D01*
X71215500Y-49304603D01*
X122004499Y-49304603D01*
X122041410Y-49490161D01*
X122041413Y-49490171D01*
X122113814Y-49664965D01*
X122113816Y-49664968D01*
X122218927Y-49822278D01*
X122218933Y-49822286D01*
X122352713Y-49956066D01*
X122352721Y-49956072D01*
X122510031Y-50061183D01*
X122510034Y-50061185D01*
X122684828Y-50133586D01*
X122684833Y-50133588D01*
X122684837Y-50133588D01*
X122684838Y-50133589D01*
X122870396Y-50170500D01*
X122870399Y-50170500D01*
X123059603Y-50170500D01*
X123184442Y-50145667D01*
X123245167Y-50133588D01*
X123419967Y-50061184D01*
X123577283Y-49956069D01*
X123711069Y-49822283D01*
X123816184Y-49664967D01*
X123888588Y-49490167D01*
X123925500Y-49304601D01*
X123925500Y-49115399D01*
X123925500Y-49115396D01*
X123888589Y-48929838D01*
X123888588Y-48929837D01*
X123888588Y-48929833D01*
X123866673Y-48876924D01*
X123816185Y-48755034D01*
X123816183Y-48755031D01*
X123711072Y-48597721D01*
X123711066Y-48597713D01*
X123577286Y-48463933D01*
X123577278Y-48463927D01*
X123419968Y-48358816D01*
X123419965Y-48358814D01*
X123245171Y-48286413D01*
X123245161Y-48286410D01*
X123059603Y-48249500D01*
X123059601Y-48249500D01*
X122870399Y-48249500D01*
X122870397Y-48249500D01*
X122684838Y-48286410D01*
X122684828Y-48286413D01*
X122510034Y-48358814D01*
X122510031Y-48358816D01*
X122352721Y-48463927D01*
X122352713Y-48463933D01*
X122218933Y-48597713D01*
X122218927Y-48597721D01*
X122113816Y-48755031D01*
X122113814Y-48755034D01*
X122041413Y-48929828D01*
X122041410Y-48929838D01*
X122004500Y-49115396D01*
X122004500Y-49115399D01*
X122004500Y-49304601D01*
X122004500Y-49304603D01*
X122004499Y-49304603D01*
X71215500Y-49304603D01*
X71215500Y-49304601D01*
X71215500Y-49115399D01*
X71215500Y-49115396D01*
X71178589Y-48929838D01*
X71178588Y-48929837D01*
X71178588Y-48929833D01*
X71156673Y-48876924D01*
X71106185Y-48755034D01*
X71106183Y-48755031D01*
X71001072Y-48597721D01*
X71001066Y-48597713D01*
X70867286Y-48463933D01*
X70867278Y-48463927D01*
X70709968Y-48358816D01*
X70709965Y-48358814D01*
X70535171Y-48286413D01*
X70535161Y-48286410D01*
X70349603Y-48249500D01*
X70349601Y-48249500D01*
X70160399Y-48249500D01*
X70160397Y-48249500D01*
X69974838Y-48286410D01*
X69974828Y-48286413D01*
X69800034Y-48358814D01*
X69800031Y-48358816D01*
X69642721Y-48463927D01*
X69642713Y-48463933D01*
X69508933Y-48597713D01*
X69508927Y-48597721D01*
X69403816Y-48755031D01*
X69403814Y-48755034D01*
X69331413Y-48929828D01*
X69331410Y-48929838D01*
X69294500Y-49115396D01*
X69294500Y-49115399D01*
X69294500Y-49304601D01*
X69294500Y-49304603D01*
X69294499Y-49304603D01*
X27500500Y-49304603D01*
X27500500Y-47078872D01*
X47139500Y-47078872D01*
X47139500Y-47341127D01*
X47166123Y-47543339D01*
X47173730Y-47601116D01*
X47241602Y-47854418D01*
X47241605Y-47854428D01*
X47341953Y-48096690D01*
X47341958Y-48096700D01*
X47473075Y-48323803D01*
X47632718Y-48531851D01*
X47632726Y-48531860D01*
X47818140Y-48717274D01*
X47818148Y-48717281D01*
X48026196Y-48876924D01*
X48253299Y-49008041D01*
X48253309Y-49008046D01*
X48495571Y-49108394D01*
X48495581Y-49108398D01*
X48748884Y-49176270D01*
X49008880Y-49210500D01*
X49008887Y-49210500D01*
X49271113Y-49210500D01*
X49271120Y-49210500D01*
X49531116Y-49176270D01*
X49784419Y-49108398D01*
X50026697Y-49008043D01*
X50253803Y-48876924D01*
X50461851Y-48717282D01*
X50461855Y-48717277D01*
X50461860Y-48717274D01*
X50647274Y-48531860D01*
X50647277Y-48531855D01*
X50647282Y-48531851D01*
X50806924Y-48323803D01*
X50938043Y-48096697D01*
X51038398Y-47854419D01*
X51106270Y-47601116D01*
X51140500Y-47341120D01*
X51140500Y-47078880D01*
X51140499Y-47078872D01*
X143139500Y-47078872D01*
X143139500Y-47341127D01*
X143166123Y-47543339D01*
X143173730Y-47601116D01*
X143241602Y-47854418D01*
X143241605Y-47854428D01*
X143341953Y-48096690D01*
X143341958Y-48096700D01*
X143473075Y-48323803D01*
X143632718Y-48531851D01*
X143632726Y-48531860D01*
X143818140Y-48717274D01*
X143818148Y-48717281D01*
X144026196Y-48876924D01*
X144253299Y-49008041D01*
X144253309Y-49008046D01*
X144495571Y-49108394D01*
X144495581Y-49108398D01*
X144748884Y-49176270D01*
X145008880Y-49210500D01*
X145008887Y-49210500D01*
X145271113Y-49210500D01*
X145271120Y-49210500D01*
X145531116Y-49176270D01*
X145784419Y-49108398D01*
X146026697Y-49008043D01*
X146253803Y-48876924D01*
X146461851Y-48717282D01*
X146461855Y-48717277D01*
X146461860Y-48717274D01*
X146647274Y-48531860D01*
X146647277Y-48531855D01*
X146647282Y-48531851D01*
X146806924Y-48323803D01*
X146938043Y-48096697D01*
X147038398Y-47854419D01*
X147106270Y-47601116D01*
X147140500Y-47341120D01*
X147140500Y-47078880D01*
X147106270Y-46818884D01*
X147038398Y-46565581D01*
X147038394Y-46565571D01*
X146938046Y-46323309D01*
X146938041Y-46323299D01*
X146806924Y-46096196D01*
X146647281Y-45888148D01*
X146647274Y-45888140D01*
X146461860Y-45702726D01*
X146461851Y-45702718D01*
X146253803Y-45543075D01*
X146026700Y-45411958D01*
X146026690Y-45411953D01*
X145784428Y-45311605D01*
X145784421Y-45311603D01*
X145784419Y-45311602D01*
X145531116Y-45243730D01*
X145473339Y-45236123D01*
X145271127Y-45209500D01*
X145271120Y-45209500D01*
X145008880Y-45209500D01*
X145008872Y-45209500D01*
X144777772Y-45239926D01*
X144748884Y-45243730D01*
X144495581Y-45311602D01*
X144495571Y-45311605D01*
X144253309Y-45411953D01*
X144253299Y-45411958D01*
X144026196Y-45543075D01*
X143818148Y-45702718D01*
X143632718Y-45888148D01*
X143473075Y-46096196D01*
X143341958Y-46323299D01*
X143341953Y-46323309D01*
X143241605Y-46565571D01*
X143241602Y-46565581D01*
X143173730Y-46818885D01*
X143139500Y-47078872D01*
X51140499Y-47078872D01*
X51106270Y-46818884D01*
X51038398Y-46565581D01*
X51038394Y-46565571D01*
X50938046Y-46323309D01*
X50938041Y-46323299D01*
X50806924Y-46096196D01*
X50647281Y-45888148D01*
X50647274Y-45888140D01*
X50461860Y-45702726D01*
X50461851Y-45702718D01*
X50253803Y-45543075D01*
X50026700Y-45411958D01*
X50026690Y-45411953D01*
X49784428Y-45311605D01*
X49784421Y-45311603D01*
X49784419Y-45311602D01*
X49531116Y-45243730D01*
X49473339Y-45236123D01*
X49271127Y-45209500D01*
X49271120Y-45209500D01*
X49008880Y-45209500D01*
X49008872Y-45209500D01*
X48777772Y-45239926D01*
X48748884Y-45243730D01*
X48495581Y-45311602D01*
X48495571Y-45311605D01*
X48253309Y-45411953D01*
X48253299Y-45411958D01*
X48026196Y-45543075D01*
X47818148Y-45702718D01*
X47632718Y-45888148D01*
X47473075Y-46096196D01*
X47341958Y-46323299D01*
X47341953Y-46323309D01*
X47241605Y-46565571D01*
X47241602Y-46565581D01*
X47173730Y-46818885D01*
X47139500Y-47078872D01*
X27500500Y-47078872D01*
X27500500Y-45049999D01*
X119434511Y-45049999D01*
X119434511Y-45050000D01*
X119453994Y-45210459D01*
X119511312Y-45361595D01*
X119511313Y-45361596D01*
X119603128Y-45494611D01*
X119603132Y-45494616D01*
X119724119Y-45601802D01*
X119867241Y-45676918D01*
X120024181Y-45715600D01*
X120185819Y-45715600D01*
X120342759Y-45676918D01*
X120485881Y-45601802D01*
X120606868Y-45494616D01*
X120698689Y-45361592D01*
X120756006Y-45210459D01*
X120775489Y-45050000D01*
X120756006Y-44889541D01*
X120698689Y-44738408D01*
X120698687Y-44738406D01*
X120698687Y-44738404D01*
X120698686Y-44738403D01*
X120606871Y-44605388D01*
X120606867Y-44605383D01*
X120591288Y-44591582D01*
X120485881Y-44498198D01*
X120342759Y-44423082D01*
X120342758Y-44423081D01*
X120342757Y-44423081D01*
X120185819Y-44384400D01*
X120024181Y-44384400D01*
X119867242Y-44423081D01*
X119724120Y-44498197D01*
X119603132Y-44605383D01*
X119603128Y-44605388D01*
X119511313Y-44738403D01*
X119511312Y-44738404D01*
X119453994Y-44889540D01*
X119434511Y-45049999D01*
X27500500Y-45049999D01*
X27500500Y-43499500D01*
X27520185Y-43432461D01*
X27572989Y-43386706D01*
X27624500Y-43375500D01*
X155165500Y-43375500D01*
X155232539Y-43395185D01*
G37*
%TD.AperFunction*%
%TD*%
%TA.AperFunction,Conductor*%
%TO.N,/mosi*%
G36*
X98830618Y-106472967D02*
G01*
X98836618Y-106478615D01*
X99086056Y-106987621D01*
X99086620Y-106996558D01*
X99083823Y-107001043D01*
X98916043Y-107168823D01*
X98907770Y-107172250D01*
X98902621Y-107171056D01*
X98749529Y-107096033D01*
X98393615Y-106921618D01*
X98387694Y-106914900D01*
X98387942Y-106906665D01*
X98512437Y-106603807D01*
X98518750Y-106597460D01*
X98821665Y-106472943D01*
X98830618Y-106472967D01*
G37*
%TD.AperFunction*%
%TD*%
M02*
