%TF.GenerationSoftware,KiCad,Pcbnew,8.0.3-8.0.3-0~ubuntu24.04.1*%
%TF.CreationDate,2024-07-15T14:42:22+02:00*%
%TF.ProjectId,MainBoard,4d61696e-426f-4617-9264-2e6b69636164,rev?*%
%TF.SameCoordinates,Original*%
%TF.FileFunction,Copper,L4,Bot*%
%TF.FilePolarity,Positive*%
%FSLAX46Y46*%
G04 Gerber Fmt 4.6, Leading zero omitted, Abs format (unit mm)*
G04 Created by KiCad (PCBNEW 8.0.3-8.0.3-0~ubuntu24.04.1) date 2024-07-15 14:42:22*
%MOMM*%
%LPD*%
G01*
G04 APERTURE LIST*
G04 Aperture macros list*
%AMRoundRect*
0 Rectangle with rounded corners*
0 $1 Rounding radius*
0 $2 $3 $4 $5 $6 $7 $8 $9 X,Y pos of 4 corners*
0 Add a 4 corners polygon primitive as box body*
4,1,4,$2,$3,$4,$5,$6,$7,$8,$9,$2,$3,0*
0 Add four circle primitives for the rounded corners*
1,1,$1+$1,$2,$3*
1,1,$1+$1,$4,$5*
1,1,$1+$1,$6,$7*
1,1,$1+$1,$8,$9*
0 Add four rect primitives between the rounded corners*
20,1,$1+$1,$2,$3,$4,$5,0*
20,1,$1+$1,$4,$5,$6,$7,0*
20,1,$1+$1,$6,$7,$8,$9,0*
20,1,$1+$1,$8,$9,$2,$3,0*%
G04 Aperture macros list end*
%TA.AperFunction,SMDPad,CuDef*%
%ADD10R,1.473200X0.355600*%
%TD*%
%TA.AperFunction,SMDPad,CuDef*%
%ADD11RoundRect,0.150000X0.512500X0.150000X-0.512500X0.150000X-0.512500X-0.150000X0.512500X-0.150000X0*%
%TD*%
%TA.AperFunction,SMDPad,CuDef*%
%ADD12R,0.740000X2.790000*%
%TD*%
%TA.AperFunction,SMDPad,CuDef*%
%ADD13RoundRect,0.225000X0.250000X-0.225000X0.250000X0.225000X-0.250000X0.225000X-0.250000X-0.225000X0*%
%TD*%
%TA.AperFunction,ViaPad*%
%ADD14C,0.685800*%
%TD*%
%TA.AperFunction,Conductor*%
%ADD15C,0.254000*%
%TD*%
%TA.AperFunction,Conductor*%
%ADD16C,0.290000*%
%TD*%
G04 APERTURE END LIST*
D10*
%TO.P,U2,1,2Y1*%
%TO.N,+3V3*%
X112270200Y-88224600D03*
%TO.P,U2,2,2Y0*%
%TO.N,GND*%
X112270200Y-88885000D03*
%TO.P,U2,3,3Y1*%
%TO.N,+3V3*%
X112270200Y-89545400D03*
%TO.P,U2,4,3Z*%
%TO.N,/vddpix_0*%
X112270200Y-90180400D03*
%TO.P,U2,5,3Y0*%
%TO.N,GND*%
X112270200Y-90840800D03*
%TO.P,U2,6,~{E}*%
%TO.N,/sw_~{E}_0*%
X112270200Y-91475800D03*
%TO.P,U2,7,NC*%
%TO.N,unconnected-(U2-NC-Pad7)*%
X112270200Y-92136200D03*
%TO.P,U2,8,GND*%
%TO.N,GND*%
X112270200Y-92796600D03*
%TO.P,U2,9,3S*%
%TO.N,/vddpix_toggle_0*%
X106529800Y-92796600D03*
%TO.P,U2,10,2S*%
%TO.N,/vdd33_toggle_0*%
X106529800Y-92136200D03*
%TO.P,U2,11,1S*%
%TO.N,/vdd18_toggle_0*%
X106529800Y-91475800D03*
%TO.P,U2,12,1Y0*%
%TO.N,GND*%
X106529800Y-90840800D03*
%TO.P,U2,13,1Y1*%
%TO.N,+1V8*%
X106529800Y-90180400D03*
%TO.P,U2,14,1Z*%
%TO.N,/vdd18_0*%
X106529800Y-89545400D03*
%TO.P,U2,15,2Z*%
%TO.N,/vdd33_0*%
X106529800Y-88885000D03*
%TO.P,U2,16,VCC*%
%TO.N,+3V3*%
X106529800Y-88224600D03*
%TD*%
D11*
%TO.P,U4,1,VIN*%
%TO.N,+3V3*%
X97926500Y-89637500D03*
%TO.P,U4,2,GND*%
%TO.N,GND*%
X97926500Y-90587500D03*
%TO.P,U4,3,EN*%
%TO.N,+3V3*%
X97926500Y-91537500D03*
%TO.P,U4,4,NC*%
%TO.N,unconnected-(U4-NC-Pad4)*%
X95651500Y-91537500D03*
%TO.P,U4,5,VOUT*%
%TO.N,+1V8*%
X95651500Y-89637500D03*
%TD*%
D12*
%TO.P,J1,1,Pin_1*%
%TO.N,unconnected-(J1-Pin_1-Pad1)*%
X121375000Y-100495000D03*
%TO.P,J1,2,Pin_2*%
%TO.N,GND*%
X121375000Y-103925000D03*
%TO.P,J1,3,Pin_3*%
%TO.N,+3V3*%
X120105000Y-100495000D03*
%TO.P,J1,4,Pin_4*%
%TO.N,GND*%
X120105000Y-103925000D03*
%TO.P,J1,5,Pin_5*%
%TO.N,unconnected-(J1-Pin_5-Pad5)*%
X118835000Y-100495000D03*
%TO.P,J1,6,Pin_6*%
%TO.N,unconnected-(J1-Pin_6-Pad6)*%
X118835000Y-103925000D03*
%TO.P,J1,7,Pin_7*%
%TO.N,/monitor1_0*%
X117565000Y-100495000D03*
%TO.P,J1,8,Pin_8*%
%TO.N,unconnected-(J1-Pin_8-Pad8)*%
X117565000Y-103925000D03*
%TO.P,J1,9,Pin_9*%
%TO.N,/monitor0_0*%
X116295000Y-100495000D03*
%TO.P,J1,10,Pin_10*%
%TO.N,unconnected-(J1-Pin_10-Pad10)*%
X116295000Y-103925000D03*
%TO.P,J1,11,Pin_11*%
%TO.N,/resetn_0*%
X115025000Y-100495000D03*
%TO.P,J1,12,Pin_12*%
%TO.N,unconnected-(J1-Pin_12-Pad12)*%
X115025000Y-103925000D03*
%TO.P,J1,13,Pin_13*%
%TO.N,/trigger0_0*%
X113755000Y-100495000D03*
%TO.P,J1,14,Pin_14*%
%TO.N,unconnected-(J1-Pin_14-Pad14)*%
X113755000Y-103925000D03*
%TO.P,J1,15,Pin_15*%
%TO.N,unconnected-(J1-Pin_15-Pad15)*%
X112485000Y-100495000D03*
%TO.P,J1,16,Pin_16*%
%TO.N,/mosi*%
X112485000Y-103925000D03*
%TO.P,J1,17,Pin_17*%
%TO.N,/noip_clk_0*%
X111215000Y-100495000D03*
%TO.P,J1,18,Pin_18*%
%TO.N,unconnected-(J1-Pin_18-Pad18)*%
X111215000Y-103925000D03*
%TO.P,J1,19,Pin_19*%
%TO.N,/sw_~{E}_0*%
X109945000Y-100495000D03*
%TO.P,J1,20,Pin_20*%
%TO.N,unconnected-(J1-Pin_20-Pad20)*%
X109945000Y-103925000D03*
%TO.P,J1,21,Pin_21*%
%TO.N,/vdd18_toggle_0*%
X108675000Y-100495000D03*
%TO.P,J1,22,Pin_22*%
%TO.N,unconnected-(J1-Pin_22-Pad22)*%
X108675000Y-103925000D03*
%TO.P,J1,23,Pin_23*%
%TO.N,/vddpix_toggle_0*%
X107405000Y-100495000D03*
%TO.P,J1,24,Pin_24*%
%TO.N,GND*%
X107405000Y-103925000D03*
%TO.P,J1,25,Pin_25*%
X106135000Y-100495000D03*
%TO.P,J1,26,Pin_26*%
%TO.N,unconnected-(J1-Pin_26-Pad26)*%
X106135000Y-103925000D03*
%TO.P,J1,27,Pin_27*%
%TO.N,/vdd33_toggle_0*%
X104865000Y-100495000D03*
%TO.P,J1,28,Pin_28*%
%TO.N,/ss_0*%
X104865000Y-103925000D03*
%TO.P,J1,29,Pin_29*%
%TO.N,/vdd18_toggle_1*%
X103595000Y-100495000D03*
%TO.P,J1,30,Pin_30*%
%TO.N,unconnected-(J1-Pin_30-Pad30)*%
X103595000Y-103925000D03*
%TO.P,J1,31,Pin_31*%
%TO.N,/vdd33_toggle_1*%
X102325000Y-100495000D03*
%TO.P,J1,32,Pin_32*%
%TO.N,/sck*%
X102325000Y-103925000D03*
%TO.P,J1,33,Pin_33*%
%TO.N,/vddpix_toggle_1*%
X101055000Y-100495000D03*
%TO.P,J1,34,Pin_34*%
%TO.N,GND*%
X101055000Y-103925000D03*
%TO.P,J1,35,Pin_35*%
X99785000Y-100495000D03*
%TO.P,J1,36,Pin_36*%
%TO.N,/miso*%
X99785000Y-103925000D03*
%TO.P,J1,37,Pin_37*%
%TO.N,/sw_~{E}_1*%
X98515000Y-100495000D03*
%TO.P,J1,38,Pin_38*%
%TO.N,/mosi*%
X98515000Y-103925000D03*
%TO.P,J1,39,Pin_39*%
%TO.N,/monitor1_1*%
X97245000Y-100495000D03*
%TO.P,J1,40,Pin_40*%
%TO.N,/ss_1*%
X97245000Y-103925000D03*
%TO.P,J1,41,Pin_41*%
%TO.N,/monitor0_1*%
X95975000Y-100495000D03*
%TO.P,J1,42,Pin_42*%
%TO.N,/sck*%
X95975000Y-103925000D03*
%TO.P,J1,43,Pin_43*%
%TO.N,/resetn_1*%
X94705000Y-100495000D03*
%TO.P,J1,44,Pin_44*%
%TO.N,GND*%
X94705000Y-103925000D03*
%TO.P,J1,45,Pin_45*%
%TO.N,/trigger0_1*%
X93435000Y-100495000D03*
%TO.P,J1,46,Pin_46*%
%TO.N,unconnected-(J1-Pin_46-Pad46)*%
X93435000Y-103925000D03*
%TO.P,J1,47,Pin_47*%
%TO.N,/noip_clk_1*%
X92165000Y-100495000D03*
%TO.P,J1,48,Pin_48*%
%TO.N,unconnected-(J1-Pin_48-Pad48)*%
X92165000Y-103925000D03*
%TO.P,J1,49,Pin_49*%
%TO.N,unconnected-(J1-Pin_49-Pad49)*%
X90895000Y-100495000D03*
%TO.P,J1,50,Pin_50*%
%TO.N,unconnected-(J1-Pin_50-Pad50)*%
X90895000Y-103925000D03*
%TO.P,J1,51,Pin_51*%
%TO.N,unconnected-(J1-Pin_51-Pad51)*%
X89625000Y-100495000D03*
%TO.P,J1,52,Pin_52*%
%TO.N,unconnected-(J1-Pin_52-Pad52)*%
X89625000Y-103925000D03*
%TO.P,J1,53,Pin_53*%
%TO.N,unconnected-(J1-Pin_53-Pad53)*%
X88355000Y-100495000D03*
%TO.P,J1,54,Pin_54*%
%TO.N,GND*%
X88355000Y-103925000D03*
%TO.P,J1,55,Pin_55*%
%TO.N,unconnected-(J1-Pin_55-Pad55)*%
X87085000Y-100495000D03*
%TO.P,J1,56,Pin_56*%
%TO.N,unconnected-(J1-Pin_56-Pad56)*%
X87085000Y-103925000D03*
%TO.P,J1,57,Pin_57*%
%TO.N,unconnected-(J1-Pin_57-Pad57)*%
X85815000Y-100495000D03*
%TO.P,J1,58,Pin_58*%
%TO.N,unconnected-(J1-Pin_58-Pad58)*%
X85815000Y-103925000D03*
%TO.P,J1,59,Pin_59*%
%TO.N,unconnected-(J1-Pin_59-Pad59)*%
X84545000Y-100495000D03*
%TO.P,J1,60,Pin_60*%
%TO.N,unconnected-(J1-Pin_60-Pad60)*%
X84545000Y-103925000D03*
%TO.P,J1,61,Pin_61*%
%TO.N,unconnected-(J1-Pin_61-Pad61)*%
X83275000Y-100495000D03*
%TO.P,J1,62,Pin_62*%
%TO.N,unconnected-(J1-Pin_62-Pad62)*%
X83275000Y-103925000D03*
%TO.P,J1,63,Pin_63*%
%TO.N,unconnected-(J1-Pin_63-Pad63)*%
X82005000Y-100495000D03*
%TO.P,J1,64,Pin_64*%
%TO.N,unconnected-(J1-Pin_64-Pad64)*%
X82005000Y-103925000D03*
%TO.P,J1,65,Pin_65*%
%TO.N,unconnected-(J1-Pin_65-Pad65)*%
X80735000Y-100495000D03*
%TO.P,J1,66,Pin_66*%
%TO.N,unconnected-(J1-Pin_66-Pad66)*%
X80735000Y-103925000D03*
%TO.P,J1,67,Pin_67*%
%TO.N,GND*%
X79465000Y-100495000D03*
%TO.P,J1,68,Pin_68*%
X79465000Y-103925000D03*
%TO.P,J1,69,Pin_69*%
%TO.N,unconnected-(J1-Pin_69-Pad69)*%
X78195000Y-100495000D03*
%TO.P,J1,70,Pin_70*%
%TO.N,unconnected-(J1-Pin_70-Pad70)*%
X78195000Y-103925000D03*
%TO.P,J1,71,Pin_71*%
%TO.N,unconnected-(J1-Pin_71-Pad71)*%
X76925000Y-100495000D03*
%TO.P,J1,72,Pin_72*%
%TO.N,unconnected-(J1-Pin_72-Pad72)*%
X76925000Y-103925000D03*
%TO.P,J1,73,Pin_73*%
%TO.N,unconnected-(J1-Pin_73-Pad73)*%
X75655000Y-100495000D03*
%TO.P,J1,74,Pin_74*%
%TO.N,unconnected-(J1-Pin_74-Pad74)*%
X75655000Y-103925000D03*
%TO.P,J1,75,Pin_75*%
%TO.N,unconnected-(J1-Pin_75-Pad75)*%
X74385000Y-100495000D03*
%TO.P,J1,76,Pin_76*%
%TO.N,unconnected-(J1-Pin_76-Pad76)*%
X74385000Y-103925000D03*
%TO.P,J1,77,Pin_77*%
%TO.N,unconnected-(J1-Pin_77-Pad77)*%
X73115000Y-100495000D03*
%TO.P,J1,78,Pin_78*%
%TO.N,unconnected-(J1-Pin_78-Pad78)*%
X73115000Y-103925000D03*
%TO.P,J1,79,Pin_79*%
%TO.N,unconnected-(J1-Pin_79-Pad79)*%
X71845000Y-100495000D03*
%TO.P,J1,80,Pin_80*%
%TO.N,unconnected-(J1-Pin_80-Pad80)*%
X71845000Y-103925000D03*
%TD*%
D13*
%TO.P,C2,1*%
%TO.N,+1V8*%
X93000000Y-89625000D03*
%TO.P,C2,2*%
%TO.N,GND*%
X93000000Y-88075000D03*
%TD*%
D10*
%TO.P,U3,1,2Y1*%
%TO.N,+3V3*%
X81529800Y-91461000D03*
%TO.P,U3,2,2Y0*%
%TO.N,GND*%
X81529800Y-90800600D03*
%TO.P,U3,3,3Y1*%
%TO.N,+3V3*%
X81529800Y-90140200D03*
%TO.P,U3,4,3Z*%
%TO.N,/vddpix_1*%
X81529800Y-89505200D03*
%TO.P,U3,5,3Y0*%
%TO.N,GND*%
X81529800Y-88844800D03*
%TO.P,U3,6,~{E}*%
%TO.N,/sw_~{E}_1*%
X81529800Y-88209800D03*
%TO.P,U3,7,NC*%
%TO.N,unconnected-(U3-NC-Pad7)*%
X81529800Y-87549400D03*
%TO.P,U3,8,GND*%
%TO.N,GND*%
X81529800Y-86889000D03*
%TO.P,U3,9,3S*%
%TO.N,/vddpix_toggle_1*%
X87270200Y-86889000D03*
%TO.P,U3,10,2S*%
%TO.N,/vdd33_toggle_1*%
X87270200Y-87549400D03*
%TO.P,U3,11,1S*%
%TO.N,/vdd18_toggle_1*%
X87270200Y-88209800D03*
%TO.P,U3,12,1Y0*%
%TO.N,GND*%
X87270200Y-88844800D03*
%TO.P,U3,13,1Y1*%
%TO.N,+1V8*%
X87270200Y-89505200D03*
%TO.P,U3,14,1Z*%
%TO.N,/vdd18_1*%
X87270200Y-90140200D03*
%TO.P,U3,15,2Z*%
%TO.N,/vdd33_1*%
X87270200Y-90800600D03*
%TO.P,U3,16,VCC*%
%TO.N,+3V3*%
X87270200Y-91461000D03*
%TD*%
D12*
%TO.P,J2,1,Pin_1*%
%TO.N,unconnected-(J2-Pin_1-Pad1)*%
X121375000Y-47495000D03*
%TO.P,J2,2,Pin_2*%
%TO.N,GND*%
X121375000Y-50925000D03*
%TO.P,J2,3,Pin_3*%
%TO.N,+3V3*%
X120105000Y-47495000D03*
%TO.P,J2,4,Pin_4*%
%TO.N,GND*%
X120105000Y-50925000D03*
%TO.P,J2,5,Pin_5*%
%TO.N,unconnected-(J2-Pin_5-Pad5)*%
X118835000Y-47495000D03*
%TO.P,J2,6,Pin_6*%
%TO.N,unconnected-(J2-Pin_6-Pad6)*%
X118835000Y-50925000D03*
%TO.P,J2,7,Pin_7*%
%TO.N,unconnected-(J2-Pin_7-Pad7)*%
X117565000Y-47495000D03*
%TO.P,J2,8,Pin_8*%
%TO.N,unconnected-(J2-Pin_8-Pad8)*%
X117565000Y-50925000D03*
%TO.P,J2,9,Pin_9*%
%TO.N,unconnected-(J2-Pin_9-Pad9)*%
X116295000Y-47495000D03*
%TO.P,J2,10,Pin_10*%
%TO.N,GND*%
X116295000Y-50925000D03*
%TO.P,J2,11,Pin_11*%
%TO.N,unconnected-(J2-Pin_11-Pad11)*%
X115025000Y-47495000D03*
%TO.P,J2,12,Pin_12*%
%TO.N,unconnected-(J2-Pin_12-Pad12)*%
X115025000Y-50925000D03*
%TO.P,J2,13,Pin_13*%
%TO.N,unconnected-(J2-Pin_13-Pad13)*%
X113755000Y-47495000D03*
%TO.P,J2,14,Pin_14*%
%TO.N,unconnected-(J2-Pin_14-Pad14)*%
X113755000Y-50925000D03*
%TO.P,J2,15,Pin_15*%
%TO.N,unconnected-(J2-Pin_15-Pad15)*%
X112485000Y-47495000D03*
%TO.P,J2,16,Pin_16*%
%TO.N,unconnected-(J2-Pin_16-Pad16)*%
X112485000Y-50925000D03*
%TO.P,J2,17,Pin_17*%
%TO.N,unconnected-(J2-Pin_17-Pad17)*%
X111215000Y-47495000D03*
%TO.P,J2,18,Pin_18*%
%TO.N,unconnected-(J2-Pin_18-Pad18)*%
X111215000Y-50925000D03*
%TO.P,J2,19,Pin_19*%
%TO.N,unconnected-(J2-Pin_19-Pad19)*%
X109945000Y-47495000D03*
%TO.P,J2,20,Pin_20*%
%TO.N,GND*%
X109945000Y-50925000D03*
%TO.P,J2,21,Pin_21*%
X108675000Y-47495000D03*
%TO.P,J2,22,Pin_22*%
%TO.N,/clkout0_N*%
X108675000Y-50925000D03*
%TO.P,J2,23,Pin_23*%
%TO.N,unconnected-(J2-Pin_23-Pad23)*%
X107405000Y-47495000D03*
%TO.P,J2,24,Pin_24*%
%TO.N,/clkout0_P*%
X107405000Y-50925000D03*
%TO.P,J2,25,Pin_25*%
%TO.N,unconnected-(J2-Pin_25-Pad25)*%
X106135000Y-47495000D03*
%TO.P,J2,26,Pin_26*%
%TO.N,/dout0_0_N*%
X106135000Y-50925000D03*
%TO.P,J2,27,Pin_27*%
%TO.N,unconnected-(J2-Pin_27-Pad27)*%
X104865000Y-47495000D03*
%TO.P,J2,28,Pin_28*%
%TO.N,/dout0_0_P*%
X104865000Y-50925000D03*
%TO.P,J2,29,Pin_29*%
%TO.N,unconnected-(J2-Pin_29-Pad29)*%
X103595000Y-47495000D03*
%TO.P,J2,30,Pin_30*%
%TO.N,GND*%
X103595000Y-50925000D03*
%TO.P,J2,31,Pin_31*%
X102325000Y-47495000D03*
%TO.P,J2,32,Pin_32*%
%TO.N,/dout1_0_N*%
X102325000Y-50925000D03*
%TO.P,J2,33,Pin_33*%
%TO.N,unconnected-(J2-Pin_33-Pad33)*%
X101055000Y-47495000D03*
%TO.P,J2,34,Pin_34*%
%TO.N,/dout1_0_P*%
X101055000Y-50925000D03*
%TO.P,J2,35,Pin_35*%
%TO.N,unconnected-(J2-Pin_35-Pad35)*%
X99785000Y-47495000D03*
%TO.P,J2,36,Pin_36*%
%TO.N,/dout2_0_N*%
X99785000Y-50925000D03*
%TO.P,J2,37,Pin_37*%
%TO.N,unconnected-(J2-Pin_37-Pad37)*%
X98515000Y-47495000D03*
%TO.P,J2,38,Pin_38*%
%TO.N,/dout2_0_P*%
X98515000Y-50925000D03*
%TO.P,J2,39,Pin_39*%
%TO.N,unconnected-(J2-Pin_39-Pad39)*%
X97245000Y-47495000D03*
%TO.P,J2,40,Pin_40*%
%TO.N,GND*%
X97245000Y-50925000D03*
%TO.P,J2,41,Pin_41*%
X95975000Y-47495000D03*
%TO.P,J2,42,Pin_42*%
%TO.N,/dout3_0_N*%
X95975000Y-50925000D03*
%TO.P,J2,43,Pin_43*%
%TO.N,unconnected-(J2-Pin_43-Pad43)*%
X94705000Y-47495000D03*
%TO.P,J2,44,Pin_44*%
%TO.N,/dout3_0_P*%
X94705000Y-50925000D03*
%TO.P,J2,45,Pin_45*%
%TO.N,unconnected-(J2-Pin_45-Pad45)*%
X93435000Y-47495000D03*
%TO.P,J2,46,Pin_46*%
%TO.N,/sync0_N*%
X93435000Y-50925000D03*
%TO.P,J2,47,Pin_47*%
%TO.N,unconnected-(J2-Pin_47-Pad47)*%
X92165000Y-47495000D03*
%TO.P,J2,48,Pin_48*%
%TO.N,/sync0_P*%
X92165000Y-50925000D03*
%TO.P,J2,49,Pin_49*%
%TO.N,unconnected-(J2-Pin_49-Pad49)*%
X90895000Y-47495000D03*
%TO.P,J2,50,Pin_50*%
%TO.N,GND*%
X90895000Y-50925000D03*
%TO.P,J2,51,Pin_51*%
%TO.N,unconnected-(J2-Pin_51-Pad51)*%
X89625000Y-47495000D03*
%TO.P,J2,52,Pin_52*%
%TO.N,/clkout1_N*%
X89625000Y-50925000D03*
%TO.P,J2,53,Pin_53*%
%TO.N,unconnected-(J2-Pin_53-Pad53)*%
X88355000Y-47495000D03*
%TO.P,J2,54,Pin_54*%
%TO.N,/clkout1_P*%
X88355000Y-50925000D03*
%TO.P,J2,55,Pin_55*%
%TO.N,unconnected-(J2-Pin_55-Pad55)*%
X87085000Y-47495000D03*
%TO.P,J2,56,Pin_56*%
%TO.N,/dout0_1_N*%
X87085000Y-50925000D03*
%TO.P,J2,57,Pin_57*%
%TO.N,unconnected-(J2-Pin_57-Pad57)*%
X85815000Y-47495000D03*
%TO.P,J2,58,Pin_58*%
%TO.N,/dout0_1_P*%
X85815000Y-50925000D03*
%TO.P,J2,59,Pin_59*%
%TO.N,unconnected-(J2-Pin_59-Pad59)*%
X84545000Y-47495000D03*
%TO.P,J2,60,Pin_60*%
%TO.N,GND*%
X84545000Y-50925000D03*
%TO.P,J2,61,Pin_61*%
X83275000Y-47495000D03*
%TO.P,J2,62,Pin_62*%
%TO.N,/dout1_1_N*%
X83275000Y-50925000D03*
%TO.P,J2,63,Pin_63*%
%TO.N,unconnected-(J2-Pin_63-Pad63)*%
X82005000Y-47495000D03*
%TO.P,J2,64,Pin_64*%
%TO.N,/dout1_1_P*%
X82005000Y-50925000D03*
%TO.P,J2,65,Pin_65*%
%TO.N,unconnected-(J2-Pin_65-Pad65)*%
X80735000Y-47495000D03*
%TO.P,J2,66,Pin_66*%
%TO.N,/dout2_1_N*%
X80735000Y-50925000D03*
%TO.P,J2,67,Pin_67*%
%TO.N,unconnected-(J2-Pin_67-Pad67)*%
X79465000Y-47495000D03*
%TO.P,J2,68,Pin_68*%
%TO.N,/dout2_1_P*%
X79465000Y-50925000D03*
%TO.P,J2,69,Pin_69*%
%TO.N,unconnected-(J2-Pin_69-Pad69)*%
X78195000Y-47495000D03*
%TO.P,J2,70,Pin_70*%
%TO.N,GND*%
X78195000Y-50925000D03*
%TO.P,J2,71,Pin_71*%
X76925000Y-47495000D03*
%TO.P,J2,72,Pin_72*%
%TO.N,/dout3_1_N*%
X76925000Y-50925000D03*
%TO.P,J2,73,Pin_73*%
%TO.N,unconnected-(J2-Pin_73-Pad73)*%
X75655000Y-47495000D03*
%TO.P,J2,74,Pin_74*%
%TO.N,/dout3_1_P*%
X75655000Y-50925000D03*
%TO.P,J2,75,Pin_75*%
%TO.N,unconnected-(J2-Pin_75-Pad75)*%
X74385000Y-47495000D03*
%TO.P,J2,76,Pin_76*%
%TO.N,/sync1_N*%
X74385000Y-50925000D03*
%TO.P,J2,77,Pin_77*%
%TO.N,unconnected-(J2-Pin_77-Pad77)*%
X73115000Y-47495000D03*
%TO.P,J2,78,Pin_78*%
%TO.N,/sync1_P*%
X73115000Y-50925000D03*
%TO.P,J2,79,Pin_79*%
%TO.N,unconnected-(J2-Pin_79-Pad79)*%
X71845000Y-47495000D03*
%TO.P,J2,80,Pin_80*%
%TO.N,GND*%
X71845000Y-50925000D03*
%TD*%
D13*
%TO.P,C1,1*%
%TO.N,+3V3*%
X100578000Y-89625000D03*
%TO.P,C1,2*%
%TO.N,GND*%
X100578000Y-88075000D03*
%TD*%
D14*
%TO.N,+3V3*%
X100650000Y-91537500D03*
X87270200Y-92825000D03*
X102860000Y-91215000D03*
X78500000Y-89375000D03*
X110875000Y-86000000D03*
X105375000Y-85200000D03*
X78550000Y-92375000D03*
X121000000Y-98075000D03*
X120105000Y-45050000D03*
%TO.N,GND*%
X79450000Y-106600000D03*
X88355000Y-106600000D03*
X78195000Y-53500000D03*
X103595000Y-53500000D03*
X109945000Y-53500000D03*
X94705000Y-106600000D03*
X71845000Y-53500000D03*
X101055000Y-106600000D03*
X100600000Y-86500000D03*
X114100000Y-88075000D03*
X116295000Y-53500000D03*
X88950000Y-87275000D03*
X108675000Y-45050000D03*
X84545000Y-53500000D03*
X106135000Y-97750000D03*
X99400000Y-90600000D03*
X120740000Y-106600000D03*
X95975000Y-45050000D03*
X83275000Y-45050000D03*
X97245000Y-53500000D03*
X90895000Y-53500000D03*
X78750000Y-84875000D03*
X93000000Y-86500000D03*
X78600000Y-90800600D03*
X107405000Y-106600000D03*
X99775000Y-97600000D03*
X112275000Y-95375000D03*
X102325000Y-45050000D03*
X120740000Y-53500000D03*
X76925000Y-45050000D03*
%TO.N,/trigger0_0*%
X142800000Y-90875000D03*
%TO.N,/mosi*%
X112480000Y-106600000D03*
X98515000Y-106600000D03*
%TO.N,/resetn_1*%
X44070000Y-90874000D03*
%TO.N,/resetn_0*%
X144070000Y-90875000D03*
%TO.N,/noip_clk_0*%
X138990000Y-90875000D03*
%TO.N,/trigger0_1*%
X42800000Y-90874000D03*
%TO.N,/ss_0*%
X104865000Y-106600000D03*
%TO.N,/noip_clk_1*%
X38990000Y-90874000D03*
%TO.N,/miso*%
X99785000Y-106600000D03*
%TO.N,/ss_1*%
X97245000Y-106600000D03*
%TO.N,/sck*%
X95970000Y-106600000D03*
X102325000Y-106600000D03*
%TO.N,/vddpix_0*%
X113900000Y-90180400D03*
%TO.N,/vdd33_0*%
X140260000Y-90875000D03*
%TO.N,/vdd18_0*%
X137720000Y-90875000D03*
%TO.N,/vdd33_1*%
X89075000Y-91700000D03*
%TO.N,/vddpix_1*%
X41530000Y-90874000D03*
%TO.N,/vdd18_1*%
X89900000Y-89525000D03*
%TO.N,/clkout0_P*%
X107385000Y-53500000D03*
%TO.N,/sync0_P*%
X92165000Y-53500000D03*
%TO.N,/clkout0_N*%
X108675000Y-53500000D03*
%TO.N,/sync0_N*%
X93445000Y-53500000D03*
%TO.N,/dout0_0_N*%
X106135000Y-53500000D03*
%TO.N,/dout3_1_P*%
X75655000Y-53500000D03*
%TO.N,/clkout1_N*%
X89625000Y-53500000D03*
%TO.N,/dout1_0_P*%
X101056000Y-53500000D03*
%TO.N,/dout3_1_N*%
X76925000Y-53500000D03*
%TO.N,/dout2_0_N*%
X99785000Y-53500000D03*
%TO.N,/dout0_0_P*%
X104865000Y-53500000D03*
%TO.N,/dout1_1_N*%
X83275000Y-53500000D03*
%TO.N,/sync1_N*%
X74395000Y-53500000D03*
%TO.N,/clkout1_P*%
X88335000Y-53500000D03*
%TO.N,/dout2_0_P*%
X98515000Y-53500000D03*
%TO.N,/dout2_1_N*%
X80735000Y-53500000D03*
%TO.N,/dout3_0_N*%
X95975000Y-53500000D03*
%TO.N,/dout3_0_P*%
X94705000Y-53500000D03*
%TO.N,/dout0_1_P*%
X85815000Y-53500000D03*
%TO.N,/dout2_1_P*%
X79465000Y-53500000D03*
%TO.N,/sync1_P*%
X73115000Y-53500000D03*
%TO.N,/dout0_1_N*%
X87085000Y-53500000D03*
%TO.N,/dout1_0_N*%
X102325000Y-53500000D03*
%TO.N,/dout1_1_P*%
X82006000Y-53500000D03*
%TO.N,/monitor0_0*%
X145340000Y-90875000D03*
%TO.N,/monitor1_0*%
X146610000Y-90875000D03*
%TO.N,/monitor1_1*%
X46610000Y-90874000D03*
%TO.N,/monitor0_1*%
X45340000Y-90874000D03*
%TD*%
D15*
%TO.N,+3V3*%
X87350000Y-92825000D02*
X87270200Y-92745200D01*
X105375000Y-85200000D02*
X105375000Y-87300000D01*
X100565500Y-89637500D02*
X100578000Y-89625000D01*
X110875000Y-86000000D02*
X110875000Y-87975000D01*
X111300400Y-88224600D02*
X112270200Y-88224600D01*
X81529800Y-91461000D02*
X80514000Y-91461000D01*
X97926500Y-91537500D02*
X100650000Y-91537500D01*
X79545400Y-89375000D02*
X80310600Y-90140200D01*
X101270000Y-89625000D02*
X100578000Y-89625000D01*
X80514000Y-91461000D02*
X79600000Y-92375000D01*
X78500000Y-89375000D02*
X79545400Y-89375000D01*
X111125000Y-88225000D02*
X111300000Y-88225000D01*
X110875000Y-87975000D02*
X111125000Y-88225000D01*
X121000000Y-98075000D02*
X120105000Y-98970000D01*
X110875000Y-87975000D02*
X110875000Y-89050000D01*
X87270200Y-91461000D02*
X87270200Y-92825000D01*
X102860000Y-91215000D02*
X101270000Y-89625000D01*
X120105000Y-45050000D02*
X120105000Y-47495000D01*
X100578000Y-91465500D02*
X100650000Y-91537500D01*
X80310600Y-90140200D02*
X81529800Y-90140200D01*
X79600000Y-92375000D02*
X78550000Y-92375000D01*
X111300000Y-88225000D02*
X111300400Y-88224600D01*
X110875000Y-89050000D02*
X111370400Y-89545400D01*
X106529800Y-88224600D02*
X106299600Y-88224600D01*
X111370400Y-89545400D02*
X112270200Y-89545400D01*
X97926500Y-89637500D02*
X100565500Y-89637500D01*
X120105000Y-98970000D02*
X120105000Y-100495000D01*
X106299600Y-88224600D02*
X105375000Y-87300000D01*
%TO.N,GND*%
X113260800Y-92796600D02*
X112270200Y-92796600D01*
X93000000Y-86500000D02*
X93000000Y-88075000D01*
X113290000Y-88885000D02*
X112270200Y-88885000D01*
X84545000Y-50925000D02*
X84545000Y-53500000D01*
X78750000Y-86075000D02*
X78750000Y-84825000D01*
X99785000Y-97610000D02*
X99785000Y-100495000D01*
X112270200Y-92796600D02*
X112270200Y-95370200D01*
X113650000Y-92407400D02*
X113260800Y-92796600D01*
X101055000Y-103925000D02*
X101055000Y-106600000D01*
X120105000Y-103925000D02*
X120105000Y-105965000D01*
X120105000Y-105965000D02*
X120740000Y-106600000D01*
X79450000Y-100480000D02*
X79465000Y-100495000D01*
X121375000Y-105965000D02*
X120740000Y-106600000D01*
X99775000Y-97600000D02*
X99785000Y-97610000D01*
X100600000Y-86500000D02*
X100600000Y-86600000D01*
X88057600Y-88844800D02*
X87270200Y-88844800D01*
X81529800Y-88844800D02*
X80669800Y-88844800D01*
X94705000Y-103925000D02*
X94705000Y-106600000D01*
X71845000Y-50925000D02*
X71845000Y-53500000D01*
X76925000Y-45050000D02*
X76925000Y-47495000D01*
X112270200Y-95370200D02*
X112275000Y-95375000D01*
X80136000Y-86889000D02*
X81529800Y-86889000D01*
X120105000Y-52865000D02*
X120740000Y-53500000D01*
X79465000Y-106585000D02*
X79450000Y-106600000D01*
X100600000Y-86600000D02*
X100578000Y-86622000D01*
X114100000Y-88075000D02*
X113290000Y-88885000D01*
X78195000Y-50925000D02*
X78195000Y-53500000D01*
X113260800Y-90840800D02*
X113650000Y-91230000D01*
X79850000Y-87175000D02*
X78750000Y-86075000D01*
X79465000Y-103925000D02*
X79465000Y-106585000D01*
X121375000Y-50925000D02*
X121375000Y-52865000D01*
X79850000Y-87175000D02*
X80136000Y-86889000D01*
X82800000Y-90675000D02*
X82674400Y-90800600D01*
X108675000Y-45050000D02*
X108675000Y-47495000D01*
X113650000Y-91230000D02*
X113650000Y-92407400D01*
X97245000Y-50925000D02*
X97245000Y-53500000D01*
X106135000Y-97750000D02*
X106135000Y-100495000D01*
X88950000Y-87952400D02*
X88057600Y-88844800D01*
X116295000Y-50925000D02*
X116295000Y-53500000D01*
X88355000Y-103925000D02*
X88355000Y-106600000D01*
X78600000Y-90800600D02*
X81529800Y-90800600D01*
X103595000Y-50925000D02*
X103595000Y-53500000D01*
X102325000Y-45050000D02*
X102325000Y-47495000D01*
X99387500Y-90587500D02*
X99400000Y-90600000D01*
X79850000Y-88025000D02*
X79850000Y-87175000D01*
X97926500Y-90587500D02*
X99387500Y-90587500D01*
X120105000Y-50925000D02*
X120105000Y-52865000D01*
X107405000Y-103925000D02*
X107405000Y-106600000D01*
X112270200Y-90840800D02*
X106529800Y-90840800D01*
X82800000Y-89124400D02*
X82800000Y-90675000D01*
X82520400Y-88844800D02*
X82800000Y-89124400D01*
X112270200Y-90840800D02*
X113260800Y-90840800D01*
X121375000Y-52865000D02*
X120740000Y-53500000D01*
X100578000Y-86622000D02*
X100578000Y-88075000D01*
X81529800Y-88844800D02*
X82520400Y-88844800D01*
X79465000Y-100495000D02*
X79465000Y-103925000D01*
X82674400Y-90800600D02*
X81529800Y-90800600D01*
X90895000Y-53500000D02*
X90895000Y-50925000D01*
X88950000Y-87275000D02*
X88950000Y-87952400D01*
X80669800Y-88844800D02*
X79850000Y-88025000D01*
X83275000Y-45050000D02*
X83275000Y-47495000D01*
X95975000Y-45050000D02*
X95975000Y-47495000D01*
X121375000Y-103925000D02*
X121375000Y-105965000D01*
X109945000Y-50925000D02*
X109945000Y-53500000D01*
%TO.N,+1V8*%
X101500000Y-85125000D02*
X102750000Y-86375000D01*
X102750000Y-88375000D02*
X104555400Y-90180400D01*
X93000000Y-89625000D02*
X91700000Y-89625000D01*
X95651500Y-89637500D02*
X95651500Y-89648500D01*
X102750000Y-86375000D02*
X102750000Y-88375000D01*
X89920500Y-87845500D02*
X91250000Y-86516000D01*
X95651500Y-89648500D02*
X95600000Y-89700000D01*
X87270200Y-89505200D02*
X88260800Y-89505200D01*
X91700000Y-89625000D02*
X89920500Y-87845500D01*
X91259000Y-86516000D02*
X92650000Y-85125000D01*
X95639000Y-89625000D02*
X95651500Y-89637500D01*
X88260800Y-89505200D02*
X89920500Y-87845500D01*
X91250000Y-86516000D02*
X91259000Y-86516000D01*
X92975000Y-89650000D02*
X93000000Y-89625000D01*
X93000000Y-89625000D02*
X95639000Y-89625000D01*
X104555400Y-90180400D02*
X106529800Y-90180400D01*
X92650000Y-85125000D02*
X101500000Y-85125000D01*
%TO.N,/trigger0_0*%
X131057500Y-94348226D02*
X131177500Y-94348226D01*
X120617500Y-93375000D02*
X120617500Y-93242059D01*
X123857500Y-94348226D02*
X123977500Y-94348226D01*
X120617500Y-94108226D02*
X120617500Y-93375000D01*
X127217500Y-93242059D02*
X127217500Y-93375000D01*
X131417500Y-94108226D02*
X131417500Y-93615000D01*
X127817500Y-94108226D02*
X127817500Y-93375000D01*
X123017500Y-94108226D02*
X123017500Y-93375000D01*
X125417500Y-94108226D02*
X125417500Y-93375000D01*
X126017500Y-93375000D02*
X126017500Y-94108226D01*
X132275000Y-93375000D02*
X141800000Y-93375000D01*
X120257500Y-94348226D02*
X120377500Y-94348226D01*
X125417500Y-93375000D02*
X125417500Y-93242059D01*
X120750440Y-93109119D02*
X121084560Y-93109119D01*
X121817500Y-94108226D02*
X121817500Y-93375000D01*
X127217500Y-93375000D02*
X127217500Y-94108226D01*
X126017500Y-93242059D02*
X126017500Y-93375000D01*
X125550440Y-93109119D02*
X125884560Y-93109119D01*
X129150440Y-93109119D02*
X129484560Y-93109119D01*
X120017500Y-93244744D02*
X120017500Y-93375000D01*
X130217500Y-94108226D02*
X130217500Y-93375000D01*
X124217500Y-94108226D02*
X124217500Y-93375000D01*
X119528012Y-93114488D02*
X119887244Y-93114488D01*
X113755000Y-100495000D02*
X113755000Y-98180000D01*
X127817500Y-93375000D02*
X127817500Y-93242059D01*
X120017500Y-93375000D02*
X120017500Y-94108226D01*
X129617500Y-93242059D02*
X129617500Y-93375000D01*
X121817500Y-93375000D02*
X121817500Y-93242059D01*
X126617500Y-93375000D02*
X126617500Y-93242059D01*
X126257500Y-94348226D02*
X126377500Y-94348226D01*
X130817500Y-93615000D02*
X130817500Y-94108226D01*
X127950440Y-93109119D02*
X128284560Y-93109119D01*
X131777500Y-93375000D02*
X132275000Y-93375000D01*
X118560000Y-93375000D02*
X119267500Y-93375000D01*
X141800000Y-93375000D02*
X142800000Y-92375000D01*
X124350440Y-93109119D02*
X124684560Y-93109119D01*
X130217500Y-93375000D02*
X130217500Y-93242059D01*
X123017500Y-93375000D02*
X123017500Y-93242059D01*
X129017500Y-94108226D02*
X129017500Y-93375000D01*
X121217500Y-93242059D02*
X121217500Y-93375000D01*
X123150440Y-93109119D02*
X123484560Y-93109119D01*
X122417500Y-93375000D02*
X122417500Y-94108226D01*
X122657500Y-94348226D02*
X122777500Y-94348226D01*
X125057500Y-94348226D02*
X125177500Y-94348226D01*
X128417500Y-93375000D02*
X128417500Y-94108226D01*
X123617500Y-93242059D02*
X123617500Y-93375000D01*
X127457500Y-94348226D02*
X127577500Y-94348226D01*
X130817500Y-93375000D02*
X130817500Y-93615000D01*
X123617500Y-93375000D02*
X123617500Y-94108226D01*
X128657500Y-94348226D02*
X128777500Y-94348226D01*
X124817500Y-93375000D02*
X124817500Y-94108226D01*
X122417500Y-93242059D02*
X122417500Y-93375000D01*
X121950440Y-93109119D02*
X122284560Y-93109119D01*
X124817500Y-93242059D02*
X124817500Y-93375000D01*
X126617500Y-94108226D02*
X126617500Y-93375000D01*
X113755000Y-98180000D02*
X118560000Y-93375000D01*
X129017500Y-93375000D02*
X129017500Y-93242059D01*
X129617500Y-93375000D02*
X129617500Y-94108226D01*
X130817500Y-93242059D02*
X130817500Y-93375000D01*
X129857500Y-94348226D02*
X129977500Y-94348226D01*
X124217500Y-93375000D02*
X124217500Y-93242059D01*
X121457500Y-94348226D02*
X121577500Y-94348226D01*
X131657500Y-93375000D02*
X131777500Y-93375000D01*
X121217500Y-93375000D02*
X121217500Y-94108226D01*
X128417500Y-93242059D02*
X128417500Y-93375000D01*
X130350440Y-93109119D02*
X130684560Y-93109119D01*
X126750440Y-93109119D02*
X127084560Y-93109119D01*
X142800000Y-92375000D02*
X142800000Y-90875000D01*
X125884560Y-93109119D02*
G75*
G02*
X126017581Y-93242059I40J-132981D01*
G01*
X122777500Y-94348226D02*
G75*
G03*
X123017526Y-94108226I0J240026D01*
G01*
X121817500Y-93242059D02*
G75*
G02*
X121950440Y-93109200I132900J-41D01*
G01*
X129617500Y-94108226D02*
G75*
G03*
X129857500Y-94348200I240000J26D01*
G01*
X131417500Y-93615000D02*
G75*
G02*
X131657500Y-93375000I240000J0D01*
G01*
X130817500Y-94108226D02*
G75*
G03*
X131057500Y-94348200I240000J26D01*
G01*
X119267500Y-93375000D02*
G75*
G03*
X119397800Y-93244744I0J130300D01*
G01*
X128417500Y-94108226D02*
G75*
G03*
X128657500Y-94348200I240000J26D01*
G01*
X127084560Y-93109119D02*
G75*
G02*
X127217581Y-93242059I40J-132981D01*
G01*
X120617500Y-93242059D02*
G75*
G02*
X120750440Y-93109200I132900J-41D01*
G01*
X127577500Y-94348226D02*
G75*
G03*
X127817526Y-94108226I0J240026D01*
G01*
X125177500Y-94348226D02*
G75*
G03*
X125417526Y-94108226I0J240026D01*
G01*
X120377500Y-94348226D02*
G75*
G03*
X120617526Y-94108226I0J240026D01*
G01*
X126617500Y-93242059D02*
G75*
G02*
X126750440Y-93109200I132900J-41D01*
G01*
X130217500Y-93242059D02*
G75*
G02*
X130350440Y-93109200I132900J-41D01*
G01*
X131177500Y-94348226D02*
G75*
G03*
X131417526Y-94108226I0J240026D01*
G01*
X124817500Y-94108226D02*
G75*
G03*
X125057500Y-94348200I240000J26D01*
G01*
X123977500Y-94348226D02*
G75*
G03*
X124217526Y-94108226I0J240026D01*
G01*
X126017500Y-94108226D02*
G75*
G03*
X126257500Y-94348200I240000J26D01*
G01*
X126377500Y-94348226D02*
G75*
G03*
X126617526Y-94108226I0J240026D01*
G01*
X119397756Y-93244744D02*
G75*
G02*
X119528012Y-93114456I130244J44D01*
G01*
X122417500Y-94108226D02*
G75*
G03*
X122657500Y-94348200I240000J26D01*
G01*
X130684560Y-93109119D02*
G75*
G02*
X130817581Y-93242059I40J-132981D01*
G01*
X122284560Y-93109119D02*
G75*
G02*
X122417581Y-93242059I40J-132981D01*
G01*
X125417500Y-93242059D02*
G75*
G02*
X125550440Y-93109200I132900J-41D01*
G01*
X119887244Y-93114488D02*
G75*
G02*
X120017412Y-93244744I-44J-130212D01*
G01*
X121084560Y-93109119D02*
G75*
G02*
X121217581Y-93242059I40J-132981D01*
G01*
X124217500Y-93242059D02*
G75*
G02*
X124350440Y-93109200I132900J-41D01*
G01*
X128284560Y-93109119D02*
G75*
G02*
X128417581Y-93242059I40J-132981D01*
G01*
X123617500Y-94108226D02*
G75*
G03*
X123857500Y-94348200I240000J26D01*
G01*
X121577500Y-94348226D02*
G75*
G03*
X121817526Y-94108226I0J240026D01*
G01*
X129977500Y-94348226D02*
G75*
G03*
X130217526Y-94108226I0J240026D01*
G01*
X121217500Y-94108226D02*
G75*
G03*
X121457500Y-94348200I240000J26D01*
G01*
X123484560Y-93109119D02*
G75*
G02*
X123617581Y-93242059I40J-132981D01*
G01*
X129017500Y-93242059D02*
G75*
G02*
X129150440Y-93109200I132900J-41D01*
G01*
X129484560Y-93109119D02*
G75*
G02*
X129617581Y-93242059I40J-132981D01*
G01*
X127817500Y-93242059D02*
G75*
G02*
X127950440Y-93109200I132900J-41D01*
G01*
X120017500Y-94108226D02*
G75*
G03*
X120257500Y-94348200I240000J26D01*
G01*
X124684560Y-93109119D02*
G75*
G02*
X124817581Y-93242059I40J-132981D01*
G01*
X128777500Y-94348226D02*
G75*
G03*
X129017526Y-94108226I0J240026D01*
G01*
X127217500Y-94108226D02*
G75*
G03*
X127457500Y-94348200I240000J26D01*
G01*
X123017500Y-93242059D02*
G75*
G02*
X123150440Y-93109200I132900J-41D01*
G01*
%TO.N,/vdd33_toggle_0*%
X105539200Y-92136200D02*
X104865000Y-92810400D01*
X104865000Y-92810400D02*
X104865000Y-100495000D01*
X106529800Y-92136200D02*
X105539200Y-92136200D01*
%TO.N,/vddpix_toggle_0*%
X106529800Y-92796600D02*
X107405000Y-93671800D01*
X107405000Y-93671800D02*
X107405000Y-100495000D01*
%TO.N,/mosi*%
X112485000Y-103925000D02*
X112485000Y-106595000D01*
X112485000Y-106595000D02*
X112480000Y-106600000D01*
X98515000Y-103925000D02*
X98515000Y-106600000D01*
%TO.N,/resetn_1*%
X93200000Y-96875000D02*
X94705000Y-98380000D01*
X48400000Y-96875000D02*
X93200000Y-96875000D01*
X44070000Y-90874000D02*
X44070000Y-92545000D01*
X44070000Y-92545000D02*
X48400000Y-96875000D01*
X94705000Y-98380000D02*
X94705000Y-100495000D01*
%TO.N,/resetn_0*%
X115025000Y-98260000D02*
X115025000Y-100495000D01*
X141700000Y-96175000D02*
X144070000Y-93805000D01*
X116205000Y-97080000D02*
X115025000Y-98260000D01*
X144070000Y-93805000D02*
X144070000Y-90875000D01*
X117110000Y-96175000D02*
X141700000Y-96175000D01*
X116205000Y-97080000D02*
X117110000Y-96175000D01*
%TO.N,/vdd33_toggle_1*%
X102325000Y-96000000D02*
X102325000Y-100495000D01*
X87270200Y-87549400D02*
X86237600Y-87549400D01*
X86250000Y-94150000D02*
X100475000Y-94150000D01*
X85612000Y-93512000D02*
X86250000Y-94150000D01*
X100475000Y-94150000D02*
X102325000Y-96000000D01*
X85612000Y-88175000D02*
X85612000Y-93512000D01*
X86237600Y-87549400D02*
X85612000Y-88175000D01*
%TO.N,/noip_clk_0*%
X138990000Y-90875000D02*
X137190000Y-92675000D01*
X111215000Y-98875000D02*
X111215000Y-100495000D01*
X137190000Y-92675000D02*
X117400000Y-92675000D01*
X117400000Y-92675000D02*
X111215000Y-98860000D01*
%TO.N,/trigger0_1*%
X42800000Y-92450000D02*
X47675000Y-97325000D01*
X47675000Y-97325000D02*
X92200000Y-97325000D01*
X93435000Y-98560000D02*
X93435000Y-100495000D01*
X92200000Y-97325000D02*
X93435000Y-98560000D01*
X42800000Y-90874000D02*
X42800000Y-92450000D01*
%TO.N,/ss_0*%
X104865000Y-103925000D02*
X104865000Y-106600000D01*
%TO.N,/vdd18_toggle_1*%
X103595000Y-96270000D02*
X103595000Y-100495000D01*
X101000000Y-93675000D02*
X103595000Y-96270000D01*
X85993000Y-93100000D02*
X86568000Y-93675000D01*
X85993000Y-88332816D02*
X85993000Y-93100000D01*
X87270200Y-88209800D02*
X86116016Y-88209800D01*
X86116016Y-88209800D02*
X85993000Y-88332816D01*
X86568000Y-93675000D02*
X101000000Y-93675000D01*
%TO.N,/vddpix_toggle_1*%
X86279600Y-86889000D02*
X85231000Y-87937600D01*
X99775000Y-94675000D02*
X101050000Y-95950000D01*
X101055000Y-96680000D02*
X101055000Y-100495000D01*
X101050000Y-95950000D02*
X101050000Y-96675000D01*
X85231000Y-93931000D02*
X85975000Y-94675000D01*
X85231000Y-87937600D02*
X85231000Y-93931000D01*
X87270200Y-86889000D02*
X86279600Y-86889000D01*
X85975000Y-94675000D02*
X99775000Y-94675000D01*
X101050000Y-96675000D02*
X101055000Y-96680000D01*
%TO.N,/noip_clk_1*%
X92165000Y-98390000D02*
X92165000Y-100495000D01*
X91750000Y-97975000D02*
X92165000Y-98390000D01*
X46091000Y-97975000D02*
X91750000Y-97975000D01*
X38990000Y-90874000D02*
X46091000Y-97975000D01*
%TO.N,/miso*%
X99785000Y-103925000D02*
X99785000Y-106600000D01*
%TO.N,/ss_1*%
X97245000Y-103925000D02*
X97245000Y-106600000D01*
%TO.N,/vdd18_toggle_0*%
X108675000Y-92630400D02*
X108675000Y-100495000D01*
X106529800Y-91475800D02*
X107520400Y-91475800D01*
X107520400Y-91475800D02*
X108675000Y-92630400D01*
%TO.N,/sck*%
X95975000Y-106595000D02*
X95970000Y-106600000D01*
X95975000Y-103925000D02*
X95975000Y-106595000D01*
X102325000Y-103925000D02*
X102325000Y-106600000D01*
%TO.N,/sw_~{E}_1*%
X98515000Y-98390000D02*
X98515000Y-100495000D01*
X84850000Y-90539400D02*
X84850000Y-94425000D01*
X82520400Y-88209800D02*
X84850000Y-90539400D01*
X84850000Y-94425000D02*
X85675000Y-95250000D01*
X85675000Y-95250000D02*
X95375000Y-95250000D01*
X95375000Y-95250000D02*
X98515000Y-98390000D01*
X81529800Y-88209800D02*
X82520400Y-88209800D01*
%TO.N,/sw_~{E}_0*%
X109945000Y-99550000D02*
X109950000Y-99545000D01*
X109945000Y-100495000D02*
X109945000Y-99550000D01*
X112270200Y-91475800D02*
X111508200Y-91475800D01*
X109945000Y-93039000D02*
X109945000Y-100495000D01*
X111508200Y-91475800D02*
X109945000Y-93039000D01*
%TO.N,/vddpix_0*%
X112270200Y-90180400D02*
X113900000Y-90180400D01*
%TO.N,/vdd33_0*%
X103926000Y-87043200D02*
X103926000Y-83549000D01*
X140260000Y-90635000D02*
X140260000Y-90875000D01*
X106529800Y-88885000D02*
X105767800Y-88885000D01*
X105767800Y-88885000D02*
X103926000Y-87043200D01*
X103926000Y-83549000D02*
X104800000Y-82675000D01*
X132300000Y-82675000D02*
X140260000Y-90635000D01*
X104800000Y-82675000D02*
X132300000Y-82675000D01*
%TO.N,/vdd18_0*%
X120100000Y-83975000D02*
X121800000Y-85675000D01*
X125850000Y-89625000D02*
X136470000Y-89625000D01*
X110800000Y-83975000D02*
X120100000Y-83975000D01*
X121900000Y-85675000D02*
X125850000Y-89625000D01*
X106529800Y-89545400D02*
X107520400Y-89545400D01*
X121800000Y-85675000D02*
X121900000Y-85675000D01*
X136470000Y-89625000D02*
X137720000Y-90875000D01*
X106529800Y-89545400D02*
X105889385Y-89545400D01*
X109100000Y-85675000D02*
X110800000Y-83975000D01*
X107520400Y-89545400D02*
X109100000Y-87965800D01*
X109100000Y-87965800D02*
X109100000Y-85675000D01*
%TO.N,/vdd33_1*%
X88225600Y-90800600D02*
X89050000Y-91625000D01*
X87270200Y-90800600D02*
X88225600Y-90800600D01*
%TO.N,/vddpix_1*%
X80380200Y-89505200D02*
X81529800Y-89505200D01*
X41530000Y-90874000D02*
X41530000Y-90020000D01*
X41530000Y-90020000D02*
X43125000Y-88425000D01*
X79300000Y-88425000D02*
X80380200Y-89505200D01*
X43125000Y-88425000D02*
X79300000Y-88425000D01*
%TO.N,/vdd18_1*%
X89900000Y-89525000D02*
X89284800Y-90140200D01*
X89284800Y-90140200D02*
X87270200Y-90140200D01*
D16*
%TO.N,/clkout0_P*%
X107405000Y-53480000D02*
X107385000Y-53500000D01*
X107405000Y-50925000D02*
X107405000Y-53480000D01*
%TO.N,/sync0_P*%
X92165000Y-50925000D02*
X92165000Y-53500000D01*
%TO.N,/clkout0_N*%
X108675000Y-50925000D02*
X108675000Y-53500000D01*
%TO.N,/sync0_N*%
X93435000Y-53490000D02*
X93445000Y-53500000D01*
X93435000Y-50925000D02*
X93435000Y-53490000D01*
%TO.N,/dout0_0_N*%
X106135000Y-50925000D02*
X106135000Y-53500000D01*
%TO.N,/dout3_1_P*%
X75655000Y-50925000D02*
X75655000Y-53500000D01*
%TO.N,/clkout1_N*%
X89625000Y-50925000D02*
X89625000Y-53500000D01*
%TO.N,/dout1_0_P*%
X101055000Y-53499000D02*
X101056000Y-53500000D01*
X101055000Y-50925000D02*
X101055000Y-53499000D01*
%TO.N,/dout3_1_N*%
X76925000Y-50925000D02*
X76925000Y-53500000D01*
%TO.N,/dout2_0_N*%
X99785000Y-50925000D02*
X99785000Y-53500000D01*
%TO.N,/dout0_0_P*%
X104865000Y-50925000D02*
X104865000Y-53500000D01*
%TO.N,/dout1_1_N*%
X83275000Y-50925000D02*
X83275000Y-53500000D01*
%TO.N,/sync1_N*%
X74385000Y-53490000D02*
X74395000Y-53500000D01*
X74385000Y-50925000D02*
X74385000Y-53490000D01*
%TO.N,/clkout1_P*%
X88355000Y-50925000D02*
X88355000Y-53480000D01*
X88355000Y-53480000D02*
X88335000Y-53500000D01*
%TO.N,/dout2_0_P*%
X98515000Y-50925000D02*
X98515000Y-53500000D01*
%TO.N,/dout2_1_N*%
X80735000Y-50925000D02*
X80735000Y-53500000D01*
%TO.N,/dout3_0_N*%
X95975000Y-50925000D02*
X95975000Y-53500000D01*
%TO.N,/dout3_0_P*%
X94705000Y-50925000D02*
X94705000Y-53500000D01*
%TO.N,/dout0_1_P*%
X85815000Y-50925000D02*
X85815000Y-53500000D01*
%TO.N,/dout2_1_P*%
X79465000Y-50925000D02*
X79465000Y-53500000D01*
%TO.N,/sync1_P*%
X73115000Y-50925000D02*
X73115000Y-53500000D01*
%TO.N,/dout0_1_N*%
X87085000Y-50925000D02*
X87085000Y-53500000D01*
%TO.N,/dout1_0_N*%
X102325000Y-50925000D02*
X102325000Y-53500000D01*
%TO.N,/dout1_1_P*%
X82005000Y-53499000D02*
X82006000Y-53500000D01*
X82005000Y-50925000D02*
X82005000Y-53499000D01*
D15*
%TO.N,/monitor0_0*%
X145340000Y-90875000D02*
X145340000Y-93735000D01*
X142400000Y-96675000D02*
X117960000Y-96675000D01*
X117960000Y-96675000D02*
X116295000Y-98340000D01*
X145340000Y-93735000D02*
X142400000Y-96675000D01*
X116295000Y-98340000D02*
X116295000Y-100495000D01*
%TO.N,/monitor1_0*%
X118610000Y-97275000D02*
X142800000Y-97275000D01*
X117565000Y-100495000D02*
X117565000Y-98320000D01*
X146600000Y-93475000D02*
X146600000Y-90885000D01*
X146600000Y-90885000D02*
X146610000Y-90875000D01*
X117565000Y-98320000D02*
X118610000Y-97275000D01*
X142800000Y-97275000D02*
X146600000Y-93475000D01*
%TO.N,/monitor1_1*%
X94781000Y-95856000D02*
X51592000Y-95856000D01*
X97245000Y-100495000D02*
X97245000Y-98320000D01*
X51592000Y-95856000D02*
X46610000Y-90874000D01*
X97245000Y-98320000D02*
X94781000Y-95856000D01*
%TO.N,/monitor0_1*%
X48041000Y-93575000D02*
X48500000Y-93575000D01*
X95975000Y-98050000D02*
X94200000Y-96275000D01*
X94200000Y-96275000D02*
X51200000Y-96275000D01*
X95975000Y-100495000D02*
X95975000Y-98050000D01*
X48500000Y-93575000D02*
X51200000Y-96275000D01*
X45340000Y-90874000D02*
X48041000Y-93575000D01*
%TD*%
%TA.AperFunction,Conductor*%
%TO.N,GND*%
G36*
X89191452Y-87374774D02*
G01*
X89256500Y-87401924D01*
X89262814Y-87408273D01*
X89262991Y-87416712D01*
X89040133Y-88030860D01*
X89034090Y-88037468D01*
X89025144Y-88037867D01*
X89020862Y-88035142D01*
X88855675Y-87869955D01*
X88853393Y-87866729D01*
X88638519Y-87417342D01*
X88638041Y-87408400D01*
X88644027Y-87401740D01*
X88644547Y-87401507D01*
X88946209Y-87276161D01*
X88955161Y-87276152D01*
X89191452Y-87374774D01*
G37*
%TD.AperFunction*%
%TD*%
%TA.AperFunction,Conductor*%
%TO.N,GND*%
G36*
X71971911Y-52817627D02*
G01*
X71974708Y-52822112D01*
X72158250Y-53358413D01*
X72157686Y-53367350D01*
X72151686Y-53372998D01*
X71849506Y-53499119D01*
X71840552Y-53499143D01*
X71840494Y-53499119D01*
X71538313Y-53372998D01*
X71531998Y-53366649D01*
X71531749Y-53358413D01*
X71715292Y-52822112D01*
X71721213Y-52815394D01*
X71726362Y-52814200D01*
X71963638Y-52814200D01*
X71971911Y-52817627D01*
G37*
%TD.AperFunction*%
%TD*%
%TA.AperFunction,Conductor*%
%TO.N,GND*%
G36*
X101181911Y-105917627D02*
G01*
X101184708Y-105922112D01*
X101368250Y-106458413D01*
X101367686Y-106467350D01*
X101361686Y-106472998D01*
X101059506Y-106599119D01*
X101050552Y-106599143D01*
X101050494Y-106599119D01*
X100748313Y-106472998D01*
X100741998Y-106466649D01*
X100741749Y-106458413D01*
X100925292Y-105922112D01*
X100931213Y-105915394D01*
X100936362Y-105914200D01*
X101173638Y-105914200D01*
X101181911Y-105917627D01*
G37*
%TD.AperFunction*%
%TD*%
%TA.AperFunction,Conductor*%
%TO.N,GND*%
G36*
X96281686Y-45177001D02*
G01*
X96288001Y-45183350D01*
X96288250Y-45191586D01*
X96104708Y-45727888D01*
X96098787Y-45734606D01*
X96093638Y-45735800D01*
X95856362Y-45735800D01*
X95848089Y-45732373D01*
X95845292Y-45727888D01*
X95661749Y-45191586D01*
X95662313Y-45182649D01*
X95668311Y-45177002D01*
X95970495Y-45050879D01*
X95979446Y-45050856D01*
X96281686Y-45177001D01*
G37*
%TD.AperFunction*%
%TD*%
%TA.AperFunction,Conductor*%
%TO.N,GND*%
G36*
X97371911Y-52817627D02*
G01*
X97374708Y-52822112D01*
X97558250Y-53358413D01*
X97557686Y-53367350D01*
X97551686Y-53372998D01*
X97249506Y-53499119D01*
X97240552Y-53499143D01*
X97240494Y-53499119D01*
X96938313Y-53372998D01*
X96931998Y-53366649D01*
X96931749Y-53358413D01*
X97115292Y-52822112D01*
X97121213Y-52815394D01*
X97126362Y-52814200D01*
X97363638Y-52814200D01*
X97371911Y-52817627D01*
G37*
%TD.AperFunction*%
%TD*%
%TA.AperFunction,Conductor*%
%TO.N,/vddpix_1*%
G36*
X41656911Y-90191627D02*
G01*
X41659708Y-90196112D01*
X41843250Y-90732413D01*
X41842686Y-90741350D01*
X41836686Y-90746998D01*
X41534506Y-90873119D01*
X41525552Y-90873143D01*
X41525494Y-90873119D01*
X41223313Y-90746998D01*
X41216998Y-90740649D01*
X41216749Y-90732413D01*
X41400292Y-90196112D01*
X41406213Y-90189394D01*
X41411362Y-90188200D01*
X41648638Y-90188200D01*
X41656911Y-90191627D01*
G37*
%TD.AperFunction*%
%TD*%
%TA.AperFunction,Conductor*%
%TO.N,GND*%
G36*
X84671911Y-52817627D02*
G01*
X84674708Y-52822112D01*
X84858250Y-53358413D01*
X84857686Y-53367350D01*
X84851686Y-53372998D01*
X84549506Y-53499119D01*
X84540552Y-53499143D01*
X84540494Y-53499119D01*
X84238313Y-53372998D01*
X84231998Y-53366649D01*
X84231749Y-53358413D01*
X84415292Y-52822112D01*
X84421213Y-52815394D01*
X84426362Y-52814200D01*
X84663638Y-52814200D01*
X84671911Y-52817627D01*
G37*
%TD.AperFunction*%
%TD*%
%TA.AperFunction,Conductor*%
%TO.N,GND*%
G36*
X79591708Y-105920611D02*
G01*
X79594588Y-105925350D01*
X79763563Y-106458571D01*
X79762796Y-106467492D01*
X79756916Y-106472902D01*
X79454506Y-106599119D01*
X79445552Y-106599143D01*
X79445494Y-106599119D01*
X79143576Y-106473108D01*
X79137261Y-106466759D01*
X79137114Y-106458241D01*
X79335168Y-105924812D01*
X79341260Y-105918249D01*
X79346136Y-105917184D01*
X79583435Y-105917184D01*
X79591708Y-105920611D01*
G37*
%TD.AperFunction*%
%TD*%
%TA.AperFunction,Conductor*%
%TO.N,/dout1_1_N*%
G36*
X83419649Y-52817627D02*
G01*
X83422552Y-52822438D01*
X83588650Y-53358616D01*
X83587825Y-53367533D01*
X83581980Y-53372875D01*
X83279506Y-53499119D01*
X83270552Y-53499143D01*
X83270494Y-53499119D01*
X82968019Y-53372875D01*
X82961704Y-53366526D01*
X82961349Y-53358618D01*
X83127448Y-52822437D01*
X83133169Y-52815549D01*
X83138624Y-52814200D01*
X83411376Y-52814200D01*
X83419649Y-52817627D01*
G37*
%TD.AperFunction*%
%TD*%
%TA.AperFunction,Conductor*%
%TO.N,GND*%
G36*
X107531911Y-105917627D02*
G01*
X107534708Y-105922112D01*
X107718250Y-106458413D01*
X107717686Y-106467350D01*
X107711686Y-106472998D01*
X107409506Y-106599119D01*
X107400552Y-106599143D01*
X107400494Y-106599119D01*
X107098313Y-106472998D01*
X107091998Y-106466649D01*
X107091749Y-106458413D01*
X107275292Y-105922112D01*
X107281213Y-105915394D01*
X107286362Y-105914200D01*
X107523638Y-105914200D01*
X107531911Y-105917627D01*
G37*
%TD.AperFunction*%
%TD*%
%TA.AperFunction,Conductor*%
%TO.N,GND*%
G36*
X88481911Y-105917627D02*
G01*
X88484708Y-105922112D01*
X88668250Y-106458413D01*
X88667686Y-106467350D01*
X88661686Y-106472998D01*
X88359506Y-106599119D01*
X88350552Y-106599143D01*
X88350494Y-106599119D01*
X88048313Y-106472998D01*
X88041998Y-106466649D01*
X88041749Y-106458413D01*
X88225292Y-105922112D01*
X88231213Y-105915394D01*
X88236362Y-105914200D01*
X88473638Y-105914200D01*
X88481911Y-105917627D01*
G37*
%TD.AperFunction*%
%TD*%
%TA.AperFunction,Conductor*%
%TO.N,/dout2_1_P*%
G36*
X79609649Y-52817627D02*
G01*
X79612552Y-52822438D01*
X79778650Y-53358616D01*
X79777825Y-53367533D01*
X79771980Y-53372875D01*
X79469506Y-53499119D01*
X79460552Y-53499143D01*
X79460494Y-53499119D01*
X79158019Y-53372875D01*
X79151704Y-53366526D01*
X79151349Y-53358618D01*
X79317448Y-52822437D01*
X79323169Y-52815549D01*
X79328624Y-52814200D01*
X79601376Y-52814200D01*
X79609649Y-52817627D01*
G37*
%TD.AperFunction*%
%TD*%
%TA.AperFunction,Conductor*%
%TO.N,/sck*%
G36*
X96101844Y-105918622D02*
G01*
X96104669Y-105923190D01*
X96283355Y-106458464D01*
X96282724Y-106467397D01*
X96276763Y-106472966D01*
X95974506Y-106599119D01*
X95965552Y-106599143D01*
X95965494Y-106599119D01*
X95663401Y-106473034D01*
X95657086Y-106466685D01*
X95656870Y-106458353D01*
X95845250Y-105923011D01*
X95851229Y-105916345D01*
X95856287Y-105915195D01*
X96093571Y-105915195D01*
X96101844Y-105918622D01*
G37*
%TD.AperFunction*%
%TD*%
%TA.AperFunction,Conductor*%
%TO.N,GND*%
G36*
X121141043Y-52931176D02*
G01*
X121308823Y-53098956D01*
X121312250Y-53107229D01*
X121311056Y-53112378D01*
X121061618Y-53621384D01*
X121054900Y-53627305D01*
X121046664Y-53627056D01*
X120743809Y-53502563D01*
X120737460Y-53496248D01*
X120737436Y-53496190D01*
X120612943Y-53193335D01*
X120612967Y-53184381D01*
X120618614Y-53178381D01*
X121127623Y-52928942D01*
X121136558Y-52928379D01*
X121141043Y-52931176D01*
G37*
%TD.AperFunction*%
%TD*%
%TA.AperFunction,Conductor*%
%TO.N,/dout0_0_P*%
G36*
X105009649Y-52817627D02*
G01*
X105012552Y-52822438D01*
X105178650Y-53358616D01*
X105177825Y-53367533D01*
X105171980Y-53372875D01*
X104869506Y-53499119D01*
X104860552Y-53499143D01*
X104860494Y-53499119D01*
X104558019Y-53372875D01*
X104551704Y-53366526D01*
X104551349Y-53358618D01*
X104717448Y-52822437D01*
X104723169Y-52815549D01*
X104728624Y-52814200D01*
X105001376Y-52814200D01*
X105009649Y-52817627D01*
G37*
%TD.AperFunction*%
%TD*%
%TA.AperFunction,Conductor*%
%TO.N,GND*%
G36*
X106441686Y-97877001D02*
G01*
X106448001Y-97883350D01*
X106448250Y-97891586D01*
X106264708Y-98427888D01*
X106258787Y-98434606D01*
X106253638Y-98435800D01*
X106016362Y-98435800D01*
X106008089Y-98432373D01*
X106005292Y-98427888D01*
X105821749Y-97891586D01*
X105822313Y-97882649D01*
X105828311Y-97877002D01*
X106130495Y-97750879D01*
X106139446Y-97750856D01*
X106441686Y-97877001D01*
G37*
%TD.AperFunction*%
%TD*%
%TA.AperFunction,Conductor*%
%TO.N,GND*%
G36*
X100081839Y-97727065D02*
G01*
X100088154Y-97733414D01*
X100088459Y-97741482D01*
X99914629Y-98275731D01*
X99908810Y-98282538D01*
X99903503Y-98283811D01*
X99666211Y-98283811D01*
X99657938Y-98280384D01*
X99655208Y-98276089D01*
X99648473Y-98257464D01*
X99461991Y-97741701D01*
X99462401Y-97732758D01*
X99468486Y-97726929D01*
X99770495Y-97600879D01*
X99779446Y-97600856D01*
X100081839Y-97727065D01*
G37*
%TD.AperFunction*%
%TD*%
%TA.AperFunction,Conductor*%
%TO.N,+3V3*%
G36*
X100517350Y-91224813D02*
G01*
X100522998Y-91230813D01*
X100649119Y-91532994D01*
X100649143Y-91541948D01*
X100649119Y-91542006D01*
X100522998Y-91844186D01*
X100516649Y-91850501D01*
X100508413Y-91850750D01*
X99972112Y-91667207D01*
X99965394Y-91661286D01*
X99964200Y-91656137D01*
X99964200Y-91418862D01*
X99967627Y-91410589D01*
X99972111Y-91407792D01*
X100508413Y-91224249D01*
X100517350Y-91224813D01*
G37*
%TD.AperFunction*%
%TD*%
%TA.AperFunction,Conductor*%
%TO.N,/trigger0_0*%
G36*
X143106686Y-91002001D02*
G01*
X143113001Y-91008350D01*
X143113250Y-91016586D01*
X142929708Y-91552888D01*
X142923787Y-91559606D01*
X142918638Y-91560800D01*
X142681362Y-91560800D01*
X142673089Y-91557373D01*
X142670292Y-91552888D01*
X142486749Y-91016586D01*
X142487313Y-91007649D01*
X142493311Y-91002002D01*
X142795495Y-90875879D01*
X142804446Y-90875856D01*
X143106686Y-91002001D01*
G37*
%TD.AperFunction*%
%TD*%
%TA.AperFunction,Conductor*%
%TO.N,GND*%
G36*
X102631686Y-45177001D02*
G01*
X102638001Y-45183350D01*
X102638250Y-45191586D01*
X102454708Y-45727888D01*
X102448787Y-45734606D01*
X102443638Y-45735800D01*
X102206362Y-45735800D01*
X102198089Y-45732373D01*
X102195292Y-45727888D01*
X102011749Y-45191586D01*
X102012313Y-45182649D01*
X102018311Y-45177002D01*
X102320495Y-45050879D01*
X102329446Y-45050856D01*
X102631686Y-45177001D01*
G37*
%TD.AperFunction*%
%TD*%
%TA.AperFunction,Conductor*%
%TO.N,GND*%
G36*
X99267468Y-90287221D02*
G01*
X99272918Y-90293122D01*
X99399119Y-90595494D01*
X99399143Y-90604448D01*
X99399119Y-90604506D01*
X99273089Y-90906466D01*
X99266740Y-90912781D01*
X99258267Y-90912946D01*
X98724361Y-90717312D01*
X98717772Y-90711248D01*
X98716686Y-90706326D01*
X98716686Y-90469031D01*
X98720113Y-90460758D01*
X98724807Y-90457891D01*
X99258545Y-90286488D01*
X99267468Y-90287221D01*
G37*
%TD.AperFunction*%
%TD*%
%TA.AperFunction,Conductor*%
%TO.N,/dout0_1_N*%
G36*
X87229649Y-52817627D02*
G01*
X87232552Y-52822438D01*
X87398650Y-53358616D01*
X87397825Y-53367533D01*
X87391980Y-53372875D01*
X87089506Y-53499119D01*
X87080552Y-53499143D01*
X87080494Y-53499119D01*
X86778019Y-53372875D01*
X86771704Y-53366526D01*
X86771349Y-53358618D01*
X86937448Y-52822437D01*
X86943169Y-52815549D01*
X86948624Y-52814200D01*
X87221376Y-52814200D01*
X87229649Y-52817627D01*
G37*
%TD.AperFunction*%
%TD*%
%TA.AperFunction,Conductor*%
%TO.N,/mosi*%
G36*
X98641911Y-105917627D02*
G01*
X98644708Y-105922112D01*
X98828250Y-106458413D01*
X98827686Y-106467350D01*
X98821686Y-106472998D01*
X98519506Y-106599119D01*
X98510552Y-106599143D01*
X98510494Y-106599119D01*
X98208313Y-106472998D01*
X98201998Y-106466649D01*
X98201749Y-106458413D01*
X98385292Y-105922112D01*
X98391213Y-105915394D01*
X98396362Y-105914200D01*
X98633638Y-105914200D01*
X98641911Y-105917627D01*
G37*
%TD.AperFunction*%
%TD*%
%TA.AperFunction,Conductor*%
%TO.N,/sync0_N*%
G36*
X93579805Y-52819616D02*
G01*
X93582646Y-52824233D01*
X93758414Y-53358494D01*
X93757744Y-53367423D01*
X93751807Y-53372947D01*
X93449507Y-53499119D01*
X93440552Y-53499143D01*
X93440494Y-53499119D01*
X93217673Y-53406120D01*
X93137866Y-53372811D01*
X93131552Y-53366463D01*
X93131144Y-53358729D01*
X93287537Y-52824601D01*
X93293151Y-52817624D01*
X93298766Y-52816189D01*
X93571532Y-52816189D01*
X93579805Y-52819616D01*
G37*
%TD.AperFunction*%
%TD*%
%TA.AperFunction,Conductor*%
%TO.N,+3V3*%
G36*
X105681686Y-85327001D02*
G01*
X105688001Y-85333350D01*
X105688250Y-85341586D01*
X105504708Y-85877888D01*
X105498787Y-85884606D01*
X105493638Y-85885800D01*
X105256362Y-85885800D01*
X105248089Y-85882373D01*
X105245292Y-85877888D01*
X105061749Y-85341586D01*
X105062313Y-85332649D01*
X105068311Y-85327002D01*
X105370495Y-85200879D01*
X105379446Y-85200856D01*
X105681686Y-85327001D01*
G37*
%TD.AperFunction*%
%TD*%
%TA.AperFunction,Conductor*%
%TO.N,/dout2_1_N*%
G36*
X80879649Y-52817627D02*
G01*
X80882552Y-52822438D01*
X81048650Y-53358616D01*
X81047825Y-53367533D01*
X81041980Y-53372875D01*
X80739506Y-53499119D01*
X80730552Y-53499143D01*
X80730494Y-53499119D01*
X80428019Y-53372875D01*
X80421704Y-53366526D01*
X80421349Y-53358618D01*
X80587448Y-52822437D01*
X80593169Y-52815549D01*
X80598624Y-52814200D01*
X80871376Y-52814200D01*
X80879649Y-52817627D01*
G37*
%TD.AperFunction*%
%TD*%
%TA.AperFunction,Conductor*%
%TO.N,/monitor1_1*%
G36*
X46925618Y-90746967D02*
G01*
X46931618Y-90752615D01*
X47181056Y-91261621D01*
X47181620Y-91270558D01*
X47178823Y-91275043D01*
X47011043Y-91442823D01*
X47002770Y-91446250D01*
X46997621Y-91445056D01*
X46844529Y-91370033D01*
X46488615Y-91195618D01*
X46482694Y-91188900D01*
X46482942Y-91180665D01*
X46607437Y-90877807D01*
X46613750Y-90871460D01*
X46916665Y-90746943D01*
X46925618Y-90746967D01*
G37*
%TD.AperFunction*%
%TD*%
%TA.AperFunction,Conductor*%
%TO.N,/dout2_0_N*%
G36*
X99929649Y-52817627D02*
G01*
X99932552Y-52822438D01*
X100098650Y-53358616D01*
X100097825Y-53367533D01*
X100091980Y-53372875D01*
X99789506Y-53499119D01*
X99780552Y-53499143D01*
X99780494Y-53499119D01*
X99478019Y-53372875D01*
X99471704Y-53366526D01*
X99471349Y-53358618D01*
X99637448Y-52822437D01*
X99643169Y-52815549D01*
X99648624Y-52814200D01*
X99921376Y-52814200D01*
X99929649Y-52817627D01*
G37*
%TD.AperFunction*%
%TD*%
%TA.AperFunction,Conductor*%
%TO.N,GND*%
G36*
X100906297Y-86626839D02*
G01*
X100912612Y-86633188D01*
X100912710Y-86641839D01*
X100707886Y-87173927D01*
X100701716Y-87180417D01*
X100696967Y-87181424D01*
X100459664Y-87181424D01*
X100451391Y-87177997D01*
X100448473Y-87173137D01*
X100286291Y-86641352D01*
X100287155Y-86632439D01*
X100292974Y-86627143D01*
X100595495Y-86500879D01*
X100604446Y-86500856D01*
X100906297Y-86626839D01*
G37*
%TD.AperFunction*%
%TD*%
%TA.AperFunction,Conductor*%
%TO.N,/sync1_N*%
G36*
X74529805Y-52819616D02*
G01*
X74532646Y-52824233D01*
X74708414Y-53358494D01*
X74707744Y-53367423D01*
X74701807Y-53372947D01*
X74399507Y-53499119D01*
X74390552Y-53499143D01*
X74390494Y-53499119D01*
X74167673Y-53406120D01*
X74087866Y-53372811D01*
X74081552Y-53366463D01*
X74081144Y-53358729D01*
X74237537Y-52824601D01*
X74243151Y-52817624D01*
X74248766Y-52816189D01*
X74521532Y-52816189D01*
X74529805Y-52819616D01*
G37*
%TD.AperFunction*%
%TD*%
%TA.AperFunction,Conductor*%
%TO.N,/clkout1_N*%
G36*
X89769649Y-52817627D02*
G01*
X89772552Y-52822438D01*
X89938650Y-53358616D01*
X89937825Y-53367533D01*
X89931980Y-53372875D01*
X89629506Y-53499119D01*
X89620552Y-53499143D01*
X89620494Y-53499119D01*
X89318019Y-53372875D01*
X89311704Y-53366526D01*
X89311349Y-53358618D01*
X89477448Y-52822437D01*
X89483169Y-52815549D01*
X89488624Y-52814200D01*
X89761376Y-52814200D01*
X89769649Y-52817627D01*
G37*
%TD.AperFunction*%
%TD*%
%TA.AperFunction,Conductor*%
%TO.N,/dout1_1_P*%
G36*
X82149665Y-52817826D02*
G01*
X82152561Y-52822615D01*
X82235235Y-53087855D01*
X82319626Y-53358603D01*
X82318816Y-53367521D01*
X82312962Y-53372882D01*
X82010506Y-53499119D01*
X82001552Y-53499143D01*
X82001494Y-53499119D01*
X81699004Y-53372869D01*
X81692689Y-53366520D01*
X81692329Y-53358627D01*
X81692337Y-53358603D01*
X81857457Y-52822654D01*
X81863167Y-52815757D01*
X81868638Y-52814399D01*
X82141392Y-52814399D01*
X82149665Y-52817826D01*
G37*
%TD.AperFunction*%
%TD*%
%TA.AperFunction,Conductor*%
%TO.N,/dout0_1_P*%
G36*
X85959649Y-52817627D02*
G01*
X85962552Y-52822438D01*
X86128650Y-53358616D01*
X86127825Y-53367533D01*
X86121980Y-53372875D01*
X85819506Y-53499119D01*
X85810552Y-53499143D01*
X85810494Y-53499119D01*
X85508019Y-53372875D01*
X85501704Y-53366526D01*
X85501349Y-53358618D01*
X85667448Y-52822437D01*
X85673169Y-52815549D01*
X85678624Y-52814200D01*
X85951376Y-52814200D01*
X85959649Y-52817627D01*
G37*
%TD.AperFunction*%
%TD*%
%TA.AperFunction,Conductor*%
%TO.N,+3V3*%
G36*
X111181686Y-86127001D02*
G01*
X111188001Y-86133350D01*
X111188250Y-86141586D01*
X111004708Y-86677888D01*
X110998787Y-86684606D01*
X110993638Y-86685800D01*
X110756362Y-86685800D01*
X110748089Y-86682373D01*
X110745292Y-86677888D01*
X110561749Y-86141586D01*
X110562313Y-86132649D01*
X110568311Y-86127002D01*
X110870495Y-86000879D01*
X110879446Y-86000856D01*
X111181686Y-86127001D01*
G37*
%TD.AperFunction*%
%TD*%
%TA.AperFunction,Conductor*%
%TO.N,/dout3_0_N*%
G36*
X96119649Y-52817627D02*
G01*
X96122552Y-52822438D01*
X96288650Y-53358616D01*
X96287825Y-53367533D01*
X96281980Y-53372875D01*
X95979506Y-53499119D01*
X95970552Y-53499143D01*
X95970494Y-53499119D01*
X95668019Y-53372875D01*
X95661704Y-53366526D01*
X95661349Y-53358618D01*
X95827448Y-52822437D01*
X95833169Y-52815549D01*
X95838624Y-52814200D01*
X96111376Y-52814200D01*
X96119649Y-52817627D01*
G37*
%TD.AperFunction*%
%TD*%
%TA.AperFunction,Conductor*%
%TO.N,/clkout1_P*%
G36*
X88499362Y-52821605D02*
G01*
X88502368Y-52826768D01*
X88649058Y-53358841D01*
X88647953Y-53367728D01*
X88642285Y-53372748D01*
X88339506Y-53499119D01*
X88330552Y-53499143D01*
X88330494Y-53499119D01*
X88028368Y-53373021D01*
X88022053Y-53366672D01*
X88021825Y-53358377D01*
X88207265Y-52826028D01*
X88213223Y-52819344D01*
X88218314Y-52818178D01*
X88491089Y-52818178D01*
X88499362Y-52821605D01*
G37*
%TD.AperFunction*%
%TD*%
%TA.AperFunction,Conductor*%
%TO.N,+3V3*%
G36*
X120411686Y-45177001D02*
G01*
X120418001Y-45183350D01*
X120418250Y-45191586D01*
X120234708Y-45727888D01*
X120228787Y-45734606D01*
X120223638Y-45735800D01*
X119986362Y-45735800D01*
X119978089Y-45732373D01*
X119975292Y-45727888D01*
X119791749Y-45191586D01*
X119792313Y-45182649D01*
X119798311Y-45177002D01*
X120100495Y-45050879D01*
X120109446Y-45050856D01*
X120411686Y-45177001D01*
G37*
%TD.AperFunction*%
%TD*%
%TA.AperFunction,Conductor*%
%TO.N,/vdd33_1*%
G36*
X88717569Y-91109564D02*
G01*
X89197175Y-91378136D01*
X89202719Y-91385168D01*
X89202279Y-91392792D01*
X89077563Y-91696190D01*
X89071248Y-91702539D01*
X89071190Y-91702563D01*
X88768966Y-91826797D01*
X88760012Y-91826773D01*
X88753720Y-91820481D01*
X88533254Y-91292075D01*
X88533232Y-91283121D01*
X88535778Y-91279300D01*
X88703580Y-91111498D01*
X88711852Y-91108072D01*
X88717569Y-91109564D01*
G37*
%TD.AperFunction*%
%TD*%
%TA.AperFunction,Conductor*%
%TO.N,GND*%
G36*
X110071911Y-52817627D02*
G01*
X110074708Y-52822112D01*
X110258250Y-53358413D01*
X110257686Y-53367350D01*
X110251686Y-53372998D01*
X109949506Y-53499119D01*
X109940552Y-53499143D01*
X109940494Y-53499119D01*
X109638313Y-53372998D01*
X109631998Y-53366649D01*
X109631749Y-53358413D01*
X109815292Y-52822112D01*
X109821213Y-52815394D01*
X109826362Y-52814200D01*
X110063638Y-52814200D01*
X110071911Y-52817627D01*
G37*
%TD.AperFunction*%
%TD*%
%TA.AperFunction,Conductor*%
%TO.N,GND*%
G36*
X83581686Y-45177001D02*
G01*
X83588001Y-45183350D01*
X83588250Y-45191586D01*
X83404708Y-45727888D01*
X83398787Y-45734606D01*
X83393638Y-45735800D01*
X83156362Y-45735800D01*
X83148089Y-45732373D01*
X83145292Y-45727888D01*
X82961749Y-45191586D01*
X82962313Y-45182649D01*
X82968311Y-45177002D01*
X83270495Y-45050879D01*
X83279446Y-45050856D01*
X83581686Y-45177001D01*
G37*
%TD.AperFunction*%
%TD*%
%TA.AperFunction,Conductor*%
%TO.N,+3V3*%
G36*
X79227888Y-92245292D02*
G01*
X79234606Y-92251213D01*
X79235800Y-92256362D01*
X79235800Y-92493637D01*
X79232373Y-92501910D01*
X79227888Y-92504707D01*
X78691586Y-92688250D01*
X78682649Y-92687686D01*
X78677001Y-92681687D01*
X78550879Y-92379504D01*
X78550856Y-92370552D01*
X78677002Y-92068311D01*
X78683350Y-92061998D01*
X78691586Y-92061749D01*
X79227888Y-92245292D01*
G37*
%TD.AperFunction*%
%TD*%
%TA.AperFunction,Conductor*%
%TO.N,GND*%
G36*
X113793334Y-87947942D02*
G01*
X114096190Y-88072436D01*
X114102539Y-88078751D01*
X114102563Y-88078809D01*
X114227056Y-88381664D01*
X114227032Y-88390618D01*
X114221384Y-88396618D01*
X113712378Y-88646056D01*
X113703441Y-88646620D01*
X113698956Y-88643823D01*
X113531176Y-88476043D01*
X113527749Y-88467770D01*
X113528941Y-88462625D01*
X113778381Y-87953614D01*
X113785099Y-87947694D01*
X113793334Y-87947942D01*
G37*
%TD.AperFunction*%
%TD*%
%TA.AperFunction,Conductor*%
%TO.N,+3V3*%
G36*
X79177888Y-89245292D02*
G01*
X79184606Y-89251213D01*
X79185800Y-89256362D01*
X79185800Y-89493637D01*
X79182373Y-89501910D01*
X79177888Y-89504707D01*
X78641586Y-89688250D01*
X78632649Y-89687686D01*
X78627001Y-89681687D01*
X78500879Y-89379504D01*
X78500856Y-89370552D01*
X78627002Y-89068311D01*
X78633350Y-89061998D01*
X78641586Y-89061749D01*
X79177888Y-89245292D01*
G37*
%TD.AperFunction*%
%TD*%
%TA.AperFunction,Conductor*%
%TO.N,/resetn_0*%
G36*
X144376686Y-91002001D02*
G01*
X144383001Y-91008350D01*
X144383250Y-91016586D01*
X144199708Y-91552888D01*
X144193787Y-91559606D01*
X144188638Y-91560800D01*
X143951362Y-91560800D01*
X143943089Y-91557373D01*
X143940292Y-91552888D01*
X143756749Y-91016586D01*
X143757313Y-91007649D01*
X143763311Y-91002002D01*
X144065495Y-90875879D01*
X144074446Y-90875856D01*
X144376686Y-91002001D01*
G37*
%TD.AperFunction*%
%TD*%
%TA.AperFunction,Conductor*%
%TO.N,/ss_0*%
G36*
X104991911Y-105917627D02*
G01*
X104994708Y-105922112D01*
X105178250Y-106458413D01*
X105177686Y-106467350D01*
X105171686Y-106472998D01*
X104869506Y-106599119D01*
X104860552Y-106599143D01*
X104860494Y-106599119D01*
X104558313Y-106472998D01*
X104551998Y-106466649D01*
X104551749Y-106458413D01*
X104735292Y-105922112D01*
X104741213Y-105915394D01*
X104746362Y-105914200D01*
X104983638Y-105914200D01*
X104991911Y-105917627D01*
G37*
%TD.AperFunction*%
%TD*%
%TA.AperFunction,Conductor*%
%TO.N,/clkout0_P*%
G36*
X107549362Y-52821605D02*
G01*
X107552368Y-52826768D01*
X107699058Y-53358841D01*
X107697953Y-53367728D01*
X107692285Y-53372748D01*
X107389506Y-53499119D01*
X107380552Y-53499143D01*
X107380494Y-53499119D01*
X107078368Y-53373021D01*
X107072053Y-53366672D01*
X107071825Y-53358377D01*
X107257265Y-52826028D01*
X107263223Y-52819344D01*
X107268314Y-52818178D01*
X107541089Y-52818178D01*
X107549362Y-52821605D01*
G37*
%TD.AperFunction*%
%TD*%
%TA.AperFunction,Conductor*%
%TO.N,/dout1_0_P*%
G36*
X101199665Y-52817826D02*
G01*
X101202561Y-52822615D01*
X101285235Y-53087855D01*
X101369626Y-53358603D01*
X101368816Y-53367521D01*
X101362962Y-53372882D01*
X101060506Y-53499119D01*
X101051552Y-53499143D01*
X101051494Y-53499119D01*
X100749004Y-53372869D01*
X100742689Y-53366520D01*
X100742329Y-53358627D01*
X100742337Y-53358603D01*
X100907457Y-52822654D01*
X100913167Y-52815757D01*
X100918638Y-52814399D01*
X101191392Y-52814399D01*
X101199665Y-52817826D01*
G37*
%TD.AperFunction*%
%TD*%
%TA.AperFunction,Conductor*%
%TO.N,/vddpix_0*%
G36*
X113767350Y-89867713D02*
G01*
X113772998Y-89873713D01*
X113899119Y-90175894D01*
X113899143Y-90184848D01*
X113899119Y-90184906D01*
X113772998Y-90487086D01*
X113766649Y-90493401D01*
X113758413Y-90493650D01*
X113222112Y-90310107D01*
X113215394Y-90304186D01*
X113214200Y-90299037D01*
X113214200Y-90061762D01*
X113217627Y-90053489D01*
X113222111Y-90050692D01*
X113758413Y-89867149D01*
X113767350Y-89867713D01*
G37*
%TD.AperFunction*%
%TD*%
%TA.AperFunction,Conductor*%
%TO.N,/noip_clk_1*%
G36*
X39305618Y-90746967D02*
G01*
X39311618Y-90752615D01*
X39561056Y-91261621D01*
X39561620Y-91270558D01*
X39558823Y-91275043D01*
X39391043Y-91442823D01*
X39382770Y-91446250D01*
X39377621Y-91445056D01*
X39224529Y-91370033D01*
X38868615Y-91195618D01*
X38862694Y-91188900D01*
X38862942Y-91180665D01*
X38987437Y-90877807D01*
X38993750Y-90871460D01*
X39296665Y-90746943D01*
X39305618Y-90746967D01*
G37*
%TD.AperFunction*%
%TD*%
%TA.AperFunction,Conductor*%
%TO.N,GND*%
G36*
X116421911Y-52817627D02*
G01*
X116424708Y-52822112D01*
X116608250Y-53358413D01*
X116607686Y-53367350D01*
X116601686Y-53372998D01*
X116299506Y-53499119D01*
X116290552Y-53499143D01*
X116290494Y-53499119D01*
X115988313Y-53372998D01*
X115981998Y-53366649D01*
X115981749Y-53358413D01*
X116165292Y-52822112D01*
X116171213Y-52815394D01*
X116176362Y-52814200D01*
X116413638Y-52814200D01*
X116421911Y-52817627D01*
G37*
%TD.AperFunction*%
%TD*%
%TA.AperFunction,Conductor*%
%TO.N,+3V3*%
G36*
X102472375Y-90643942D02*
G01*
X102929089Y-90867754D01*
X102981384Y-90893381D01*
X102987305Y-90900099D01*
X102987056Y-90908335D01*
X102862563Y-91211190D01*
X102856248Y-91217539D01*
X102856190Y-91217563D01*
X102553335Y-91342056D01*
X102544381Y-91342032D01*
X102538381Y-91336384D01*
X102477030Y-91211190D01*
X102288942Y-90827376D01*
X102288379Y-90818441D01*
X102291174Y-90813958D01*
X102458957Y-90646175D01*
X102467229Y-90642749D01*
X102472375Y-90643942D01*
G37*
%TD.AperFunction*%
%TD*%
%TA.AperFunction,Conductor*%
%TO.N,/mosi*%
G36*
X112611844Y-105918622D02*
G01*
X112614669Y-105923190D01*
X112793355Y-106458464D01*
X112792724Y-106467397D01*
X112786763Y-106472966D01*
X112484506Y-106599119D01*
X112475552Y-106599143D01*
X112475494Y-106599119D01*
X112173401Y-106473034D01*
X112167086Y-106466685D01*
X112166870Y-106458353D01*
X112355250Y-105923011D01*
X112361229Y-105916345D01*
X112366287Y-105915195D01*
X112603571Y-105915195D01*
X112611844Y-105918622D01*
G37*
%TD.AperFunction*%
%TD*%
%TA.AperFunction,Conductor*%
%TO.N,GND*%
G36*
X112397184Y-94693582D02*
G01*
X112399949Y-94697975D01*
X112588134Y-95233356D01*
X112587644Y-95242298D01*
X112581602Y-95248033D01*
X112279506Y-95374119D01*
X112270552Y-95374143D01*
X112270494Y-95374119D01*
X111968239Y-95247967D01*
X111961924Y-95241618D01*
X111961648Y-95233465D01*
X112140529Y-94698146D01*
X112146401Y-94691386D01*
X112151626Y-94690155D01*
X112388911Y-94690155D01*
X112397184Y-94693582D01*
G37*
%TD.AperFunction*%
%TD*%
%TA.AperFunction,Conductor*%
%TO.N,/sync0_P*%
G36*
X92309649Y-52817627D02*
G01*
X92312552Y-52822438D01*
X92478650Y-53358616D01*
X92477825Y-53367533D01*
X92471980Y-53372875D01*
X92169506Y-53499119D01*
X92160552Y-53499143D01*
X92160494Y-53499119D01*
X91858019Y-53372875D01*
X91851704Y-53366526D01*
X91851349Y-53358618D01*
X92017448Y-52822437D01*
X92023169Y-52815549D01*
X92028624Y-52814200D01*
X92301376Y-52814200D01*
X92309649Y-52817627D01*
G37*
%TD.AperFunction*%
%TD*%
%TA.AperFunction,Conductor*%
%TO.N,/miso*%
G36*
X99911911Y-105917627D02*
G01*
X99914708Y-105922112D01*
X100098250Y-106458413D01*
X100097686Y-106467350D01*
X100091686Y-106472998D01*
X99789506Y-106599119D01*
X99780552Y-106599143D01*
X99780494Y-106599119D01*
X99478313Y-106472998D01*
X99471998Y-106466649D01*
X99471749Y-106458413D01*
X99655292Y-105922112D01*
X99661213Y-105915394D01*
X99666362Y-105914200D01*
X99903638Y-105914200D01*
X99911911Y-105917627D01*
G37*
%TD.AperFunction*%
%TD*%
%TA.AperFunction,Conductor*%
%TO.N,/vdd18_1*%
G36*
X89593334Y-89397942D02*
G01*
X89896190Y-89522436D01*
X89902539Y-89528751D01*
X89902563Y-89528809D01*
X90027056Y-89831664D01*
X90027032Y-89840618D01*
X90021384Y-89846618D01*
X89512378Y-90096056D01*
X89503441Y-90096620D01*
X89498956Y-90093823D01*
X89331176Y-89926043D01*
X89327749Y-89917770D01*
X89328941Y-89912625D01*
X89578381Y-89403614D01*
X89585099Y-89397694D01*
X89593334Y-89397942D01*
G37*
%TD.AperFunction*%
%TD*%
%TA.AperFunction,Conductor*%
%TO.N,GND*%
G36*
X103721911Y-52817627D02*
G01*
X103724708Y-52822112D01*
X103908250Y-53358413D01*
X103907686Y-53367350D01*
X103901686Y-53372998D01*
X103599506Y-53499119D01*
X103590552Y-53499143D01*
X103590494Y-53499119D01*
X103288313Y-53372998D01*
X103281998Y-53366649D01*
X103281749Y-53358413D01*
X103465292Y-52822112D01*
X103471213Y-52815394D01*
X103476362Y-52814200D01*
X103713638Y-52814200D01*
X103721911Y-52817627D01*
G37*
%TD.AperFunction*%
%TD*%
%TA.AperFunction,Conductor*%
%TO.N,/vdd18_0*%
G36*
X137332375Y-90303942D02*
G01*
X137789089Y-90527754D01*
X137841384Y-90553381D01*
X137847305Y-90560099D01*
X137847056Y-90568335D01*
X137722563Y-90871190D01*
X137716248Y-90877539D01*
X137716190Y-90877563D01*
X137413335Y-91002056D01*
X137404381Y-91002032D01*
X137398381Y-90996384D01*
X137337030Y-90871190D01*
X137148942Y-90487376D01*
X137148379Y-90478441D01*
X137151174Y-90473958D01*
X137318957Y-90306175D01*
X137327229Y-90302749D01*
X137332375Y-90303942D01*
G37*
%TD.AperFunction*%
%TD*%
%TA.AperFunction,Conductor*%
%TO.N,/dout3_0_P*%
G36*
X94849649Y-52817627D02*
G01*
X94852552Y-52822438D01*
X95018650Y-53358616D01*
X95017825Y-53367533D01*
X95011980Y-53372875D01*
X94709506Y-53499119D01*
X94700552Y-53499143D01*
X94700494Y-53499119D01*
X94398019Y-53372875D01*
X94391704Y-53366526D01*
X94391349Y-53358618D01*
X94557448Y-52822437D01*
X94563169Y-52815549D01*
X94568624Y-52814200D01*
X94841376Y-52814200D01*
X94849649Y-52817627D01*
G37*
%TD.AperFunction*%
%TD*%
%TA.AperFunction,Conductor*%
%TO.N,GND*%
G36*
X79056686Y-85002001D02*
G01*
X79063001Y-85008350D01*
X79063250Y-85016586D01*
X78879708Y-85552888D01*
X78873787Y-85559606D01*
X78868638Y-85560800D01*
X78631362Y-85560800D01*
X78623089Y-85557373D01*
X78620292Y-85552888D01*
X78436749Y-85016586D01*
X78437313Y-85007649D01*
X78443311Y-85002002D01*
X78745495Y-84875879D01*
X78754446Y-84875856D01*
X79056686Y-85002001D01*
G37*
%TD.AperFunction*%
%TD*%
%TA.AperFunction,Conductor*%
%TO.N,/vdd33_0*%
G36*
X140029737Y-90224014D02*
G01*
X140492974Y-90624329D01*
X140496993Y-90632331D01*
X140494176Y-90640831D01*
X140493621Y-90641430D01*
X140264147Y-90872245D01*
X140255884Y-90875696D01*
X140255826Y-90875696D01*
X139927083Y-90875020D01*
X139918817Y-90871576D01*
X139915550Y-90865138D01*
X139842827Y-90402387D01*
X139844928Y-90393683D01*
X139846106Y-90392304D01*
X140013817Y-90224593D01*
X140022089Y-90221167D01*
X140029737Y-90224014D01*
G37*
%TD.AperFunction*%
%TD*%
%TA.AperFunction,Conductor*%
%TO.N,GND*%
G36*
X94831911Y-105917627D02*
G01*
X94834708Y-105922112D01*
X95018250Y-106458413D01*
X95017686Y-106467350D01*
X95011686Y-106472998D01*
X94709506Y-106599119D01*
X94700552Y-106599143D01*
X94700494Y-106599119D01*
X94398313Y-106472998D01*
X94391998Y-106466649D01*
X94391749Y-106458413D01*
X94575292Y-105922112D01*
X94581213Y-105915394D01*
X94586362Y-105914200D01*
X94823638Y-105914200D01*
X94831911Y-105917627D01*
G37*
%TD.AperFunction*%
%TD*%
%TA.AperFunction,Conductor*%
%TO.N,/monitor1_0*%
G36*
X146916511Y-91001928D02*
G01*
X146922826Y-91008277D01*
X146923008Y-91016703D01*
X146729792Y-91551089D01*
X146723756Y-91557704D01*
X146718789Y-91558811D01*
X146481497Y-91558811D01*
X146473224Y-91555384D01*
X146470371Y-91550731D01*
X146296540Y-91016482D01*
X146297239Y-91007555D01*
X146303158Y-91002066D01*
X146605495Y-90875879D01*
X146614446Y-90875856D01*
X146916511Y-91001928D01*
G37*
%TD.AperFunction*%
%TD*%
%TA.AperFunction,Conductor*%
%TO.N,/monitor0_1*%
G36*
X45655618Y-90746967D02*
G01*
X45661618Y-90752615D01*
X45911056Y-91261621D01*
X45911620Y-91270558D01*
X45908823Y-91275043D01*
X45741043Y-91442823D01*
X45732770Y-91446250D01*
X45727621Y-91445056D01*
X45574529Y-91370033D01*
X45218615Y-91195618D01*
X45212694Y-91188900D01*
X45212942Y-91180665D01*
X45337437Y-90877807D01*
X45343750Y-90871460D01*
X45646665Y-90746943D01*
X45655618Y-90746967D01*
G37*
%TD.AperFunction*%
%TD*%
%TA.AperFunction,Conductor*%
%TO.N,GND*%
G36*
X77231686Y-45177001D02*
G01*
X77238001Y-45183350D01*
X77238250Y-45191586D01*
X77054708Y-45727888D01*
X77048787Y-45734606D01*
X77043638Y-45735800D01*
X76806362Y-45735800D01*
X76798089Y-45732373D01*
X76795292Y-45727888D01*
X76611749Y-45191586D01*
X76612313Y-45182649D01*
X76618311Y-45177002D01*
X76920495Y-45050879D01*
X76929446Y-45050856D01*
X77231686Y-45177001D01*
G37*
%TD.AperFunction*%
%TD*%
%TA.AperFunction,Conductor*%
%TO.N,GND*%
G36*
X120352375Y-106028942D02*
G01*
X120809089Y-106252754D01*
X120861384Y-106278381D01*
X120867305Y-106285099D01*
X120867056Y-106293335D01*
X120742563Y-106596190D01*
X120736248Y-106602539D01*
X120736190Y-106602563D01*
X120433335Y-106727056D01*
X120424381Y-106727032D01*
X120418381Y-106721384D01*
X120357030Y-106596190D01*
X120168942Y-106212376D01*
X120168379Y-106203441D01*
X120171174Y-106198958D01*
X120338957Y-106031175D01*
X120347229Y-106027749D01*
X120352375Y-106028942D01*
G37*
%TD.AperFunction*%
%TD*%
%TA.AperFunction,Conductor*%
%TO.N,GND*%
G36*
X108981686Y-45177001D02*
G01*
X108988001Y-45183350D01*
X108988250Y-45191586D01*
X108804708Y-45727888D01*
X108798787Y-45734606D01*
X108793638Y-45735800D01*
X108556362Y-45735800D01*
X108548089Y-45732373D01*
X108545292Y-45727888D01*
X108361749Y-45191586D01*
X108362313Y-45182649D01*
X108368311Y-45177002D01*
X108670495Y-45050879D01*
X108679446Y-45050856D01*
X108981686Y-45177001D01*
G37*
%TD.AperFunction*%
%TD*%
%TA.AperFunction,Conductor*%
%TO.N,/ss_1*%
G36*
X97371911Y-105917627D02*
G01*
X97374708Y-105922112D01*
X97558250Y-106458413D01*
X97557686Y-106467350D01*
X97551686Y-106472998D01*
X97249506Y-106599119D01*
X97240552Y-106599143D01*
X97240494Y-106599119D01*
X96938313Y-106472998D01*
X96931998Y-106466649D01*
X96931749Y-106458413D01*
X97115292Y-105922112D01*
X97121213Y-105915394D01*
X97126362Y-105914200D01*
X97363638Y-105914200D01*
X97371911Y-105917627D01*
G37*
%TD.AperFunction*%
%TD*%
%TA.AperFunction,Conductor*%
%TO.N,GND*%
G36*
X91021911Y-52817627D02*
G01*
X91024708Y-52822112D01*
X91208250Y-53358413D01*
X91207686Y-53367350D01*
X91201686Y-53372998D01*
X90899506Y-53499119D01*
X90890552Y-53499143D01*
X90890494Y-53499119D01*
X90588313Y-53372998D01*
X90581998Y-53366649D01*
X90581749Y-53358413D01*
X90765292Y-52822112D01*
X90771213Y-52815394D01*
X90776362Y-52814200D01*
X91013638Y-52814200D01*
X91021911Y-52817627D01*
G37*
%TD.AperFunction*%
%TD*%
%TA.AperFunction,Conductor*%
%TO.N,/dout2_0_P*%
G36*
X98659649Y-52817627D02*
G01*
X98662552Y-52822438D01*
X98828650Y-53358616D01*
X98827825Y-53367533D01*
X98821980Y-53372875D01*
X98519506Y-53499119D01*
X98510552Y-53499143D01*
X98510494Y-53499119D01*
X98208019Y-53372875D01*
X98201704Y-53366526D01*
X98201349Y-53358618D01*
X98367448Y-52822437D01*
X98373169Y-52815549D01*
X98378624Y-52814200D01*
X98651376Y-52814200D01*
X98659649Y-52817627D01*
G37*
%TD.AperFunction*%
%TD*%
%TA.AperFunction,Conductor*%
%TO.N,/dout3_1_P*%
G36*
X75799649Y-52817627D02*
G01*
X75802552Y-52822438D01*
X75968650Y-53358616D01*
X75967825Y-53367533D01*
X75961980Y-53372875D01*
X75659506Y-53499119D01*
X75650552Y-53499143D01*
X75650494Y-53499119D01*
X75348019Y-53372875D01*
X75341704Y-53366526D01*
X75341349Y-53358618D01*
X75507448Y-52822437D01*
X75513169Y-52815549D01*
X75518624Y-52814200D01*
X75791376Y-52814200D01*
X75799649Y-52817627D01*
G37*
%TD.AperFunction*%
%TD*%
%TA.AperFunction,Conductor*%
%TO.N,GND*%
G36*
X93306686Y-86627001D02*
G01*
X93313001Y-86633350D01*
X93313250Y-86641586D01*
X93129708Y-87177888D01*
X93123787Y-87184606D01*
X93118638Y-87185800D01*
X92881362Y-87185800D01*
X92873089Y-87182373D01*
X92870292Y-87177888D01*
X92686749Y-86641586D01*
X92687313Y-86632649D01*
X92693311Y-86627002D01*
X92995495Y-86500879D01*
X93004446Y-86500856D01*
X93306686Y-86627001D01*
G37*
%TD.AperFunction*%
%TD*%
%TA.AperFunction,Conductor*%
%TO.N,/dout1_0_N*%
G36*
X102469649Y-52817627D02*
G01*
X102472552Y-52822438D01*
X102638650Y-53358616D01*
X102637825Y-53367533D01*
X102631980Y-53372875D01*
X102329506Y-53499119D01*
X102320552Y-53499143D01*
X102320494Y-53499119D01*
X102018019Y-53372875D01*
X102011704Y-53366526D01*
X102011349Y-53358618D01*
X102177448Y-52822437D01*
X102183169Y-52815549D01*
X102188624Y-52814200D01*
X102461376Y-52814200D01*
X102469649Y-52817627D01*
G37*
%TD.AperFunction*%
%TD*%
%TA.AperFunction,Conductor*%
%TO.N,/dout3_1_N*%
G36*
X77069649Y-52817627D02*
G01*
X77072552Y-52822438D01*
X77238650Y-53358616D01*
X77237825Y-53367533D01*
X77231980Y-53372875D01*
X76929506Y-53499119D01*
X76920552Y-53499143D01*
X76920494Y-53499119D01*
X76618019Y-53372875D01*
X76611704Y-53366526D01*
X76611349Y-53358618D01*
X76777448Y-52822437D01*
X76783169Y-52815549D01*
X76788624Y-52814200D01*
X77061376Y-52814200D01*
X77069649Y-52817627D01*
G37*
%TD.AperFunction*%
%TD*%
%TA.AperFunction,Conductor*%
%TO.N,/clkout0_N*%
G36*
X108819649Y-52817627D02*
G01*
X108822552Y-52822438D01*
X108988650Y-53358616D01*
X108987825Y-53367533D01*
X108981980Y-53372875D01*
X108679506Y-53499119D01*
X108670552Y-53499143D01*
X108670494Y-53499119D01*
X108368019Y-53372875D01*
X108361704Y-53366526D01*
X108361349Y-53358618D01*
X108527448Y-52822437D01*
X108533169Y-52815549D01*
X108538624Y-52814200D01*
X108811376Y-52814200D01*
X108819649Y-52817627D01*
G37*
%TD.AperFunction*%
%TD*%
%TA.AperFunction,Conductor*%
%TO.N,/sync1_P*%
G36*
X73259649Y-52817627D02*
G01*
X73262552Y-52822438D01*
X73428650Y-53358616D01*
X73427825Y-53367533D01*
X73421980Y-53372875D01*
X73119506Y-53499119D01*
X73110552Y-53499143D01*
X73110494Y-53499119D01*
X72808019Y-53372875D01*
X72801704Y-53366526D01*
X72801349Y-53358618D01*
X72967448Y-52822437D01*
X72973169Y-52815549D01*
X72978624Y-52814200D01*
X73251376Y-52814200D01*
X73259649Y-52817627D01*
G37*
%TD.AperFunction*%
%TD*%
%TA.AperFunction,Conductor*%
%TO.N,+3V3*%
G36*
X87397111Y-92142627D02*
G01*
X87399908Y-92147112D01*
X87583450Y-92683413D01*
X87582886Y-92692350D01*
X87576886Y-92697998D01*
X87274706Y-92824119D01*
X87265752Y-92824143D01*
X87265694Y-92824119D01*
X86963513Y-92697998D01*
X86957198Y-92691649D01*
X86956949Y-92683413D01*
X87140492Y-92147112D01*
X87146413Y-92140394D01*
X87151562Y-92139200D01*
X87388838Y-92139200D01*
X87397111Y-92142627D01*
G37*
%TD.AperFunction*%
%TD*%
%TA.AperFunction,Conductor*%
%TO.N,/resetn_1*%
G36*
X44376686Y-91001001D02*
G01*
X44383001Y-91007350D01*
X44383250Y-91015586D01*
X44199708Y-91551888D01*
X44193787Y-91558606D01*
X44188638Y-91559800D01*
X43951362Y-91559800D01*
X43943089Y-91556373D01*
X43940292Y-91551888D01*
X43756749Y-91015586D01*
X43757313Y-91006649D01*
X43763311Y-91001002D01*
X44065495Y-90874879D01*
X44074446Y-90874856D01*
X44376686Y-91001001D01*
G37*
%TD.AperFunction*%
%TD*%
%TA.AperFunction,Conductor*%
%TO.N,GND*%
G36*
X120352375Y-52928942D02*
G01*
X120809089Y-53152754D01*
X120861384Y-53178381D01*
X120867305Y-53185099D01*
X120867056Y-53193335D01*
X120742563Y-53496190D01*
X120736248Y-53502539D01*
X120736190Y-53502563D01*
X120433335Y-53627056D01*
X120424381Y-53627032D01*
X120418381Y-53621384D01*
X120357030Y-53496190D01*
X120168942Y-53112376D01*
X120168379Y-53103441D01*
X120171174Y-53098958D01*
X120338957Y-52931175D01*
X120347229Y-52927749D01*
X120352375Y-52928942D01*
G37*
%TD.AperFunction*%
%TD*%
%TA.AperFunction,Conductor*%
%TO.N,/trigger0_1*%
G36*
X43106686Y-91001001D02*
G01*
X43113001Y-91007350D01*
X43113250Y-91015586D01*
X42929708Y-91551888D01*
X42923787Y-91558606D01*
X42918638Y-91559800D01*
X42681362Y-91559800D01*
X42673089Y-91556373D01*
X42670292Y-91551888D01*
X42486749Y-91015586D01*
X42487313Y-91006649D01*
X42493311Y-91001002D01*
X42795495Y-90874879D01*
X42804446Y-90874856D01*
X43106686Y-91001001D01*
G37*
%TD.AperFunction*%
%TD*%
%TA.AperFunction,Conductor*%
%TO.N,GND*%
G36*
X79277888Y-90670892D02*
G01*
X79284606Y-90676813D01*
X79285800Y-90681962D01*
X79285800Y-90919237D01*
X79282373Y-90927510D01*
X79277888Y-90930307D01*
X78741586Y-91113850D01*
X78732649Y-91113286D01*
X78727001Y-91107287D01*
X78600879Y-90805104D01*
X78600856Y-90796152D01*
X78727002Y-90493911D01*
X78733350Y-90487598D01*
X78741586Y-90487349D01*
X79277888Y-90670892D01*
G37*
%TD.AperFunction*%
%TD*%
%TA.AperFunction,Conductor*%
%TO.N,/monitor0_0*%
G36*
X145646686Y-91002001D02*
G01*
X145653001Y-91008350D01*
X145653250Y-91016586D01*
X145469708Y-91552888D01*
X145463787Y-91559606D01*
X145458638Y-91560800D01*
X145221362Y-91560800D01*
X145213089Y-91557373D01*
X145210292Y-91552888D01*
X145026749Y-91016586D01*
X145027313Y-91007649D01*
X145033311Y-91002002D01*
X145335495Y-90875879D01*
X145344446Y-90875856D01*
X145646686Y-91002001D01*
G37*
%TD.AperFunction*%
%TD*%
%TA.AperFunction,Conductor*%
%TO.N,GND*%
G36*
X121141043Y-106031176D02*
G01*
X121308823Y-106198956D01*
X121312250Y-106207229D01*
X121311056Y-106212378D01*
X121061618Y-106721384D01*
X121054900Y-106727305D01*
X121046664Y-106727056D01*
X120743809Y-106602563D01*
X120737460Y-106596248D01*
X120737436Y-106596190D01*
X120612943Y-106293335D01*
X120612967Y-106284381D01*
X120618614Y-106278381D01*
X121127623Y-106028942D01*
X121136558Y-106028379D01*
X121141043Y-106031176D01*
G37*
%TD.AperFunction*%
%TD*%
%TA.AperFunction,Conductor*%
%TO.N,GND*%
G36*
X78321911Y-52817627D02*
G01*
X78324708Y-52822112D01*
X78508250Y-53358413D01*
X78507686Y-53367350D01*
X78501686Y-53372998D01*
X78199506Y-53499119D01*
X78190552Y-53499143D01*
X78190494Y-53499119D01*
X77888313Y-53372998D01*
X77881998Y-53366649D01*
X77881749Y-53358413D01*
X78065292Y-52822112D01*
X78071213Y-52815394D01*
X78076362Y-52814200D01*
X78313638Y-52814200D01*
X78321911Y-52817627D01*
G37*
%TD.AperFunction*%
%TD*%
%TA.AperFunction,Conductor*%
%TO.N,/sck*%
G36*
X102451911Y-105917627D02*
G01*
X102454708Y-105922112D01*
X102638250Y-106458413D01*
X102637686Y-106467350D01*
X102631686Y-106472998D01*
X102329506Y-106599119D01*
X102320552Y-106599143D01*
X102320494Y-106599119D01*
X102018313Y-106472998D01*
X102011998Y-106466649D01*
X102011749Y-106458413D01*
X102195292Y-105922112D01*
X102201213Y-105915394D01*
X102206362Y-105914200D01*
X102443638Y-105914200D01*
X102451911Y-105917627D01*
G37*
%TD.AperFunction*%
%TD*%
%TA.AperFunction,Conductor*%
%TO.N,/noip_clk_0*%
G36*
X138683334Y-90747942D02*
G01*
X138986190Y-90872436D01*
X138992539Y-90878751D01*
X138992563Y-90878809D01*
X139117056Y-91181664D01*
X139117032Y-91190618D01*
X139111384Y-91196618D01*
X138602378Y-91446056D01*
X138593441Y-91446620D01*
X138588956Y-91443823D01*
X138421176Y-91276043D01*
X138417749Y-91267770D01*
X138418941Y-91262625D01*
X138668381Y-90753614D01*
X138675099Y-90747694D01*
X138683334Y-90747942D01*
G37*
%TD.AperFunction*%
%TD*%
%TA.AperFunction,Conductor*%
%TO.N,+3V3*%
G36*
X120693334Y-97947942D02*
G01*
X120996190Y-98072436D01*
X121002539Y-98078751D01*
X121002563Y-98078809D01*
X121127056Y-98381664D01*
X121127032Y-98390618D01*
X121121384Y-98396618D01*
X120612378Y-98646056D01*
X120603441Y-98646620D01*
X120598956Y-98643823D01*
X120431176Y-98476043D01*
X120427749Y-98467770D01*
X120428941Y-98462625D01*
X120678381Y-97953614D01*
X120685099Y-97947694D01*
X120693334Y-97947942D01*
G37*
%TD.AperFunction*%
%TD*%
%TA.AperFunction,Conductor*%
%TO.N,/dout0_0_N*%
G36*
X106279649Y-52817627D02*
G01*
X106282552Y-52822438D01*
X106448650Y-53358616D01*
X106447825Y-53367533D01*
X106441980Y-53372875D01*
X106139506Y-53499119D01*
X106130552Y-53499143D01*
X106130494Y-53499119D01*
X105828019Y-53372875D01*
X105821704Y-53366526D01*
X105821349Y-53358618D01*
X105987448Y-52822437D01*
X105993169Y-52815549D01*
X105998624Y-52814200D01*
X106271376Y-52814200D01*
X106279649Y-52817627D01*
G37*
%TD.AperFunction*%
%TD*%
M02*
