M48
; DRILL file {KiCad 8.0.3-8.0.3-0~ubuntu24.04.1} date 2024-07-09T09:24:59+0200
; FORMAT={-:-/ absolute / metric / decimal}
; #@! TF.CreationDate,2024-07-09T09:24:59+02:00
; #@! TF.GenerationSoftware,Kicad,Pcbnew,8.0.3-8.0.3-0~ubuntu24.04.1
; #@! TF.FileFunction,Plated,1,4,PTH
FMAT,2
METRIC
; #@! TA.AperFunction,Plated,PTH,ViaDrill
T1C0.330
%
G90
G05
T1
X80.0Y-62.375
X81.066Y-66.444
X81.067Y-64.412
X81.067Y-65.428
X81.067Y-67.46
X81.067Y-70.508
X81.067Y-71.524
X81.067Y-72.54
X81.067Y-74.572
X81.067Y-75.588
X82.55Y-87.675
X83.65Y-55.475
X84.413Y-78.752
X84.92Y-55.475
X85.429Y-78.752
X86.19Y-55.475
X86.445Y-78.752
X87.46Y-55.475
X87.46Y-78.752
X88.476Y-78.753
X88.73Y-55.475
X89.493Y-78.752
X90.0Y-55.475
X90.509Y-78.752
X91.27Y-55.475
X91.525Y-78.752
X91.905Y-88.985
X92.54Y-55.475
X92.541Y-78.752
X93.175Y-88.985
X93.557Y-78.752
X93.81Y-55.475
X94.445Y-88.985
X94.573Y-78.752
X95.08Y-55.475
X95.715Y-88.985
X96.35Y-55.475
X97.62Y-55.475
X98.752Y-64.412
X98.752Y-65.428
X98.752Y-69.492
X98.752Y-70.508
X98.752Y-72.54
X98.752Y-73.556
X98.752Y-74.572
X98.89Y-62.5
M30
