%TF.GenerationSoftware,KiCad,Pcbnew,8.0.3-8.0.3-0~ubuntu24.04.1*%
%TF.CreationDate,2024-07-09T09:25:00+02:00*%
%TF.ProjectId,PythonBreakout,50797468-6f6e-4427-9265-616b6f75742e,rev?*%
%TF.SameCoordinates,Original*%
%TF.FileFunction,Drillmap*%
%TF.FilePolarity,Positive*%
%FSLAX45Y45*%
G04 Gerber Fmt 4.5, Leading zero omitted, Abs format (unit mm)*
G04 Created by KiCad (PCBNEW 8.0.3-8.0.3-0~ubuntu24.04.1) date 2024-07-09 09:25:00*
%MOMM*%
%LPD*%
G01*
G04 APERTURE LIST*
%ADD10C,0.050000*%
%ADD11C,0.200000*%
%ADD12C,0.100000*%
G04 APERTURE END LIST*
D10*
X7500000Y-5287500D02*
X10400000Y-5287500D01*
X10400000Y-9062500D01*
X7500000Y-9062500D01*
X7500000Y-5287500D01*
D11*
D12*
X7983490Y-6220990D02*
X8016510Y-6254010D01*
X8016510Y-6220990D02*
X7983490Y-6254010D01*
X8090090Y-6627890D02*
X8123110Y-6660910D01*
X8123110Y-6627890D02*
X8090090Y-6660910D01*
X8090190Y-6424690D02*
X8123210Y-6457710D01*
X8123210Y-6424690D02*
X8090190Y-6457710D01*
X8090190Y-6526290D02*
X8123210Y-6559310D01*
X8123210Y-6526290D02*
X8090190Y-6559310D01*
X8090190Y-6729490D02*
X8123210Y-6762510D01*
X8123210Y-6729490D02*
X8090190Y-6762510D01*
X8090190Y-7034290D02*
X8123210Y-7067310D01*
X8123210Y-7034290D02*
X8090190Y-7067310D01*
X8090190Y-7135890D02*
X8123210Y-7168910D01*
X8123210Y-7135890D02*
X8090190Y-7168910D01*
X8090190Y-7237490D02*
X8123210Y-7270510D01*
X8123210Y-7237490D02*
X8090190Y-7270510D01*
X8090190Y-7440690D02*
X8123210Y-7473710D01*
X8123210Y-7440690D02*
X8090190Y-7473710D01*
X8090190Y-7542290D02*
X8123210Y-7575310D01*
X8123210Y-7542290D02*
X8090190Y-7575310D01*
X8238490Y-8750990D02*
X8271510Y-8784010D01*
X8271510Y-8750990D02*
X8238490Y-8784010D01*
X8348490Y-5530990D02*
X8381510Y-5564010D01*
X8381510Y-5530990D02*
X8348490Y-5564010D01*
X8424790Y-7858690D02*
X8457810Y-7891710D01*
X8457810Y-7858690D02*
X8424790Y-7891710D01*
X8475490Y-5530990D02*
X8508510Y-5564010D01*
X8508510Y-5530990D02*
X8475490Y-5564010D01*
X8526390Y-7858690D02*
X8559410Y-7891710D01*
X8559410Y-7858690D02*
X8526390Y-7891710D01*
X8602490Y-5530990D02*
X8635510Y-5564010D01*
X8635510Y-5530990D02*
X8602490Y-5564010D01*
X8627990Y-7858690D02*
X8661010Y-7891710D01*
X8661010Y-7858690D02*
X8627990Y-7891710D01*
X8729490Y-5530990D02*
X8762510Y-5564010D01*
X8762510Y-5530990D02*
X8729490Y-5564010D01*
X8729490Y-7858690D02*
X8762510Y-7891710D01*
X8762510Y-7858690D02*
X8729490Y-7891710D01*
X8831090Y-7858790D02*
X8864110Y-7891810D01*
X8864110Y-7858790D02*
X8831090Y-7891810D01*
X8856490Y-5530990D02*
X8889510Y-5564010D01*
X8889510Y-5530990D02*
X8856490Y-5564010D01*
X8932790Y-7858690D02*
X8965810Y-7891710D01*
X8965810Y-7858690D02*
X8932790Y-7891710D01*
X8983490Y-5530990D02*
X9016510Y-5564010D01*
X9016510Y-5530990D02*
X8983490Y-5564010D01*
X9034390Y-7858690D02*
X9067410Y-7891710D01*
X9067410Y-7858690D02*
X9034390Y-7891710D01*
X9110490Y-5530990D02*
X9143510Y-5564010D01*
X9143510Y-5530990D02*
X9110490Y-5564010D01*
X9135990Y-7858690D02*
X9169010Y-7891710D01*
X9169010Y-7858690D02*
X9135990Y-7891710D01*
X9173990Y-8881990D02*
X9207010Y-8915010D01*
X9207010Y-8881990D02*
X9173990Y-8915010D01*
X9237490Y-5530990D02*
X9270510Y-5564010D01*
X9270510Y-5530990D02*
X9237490Y-5564010D01*
X9237590Y-7858690D02*
X9270610Y-7891710D01*
X9270610Y-7858690D02*
X9237590Y-7891710D01*
X9300990Y-8881990D02*
X9334010Y-8915010D01*
X9334010Y-8881990D02*
X9300990Y-8915010D01*
X9339190Y-7858690D02*
X9372210Y-7891710D01*
X9372210Y-7858690D02*
X9339190Y-7891710D01*
X9364490Y-5530990D02*
X9397510Y-5564010D01*
X9397510Y-5530990D02*
X9364490Y-5564010D01*
X9427990Y-8881990D02*
X9461010Y-8915010D01*
X9461010Y-8881990D02*
X9427990Y-8915010D01*
X9440790Y-7858690D02*
X9473810Y-7891710D01*
X9473810Y-7858690D02*
X9440790Y-7891710D01*
X9491490Y-5530990D02*
X9524510Y-5564010D01*
X9524510Y-5530990D02*
X9491490Y-5564010D01*
X9554990Y-8881990D02*
X9588010Y-8915010D01*
X9588010Y-8881990D02*
X9554990Y-8915010D01*
X9618490Y-5530990D02*
X9651510Y-5564010D01*
X9651510Y-5530990D02*
X9618490Y-5564010D01*
X9745490Y-5530990D02*
X9778510Y-5564010D01*
X9778510Y-5530990D02*
X9745490Y-5564010D01*
X9858690Y-6424690D02*
X9891710Y-6457710D01*
X9891710Y-6424690D02*
X9858690Y-6457710D01*
X9858690Y-6526290D02*
X9891710Y-6559310D01*
X9891710Y-6526290D02*
X9858690Y-6559310D01*
X9858690Y-6932690D02*
X9891710Y-6965710D01*
X9891710Y-6932690D02*
X9858690Y-6965710D01*
X9858690Y-7034290D02*
X9891710Y-7067310D01*
X9891710Y-7034290D02*
X9858690Y-7067310D01*
X9858690Y-7237490D02*
X9891710Y-7270510D01*
X9891710Y-7237490D02*
X9858690Y-7270510D01*
X9858690Y-7339090D02*
X9891710Y-7372110D01*
X9891710Y-7339090D02*
X9858690Y-7372110D01*
X9858690Y-7440690D02*
X9891710Y-7473710D01*
X9891710Y-7440690D02*
X9858690Y-7473710D01*
X9872490Y-6233490D02*
X9905510Y-6266510D01*
X9905510Y-6233490D02*
X9872490Y-6266510D01*
D11*
X7758277Y-9376484D02*
X7758277Y-9176484D01*
X7758277Y-9176484D02*
X7805896Y-9176484D01*
X7805896Y-9176484D02*
X7834467Y-9186008D01*
X7834467Y-9186008D02*
X7853515Y-9205055D01*
X7853515Y-9205055D02*
X7863039Y-9224103D01*
X7863039Y-9224103D02*
X7872562Y-9262198D01*
X7872562Y-9262198D02*
X7872562Y-9290770D01*
X7872562Y-9290770D02*
X7863039Y-9328865D01*
X7863039Y-9328865D02*
X7853515Y-9347912D01*
X7853515Y-9347912D02*
X7834467Y-9366960D01*
X7834467Y-9366960D02*
X7805896Y-9376484D01*
X7805896Y-9376484D02*
X7758277Y-9376484D01*
X7958277Y-9376484D02*
X7958277Y-9243150D01*
X7958277Y-9281246D02*
X7967801Y-9262198D01*
X7967801Y-9262198D02*
X7977324Y-9252674D01*
X7977324Y-9252674D02*
X7996372Y-9243150D01*
X7996372Y-9243150D02*
X8015420Y-9243150D01*
X8082086Y-9376484D02*
X8082086Y-9243150D01*
X8082086Y-9176484D02*
X8072562Y-9186008D01*
X8072562Y-9186008D02*
X8082086Y-9195531D01*
X8082086Y-9195531D02*
X8091610Y-9186008D01*
X8091610Y-9186008D02*
X8082086Y-9176484D01*
X8082086Y-9176484D02*
X8082086Y-9195531D01*
X8205896Y-9376484D02*
X8186848Y-9366960D01*
X8186848Y-9366960D02*
X8177324Y-9347912D01*
X8177324Y-9347912D02*
X8177324Y-9176484D01*
X8310658Y-9376484D02*
X8291610Y-9366960D01*
X8291610Y-9366960D02*
X8282086Y-9347912D01*
X8282086Y-9347912D02*
X8282086Y-9176484D01*
X8539229Y-9376484D02*
X8539229Y-9176484D01*
X8539229Y-9176484D02*
X8605896Y-9319341D01*
X8605896Y-9319341D02*
X8672563Y-9176484D01*
X8672563Y-9176484D02*
X8672563Y-9376484D01*
X8853515Y-9376484D02*
X8853515Y-9271722D01*
X8853515Y-9271722D02*
X8843991Y-9252674D01*
X8843991Y-9252674D02*
X8824944Y-9243150D01*
X8824944Y-9243150D02*
X8786848Y-9243150D01*
X8786848Y-9243150D02*
X8767801Y-9252674D01*
X8853515Y-9366960D02*
X8834467Y-9376484D01*
X8834467Y-9376484D02*
X8786848Y-9376484D01*
X8786848Y-9376484D02*
X8767801Y-9366960D01*
X8767801Y-9366960D02*
X8758277Y-9347912D01*
X8758277Y-9347912D02*
X8758277Y-9328865D01*
X8758277Y-9328865D02*
X8767801Y-9309817D01*
X8767801Y-9309817D02*
X8786848Y-9300293D01*
X8786848Y-9300293D02*
X8834467Y-9300293D01*
X8834467Y-9300293D02*
X8853515Y-9290770D01*
X8948753Y-9243150D02*
X8948753Y-9443150D01*
X8948753Y-9252674D02*
X8967801Y-9243150D01*
X8967801Y-9243150D02*
X9005896Y-9243150D01*
X9005896Y-9243150D02*
X9024944Y-9252674D01*
X9024944Y-9252674D02*
X9034467Y-9262198D01*
X9034467Y-9262198D02*
X9043991Y-9281246D01*
X9043991Y-9281246D02*
X9043991Y-9338389D01*
X9043991Y-9338389D02*
X9034467Y-9357436D01*
X9034467Y-9357436D02*
X9024944Y-9366960D01*
X9024944Y-9366960D02*
X9005896Y-9376484D01*
X9005896Y-9376484D02*
X8967801Y-9376484D01*
X8967801Y-9376484D02*
X8948753Y-9366960D01*
X9129705Y-9357436D02*
X9139229Y-9366960D01*
X9139229Y-9366960D02*
X9129705Y-9376484D01*
X9129705Y-9376484D02*
X9120182Y-9366960D01*
X9120182Y-9366960D02*
X9129705Y-9357436D01*
X9129705Y-9357436D02*
X9129705Y-9376484D01*
X9129705Y-9252674D02*
X9139229Y-9262198D01*
X9139229Y-9262198D02*
X9129705Y-9271722D01*
X9129705Y-9271722D02*
X9120182Y-9262198D01*
X9120182Y-9262198D02*
X9129705Y-9252674D01*
X9129705Y-9252674D02*
X9129705Y-9271722D01*
D12*
X7464480Y-9688490D02*
X7497500Y-9721510D01*
X7497500Y-9688490D02*
X7464480Y-9721510D01*
D11*
X7796372Y-9596484D02*
X7815420Y-9596484D01*
X7815420Y-9596484D02*
X7834467Y-9606008D01*
X7834467Y-9606008D02*
X7843991Y-9615531D01*
X7843991Y-9615531D02*
X7853515Y-9634579D01*
X7853515Y-9634579D02*
X7863039Y-9672674D01*
X7863039Y-9672674D02*
X7863039Y-9720293D01*
X7863039Y-9720293D02*
X7853515Y-9758389D01*
X7853515Y-9758389D02*
X7843991Y-9777436D01*
X7843991Y-9777436D02*
X7834467Y-9786960D01*
X7834467Y-9786960D02*
X7815420Y-9796484D01*
X7815420Y-9796484D02*
X7796372Y-9796484D01*
X7796372Y-9796484D02*
X7777324Y-9786960D01*
X7777324Y-9786960D02*
X7767801Y-9777436D01*
X7767801Y-9777436D02*
X7758277Y-9758389D01*
X7758277Y-9758389D02*
X7748753Y-9720293D01*
X7748753Y-9720293D02*
X7748753Y-9672674D01*
X7748753Y-9672674D02*
X7758277Y-9634579D01*
X7758277Y-9634579D02*
X7767801Y-9615531D01*
X7767801Y-9615531D02*
X7777324Y-9606008D01*
X7777324Y-9606008D02*
X7796372Y-9596484D01*
X7948753Y-9777436D02*
X7958277Y-9786960D01*
X7958277Y-9786960D02*
X7948753Y-9796484D01*
X7948753Y-9796484D02*
X7939229Y-9786960D01*
X7939229Y-9786960D02*
X7948753Y-9777436D01*
X7948753Y-9777436D02*
X7948753Y-9796484D01*
X8024943Y-9596484D02*
X8148753Y-9596484D01*
X8148753Y-9596484D02*
X8082086Y-9672674D01*
X8082086Y-9672674D02*
X8110658Y-9672674D01*
X8110658Y-9672674D02*
X8129705Y-9682198D01*
X8129705Y-9682198D02*
X8139229Y-9691722D01*
X8139229Y-9691722D02*
X8148753Y-9710770D01*
X8148753Y-9710770D02*
X8148753Y-9758389D01*
X8148753Y-9758389D02*
X8139229Y-9777436D01*
X8139229Y-9777436D02*
X8129705Y-9786960D01*
X8129705Y-9786960D02*
X8110658Y-9796484D01*
X8110658Y-9796484D02*
X8053515Y-9796484D01*
X8053515Y-9796484D02*
X8034467Y-9786960D01*
X8034467Y-9786960D02*
X8024943Y-9777436D01*
X8215420Y-9596484D02*
X8339229Y-9596484D01*
X8339229Y-9596484D02*
X8272562Y-9672674D01*
X8272562Y-9672674D02*
X8301134Y-9672674D01*
X8301134Y-9672674D02*
X8320182Y-9682198D01*
X8320182Y-9682198D02*
X8329705Y-9691722D01*
X8329705Y-9691722D02*
X8339229Y-9710770D01*
X8339229Y-9710770D02*
X8339229Y-9758389D01*
X8339229Y-9758389D02*
X8329705Y-9777436D01*
X8329705Y-9777436D02*
X8320182Y-9786960D01*
X8320182Y-9786960D02*
X8301134Y-9796484D01*
X8301134Y-9796484D02*
X8243991Y-9796484D01*
X8243991Y-9796484D02*
X8224943Y-9786960D01*
X8224943Y-9786960D02*
X8215420Y-9777436D01*
X8463039Y-9596484D02*
X8482086Y-9596484D01*
X8482086Y-9596484D02*
X8501134Y-9606008D01*
X8501134Y-9606008D02*
X8510658Y-9615531D01*
X8510658Y-9615531D02*
X8520182Y-9634579D01*
X8520182Y-9634579D02*
X8529705Y-9672674D01*
X8529705Y-9672674D02*
X8529705Y-9720293D01*
X8529705Y-9720293D02*
X8520182Y-9758389D01*
X8520182Y-9758389D02*
X8510658Y-9777436D01*
X8510658Y-9777436D02*
X8501134Y-9786960D01*
X8501134Y-9786960D02*
X8482086Y-9796484D01*
X8482086Y-9796484D02*
X8463039Y-9796484D01*
X8463039Y-9796484D02*
X8443991Y-9786960D01*
X8443991Y-9786960D02*
X8434467Y-9777436D01*
X8434467Y-9777436D02*
X8424944Y-9758389D01*
X8424944Y-9758389D02*
X8415420Y-9720293D01*
X8415420Y-9720293D02*
X8415420Y-9672674D01*
X8415420Y-9672674D02*
X8424944Y-9634579D01*
X8424944Y-9634579D02*
X8434467Y-9615531D01*
X8434467Y-9615531D02*
X8443991Y-9606008D01*
X8443991Y-9606008D02*
X8463039Y-9596484D01*
X8615420Y-9796484D02*
X8615420Y-9663150D01*
X8615420Y-9682198D02*
X8624944Y-9672674D01*
X8624944Y-9672674D02*
X8643991Y-9663150D01*
X8643991Y-9663150D02*
X8672563Y-9663150D01*
X8672563Y-9663150D02*
X8691610Y-9672674D01*
X8691610Y-9672674D02*
X8701134Y-9691722D01*
X8701134Y-9691722D02*
X8701134Y-9796484D01*
X8701134Y-9691722D02*
X8710658Y-9672674D01*
X8710658Y-9672674D02*
X8729705Y-9663150D01*
X8729705Y-9663150D02*
X8758277Y-9663150D01*
X8758277Y-9663150D02*
X8777325Y-9672674D01*
X8777325Y-9672674D02*
X8786848Y-9691722D01*
X8786848Y-9691722D02*
X8786848Y-9796484D01*
X8882086Y-9796484D02*
X8882086Y-9663150D01*
X8882086Y-9682198D02*
X8891610Y-9672674D01*
X8891610Y-9672674D02*
X8910658Y-9663150D01*
X8910658Y-9663150D02*
X8939229Y-9663150D01*
X8939229Y-9663150D02*
X8958277Y-9672674D01*
X8958277Y-9672674D02*
X8967801Y-9691722D01*
X8967801Y-9691722D02*
X8967801Y-9796484D01*
X8967801Y-9691722D02*
X8977325Y-9672674D01*
X8977325Y-9672674D02*
X8996372Y-9663150D01*
X8996372Y-9663150D02*
X9024944Y-9663150D01*
X9024944Y-9663150D02*
X9043991Y-9672674D01*
X9043991Y-9672674D02*
X9053515Y-9691722D01*
X9053515Y-9691722D02*
X9053515Y-9796484D01*
X9443991Y-9586960D02*
X9272563Y-9844103D01*
X9701134Y-9596484D02*
X9720182Y-9596484D01*
X9720182Y-9596484D02*
X9739229Y-9606008D01*
X9739229Y-9606008D02*
X9748753Y-9615531D01*
X9748753Y-9615531D02*
X9758277Y-9634579D01*
X9758277Y-9634579D02*
X9767801Y-9672674D01*
X9767801Y-9672674D02*
X9767801Y-9720293D01*
X9767801Y-9720293D02*
X9758277Y-9758389D01*
X9758277Y-9758389D02*
X9748753Y-9777436D01*
X9748753Y-9777436D02*
X9739229Y-9786960D01*
X9739229Y-9786960D02*
X9720182Y-9796484D01*
X9720182Y-9796484D02*
X9701134Y-9796484D01*
X9701134Y-9796484D02*
X9682087Y-9786960D01*
X9682087Y-9786960D02*
X9672563Y-9777436D01*
X9672563Y-9777436D02*
X9663039Y-9758389D01*
X9663039Y-9758389D02*
X9653515Y-9720293D01*
X9653515Y-9720293D02*
X9653515Y-9672674D01*
X9653515Y-9672674D02*
X9663039Y-9634579D01*
X9663039Y-9634579D02*
X9672563Y-9615531D01*
X9672563Y-9615531D02*
X9682087Y-9606008D01*
X9682087Y-9606008D02*
X9701134Y-9596484D01*
X9853515Y-9777436D02*
X9863039Y-9786960D01*
X9863039Y-9786960D02*
X9853515Y-9796484D01*
X9853515Y-9796484D02*
X9843991Y-9786960D01*
X9843991Y-9786960D02*
X9853515Y-9777436D01*
X9853515Y-9777436D02*
X9853515Y-9796484D01*
X9986848Y-9596484D02*
X10005896Y-9596484D01*
X10005896Y-9596484D02*
X10024944Y-9606008D01*
X10024944Y-9606008D02*
X10034468Y-9615531D01*
X10034468Y-9615531D02*
X10043991Y-9634579D01*
X10043991Y-9634579D02*
X10053515Y-9672674D01*
X10053515Y-9672674D02*
X10053515Y-9720293D01*
X10053515Y-9720293D02*
X10043991Y-9758389D01*
X10043991Y-9758389D02*
X10034468Y-9777436D01*
X10034468Y-9777436D02*
X10024944Y-9786960D01*
X10024944Y-9786960D02*
X10005896Y-9796484D01*
X10005896Y-9796484D02*
X9986848Y-9796484D01*
X9986848Y-9796484D02*
X9967801Y-9786960D01*
X9967801Y-9786960D02*
X9958277Y-9777436D01*
X9958277Y-9777436D02*
X9948753Y-9758389D01*
X9948753Y-9758389D02*
X9939229Y-9720293D01*
X9939229Y-9720293D02*
X9939229Y-9672674D01*
X9939229Y-9672674D02*
X9948753Y-9634579D01*
X9948753Y-9634579D02*
X9958277Y-9615531D01*
X9958277Y-9615531D02*
X9967801Y-9606008D01*
X9967801Y-9606008D02*
X9986848Y-9596484D01*
X10243991Y-9796484D02*
X10129706Y-9796484D01*
X10186848Y-9796484D02*
X10186848Y-9596484D01*
X10186848Y-9596484D02*
X10167801Y-9625055D01*
X10167801Y-9625055D02*
X10148753Y-9644103D01*
X10148753Y-9644103D02*
X10129706Y-9653627D01*
X10310658Y-9596484D02*
X10434468Y-9596484D01*
X10434468Y-9596484D02*
X10367801Y-9672674D01*
X10367801Y-9672674D02*
X10396372Y-9672674D01*
X10396372Y-9672674D02*
X10415420Y-9682198D01*
X10415420Y-9682198D02*
X10424944Y-9691722D01*
X10424944Y-9691722D02*
X10434468Y-9710770D01*
X10434468Y-9710770D02*
X10434468Y-9758389D01*
X10434468Y-9758389D02*
X10424944Y-9777436D01*
X10424944Y-9777436D02*
X10415420Y-9786960D01*
X10415420Y-9786960D02*
X10396372Y-9796484D01*
X10396372Y-9796484D02*
X10339229Y-9796484D01*
X10339229Y-9796484D02*
X10320182Y-9786960D01*
X10320182Y-9786960D02*
X10310658Y-9777436D01*
X10558277Y-9596484D02*
X10577325Y-9596484D01*
X10577325Y-9596484D02*
X10596372Y-9606008D01*
X10596372Y-9606008D02*
X10605896Y-9615531D01*
X10605896Y-9615531D02*
X10615420Y-9634579D01*
X10615420Y-9634579D02*
X10624944Y-9672674D01*
X10624944Y-9672674D02*
X10624944Y-9720293D01*
X10624944Y-9720293D02*
X10615420Y-9758389D01*
X10615420Y-9758389D02*
X10605896Y-9777436D01*
X10605896Y-9777436D02*
X10596372Y-9786960D01*
X10596372Y-9786960D02*
X10577325Y-9796484D01*
X10577325Y-9796484D02*
X10558277Y-9796484D01*
X10558277Y-9796484D02*
X10539229Y-9786960D01*
X10539229Y-9786960D02*
X10529706Y-9777436D01*
X10529706Y-9777436D02*
X10520182Y-9758389D01*
X10520182Y-9758389D02*
X10510658Y-9720293D01*
X10510658Y-9720293D02*
X10510658Y-9672674D01*
X10510658Y-9672674D02*
X10520182Y-9634579D01*
X10520182Y-9634579D02*
X10529706Y-9615531D01*
X10529706Y-9615531D02*
X10539229Y-9606008D01*
X10539229Y-9606008D02*
X10558277Y-9596484D01*
X10701134Y-9596484D02*
X10701134Y-9634579D01*
X10777325Y-9596484D02*
X10777325Y-9634579D01*
X11072563Y-9872674D02*
X11063039Y-9863150D01*
X11063039Y-9863150D02*
X11043991Y-9834579D01*
X11043991Y-9834579D02*
X11034468Y-9815531D01*
X11034468Y-9815531D02*
X11024944Y-9786960D01*
X11024944Y-9786960D02*
X11015420Y-9739341D01*
X11015420Y-9739341D02*
X11015420Y-9701246D01*
X11015420Y-9701246D02*
X11024944Y-9653627D01*
X11024944Y-9653627D02*
X11034468Y-9625055D01*
X11034468Y-9625055D02*
X11043991Y-9606008D01*
X11043991Y-9606008D02*
X11063039Y-9577436D01*
X11063039Y-9577436D02*
X11072563Y-9567912D01*
X11234468Y-9663150D02*
X11234468Y-9796484D01*
X11186848Y-9586960D02*
X11139230Y-9729817D01*
X11139230Y-9729817D02*
X11263039Y-9729817D01*
X11424944Y-9596484D02*
X11386848Y-9596484D01*
X11386848Y-9596484D02*
X11367801Y-9606008D01*
X11367801Y-9606008D02*
X11358277Y-9615531D01*
X11358277Y-9615531D02*
X11339229Y-9644103D01*
X11339229Y-9644103D02*
X11329706Y-9682198D01*
X11329706Y-9682198D02*
X11329706Y-9758389D01*
X11329706Y-9758389D02*
X11339229Y-9777436D01*
X11339229Y-9777436D02*
X11348753Y-9786960D01*
X11348753Y-9786960D02*
X11367801Y-9796484D01*
X11367801Y-9796484D02*
X11405896Y-9796484D01*
X11405896Y-9796484D02*
X11424944Y-9786960D01*
X11424944Y-9786960D02*
X11434468Y-9777436D01*
X11434468Y-9777436D02*
X11443991Y-9758389D01*
X11443991Y-9758389D02*
X11443991Y-9710770D01*
X11443991Y-9710770D02*
X11434468Y-9691722D01*
X11434468Y-9691722D02*
X11424944Y-9682198D01*
X11424944Y-9682198D02*
X11405896Y-9672674D01*
X11405896Y-9672674D02*
X11367801Y-9672674D01*
X11367801Y-9672674D02*
X11348753Y-9682198D01*
X11348753Y-9682198D02*
X11339229Y-9691722D01*
X11339229Y-9691722D02*
X11329706Y-9710770D01*
X11682087Y-9796484D02*
X11682087Y-9596484D01*
X11767801Y-9796484D02*
X11767801Y-9691722D01*
X11767801Y-9691722D02*
X11758277Y-9672674D01*
X11758277Y-9672674D02*
X11739230Y-9663150D01*
X11739230Y-9663150D02*
X11710658Y-9663150D01*
X11710658Y-9663150D02*
X11691610Y-9672674D01*
X11691610Y-9672674D02*
X11682087Y-9682198D01*
X11891610Y-9796484D02*
X11872563Y-9786960D01*
X11872563Y-9786960D02*
X11863039Y-9777436D01*
X11863039Y-9777436D02*
X11853515Y-9758389D01*
X11853515Y-9758389D02*
X11853515Y-9701246D01*
X11853515Y-9701246D02*
X11863039Y-9682198D01*
X11863039Y-9682198D02*
X11872563Y-9672674D01*
X11872563Y-9672674D02*
X11891610Y-9663150D01*
X11891610Y-9663150D02*
X11920182Y-9663150D01*
X11920182Y-9663150D02*
X11939230Y-9672674D01*
X11939230Y-9672674D02*
X11948753Y-9682198D01*
X11948753Y-9682198D02*
X11958277Y-9701246D01*
X11958277Y-9701246D02*
X11958277Y-9758389D01*
X11958277Y-9758389D02*
X11948753Y-9777436D01*
X11948753Y-9777436D02*
X11939230Y-9786960D01*
X11939230Y-9786960D02*
X11920182Y-9796484D01*
X11920182Y-9796484D02*
X11891610Y-9796484D01*
X12072563Y-9796484D02*
X12053515Y-9786960D01*
X12053515Y-9786960D02*
X12043991Y-9767912D01*
X12043991Y-9767912D02*
X12043991Y-9596484D01*
X12224944Y-9786960D02*
X12205896Y-9796484D01*
X12205896Y-9796484D02*
X12167801Y-9796484D01*
X12167801Y-9796484D02*
X12148753Y-9786960D01*
X12148753Y-9786960D02*
X12139230Y-9767912D01*
X12139230Y-9767912D02*
X12139230Y-9691722D01*
X12139230Y-9691722D02*
X12148753Y-9672674D01*
X12148753Y-9672674D02*
X12167801Y-9663150D01*
X12167801Y-9663150D02*
X12205896Y-9663150D01*
X12205896Y-9663150D02*
X12224944Y-9672674D01*
X12224944Y-9672674D02*
X12234468Y-9691722D01*
X12234468Y-9691722D02*
X12234468Y-9710770D01*
X12234468Y-9710770D02*
X12139230Y-9729817D01*
X12310658Y-9786960D02*
X12329706Y-9796484D01*
X12329706Y-9796484D02*
X12367801Y-9796484D01*
X12367801Y-9796484D02*
X12386849Y-9786960D01*
X12386849Y-9786960D02*
X12396372Y-9767912D01*
X12396372Y-9767912D02*
X12396372Y-9758389D01*
X12396372Y-9758389D02*
X12386849Y-9739341D01*
X12386849Y-9739341D02*
X12367801Y-9729817D01*
X12367801Y-9729817D02*
X12339230Y-9729817D01*
X12339230Y-9729817D02*
X12320182Y-9720293D01*
X12320182Y-9720293D02*
X12310658Y-9701246D01*
X12310658Y-9701246D02*
X12310658Y-9691722D01*
X12310658Y-9691722D02*
X12320182Y-9672674D01*
X12320182Y-9672674D02*
X12339230Y-9663150D01*
X12339230Y-9663150D02*
X12367801Y-9663150D01*
X12367801Y-9663150D02*
X12386849Y-9672674D01*
X12463039Y-9872674D02*
X12472563Y-9863150D01*
X12472563Y-9863150D02*
X12491611Y-9834579D01*
X12491611Y-9834579D02*
X12501134Y-9815531D01*
X12501134Y-9815531D02*
X12510658Y-9786960D01*
X12510658Y-9786960D02*
X12520182Y-9739341D01*
X12520182Y-9739341D02*
X12520182Y-9701246D01*
X12520182Y-9701246D02*
X12510658Y-9653627D01*
X12510658Y-9653627D02*
X12501134Y-9625055D01*
X12501134Y-9625055D02*
X12491611Y-9606008D01*
X12491611Y-9606008D02*
X12472563Y-9577436D01*
X12472563Y-9577436D02*
X12463039Y-9567912D01*
M02*
