%TF.GenerationSoftware,KiCad,Pcbnew,8.0.3-8.0.3-0~ubuntu24.04.1*%
%TF.CreationDate,2024-07-09T09:27:24+02:00*%
%TF.ProjectId,PythonBreakout,50797468-6f6e-4427-9265-616b6f75742e,rev?*%
%TF.SameCoordinates,Original*%
%TF.FileFunction,Soldermask,Top*%
%TF.FilePolarity,Negative*%
%FSLAX46Y46*%
G04 Gerber Fmt 4.6, Leading zero omitted, Abs format (unit mm)*
G04 Created by KiCad (PCBNEW 8.0.3-8.0.3-0~ubuntu24.04.1) date 2024-07-09 09:27:24*
%MOMM*%
%LPD*%
G01*
G04 APERTURE LIST*
G04 Aperture macros list*
%AMRoundRect*
0 Rectangle with rounded corners*
0 $1 Rounding radius*
0 $2 $3 $4 $5 $6 $7 $8 $9 X,Y pos of 4 corners*
0 Add a 4 corners polygon primitive as box body*
4,1,4,$2,$3,$4,$5,$6,$7,$8,$9,$2,$3,0*
0 Add four circle primitives for the rounded corners*
1,1,$1+$1,$2,$3*
1,1,$1+$1,$4,$5*
1,1,$1+$1,$6,$7*
1,1,$1+$1,$8,$9*
0 Add four rect primitives between the rounded corners*
20,1,$1+$1,$2,$3,$4,$5,0*
20,1,$1+$1,$4,$5,$6,$7,0*
20,1,$1+$1,$6,$7,$8,$9,0*
20,1,$1+$1,$8,$9,$2,$3,0*%
G04 Aperture macros list end*
%ADD10RoundRect,0.225000X0.225000X0.250000X-0.225000X0.250000X-0.225000X-0.250000X0.225000X-0.250000X0*%
%ADD11RoundRect,0.225000X-0.250000X0.225000X-0.250000X-0.225000X0.250000X-0.225000X0.250000X0.225000X0*%
%ADD12RoundRect,0.040440X-0.876560X0.296560X-0.876560X-0.296560X0.876560X-0.296560X0.876560X0.296560X0*%
%ADD13RoundRect,0.040440X-0.296560X0.876560X-0.296560X-0.876560X0.296560X-0.876560X0.296560X0.876560X0*%
%ADD14RoundRect,0.200000X0.275000X-0.200000X0.275000X0.200000X-0.275000X0.200000X-0.275000X-0.200000X0*%
%ADD15RoundRect,0.225000X-0.225000X-0.250000X0.225000X-0.250000X0.225000X0.250000X-0.225000X0.250000X0*%
%ADD16RoundRect,0.225000X0.250000X-0.225000X0.250000X0.225000X-0.250000X0.225000X-0.250000X-0.225000X0*%
%ADD17C,1.190000*%
G04 APERTURE END LIST*
D10*
X89080000Y-80575000D03*
X87530000Y-80575000D03*
D11*
X79605000Y-71000000D03*
X79605000Y-72550000D03*
X101005000Y-63875000D03*
X101005000Y-65425000D03*
D12*
X96905000Y-69492000D03*
X96905000Y-68476000D03*
X96905000Y-67460000D03*
X96905000Y-66444000D03*
X96905000Y-65428000D03*
X96905000Y-64412000D03*
D13*
X95588000Y-63095000D03*
X94572000Y-63095000D03*
X93556000Y-63095000D03*
X92540000Y-63095000D03*
X91524000Y-63095000D03*
X90508000Y-63095000D03*
X89492000Y-63095000D03*
X88476000Y-63095000D03*
X87460000Y-63095000D03*
X86444000Y-63095000D03*
X85428000Y-63095000D03*
X84412000Y-63095000D03*
D12*
X83095000Y-64412000D03*
X83095000Y-65428000D03*
X83095000Y-66444000D03*
X83095000Y-67460000D03*
X83095000Y-68476000D03*
X83095000Y-69492000D03*
X83095000Y-70508000D03*
X83095000Y-71524000D03*
X83095000Y-72540000D03*
X83095000Y-73556000D03*
X83095000Y-74572000D03*
X83095000Y-75588000D03*
D13*
X84412000Y-76905000D03*
X85428000Y-76905000D03*
X86444000Y-76905000D03*
X87460000Y-76905000D03*
X88476000Y-76905000D03*
X89492000Y-76905000D03*
X90508000Y-76905000D03*
X91524000Y-76905000D03*
X92540000Y-76905000D03*
X93556000Y-76905000D03*
X94572000Y-76905000D03*
X95588000Y-76905000D03*
D12*
X96905000Y-75588000D03*
X96905000Y-74572000D03*
X96905000Y-73556000D03*
X96905000Y-72540000D03*
X96905000Y-71524000D03*
X96905000Y-70508000D03*
D10*
X95580000Y-80575000D03*
X94030000Y-80575000D03*
X92355000Y-80575000D03*
X90805000Y-80575000D03*
D14*
X77705000Y-73450000D03*
X77705000Y-71800000D03*
D15*
X84305000Y-80575000D03*
X85855000Y-80575000D03*
D11*
X79605000Y-63800000D03*
X79605000Y-65350000D03*
X78705000Y-75000000D03*
X78705000Y-76550000D03*
D16*
X79605000Y-68575000D03*
X79605000Y-67025000D03*
D17*
X82695000Y-85535000D03*
X97305000Y-85535000D03*
X79520000Y-58925000D03*
X100480000Y-58925000D03*
M02*
