M48
; DRILL file {KiCad 8.0.4-8.0.4-0~ubuntu24.04.1} date 2024-08-09T13:50:09+0200
; FORMAT={-:-/ absolute / metric / decimal}
; #@! TF.CreationDate,2024-08-09T13:50:09+02:00
; #@! TF.GenerationSoftware,Kicad,Pcbnew,8.0.4-8.0.4-0~ubuntu24.04.1
; #@! TF.FileFunction,Plated,1,4,PTH
FMAT,2
METRIC
; #@! TA.AperFunction,Plated,PTH,ViaDrill
T1C0.330
%
G90
G05
T1
X32.005Y-73.0
X35.18Y-99.874
X35.2Y-90.874
X36.45Y-90.874
X37.74Y-90.874
X38.99Y-90.874
X40.26Y-90.874
X41.53Y-90.874
X42.8Y-90.874
X44.07Y-90.874
X45.34Y-90.874
X46.61Y-90.874
X49.785Y-73.0
X71.845Y-53.5
X73.115Y-53.5
X74.395Y-53.5
X75.655Y-53.5
X76.925Y-45.05
X76.925Y-53.5
X78.195Y-53.5
X78.5Y-89.375
X78.55Y-92.375
X78.6Y-90.801
X78.75Y-84.875
X79.45Y-106.6
X79.465Y-53.5
X80.735Y-53.5
X82.006Y-53.5
X83.275Y-45.05
X83.275Y-53.5
X83.725Y-95.075
X84.545Y-53.5
X85.815Y-53.5
X87.085Y-53.5
X87.27Y-92.825
X88.335Y-53.5
X88.355Y-106.6
X88.95Y-87.275
X89.075Y-91.7
X89.625Y-53.5
X89.9Y-89.525
X90.895Y-53.5
X92.155Y-53.5
X93.0Y-86.5
X93.435Y-53.5
X94.705Y-53.5
X94.705Y-106.6
X95.975Y-45.05
X95.975Y-53.5
X97.245Y-53.5
X98.51Y-106.6
X98.515Y-53.5
X99.4Y-90.6
X99.775Y-97.6
X99.779Y-106.599
X99.785Y-53.5
X100.6Y-86.5
X100.65Y-91.537
X101.055Y-106.6
X101.056Y-53.5
X102.325Y-45.05
X102.325Y-53.5
X102.325Y-106.6
X102.86Y-91.215
X103.595Y-53.5
X103.595Y-106.6
X104.865Y-53.5
X104.865Y-106.6
X105.375Y-85.2
X106.135Y-53.5
X106.135Y-97.75
X106.135Y-106.6
X107.385Y-53.5
X107.405Y-106.6
X108.675Y-45.05
X108.675Y-53.5
X108.675Y-106.6
X109.945Y-53.5
X110.875Y-86.0
X112.275Y-95.375
X112.48Y-106.6
X113.9Y-90.18
X114.1Y-88.075
X116.295Y-53.5
X120.105Y-45.05
X120.74Y-53.5
X120.74Y-106.6
X121.0Y-98.075
X132.005Y-73.0
X135.18Y-99.875
X135.2Y-90.875
X137.72Y-90.875
X138.99Y-90.875
X140.26Y-90.875
X141.53Y-90.875
X142.8Y-90.875
X144.07Y-90.875
X145.34Y-90.875
X146.61Y-90.875
X149.785Y-73.0
M30
