%TF.GenerationSoftware,KiCad,Pcbnew,8.0.3-8.0.3-0~ubuntu24.04.1*%
%TF.CreationDate,2024-07-09T09:27:24+02:00*%
%TF.ProjectId,PythonBreakout,50797468-6f6e-4427-9265-616b6f75742e,rev?*%
%TF.SameCoordinates,Original*%
%TF.FileFunction,Copper,L4,Bot*%
%TF.FilePolarity,Positive*%
%FSLAX46Y46*%
G04 Gerber Fmt 4.6, Leading zero omitted, Abs format (unit mm)*
G04 Created by KiCad (PCBNEW 8.0.3-8.0.3-0~ubuntu24.04.1) date 2024-07-09 09:27:24*
%MOMM*%
%LPD*%
G01*
G04 APERTURE LIST*
G04 Aperture macros list*
%AMRoundRect*
0 Rectangle with rounded corners*
0 $1 Rounding radius*
0 $2 $3 $4 $5 $6 $7 $8 $9 X,Y pos of 4 corners*
0 Add a 4 corners polygon primitive as box body*
4,1,4,$2,$3,$4,$5,$6,$7,$8,$9,$2,$3,0*
0 Add four circle primitives for the rounded corners*
1,1,$1+$1,$2,$3*
1,1,$1+$1,$4,$5*
1,1,$1+$1,$6,$7*
1,1,$1+$1,$8,$9*
0 Add four rect primitives between the rounded corners*
20,1,$1+$1,$2,$3,$4,$5,0*
20,1,$1+$1,$4,$5,$6,$7,0*
20,1,$1+$1,$6,$7,$8,$9,0*
20,1,$1+$1,$8,$9,$2,$3,0*%
G04 Aperture macros list end*
%TA.AperFunction,SMDPad,CuDef*%
%ADD10R,0.740000X2.220000*%
%TD*%
%TA.AperFunction,SMDPad,CuDef*%
%ADD11RoundRect,0.225000X-0.250000X0.225000X-0.250000X-0.225000X0.250000X-0.225000X0.250000X0.225000X0*%
%TD*%
%TA.AperFunction,SMDPad,CuDef*%
%ADD12RoundRect,0.225000X-0.225000X-0.250000X0.225000X-0.250000X0.225000X0.250000X-0.225000X0.250000X0*%
%TD*%
%TA.AperFunction,ViaPad*%
%ADD13C,0.685800*%
%TD*%
%TA.AperFunction,Conductor*%
%ADD14C,0.254000*%
%TD*%
%TA.AperFunction,Conductor*%
%ADD15C,0.290000*%
%TD*%
G04 APERTURE END LIST*
D10*
X84285000Y-86900000D03*
X84285000Y-84170000D03*
X85555000Y-86900000D03*
X85555000Y-84170000D03*
X86825000Y-86900000D03*
X86825000Y-84170000D03*
X88095000Y-86900000D03*
X88095000Y-84170000D03*
X89365000Y-86900000D03*
X89365000Y-84170000D03*
X90635000Y-86900000D03*
X90635000Y-84170000D03*
X91905000Y-86900000D03*
X91905000Y-84170000D03*
X93175000Y-86900000D03*
X93175000Y-84170000D03*
X94445000Y-86900000D03*
X94445000Y-84170000D03*
X95715000Y-86900000D03*
X95715000Y-84170000D03*
X81110000Y-60290000D03*
X81110000Y-57560000D03*
X82380000Y-60290000D03*
X82380000Y-57560000D03*
X83650000Y-60290000D03*
X83650000Y-57560000D03*
X84920000Y-60290000D03*
X84920000Y-57560000D03*
X86190000Y-60290000D03*
X86190000Y-57560000D03*
X87460000Y-60290000D03*
X87460000Y-57560000D03*
X88730000Y-60290000D03*
X88730000Y-57560000D03*
X90000000Y-60290000D03*
X90000000Y-57560000D03*
X91270000Y-60290000D03*
X91270000Y-57560000D03*
X92540000Y-60290000D03*
X92540000Y-57560000D03*
X93810000Y-60290000D03*
X93810000Y-57560000D03*
X95080000Y-60290000D03*
X95080000Y-57560000D03*
X96350000Y-60290000D03*
X96350000Y-57560000D03*
X97620000Y-60290000D03*
X97620000Y-57560000D03*
X98890000Y-60290000D03*
X98890000Y-57560000D03*
D11*
X100305000Y-69500000D03*
X100305000Y-71050000D03*
D12*
X83755000Y-80575000D03*
X85305000Y-80575000D03*
D13*
X81067000Y-74572000D03*
X98752000Y-69492000D03*
X89493000Y-78752000D03*
X98752000Y-70508000D03*
X82550000Y-87675000D03*
X80000000Y-62375000D03*
X98890000Y-62500000D03*
X85429000Y-78752000D03*
X81067000Y-71524000D03*
X86445000Y-78752000D03*
X93557000Y-78752000D03*
X84413000Y-78752000D03*
X91525000Y-78752000D03*
X87460000Y-55475000D03*
X94573000Y-78752000D03*
X98752000Y-74572000D03*
X86190000Y-55475000D03*
X95080000Y-55475000D03*
X88730000Y-55475000D03*
X92540000Y-55475000D03*
X90000000Y-55475000D03*
X93175000Y-88985000D03*
X91905000Y-88985000D03*
X98752000Y-73556000D03*
X91270000Y-55475000D03*
X81067000Y-70508000D03*
X93810000Y-55475000D03*
X98752000Y-72540000D03*
X94445000Y-88985000D03*
X95715000Y-88985000D03*
X96350000Y-55475000D03*
X83650000Y-55475000D03*
X97620000Y-55475000D03*
X84920000Y-55475000D03*
D14*
X100297000Y-69492000D02*
X100305000Y-69500000D01*
X81050000Y-74555000D02*
X81067000Y-74572000D01*
X98752000Y-69492000D02*
X100297000Y-69492000D01*
X89493000Y-78752000D02*
X89365000Y-78880000D01*
X89365000Y-78880000D02*
X89365000Y-84170000D01*
X98752000Y-70508000D02*
X99763000Y-70508000D01*
X96350000Y-60290000D02*
X97620000Y-60290000D01*
X83650000Y-60290000D02*
X84920000Y-60290000D01*
X83510000Y-87675000D02*
X84285000Y-86900000D01*
X84920000Y-60290000D02*
X86190000Y-60290000D01*
X92540000Y-60290000D02*
X91270000Y-60290000D01*
X85429000Y-78752000D02*
X85429000Y-80451000D01*
X90000000Y-60290000D02*
X91270000Y-60290000D01*
X86190000Y-60290000D02*
X87460000Y-60290000D01*
X93810000Y-60290000D02*
X95080000Y-60290000D01*
X95080000Y-60290000D02*
X96350000Y-60290000D01*
X87460000Y-60290000D02*
X88730000Y-60290000D01*
X97620000Y-60290000D02*
X98890000Y-60290000D01*
X98890000Y-60290000D02*
X98890000Y-62500000D01*
X94235000Y-60290000D02*
X94250000Y-60275000D01*
X81110000Y-61265000D02*
X80000000Y-62375000D01*
X82550000Y-87675000D02*
X83510000Y-87675000D01*
X85429000Y-80451000D02*
X85305000Y-80575000D01*
X92540000Y-60290000D02*
X94235000Y-60290000D01*
X82380000Y-60290000D02*
X83650000Y-60290000D01*
X81110000Y-60290000D02*
X82380000Y-60290000D01*
X84285000Y-86900000D02*
X84285000Y-84170000D01*
X99763000Y-70508000D02*
X100305000Y-71050000D01*
X88730000Y-60290000D02*
X90000000Y-60290000D01*
X81110000Y-60290000D02*
X81110000Y-61265000D01*
X81067000Y-71524000D02*
X81999000Y-71524000D01*
X81068000Y-71525000D02*
X81067000Y-71524000D01*
X86825000Y-83430000D02*
X86825000Y-84170000D01*
X80470100Y-80545100D02*
X82200000Y-82275000D01*
X80470100Y-78104900D02*
X80470100Y-80545100D01*
X81999000Y-71524000D02*
X82350000Y-71875000D01*
X85670000Y-82275000D02*
X86825000Y-83430000D01*
X82350000Y-71875000D02*
X82350000Y-76225000D01*
X82350000Y-76225000D02*
X80470100Y-78104900D01*
X82200000Y-82275000D02*
X85670000Y-82275000D01*
X86445000Y-77945000D02*
X86445000Y-78752000D01*
X85945000Y-77445000D02*
X86445000Y-77945000D01*
X86965000Y-77405000D02*
X90965000Y-77405000D01*
X91525000Y-80600000D02*
X90635000Y-81490000D01*
X91525000Y-78005000D02*
X91525000Y-78752000D01*
X84435000Y-77775000D02*
X84765000Y-77445000D01*
X86965000Y-77425000D02*
X86965000Y-77405000D01*
X91545000Y-77985000D02*
X91525000Y-78005000D01*
X90965000Y-77405000D02*
X91545000Y-77985000D01*
X84413000Y-78752000D02*
X84435000Y-78730000D01*
X84413000Y-79917000D02*
X83755000Y-80575000D01*
X93557000Y-78007000D02*
X93557000Y-78752000D01*
X92015000Y-77515000D02*
X93065000Y-77515000D01*
X86445000Y-77945000D02*
X86965000Y-77425000D01*
X84413000Y-78752000D02*
X84413000Y-79917000D01*
X84765000Y-77445000D02*
X85945000Y-77445000D01*
X91545000Y-77985000D02*
X92015000Y-77515000D01*
X91525000Y-78752000D02*
X91525000Y-80600000D01*
X90635000Y-81490000D02*
X90635000Y-84170000D01*
X84435000Y-78730000D02*
X84435000Y-77775000D01*
X93065000Y-77515000D02*
X93557000Y-78007000D01*
D15*
X87460000Y-57560000D02*
X87460000Y-55475000D01*
D14*
X94573000Y-79202000D02*
X91900000Y-81875000D01*
X91905000Y-81880000D02*
X91905000Y-84170000D01*
X91900000Y-81875000D02*
X91905000Y-81880000D01*
X94573000Y-78752000D02*
X94573000Y-79202000D01*
X98752000Y-79138000D02*
X94445000Y-83445000D01*
X94445000Y-83445000D02*
X94445000Y-84170000D01*
X98752000Y-74572000D02*
X98752000Y-79138000D01*
D15*
X86190000Y-57560000D02*
X86190000Y-55475000D01*
X95080000Y-57560000D02*
X95080000Y-55475000D01*
X88730000Y-57560000D02*
X88730000Y-55475000D01*
X92540000Y-57560000D02*
X92540000Y-55475000D01*
X90000000Y-57560000D02*
X90000000Y-55475000D01*
D14*
X93175000Y-86900000D02*
X93175000Y-88985000D01*
X91905000Y-86900000D02*
X91905000Y-88985000D01*
X99366000Y-73556000D02*
X100185000Y-74375000D01*
X98752000Y-73556000D02*
X99366000Y-73556000D01*
X100185000Y-74375000D02*
X100185000Y-79700000D01*
X100185000Y-79700000D02*
X95715000Y-84170000D01*
D15*
X91270000Y-57560000D02*
X91270000Y-55475000D01*
D14*
X82200000Y-77975000D02*
X82200000Y-80925000D01*
X82200000Y-80925000D02*
X82800000Y-81525000D01*
X88095000Y-83430000D02*
X88095000Y-84170000D01*
X84350000Y-71375000D02*
X84350000Y-75825000D01*
X86190000Y-81525000D02*
X88095000Y-83430000D01*
X83483000Y-70508000D02*
X84350000Y-71375000D01*
X84350000Y-75825000D02*
X82200000Y-77975000D01*
X82800000Y-81525000D02*
X86190000Y-81525000D01*
X81067000Y-70508000D02*
X83483000Y-70508000D01*
D15*
X93810000Y-57560000D02*
X93810000Y-55475000D01*
D14*
X94775000Y-74135000D02*
X94775000Y-74975000D01*
X98752000Y-72540000D02*
X96370000Y-72540000D01*
X93175000Y-83445000D02*
X93175000Y-84170000D01*
X96275000Y-80345000D02*
X93175000Y-83445000D01*
X96275000Y-76475000D02*
X96275000Y-80345000D01*
X96370000Y-72540000D02*
X94775000Y-74135000D01*
X94775000Y-74975000D02*
X96275000Y-76475000D01*
X94445000Y-86900000D02*
X94445000Y-88985000D01*
X95715000Y-86900000D02*
X95715000Y-88985000D01*
D15*
X96350000Y-57560000D02*
X96350000Y-55475000D01*
X83650000Y-57560000D02*
X83650000Y-55475000D01*
X97620000Y-57560000D02*
X97620000Y-55475000D01*
X84920000Y-57560000D02*
X84920000Y-55475000D01*
%TA.AperFunction,Conductor*%
G36*
X81744888Y-70378292D02*
G01*
X81751606Y-70384213D01*
X81752800Y-70389362D01*
X81752800Y-70626637D01*
X81749373Y-70634910D01*
X81744888Y-70637707D01*
X81208586Y-70821250D01*
X81199649Y-70820686D01*
X81194001Y-70814687D01*
X81067879Y-70512504D01*
X81067856Y-70503552D01*
X81194002Y-70201311D01*
X81200350Y-70194998D01*
X81208586Y-70194749D01*
X81744888Y-70378292D01*
G37*
%TD.AperFunction*%
%TA.AperFunction,Conductor*%
G36*
X80401043Y-61806176D02*
G01*
X80568823Y-61973956D01*
X80572250Y-61982229D01*
X80571056Y-61987378D01*
X80321618Y-62496384D01*
X80314900Y-62502305D01*
X80306664Y-62502056D01*
X80003809Y-62377563D01*
X79997460Y-62371248D01*
X79997436Y-62371190D01*
X79872943Y-62068335D01*
X79872967Y-62059381D01*
X79878614Y-62053381D01*
X80387623Y-61803942D01*
X80396558Y-61803379D01*
X80401043Y-61806176D01*
G37*
%TD.AperFunction*%
%TA.AperFunction,Conductor*%
G36*
X99429888Y-69362292D02*
G01*
X99436606Y-69368213D01*
X99437800Y-69373362D01*
X99437800Y-69610637D01*
X99434373Y-69618910D01*
X99429888Y-69621707D01*
X98893586Y-69805250D01*
X98884649Y-69804686D01*
X98879001Y-69798687D01*
X98752879Y-69496504D01*
X98752856Y-69487552D01*
X98879002Y-69185311D01*
X98885350Y-69178998D01*
X98893586Y-69178749D01*
X99429888Y-69362292D01*
G37*
%TD.AperFunction*%
%TA.AperFunction,Conductor*%
G36*
X87766980Y-55602124D02*
G01*
X87773295Y-55608473D01*
X87773650Y-55616383D01*
X87607552Y-56152562D01*
X87601831Y-56159451D01*
X87596376Y-56160800D01*
X87323624Y-56160800D01*
X87315351Y-56157373D01*
X87312448Y-56152562D01*
X87146349Y-55616381D01*
X87147174Y-55607466D01*
X87153017Y-55602125D01*
X87455495Y-55475879D01*
X87464446Y-55475856D01*
X87766980Y-55602124D01*
G37*
%TD.AperFunction*%
%TA.AperFunction,Conductor*%
G36*
X99429888Y-70378292D02*
G01*
X99436606Y-70384213D01*
X99437800Y-70389362D01*
X99437800Y-70626637D01*
X99434373Y-70634910D01*
X99429888Y-70637707D01*
X98893586Y-70821250D01*
X98884649Y-70820686D01*
X98879001Y-70814687D01*
X98752879Y-70512504D01*
X98752856Y-70503552D01*
X98879002Y-70201311D01*
X98885350Y-70194998D01*
X98893586Y-70194749D01*
X99429888Y-70378292D01*
G37*
%TD.AperFunction*%
%TA.AperFunction,Conductor*%
G36*
X92846980Y-55602124D02*
G01*
X92853295Y-55608473D01*
X92853650Y-55616383D01*
X92687552Y-56152562D01*
X92681831Y-56159451D01*
X92676376Y-56160800D01*
X92403624Y-56160800D01*
X92395351Y-56157373D01*
X92392448Y-56152562D01*
X92226349Y-55616381D01*
X92227174Y-55607466D01*
X92233017Y-55602125D01*
X92535495Y-55475879D01*
X92544446Y-55475856D01*
X92846980Y-55602124D01*
G37*
%TD.AperFunction*%
%TA.AperFunction,Conductor*%
G36*
X94116980Y-55602124D02*
G01*
X94123295Y-55608473D01*
X94123650Y-55616383D01*
X93957552Y-56152562D01*
X93951831Y-56159451D01*
X93946376Y-56160800D01*
X93673624Y-56160800D01*
X93665351Y-56157373D01*
X93662448Y-56152562D01*
X93496349Y-55616381D01*
X93497174Y-55607466D01*
X93503017Y-55602125D01*
X93805495Y-55475879D01*
X93814446Y-55475856D01*
X94116980Y-55602124D01*
G37*
%TD.AperFunction*%
%TA.AperFunction,Conductor*%
G36*
X95841911Y-88302627D02*
G01*
X95844708Y-88307112D01*
X96028250Y-88843413D01*
X96027686Y-88852350D01*
X96021686Y-88857998D01*
X95719506Y-88984119D01*
X95710552Y-88984143D01*
X95710494Y-88984119D01*
X95408313Y-88857998D01*
X95401998Y-88851649D01*
X95401749Y-88843413D01*
X95585292Y-88307112D01*
X95591213Y-88300394D01*
X95596362Y-88299200D01*
X95833638Y-88299200D01*
X95841911Y-88302627D01*
G37*
%TD.AperFunction*%
%TA.AperFunction,Conductor*%
G36*
X85735686Y-78879001D02*
G01*
X85742001Y-78885350D01*
X85742250Y-78893586D01*
X85558708Y-79429888D01*
X85552787Y-79436606D01*
X85547638Y-79437800D01*
X85310362Y-79437800D01*
X85302089Y-79434373D01*
X85299292Y-79429888D01*
X85115749Y-78893586D01*
X85116313Y-78884649D01*
X85122311Y-78879002D01*
X85424495Y-78752879D01*
X85433446Y-78752856D01*
X85735686Y-78879001D01*
G37*
%TD.AperFunction*%
%TA.AperFunction,Conductor*%
G36*
X86571911Y-78069627D02*
G01*
X86574708Y-78074112D01*
X86758250Y-78610413D01*
X86757686Y-78619350D01*
X86751686Y-78624998D01*
X86449506Y-78751119D01*
X86440552Y-78751143D01*
X86440494Y-78751119D01*
X86138313Y-78624998D01*
X86131998Y-78618649D01*
X86131749Y-78610413D01*
X86315292Y-78074112D01*
X86321213Y-78067394D01*
X86326362Y-78066200D01*
X86563638Y-78066200D01*
X86571911Y-78069627D01*
G37*
%TD.AperFunction*%
%TA.AperFunction,Conductor*%
G36*
X81744888Y-71394292D02*
G01*
X81751606Y-71400213D01*
X81752800Y-71405362D01*
X81752800Y-71642637D01*
X81749373Y-71650910D01*
X81744888Y-71653707D01*
X81208586Y-71837250D01*
X81199649Y-71836686D01*
X81194001Y-71830687D01*
X81067879Y-71528504D01*
X81067856Y-71519552D01*
X81194002Y-71217311D01*
X81200350Y-71210998D01*
X81208586Y-71210749D01*
X81744888Y-71394292D01*
G37*
%TD.AperFunction*%
%TA.AperFunction,Conductor*%
G36*
X96656980Y-55602124D02*
G01*
X96663295Y-55608473D01*
X96663650Y-55616383D01*
X96497552Y-56152562D01*
X96491831Y-56159451D01*
X96486376Y-56160800D01*
X96213624Y-56160800D01*
X96205351Y-56157373D01*
X96202448Y-56152562D01*
X96036349Y-55616381D01*
X96037174Y-55607466D01*
X96043017Y-55602125D01*
X96345495Y-55475879D01*
X96354446Y-55475856D01*
X96656980Y-55602124D01*
G37*
%TD.AperFunction*%
%TA.AperFunction,Conductor*%
G36*
X93683911Y-78069627D02*
G01*
X93686708Y-78074112D01*
X93870250Y-78610413D01*
X93869686Y-78619350D01*
X93863686Y-78624998D01*
X93561506Y-78751119D01*
X93552552Y-78751143D01*
X93552494Y-78751119D01*
X93250313Y-78624998D01*
X93243998Y-78618649D01*
X93243749Y-78610413D01*
X93427292Y-78074112D01*
X93433213Y-78067394D01*
X93438362Y-78066200D01*
X93675638Y-78066200D01*
X93683911Y-78069627D01*
G37*
%TD.AperFunction*%
%TA.AperFunction,Conductor*%
G36*
X89495176Y-78751908D02*
G01*
X89784329Y-78872592D01*
X89797303Y-78878007D01*
X89803618Y-78884356D01*
X89803594Y-78893310D01*
X89802827Y-78894828D01*
X89495409Y-79406663D01*
X89488211Y-79411991D01*
X89485379Y-79412339D01*
X89248246Y-79412339D01*
X89239973Y-79408912D01*
X89236648Y-79402183D01*
X89166873Y-78878007D01*
X89151857Y-78765203D01*
X89154163Y-78756552D01*
X89161911Y-78752063D01*
X89163418Y-78751961D01*
X89490644Y-78751006D01*
X89495176Y-78751908D01*
G37*
%TD.AperFunction*%
%TA.AperFunction,Conductor*%
G36*
X84719686Y-78879001D02*
G01*
X84726001Y-78885350D01*
X84726250Y-78893586D01*
X84542708Y-79429888D01*
X84536787Y-79436606D01*
X84531638Y-79437800D01*
X84294362Y-79437800D01*
X84286089Y-79434373D01*
X84283292Y-79429888D01*
X84099749Y-78893586D01*
X84100313Y-78884649D01*
X84106311Y-78879002D01*
X84408495Y-78752879D01*
X84417446Y-78752856D01*
X84719686Y-78879001D01*
G37*
%TD.AperFunction*%
%TA.AperFunction,Conductor*%
G36*
X85226980Y-55602124D02*
G01*
X85233295Y-55608473D01*
X85233650Y-55616383D01*
X85067552Y-56152562D01*
X85061831Y-56159451D01*
X85056376Y-56160800D01*
X84783624Y-56160800D01*
X84775351Y-56157373D01*
X84772448Y-56152562D01*
X84606349Y-55616381D01*
X84607174Y-55607466D01*
X84613017Y-55602125D01*
X84915495Y-55475879D01*
X84924446Y-55475856D01*
X85226980Y-55602124D01*
G37*
%TD.AperFunction*%
%TA.AperFunction,Conductor*%
G36*
X83956980Y-55602124D02*
G01*
X83963295Y-55608473D01*
X83963650Y-55616383D01*
X83797552Y-56152562D01*
X83791831Y-56159451D01*
X83786376Y-56160800D01*
X83513624Y-56160800D01*
X83505351Y-56157373D01*
X83502448Y-56152562D01*
X83336349Y-55616381D01*
X83337174Y-55607466D01*
X83343017Y-55602125D01*
X83645495Y-55475879D01*
X83654446Y-55475856D01*
X83956980Y-55602124D01*
G37*
%TD.AperFunction*%
%TA.AperFunction,Conductor*%
G36*
X94571911Y-88302627D02*
G01*
X94574708Y-88307112D01*
X94758250Y-88843413D01*
X94757686Y-88852350D01*
X94751686Y-88857998D01*
X94449506Y-88984119D01*
X94440552Y-88984143D01*
X94440494Y-88984119D01*
X94138313Y-88857998D01*
X94131998Y-88851649D01*
X94131749Y-88843413D01*
X94315292Y-88307112D01*
X94321213Y-88300394D01*
X94326362Y-88299200D01*
X94563638Y-88299200D01*
X94571911Y-88302627D01*
G37*
%TD.AperFunction*%
%TA.AperFunction,Conductor*%
G36*
X95386980Y-55602124D02*
G01*
X95393295Y-55608473D01*
X95393650Y-55616383D01*
X95227552Y-56152562D01*
X95221831Y-56159451D01*
X95216376Y-56160800D01*
X94943624Y-56160800D01*
X94935351Y-56157373D01*
X94932448Y-56152562D01*
X94766349Y-55616381D01*
X94767174Y-55607466D01*
X94773017Y-55602125D01*
X95075495Y-55475879D01*
X95084446Y-55475856D01*
X95386980Y-55602124D01*
G37*
%TD.AperFunction*%
%TA.AperFunction,Conductor*%
G36*
X89036980Y-55602124D02*
G01*
X89043295Y-55608473D01*
X89043650Y-55616383D01*
X88877552Y-56152562D01*
X88871831Y-56159451D01*
X88866376Y-56160800D01*
X88593624Y-56160800D01*
X88585351Y-56157373D01*
X88582448Y-56152562D01*
X88416349Y-55616381D01*
X88417174Y-55607466D01*
X88423017Y-55602125D01*
X88725495Y-55475879D01*
X88734446Y-55475856D01*
X89036980Y-55602124D01*
G37*
%TD.AperFunction*%
%TA.AperFunction,Conductor*%
G36*
X92031911Y-88302627D02*
G01*
X92034708Y-88307112D01*
X92218250Y-88843413D01*
X92217686Y-88852350D01*
X92211686Y-88857998D01*
X91909506Y-88984119D01*
X91900552Y-88984143D01*
X91900494Y-88984119D01*
X91598313Y-88857998D01*
X91591998Y-88851649D01*
X91591749Y-88843413D01*
X91775292Y-88307112D01*
X91781213Y-88300394D01*
X91786362Y-88299200D01*
X92023638Y-88299200D01*
X92031911Y-88302627D01*
G37*
%TD.AperFunction*%
%TA.AperFunction,Conductor*%
G36*
X91576980Y-55602124D02*
G01*
X91583295Y-55608473D01*
X91583650Y-55616383D01*
X91417552Y-56152562D01*
X91411831Y-56159451D01*
X91406376Y-56160800D01*
X91133624Y-56160800D01*
X91125351Y-56157373D01*
X91122448Y-56152562D01*
X90956349Y-55616381D01*
X90957174Y-55607466D01*
X90963017Y-55602125D01*
X91265495Y-55475879D01*
X91274446Y-55475856D01*
X91576980Y-55602124D01*
G37*
%TD.AperFunction*%
%TA.AperFunction,Conductor*%
G36*
X91651911Y-78069627D02*
G01*
X91654708Y-78074112D01*
X91838250Y-78610413D01*
X91837686Y-78619350D01*
X91831686Y-78624998D01*
X91529506Y-78751119D01*
X91520552Y-78751143D01*
X91520494Y-78751119D01*
X91218313Y-78624998D01*
X91211998Y-78618649D01*
X91211749Y-78610413D01*
X91395292Y-78074112D01*
X91401213Y-78067394D01*
X91406362Y-78066200D01*
X91643638Y-78066200D01*
X91651911Y-78069627D01*
G37*
%TD.AperFunction*%
%TA.AperFunction,Conductor*%
G36*
X90306980Y-55602124D02*
G01*
X90313295Y-55608473D01*
X90313650Y-55616383D01*
X90147552Y-56152562D01*
X90141831Y-56159451D01*
X90136376Y-56160800D01*
X89863624Y-56160800D01*
X89855351Y-56157373D01*
X89852448Y-56152562D01*
X89686349Y-55616381D01*
X89687174Y-55607466D01*
X89693017Y-55602125D01*
X89995495Y-55475879D01*
X90004446Y-55475856D01*
X90306980Y-55602124D01*
G37*
%TD.AperFunction*%
%TA.AperFunction,Conductor*%
G36*
X97926980Y-55602124D02*
G01*
X97933295Y-55608473D01*
X97933650Y-55616383D01*
X97767552Y-56152562D01*
X97761831Y-56159451D01*
X97756376Y-56160800D01*
X97483624Y-56160800D01*
X97475351Y-56157373D01*
X97472448Y-56152562D01*
X97306349Y-55616381D01*
X97307174Y-55607466D01*
X97313017Y-55602125D01*
X97615495Y-55475879D01*
X97624446Y-55475856D01*
X97926980Y-55602124D01*
G37*
%TD.AperFunction*%
%TA.AperFunction,Conductor*%
G36*
X99058686Y-74699001D02*
G01*
X99065001Y-74705350D01*
X99065250Y-74713586D01*
X98881708Y-75249888D01*
X98875787Y-75256606D01*
X98870638Y-75257800D01*
X98633362Y-75257800D01*
X98625089Y-75254373D01*
X98622292Y-75249888D01*
X98438749Y-74713586D01*
X98439313Y-74704649D01*
X98445311Y-74699002D01*
X98747495Y-74572879D01*
X98756446Y-74572856D01*
X99058686Y-74699001D01*
G37*
%TD.AperFunction*%
%TA.AperFunction,Conductor*%
G36*
X93301911Y-88302627D02*
G01*
X93304708Y-88307112D01*
X93488250Y-88843413D01*
X93487686Y-88852350D01*
X93481686Y-88857998D01*
X93179506Y-88984119D01*
X93170552Y-88984143D01*
X93170494Y-88984119D01*
X92868313Y-88857998D01*
X92861998Y-88851649D01*
X92861749Y-88843413D01*
X93045292Y-88307112D01*
X93051213Y-88300394D01*
X93056362Y-88299200D01*
X93293638Y-88299200D01*
X93301911Y-88302627D01*
G37*
%TD.AperFunction*%
%TA.AperFunction,Conductor*%
G36*
X94577106Y-78754713D02*
G01*
X94577147Y-78754754D01*
X94687558Y-78865810D01*
X94808622Y-78987582D01*
X94812025Y-78995864D01*
X94809963Y-79002463D01*
X94504037Y-79446957D01*
X94496524Y-79451829D01*
X94487766Y-79449962D01*
X94486126Y-79448597D01*
X94319125Y-79281596D01*
X94315852Y-79275216D01*
X94232323Y-78765563D01*
X94234367Y-78756845D01*
X94241977Y-78752125D01*
X94243836Y-78751971D01*
X94568826Y-78751303D01*
X94577106Y-78754713D01*
G37*
%TD.AperFunction*%
%TA.AperFunction,Conductor*%
G36*
X86496980Y-55602124D02*
G01*
X86503295Y-55608473D01*
X86503650Y-55616383D01*
X86337552Y-56152562D01*
X86331831Y-56159451D01*
X86326376Y-56160800D01*
X86053624Y-56160800D01*
X86045351Y-56157373D01*
X86042448Y-56152562D01*
X85876349Y-55616381D01*
X85877174Y-55607466D01*
X85883017Y-55602125D01*
X86185495Y-55475879D01*
X86194446Y-55475856D01*
X86496980Y-55602124D01*
G37*
%TD.AperFunction*%
%TA.AperFunction,Conductor*%
G36*
X99016911Y-61817627D02*
G01*
X99019708Y-61822112D01*
X99203250Y-62358413D01*
X99202686Y-62367350D01*
X99196686Y-62372998D01*
X98894506Y-62499119D01*
X98885552Y-62499143D01*
X98885494Y-62499119D01*
X98583313Y-62372998D01*
X98576998Y-62366649D01*
X98576749Y-62358413D01*
X98760292Y-61822112D01*
X98766213Y-61815394D01*
X98771362Y-61814200D01*
X99008638Y-61814200D01*
X99016911Y-61817627D01*
G37*
%TD.AperFunction*%
%TA.AperFunction,Conductor*%
G36*
X84561609Y-78074003D02*
G01*
X84564527Y-78078863D01*
X84726708Y-78610647D01*
X84725844Y-78619560D01*
X84720023Y-78624857D01*
X84417506Y-78751119D01*
X84408552Y-78751143D01*
X84408494Y-78751119D01*
X84106702Y-78625160D01*
X84100387Y-78618811D01*
X84100289Y-78610160D01*
X84305114Y-78078073D01*
X84311284Y-78071583D01*
X84316033Y-78070576D01*
X84553336Y-78070576D01*
X84561609Y-78074003D01*
G37*
%TD.AperFunction*%
%TA.AperFunction,Conductor*%
G36*
X91831686Y-78879001D02*
G01*
X91838001Y-78885350D01*
X91838250Y-78893586D01*
X91654708Y-79429888D01*
X91648787Y-79436606D01*
X91643638Y-79437800D01*
X91406362Y-79437800D01*
X91398089Y-79434373D01*
X91395292Y-79429888D01*
X91211749Y-78893586D01*
X91212313Y-78884649D01*
X91218311Y-78879002D01*
X91520495Y-78752879D01*
X91529446Y-78752856D01*
X91831686Y-78879001D01*
G37*
%TD.AperFunction*%
%TA.AperFunction,Conductor*%
G36*
X98893911Y-73243968D02*
G01*
X98894119Y-73244057D01*
X99491027Y-73510041D01*
X99497189Y-73516539D01*
X99496952Y-73525490D01*
X99494538Y-73529001D01*
X99328677Y-73694862D01*
X99324722Y-73697463D01*
X98893924Y-73868547D01*
X98884971Y-73868416D01*
X98878802Y-73862162D01*
X98753161Y-73559790D01*
X98753152Y-73550838D01*
X98878607Y-73250257D01*
X98884956Y-73243944D01*
X98893911Y-73243968D01*
G37*
%TD.AperFunction*%
%TA.AperFunction,Conductor*%
G36*
X83227888Y-87545292D02*
G01*
X83234606Y-87551213D01*
X83235800Y-87556362D01*
X83235800Y-87793637D01*
X83232373Y-87801910D01*
X83227888Y-87804707D01*
X82691586Y-87988250D01*
X82682649Y-87987686D01*
X82677001Y-87981687D01*
X82550879Y-87679504D01*
X82550856Y-87670552D01*
X82677002Y-87368311D01*
X82683350Y-87361998D01*
X82691586Y-87361749D01*
X83227888Y-87545292D01*
G37*
%TD.AperFunction*%
%TA.AperFunction,Conductor*%
G36*
X98619350Y-72227313D02*
G01*
X98624998Y-72233313D01*
X98751119Y-72535494D01*
X98751143Y-72544448D01*
X98751119Y-72544506D01*
X98624998Y-72846686D01*
X98618649Y-72853001D01*
X98610413Y-72853250D01*
X98074112Y-72669707D01*
X98067394Y-72663786D01*
X98066200Y-72658637D01*
X98066200Y-72421362D01*
X98069627Y-72413089D01*
X98074111Y-72410292D01*
X98610413Y-72226749D01*
X98619350Y-72227313D01*
G37*
%TD.AperFunction*%
M02*
