%TF.GenerationSoftware,KiCad,Pcbnew,8.0.3-8.0.3-0~ubuntu24.04.1*%
%TF.CreationDate,2024-07-09T09:25:00+02:00*%
%TF.ProjectId,PythonBreakout,50797468-6f6e-4427-9265-616b6f75742e,rev?*%
%TF.SameCoordinates,Original*%
%TF.FileFunction,Drillmap*%
%TF.FilePolarity,Positive*%
%FSLAX45Y45*%
G04 Gerber Fmt 4.5, Leading zero omitted, Abs format (unit mm)*
G04 Created by KiCad (PCBNEW 8.0.3-8.0.3-0~ubuntu24.04.1) date 2024-07-09 09:25:00*
%MOMM*%
%LPD*%
G01*
G04 APERTURE LIST*
%ADD10C,0.050000*%
%ADD11C,0.200000*%
%ADD12C,0.119000*%
G04 APERTURE END LIST*
D10*
X7500000Y-5287500D02*
X10400000Y-5287500D01*
X10400000Y-9062500D01*
X7500000Y-9062500D01*
X7500000Y-5287500D01*
D11*
D12*
X7892500Y-5833000D02*
X8011500Y-5952000D01*
X8011500Y-5833000D02*
X7892500Y-5952000D01*
X8210000Y-8494000D02*
X8329000Y-8613000D01*
X8329000Y-8494000D02*
X8210000Y-8613000D01*
X9671000Y-8494000D02*
X9790000Y-8613000D01*
X9790000Y-8494000D02*
X9671000Y-8613000D01*
X9988500Y-5833000D02*
X10107500Y-5952000D01*
X10107500Y-5833000D02*
X9988500Y-5952000D01*
D11*
X7758277Y-9376484D02*
X7758277Y-9176484D01*
X7758277Y-9176484D02*
X7805896Y-9176484D01*
X7805896Y-9176484D02*
X7834467Y-9186008D01*
X7834467Y-9186008D02*
X7853515Y-9205055D01*
X7853515Y-9205055D02*
X7863039Y-9224103D01*
X7863039Y-9224103D02*
X7872562Y-9262198D01*
X7872562Y-9262198D02*
X7872562Y-9290770D01*
X7872562Y-9290770D02*
X7863039Y-9328865D01*
X7863039Y-9328865D02*
X7853515Y-9347912D01*
X7853515Y-9347912D02*
X7834467Y-9366960D01*
X7834467Y-9366960D02*
X7805896Y-9376484D01*
X7805896Y-9376484D02*
X7758277Y-9376484D01*
X7958277Y-9376484D02*
X7958277Y-9243150D01*
X7958277Y-9281246D02*
X7967801Y-9262198D01*
X7967801Y-9262198D02*
X7977324Y-9252674D01*
X7977324Y-9252674D02*
X7996372Y-9243150D01*
X7996372Y-9243150D02*
X8015420Y-9243150D01*
X8082086Y-9376484D02*
X8082086Y-9243150D01*
X8082086Y-9176484D02*
X8072562Y-9186008D01*
X8072562Y-9186008D02*
X8082086Y-9195531D01*
X8082086Y-9195531D02*
X8091610Y-9186008D01*
X8091610Y-9186008D02*
X8082086Y-9176484D01*
X8082086Y-9176484D02*
X8082086Y-9195531D01*
X8205896Y-9376484D02*
X8186848Y-9366960D01*
X8186848Y-9366960D02*
X8177324Y-9347912D01*
X8177324Y-9347912D02*
X8177324Y-9176484D01*
X8310658Y-9376484D02*
X8291610Y-9366960D01*
X8291610Y-9366960D02*
X8282086Y-9347912D01*
X8282086Y-9347912D02*
X8282086Y-9176484D01*
X8539229Y-9376484D02*
X8539229Y-9176484D01*
X8539229Y-9176484D02*
X8605896Y-9319341D01*
X8605896Y-9319341D02*
X8672563Y-9176484D01*
X8672563Y-9176484D02*
X8672563Y-9376484D01*
X8853515Y-9376484D02*
X8853515Y-9271722D01*
X8853515Y-9271722D02*
X8843991Y-9252674D01*
X8843991Y-9252674D02*
X8824944Y-9243150D01*
X8824944Y-9243150D02*
X8786848Y-9243150D01*
X8786848Y-9243150D02*
X8767801Y-9252674D01*
X8853515Y-9366960D02*
X8834467Y-9376484D01*
X8834467Y-9376484D02*
X8786848Y-9376484D01*
X8786848Y-9376484D02*
X8767801Y-9366960D01*
X8767801Y-9366960D02*
X8758277Y-9347912D01*
X8758277Y-9347912D02*
X8758277Y-9328865D01*
X8758277Y-9328865D02*
X8767801Y-9309817D01*
X8767801Y-9309817D02*
X8786848Y-9300293D01*
X8786848Y-9300293D02*
X8834467Y-9300293D01*
X8834467Y-9300293D02*
X8853515Y-9290770D01*
X8948753Y-9243150D02*
X8948753Y-9443150D01*
X8948753Y-9252674D02*
X8967801Y-9243150D01*
X8967801Y-9243150D02*
X9005896Y-9243150D01*
X9005896Y-9243150D02*
X9024944Y-9252674D01*
X9024944Y-9252674D02*
X9034467Y-9262198D01*
X9034467Y-9262198D02*
X9043991Y-9281246D01*
X9043991Y-9281246D02*
X9043991Y-9338389D01*
X9043991Y-9338389D02*
X9034467Y-9357436D01*
X9034467Y-9357436D02*
X9024944Y-9366960D01*
X9024944Y-9366960D02*
X9005896Y-9376484D01*
X9005896Y-9376484D02*
X8967801Y-9376484D01*
X8967801Y-9376484D02*
X8948753Y-9366960D01*
X9129705Y-9357436D02*
X9139229Y-9366960D01*
X9139229Y-9366960D02*
X9129705Y-9376484D01*
X9129705Y-9376484D02*
X9120182Y-9366960D01*
X9120182Y-9366960D02*
X9129705Y-9357436D01*
X9129705Y-9357436D02*
X9129705Y-9376484D01*
X9129705Y-9252674D02*
X9139229Y-9262198D01*
X9139229Y-9262198D02*
X9129705Y-9271722D01*
X9129705Y-9271722D02*
X9120182Y-9262198D01*
X9120182Y-9262198D02*
X9129705Y-9252674D01*
X9129705Y-9252674D02*
X9129705Y-9271722D01*
D12*
X7378500Y-9645500D02*
X7497500Y-9764500D01*
X7497500Y-9645500D02*
X7378500Y-9764500D01*
D11*
X7863039Y-9796484D02*
X7748753Y-9796484D01*
X7805896Y-9796484D02*
X7805896Y-9596484D01*
X7805896Y-9596484D02*
X7786848Y-9625055D01*
X7786848Y-9625055D02*
X7767801Y-9644103D01*
X7767801Y-9644103D02*
X7748753Y-9653627D01*
X7948753Y-9777436D02*
X7958277Y-9786960D01*
X7958277Y-9786960D02*
X7948753Y-9796484D01*
X7948753Y-9796484D02*
X7939229Y-9786960D01*
X7939229Y-9786960D02*
X7948753Y-9777436D01*
X7948753Y-9777436D02*
X7948753Y-9796484D01*
X8148753Y-9796484D02*
X8034467Y-9796484D01*
X8091610Y-9796484D02*
X8091610Y-9596484D01*
X8091610Y-9596484D02*
X8072562Y-9625055D01*
X8072562Y-9625055D02*
X8053515Y-9644103D01*
X8053515Y-9644103D02*
X8034467Y-9653627D01*
X8243991Y-9796484D02*
X8282086Y-9796484D01*
X8282086Y-9796484D02*
X8301134Y-9786960D01*
X8301134Y-9786960D02*
X8310658Y-9777436D01*
X8310658Y-9777436D02*
X8329705Y-9748865D01*
X8329705Y-9748865D02*
X8339229Y-9710770D01*
X8339229Y-9710770D02*
X8339229Y-9634579D01*
X8339229Y-9634579D02*
X8329705Y-9615531D01*
X8329705Y-9615531D02*
X8320182Y-9606008D01*
X8320182Y-9606008D02*
X8301134Y-9596484D01*
X8301134Y-9596484D02*
X8263039Y-9596484D01*
X8263039Y-9596484D02*
X8243991Y-9606008D01*
X8243991Y-9606008D02*
X8234467Y-9615531D01*
X8234467Y-9615531D02*
X8224943Y-9634579D01*
X8224943Y-9634579D02*
X8224943Y-9682198D01*
X8224943Y-9682198D02*
X8234467Y-9701246D01*
X8234467Y-9701246D02*
X8243991Y-9710770D01*
X8243991Y-9710770D02*
X8263039Y-9720293D01*
X8263039Y-9720293D02*
X8301134Y-9720293D01*
X8301134Y-9720293D02*
X8320182Y-9710770D01*
X8320182Y-9710770D02*
X8329705Y-9701246D01*
X8329705Y-9701246D02*
X8339229Y-9682198D01*
X8463039Y-9596484D02*
X8482086Y-9596484D01*
X8482086Y-9596484D02*
X8501134Y-9606008D01*
X8501134Y-9606008D02*
X8510658Y-9615531D01*
X8510658Y-9615531D02*
X8520182Y-9634579D01*
X8520182Y-9634579D02*
X8529705Y-9672674D01*
X8529705Y-9672674D02*
X8529705Y-9720293D01*
X8529705Y-9720293D02*
X8520182Y-9758389D01*
X8520182Y-9758389D02*
X8510658Y-9777436D01*
X8510658Y-9777436D02*
X8501134Y-9786960D01*
X8501134Y-9786960D02*
X8482086Y-9796484D01*
X8482086Y-9796484D02*
X8463039Y-9796484D01*
X8463039Y-9796484D02*
X8443991Y-9786960D01*
X8443991Y-9786960D02*
X8434467Y-9777436D01*
X8434467Y-9777436D02*
X8424944Y-9758389D01*
X8424944Y-9758389D02*
X8415420Y-9720293D01*
X8415420Y-9720293D02*
X8415420Y-9672674D01*
X8415420Y-9672674D02*
X8424944Y-9634579D01*
X8424944Y-9634579D02*
X8434467Y-9615531D01*
X8434467Y-9615531D02*
X8443991Y-9606008D01*
X8443991Y-9606008D02*
X8463039Y-9596484D01*
X8615420Y-9796484D02*
X8615420Y-9663150D01*
X8615420Y-9682198D02*
X8624944Y-9672674D01*
X8624944Y-9672674D02*
X8643991Y-9663150D01*
X8643991Y-9663150D02*
X8672563Y-9663150D01*
X8672563Y-9663150D02*
X8691610Y-9672674D01*
X8691610Y-9672674D02*
X8701134Y-9691722D01*
X8701134Y-9691722D02*
X8701134Y-9796484D01*
X8701134Y-9691722D02*
X8710658Y-9672674D01*
X8710658Y-9672674D02*
X8729705Y-9663150D01*
X8729705Y-9663150D02*
X8758277Y-9663150D01*
X8758277Y-9663150D02*
X8777325Y-9672674D01*
X8777325Y-9672674D02*
X8786848Y-9691722D01*
X8786848Y-9691722D02*
X8786848Y-9796484D01*
X8882086Y-9796484D02*
X8882086Y-9663150D01*
X8882086Y-9682198D02*
X8891610Y-9672674D01*
X8891610Y-9672674D02*
X8910658Y-9663150D01*
X8910658Y-9663150D02*
X8939229Y-9663150D01*
X8939229Y-9663150D02*
X8958277Y-9672674D01*
X8958277Y-9672674D02*
X8967801Y-9691722D01*
X8967801Y-9691722D02*
X8967801Y-9796484D01*
X8967801Y-9691722D02*
X8977325Y-9672674D01*
X8977325Y-9672674D02*
X8996372Y-9663150D01*
X8996372Y-9663150D02*
X9024944Y-9663150D01*
X9024944Y-9663150D02*
X9043991Y-9672674D01*
X9043991Y-9672674D02*
X9053515Y-9691722D01*
X9053515Y-9691722D02*
X9053515Y-9796484D01*
X9443991Y-9586960D02*
X9272563Y-9844103D01*
X9701134Y-9596484D02*
X9720182Y-9596484D01*
X9720182Y-9596484D02*
X9739229Y-9606008D01*
X9739229Y-9606008D02*
X9748753Y-9615531D01*
X9748753Y-9615531D02*
X9758277Y-9634579D01*
X9758277Y-9634579D02*
X9767801Y-9672674D01*
X9767801Y-9672674D02*
X9767801Y-9720293D01*
X9767801Y-9720293D02*
X9758277Y-9758389D01*
X9758277Y-9758389D02*
X9748753Y-9777436D01*
X9748753Y-9777436D02*
X9739229Y-9786960D01*
X9739229Y-9786960D02*
X9720182Y-9796484D01*
X9720182Y-9796484D02*
X9701134Y-9796484D01*
X9701134Y-9796484D02*
X9682087Y-9786960D01*
X9682087Y-9786960D02*
X9672563Y-9777436D01*
X9672563Y-9777436D02*
X9663039Y-9758389D01*
X9663039Y-9758389D02*
X9653515Y-9720293D01*
X9653515Y-9720293D02*
X9653515Y-9672674D01*
X9653515Y-9672674D02*
X9663039Y-9634579D01*
X9663039Y-9634579D02*
X9672563Y-9615531D01*
X9672563Y-9615531D02*
X9682087Y-9606008D01*
X9682087Y-9606008D02*
X9701134Y-9596484D01*
X9853515Y-9777436D02*
X9863039Y-9786960D01*
X9863039Y-9786960D02*
X9853515Y-9796484D01*
X9853515Y-9796484D02*
X9843991Y-9786960D01*
X9843991Y-9786960D02*
X9853515Y-9777436D01*
X9853515Y-9777436D02*
X9853515Y-9796484D01*
X9986848Y-9596484D02*
X10005896Y-9596484D01*
X10005896Y-9596484D02*
X10024944Y-9606008D01*
X10024944Y-9606008D02*
X10034468Y-9615531D01*
X10034468Y-9615531D02*
X10043991Y-9634579D01*
X10043991Y-9634579D02*
X10053515Y-9672674D01*
X10053515Y-9672674D02*
X10053515Y-9720293D01*
X10053515Y-9720293D02*
X10043991Y-9758389D01*
X10043991Y-9758389D02*
X10034468Y-9777436D01*
X10034468Y-9777436D02*
X10024944Y-9786960D01*
X10024944Y-9786960D02*
X10005896Y-9796484D01*
X10005896Y-9796484D02*
X9986848Y-9796484D01*
X9986848Y-9796484D02*
X9967801Y-9786960D01*
X9967801Y-9786960D02*
X9958277Y-9777436D01*
X9958277Y-9777436D02*
X9948753Y-9758389D01*
X9948753Y-9758389D02*
X9939229Y-9720293D01*
X9939229Y-9720293D02*
X9939229Y-9672674D01*
X9939229Y-9672674D02*
X9948753Y-9634579D01*
X9948753Y-9634579D02*
X9958277Y-9615531D01*
X9958277Y-9615531D02*
X9967801Y-9606008D01*
X9967801Y-9606008D02*
X9986848Y-9596484D01*
X10224944Y-9663150D02*
X10224944Y-9796484D01*
X10177325Y-9586960D02*
X10129706Y-9729817D01*
X10129706Y-9729817D02*
X10253515Y-9729817D01*
X10415420Y-9596484D02*
X10377325Y-9596484D01*
X10377325Y-9596484D02*
X10358277Y-9606008D01*
X10358277Y-9606008D02*
X10348753Y-9615531D01*
X10348753Y-9615531D02*
X10329706Y-9644103D01*
X10329706Y-9644103D02*
X10320182Y-9682198D01*
X10320182Y-9682198D02*
X10320182Y-9758389D01*
X10320182Y-9758389D02*
X10329706Y-9777436D01*
X10329706Y-9777436D02*
X10339229Y-9786960D01*
X10339229Y-9786960D02*
X10358277Y-9796484D01*
X10358277Y-9796484D02*
X10396372Y-9796484D01*
X10396372Y-9796484D02*
X10415420Y-9786960D01*
X10415420Y-9786960D02*
X10424944Y-9777436D01*
X10424944Y-9777436D02*
X10434468Y-9758389D01*
X10434468Y-9758389D02*
X10434468Y-9710770D01*
X10434468Y-9710770D02*
X10424944Y-9691722D01*
X10424944Y-9691722D02*
X10415420Y-9682198D01*
X10415420Y-9682198D02*
X10396372Y-9672674D01*
X10396372Y-9672674D02*
X10358277Y-9672674D01*
X10358277Y-9672674D02*
X10339229Y-9682198D01*
X10339229Y-9682198D02*
X10329706Y-9691722D01*
X10329706Y-9691722D02*
X10320182Y-9710770D01*
X10529706Y-9796484D02*
X10567801Y-9796484D01*
X10567801Y-9796484D02*
X10586849Y-9786960D01*
X10586849Y-9786960D02*
X10596372Y-9777436D01*
X10596372Y-9777436D02*
X10615420Y-9748865D01*
X10615420Y-9748865D02*
X10624944Y-9710770D01*
X10624944Y-9710770D02*
X10624944Y-9634579D01*
X10624944Y-9634579D02*
X10615420Y-9615531D01*
X10615420Y-9615531D02*
X10605896Y-9606008D01*
X10605896Y-9606008D02*
X10586849Y-9596484D01*
X10586849Y-9596484D02*
X10548753Y-9596484D01*
X10548753Y-9596484D02*
X10529706Y-9606008D01*
X10529706Y-9606008D02*
X10520182Y-9615531D01*
X10520182Y-9615531D02*
X10510658Y-9634579D01*
X10510658Y-9634579D02*
X10510658Y-9682198D01*
X10510658Y-9682198D02*
X10520182Y-9701246D01*
X10520182Y-9701246D02*
X10529706Y-9710770D01*
X10529706Y-9710770D02*
X10548753Y-9720293D01*
X10548753Y-9720293D02*
X10586849Y-9720293D01*
X10586849Y-9720293D02*
X10605896Y-9710770D01*
X10605896Y-9710770D02*
X10615420Y-9701246D01*
X10615420Y-9701246D02*
X10624944Y-9682198D01*
X10701134Y-9596484D02*
X10701134Y-9634579D01*
X10777325Y-9596484D02*
X10777325Y-9634579D01*
X11072563Y-9872674D02*
X11063039Y-9863150D01*
X11063039Y-9863150D02*
X11043991Y-9834579D01*
X11043991Y-9834579D02*
X11034468Y-9815531D01*
X11034468Y-9815531D02*
X11024944Y-9786960D01*
X11024944Y-9786960D02*
X11015420Y-9739341D01*
X11015420Y-9739341D02*
X11015420Y-9701246D01*
X11015420Y-9701246D02*
X11024944Y-9653627D01*
X11024944Y-9653627D02*
X11034468Y-9625055D01*
X11034468Y-9625055D02*
X11043991Y-9606008D01*
X11043991Y-9606008D02*
X11063039Y-9577436D01*
X11063039Y-9577436D02*
X11072563Y-9567912D01*
X11234468Y-9663150D02*
X11234468Y-9796484D01*
X11186848Y-9586960D02*
X11139230Y-9729817D01*
X11139230Y-9729817D02*
X11263039Y-9729817D01*
X11491610Y-9796484D02*
X11491610Y-9596484D01*
X11577325Y-9796484D02*
X11577325Y-9691722D01*
X11577325Y-9691722D02*
X11567801Y-9672674D01*
X11567801Y-9672674D02*
X11548753Y-9663150D01*
X11548753Y-9663150D02*
X11520182Y-9663150D01*
X11520182Y-9663150D02*
X11501134Y-9672674D01*
X11501134Y-9672674D02*
X11491610Y-9682198D01*
X11701134Y-9796484D02*
X11682087Y-9786960D01*
X11682087Y-9786960D02*
X11672563Y-9777436D01*
X11672563Y-9777436D02*
X11663039Y-9758389D01*
X11663039Y-9758389D02*
X11663039Y-9701246D01*
X11663039Y-9701246D02*
X11672563Y-9682198D01*
X11672563Y-9682198D02*
X11682087Y-9672674D01*
X11682087Y-9672674D02*
X11701134Y-9663150D01*
X11701134Y-9663150D02*
X11729706Y-9663150D01*
X11729706Y-9663150D02*
X11748753Y-9672674D01*
X11748753Y-9672674D02*
X11758277Y-9682198D01*
X11758277Y-9682198D02*
X11767801Y-9701246D01*
X11767801Y-9701246D02*
X11767801Y-9758389D01*
X11767801Y-9758389D02*
X11758277Y-9777436D01*
X11758277Y-9777436D02*
X11748753Y-9786960D01*
X11748753Y-9786960D02*
X11729706Y-9796484D01*
X11729706Y-9796484D02*
X11701134Y-9796484D01*
X11882087Y-9796484D02*
X11863039Y-9786960D01*
X11863039Y-9786960D02*
X11853515Y-9767912D01*
X11853515Y-9767912D02*
X11853515Y-9596484D01*
X12034468Y-9786960D02*
X12015420Y-9796484D01*
X12015420Y-9796484D02*
X11977325Y-9796484D01*
X11977325Y-9796484D02*
X11958277Y-9786960D01*
X11958277Y-9786960D02*
X11948753Y-9767912D01*
X11948753Y-9767912D02*
X11948753Y-9691722D01*
X11948753Y-9691722D02*
X11958277Y-9672674D01*
X11958277Y-9672674D02*
X11977325Y-9663150D01*
X11977325Y-9663150D02*
X12015420Y-9663150D01*
X12015420Y-9663150D02*
X12034468Y-9672674D01*
X12034468Y-9672674D02*
X12043991Y-9691722D01*
X12043991Y-9691722D02*
X12043991Y-9710770D01*
X12043991Y-9710770D02*
X11948753Y-9729817D01*
X12120182Y-9786960D02*
X12139230Y-9796484D01*
X12139230Y-9796484D02*
X12177325Y-9796484D01*
X12177325Y-9796484D02*
X12196372Y-9786960D01*
X12196372Y-9786960D02*
X12205896Y-9767912D01*
X12205896Y-9767912D02*
X12205896Y-9758389D01*
X12205896Y-9758389D02*
X12196372Y-9739341D01*
X12196372Y-9739341D02*
X12177325Y-9729817D01*
X12177325Y-9729817D02*
X12148753Y-9729817D01*
X12148753Y-9729817D02*
X12129706Y-9720293D01*
X12129706Y-9720293D02*
X12120182Y-9701246D01*
X12120182Y-9701246D02*
X12120182Y-9691722D01*
X12120182Y-9691722D02*
X12129706Y-9672674D01*
X12129706Y-9672674D02*
X12148753Y-9663150D01*
X12148753Y-9663150D02*
X12177325Y-9663150D01*
X12177325Y-9663150D02*
X12196372Y-9672674D01*
X12272563Y-9872674D02*
X12282087Y-9863150D01*
X12282087Y-9863150D02*
X12301134Y-9834579D01*
X12301134Y-9834579D02*
X12310658Y-9815531D01*
X12310658Y-9815531D02*
X12320182Y-9786960D01*
X12320182Y-9786960D02*
X12329706Y-9739341D01*
X12329706Y-9739341D02*
X12329706Y-9701246D01*
X12329706Y-9701246D02*
X12320182Y-9653627D01*
X12320182Y-9653627D02*
X12310658Y-9625055D01*
X12310658Y-9625055D02*
X12301134Y-9606008D01*
X12301134Y-9606008D02*
X12282087Y-9577436D01*
X12282087Y-9577436D02*
X12272563Y-9567912D01*
X12634468Y-9872674D02*
X12624944Y-9863150D01*
X12624944Y-9863150D02*
X12605896Y-9834579D01*
X12605896Y-9834579D02*
X12596372Y-9815531D01*
X12596372Y-9815531D02*
X12586849Y-9786960D01*
X12586849Y-9786960D02*
X12577325Y-9739341D01*
X12577325Y-9739341D02*
X12577325Y-9701246D01*
X12577325Y-9701246D02*
X12586849Y-9653627D01*
X12586849Y-9653627D02*
X12596372Y-9625055D01*
X12596372Y-9625055D02*
X12605896Y-9606008D01*
X12605896Y-9606008D02*
X12624944Y-9577436D01*
X12624944Y-9577436D02*
X12634468Y-9567912D01*
X12710658Y-9663150D02*
X12710658Y-9796484D01*
X12710658Y-9682198D02*
X12720182Y-9672674D01*
X12720182Y-9672674D02*
X12739230Y-9663150D01*
X12739230Y-9663150D02*
X12767801Y-9663150D01*
X12767801Y-9663150D02*
X12786849Y-9672674D01*
X12786849Y-9672674D02*
X12796372Y-9691722D01*
X12796372Y-9691722D02*
X12796372Y-9796484D01*
X12920182Y-9796484D02*
X12901134Y-9786960D01*
X12901134Y-9786960D02*
X12891611Y-9777436D01*
X12891611Y-9777436D02*
X12882087Y-9758389D01*
X12882087Y-9758389D02*
X12882087Y-9701246D01*
X12882087Y-9701246D02*
X12891611Y-9682198D01*
X12891611Y-9682198D02*
X12901134Y-9672674D01*
X12901134Y-9672674D02*
X12920182Y-9663150D01*
X12920182Y-9663150D02*
X12948753Y-9663150D01*
X12948753Y-9663150D02*
X12967801Y-9672674D01*
X12967801Y-9672674D02*
X12977325Y-9682198D01*
X12977325Y-9682198D02*
X12986849Y-9701246D01*
X12986849Y-9701246D02*
X12986849Y-9758389D01*
X12986849Y-9758389D02*
X12977325Y-9777436D01*
X12977325Y-9777436D02*
X12967801Y-9786960D01*
X12967801Y-9786960D02*
X12948753Y-9796484D01*
X12948753Y-9796484D02*
X12920182Y-9796484D01*
X13043992Y-9663150D02*
X13120182Y-9663150D01*
X13072563Y-9596484D02*
X13072563Y-9767912D01*
X13072563Y-9767912D02*
X13082087Y-9786960D01*
X13082087Y-9786960D02*
X13101134Y-9796484D01*
X13101134Y-9796484D02*
X13120182Y-9796484D01*
X13339230Y-9663150D02*
X13339230Y-9863150D01*
X13339230Y-9672674D02*
X13358277Y-9663150D01*
X13358277Y-9663150D02*
X13396373Y-9663150D01*
X13396373Y-9663150D02*
X13415420Y-9672674D01*
X13415420Y-9672674D02*
X13424944Y-9682198D01*
X13424944Y-9682198D02*
X13434468Y-9701246D01*
X13434468Y-9701246D02*
X13434468Y-9758389D01*
X13434468Y-9758389D02*
X13424944Y-9777436D01*
X13424944Y-9777436D02*
X13415420Y-9786960D01*
X13415420Y-9786960D02*
X13396373Y-9796484D01*
X13396373Y-9796484D02*
X13358277Y-9796484D01*
X13358277Y-9796484D02*
X13339230Y-9786960D01*
X13548753Y-9796484D02*
X13529706Y-9786960D01*
X13529706Y-9786960D02*
X13520182Y-9767912D01*
X13520182Y-9767912D02*
X13520182Y-9596484D01*
X13710658Y-9796484D02*
X13710658Y-9691722D01*
X13710658Y-9691722D02*
X13701134Y-9672674D01*
X13701134Y-9672674D02*
X13682087Y-9663150D01*
X13682087Y-9663150D02*
X13643992Y-9663150D01*
X13643992Y-9663150D02*
X13624944Y-9672674D01*
X13710658Y-9786960D02*
X13691611Y-9796484D01*
X13691611Y-9796484D02*
X13643992Y-9796484D01*
X13643992Y-9796484D02*
X13624944Y-9786960D01*
X13624944Y-9786960D02*
X13615420Y-9767912D01*
X13615420Y-9767912D02*
X13615420Y-9748865D01*
X13615420Y-9748865D02*
X13624944Y-9729817D01*
X13624944Y-9729817D02*
X13643992Y-9720293D01*
X13643992Y-9720293D02*
X13691611Y-9720293D01*
X13691611Y-9720293D02*
X13710658Y-9710770D01*
X13777325Y-9663150D02*
X13853515Y-9663150D01*
X13805896Y-9596484D02*
X13805896Y-9767912D01*
X13805896Y-9767912D02*
X13815420Y-9786960D01*
X13815420Y-9786960D02*
X13834468Y-9796484D01*
X13834468Y-9796484D02*
X13853515Y-9796484D01*
X13996373Y-9786960D02*
X13977325Y-9796484D01*
X13977325Y-9796484D02*
X13939230Y-9796484D01*
X13939230Y-9796484D02*
X13920182Y-9786960D01*
X13920182Y-9786960D02*
X13910658Y-9767912D01*
X13910658Y-9767912D02*
X13910658Y-9691722D01*
X13910658Y-9691722D02*
X13920182Y-9672674D01*
X13920182Y-9672674D02*
X13939230Y-9663150D01*
X13939230Y-9663150D02*
X13977325Y-9663150D01*
X13977325Y-9663150D02*
X13996373Y-9672674D01*
X13996373Y-9672674D02*
X14005896Y-9691722D01*
X14005896Y-9691722D02*
X14005896Y-9710770D01*
X14005896Y-9710770D02*
X13910658Y-9729817D01*
X14177325Y-9796484D02*
X14177325Y-9596484D01*
X14177325Y-9786960D02*
X14158277Y-9796484D01*
X14158277Y-9796484D02*
X14120182Y-9796484D01*
X14120182Y-9796484D02*
X14101134Y-9786960D01*
X14101134Y-9786960D02*
X14091611Y-9777436D01*
X14091611Y-9777436D02*
X14082087Y-9758389D01*
X14082087Y-9758389D02*
X14082087Y-9701246D01*
X14082087Y-9701246D02*
X14091611Y-9682198D01*
X14091611Y-9682198D02*
X14101134Y-9672674D01*
X14101134Y-9672674D02*
X14120182Y-9663150D01*
X14120182Y-9663150D02*
X14158277Y-9663150D01*
X14158277Y-9663150D02*
X14177325Y-9672674D01*
X14253515Y-9872674D02*
X14263039Y-9863150D01*
X14263039Y-9863150D02*
X14282087Y-9834579D01*
X14282087Y-9834579D02*
X14291611Y-9815531D01*
X14291611Y-9815531D02*
X14301134Y-9786960D01*
X14301134Y-9786960D02*
X14310658Y-9739341D01*
X14310658Y-9739341D02*
X14310658Y-9701246D01*
X14310658Y-9701246D02*
X14301134Y-9653627D01*
X14301134Y-9653627D02*
X14291611Y-9625055D01*
X14291611Y-9625055D02*
X14282087Y-9606008D01*
X14282087Y-9606008D02*
X14263039Y-9577436D01*
X14263039Y-9577436D02*
X14253515Y-9567912D01*
M02*
