%TF.GenerationSoftware,KiCad,Pcbnew,8.0.3-8.0.3-0~ubuntu24.04.1*%
%TF.CreationDate,2024-07-09T09:27:24+02:00*%
%TF.ProjectId,PythonBreakout,50797468-6f6e-4427-9265-616b6f75742e,rev?*%
%TF.SameCoordinates,Original*%
%TF.FileFunction,Copper,L3,Inr*%
%TF.FilePolarity,Positive*%
%FSLAX46Y46*%
G04 Gerber Fmt 4.6, Leading zero omitted, Abs format (unit mm)*
G04 Created by KiCad (PCBNEW 8.0.3-8.0.3-0~ubuntu24.04.1) date 2024-07-09 09:27:24*
%MOMM*%
%LPD*%
G01*
G04 APERTURE LIST*
%TA.AperFunction,ViaPad*%
%ADD10C,0.685800*%
%TD*%
G04 APERTURE END LIST*
D10*
X81066000Y-66444000D03*
X98752000Y-70508000D03*
X87460000Y-78752000D03*
X90509000Y-78752000D03*
X82550000Y-87675000D03*
X80000000Y-62375000D03*
X98752000Y-65428000D03*
X81067000Y-65428000D03*
X98890000Y-62500000D03*
X81067000Y-72540000D03*
X85429000Y-78752000D03*
X81067000Y-75588000D03*
X88476000Y-78753000D03*
X92541000Y-78752000D03*
%TA.AperFunction,Conductor*%
G36*
X103442539Y-53395185D02*
G01*
X103488294Y-53447989D01*
X103499500Y-53499500D01*
X103499500Y-90000500D01*
X103479815Y-90067539D01*
X103427011Y-90113294D01*
X103375500Y-90124500D01*
X75624500Y-90124500D01*
X75557461Y-90104815D01*
X75511706Y-90052011D01*
X75500500Y-90000500D01*
X75500500Y-88984999D01*
X91234511Y-88984999D01*
X91234511Y-88985000D01*
X91253994Y-89145459D01*
X91311312Y-89296595D01*
X91311313Y-89296596D01*
X91403128Y-89429611D01*
X91403130Y-89429613D01*
X91403132Y-89429616D01*
X91524119Y-89536802D01*
X91667241Y-89611918D01*
X91824181Y-89650600D01*
X91985819Y-89650600D01*
X92142759Y-89611918D01*
X92285881Y-89536802D01*
X92406868Y-89429616D01*
X92437950Y-89384585D01*
X92492233Y-89340596D01*
X92561682Y-89332936D01*
X92624246Y-89364040D01*
X92642048Y-89384583D01*
X92673132Y-89429616D01*
X92794119Y-89536802D01*
X92937241Y-89611918D01*
X93094181Y-89650600D01*
X93255819Y-89650600D01*
X93412759Y-89611918D01*
X93555881Y-89536802D01*
X93676868Y-89429616D01*
X93707950Y-89384585D01*
X93762233Y-89340596D01*
X93831682Y-89332936D01*
X93894246Y-89364040D01*
X93912048Y-89384583D01*
X93943132Y-89429616D01*
X94064119Y-89536802D01*
X94207241Y-89611918D01*
X94364181Y-89650600D01*
X94525819Y-89650600D01*
X94682759Y-89611918D01*
X94825881Y-89536802D01*
X94946868Y-89429616D01*
X94977950Y-89384585D01*
X95032233Y-89340596D01*
X95101682Y-89332936D01*
X95164246Y-89364040D01*
X95182048Y-89384583D01*
X95213132Y-89429616D01*
X95334119Y-89536802D01*
X95477241Y-89611918D01*
X95634181Y-89650600D01*
X95795819Y-89650600D01*
X95952759Y-89611918D01*
X96095881Y-89536802D01*
X96216868Y-89429616D01*
X96308689Y-89296592D01*
X96366006Y-89145459D01*
X96385489Y-88985000D01*
X96366006Y-88824541D01*
X96308689Y-88673408D01*
X96308687Y-88673406D01*
X96308687Y-88673404D01*
X96308686Y-88673403D01*
X96216871Y-88540388D01*
X96216867Y-88540383D01*
X96201288Y-88526582D01*
X96095881Y-88433198D01*
X95952759Y-88358082D01*
X95952758Y-88358081D01*
X95952757Y-88358081D01*
X95795819Y-88319400D01*
X95634181Y-88319400D01*
X95477242Y-88358081D01*
X95334120Y-88433197D01*
X95213132Y-88540383D01*
X95213128Y-88540388D01*
X95182049Y-88585414D01*
X95127766Y-88629404D01*
X95058317Y-88637063D01*
X94995753Y-88605959D01*
X94977951Y-88585414D01*
X94946871Y-88540388D01*
X94946867Y-88540383D01*
X94931288Y-88526582D01*
X94825881Y-88433198D01*
X94682759Y-88358082D01*
X94682758Y-88358081D01*
X94682757Y-88358081D01*
X94525819Y-88319400D01*
X94364181Y-88319400D01*
X94207242Y-88358081D01*
X94064120Y-88433197D01*
X93943132Y-88540383D01*
X93943128Y-88540388D01*
X93912049Y-88585414D01*
X93857766Y-88629404D01*
X93788317Y-88637063D01*
X93725753Y-88605959D01*
X93707951Y-88585414D01*
X93676871Y-88540388D01*
X93676867Y-88540383D01*
X93661288Y-88526582D01*
X93555881Y-88433198D01*
X93412759Y-88358082D01*
X93412758Y-88358081D01*
X93412757Y-88358081D01*
X93255819Y-88319400D01*
X93094181Y-88319400D01*
X92937242Y-88358081D01*
X92794120Y-88433197D01*
X92673132Y-88540383D01*
X92673128Y-88540388D01*
X92642049Y-88585414D01*
X92587766Y-88629404D01*
X92518317Y-88637063D01*
X92455753Y-88605959D01*
X92437951Y-88585414D01*
X92406871Y-88540388D01*
X92406867Y-88540383D01*
X92391288Y-88526582D01*
X92285881Y-88433198D01*
X92142759Y-88358082D01*
X92142758Y-88358081D01*
X92142757Y-88358081D01*
X91985819Y-88319400D01*
X91824181Y-88319400D01*
X91667242Y-88358081D01*
X91524120Y-88433197D01*
X91403132Y-88540383D01*
X91403128Y-88540388D01*
X91311313Y-88673403D01*
X91311312Y-88673404D01*
X91253994Y-88824540D01*
X91234511Y-88984999D01*
X75500500Y-88984999D01*
X75500500Y-85451721D01*
X81849500Y-85451721D01*
X81849500Y-85618278D01*
X81881990Y-85781615D01*
X81881992Y-85781623D01*
X81945728Y-85935495D01*
X81945728Y-85935496D01*
X82038255Y-86073973D01*
X82038261Y-86073980D01*
X82156019Y-86191738D01*
X82156026Y-86191744D01*
X82294504Y-86284271D01*
X82294505Y-86284271D01*
X82294506Y-86284272D01*
X82448377Y-86348008D01*
X82611721Y-86380499D01*
X82611725Y-86380500D01*
X82611726Y-86380500D01*
X82778275Y-86380500D01*
X82778276Y-86380499D01*
X82941623Y-86348008D01*
X83095494Y-86284272D01*
X83095495Y-86284271D01*
X83095496Y-86284271D01*
X83164734Y-86238007D01*
X83233975Y-86191743D01*
X83351743Y-86073975D01*
X83444272Y-85935494D01*
X83508008Y-85781623D01*
X83540500Y-85618274D01*
X83540500Y-85451726D01*
X83540499Y-85451721D01*
X96459500Y-85451721D01*
X96459500Y-85618278D01*
X96491990Y-85781615D01*
X96491992Y-85781623D01*
X96555728Y-85935495D01*
X96555728Y-85935496D01*
X96648255Y-86073973D01*
X96648261Y-86073980D01*
X96766019Y-86191738D01*
X96766026Y-86191744D01*
X96904504Y-86284271D01*
X96904505Y-86284271D01*
X96904506Y-86284272D01*
X97058377Y-86348008D01*
X97221721Y-86380499D01*
X97221725Y-86380500D01*
X97221726Y-86380500D01*
X97388275Y-86380500D01*
X97388276Y-86380499D01*
X97551623Y-86348008D01*
X97705494Y-86284272D01*
X97705495Y-86284271D01*
X97705496Y-86284271D01*
X97774734Y-86238007D01*
X97843975Y-86191743D01*
X97961743Y-86073975D01*
X98054272Y-85935494D01*
X98118008Y-85781623D01*
X98150500Y-85618274D01*
X98150500Y-85451726D01*
X98118008Y-85288377D01*
X98054272Y-85134506D01*
X98054271Y-85134504D01*
X98054271Y-85134503D01*
X97961744Y-84996026D01*
X97961738Y-84996019D01*
X97843980Y-84878261D01*
X97843973Y-84878255D01*
X97705495Y-84785728D01*
X97551623Y-84721992D01*
X97551615Y-84721990D01*
X97388278Y-84689500D01*
X97388274Y-84689500D01*
X97221726Y-84689500D01*
X97221721Y-84689500D01*
X97058384Y-84721990D01*
X97058376Y-84721992D01*
X96904504Y-84785728D01*
X96904503Y-84785728D01*
X96766026Y-84878255D01*
X96766019Y-84878261D01*
X96648261Y-84996019D01*
X96648255Y-84996026D01*
X96555728Y-85134503D01*
X96555728Y-85134504D01*
X96491992Y-85288376D01*
X96491990Y-85288384D01*
X96459500Y-85451721D01*
X83540499Y-85451721D01*
X83508008Y-85288377D01*
X83444272Y-85134506D01*
X83444271Y-85134504D01*
X83444271Y-85134503D01*
X83351744Y-84996026D01*
X83351738Y-84996019D01*
X83233980Y-84878261D01*
X83233973Y-84878255D01*
X83095495Y-84785728D01*
X82941623Y-84721992D01*
X82941615Y-84721990D01*
X82778278Y-84689500D01*
X82778274Y-84689500D01*
X82611726Y-84689500D01*
X82611721Y-84689500D01*
X82448384Y-84721990D01*
X82448376Y-84721992D01*
X82294504Y-84785728D01*
X82294503Y-84785728D01*
X82156026Y-84878255D01*
X82156019Y-84878261D01*
X82038261Y-84996019D01*
X82038255Y-84996026D01*
X81945728Y-85134503D01*
X81945728Y-85134504D01*
X81881992Y-85288376D01*
X81881990Y-85288384D01*
X81849500Y-85451721D01*
X75500500Y-85451721D01*
X75500500Y-78751999D01*
X83742511Y-78751999D01*
X83742511Y-78752000D01*
X83761994Y-78912459D01*
X83819312Y-79063595D01*
X83819313Y-79063596D01*
X83911128Y-79196611D01*
X83911132Y-79196616D01*
X84032119Y-79303802D01*
X84175241Y-79378918D01*
X84332181Y-79417600D01*
X84493819Y-79417600D01*
X84650759Y-79378918D01*
X84793881Y-79303802D01*
X84914868Y-79196616D01*
X85006689Y-79063592D01*
X85064006Y-78912459D01*
X85083489Y-78752000D01*
X85083489Y-78751999D01*
X85774511Y-78751999D01*
X85774511Y-78752000D01*
X85793994Y-78912459D01*
X85851312Y-79063595D01*
X85851313Y-79063596D01*
X85943128Y-79196611D01*
X85943132Y-79196616D01*
X86064119Y-79303802D01*
X86207241Y-79378918D01*
X86364181Y-79417600D01*
X86525819Y-79417600D01*
X86682759Y-79378918D01*
X86825881Y-79303802D01*
X86946868Y-79196616D01*
X87038689Y-79063592D01*
X87096006Y-78912459D01*
X87115489Y-78752000D01*
X87115489Y-78751999D01*
X88822511Y-78751999D01*
X88822511Y-78752000D01*
X88841994Y-78912459D01*
X88899312Y-79063595D01*
X88899313Y-79063596D01*
X88991128Y-79196611D01*
X88991132Y-79196616D01*
X89112119Y-79303802D01*
X89255241Y-79378918D01*
X89412181Y-79417600D01*
X89573819Y-79417600D01*
X89730759Y-79378918D01*
X89873881Y-79303802D01*
X89994868Y-79196616D01*
X90086689Y-79063592D01*
X90144006Y-78912459D01*
X90163489Y-78752000D01*
X90163489Y-78751999D01*
X90854511Y-78751999D01*
X90854511Y-78752000D01*
X90873994Y-78912459D01*
X90931312Y-79063595D01*
X90931313Y-79063596D01*
X91023128Y-79196611D01*
X91023132Y-79196616D01*
X91144119Y-79303802D01*
X91287241Y-79378918D01*
X91444181Y-79417600D01*
X91605819Y-79417600D01*
X91762759Y-79378918D01*
X91905881Y-79303802D01*
X92026868Y-79196616D01*
X92118689Y-79063592D01*
X92176006Y-78912459D01*
X92195489Y-78752000D01*
X92195489Y-78751999D01*
X92886511Y-78751999D01*
X92886511Y-78752000D01*
X92905994Y-78912459D01*
X92963312Y-79063595D01*
X92963313Y-79063596D01*
X93055128Y-79196611D01*
X93055132Y-79196616D01*
X93176119Y-79303802D01*
X93319241Y-79378918D01*
X93476181Y-79417600D01*
X93637819Y-79417600D01*
X93794759Y-79378918D01*
X93937881Y-79303802D01*
X93982773Y-79264030D01*
X94046005Y-79234310D01*
X94115269Y-79243492D01*
X94147225Y-79264029D01*
X94192119Y-79303802D01*
X94335241Y-79378918D01*
X94492181Y-79417600D01*
X94653819Y-79417600D01*
X94810759Y-79378918D01*
X94953881Y-79303802D01*
X95074868Y-79196616D01*
X95166689Y-79063592D01*
X95224006Y-78912459D01*
X95243489Y-78752000D01*
X95224006Y-78591541D01*
X95166689Y-78440408D01*
X95166687Y-78440406D01*
X95166687Y-78440404D01*
X95166686Y-78440403D01*
X95074871Y-78307388D01*
X95074867Y-78307383D01*
X95059288Y-78293582D01*
X94953881Y-78200198D01*
X94810759Y-78125082D01*
X94810758Y-78125081D01*
X94810757Y-78125081D01*
X94653819Y-78086400D01*
X94492181Y-78086400D01*
X94335242Y-78125081D01*
X94192120Y-78200197D01*
X94147227Y-78239969D01*
X94083994Y-78269690D01*
X94014730Y-78260506D01*
X93982773Y-78239969D01*
X93974875Y-78232972D01*
X93937881Y-78200198D01*
X93794759Y-78125082D01*
X93794758Y-78125081D01*
X93794757Y-78125081D01*
X93637819Y-78086400D01*
X93476181Y-78086400D01*
X93319242Y-78125081D01*
X93176120Y-78200197D01*
X93055132Y-78307383D01*
X93055128Y-78307388D01*
X92963313Y-78440403D01*
X92963312Y-78440404D01*
X92905994Y-78591540D01*
X92886511Y-78751999D01*
X92195489Y-78751999D01*
X92176006Y-78591541D01*
X92118689Y-78440408D01*
X92118687Y-78440406D01*
X92118687Y-78440404D01*
X92118686Y-78440403D01*
X92026871Y-78307388D01*
X92026867Y-78307383D01*
X92011288Y-78293582D01*
X91905881Y-78200198D01*
X91762759Y-78125082D01*
X91762758Y-78125081D01*
X91762757Y-78125081D01*
X91605819Y-78086400D01*
X91444181Y-78086400D01*
X91287242Y-78125081D01*
X91144120Y-78200197D01*
X91023132Y-78307383D01*
X91023128Y-78307388D01*
X90931313Y-78440403D01*
X90931312Y-78440404D01*
X90873994Y-78591540D01*
X90854511Y-78751999D01*
X90163489Y-78751999D01*
X90144006Y-78591541D01*
X90086689Y-78440408D01*
X90086687Y-78440406D01*
X90086687Y-78440404D01*
X90086686Y-78440403D01*
X89994871Y-78307388D01*
X89994867Y-78307383D01*
X89979288Y-78293582D01*
X89873881Y-78200198D01*
X89730759Y-78125082D01*
X89730758Y-78125081D01*
X89730757Y-78125081D01*
X89573819Y-78086400D01*
X89412181Y-78086400D01*
X89255242Y-78125081D01*
X89112120Y-78200197D01*
X88991132Y-78307383D01*
X88991128Y-78307388D01*
X88899313Y-78440403D01*
X88899312Y-78440404D01*
X88841994Y-78591540D01*
X88822511Y-78751999D01*
X87115489Y-78751999D01*
X87096006Y-78591541D01*
X87038689Y-78440408D01*
X87038687Y-78440406D01*
X87038687Y-78440404D01*
X87038686Y-78440403D01*
X86946871Y-78307388D01*
X86946867Y-78307383D01*
X86931288Y-78293582D01*
X86825881Y-78200198D01*
X86682759Y-78125082D01*
X86682758Y-78125081D01*
X86682757Y-78125081D01*
X86525819Y-78086400D01*
X86364181Y-78086400D01*
X86207242Y-78125081D01*
X86064120Y-78200197D01*
X85943132Y-78307383D01*
X85943128Y-78307388D01*
X85851313Y-78440403D01*
X85851312Y-78440404D01*
X85793994Y-78591540D01*
X85774511Y-78751999D01*
X85083489Y-78751999D01*
X85064006Y-78591541D01*
X85006689Y-78440408D01*
X85006687Y-78440406D01*
X85006687Y-78440404D01*
X85006686Y-78440403D01*
X84914871Y-78307388D01*
X84914867Y-78307383D01*
X84899288Y-78293582D01*
X84793881Y-78200198D01*
X84650759Y-78125082D01*
X84650758Y-78125081D01*
X84650757Y-78125081D01*
X84493819Y-78086400D01*
X84332181Y-78086400D01*
X84175242Y-78125081D01*
X84032120Y-78200197D01*
X83911132Y-78307383D01*
X83911128Y-78307388D01*
X83819313Y-78440403D01*
X83819312Y-78440404D01*
X83761994Y-78591540D01*
X83742511Y-78751999D01*
X75500500Y-78751999D01*
X75500500Y-74571999D01*
X80396511Y-74571999D01*
X80396511Y-74572000D01*
X80415994Y-74732459D01*
X80473312Y-74883595D01*
X80473313Y-74883596D01*
X80565128Y-75016611D01*
X80565132Y-75016616D01*
X80686119Y-75123802D01*
X80829241Y-75198918D01*
X80986181Y-75237600D01*
X81147819Y-75237600D01*
X81304759Y-75198918D01*
X81447881Y-75123802D01*
X81568868Y-75016616D01*
X81660689Y-74883592D01*
X81718006Y-74732459D01*
X81737489Y-74572000D01*
X81718006Y-74411541D01*
X81660689Y-74260408D01*
X81660687Y-74260406D01*
X81660687Y-74260404D01*
X81660686Y-74260403D01*
X81568871Y-74127388D01*
X81568867Y-74127383D01*
X81501936Y-74068087D01*
X81447881Y-74020198D01*
X81304759Y-73945082D01*
X81304758Y-73945081D01*
X81304757Y-73945081D01*
X81147819Y-73906400D01*
X80986181Y-73906400D01*
X80829242Y-73945081D01*
X80686120Y-74020197D01*
X80565132Y-74127383D01*
X80565128Y-74127388D01*
X80473313Y-74260403D01*
X80473312Y-74260404D01*
X80415994Y-74411540D01*
X80396511Y-74571999D01*
X75500500Y-74571999D01*
X75500500Y-72539999D01*
X98081511Y-72539999D01*
X98081511Y-72540000D01*
X98100994Y-72700459D01*
X98158311Y-72851593D01*
X98245261Y-72977559D01*
X98267144Y-73043914D01*
X98249679Y-73111565D01*
X98245261Y-73118441D01*
X98158311Y-73244406D01*
X98100994Y-73395540D01*
X98081511Y-73555999D01*
X98081511Y-73556000D01*
X98100994Y-73716459D01*
X98158311Y-73867593D01*
X98245261Y-73993559D01*
X98267144Y-74059914D01*
X98249679Y-74127565D01*
X98245261Y-74134441D01*
X98158311Y-74260406D01*
X98100994Y-74411540D01*
X98081511Y-74571999D01*
X98081511Y-74572000D01*
X98100994Y-74732459D01*
X98158312Y-74883595D01*
X98158313Y-74883596D01*
X98250128Y-75016611D01*
X98250132Y-75016616D01*
X98371119Y-75123802D01*
X98514241Y-75198918D01*
X98671181Y-75237600D01*
X98832819Y-75237600D01*
X98989759Y-75198918D01*
X99132881Y-75123802D01*
X99253868Y-75016616D01*
X99345689Y-74883592D01*
X99403006Y-74732459D01*
X99422489Y-74572000D01*
X99403006Y-74411541D01*
X99345689Y-74260408D01*
X99345687Y-74260406D01*
X99345687Y-74260404D01*
X99345686Y-74260403D01*
X99258739Y-74134441D01*
X99236855Y-74068087D01*
X99254320Y-74000435D01*
X99258739Y-73993559D01*
X99292201Y-73945082D01*
X99345689Y-73867592D01*
X99403006Y-73716459D01*
X99422489Y-73556000D01*
X99403006Y-73395541D01*
X99345689Y-73244408D01*
X99345687Y-73244406D01*
X99345687Y-73244404D01*
X99345686Y-73244403D01*
X99258739Y-73118441D01*
X99236855Y-73052087D01*
X99254320Y-72984435D01*
X99258739Y-72977559D01*
X99345686Y-72851596D01*
X99345687Y-72851595D01*
X99345688Y-72851593D01*
X99345689Y-72851592D01*
X99403006Y-72700459D01*
X99422489Y-72540000D01*
X99403006Y-72379541D01*
X99345689Y-72228408D01*
X99345687Y-72228406D01*
X99345687Y-72228404D01*
X99345686Y-72228403D01*
X99253871Y-72095388D01*
X99253867Y-72095383D01*
X99231765Y-72075802D01*
X99132881Y-71988198D01*
X98989759Y-71913082D01*
X98989758Y-71913081D01*
X98989757Y-71913081D01*
X98832819Y-71874400D01*
X98671181Y-71874400D01*
X98514242Y-71913081D01*
X98371120Y-71988197D01*
X98250132Y-72095383D01*
X98250128Y-72095388D01*
X98158313Y-72228403D01*
X98158312Y-72228404D01*
X98100994Y-72379540D01*
X98081511Y-72539999D01*
X75500500Y-72539999D01*
X75500500Y-70507999D01*
X80396511Y-70507999D01*
X80396511Y-70508000D01*
X80415994Y-70668459D01*
X80473311Y-70819593D01*
X80560261Y-70945559D01*
X80582144Y-71011914D01*
X80564679Y-71079565D01*
X80560261Y-71086441D01*
X80473311Y-71212406D01*
X80415994Y-71363540D01*
X80396511Y-71523999D01*
X80396511Y-71524000D01*
X80415994Y-71684459D01*
X80473312Y-71835595D01*
X80473313Y-71835596D01*
X80565128Y-71968611D01*
X80565132Y-71968616D01*
X80686119Y-72075802D01*
X80829241Y-72150918D01*
X80986181Y-72189600D01*
X81147819Y-72189600D01*
X81304759Y-72150918D01*
X81447881Y-72075802D01*
X81568868Y-71968616D01*
X81660689Y-71835592D01*
X81718006Y-71684459D01*
X81737489Y-71524000D01*
X81718006Y-71363541D01*
X81660689Y-71212408D01*
X81660687Y-71212406D01*
X81660687Y-71212404D01*
X81660686Y-71212403D01*
X81573739Y-71086441D01*
X81551855Y-71020087D01*
X81569320Y-70952435D01*
X81573739Y-70945559D01*
X81660686Y-70819596D01*
X81660687Y-70819595D01*
X81660688Y-70819593D01*
X81660689Y-70819592D01*
X81718006Y-70668459D01*
X81737489Y-70508000D01*
X81718006Y-70347541D01*
X81660689Y-70196408D01*
X81660687Y-70196406D01*
X81660687Y-70196404D01*
X81660686Y-70196403D01*
X81568871Y-70063388D01*
X81568867Y-70063383D01*
X81546765Y-70043802D01*
X81447881Y-69956198D01*
X81304759Y-69881082D01*
X81304758Y-69881081D01*
X81304757Y-69881081D01*
X81147819Y-69842400D01*
X80986181Y-69842400D01*
X80829242Y-69881081D01*
X80686120Y-69956197D01*
X80565132Y-70063383D01*
X80565128Y-70063388D01*
X80473313Y-70196403D01*
X80473312Y-70196404D01*
X80415994Y-70347540D01*
X80396511Y-70507999D01*
X75500500Y-70507999D01*
X75500500Y-69491999D01*
X98081511Y-69491999D01*
X98081511Y-69492000D01*
X98100994Y-69652459D01*
X98158312Y-69803595D01*
X98158313Y-69803596D01*
X98250128Y-69936611D01*
X98250132Y-69936616D01*
X98371119Y-70043802D01*
X98514241Y-70118918D01*
X98671181Y-70157600D01*
X98832819Y-70157600D01*
X98989759Y-70118918D01*
X99132881Y-70043802D01*
X99253868Y-69936616D01*
X99345689Y-69803592D01*
X99403006Y-69652459D01*
X99422489Y-69492000D01*
X99403006Y-69331541D01*
X99345689Y-69180408D01*
X99345687Y-69180406D01*
X99345687Y-69180404D01*
X99345686Y-69180403D01*
X99253871Y-69047388D01*
X99253867Y-69047383D01*
X99238288Y-69033582D01*
X99132881Y-68940198D01*
X98989759Y-68865082D01*
X98989758Y-68865081D01*
X98989757Y-68865081D01*
X98832819Y-68826400D01*
X98671181Y-68826400D01*
X98514242Y-68865081D01*
X98371120Y-68940197D01*
X98250132Y-69047383D01*
X98250128Y-69047388D01*
X98158313Y-69180403D01*
X98158312Y-69180404D01*
X98100994Y-69331540D01*
X98081511Y-69491999D01*
X75500500Y-69491999D01*
X75500500Y-67459999D01*
X80396511Y-67459999D01*
X80396511Y-67460000D01*
X80415994Y-67620459D01*
X80473312Y-67771595D01*
X80473313Y-67771596D01*
X80565128Y-67904611D01*
X80565132Y-67904616D01*
X80686119Y-68011802D01*
X80829241Y-68086918D01*
X80986181Y-68125600D01*
X81147819Y-68125600D01*
X81304759Y-68086918D01*
X81447881Y-68011802D01*
X81568868Y-67904616D01*
X81660689Y-67771592D01*
X81718006Y-67620459D01*
X81737489Y-67460000D01*
X81718006Y-67299541D01*
X81660689Y-67148408D01*
X81660687Y-67148406D01*
X81660687Y-67148404D01*
X81660686Y-67148403D01*
X81568871Y-67015388D01*
X81568867Y-67015383D01*
X81553288Y-67001582D01*
X81447881Y-66908198D01*
X81304759Y-66833082D01*
X81304758Y-66833081D01*
X81304757Y-66833081D01*
X81147819Y-66794400D01*
X80986181Y-66794400D01*
X80829242Y-66833081D01*
X80686120Y-66908197D01*
X80565132Y-67015383D01*
X80565128Y-67015388D01*
X80473313Y-67148403D01*
X80473312Y-67148404D01*
X80415994Y-67299540D01*
X80396511Y-67459999D01*
X75500500Y-67459999D01*
X75500500Y-64411999D01*
X80396511Y-64411999D01*
X80396511Y-64412000D01*
X80415994Y-64572459D01*
X80473312Y-64723595D01*
X80473313Y-64723596D01*
X80565128Y-64856611D01*
X80565132Y-64856616D01*
X80686119Y-64963802D01*
X80829241Y-65038918D01*
X80986181Y-65077600D01*
X81147819Y-65077600D01*
X81304759Y-65038918D01*
X81447881Y-64963802D01*
X81568868Y-64856616D01*
X81660689Y-64723592D01*
X81718006Y-64572459D01*
X81737489Y-64412000D01*
X81737489Y-64411999D01*
X98081511Y-64411999D01*
X98081511Y-64412000D01*
X98100994Y-64572459D01*
X98158312Y-64723595D01*
X98158313Y-64723596D01*
X98250128Y-64856611D01*
X98250132Y-64856616D01*
X98371119Y-64963802D01*
X98514241Y-65038918D01*
X98671181Y-65077600D01*
X98832819Y-65077600D01*
X98989759Y-65038918D01*
X99132881Y-64963802D01*
X99253868Y-64856616D01*
X99345689Y-64723592D01*
X99403006Y-64572459D01*
X99422489Y-64412000D01*
X99403006Y-64251541D01*
X99345689Y-64100408D01*
X99345687Y-64100406D01*
X99345687Y-64100404D01*
X99345686Y-64100403D01*
X99253871Y-63967388D01*
X99253867Y-63967383D01*
X99238288Y-63953582D01*
X99132881Y-63860198D01*
X98989759Y-63785082D01*
X98989758Y-63785081D01*
X98989757Y-63785081D01*
X98832819Y-63746400D01*
X98671181Y-63746400D01*
X98514242Y-63785081D01*
X98371120Y-63860197D01*
X98250132Y-63967383D01*
X98250128Y-63967388D01*
X98158313Y-64100403D01*
X98158312Y-64100404D01*
X98100994Y-64251540D01*
X98081511Y-64411999D01*
X81737489Y-64411999D01*
X81718006Y-64251541D01*
X81660689Y-64100408D01*
X81660687Y-64100406D01*
X81660687Y-64100404D01*
X81660686Y-64100403D01*
X81568871Y-63967388D01*
X81568867Y-63967383D01*
X81553288Y-63953582D01*
X81447881Y-63860198D01*
X81304759Y-63785082D01*
X81304758Y-63785081D01*
X81304757Y-63785081D01*
X81147819Y-63746400D01*
X80986181Y-63746400D01*
X80829242Y-63785081D01*
X80686120Y-63860197D01*
X80565132Y-63967383D01*
X80565128Y-63967388D01*
X80473313Y-64100403D01*
X80473312Y-64100404D01*
X80415994Y-64251540D01*
X80396511Y-64411999D01*
X75500500Y-64411999D01*
X75500500Y-58841721D01*
X78674500Y-58841721D01*
X78674500Y-59008278D01*
X78706990Y-59171615D01*
X78706992Y-59171623D01*
X78770728Y-59325495D01*
X78770728Y-59325496D01*
X78863255Y-59463973D01*
X78863261Y-59463980D01*
X78981019Y-59581738D01*
X78981026Y-59581744D01*
X79119504Y-59674271D01*
X79119505Y-59674271D01*
X79119506Y-59674272D01*
X79273377Y-59738008D01*
X79436721Y-59770499D01*
X79436725Y-59770500D01*
X79436726Y-59770500D01*
X79603275Y-59770500D01*
X79603276Y-59770499D01*
X79766623Y-59738008D01*
X79920494Y-59674272D01*
X79920495Y-59674271D01*
X79920496Y-59674271D01*
X79989734Y-59628007D01*
X80058975Y-59581743D01*
X80176743Y-59463975D01*
X80269272Y-59325494D01*
X80333008Y-59171623D01*
X80365500Y-59008274D01*
X80365500Y-58841726D01*
X80365499Y-58841721D01*
X99634500Y-58841721D01*
X99634500Y-59008278D01*
X99666990Y-59171615D01*
X99666992Y-59171623D01*
X99730728Y-59325495D01*
X99730728Y-59325496D01*
X99823255Y-59463973D01*
X99823261Y-59463980D01*
X99941019Y-59581738D01*
X99941026Y-59581744D01*
X100079504Y-59674271D01*
X100079505Y-59674271D01*
X100079506Y-59674272D01*
X100233377Y-59738008D01*
X100396721Y-59770499D01*
X100396725Y-59770500D01*
X100396726Y-59770500D01*
X100563275Y-59770500D01*
X100563276Y-59770499D01*
X100726623Y-59738008D01*
X100880494Y-59674272D01*
X100880495Y-59674271D01*
X100880496Y-59674271D01*
X100949734Y-59628007D01*
X101018975Y-59581743D01*
X101136743Y-59463975D01*
X101229272Y-59325494D01*
X101293008Y-59171623D01*
X101325500Y-59008274D01*
X101325500Y-58841726D01*
X101293008Y-58678377D01*
X101229272Y-58524506D01*
X101229271Y-58524504D01*
X101229271Y-58524503D01*
X101136744Y-58386026D01*
X101136738Y-58386019D01*
X101018980Y-58268261D01*
X101018973Y-58268255D01*
X100880495Y-58175728D01*
X100726623Y-58111992D01*
X100726615Y-58111990D01*
X100563278Y-58079500D01*
X100563274Y-58079500D01*
X100396726Y-58079500D01*
X100396721Y-58079500D01*
X100233384Y-58111990D01*
X100233376Y-58111992D01*
X100079504Y-58175728D01*
X100079503Y-58175728D01*
X99941026Y-58268255D01*
X99941019Y-58268261D01*
X99823261Y-58386019D01*
X99823255Y-58386026D01*
X99730728Y-58524503D01*
X99730728Y-58524504D01*
X99666992Y-58678376D01*
X99666990Y-58678384D01*
X99634500Y-58841721D01*
X80365499Y-58841721D01*
X80333008Y-58678377D01*
X80269272Y-58524506D01*
X80269271Y-58524504D01*
X80269271Y-58524503D01*
X80176744Y-58386026D01*
X80176738Y-58386019D01*
X80058980Y-58268261D01*
X80058973Y-58268255D01*
X79920495Y-58175728D01*
X79766623Y-58111992D01*
X79766615Y-58111990D01*
X79603278Y-58079500D01*
X79603274Y-58079500D01*
X79436726Y-58079500D01*
X79436721Y-58079500D01*
X79273384Y-58111990D01*
X79273376Y-58111992D01*
X79119504Y-58175728D01*
X79119503Y-58175728D01*
X78981026Y-58268255D01*
X78981019Y-58268261D01*
X78863261Y-58386019D01*
X78863255Y-58386026D01*
X78770728Y-58524503D01*
X78770728Y-58524504D01*
X78706992Y-58678376D01*
X78706990Y-58678384D01*
X78674500Y-58841721D01*
X75500500Y-58841721D01*
X75500500Y-55474999D01*
X82979511Y-55474999D01*
X82979511Y-55475000D01*
X82998994Y-55635459D01*
X83056312Y-55786595D01*
X83056313Y-55786596D01*
X83148128Y-55919611D01*
X83148130Y-55919613D01*
X83148132Y-55919616D01*
X83269119Y-56026802D01*
X83412241Y-56101918D01*
X83569181Y-56140600D01*
X83730819Y-56140600D01*
X83887759Y-56101918D01*
X84030881Y-56026802D01*
X84151868Y-55919616D01*
X84182950Y-55874585D01*
X84237233Y-55830596D01*
X84306682Y-55822936D01*
X84369246Y-55854040D01*
X84387048Y-55874583D01*
X84418132Y-55919616D01*
X84539119Y-56026802D01*
X84682241Y-56101918D01*
X84839181Y-56140600D01*
X85000819Y-56140600D01*
X85157759Y-56101918D01*
X85300881Y-56026802D01*
X85421868Y-55919616D01*
X85452950Y-55874585D01*
X85507233Y-55830596D01*
X85576682Y-55822936D01*
X85639246Y-55854040D01*
X85657048Y-55874583D01*
X85688132Y-55919616D01*
X85809119Y-56026802D01*
X85952241Y-56101918D01*
X86109181Y-56140600D01*
X86270819Y-56140600D01*
X86427759Y-56101918D01*
X86570881Y-56026802D01*
X86691868Y-55919616D01*
X86722950Y-55874585D01*
X86777233Y-55830596D01*
X86846682Y-55822936D01*
X86909246Y-55854040D01*
X86927048Y-55874583D01*
X86958132Y-55919616D01*
X87079119Y-56026802D01*
X87222241Y-56101918D01*
X87379181Y-56140600D01*
X87540819Y-56140600D01*
X87697759Y-56101918D01*
X87840881Y-56026802D01*
X87961868Y-55919616D01*
X87992950Y-55874585D01*
X88047233Y-55830596D01*
X88116682Y-55822936D01*
X88179246Y-55854040D01*
X88197048Y-55874583D01*
X88228132Y-55919616D01*
X88349119Y-56026802D01*
X88492241Y-56101918D01*
X88649181Y-56140600D01*
X88810819Y-56140600D01*
X88967759Y-56101918D01*
X89110881Y-56026802D01*
X89231868Y-55919616D01*
X89262950Y-55874585D01*
X89317233Y-55830596D01*
X89386682Y-55822936D01*
X89449246Y-55854040D01*
X89467048Y-55874583D01*
X89498132Y-55919616D01*
X89619119Y-56026802D01*
X89762241Y-56101918D01*
X89919181Y-56140600D01*
X90080819Y-56140600D01*
X90237759Y-56101918D01*
X90380881Y-56026802D01*
X90501868Y-55919616D01*
X90532950Y-55874585D01*
X90587233Y-55830596D01*
X90656682Y-55822936D01*
X90719246Y-55854040D01*
X90737048Y-55874583D01*
X90768132Y-55919616D01*
X90889119Y-56026802D01*
X91032241Y-56101918D01*
X91189181Y-56140600D01*
X91350819Y-56140600D01*
X91507759Y-56101918D01*
X91650881Y-56026802D01*
X91771868Y-55919616D01*
X91802950Y-55874585D01*
X91857233Y-55830596D01*
X91926682Y-55822936D01*
X91989246Y-55854040D01*
X92007048Y-55874583D01*
X92038132Y-55919616D01*
X92159119Y-56026802D01*
X92302241Y-56101918D01*
X92459181Y-56140600D01*
X92620819Y-56140600D01*
X92777759Y-56101918D01*
X92920881Y-56026802D01*
X93041868Y-55919616D01*
X93072950Y-55874585D01*
X93127233Y-55830596D01*
X93196682Y-55822936D01*
X93259246Y-55854040D01*
X93277048Y-55874583D01*
X93308132Y-55919616D01*
X93429119Y-56026802D01*
X93572241Y-56101918D01*
X93729181Y-56140600D01*
X93890819Y-56140600D01*
X94047759Y-56101918D01*
X94190881Y-56026802D01*
X94311868Y-55919616D01*
X94342950Y-55874585D01*
X94397233Y-55830596D01*
X94466682Y-55822936D01*
X94529246Y-55854040D01*
X94547048Y-55874583D01*
X94578132Y-55919616D01*
X94699119Y-56026802D01*
X94842241Y-56101918D01*
X94999181Y-56140600D01*
X95160819Y-56140600D01*
X95317759Y-56101918D01*
X95460881Y-56026802D01*
X95581868Y-55919616D01*
X95612950Y-55874585D01*
X95667233Y-55830596D01*
X95736682Y-55822936D01*
X95799246Y-55854040D01*
X95817048Y-55874583D01*
X95848132Y-55919616D01*
X95969119Y-56026802D01*
X96112241Y-56101918D01*
X96269181Y-56140600D01*
X96430819Y-56140600D01*
X96587759Y-56101918D01*
X96730881Y-56026802D01*
X96851868Y-55919616D01*
X96882950Y-55874585D01*
X96937233Y-55830596D01*
X97006682Y-55822936D01*
X97069246Y-55854040D01*
X97087048Y-55874583D01*
X97118132Y-55919616D01*
X97239119Y-56026802D01*
X97382241Y-56101918D01*
X97539181Y-56140600D01*
X97700819Y-56140600D01*
X97857759Y-56101918D01*
X98000881Y-56026802D01*
X98121868Y-55919616D01*
X98213689Y-55786592D01*
X98271006Y-55635459D01*
X98290489Y-55475000D01*
X98271006Y-55314541D01*
X98213689Y-55163408D01*
X98213687Y-55163406D01*
X98213687Y-55163404D01*
X98213686Y-55163403D01*
X98121871Y-55030388D01*
X98121867Y-55030383D01*
X98106288Y-55016582D01*
X98000881Y-54923198D01*
X97857759Y-54848082D01*
X97857758Y-54848081D01*
X97857757Y-54848081D01*
X97700819Y-54809400D01*
X97539181Y-54809400D01*
X97382242Y-54848081D01*
X97239120Y-54923197D01*
X97118132Y-55030383D01*
X97118128Y-55030388D01*
X97087049Y-55075414D01*
X97032766Y-55119404D01*
X96963317Y-55127063D01*
X96900753Y-55095959D01*
X96882951Y-55075414D01*
X96851871Y-55030388D01*
X96851867Y-55030383D01*
X96836288Y-55016582D01*
X96730881Y-54923198D01*
X96587759Y-54848082D01*
X96587758Y-54848081D01*
X96587757Y-54848081D01*
X96430819Y-54809400D01*
X96269181Y-54809400D01*
X96112242Y-54848081D01*
X95969120Y-54923197D01*
X95848132Y-55030383D01*
X95848128Y-55030388D01*
X95817049Y-55075414D01*
X95762766Y-55119404D01*
X95693317Y-55127063D01*
X95630753Y-55095959D01*
X95612951Y-55075414D01*
X95581871Y-55030388D01*
X95581867Y-55030383D01*
X95566288Y-55016582D01*
X95460881Y-54923198D01*
X95317759Y-54848082D01*
X95317758Y-54848081D01*
X95317757Y-54848081D01*
X95160819Y-54809400D01*
X94999181Y-54809400D01*
X94842242Y-54848081D01*
X94699120Y-54923197D01*
X94578132Y-55030383D01*
X94578128Y-55030388D01*
X94547049Y-55075414D01*
X94492766Y-55119404D01*
X94423317Y-55127063D01*
X94360753Y-55095959D01*
X94342951Y-55075414D01*
X94311871Y-55030388D01*
X94311867Y-55030383D01*
X94296288Y-55016582D01*
X94190881Y-54923198D01*
X94047759Y-54848082D01*
X94047758Y-54848081D01*
X94047757Y-54848081D01*
X93890819Y-54809400D01*
X93729181Y-54809400D01*
X93572242Y-54848081D01*
X93429120Y-54923197D01*
X93308132Y-55030383D01*
X93308128Y-55030388D01*
X93277049Y-55075414D01*
X93222766Y-55119404D01*
X93153317Y-55127063D01*
X93090753Y-55095959D01*
X93072951Y-55075414D01*
X93041871Y-55030388D01*
X93041867Y-55030383D01*
X93026288Y-55016582D01*
X92920881Y-54923198D01*
X92777759Y-54848082D01*
X92777758Y-54848081D01*
X92777757Y-54848081D01*
X92620819Y-54809400D01*
X92459181Y-54809400D01*
X92302242Y-54848081D01*
X92159120Y-54923197D01*
X92038132Y-55030383D01*
X92038128Y-55030388D01*
X92007049Y-55075414D01*
X91952766Y-55119404D01*
X91883317Y-55127063D01*
X91820753Y-55095959D01*
X91802951Y-55075414D01*
X91771871Y-55030388D01*
X91771867Y-55030383D01*
X91756288Y-55016582D01*
X91650881Y-54923198D01*
X91507759Y-54848082D01*
X91507758Y-54848081D01*
X91507757Y-54848081D01*
X91350819Y-54809400D01*
X91189181Y-54809400D01*
X91032242Y-54848081D01*
X90889120Y-54923197D01*
X90768132Y-55030383D01*
X90768128Y-55030388D01*
X90737049Y-55075414D01*
X90682766Y-55119404D01*
X90613317Y-55127063D01*
X90550753Y-55095959D01*
X90532951Y-55075414D01*
X90501871Y-55030388D01*
X90501867Y-55030383D01*
X90486288Y-55016582D01*
X90380881Y-54923198D01*
X90237759Y-54848082D01*
X90237758Y-54848081D01*
X90237757Y-54848081D01*
X90080819Y-54809400D01*
X89919181Y-54809400D01*
X89762242Y-54848081D01*
X89619120Y-54923197D01*
X89498132Y-55030383D01*
X89498128Y-55030388D01*
X89467049Y-55075414D01*
X89412766Y-55119404D01*
X89343317Y-55127063D01*
X89280753Y-55095959D01*
X89262951Y-55075414D01*
X89231871Y-55030388D01*
X89231867Y-55030383D01*
X89216288Y-55016582D01*
X89110881Y-54923198D01*
X88967759Y-54848082D01*
X88967758Y-54848081D01*
X88967757Y-54848081D01*
X88810819Y-54809400D01*
X88649181Y-54809400D01*
X88492242Y-54848081D01*
X88349120Y-54923197D01*
X88228132Y-55030383D01*
X88228128Y-55030388D01*
X88197049Y-55075414D01*
X88142766Y-55119404D01*
X88073317Y-55127063D01*
X88010753Y-55095959D01*
X87992951Y-55075414D01*
X87961871Y-55030388D01*
X87961867Y-55030383D01*
X87946288Y-55016582D01*
X87840881Y-54923198D01*
X87697759Y-54848082D01*
X87697758Y-54848081D01*
X87697757Y-54848081D01*
X87540819Y-54809400D01*
X87379181Y-54809400D01*
X87222242Y-54848081D01*
X87079120Y-54923197D01*
X86958132Y-55030383D01*
X86958128Y-55030388D01*
X86927049Y-55075414D01*
X86872766Y-55119404D01*
X86803317Y-55127063D01*
X86740753Y-55095959D01*
X86722951Y-55075414D01*
X86691871Y-55030388D01*
X86691867Y-55030383D01*
X86676288Y-55016582D01*
X86570881Y-54923198D01*
X86427759Y-54848082D01*
X86427758Y-54848081D01*
X86427757Y-54848081D01*
X86270819Y-54809400D01*
X86109181Y-54809400D01*
X85952242Y-54848081D01*
X85809120Y-54923197D01*
X85688132Y-55030383D01*
X85688128Y-55030388D01*
X85657049Y-55075414D01*
X85602766Y-55119404D01*
X85533317Y-55127063D01*
X85470753Y-55095959D01*
X85452951Y-55075414D01*
X85421871Y-55030388D01*
X85421867Y-55030383D01*
X85406288Y-55016582D01*
X85300881Y-54923198D01*
X85157759Y-54848082D01*
X85157758Y-54848081D01*
X85157757Y-54848081D01*
X85000819Y-54809400D01*
X84839181Y-54809400D01*
X84682242Y-54848081D01*
X84539120Y-54923197D01*
X84418132Y-55030383D01*
X84418128Y-55030388D01*
X84387049Y-55075414D01*
X84332766Y-55119404D01*
X84263317Y-55127063D01*
X84200753Y-55095959D01*
X84182951Y-55075414D01*
X84151871Y-55030388D01*
X84151867Y-55030383D01*
X84136288Y-55016582D01*
X84030881Y-54923198D01*
X83887759Y-54848082D01*
X83887758Y-54848081D01*
X83887757Y-54848081D01*
X83730819Y-54809400D01*
X83569181Y-54809400D01*
X83412242Y-54848081D01*
X83269120Y-54923197D01*
X83148132Y-55030383D01*
X83148128Y-55030388D01*
X83056313Y-55163403D01*
X83056312Y-55163404D01*
X82998994Y-55314540D01*
X82979511Y-55474999D01*
X75500500Y-55474999D01*
X75500500Y-53499500D01*
X75520185Y-53432461D01*
X75572989Y-53386706D01*
X75624500Y-53375500D01*
X103375500Y-53375500D01*
X103442539Y-53395185D01*
G37*
%TD.AperFunction*%
M02*
