%TF.GenerationSoftware,KiCad,Pcbnew,8.0.3-8.0.3-0~ubuntu24.04.1*%
%TF.CreationDate,2024-07-09T09:27:24+02:00*%
%TF.ProjectId,PythonBreakout,50797468-6f6e-4427-9265-616b6f75742e,rev?*%
%TF.SameCoordinates,Original*%
%TF.FileFunction,Legend,Top*%
%TF.FilePolarity,Positive*%
%FSLAX46Y46*%
G04 Gerber Fmt 4.6, Leading zero omitted, Abs format (unit mm)*
G04 Created by KiCad (PCBNEW 8.0.3-8.0.3-0~ubuntu24.04.1) date 2024-07-09 09:27:24*
%MOMM*%
%LPD*%
G01*
G04 APERTURE LIST*
G04 Aperture macros list*
%AMRoundRect*
0 Rectangle with rounded corners*
0 $1 Rounding radius*
0 $2 $3 $4 $5 $6 $7 $8 $9 X,Y pos of 4 corners*
0 Add a 4 corners polygon primitive as box body*
4,1,4,$2,$3,$4,$5,$6,$7,$8,$9,$2,$3,0*
0 Add four circle primitives for the rounded corners*
1,1,$1+$1,$2,$3*
1,1,$1+$1,$4,$5*
1,1,$1+$1,$6,$7*
1,1,$1+$1,$8,$9*
0 Add four rect primitives between the rounded corners*
20,1,$1+$1,$2,$3,$4,$5,0*
20,1,$1+$1,$4,$5,$6,$7,0*
20,1,$1+$1,$6,$7,$8,$9,0*
20,1,$1+$1,$8,$9,$2,$3,0*%
G04 Aperture macros list end*
%ADD10C,0.150000*%
%ADD11C,0.120000*%
%ADD12C,0.127000*%
%ADD13C,0.200000*%
%ADD14RoundRect,0.225000X0.225000X0.250000X-0.225000X0.250000X-0.225000X-0.250000X0.225000X-0.250000X0*%
%ADD15RoundRect,0.225000X-0.250000X0.225000X-0.250000X-0.225000X0.250000X-0.225000X0.250000X0.225000X0*%
%ADD16RoundRect,0.040440X-0.876560X0.296560X-0.876560X-0.296560X0.876560X-0.296560X0.876560X0.296560X0*%
%ADD17RoundRect,0.040440X-0.296560X0.876560X-0.296560X-0.876560X0.296560X-0.876560X0.296560X0.876560X0*%
%ADD18RoundRect,0.200000X0.275000X-0.200000X0.275000X0.200000X-0.275000X0.200000X-0.275000X-0.200000X0*%
%ADD19RoundRect,0.225000X-0.225000X-0.250000X0.225000X-0.250000X0.225000X0.250000X-0.225000X0.250000X0*%
%ADD20RoundRect,0.225000X0.250000X-0.225000X0.250000X0.225000X-0.250000X0.225000X-0.250000X-0.225000X0*%
%ADD21C,1.190000*%
G04 APERTURE END LIST*
D10*
X87638333Y-82364580D02*
X87590714Y-82412200D01*
X87590714Y-82412200D02*
X87447857Y-82459819D01*
X87447857Y-82459819D02*
X87352619Y-82459819D01*
X87352619Y-82459819D02*
X87209762Y-82412200D01*
X87209762Y-82412200D02*
X87114524Y-82316961D01*
X87114524Y-82316961D02*
X87066905Y-82221723D01*
X87066905Y-82221723D02*
X87019286Y-82031247D01*
X87019286Y-82031247D02*
X87019286Y-81888390D01*
X87019286Y-81888390D02*
X87066905Y-81697914D01*
X87066905Y-81697914D02*
X87114524Y-81602676D01*
X87114524Y-81602676D02*
X87209762Y-81507438D01*
X87209762Y-81507438D02*
X87352619Y-81459819D01*
X87352619Y-81459819D02*
X87447857Y-81459819D01*
X87447857Y-81459819D02*
X87590714Y-81507438D01*
X87590714Y-81507438D02*
X87638333Y-81555057D01*
X88066905Y-82459819D02*
X88066905Y-81459819D01*
X88066905Y-81459819D02*
X88305000Y-81459819D01*
X88305000Y-81459819D02*
X88447857Y-81507438D01*
X88447857Y-81507438D02*
X88543095Y-81602676D01*
X88543095Y-81602676D02*
X88590714Y-81697914D01*
X88590714Y-81697914D02*
X88638333Y-81888390D01*
X88638333Y-81888390D02*
X88638333Y-82031247D01*
X88638333Y-82031247D02*
X88590714Y-82221723D01*
X88590714Y-82221723D02*
X88543095Y-82316961D01*
X88543095Y-82316961D02*
X88447857Y-82412200D01*
X88447857Y-82412200D02*
X88305000Y-82459819D01*
X88305000Y-82459819D02*
X88066905Y-82459819D01*
X89495476Y-81793152D02*
X89495476Y-82459819D01*
X89257381Y-81412200D02*
X89019286Y-82126485D01*
X89019286Y-82126485D02*
X89638333Y-82126485D01*
X81394580Y-72441666D02*
X81442200Y-72489285D01*
X81442200Y-72489285D02*
X81489819Y-72632142D01*
X81489819Y-72632142D02*
X81489819Y-72727380D01*
X81489819Y-72727380D02*
X81442200Y-72870237D01*
X81442200Y-72870237D02*
X81346961Y-72965475D01*
X81346961Y-72965475D02*
X81251723Y-73013094D01*
X81251723Y-73013094D02*
X81061247Y-73060713D01*
X81061247Y-73060713D02*
X80918390Y-73060713D01*
X80918390Y-73060713D02*
X80727914Y-73013094D01*
X80727914Y-73013094D02*
X80632676Y-72965475D01*
X80632676Y-72965475D02*
X80537438Y-72870237D01*
X80537438Y-72870237D02*
X80489819Y-72727380D01*
X80489819Y-72727380D02*
X80489819Y-72632142D01*
X80489819Y-72632142D02*
X80537438Y-72489285D01*
X80537438Y-72489285D02*
X80585057Y-72441666D01*
X81489819Y-72013094D02*
X80489819Y-72013094D01*
X80489819Y-72013094D02*
X80489819Y-71774999D01*
X80489819Y-71774999D02*
X80537438Y-71632142D01*
X80537438Y-71632142D02*
X80632676Y-71536904D01*
X80632676Y-71536904D02*
X80727914Y-71489285D01*
X80727914Y-71489285D02*
X80918390Y-71441666D01*
X80918390Y-71441666D02*
X81061247Y-71441666D01*
X81061247Y-71441666D02*
X81251723Y-71489285D01*
X81251723Y-71489285D02*
X81346961Y-71536904D01*
X81346961Y-71536904D02*
X81442200Y-71632142D01*
X81442200Y-71632142D02*
X81489819Y-71774999D01*
X81489819Y-71774999D02*
X81489819Y-72013094D01*
X80489819Y-70584523D02*
X80489819Y-70774999D01*
X80489819Y-70774999D02*
X80537438Y-70870237D01*
X80537438Y-70870237D02*
X80585057Y-70917856D01*
X80585057Y-70917856D02*
X80727914Y-71013094D01*
X80727914Y-71013094D02*
X80918390Y-71060713D01*
X80918390Y-71060713D02*
X81299342Y-71060713D01*
X81299342Y-71060713D02*
X81394580Y-71013094D01*
X81394580Y-71013094D02*
X81442200Y-70965475D01*
X81442200Y-70965475D02*
X81489819Y-70870237D01*
X81489819Y-70870237D02*
X81489819Y-70679761D01*
X81489819Y-70679761D02*
X81442200Y-70584523D01*
X81442200Y-70584523D02*
X81394580Y-70536904D01*
X81394580Y-70536904D02*
X81299342Y-70489285D01*
X81299342Y-70489285D02*
X81061247Y-70489285D01*
X81061247Y-70489285D02*
X80966009Y-70536904D01*
X80966009Y-70536904D02*
X80918390Y-70584523D01*
X80918390Y-70584523D02*
X80870771Y-70679761D01*
X80870771Y-70679761D02*
X80870771Y-70870237D01*
X80870771Y-70870237D02*
X80918390Y-70965475D01*
X80918390Y-70965475D02*
X80966009Y-71013094D01*
X80966009Y-71013094D02*
X81061247Y-71060713D01*
X102794580Y-65316666D02*
X102842200Y-65364285D01*
X102842200Y-65364285D02*
X102889819Y-65507142D01*
X102889819Y-65507142D02*
X102889819Y-65602380D01*
X102889819Y-65602380D02*
X102842200Y-65745237D01*
X102842200Y-65745237D02*
X102746961Y-65840475D01*
X102746961Y-65840475D02*
X102651723Y-65888094D01*
X102651723Y-65888094D02*
X102461247Y-65935713D01*
X102461247Y-65935713D02*
X102318390Y-65935713D01*
X102318390Y-65935713D02*
X102127914Y-65888094D01*
X102127914Y-65888094D02*
X102032676Y-65840475D01*
X102032676Y-65840475D02*
X101937438Y-65745237D01*
X101937438Y-65745237D02*
X101889819Y-65602380D01*
X101889819Y-65602380D02*
X101889819Y-65507142D01*
X101889819Y-65507142D02*
X101937438Y-65364285D01*
X101937438Y-65364285D02*
X101985057Y-65316666D01*
X102889819Y-64888094D02*
X101889819Y-64888094D01*
X101889819Y-64888094D02*
X101889819Y-64649999D01*
X101889819Y-64649999D02*
X101937438Y-64507142D01*
X101937438Y-64507142D02*
X102032676Y-64411904D01*
X102032676Y-64411904D02*
X102127914Y-64364285D01*
X102127914Y-64364285D02*
X102318390Y-64316666D01*
X102318390Y-64316666D02*
X102461247Y-64316666D01*
X102461247Y-64316666D02*
X102651723Y-64364285D01*
X102651723Y-64364285D02*
X102746961Y-64411904D01*
X102746961Y-64411904D02*
X102842200Y-64507142D01*
X102842200Y-64507142D02*
X102889819Y-64649999D01*
X102889819Y-64649999D02*
X102889819Y-64888094D01*
X101889819Y-63983332D02*
X101889819Y-63316666D01*
X101889819Y-63316666D02*
X102889819Y-63745237D01*
X99059819Y-65966904D02*
X99869342Y-65966904D01*
X99869342Y-65966904D02*
X99964580Y-65919285D01*
X99964580Y-65919285D02*
X100012200Y-65871666D01*
X100012200Y-65871666D02*
X100059819Y-65776428D01*
X100059819Y-65776428D02*
X100059819Y-65585952D01*
X100059819Y-65585952D02*
X100012200Y-65490714D01*
X100012200Y-65490714D02*
X99964580Y-65443095D01*
X99964580Y-65443095D02*
X99869342Y-65395476D01*
X99869342Y-65395476D02*
X99059819Y-65395476D01*
X99059819Y-64728809D02*
X99059819Y-64633571D01*
X99059819Y-64633571D02*
X99107438Y-64538333D01*
X99107438Y-64538333D02*
X99155057Y-64490714D01*
X99155057Y-64490714D02*
X99250295Y-64443095D01*
X99250295Y-64443095D02*
X99440771Y-64395476D01*
X99440771Y-64395476D02*
X99678866Y-64395476D01*
X99678866Y-64395476D02*
X99869342Y-64443095D01*
X99869342Y-64443095D02*
X99964580Y-64490714D01*
X99964580Y-64490714D02*
X100012200Y-64538333D01*
X100012200Y-64538333D02*
X100059819Y-64633571D01*
X100059819Y-64633571D02*
X100059819Y-64728809D01*
X100059819Y-64728809D02*
X100012200Y-64824047D01*
X100012200Y-64824047D02*
X99964580Y-64871666D01*
X99964580Y-64871666D02*
X99869342Y-64919285D01*
X99869342Y-64919285D02*
X99678866Y-64966904D01*
X99678866Y-64966904D02*
X99440771Y-64966904D01*
X99440771Y-64966904D02*
X99250295Y-64919285D01*
X99250295Y-64919285D02*
X99155057Y-64871666D01*
X99155057Y-64871666D02*
X99107438Y-64824047D01*
X99107438Y-64824047D02*
X99059819Y-64728809D01*
X94138333Y-82364580D02*
X94090714Y-82412200D01*
X94090714Y-82412200D02*
X93947857Y-82459819D01*
X93947857Y-82459819D02*
X93852619Y-82459819D01*
X93852619Y-82459819D02*
X93709762Y-82412200D01*
X93709762Y-82412200D02*
X93614524Y-82316961D01*
X93614524Y-82316961D02*
X93566905Y-82221723D01*
X93566905Y-82221723D02*
X93519286Y-82031247D01*
X93519286Y-82031247D02*
X93519286Y-81888390D01*
X93519286Y-81888390D02*
X93566905Y-81697914D01*
X93566905Y-81697914D02*
X93614524Y-81602676D01*
X93614524Y-81602676D02*
X93709762Y-81507438D01*
X93709762Y-81507438D02*
X93852619Y-81459819D01*
X93852619Y-81459819D02*
X93947857Y-81459819D01*
X93947857Y-81459819D02*
X94090714Y-81507438D01*
X94090714Y-81507438D02*
X94138333Y-81555057D01*
X94566905Y-82459819D02*
X94566905Y-81459819D01*
X94566905Y-81459819D02*
X94805000Y-81459819D01*
X94805000Y-81459819D02*
X94947857Y-81507438D01*
X94947857Y-81507438D02*
X95043095Y-81602676D01*
X95043095Y-81602676D02*
X95090714Y-81697914D01*
X95090714Y-81697914D02*
X95138333Y-81888390D01*
X95138333Y-81888390D02*
X95138333Y-82031247D01*
X95138333Y-82031247D02*
X95090714Y-82221723D01*
X95090714Y-82221723D02*
X95043095Y-82316961D01*
X95043095Y-82316961D02*
X94947857Y-82412200D01*
X94947857Y-82412200D02*
X94805000Y-82459819D01*
X94805000Y-82459819D02*
X94566905Y-82459819D01*
X95709762Y-81888390D02*
X95614524Y-81840771D01*
X95614524Y-81840771D02*
X95566905Y-81793152D01*
X95566905Y-81793152D02*
X95519286Y-81697914D01*
X95519286Y-81697914D02*
X95519286Y-81650295D01*
X95519286Y-81650295D02*
X95566905Y-81555057D01*
X95566905Y-81555057D02*
X95614524Y-81507438D01*
X95614524Y-81507438D02*
X95709762Y-81459819D01*
X95709762Y-81459819D02*
X95900238Y-81459819D01*
X95900238Y-81459819D02*
X95995476Y-81507438D01*
X95995476Y-81507438D02*
X96043095Y-81555057D01*
X96043095Y-81555057D02*
X96090714Y-81650295D01*
X96090714Y-81650295D02*
X96090714Y-81697914D01*
X96090714Y-81697914D02*
X96043095Y-81793152D01*
X96043095Y-81793152D02*
X95995476Y-81840771D01*
X95995476Y-81840771D02*
X95900238Y-81888390D01*
X95900238Y-81888390D02*
X95709762Y-81888390D01*
X95709762Y-81888390D02*
X95614524Y-81936009D01*
X95614524Y-81936009D02*
X95566905Y-81983628D01*
X95566905Y-81983628D02*
X95519286Y-82078866D01*
X95519286Y-82078866D02*
X95519286Y-82269342D01*
X95519286Y-82269342D02*
X95566905Y-82364580D01*
X95566905Y-82364580D02*
X95614524Y-82412200D01*
X95614524Y-82412200D02*
X95709762Y-82459819D01*
X95709762Y-82459819D02*
X95900238Y-82459819D01*
X95900238Y-82459819D02*
X95995476Y-82412200D01*
X95995476Y-82412200D02*
X96043095Y-82364580D01*
X96043095Y-82364580D02*
X96090714Y-82269342D01*
X96090714Y-82269342D02*
X96090714Y-82078866D01*
X96090714Y-82078866D02*
X96043095Y-81983628D01*
X96043095Y-81983628D02*
X95995476Y-81936009D01*
X95995476Y-81936009D02*
X95900238Y-81888390D01*
X90437142Y-82364580D02*
X90389523Y-82412200D01*
X90389523Y-82412200D02*
X90246666Y-82459819D01*
X90246666Y-82459819D02*
X90151428Y-82459819D01*
X90151428Y-82459819D02*
X90008571Y-82412200D01*
X90008571Y-82412200D02*
X89913333Y-82316961D01*
X89913333Y-82316961D02*
X89865714Y-82221723D01*
X89865714Y-82221723D02*
X89818095Y-82031247D01*
X89818095Y-82031247D02*
X89818095Y-81888390D01*
X89818095Y-81888390D02*
X89865714Y-81697914D01*
X89865714Y-81697914D02*
X89913333Y-81602676D01*
X89913333Y-81602676D02*
X90008571Y-81507438D01*
X90008571Y-81507438D02*
X90151428Y-81459819D01*
X90151428Y-81459819D02*
X90246666Y-81459819D01*
X90246666Y-81459819D02*
X90389523Y-81507438D01*
X90389523Y-81507438D02*
X90437142Y-81555057D01*
X90865714Y-82459819D02*
X90865714Y-81459819D01*
X90865714Y-81459819D02*
X91103809Y-81459819D01*
X91103809Y-81459819D02*
X91246666Y-81507438D01*
X91246666Y-81507438D02*
X91341904Y-81602676D01*
X91341904Y-81602676D02*
X91389523Y-81697914D01*
X91389523Y-81697914D02*
X91437142Y-81888390D01*
X91437142Y-81888390D02*
X91437142Y-82031247D01*
X91437142Y-82031247D02*
X91389523Y-82221723D01*
X91389523Y-82221723D02*
X91341904Y-82316961D01*
X91341904Y-82316961D02*
X91246666Y-82412200D01*
X91246666Y-82412200D02*
X91103809Y-82459819D01*
X91103809Y-82459819D02*
X90865714Y-82459819D01*
X92389523Y-82459819D02*
X91818095Y-82459819D01*
X92103809Y-82459819D02*
X92103809Y-81459819D01*
X92103809Y-81459819D02*
X92008571Y-81602676D01*
X92008571Y-81602676D02*
X91913333Y-81697914D01*
X91913333Y-81697914D02*
X91818095Y-81745533D01*
X93008571Y-81459819D02*
X93103809Y-81459819D01*
X93103809Y-81459819D02*
X93199047Y-81507438D01*
X93199047Y-81507438D02*
X93246666Y-81555057D01*
X93246666Y-81555057D02*
X93294285Y-81650295D01*
X93294285Y-81650295D02*
X93341904Y-81840771D01*
X93341904Y-81840771D02*
X93341904Y-82078866D01*
X93341904Y-82078866D02*
X93294285Y-82269342D01*
X93294285Y-82269342D02*
X93246666Y-82364580D01*
X93246666Y-82364580D02*
X93199047Y-82412200D01*
X93199047Y-82412200D02*
X93103809Y-82459819D01*
X93103809Y-82459819D02*
X93008571Y-82459819D01*
X93008571Y-82459819D02*
X92913333Y-82412200D01*
X92913333Y-82412200D02*
X92865714Y-82364580D01*
X92865714Y-82364580D02*
X92818095Y-82269342D01*
X92818095Y-82269342D02*
X92770476Y-82078866D01*
X92770476Y-82078866D02*
X92770476Y-81840771D01*
X92770476Y-81840771D02*
X92818095Y-81650295D01*
X92818095Y-81650295D02*
X92865714Y-81555057D01*
X92865714Y-81555057D02*
X92913333Y-81507438D01*
X92913333Y-81507438D02*
X93008571Y-81459819D01*
X76729819Y-72791666D02*
X76253628Y-73124999D01*
X76729819Y-73363094D02*
X75729819Y-73363094D01*
X75729819Y-73363094D02*
X75729819Y-72982142D01*
X75729819Y-72982142D02*
X75777438Y-72886904D01*
X75777438Y-72886904D02*
X75825057Y-72839285D01*
X75825057Y-72839285D02*
X75920295Y-72791666D01*
X75920295Y-72791666D02*
X76063152Y-72791666D01*
X76063152Y-72791666D02*
X76158390Y-72839285D01*
X76158390Y-72839285D02*
X76206009Y-72886904D01*
X76206009Y-72886904D02*
X76253628Y-72982142D01*
X76253628Y-72982142D02*
X76253628Y-73363094D01*
X76729819Y-71839285D02*
X76729819Y-72410713D01*
X76729819Y-72124999D02*
X75729819Y-72124999D01*
X75729819Y-72124999D02*
X75872676Y-72220237D01*
X75872676Y-72220237D02*
X75967914Y-72315475D01*
X75967914Y-72315475D02*
X76015533Y-72410713D01*
X84413333Y-79504580D02*
X84365714Y-79552200D01*
X84365714Y-79552200D02*
X84222857Y-79599819D01*
X84222857Y-79599819D02*
X84127619Y-79599819D01*
X84127619Y-79599819D02*
X83984762Y-79552200D01*
X83984762Y-79552200D02*
X83889524Y-79456961D01*
X83889524Y-79456961D02*
X83841905Y-79361723D01*
X83841905Y-79361723D02*
X83794286Y-79171247D01*
X83794286Y-79171247D02*
X83794286Y-79028390D01*
X83794286Y-79028390D02*
X83841905Y-78837914D01*
X83841905Y-78837914D02*
X83889524Y-78742676D01*
X83889524Y-78742676D02*
X83984762Y-78647438D01*
X83984762Y-78647438D02*
X84127619Y-78599819D01*
X84127619Y-78599819D02*
X84222857Y-78599819D01*
X84222857Y-78599819D02*
X84365714Y-78647438D01*
X84365714Y-78647438D02*
X84413333Y-78695057D01*
X84841905Y-79599819D02*
X84841905Y-78599819D01*
X84841905Y-78599819D02*
X85080000Y-78599819D01*
X85080000Y-78599819D02*
X85222857Y-78647438D01*
X85222857Y-78647438D02*
X85318095Y-78742676D01*
X85318095Y-78742676D02*
X85365714Y-78837914D01*
X85365714Y-78837914D02*
X85413333Y-79028390D01*
X85413333Y-79028390D02*
X85413333Y-79171247D01*
X85413333Y-79171247D02*
X85365714Y-79361723D01*
X85365714Y-79361723D02*
X85318095Y-79456961D01*
X85318095Y-79456961D02*
X85222857Y-79552200D01*
X85222857Y-79552200D02*
X85080000Y-79599819D01*
X85080000Y-79599819D02*
X84841905Y-79599819D01*
X85889524Y-79599819D02*
X86080000Y-79599819D01*
X86080000Y-79599819D02*
X86175238Y-79552200D01*
X86175238Y-79552200D02*
X86222857Y-79504580D01*
X86222857Y-79504580D02*
X86318095Y-79361723D01*
X86318095Y-79361723D02*
X86365714Y-79171247D01*
X86365714Y-79171247D02*
X86365714Y-78790295D01*
X86365714Y-78790295D02*
X86318095Y-78695057D01*
X86318095Y-78695057D02*
X86270476Y-78647438D01*
X86270476Y-78647438D02*
X86175238Y-78599819D01*
X86175238Y-78599819D02*
X85984762Y-78599819D01*
X85984762Y-78599819D02*
X85889524Y-78647438D01*
X85889524Y-78647438D02*
X85841905Y-78695057D01*
X85841905Y-78695057D02*
X85794286Y-78790295D01*
X85794286Y-78790295D02*
X85794286Y-79028390D01*
X85794286Y-79028390D02*
X85841905Y-79123628D01*
X85841905Y-79123628D02*
X85889524Y-79171247D01*
X85889524Y-79171247D02*
X85984762Y-79218866D01*
X85984762Y-79218866D02*
X86175238Y-79218866D01*
X86175238Y-79218866D02*
X86270476Y-79171247D01*
X86270476Y-79171247D02*
X86318095Y-79123628D01*
X86318095Y-79123628D02*
X86365714Y-79028390D01*
X81394580Y-65241666D02*
X81442200Y-65289285D01*
X81442200Y-65289285D02*
X81489819Y-65432142D01*
X81489819Y-65432142D02*
X81489819Y-65527380D01*
X81489819Y-65527380D02*
X81442200Y-65670237D01*
X81442200Y-65670237D02*
X81346961Y-65765475D01*
X81346961Y-65765475D02*
X81251723Y-65813094D01*
X81251723Y-65813094D02*
X81061247Y-65860713D01*
X81061247Y-65860713D02*
X80918390Y-65860713D01*
X80918390Y-65860713D02*
X80727914Y-65813094D01*
X80727914Y-65813094D02*
X80632676Y-65765475D01*
X80632676Y-65765475D02*
X80537438Y-65670237D01*
X80537438Y-65670237D02*
X80489819Y-65527380D01*
X80489819Y-65527380D02*
X80489819Y-65432142D01*
X80489819Y-65432142D02*
X80537438Y-65289285D01*
X80537438Y-65289285D02*
X80585057Y-65241666D01*
X81489819Y-64813094D02*
X80489819Y-64813094D01*
X80489819Y-64813094D02*
X80489819Y-64574999D01*
X80489819Y-64574999D02*
X80537438Y-64432142D01*
X80537438Y-64432142D02*
X80632676Y-64336904D01*
X80632676Y-64336904D02*
X80727914Y-64289285D01*
X80727914Y-64289285D02*
X80918390Y-64241666D01*
X80918390Y-64241666D02*
X81061247Y-64241666D01*
X81061247Y-64241666D02*
X81251723Y-64289285D01*
X81251723Y-64289285D02*
X81346961Y-64336904D01*
X81346961Y-64336904D02*
X81442200Y-64432142D01*
X81442200Y-64432142D02*
X81489819Y-64574999D01*
X81489819Y-64574999D02*
X81489819Y-64813094D01*
X81489819Y-63289285D02*
X81489819Y-63860713D01*
X81489819Y-63574999D02*
X80489819Y-63574999D01*
X80489819Y-63574999D02*
X80632676Y-63670237D01*
X80632676Y-63670237D02*
X80727914Y-63765475D01*
X80727914Y-63765475D02*
X80775533Y-63860713D01*
X80494580Y-76441666D02*
X80542200Y-76489285D01*
X80542200Y-76489285D02*
X80589819Y-76632142D01*
X80589819Y-76632142D02*
X80589819Y-76727380D01*
X80589819Y-76727380D02*
X80542200Y-76870237D01*
X80542200Y-76870237D02*
X80446961Y-76965475D01*
X80446961Y-76965475D02*
X80351723Y-77013094D01*
X80351723Y-77013094D02*
X80161247Y-77060713D01*
X80161247Y-77060713D02*
X80018390Y-77060713D01*
X80018390Y-77060713D02*
X79827914Y-77013094D01*
X79827914Y-77013094D02*
X79732676Y-76965475D01*
X79732676Y-76965475D02*
X79637438Y-76870237D01*
X79637438Y-76870237D02*
X79589819Y-76727380D01*
X79589819Y-76727380D02*
X79589819Y-76632142D01*
X79589819Y-76632142D02*
X79637438Y-76489285D01*
X79637438Y-76489285D02*
X79685057Y-76441666D01*
X80589819Y-76013094D02*
X79589819Y-76013094D01*
X79589819Y-76013094D02*
X79589819Y-75774999D01*
X79589819Y-75774999D02*
X79637438Y-75632142D01*
X79637438Y-75632142D02*
X79732676Y-75536904D01*
X79732676Y-75536904D02*
X79827914Y-75489285D01*
X79827914Y-75489285D02*
X80018390Y-75441666D01*
X80018390Y-75441666D02*
X80161247Y-75441666D01*
X80161247Y-75441666D02*
X80351723Y-75489285D01*
X80351723Y-75489285D02*
X80446961Y-75536904D01*
X80446961Y-75536904D02*
X80542200Y-75632142D01*
X80542200Y-75632142D02*
X80589819Y-75774999D01*
X80589819Y-75774999D02*
X80589819Y-76013094D01*
X79589819Y-75108332D02*
X79589819Y-74489285D01*
X79589819Y-74489285D02*
X79970771Y-74822618D01*
X79970771Y-74822618D02*
X79970771Y-74679761D01*
X79970771Y-74679761D02*
X80018390Y-74584523D01*
X80018390Y-74584523D02*
X80066009Y-74536904D01*
X80066009Y-74536904D02*
X80161247Y-74489285D01*
X80161247Y-74489285D02*
X80399342Y-74489285D01*
X80399342Y-74489285D02*
X80494580Y-74536904D01*
X80494580Y-74536904D02*
X80542200Y-74584523D01*
X80542200Y-74584523D02*
X80589819Y-74679761D01*
X80589819Y-74679761D02*
X80589819Y-74965475D01*
X80589819Y-74965475D02*
X80542200Y-75060713D01*
X80542200Y-75060713D02*
X80494580Y-75108332D01*
X78534580Y-68466666D02*
X78582200Y-68514285D01*
X78582200Y-68514285D02*
X78629819Y-68657142D01*
X78629819Y-68657142D02*
X78629819Y-68752380D01*
X78629819Y-68752380D02*
X78582200Y-68895237D01*
X78582200Y-68895237D02*
X78486961Y-68990475D01*
X78486961Y-68990475D02*
X78391723Y-69038094D01*
X78391723Y-69038094D02*
X78201247Y-69085713D01*
X78201247Y-69085713D02*
X78058390Y-69085713D01*
X78058390Y-69085713D02*
X77867914Y-69038094D01*
X77867914Y-69038094D02*
X77772676Y-68990475D01*
X77772676Y-68990475D02*
X77677438Y-68895237D01*
X77677438Y-68895237D02*
X77629819Y-68752380D01*
X77629819Y-68752380D02*
X77629819Y-68657142D01*
X77629819Y-68657142D02*
X77677438Y-68514285D01*
X77677438Y-68514285D02*
X77725057Y-68466666D01*
X78629819Y-68038094D02*
X77629819Y-68038094D01*
X77629819Y-68038094D02*
X77629819Y-67799999D01*
X77629819Y-67799999D02*
X77677438Y-67657142D01*
X77677438Y-67657142D02*
X77772676Y-67561904D01*
X77772676Y-67561904D02*
X77867914Y-67514285D01*
X77867914Y-67514285D02*
X78058390Y-67466666D01*
X78058390Y-67466666D02*
X78201247Y-67466666D01*
X78201247Y-67466666D02*
X78391723Y-67514285D01*
X78391723Y-67514285D02*
X78486961Y-67561904D01*
X78486961Y-67561904D02*
X78582200Y-67657142D01*
X78582200Y-67657142D02*
X78629819Y-67799999D01*
X78629819Y-67799999D02*
X78629819Y-68038094D01*
X77629819Y-66561904D02*
X77629819Y-67038094D01*
X77629819Y-67038094D02*
X78106009Y-67085713D01*
X78106009Y-67085713D02*
X78058390Y-67038094D01*
X78058390Y-67038094D02*
X78010771Y-66942856D01*
X78010771Y-66942856D02*
X78010771Y-66704761D01*
X78010771Y-66704761D02*
X78058390Y-66609523D01*
X78058390Y-66609523D02*
X78106009Y-66561904D01*
X78106009Y-66561904D02*
X78201247Y-66514285D01*
X78201247Y-66514285D02*
X78439342Y-66514285D01*
X78439342Y-66514285D02*
X78534580Y-66561904D01*
X78534580Y-66561904D02*
X78582200Y-66609523D01*
X78582200Y-66609523D02*
X78629819Y-66704761D01*
X78629819Y-66704761D02*
X78629819Y-66942856D01*
X78629819Y-66942856D02*
X78582200Y-67038094D01*
X78582200Y-67038094D02*
X78534580Y-67085713D01*
D11*
X88445580Y-80065000D02*
X88164420Y-80065000D01*
X88445580Y-81085000D02*
X88164420Y-81085000D01*
X79095000Y-71634420D02*
X79095000Y-71915580D01*
X80115000Y-71634420D02*
X80115000Y-71915580D01*
X100495000Y-64509420D02*
X100495000Y-64790580D01*
X101515000Y-64509420D02*
X101515000Y-64790580D01*
D12*
X82890000Y-62890000D02*
X83857000Y-62890000D01*
X82890000Y-63857000D02*
X82890000Y-62890000D01*
X82890000Y-77110000D02*
X82890000Y-76143000D01*
X82890000Y-77110000D02*
X83857000Y-77110000D01*
X96143000Y-62890000D02*
X97110000Y-62890000D01*
X97110000Y-62890000D02*
X97110000Y-63857000D01*
X97110000Y-76143000D02*
X97110000Y-77110000D01*
X97110000Y-77110000D02*
X96143000Y-77110000D01*
D13*
X98820000Y-69492000D02*
G75*
G02*
X98620000Y-69492000I-100000J0D01*
G01*
X98620000Y-69492000D02*
G75*
G02*
X98820000Y-69492000I100000J0D01*
G01*
D11*
X94945580Y-80065000D02*
X94664420Y-80065000D01*
X94945580Y-81085000D02*
X94664420Y-81085000D01*
X91720580Y-80065000D02*
X91439420Y-80065000D01*
X91720580Y-81085000D02*
X91439420Y-81085000D01*
X77182500Y-72862258D02*
X77182500Y-72387742D01*
X78227500Y-72862258D02*
X78227500Y-72387742D01*
X84939420Y-80065000D02*
X85220580Y-80065000D01*
X84939420Y-81085000D02*
X85220580Y-81085000D01*
X79095000Y-64434420D02*
X79095000Y-64715580D01*
X80115000Y-64434420D02*
X80115000Y-64715580D01*
X78195000Y-75634420D02*
X78195000Y-75915580D01*
X79215000Y-75634420D02*
X79215000Y-75915580D01*
X79095000Y-67940580D02*
X79095000Y-67659420D01*
X80115000Y-67940580D02*
X80115000Y-67659420D01*
%LPC*%
D14*
X89080000Y-80575000D03*
X87530000Y-80575000D03*
D15*
X79605000Y-71000000D03*
X79605000Y-72550000D03*
X101005000Y-63875000D03*
X101005000Y-65425000D03*
D16*
X96905000Y-69492000D03*
X96905000Y-68476000D03*
X96905000Y-67460000D03*
X96905000Y-66444000D03*
X96905000Y-65428000D03*
X96905000Y-64412000D03*
D17*
X95588000Y-63095000D03*
X94572000Y-63095000D03*
X93556000Y-63095000D03*
X92540000Y-63095000D03*
X91524000Y-63095000D03*
X90508000Y-63095000D03*
X89492000Y-63095000D03*
X88476000Y-63095000D03*
X87460000Y-63095000D03*
X86444000Y-63095000D03*
X85428000Y-63095000D03*
X84412000Y-63095000D03*
D16*
X83095000Y-64412000D03*
X83095000Y-65428000D03*
X83095000Y-66444000D03*
X83095000Y-67460000D03*
X83095000Y-68476000D03*
X83095000Y-69492000D03*
X83095000Y-70508000D03*
X83095000Y-71524000D03*
X83095000Y-72540000D03*
X83095000Y-73556000D03*
X83095000Y-74572000D03*
X83095000Y-75588000D03*
D17*
X84412000Y-76905000D03*
X85428000Y-76905000D03*
X86444000Y-76905000D03*
X87460000Y-76905000D03*
X88476000Y-76905000D03*
X89492000Y-76905000D03*
X90508000Y-76905000D03*
X91524000Y-76905000D03*
X92540000Y-76905000D03*
X93556000Y-76905000D03*
X94572000Y-76905000D03*
X95588000Y-76905000D03*
D16*
X96905000Y-75588000D03*
X96905000Y-74572000D03*
X96905000Y-73556000D03*
X96905000Y-72540000D03*
X96905000Y-71524000D03*
X96905000Y-70508000D03*
D14*
X95580000Y-80575000D03*
X94030000Y-80575000D03*
X92355000Y-80575000D03*
X90805000Y-80575000D03*
D18*
X77705000Y-73450000D03*
X77705000Y-71800000D03*
D19*
X84305000Y-80575000D03*
X85855000Y-80575000D03*
D15*
X79605000Y-63800000D03*
X79605000Y-65350000D03*
X78705000Y-75000000D03*
X78705000Y-76550000D03*
D20*
X79605000Y-68575000D03*
X79605000Y-67025000D03*
D21*
X82695000Y-85535000D03*
X97305000Y-85535000D03*
X79520000Y-58925000D03*
X100480000Y-58925000D03*
%LPD*%
M02*
