%TF.GenerationSoftware,KiCad,Pcbnew,8.0.3-8.0.3-0~ubuntu24.04.1*%
%TF.CreationDate,2024-07-09T09:27:24+02:00*%
%TF.ProjectId,PythonBreakout,50797468-6f6e-4427-9265-616b6f75742e,rev?*%
%TF.SameCoordinates,Original*%
%TF.FileFunction,Legend,Bot*%
%TF.FilePolarity,Positive*%
%FSLAX46Y46*%
G04 Gerber Fmt 4.6, Leading zero omitted, Abs format (unit mm)*
G04 Created by KiCad (PCBNEW 8.0.3-8.0.3-0~ubuntu24.04.1) date 2024-07-09 09:27:24*
%MOMM*%
%LPD*%
G01*
G04 APERTURE LIST*
G04 Aperture macros list*
%AMRoundRect*
0 Rectangle with rounded corners*
0 $1 Rounding radius*
0 $2 $3 $4 $5 $6 $7 $8 $9 X,Y pos of 4 corners*
0 Add a 4 corners polygon primitive as box body*
4,1,4,$2,$3,$4,$5,$6,$7,$8,$9,$2,$3,0*
0 Add four circle primitives for the rounded corners*
1,1,$1+$1,$2,$3*
1,1,$1+$1,$4,$5*
1,1,$1+$1,$6,$7*
1,1,$1+$1,$8,$9*
0 Add four rect primitives between the rounded corners*
20,1,$1+$1,$2,$3,$4,$5,0*
20,1,$1+$1,$4,$5,$6,$7,0*
20,1,$1+$1,$6,$7,$8,$9,0*
20,1,$1+$1,$8,$9,$2,$3,0*%
G04 Aperture macros list end*
%ADD10C,0.150000*%
%ADD11C,0.200000*%
%ADD12C,0.120000*%
%ADD13C,1.190000*%
%ADD14RoundRect,0.102000X-0.370000X-1.110000X0.370000X-1.110000X0.370000X1.110000X-0.370000X1.110000X0*%
%ADD15RoundRect,0.225000X-0.250000X0.225000X-0.250000X-0.225000X0.250000X-0.225000X0.250000X0.225000X0*%
%ADD16RoundRect,0.225000X-0.225000X-0.250000X0.225000X-0.250000X0.225000X0.250000X-0.225000X0.250000X0*%
G04 APERTURE END LIST*
D10*
X98333333Y-82649819D02*
X98333333Y-83364104D01*
X98333333Y-83364104D02*
X98380952Y-83506961D01*
X98380952Y-83506961D02*
X98476190Y-83602200D01*
X98476190Y-83602200D02*
X98619047Y-83649819D01*
X98619047Y-83649819D02*
X98714285Y-83649819D01*
X97904761Y-82745057D02*
X97857142Y-82697438D01*
X97857142Y-82697438D02*
X97761904Y-82649819D01*
X97761904Y-82649819D02*
X97523809Y-82649819D01*
X97523809Y-82649819D02*
X97428571Y-82697438D01*
X97428571Y-82697438D02*
X97380952Y-82745057D01*
X97380952Y-82745057D02*
X97333333Y-82840295D01*
X97333333Y-82840295D02*
X97333333Y-82935533D01*
X97333333Y-82935533D02*
X97380952Y-83078390D01*
X97380952Y-83078390D02*
X97952380Y-83649819D01*
X97952380Y-83649819D02*
X97333333Y-83649819D01*
X79333333Y-60429819D02*
X79333333Y-61144104D01*
X79333333Y-61144104D02*
X79380952Y-61286961D01*
X79380952Y-61286961D02*
X79476190Y-61382200D01*
X79476190Y-61382200D02*
X79619047Y-61429819D01*
X79619047Y-61429819D02*
X79714285Y-61429819D01*
X78333333Y-61429819D02*
X78904761Y-61429819D01*
X78619047Y-61429819D02*
X78619047Y-60429819D01*
X78619047Y-60429819D02*
X78714285Y-60572676D01*
X78714285Y-60572676D02*
X78809523Y-60667914D01*
X78809523Y-60667914D02*
X78904761Y-60715533D01*
X99234580Y-69608333D02*
X99282200Y-69560714D01*
X99282200Y-69560714D02*
X99329819Y-69417857D01*
X99329819Y-69417857D02*
X99329819Y-69322619D01*
X99329819Y-69322619D02*
X99282200Y-69179762D01*
X99282200Y-69179762D02*
X99186961Y-69084524D01*
X99186961Y-69084524D02*
X99091723Y-69036905D01*
X99091723Y-69036905D02*
X98901247Y-68989286D01*
X98901247Y-68989286D02*
X98758390Y-68989286D01*
X98758390Y-68989286D02*
X98567914Y-69036905D01*
X98567914Y-69036905D02*
X98472676Y-69084524D01*
X98472676Y-69084524D02*
X98377438Y-69179762D01*
X98377438Y-69179762D02*
X98329819Y-69322619D01*
X98329819Y-69322619D02*
X98329819Y-69417857D01*
X98329819Y-69417857D02*
X98377438Y-69560714D01*
X98377438Y-69560714D02*
X98425057Y-69608333D01*
X99329819Y-70036905D02*
X98329819Y-70036905D01*
X98329819Y-70036905D02*
X98329819Y-70275000D01*
X98329819Y-70275000D02*
X98377438Y-70417857D01*
X98377438Y-70417857D02*
X98472676Y-70513095D01*
X98472676Y-70513095D02*
X98567914Y-70560714D01*
X98567914Y-70560714D02*
X98758390Y-70608333D01*
X98758390Y-70608333D02*
X98901247Y-70608333D01*
X98901247Y-70608333D02*
X99091723Y-70560714D01*
X99091723Y-70560714D02*
X99186961Y-70513095D01*
X99186961Y-70513095D02*
X99282200Y-70417857D01*
X99282200Y-70417857D02*
X99329819Y-70275000D01*
X99329819Y-70275000D02*
X99329819Y-70036905D01*
X98425057Y-70989286D02*
X98377438Y-71036905D01*
X98377438Y-71036905D02*
X98329819Y-71132143D01*
X98329819Y-71132143D02*
X98329819Y-71370238D01*
X98329819Y-71370238D02*
X98377438Y-71465476D01*
X98377438Y-71465476D02*
X98425057Y-71513095D01*
X98425057Y-71513095D02*
X98520295Y-71560714D01*
X98520295Y-71560714D02*
X98615533Y-71560714D01*
X98615533Y-71560714D02*
X98758390Y-71513095D01*
X98758390Y-71513095D02*
X99329819Y-70941667D01*
X99329819Y-70941667D02*
X99329819Y-71560714D01*
X85672857Y-82364580D02*
X85720476Y-82412200D01*
X85720476Y-82412200D02*
X85863333Y-82459819D01*
X85863333Y-82459819D02*
X85958571Y-82459819D01*
X85958571Y-82459819D02*
X86101428Y-82412200D01*
X86101428Y-82412200D02*
X86196666Y-82316961D01*
X86196666Y-82316961D02*
X86244285Y-82221723D01*
X86244285Y-82221723D02*
X86291904Y-82031247D01*
X86291904Y-82031247D02*
X86291904Y-81888390D01*
X86291904Y-81888390D02*
X86244285Y-81697914D01*
X86244285Y-81697914D02*
X86196666Y-81602676D01*
X86196666Y-81602676D02*
X86101428Y-81507438D01*
X86101428Y-81507438D02*
X85958571Y-81459819D01*
X85958571Y-81459819D02*
X85863333Y-81459819D01*
X85863333Y-81459819D02*
X85720476Y-81507438D01*
X85720476Y-81507438D02*
X85672857Y-81555057D01*
X85244285Y-82459819D02*
X85244285Y-81459819D01*
X85244285Y-81459819D02*
X85006190Y-81459819D01*
X85006190Y-81459819D02*
X84863333Y-81507438D01*
X84863333Y-81507438D02*
X84768095Y-81602676D01*
X84768095Y-81602676D02*
X84720476Y-81697914D01*
X84720476Y-81697914D02*
X84672857Y-81888390D01*
X84672857Y-81888390D02*
X84672857Y-82031247D01*
X84672857Y-82031247D02*
X84720476Y-82221723D01*
X84720476Y-82221723D02*
X84768095Y-82316961D01*
X84768095Y-82316961D02*
X84863333Y-82412200D01*
X84863333Y-82412200D02*
X85006190Y-82459819D01*
X85006190Y-82459819D02*
X85244285Y-82459819D01*
X83720476Y-82459819D02*
X84291904Y-82459819D01*
X84006190Y-82459819D02*
X84006190Y-81459819D01*
X84006190Y-81459819D02*
X84101428Y-81602676D01*
X84101428Y-81602676D02*
X84196666Y-81697914D01*
X84196666Y-81697914D02*
X84291904Y-81745533D01*
X82768095Y-82459819D02*
X83339523Y-82459819D01*
X83053809Y-82459819D02*
X83053809Y-81459819D01*
X83053809Y-81459819D02*
X83149047Y-81602676D01*
X83149047Y-81602676D02*
X83244285Y-81697914D01*
X83244285Y-81697914D02*
X83339523Y-81745533D01*
D11*
X83460000Y-84010000D02*
X83460000Y-84900000D01*
X83460000Y-86170000D02*
X83460000Y-87060000D01*
X83565000Y-84010000D02*
X83460000Y-84010000D01*
X83565000Y-87060000D02*
X83460000Y-87060000D01*
X96435000Y-84010000D02*
X96540000Y-84010000D01*
X96435000Y-87060000D02*
X96540000Y-87060000D01*
X96540000Y-84010000D02*
X96540000Y-84900000D01*
X96540000Y-86170000D02*
X96540000Y-87060000D01*
X84385000Y-88610000D02*
G75*
G02*
X84185000Y-88610000I-100000J0D01*
G01*
X84185000Y-88610000D02*
G75*
G02*
X84385000Y-88610000I100000J0D01*
G01*
X80285000Y-57400000D02*
X80285000Y-58290000D01*
X80285000Y-59560000D02*
X80285000Y-60450000D01*
X80390000Y-57400000D02*
X80285000Y-57400000D01*
X80390000Y-60450000D02*
X80285000Y-60450000D01*
X99610000Y-57400000D02*
X99715000Y-57400000D01*
X99610000Y-60450000D02*
X99715000Y-60450000D01*
X99715000Y-57400000D02*
X99715000Y-58290000D01*
X99715000Y-59560000D02*
X99715000Y-60450000D01*
X81210000Y-62000000D02*
G75*
G02*
X81010000Y-62000000I-100000J0D01*
G01*
X81010000Y-62000000D02*
G75*
G02*
X81210000Y-62000000I100000J0D01*
G01*
D12*
X99795000Y-70415580D02*
X99795000Y-70134420D01*
X100815000Y-70415580D02*
X100815000Y-70134420D01*
X84670580Y-80065000D02*
X84389420Y-80065000D01*
X84670580Y-81085000D02*
X84389420Y-81085000D01*
%LPC*%
D13*
X82695000Y-85535000D03*
X97305000Y-85535000D03*
D14*
X84285000Y-86900000D03*
X84285000Y-84170000D03*
X85555000Y-86900000D03*
X85555000Y-84170000D03*
X86825000Y-86900000D03*
X86825000Y-84170000D03*
X88095000Y-86900000D03*
X88095000Y-84170000D03*
X89365000Y-86900000D03*
X89365000Y-84170000D03*
X90635000Y-86900000D03*
X90635000Y-84170000D03*
X91905000Y-86900000D03*
X91905000Y-84170000D03*
X93175000Y-86900000D03*
X93175000Y-84170000D03*
X94445000Y-86900000D03*
X94445000Y-84170000D03*
X95715000Y-86900000D03*
X95715000Y-84170000D03*
D13*
X79520000Y-58925000D03*
X100480000Y-58925000D03*
D14*
X81110000Y-60290000D03*
X81110000Y-57560000D03*
X82380000Y-60290000D03*
X82380000Y-57560000D03*
X83650000Y-60290000D03*
X83650000Y-57560000D03*
X84920000Y-60290000D03*
X84920000Y-57560000D03*
X86190000Y-60290000D03*
X86190000Y-57560000D03*
X87460000Y-60290000D03*
X87460000Y-57560000D03*
X88730000Y-60290000D03*
X88730000Y-57560000D03*
X90000000Y-60290000D03*
X90000000Y-57560000D03*
X91270000Y-60290000D03*
X91270000Y-57560000D03*
X92540000Y-60290000D03*
X92540000Y-57560000D03*
X93810000Y-60290000D03*
X93810000Y-57560000D03*
X95080000Y-60290000D03*
X95080000Y-57560000D03*
X96350000Y-60290000D03*
X96350000Y-57560000D03*
X97620000Y-60290000D03*
X97620000Y-57560000D03*
X98890000Y-60290000D03*
X98890000Y-57560000D03*
D15*
X100305000Y-69500000D03*
X100305000Y-71050000D03*
D16*
X83755000Y-80575000D03*
X85305000Y-80575000D03*
%LPD*%
M02*
